<svg xmlns="http://www.w3.org/2000/svg" fill="none" viewBox="0 0 20 20">
  <circle cx="10" cy="10" r="10" fill="#fff"/>
  <path fill="#231815" d="M14.8 13.009c.638.857 1.297 1.735 1.955 2.612-1.316 1.556-2.952 2.553-4.927 2.972-2.194.46-4.268.12-6.283-.997 1.795-1.336 3.55-2.653 5.326-3.97.399.38.778.759 1.157 1.118.419.399.26.419.798.12a5.5 5.5 0 0 0 1.835-1.696c.02-.04.06-.08.08-.12-.02 0 0 0 .06-.04m-7.838 1.755c-.5.379-.958.718-1.417 1.077-.339.26-.678.499-1.017.758-.14.12-.24.12-.399-.02-1.516-1.357-2.473-3.032-2.832-5.026-.36-2.015-.04-3.93.917-5.745.02-.04.06-.1.08-.14 0-.02.02-.02.06-.04C3.67 7.365 5.007 9.1 6.324 10.836c-.04.06-.06.1-.1.14-.4.418-.798.837-1.217 1.236-.12.12-.14.22-.06.359a5.9 5.9 0 0 0 1.715 1.994c.1.06.18.12.3.2m7.44-12.387c-.639.46-1.277.918-1.915 1.357-1.098.778-2.194 1.575-3.272 2.353-.14.1-.239.12-.359-.02-.359-.379-.738-.718-1.097-1.097-.1-.1-.2-.12-.339-.06-.857.44-1.536 1.058-2.094 1.836-.04.04-.08.1-.12.16-.319-.42-.618-.799-.917-1.198-.32-.418-.619-.837-.918-1.236-.1-.14-.12-.24.02-.38C4.927 2.398 6.821 1.4 9.096 1.162c1.795-.2 3.51.16 5.106 1.017.06.04.12.06.18.1 0 .06 0 .08.02.1m3.25 11.968c-.418-.539-.797-1.037-1.176-1.536-.878-1.157-1.756-2.334-2.653-3.49-.12-.16-.12-.26.02-.4.379-.378.738-.757 1.117-1.136.1-.1.14-.2.06-.34a5.9 5.9 0 0 0-1.815-2.094c-.06-.04-.12-.1-.2-.14.06-.06.12-.099.16-.139.758-.578 1.516-1.137 2.274-1.715.12-.1.219-.14.358 0 1.895 1.715 2.913 3.85 3.012 6.422.04 1.496-.299 2.912-.977 4.249-.06.08-.12.18-.18.319"/>
</svg>
