<svg xmlns="http://www.w3.org/2000/svg" fill="none" viewBox="0 0 20 20">
  <circle cx="10" cy="10" r="10" fill="#fff"/>
  <path fill="#fff" d="m6.544 10.663.462-3.623L3 4.135 6.66 5.43l.865-1.385L10.68 2l6.958 4.003L18 12.11l-3.1 4.498-2.45.392 1.267-2.422v-2.331l-.921-1.821-.936-.647-1.44 1.55v1.64l-1.124 1.099-1.428.18-.632.374-1.037-.345-.433-1.625.778-1.143z"/>
  <path fill="#94a6c3" d="M13 4.14c-.855-.183-1.79-.134-1.79-.134S10.903 5.47 9 5.856c.014 0 2.515.882 4-1.716m-.126 11.773c.922-.707 1.614-1.68 1.933-2.782.015-.041.143-.114.23-.17.143-.085.289-.155.316-.268.057-.325.086-.664.086-1.003 0-.126-.13-.254-.26-.38-.1-.085-.202-.184-.202-.254a5.33 5.33 0 0 0-1.715-3.361l-.1.1a5.23 5.23 0 0 1 1.672 3.275c.015.114.129.225.245.34.1.084.217.212.217.268q-.001.486-.086.973c-.015.056-.144.114-.245.17-.143.07-.274.14-.301.254A5.23 5.23 0 0 1 12.472 16c.188-.395.778-1.68 1.094-2.332l-.057-2.09-1.83-1.735-1.038.14-1.14 1.809s.534.663-.217 1.44c-.734.763-1.312.933-1.312.933l-.534-.284c.158-.198.477-.494.722-.692.417-.34.835-.368.835-.734.017-.765-.82-.554-.82-.554l-.304.283-.129 1.046-.633.777-.071-.014L6 13.768s.635-.325.736-.693c.102-.353-.202-1.525-.217-1.596.015.015.304.255.432.65.23-.623.534-1.216.62-1.272a77 77 0 0 1 1.253-.663l-.388 1.002.29-.155.691-1.666s.678-.324 1.182-.324c.906-.015 2.248-1.102 1.643-3.051.173.07 3.17 1.54 3.69 4.421.387 2.216-.895 4.29-3.058 5.492"/>
  <path fill="#1b314f" d="M9.77 4.676c.335-.273.205-.676.205-.676L9 5c-.015 0 .347.01.77-.324m-3.126 7.768.18-.444s-.74.643-.805.733c-.068.1.046.278.334.266.29-.01.647-.222.647-.377 0-.2-.356-.178-.356-.178"/>
  <path fill="#1b314f" d="M14.788 3.674s.702.03 1.43.113c-1.642-1.291-3.198-1.669-4.46-1.669-1.74 0-2.918.717-2.99.758l.548-.87s-2.188-.213-2.96 2.104c-.198-.491-.378-1.208-.378-1.208S4.84 3.9 5.374 5.555c-1.306-.476-3.17-1.137-3.242-1.15-.098-.014-.127.03-.127.03s-.03.04.055.112c.156.123 3.103 2.3 3.75 2.72-.14.506-.14.744 0 .982.197.322.209.49.182.729-.028.238-.281 2.302-.336 2.554-.056.253-.645 1.15-.618 1.417s.392 1.402.716 1.53c.238.084.828.267 1.22.267.14 0 .267-.03.322-.085.238-.209.308-.252.476-.252h.041c.07 0 .154.014.253.014.223 0 .52-.043.728-.238.308-.308.842-.729 1.01-.926.212-.267.323-.63.268-.995-.044-.337.139-.633.35-.927.268-.35.758-.98.758-.98.97.726 1.573 1.834 1.573 3.068 0 2.189-1.907 3.957-4.264 3.957a4.5 4.5 0 0 1-1.066-.125c1.08.377 1.992.505 2.737.505 1.585 0 2.427-.575 2.427-.575s-.293.38-.772.813h.015c2.624-.366 3.9-2.525 3.9-2.525s-.098.702-.223 1.178c3.49-2.624 2.9-5.907 2.886-6.018.029.041.38.462.56.688.563-5.782-4.165-7.649-4.165-7.649m-5.373 9.234c-.055.07-.294.282-.462.435s-.351.308-.49.45q-.084.084-.337.084h-.421c.212-.281.827-.926 1.039-1.065.252-.168.38-.337.224-.63-.154-.296-.56-.224-.56-.224s.237-.099.449-.099c-.267-.07-.604 0-.758.154-.168.154-.14.703-.209 1.051-.07.366-.308.549-.673.886-.198.182-.337.238-.45.238a5 5 0 0 1-.717-.183c-.14-.183-.351-.787-.406-1.04.04-.139.209-.435.293-.603.168-.322.267-.505.296-.673.055-.239.238-1.713.308-2.329.183.238.435.633.377.886.407-.575.113-1.138-.028-1.362-.126-.224-.294-.673-.154-1.15s.644-1.796.644-1.796.169.295.407.238 2.16-2.947 2.16-2.947.519 1.136-.03 1.965c-.56.828-1.108.982-1.108.982s.772.14 1.486-.38c.294.688.575 1.402.59 1.5-.044.1-.604 1.446-.66 1.53-.028.03-.223.085-.365.113-.238.07-.378.113-.436.154-.098.085-.548 1.318-.757 1.922-.253.07-.505.212-.688.49.099-.069.406-.112.633-.139.197-.014.798.308.954.912v.029a.87.87 0 0 1-.151.601m-1.318.168c.127-.182.113-.49.127-.589.015-.098.041-.281.154-.308.113-.029.38.015.38.21 0 .182-.197.223-.336.35a10 10 0 0 0-.325.337m5.597-2.681a6.8 6.8 0 0 0 .113-1.838c.545.729.882 1.614.98 2.525.015.113.126.224.239.337.099.084.212.197.212.267q-.001.483-.085.97c-.014.04-.14.113-.238.168-.14.07-.267.14-.293.252a5.23 5.23 0 0 1-1.852 2.709c1.303-1.362 1.934-3.608.924-5.39m-.883 5.515c.911-.703 1.614-1.684 1.922-2.793.014-.04.139-.113.223-.168.14-.07.282-.154.308-.267.055-.322.084-.66.084-.996 0-.125-.127-.252-.252-.377-.07-.085-.183-.183-.183-.253a5.5 5.5 0 0 0-1.15-2.792c-.281-1.684-1.402-2.204-1.43-2.218.028.043.757 1.094.252 2.328-.52 1.249-1.852 1.054-1.965 1.066-.113 0-.546.56-1.094 1.6a1.5 1.5 0 0 0-.703-.042c.253-.702.633-1.698.702-1.782.03-.029.239-.084.38-.125.268-.07.393-.113.436-.168.029-.044.168-.366.308-.703.127 0 .45-.029.476-.043.029-.029.296-.714.296-.799 0-.07-.549-1.43-.758-1.95.099-.113.197-.253.293-.407a5.75 5.75 0 0 1 5.123 5.71 5.75 5.75 0 0 1-3.268 5.179"/>
  <path fill="#1b314f" d="M9.806 7.974c.389-.326.185-.935-.533-1.04.186-.31.448-.934.448-.934S7.636 8.376 7.454 8.422c-.185.046-.368-.476-.368-.476-.389 1.084.656 1.232.778.89.571-.106 1.553-.552 1.942-.862"/>
  <path fill="#ffd923" d="m8 9 .73-2s.423.34.21.879C8.675 8.507 8 9 8 9"/>
  <path fill="#d82122" d="M16.948 14.243A9 9 0 0 1 16 15c2.353-3.075.11-5.89.019-6 .166.113.328.236.475.346 1.806 1.363 2.025 3.41.454 4.897M19 10c-.665-1.692-1.61-3.132-3.689-4.43-2.006-1.258-4.162-1.16-4.28-1.146H11c.073-.028.147-.043.22-.055a10 10 0 0 1 1.64-.32c1.566-.214 3.144.289 4.222 1.367l.03.029C18.338 6.675 18.973 8.21 19 10m-4-7.326c-2.37-.37-3.898-.186-4.998.16a3.6 3.6 0 0 0-.24-.491c-.33.331-.682.729-.903.98C8.254 3.67 8 4 8 4c.35-.994 1.37-1.734 2.61-1.92Q11.136 2 11.757 2A8.7 8.7 0 0 1 15 2.674M7 5c-1.395-.027-.931-.947-.906-1 0 .007.094.723.906 1m1-3c-.914.886-.731 3-.731 3-.875-2.145.66-2.95.731-3"/>
  <path fill="#fff" d="M5.905 6.315c.07.106.14.299.058.576-.046.149-.116.127-.222.043C5.6 6.807 4.759 5.914 4 5c.865.554 1.74 1.147 1.88 1.275z"/>
</svg>
