<svg xmlns="http://www.w3.org/2000/svg" fill="none" viewBox="0 0 20 20">
  <g clip-path="url(#aavegotchi_svg__a)">
    <path fill="#7E18F8" d="M9.751 20H6.164v-1.026h-2.05V17.95H3.089v-1.026h13.837v1.026H15.9v1.025h-2.05V20z"/>
    <path fill="#8F17F9" d="M18.463 13.846H1.04v2.051h1.025v1.026h15.887v-1.026h1.025v-2.05z"/>
    <path fill="#FA34F3" d="M19.488 6.154h-.513V4.103H17.95V3.077h-1.024V2.051H15.9V1.026h-2.05V0H6.163v1.026h-2.05V2.05H3.09v1.026H2.064v1.026H1.039v2.05H.014v1.54H20v-1.54z"/>
    <path fill="#CF15F9" d="M19.488 7.692H.014v3.077H20V7.692z"/>
    <path fill="#AC15F9" d="M19.488 10.77H.014v3.076H20V10.77z"/>
    <path fill="#fff" d="M12.983 11.754v.353h.706v-1.059h-.706zm-.705.353h-1.764v.706h1.411v.706h.706v-.706h.352v-.706zm-1.058-1.059h1.763v-.706H11.22zm-.706-1.765v1.059h.706V9.283zm2.47-.706h-.353V7.87h-.706v.706h-.705v.706h2.47v-.706zm4.586 0h-3.175v.706h1.41v3.53h.706v-3.53h1.411v-.706zm-8.467 0v1.765H7.34V8.577h-.705v4.236h.705v-1.765h1.764v1.765h.706V8.577zm-3.88 0H3.106v.706H5.93v-.706zm.706 3.53v-1.765H3.812v.706h1.411v1.06z"/>
    <path fill="#fff" d="M3.106 12.813h2.117v-.706H3.106zM2.4 9.283v2.824h.706V9.283z"/>
  </g>
  <defs>
    <clipPath id="aavegotchi_svg__a">
      <path fill="#fff" d="M0 0h20v20H0z"/>
    </clipPath>
  </defs>
</svg>
