<svg xmlns="http://www.w3.org/2000/svg" fill="none" viewBox="0 0 800 800">
  <path fill="url(#a)" d="M400 788c214.286 0 388-173.714 388-388S614.286 12 400 12 12 185.714 12 400s173.714 388 388 388Z"/>
  <path fill="#fff" d="M569.8 554.6 438.6 237.4c-7.4-16.4-18.4-24.4-32.9-24.4h-11.6c-14.5 0-25.5 8-32.9 24.4l-57.1 138.2h-43.2c-12.9.1-23.4 10.5-23.5 23.5v.3c.1 12.9 10.6 23.4 23.5 23.5h23.2l-54.5 131.7c-1 2.9-1.6 5.9-1.6 9 0 7.4 2.3 13.2 6.4 17.7 4.1 4.5 10 6.7 17.4 6.7 4.9-.1 9.6-1.6 13.5-4.5 4.2-2.9 7.1-7.1 9.4-11.9l60-148.8h41.6c12.9-.1 23.4-10.5 23.5-23.5v-.6c-.1-12.9-10.6-23.4-23.5-23.5h-22.2l45.8-114.1 124.8 310.4c2.3 4.8 5.2 9 9.4 11.9 3.9 2.9 8.7 4.4 13.5 4.5 7.4 0 13.2-2.2 17.4-6.7 4.2-4.5 6.4-10.3 6.4-17.7.1-3-.4-6.1-1.6-8.9Z"/>
  <defs>
    <linearGradient id="a" x1="689.52" x2="112.176" y1="156.664" y2="642.44" gradientUnits="userSpaceOnUse">
      <stop stop-color="#B6509E"/>
      <stop offset="1" stop-color="#2EBAC6"/>
    </linearGradient>
  </defs>
</svg>
