<svg xmlns="http://www.w3.org/2000/svg" viewBox="0 0 200 200">
  <linearGradient id="ab_svg__a" x1="49.992" x2="150.008" y1="186.617" y2="13.383" gradientUnits="userSpaceOnUse">
    <stop offset="0" stop-color="#343dd5"/>
    <stop offset=".5" stop-color="#1167c0"/>
    <stop offset=".757" stop-color="#2484ae"/>
    <stop offset="1" stop-color="#339ca0"/>
  </linearGradient>
  <circle cx="100" cy="100" r="100" fill="url(#ab_svg__a)"/>
  <path fill="#fff" d="M156.68 104.22c-2.04-3.86-4.21-6.85-6.44-8.88a90 90 0 0 0-4.54-3.85l1.9-1.35c2.91-1.79 5.19-5.35 6.96-10.89 1.27-4.1 1.6-8.27 1-12.4-.6-4.05-1.88-7.79-3.8-11.11-1.94-3.37-4.34-6.11-7.13-8.14a30.3 30.3 0 0 0-9.19-4.52c-3.32-1-6.87-1.51-10.54-1.51h-.47v-5.88h-13.28v5.88H85.48L60.99 85.98h-17.3v15.74h8.62l-25.57 46.37-1.04 1.88h13.06l26.6-48.25h22.68v48.25h23.1v5.88h13.28v-5.91c6.54-.14 11.77-.81 15.53-2.02 4.37-1.4 8.08-3.61 11.02-6.59 2.85-2.9 4.96-5.82 6.28-8.69 1.87-4.1 2.77-8.91 2.69-14.3-.06-5.4-1.16-10.15-3.26-14.12m-10.91 19.74c-.56 4.76-2.29 8.1-5.14 9.92-3.21 2.05-6.38 3.31-9.44 3.76-3.29.49-7.19.7-11.61.65h-18.73v-37.21h23.17c3.63.05 6.72.24 9.19.54 2.05.26 4.13 1.24 6.16 2.94 2.12 1.77 3.8 3.96 4.99 6.49 1.54 3.49 2.01 7.83 1.41 12.91m-44.92-37.98V53.47h21.88c2.46 0 5.04.28 7.68.85 2.53.53 4.75 1.4 6.62 2.58 1.73 1.1 3.23 2.97 4.45 5.54 1.26 2.85 1.7 6.14 1.29 9.78-.4 3.57-1.46 6.38-3.17 8.35-1.71 1.98-3.97 3.38-6.69 4.15-2.97.84-6.51 1.27-10.51 1.27h-21.55zm-26.8 0 14-25.4v25.4z"/>
</svg>
