<svg xmlns="http://www.w3.org/2000/svg" fill="none" viewBox="0 0 20 20">
  <path fill="#000" d="M0 0h20v20H0z"/>
  <path fill="#FEFEFE" d="M3.337 12.74a.34.34 0 0 1-.159-.031q-.053-.024-.053-.064 0-.072.068-.095.076-.033.099-.04a1.2 1.2 0 0 0 .455-.183q.16-.127.16-.39V8.24a.8.8 0 0 0-.038-.279.24.24 0 0 0-.137-.135 1.1 1.1 0 0 0-.288-.08q-.25-.048-.25-.16 0-.046.06-.063a.4.4 0 0 1 .16-.024q.204 0 .326.008.13.007.242.016h.608l.28-.016q.144-.008.35-.008.098 0 .159.024.06.016.06.064 0 .056-.06.095a.5.5 0 0 1-.19.064 2.7 2.7 0 0 0-.478.135q-.197.072-.197.303v3.751q0 .247.106.367t.478.12h.94a.86.86 0 0 0 .592-.207q.153-.136.22-.24.077-.111.175-.326.015-.048.061-.144.052-.095.106-.095.045 0 .069.048a.2.2 0 0 1 .022.095l-.007.024v.016l-.099.374q-.038.168-.068.319-.023.15-.038.318a.3.3 0 0 1-.03.096q-.015.04-.076.04-.38 0-.729-.008l-.675-.016q-.32 0-.615-.008a21 21 0 0 0-.584-.008q-.19 0-.433.008-.235.007-.417.016zm5.79.073q-.425 0-.766-.208a1.54 1.54 0 0 1-.547-.565 1.7 1.7 0 0 1-.197-.828q0-.335.121-.653a2.1 2.1 0 0 1 .357-.582q.228-.263.531-.414.304-.16.653-.16.44 0 .789.224.357.223.562.589.212.359.212.789 0 .461-.197.876a1.64 1.64 0 0 1-.57.677q-.378.255-.948.255m.16-.24q.257 0 .462-.103a.7.7 0 0 0 .319-.335q.09-.183.121-.445.03-.264.03-.494a2 2 0 0 0-.136-.733 1.4 1.4 0 0 0-.372-.582.77.77 0 0 0-.561-.23.9.9 0 0 0-.372.071.7.7 0 0 0-.296.247 1.06 1.06 0 0 0-.197.486q-.046.287-.046.573 0 .39.137.75.136.35.372.572a.76.76 0 0 0 .538.224m3.598.239q-.425 0-.766-.208a1.55 1.55 0 0 1-.547-.565 1.7 1.7 0 0 1-.197-.828q0-.335.121-.653a2.1 2.1 0 0 1 .357-.582q.228-.263.531-.414.304-.16.653-.16.44 0 .79.224.356.223.56.589.213.359.213.789 0 .461-.197.876a1.64 1.64 0 0 1-.57.677q-.379.255-.948.255m.16-.24q.258 0 .462-.103a.7.7 0 0 0 .32-.335q.09-.183.12-.445.03-.264.03-.494a2 2 0 0 0-.136-.733 1.4 1.4 0 0 0-.372-.582.77.77 0 0 0-.561-.23.9.9 0 0 0-.372.071.7.7 0 0 0-.296.247 1.06 1.06 0 0 0-.197.486q-.046.287-.046.573 0 .39.137.75.136.35.372.572a.76.76 0 0 0 .538.224m3.257.239q-.372 0-.585-.24-.204-.239-.204-.708v-1.848q0-.064-.046-.088-.045-.032-.197-.032h-.046q-.038 0-.068-.047a.3.3 0 0 1-.023-.112q0-.015.023-.048l.03-.04q.152-.11.273-.223a3 3 0 0 0 .403-.414l.06-.063a.1.1 0 0 1 .069-.032q.038 0 .068.016.038.015.03.071l-.038.359q-.007.087.038.12.046.03.144.031h.865q.03 0 .054.056a.3.3 0 0 1 .022.12.5.5 0 0 1-.022.143q-.023.063-.054.063h-.75q-.19 0-.251.032-.053.032-.053.191v1.57q0 .319.129.501.129.183.372.183.22 0 .341-.031a.8.8 0 0 0 .22-.112q.015-.015.03-.016.03 0 .038.04.015.032.015.072t-.129.159q-.121.12-.326.223a.9.9 0 0 1-.432.104"/>
</svg>
