<svg xmlns="http://www.w3.org/2000/svg" fill="none" viewBox="0 0 20 20">
  <circle cx="10" cy="10" r="10" fill="#141414"/>
  <path fill="#fff" fill-rule="evenodd" d="M9.362 6.007c-.185.357-.5 1.583.345 2.889.302.466.623.982.94 1.522.765-.312 1.486-.64 2.076-.983.683-.396 1.052-.735 1.19-.978.439-.78.5-1.464.352-2.005-.15-.543-.543-1.062-1.236-1.454a2.696 2.696 0 0 0-3.667 1.009m2.238 6.139c.732-.305 1.467-.643 2.108-1.015.744-.432 1.505-.989 1.912-1.712.65-1.15.844-2.365.535-3.487s-1.087-2.033-2.16-2.64a4.656 4.656 0 0 0-6.346 1.762l-.006.01-.005.01c-.46.862-.881 2.871.423 4.887.237.366.484.76.73 1.172q-.43.16-.836.315c-.696.267-1.413.555-1.839.853-.634.444-1.208.91-1.595 1.555-.4.668-.538 1.416-.538 2.312h1.96c0-.697.108-1.052.259-1.303.164-.274.447-.544 1.039-.957.187-.131.651-.336 1.416-.63.244-.093.513-.194.798-.3l.309-.115q.143.276.276.549c.288.589.525 1.145.689 1.635.168.503.238.877.238 1.12h1.961c0-.551-.144-1.158-.34-1.742-.2-.598-.475-1.237-.785-1.873z" clip-rule="evenodd"/>
  <path fill="#C42D74" fill-rule="evenodd" d="M13.03 4.998a2.697 2.697 0 0 0-3.674 1.02l-1.707-.964a4.66 4.66 0 0 1 6.345-1.762c1.075.607 1.853 1.519 2.161 2.64s.114 2.336-.535 3.487a3.5 3.5 0 0 1-.68.834l-1.327-1.444a1.5 1.5 0 0 0 .3-.352c.439-.78.5-1.464.352-2.005-.15-.543-.543-1.062-1.236-1.454" clip-rule="evenodd"/>
</svg>
