<svg xmlns="http://www.w3.org/2000/svg" fill="none" viewBox="0 0 20 20">
  <circle cx="10" cy="10" r="10" fill="#EBE8E1"/>
  <mask id="aerodrome-finance_svg__a" width="11" height="14" x="5" y="3" maskUnits="userSpaceOnUse" style="mask-type:luminance">
    <path fill="#fff" d="M15.185 3.75H5v12.5h10.185z"/>
  </mask>
  <g mask="url(#aerodrome-finance_svg__a)">
    <path fill="#0C0D1D" d="m6.039 8.768.001-.01.002-.01.002-.008.002-.01.002-.01.002-.008.002-.01.003-.009.002-.01.002-.009.002-.008v-.003l.004-.01.003-.009.003-.01.003-.008.004-.01.005-.01.004-.008q.001-.006.004-.01l.004-.01.004-.008.004-.01.004-.01.005-.008q.001-.006.004-.01l.004-.01.004-.008.005-.01.004-.007q.002-.005.006-.008l.005-.01.005-.009.006-.01.006-.009.007-.009.006-.01.006-.009.006-.009.006-.01.007-.009.006-.009.006-.01.006-.009.007-.009.006-.01.007-.009.007-.009.008-.01.007-.009.007-.009.007-.01.008-.009.007-.009.007-.01.007-.009.008-.009.007-.01.002-.001.008-.01.009-.01.008-.008.008-.01.008-.009q.006-.004.009-.01l.01-.01.008-.01.01-.01.01-.009.008-.01q.005-.003.01-.01l.01-.009.008-.01.01-.01.009-.01.01-.011.009-.01.01-.011.01-.01.01-.01.01-.011.01-.01.01-.01.011-.011q.006-.004.01-.01l.011-.011.01-.01.01-.01.011-.011.01-.01.01-.01.012-.011.012-.01.011-.01.011-.011.012-.01.011-.011q.007-.004.012-.01l.011-.01.011-.011.012-.01.011-.01.012-.011.011-.01.01-.007.012-.01.012-.01.013-.01.012-.011.013-.01.012-.011.013-.01q.006-.006.013-.01.005-.006.014-.011l.013-.01q.006-.006.013-.01l.014-.011q.006-.006.013-.01l.014-.011.013-.01.014-.01.013-.011.014-.01.013-.01.014-.011.013-.01q.007-.006.015-.01l.014-.011.015-.01.014-.011.015-.01.014-.01.015-.011.014-.01.015-.01.014-.011.015-.01.014-.011.015-.01.015-.01.015-.011.016-.01.015-.01.016-.011.015-.01.016-.011.015-.01.016-.01.015-.011.016-.01.016-.01.015-.011.016-.01.015-.01.017-.011.016-.01.017-.011.017-.01.016-.01.017-.011.016-.01.017-.01.017-.011.016-.01.017-.011.016-.01.017-.01.017-.011.016-.01q.008-.006.018-.01l.017-.011.018-.01q.007-.006.018-.01l.017-.011.018-.01.018-.011.017-.01.018-.01.017-.011q.01-.004.018-.01l.018-.01.017-.011q.01-.004.018-.01l.018-.011.017-.01.004-.001.019-.01.019-.011.018-.01.019-.01.019-.011.018-.01.019-.011.019-.01.018-.01.02-.011.02-.01.02-.01.02-.011.019-.01.02-.01.02-.011q.009-.006.019-.01l.02-.011.02-.01.019-.01.02-.011.02-.01.02-.01.019-.011.02-.01.02-.011.021-.01.02-.009.021-.009.021-.01.02-.009.022-.009.02-.01.021-.009.02-.009.022-.01.02-.009.021-.009q.011-.004.02-.01l.022-.009.021-.009.022-.01.022-.009.022-.009.021-.01.022-.009.022-.009.022-.01.022-.009.021-.009.022-.01.022-.009.022-.009.021-.01.022-.009.022-.009.022-.01.045-.018.023-.01.023-.009.023-.009.023-.01.022-.009.023-.009.023-.01.023-.009.023-.009.023-.01.022-.009.023-.009.046-.019.023-.009.023-.01.024-.009.024-.009.024-.01.024-.009.024-.009.024-.01q.011-.003.023-.009l.024-.009q.013-.004.024-.01l.024-.009.024-.009.024-.01.047-.018.024-.01q.012-.003.025-.009l.025-.009.025-.01.025-.009.025-.009q.012-.003.024-.01.013-.002.025-.009L10.147 6l.025-.01q.012-.002.025-.009l.025-.009q.012-.003.025-.01.012-.002.025-.009l.025-.009q.012-.003.024-.01.013-.002.025-.009l.025-.009q.013-.004.025-.01.013-.002.026-.009l.026-.009.026-.01q.013-.002.026-.009l.026-.009q.012-.003.026-.01.012-.002.026-.009l.026-.009.025-.01q.014-.002.026-.009l.026-.009q.014-.004.026-.01.013-.002.026-.009l.026-.009q.013-.003.026-.01.013-.002.026-.009l.026-.009.026-.01q.012-.002.027-.009l.027-.009.027-.008.027-.008.027-.009.027-.008.026-.008.027-.009.027-.008.027-.008.027-.009.027-.008.027-.008.027-.008.027-.009.027-.008.027-.008.027-.009q.007 0 .013-.004l.028-.008.029-.008.027-.009.028-.008.028-.008.028-.009.028-.008.028-.008.028-.008.028-.009.028-.008.028-.008.028-.009.028-.008.028-.008.028-.008.03-.009.028-.008.03-.008.028-.009.03-.008.029-.008q.014-.003.029-.009l.029-.008.029-.008.029-.008.029-.009.029-.008.029-.008.029-.009.029-.008.029-.008.029-.008.029-.009.03-.008.028-.008.03-.009.03-.008.03-.008.03-.009.03-.008.03-.008.03-.008.03-.009.03-.008.03-.008.03-.008.03-.007.031-.007.03-.007.03-.008.03-.007.03-.007.03-.007.03-.008.03-.007.03-.007.032-.007.03-.008.032-.007.031-.007.031-.007.031-.008.031-.007.031-.007.032-.008.03-.007.032-.007.03-.007.032-.008.031-.007.031-.007.031-.007.031-.008.031-.007.032-.007.03-.007.032-.008.032-.007.032-.007.032-.007.032-.008.032-.007.033-.007.032-.007.032-.008.032-.007.032-.007.032-.007.033-.008.032-.007.032-.007.032-.007.032-.008.032-.007.032-.007.033-.006.032-.007.032-.006.032-.006.033-.006.033-.007.034-.006.033-.006.033-.006.033-.006.033-.007.034-.006.033-.006.033-.006.033-.007a.517.517 0 1 0-.239-1.006l-.033.006-.033.006-.033.006-.033.006-.033.007-.034.006-.033.006-.033.006-.033.007-.033.006-.034.006-.033.006-.033.007-.033.008-.033.007-.033.007-.033.008-.032.007-.032.007-.032.007-.032.008-.032.007-.032.007-.033.007-.032.008-.032.007-.032.007-.032.007-.032.008-.032.007-.033.007-.032.007-.032.008-.032.007-.032.007-.032.007-.032.008-.033.007-.03.007-.032.007-.03.008-.032.007-.031.007-.031.007-.031.008-.031.007-.031.007-.032.008-.03.007-.032.007-.031.007-.031.008-.031.007-.031.007-.031.007-.032.008-.03.007-.032.007-.03.007-.03.008-.03.007-.03.008-.03.008-.03.009-.03.008-.03.008-.03.009-.03.008-.03.008-.03.009-.03.008-.03.008-.03.008-.03.009-.03.008-.031.008-.03.009-.03.008-.03.008-.03.009-.028.008-.03.008-.028.008-.03.009-.028.008-.03.008q-.015.003-.029.009l-.029.008-.029.008-.029.008-.029.009-.029.008-.029.008-.029.009-.029.008-.029.008-.029.009-.029.008-.029.008-.028.008-.028.009-.028.008-.028.008-.028.009-.028.008-.028.008-.028.008-.028.009-.028.008-.028.008-.028.009a1 1 0 0 0-.097.03l-.028.008-.028.008-.028.009-.028.008-.028.008-.028.008-.028.009-.027.008-.027.008-.027.01-.027.009q-.015.004-.027.01-.015.003-.027.009-.015.004-.027.01-.015.002-.027.008l-.027.01-.027.009q-.015.004-.027.01-.014.003-.027.009l-.027.009-.027.01-.027.009-.027.009q-.012.003-.027.01l-.027.009-.025.009-.026.01q-.014.003-.026.009l-.026.009-.026.01q-.013.003-.026.009l-.026.009q-.013.003-.026.01-.013.003-.026.009l-.026.009-.026.01-.026.009-.026.009-.025.01q-.014.003-.026.009l-.026.009q-.014.003-.026.01-.014.003-.026.009l-.025.009-.025.01q-.012.003-.025.009l-.025.009-.025.01-.024.009-.025.009-.025.01-.025.009-.025.009-.025.01-.025.009-.025.009-.025.01-.024.009-.025.009-.025.01q-.014.004-.024.009l-.048.018-.024.01-.023.009-.024.01-.024.009-.024.009-.024.01-.024.009-.024.009-.023.01-.024.009-.024.009-.024.01-.024.009-.024.009-.022.01-.046.018-.023.01-.023.009-.023.009-.022.01-.023.009-.023.009-.023.01-.023.009-.022.009-.023.01-.023.009-.023.009-.023.01-.021.009-.022.009-.022.01-.022.009-.022.009-.021.01-.044.019-.022.01q-.01.003-.021.01l-.022.01-.022.01-.022.01-.022.011-.021.01-.022.01-.02.011-.022.01-.02.011-.021.01-.02.01-.021.011-.021.01-.021.01-.02.011-.021.01-.021.011-.02.01-.022.01-.02.011-.021.01-.02.01-.02.011-.02.01-.02.01-.02.011-.02.01-.02.011-.019.01-.02.01-.02.011-.019.01-.02.01-.02.011-.019.01-.02.011-.02.01-.018.01-.019.011-.018.01q-.01.007-.02.01-.007.006-.018.011l-.018.01-.019.01a1 1 0 0 0-.088.049l-.019.01-.019.01-.018.01-.019.011-.019.01-.018.01-.019.011-.019.01-.017.011-.018.01-.017.01-.018.011-.018.01-.017.01-.018.011-.018.01-.017.01-.018.011-.017.01-.018.011-.018.01-.017.01-.018.011-.016.01-.017.01-.017.011-.016.01-.017.011-.016.01-.017.01-.017.011-.016.01-.017.01-.016.011-.017.01-.017.01-.016.011-.016.01-.015.011-.016.01-.015.01-.016.011-.016.01-.015.01-.016.011-.015.01-.016.011-.015.01q-.007.006-.016.01l-.015.011-.016.01-.014.01-.015.011-.014.01q-.008.007-.015.01l-.015.011-.014.01-.015.011-.014.01-.015.01-.014.011-.015.01q-.007.007-.014.01l-.015.011-.014.01-.014.011-.013.01-.014.01-.013.011-.014.01-.013.01-.014.011-.013.01q-.006.006-.013.01l-.014.011q-.006.006-.013.01l-.014.011-.013.01-.014.01-.012.011-.013.01-.012.01-.013.011-.012.01a1 1 0 0 0-.077.064l-.012.01-.013.01-.012.011-.013.01-.012.01-.012.011-.013.01-.011.01-.012.011-.011.01-.012.011-.011.01-.011.01-.012.011-.011.01-.012.01-.011.011-.011.01-.012.01-.011.011-.01.01-.011.011-.01.01-.01.01-.011.011-.01.01-.01.01-.022.022-.01.01-.01.01q-.004.006-.01.01l-.011.011-.01.01q-.004.006-.009.01l-.009.011-.01.01q-.004.007-.009.01l-.009.011q-.004.006-.01.01l-.009.011-.009.01q-.004.006-.01.01l-.009.011-.009.01q-.004.006-.01.01l-.008.011-.008.01-.008.011-.009.01a1 1 0 0 0-.063.077l-.008.01-.008.01-.009.011-.008.01-.008.01-.009.011-.008.01-.008.011-.007.01-.008.01-.007.011-.007.01-.007.01-.008.011-.007.01-.007.011-.007.01-.008.01-.014.021-.006.01-.007.011-.006.01-.006.01-.006.011-.007.01-.006.011-.006.01-.006.01-.006.011-.007.01-.006.01-.005.011-.005.01-.005.011a.5.5 0 0 0-.048.088l-.005.01-.005.01q-.004.005-.006.011l-.005.01q-.001.005-.005.011l-.005.01-.005.01q-.002.006-.006.011l-.004.01q-.001.006-.004.01l-.004.011-.004.01-.004.01-.005.011-.004.01-.004.011-.004.01-.004.01-.004.011-.004.01-.003.01-.004.011-.003.01-.003.011-.003.01-.003.009a.5.5 0 0 0-.03.097l-.003.01-.003.01-.003.01-.004.009-.002.009-.002.01-.002.01-.002.009-.002.01-.002.009-.002.009-.002.01-.002.009-.002.009-.002.01-.002.009-.001.009-.002.01v.009l-.002.009v.01A.5.5 0 0 0 5 8.72v.17q0 .056.011.108l.002.01.003.008.002.01.002.01.002.008q0 .006.002.01l.002.01.002.008.002.01.002.01.002.008q0 .006.003.01l.003.01a.5.5 0 0 0 .03.095l.004.008q0 .005.003.008 0 .005.003.008l.003.009.003.008.003.008.003.009.003.008.004.008.004.008.004.009.004.008.004.008.004.009.004.008.005.008.004.009.004.008.004.008.004.008.004.009q.02.045.046.084l.005.008.005.008.005.009.006.008.005.008.005.008.005.009.005.008.006.008.005.009.005.008.005.008.005.009.007.008.006.008.006.008.006.009.006.008.007.008.006.009.006.008.006.008.007.008.006.009.006.008.006.008a.5.5 0 0 0 .058.07l.008.01.007.007.007.009.007.008.008.008.007.009.007.008.007.008.008.009.007.008.007.008.007.008.009.009.008.008.008.008.009.009.008.008.041.041.009.009.008.008.008.008.01.009.009.008.01.008.009.008.009.009.01.008.009.008.009.009.01.008q.03.03.066.055l.009.007.01.007q.003.005.009.008l.009.007.01.007.009.007.01.008.01.007.01.007.011.008.01.007.01.007.011.007.01.008.01.007.011.007.01.007.011.008.01.007.01.007.012.007.012.008.01.007.012.007.012.007.011.008.012.007.011.007.011.007.012.008.011.007.012.007.011.007.011.008.013.007.012.007.013.007.012.008.013.007.012.007.012.008.013.007.012.007.013.007.012.008.013.007.012.007.013.007.012.008.014.007.013.007.013.007q.008.003.014.008a.4.4 0 0 0 .07.037l.013.007.013.007.014.008.013.007.014.007.013.008.014.007.013.007.014.007.013.008.014.007.013.007.015.007.014.008.015.007.014.007.015.007.014.008.015.007.014.007.015.007.014.008.015.007.014.007.015.007.014.008.015.007.015.007.016.007.016.008.015.007.016.007.015.008.016.007.015.006.016.006.015.006.016.007.016.006.015.006.016.006.015.007.016.006.016.006.017.006.017.006.033.013.016.006.017.006.017.006.016.007.017.006.016.006.017.006.016.007.017.006.017.006.016.006.018.006.018.007.017.006.018.006.017.006.036.013.017.006.018.006.018.006.017.007.018.006.035.012.018.007.017.006.018.006.018.006.056.019.018.006.019.006q.009.004.019.006l.018.007.019.006.019.006.018.006.019.007.019.006.018.006.019.006.019.007.018.006q.03.012.064.02l.02.006.018.006.02.006.02.006.039.013.02.006.019.006.02.006.02.007.039.012.02.006.02.006.019.005.02.005.02.005.019.005.02.005.02.006.02.005.02.005.022.005.02.005.021.006.02.005.022.005.02.005.021.005q.01.004.02.005l.022.006.02.005.021.005.02.005.021.005.021.006.021.005.02.005.022.005.022.005.022.005q.011.005.022.006l.022.005.021.005.022.005.022.005q.01.004.022.006l.021.005.022.005.022.005.022.005q.01.004.022.005l.021.006.022.005.022.005.022.005.021.005.023.006.023.005.023.005.023.005.022.005.023.006.023.005.023.005.023.005.023.005.022.005.023.006.023.005.023.005.023.005.022.005.023.006.023.005.023.005.023.005.022.005.024.005q.012.004.024.005l.024.004.024.004.024.004.024.004.023.004.024.005.024.004.024.004.024.004.024.004.024.004.023.005.024.004.024.004.024.004.024.004.024.004.024.004.024.005.025.004.025.004.025.004.025.004.025.004.025.004.024.005.025.004.025.004.025.004.025.004.025.004.025.004.025.005.025.004.025.004.024.004.025.004.025.004.025.004.025.005.025.004.026.004.026.004.026.004.026.004.026.005.025.004.026.004.026.004.026.004.026.004.026.004.026.005.026.004.026.004.026.004.026.003.026.003.026.003.025.003.026.003q.014.004.026.004l.026.003.026.003.027.003.027.003.027.003.027.003.027.003.027.003q.013.003.027.004l.027.003.027.003.027.003.027.003.027.003.027.003.027.003q.012.003.026.004l.027.003.027.003.027.003.027.003.027.003.027.003.027.003.027.003.027.004.027.003.028.003.028.003.028.003.028.003.028.003.028.003a.2.2 0 0 0 .043.004q.013.003.027.004l.027.003.026.003.027.003.027.003.027.003.027.003.027.003.027.003h.001l.027.003h.001q.013.004.027.004h.001l.027.003h.001l.026.003h.002l.026.003h.002l.026.003h.002l.026.003h.002l.026.003h.002l.026.003h.002l.026.003h.002q.012.004.026.004h.002l.026.002h.003l.026.002h.003l.026.002h.003l.025.002h.003l.025.002h.003l.025.002h.003l.025.002h.003l.025.002h.003l.025.002h.004l.025.002h.004l.025.002h.004l.025.002h.004l.025.003h.004l.025.002h.005l.024.002h.005l.023.002h.005l.023.002h.006l.023.002h.006l.023.002h.006l.024.002h.005l.024.002h.005l.024.002h.005l.024.002h.005l.024.002h.005l.024.002h.006l.023.003h.006l.023.002h.006l.023.002h.006l.023.002h.006l.023.002h.006l.023.002h.006l.023.002h.007l.023.002h.007l.023.002h.007l.023.002h.007l.023.002h.007l.022.002h.007l.022.002h.008l.021.002h.008l.021.003h.009l.021.002h.009l.021.002h.009l.022.002h.008l.022.002h.008l.022.002h.008l.022.002h.008l.02.002h.009l.02.002h.01l.02.002h.01l.02.002h.01l.021.002h.01l.02.003h.01l.02.002h.01l.02.002h.01l.02.002h.01l.021.002h.01l.02.002h.01l.02.002.01-.001.02.002a.155.155 0 1 0 0-.311h-.003l-.027-.003h-.003l-.027-.003h-.003l-.027-.003h-.003l-.027-.004h-.002l-.028-.003h-.002l-.028-.003h-.002l-.028-.003h-.002l-.028-.003h-.002l-.028-.003h-.002l-.028-.003h-.002l-.028-.003h-.002l-.028-.004h-.001l-.028-.003h-.001l-.028-.003h-.001l-.03-.003-.03-.003-.028-.003-.03-.003-.029-.003-.029-.003-.029-.004-.029-.003-.024-.002-.028-.003-.03-.003-.029-.003-.029-.003-.029-.003-.029-.003-.029-.003-.029-.004-.029-.003-.029-.003-.029-.003-.029-.003-.029-.003-.029-.003-.029-.003-.03-.003-.028-.004-.03-.003-.028-.003-.03-.003-.027-.003-.028-.003-.028-.003-.028-.003-.028-.003-.028-.003-.028-.004-.028-.003-.028-.003-.028-.003-.028-.004-.028-.004-.028-.004-.028-.004-.028-.005-.028-.004-.028-.004-.028-.004-.028-.004-.028-.004-.028-.005-.028-.004-.028-.004-.028-.004-.028-.004-.028-.004-.028-.005-.027-.004-.027-.004-.027-.004-.027-.004-.027-.004-.027-.004-.027-.005-.027-.004-.027-.004-.027-.004-.027-.004-.027-.004-.027-.004-.027-.005-.027-.004-.027-.004-.026-.004-.027-.004-.027-.004-.027-.004q-.013-.004-.027-.005l-.027-.004-.027-.004-.027-.004-.027-.004-.026-.004-.027-.004-.026-.005-.026-.004-.026-.004-.026-.004-.026-.004-.025-.005q-.014-.002-.026-.006l-.026-.005-.026-.005-.026-.005-.026-.005-.026-.005q-.012-.004-.026-.006l-.026-.005-.026-.005-.026-.005-.026-.005q-.011-.005-.026-.006l-.025-.005-.026-.005-.026-.005-.026-.005-.026-.005-.025-.006-.025-.005-.025-.005-.025-.005-.025-.005-.024-.006-.025-.005-.025-.005-.025-.005-.025-.005-.025-.006-.025-.005-.025-.005-.025-.005-.024-.005-.025-.006-.025-.005-.025-.005-.025-.005-.025-.005-.025-.005-.025-.006-.025-.005-.024-.005-.024-.005-.024-.005q-.013-.004-.024-.005l-.024-.006-.024-.005-.024-.005-.023-.005-.024-.005-.024-.006-.024-.005-.024-.005-.024-.005-.024-.006-.023-.007-.024-.006-.024-.006-.024-.006-.024-.007-.024-.006-.023-.006-.024-.006-.023-.006-.023-.007-.023-.006-.023-.006-.022-.006-.023-.006-.023-.007-.023-.006-.023-.006-.045-.013-.046-.012-.023-.006-.022-.007q-.011-.004-.023-.006-.011-.004-.023-.006-.01-.004-.023-.006-.01-.004-.023-.006l-.023-.007-.021-.006-.022-.006-.022-.006q-.01-.004-.022-.006-.01-.005-.021-.007l-.022-.006-.022-.006q-.01-.004-.022-.006l-.022-.007-.021-.006-.022-.006-.022-.006q-.01-.004-.022-.006l-.021-.007-.022-.006-.022-.006q-.01-.004-.022-.006l-.022-.007q-.01-.004-.021-.006l-.022-.006q-.01-.004-.022-.006l-.006-.002-.02-.007q-.01-.004-.022-.006l-.02-.006q-.01-.004-.021-.006l-.02-.006-.021-.007-.021-.006-.02-.006q-.01-.004-.022-.006l-.02-.006q-.01-.005-.021-.007l-.02-.006q-.01-.004-.022-.006l-.02-.006q-.01-.005-.019-.007l-.02-.007-.02-.007-.02-.007q-.009-.005-.019-.008l-.02-.007-.02-.007-.019-.007-.02-.008-.02-.007-.02-.007-.019-.008-.02-.007-.02-.007-.019-.007-.02-.008-.02-.007-.019-.007-.019-.007-.018-.008-.019-.007-.019-.007-.018-.007-.019-.008-.019-.007-.018-.007-.019-.007-.019-.008-.018-.007-.019-.007-.019-.007-.018-.008-.019-.007-.019-.007-.018-.007-.018-.008-.018-.007-.017-.007-.018-.007-.017-.008-.018-.007-.018-.007-.017-.008-.018-.007-.018-.007-.017-.007-.018-.008-.017-.007-.018-.007-.018-.007-.017-.008-.018-.007-.017-.007-.016-.007-.017-.008-.016-.007-.017-.007-.016-.007-.017-.008-.017-.007-.016-.007-.017-.007-.016-.008-.017-.007-.017-.007-.016-.007q-.007-.005-.017-.008l-.016-.007-.017-.007-.016-.008-.015-.007-.016-.007-.015-.007-.016-.008-.015-.007-.016-.007-.015-.007-.016-.009-.016-.008-.015-.008-.016-.008-.015-.009-.016-.008-.015-.008-.016-.009-.014-.008q-.008-.003-.015-.008l-.014-.008-.015-.009-.014-.008-.008-.004-.014-.008-.015-.009-.014-.008-.015-.008-.013-.009-.014-.008-.013-.008-.014-.009-.013-.008-.014-.008L7.076 10l-.014-.009-.013-.008-.014-.008-.013-.009-.014-.008-.013-.008-.013-.009-.014-.008-.013-.008-.013-.008-.012-.009-.013-.008-.012-.008-.013-.009-.012-.008-.013-.008-.012-.009-.012-.008-.013-.008-.012-.008-.013-.009-.012-.008-.013-.008-.012-.009-.011-.008-.012-.008-.011-.008-.012-.009-.011-.008-.012-.008-.01-.009-.012-.008-.012-.008-.011-.009q-.005-.005-.012-.008l-.01-.008-.012-.008-.012-.009-.01-.008-.01-.008-.01-.009-.011-.008-.01-.008-.011-.008q-.005-.006-.01-.009l-.009-.006-.009-.008-.01-.009-.009-.008-.009-.008-.01-.009-.009-.008-.009-.008-.01-.008-.009-.009-.009-.008-.01-.008-.009-.009-.009-.008-.008-.008-.009-.008-.008-.009-.008-.008-.042-.042-.008-.008-.008-.008-.008-.008-.009-.009-.008-.008-.008-.008-.008-.009-.007-.008-.007-.008-.007-.008-.008-.009-.007-.008-.006-.008-.006-.009-.007-.008-.006-.008-.006-.009-.006-.008-.006-.008-.007-.008-.006-.009-.006-.008-.006-.008-.007-.009-.005-.008-.005-.008-.005-.008-.005-.009-.005-.008-.006-.008-.005-.009-.005-.008-.005-.008-.004-.007q0-.004-.004-.006l-.004-.008-.004-.008-.004-.009-.004-.008-.004-.008-.004-.008-.005-.009q0-.004-.003-.008 0-.004-.003-.008l-.003-.009q0-.004-.003-.008l-.003-.008-.003-.009-.003-.008-.002-.007-.002-.008q0-.005-.003-.009l-.002-.008-.002-.008-.002-.009-.002-.008-.002-.008v-.008q0-.005-.002-.009l-.001-.007V8.79l.001-.009z"/>
    <path fill="#0433FF" d="m6.039 9.805.001-.01.002-.01.002-.008.002-.01.002-.01.002-.008.002-.01.003-.01.002-.008.002-.01.002-.008V9.7l.004-.01.003-.009.003-.01.003-.009.004-.009.005-.01.004-.009q.001-.005.004-.009l.004-.01.004-.009.004-.009.004-.01.005-.008q.001-.006.004-.01l.004-.01.004-.009.005-.009.004-.007q.002-.005.006-.008l.005-.01.005-.01.006-.008.006-.01.007-.01.006-.008.018-.028.007-.01.006-.01.006-.008.006-.01.013-.018.007-.01.007-.009.008-.01.007-.009.007-.01.007-.008.008-.01.007-.01.007-.008.007-.01.008-.009.007-.01.002-.001.008-.01.009-.01.008-.008.008-.01.008-.01.009-.008.01-.01.008-.01.01-.01.01-.01.008-.01.01-.01.01-.009.008-.01.01-.01.009-.011.01-.01.009-.01.01-.011.01-.01.01-.01.01-.011.01-.01q.007-.006.01-.011l.011-.01.01-.01.011-.011.01-.01.01-.01.011-.011.01-.01.01-.01.012-.011.012-.01.011-.011.011-.01.012-.01.011-.011.012-.01.011-.01.011-.011.012-.01.011-.01.012-.011.011-.01.01-.007.012-.01.012-.01.013-.011.012-.01.013-.01.012-.011.013-.01q.006-.006.013-.01.005-.006.014-.011l.013-.01q.006-.006.013-.01l.014-.011q.006-.006.013-.01l.014-.011.013-.01.014-.01.013-.011.014-.01.013-.01.014-.011.013-.01.015-.011.014-.01.015-.01.014-.011.015-.01.014-.01.015-.011.014-.01.015-.011.014-.01.015-.01.014-.011.015-.01.015-.01.015-.011.016-.01.015-.01.016-.011.015-.01.016-.011.015-.01.016-.01.015-.011.016-.01.016-.01.015-.011.016-.01.015-.011.017-.01.016-.01.017-.011.017-.01.016-.01.017-.011.016-.01.017-.011.017-.01.016-.01.017-.011.016-.01.017-.01.017-.011.016-.01q.008-.006.018-.01l.017-.011.018-.01.018-.011.017-.01.018-.01.018-.011.017-.01.018-.01.017-.011.018-.01.018-.01.017-.011.018-.01.018-.011.017-.01.004-.001.019-.01.019-.011.018-.01.019-.01.019-.011.018-.01.019-.011.019-.01.018-.01.02-.011.02-.01.02-.01.02-.011q.009-.006.019-.01l.02-.011.02-.01q.009-.006.019-.01l.02-.011.02-.01.019-.01.02-.011.02-.01.02-.011.019-.01.02-.01.02-.011.021-.01.02-.009.021-.01.021-.008.02-.01.022-.01.02-.008.021-.01.02-.01.022-.008.02-.01.021-.01.02-.008.022-.01.021-.01.022-.008.022-.01.022-.01.021-.008.022-.01.022-.01.022-.008.022-.01.021-.009.022-.01.022-.009.022-.009.021-.01.022-.009.022-.009.022-.01.045-.018.023-.01.023-.009.023-.009.023-.01.022-.009.023-.009.023-.01.023-.009.023-.009.023-.01.022-.009.023-.009.023-.01.023-.009.023-.009.023-.01.024-.009.024-.009.024-.01.024-.009.024-.009.024-.01.023-.009.024-.009.024-.01.024-.009.024-.009.024-.01.023-.009.048-.018.025-.01.025-.009.025-.01.025-.009.025-.009.024-.01q.013-.003.025-.009l.025-.009.025-.01q.012-.003.025-.009l.025-.009.025-.01.025-.009.025-.009.024-.01q.013-.003.025-.009l.025-.009q.013-.004.025-.01.013-.002.026-.009l.026-.009.026-.01.026-.009.026-.009.026-.01q.012-.002.026-.009l.026-.009.025-.01q.014-.002.026-.009l.026-.009q.014-.004.026-.01.013-.002.026-.009l.026-.009.026-.01q.013-.002.026-.009l.026-.009q.012-.003.026-.01.012-.002.027-.009l.027-.009.027-.008.027-.009.027-.008.027-.008.026-.008.027-.009.027-.008.027-.008.027-.009.027-.008.027-.008.027-.009.027-.008.027-.008.027-.008.027-.009q.007 0 .013-.004l.028-.008.029-.008.027-.009.028-.008.028-.008.028-.009.028-.008.028-.008.028-.008.028-.009.028-.008.028-.008.028-.009.028-.008.028-.008q.016-.004.028-.009l.03-.008.028-.008.03-.008.028-.009.03-.008.029-.008.029-.009.029-.008.029-.008q.015-.003.029-.009l.029-.008.029-.008.029-.008.029-.009.029-.008.029-.008.029-.009.029-.008.03-.008.028-.008.03-.009.03-.008.03-.008.03-.009.03-.008.03-.008.03-.009.03-.008.03-.008.03-.008.03-.008.03-.007.031-.007.03-.007.03-.008.03-.007.03-.007.03-.007.03-.008.03-.007.03-.007.032-.008.03-.007.032-.007.031-.007.031-.008.031-.007.031-.007.031-.007.032-.008.03-.007.032-.007.03-.007.032-.008.031-.007.031-.007.031-.007.031-.008.031-.007.032-.007.03-.007.032-.008.032-.007.032-.007.032-.007.032-.008.032-.007.033-.007.032-.007.032-.008.032-.007.032-.007.032-.008.033-.007.032-.007.032-.007.032-.008.032-.007.032-.007.032-.007.033-.007.032-.006.032-.006.032-.006.033-.006.033-.007.034-.006.033-.006.033-.006.033-.007.033-.006.034-.006.033-.006.033-.006.033-.007a.517.517 0 1 0-.205-1.013l-.034.006-.033.007-.033.006-.033.006-.033.006-.033.007-.034.006-.033.006-.033.006-.033.006-.033.007-.034.006-.033.006-.033.007-.033.008-.033.007-.033.007-.033.007-.032.008-.032.007-.032.007-.032.007-.032.008-.032.007-.033.007-.032.008-.032.007-.032.007-.032.007-.032.008-.032.007-.033.007-.032.007q-.015.002-.032.008l-.032.007-.032.007-.032.007-.032.008-.033.007-.03.007-.032.007-.03.008-.032.007-.031.007-.031.007-.031.008-.031.007-.031.007-.032.007-.03.008-.032.007-.031.007-.031.007-.031.008-.031.007-.031.007-.032.008-.03.007-.032.007-.03.007-.03.008-.03.007-.03.008-.03.008-.03.009-.03.008-.03.008-.03.009-.03.008-.03.008-.03.008-.03.009-.03.008-.03.008-.03.009-.03.008-.031.008-.03.009-.03.008-.03.008-.03.008-.028.009-.03.008-.028.008-.03.009-.028.008-.03.008-.029.008-.029.009-.029.008-.029.008-.029.009-.029.008-.029.008-.029.009-.029.008-.029.008-.029.008-.029.009-.029.008-.028.008-.028.009-.028.008-.028.008-.028.009-.028.008-.028.008-.028.008-.028.009-.028.008-.028.008-.028.009a1 1 0 0 0-.097.03l-.028.008-.028.008-.028.009-.028.008-.028.008-.028.008-.028.009-.027.008-.027.008q-.015.004-.027.01l-.027.009q-.015.003-.027.01-.015.002-.027.009l-.027.009q-.015.004-.027.01-.015.002-.027.009l-.027.009q-.015.003-.027.01-.014.002-.027.009l-.027.009q-.013.003-.027.01-.012.002-.027.009l-.027.009-.027.01q-.012.002-.027.009l-.025.009q-.014.003-.026.01-.014.002-.026.009l-.026.009q-.013.003-.026.01-.013.002-.026.009l-.026.009-.026.01q-.013.002-.026.009l-.026.009q-.012.003-.026.01-.012.002-.026.009l-.026.009q-.012.003-.025.01-.014.002-.026.009l-.026.009q-.014.004-.026.01-.014.002-.026.009l-.025.009q-.012.003-.025.01-.012.002-.025.009l-.025.009-.025.01-.024.009-.025.009-.025.01q-.013.003-.025.009l-.025.009-.025.01-.025.009-.025.009-.025.01-.024.009-.025.009-.025.01q-.014.003-.024.009l-.048.018-.024.01-.023.009q-.013.004-.024.01-.013.003-.024.009l-.024.009-.024.01-.024.009-.024.009-.023.01q-.013.003-.024.009l-.024.009-.024.01-.024.009-.024.009-.022.01q-.013.003-.023.009l-.023.009-.023.01-.023.009-.023.009-.022.01q-.012.003-.023.009l-.023.009-.023.01-.023.009-.022.009-.023.01-.023.009-.023.009-.023.01-.021.009-.022.009-.022.01-.022.009-.022.009-.021.01q-.012.003-.022.009l-.022.01-.022.01-.021.01-.022.01-.022.01-.022.01-.022.011-.021.01-.022.01-.02.011-.022.01-.02.01-.021.011-.02.01-.021.011-.021.01-.021.01-.02.011-.021.01-.021.01-.02.011-.022.01-.02.011-.021.01-.02.01-.02.011-.02.01-.02.01-.02.011-.02.01q-.01.007-.02.01l-.019.011-.02.01-.02.011-.019.01-.02.01-.02.011-.019.01-.02.01-.02.011-.018.01-.019.011-.018.01-.02.01q-.007.006-.018.011l-.018.01-.019.01a1 1 0 0 0-.088.049l-.019.01-.019.01-.018.01-.019.011-.019.01-.018.01-.019.011-.019.01-.017.01-.018.011-.017.01-.018.011-.018.01-.017.01-.018.011-.018.01-.017.01-.018.011-.017.01-.018.01-.018.011-.017.01-.018.011-.016.01-.017.01-.017.011-.016.01-.017.01-.016.011-.017.01-.017.011-.016.01-.017.01-.016.011-.017.01-.017.01-.016.011-.016.01-.015.011-.016.01-.015.01-.016.011-.016.01-.015.01-.016.011-.015.01q-.007.006-.016.01l-.015.011q-.007.006-.016.01l-.015.011-.016.01-.014.01-.015.011-.014.01-.015.01-.015.011-.014.01-.015.011-.014.01-.015.01-.014.011-.015.01-.014.01-.015.011-.014.01-.014.01-.013.011-.014.01-.013.011-.014.01-.013.01-.014.011-.013.01q-.006.006-.013.01l-.014.011q-.006.006-.013.01l-.014.011-.013.01-.014.01-.012.011-.013.01-.012.01-.013.011-.012.01a1 1 0 0 0-.077.064l-.012.01-.013.01q-.006.007-.012.01l-.013.011-.012.01-.012.011-.013.01q-.006.007-.011.01l-.012.011-.011.01-.012.01-.011.011-.011.01-.012.011-.011.01-.012.01-.011.011-.011.01-.012.01-.011.011-.01.01-.011.01-.01.011-.01.01-.011.011-.01.01-.01.01-.011.011-.01.01-.01.01-.011.011q-.004.006-.01.01l-.011.011-.01.01-.009.01-.009.011-.01.01q-.004.006-.009.01l-.009.011-.01.01-.009.011-.009.01q-.004.006-.01.01L5.6 8.5l-.009.01q-.004.006-.01.01l-.008.011-.008.01-.008.01-.009.011a1 1 0 0 0-.063.077l-.008.01-.008.01-.009.011-.008.01-.008.01-.009.011-.008.01-.008.01-.007.011-.008.01-.007.011-.007.01-.007.01-.008.011-.007.01-.007.01-.007.011-.008.01-.014.021-.006.01-.007.011-.006.01-.006.01-.006.011-.007.01-.006.011-.006.01-.006.01-.006.011-.007.01-.006.01-.005.011-.005.01L5.24 9a.5.5 0 0 0-.053.1l-.005.01q-.004.004-.006.01l-.005.01q-.001.006-.005.01l-.005.011-.005.01-.006.011-.004.01-.004.01q-.001.006-.004.011l-.004.01-.004.01-.005.011-.004.01-.004.011-.004.01-.004.01-.004.011-.004.01-.003.01-.004.011-.003.01-.003.01q0 .006-.003.01l-.003.01a.5.5 0 0 0-.03.097l-.003.01-.003.01-.003.01-.004.008-.002.01-.002.01-.002.01-.002.009-.002.01-.002.008-.002.01-.002.01-.002.008-.002.01-.002.01-.002.008-.001.01-.002.01v.008q0 .006-.002.01v.01a.5.5 0 0 0-.01.103v.17a.5.5 0 0 0 .013.117l.003.01.002.009.002.01.002.008.002.01.002.01.002.008.002.01.002.009.002.01.003.009.003.009a.5.5 0 0 0 .03.095l.004.009q0 .005.003.008 0 .005.003.008l.003.009.003.008.003.008.003.008.003.009.004.008.004.008q0 .006.004.009 0 .005.004.008l.004.008.004.009.004.008.005.008.004.008q.001.005.004.009l.004.008.004.008.004.009q.02.045.046.084l.005.008.005.008.005.008.006.009.005.008.005.008.005.009.005.008.006.008.005.009.005.008.005.008.005.008.007.009.006.008.006.008.006.009.006.008.007.008.006.008.006.009.006.008.007.008.006.009.006.008.006.008a.5.5 0 0 0 .058.07l.008.01.007.007.007.009.007.008.008.008.007.009.007.008.007.008.008.008.007.009.007.008.007.008.009.009.008.008.017.016.008.009.008.008.008.008.009.009.008.008.008.008.009.009.008.008.008.008.01.008.009.009.01.008.009.008.009.009.01.008.009.008.009.008.01.009q.03.03.066.055l.009.007.01.007.009.008.009.007.01.007.009.007.01.008.01.007.01.007.011.007.01.008.01.007.011.007.01.007.01.008.011.007.01.007.011.008.01.007.01.007.012.007.012.008.01.007.012.007.012.007.011.008.012.007.011.007.011.007.012.008.011.007.012.007.011.007.011.008.013.007.012.007.013.007.012.008.013.007.012.007.012.007.013.008.012.007.013.007.012.007q.006.005.013.008l.012.007.013.007.012.008.014.007.013.007.013.007q.008.003.014.008a.4.4 0 0 0 .07.037l.013.007.013.007.014.008.013.007.014.007.013.007.014.008.013.007.014.007.013.007.014.008.013.007.015.007.014.008.015.007.014.007.015.007.014.007.015.008.014.007.015.007.014.007.015.008.014.007.015.007.014.007.015.008.015.007.016.007.016.008.015.007.016.007.015.007.016.008.015.006.016.006.015.006.016.006.031.013.016.006.015.006.016.007.016.006.017.006.017.006.016.007.017.006.016.006.017.006.017.006.016.007.017.006.016.006.017.006.016.006.017.007.017.006.016.006.018.006.018.007.035.012.035.013.018.006.017.006.018.006.018.006.017.007.018.006.017.006.018.006.018.006.017.007.018.006.018.006.018.006.019.007.019.006.018.006.019.006.019.007.018.006.019.006.019.006.018.006.038.013.018.006.019.006.019.006.018.007q.03.012.064.02l.02.006.018.006.02.006.02.006.019.007.02.006.02.006.019.006.02.006.04.013.019.006.02.006.02.005.019.006.02.005.02.005.019.005.02.005.02.006.02.005.02.005.022.005.02.005q.011.004.021.005l.02.006.022.005.02.005.021.005.02.005q.011.005.022.006l.02.005.021.005.02.005.021.005.021.006.021.005.02.005.022.005.022.005.022.005.022.006.022.005.021.005.022.005.022.005q.01.004.022.006l.021.005.022.005.022.005.022.005.022.006.021.005.022.005.022.005.022.005.021.005.023.006.023.005.023.005.023.005.022.005q.011.004.023.005.011.004.023.006l.023.005.023.005.023.005.022.005.023.006.023.005.023.005.023.005.022.005.023.005.023.006.023.005.023.005.022.005.024.005.024.005.024.004.024.004.024.004.024.004.023.004.024.005.024.004.024.004.024.004.024.004.024.004.023.004.024.005.024.004.024.004.024.004.024.004.024.004.024.004.025.005.025.004.025.004.025.004.025.004.025.004.024.004.025.005.025.004.025.004.025.004.025.004.025.004.025.005.025.004.025.004.024.004.025.004.025.004.025.004.025.005.025.004.026.004.026.004.026.004.026.004.026.004.025.005.026.004.026.004.026.004.026.004.026.004.026.004.026.005.026.004.026.004.026.003.026.003.026.003.025.003.026.003q.014.004.026.004l.026.003.026.003.027.003.027.003.027.003.027.003.027.003.027.003.027.004.027.003.027.003.027.003.027.003.027.003.027.003.027.003.026.003.027.003q.014.004.027.004l.027.003.027.003.027.003.027.003.027.003.027.003.027.003.027.004.028.003.028.003.028.003.028.003.028.003.028.003a.2.2 0 0 0 .043.004l.027.003q.013.003.027.004l.026.003.027.003.027.003.027.003.027.003.027.003.027.003h.001l.027.004h.001l.027.002h.001q.013.004.027.004h.001l.026.003h.002l.026.003h.002l.026.003h.002l.026.003h.002l.026.003h.002l.026.003h.002l.026.003h.002q.012.003.026.004h.002l.026.002h.003l.026.002h.003l.026.002h.003l.025.002h.003l.025.002h.003l.025.002h.003l.025.002h.003l.025.002h.003l.025.002h.004l.025.002h.004l.025.002h.004l.025.002h.004l.025.002h.004l.025.003h.005l.024.002h.005l.023.002h.005l.023.002h.006l.023.002h.006l.023.002h.006l.024.002h.005l.024.002h.005l.024.002h.005l.024.002h.005l.024.002h.005l.024.002h.006l.023.002h.006l.023.002h.006l.023.003h.006l.023.002h.006l.023.002h.006l.023.002h.006l.023.002h.007l.023.002h.007l.023.002h.007l.023.002h.007l.023.002h.007l.022.002h.007l.022.002h.008l.021.002h.008l.021.002h.009l.021.003h.009l.021.002h.009l.022.002h.008l.022.002h.008l.022.002h.008l.022.002h.008l.02.002h.009l.02.002h.01l.02.002h.01l.02.002h.01l.021.002h.01l.02.002h.01l.02.002h.01l.02.003h.01l.02.002h.01l.021.002h.01l.02.002h.01l.02.002.01-.001.02.002a.155.155 0 1 0 0-.311h-.003l-.027-.003h-.003l-.027-.003h-.003l-.027-.004h-.003l-.027-.003h-.002l-.028-.003h-.002l-.028-.003h-.002l-.028-.003h-.002l-.028-.003h-.002l-.028-.003h-.002l-.028-.003h-.002l-.028-.003h-.002l-.028-.003h-.001l-.028-.004h-.001l-.028-.003h-.001l-.03-.003-.03-.003-.028-.003-.03-.003-.029-.003-.029-.003-.029-.004-.029-.003-.024-.002-.028-.003-.03-.003-.029-.003-.029-.003-.029-.003-.029-.003-.029-.003-.029-.004-.029-.003-.029-.003-.029-.003-.029-.003-.029-.003-.029-.003-.029-.003-.03-.003-.028-.004-.03-.003-.028-.003-.03-.003-.027-.003-.028-.003-.028-.003-.028-.003-.028-.004-.028-.003-.028-.003-.028-.003-.028-.003-.028-.003-.028-.004-.028-.004-.028-.005-.028-.004-.028-.004-.028-.004-.028-.004-.028-.004-.028-.004-.028-.005-.028-.004-.028-.004-.028-.004-.028-.004-.028-.004-.028-.004-.028-.005-.027-.004-.027-.004-.027-.004-.027-.004-.027-.004-.027-.004-.027-.005-.027-.004-.027-.004-.027-.004-.027-.004-.027-.004-.027-.004-.027-.005-.027-.004-.027-.004-.026-.004-.027-.004-.027-.004-.027-.005-.027-.004-.027-.004-.027-.004-.027-.004-.027-.004-.026-.004-.027-.005-.026-.004-.026-.004-.026-.004-.026-.004-.026-.004-.025-.005-.026-.006-.026-.005-.026-.005-.026-.005-.026-.005-.026-.006-.026-.005-.026-.005-.026-.005-.026-.005q-.011-.004-.026-.006l-.026-.005-.025-.005-.026-.005-.026-.005-.026-.005-.026-.006-.025-.005-.025-.005-.025-.005-.025-.005-.025-.005-.024-.006-.025-.005-.025-.005-.025-.005-.025-.005-.025-.006-.025-.005-.025-.005-.025-.005-.024-.005q-.013-.004-.025-.005l-.025-.006-.025-.005-.025-.005-.025-.005-.025-.005-.025-.006-.025-.005-.024-.005-.024-.005-.024-.005-.024-.006-.024-.005-.024-.005-.024-.005-.023-.005-.024-.005-.024-.006-.024-.005-.024-.005-.024-.005-.024-.006-.023-.007-.024-.006-.024-.006-.024-.006-.024-.007-.024-.006-.023-.006-.024-.006-.023-.006-.023-.007-.023-.006-.023-.006-.022-.006-.023-.007-.023-.006-.023-.006-.023-.006-.022-.006-.023-.007-.046-.012-.023-.006-.022-.007q-.011-.004-.023-.006-.011-.004-.023-.006-.01-.004-.023-.006-.01-.004-.023-.006l-.023-.007-.021-.006-.022-.006L9.498 12l-.022-.007-.021-.006-.022-.006-.022-.006q-.01-.004-.022-.006l-.022-.007-.021-.006-.022-.006-.022-.006-.022-.007-.021-.006-.022-.006-.022-.006q-.01-.004-.022-.006l-.022-.007q-.01-.004-.021-.006l-.022-.006q-.01-.004-.022-.006l-.006-.002-.02-.007q-.01-.004-.022-.006l-.02-.006q-.01-.004-.021-.006l-.02-.007-.021-.006-.021-.006-.02-.006q-.01-.004-.022-.006-.01-.005-.02-.007l-.021-.006-.02-.006q-.01-.004-.022-.006l-.02-.006q-.01-.005-.019-.007l-.02-.007-.02-.007-.02-.008-.019-.007-.02-.007-.02-.007-.019-.008-.02-.007-.02-.007-.02-.007-.019-.008-.02-.007-.02-.007-.019-.007-.02-.008-.02-.007-.019-.007-.019-.007-.018-.008-.019-.007-.019-.007-.018-.007-.019-.008-.019-.007-.018-.007-.019-.007-.019-.008-.018-.007-.019-.007-.019-.008-.018-.007-.019-.007-.019-.007-.018-.008-.018-.007-.018-.007-.017-.007-.018-.007-.017-.008-.018-.007-.018-.007-.017-.008-.018-.007-.018-.007-.017-.007-.018-.008-.017-.007-.018-.007-.018-.007-.017-.008-.018-.007-.017-.007-.016-.007-.017-.008-.016-.007-.017-.007-.016-.007-.017-.008-.017-.007-.016-.007-.017-.007-.016-.008-.017-.007-.017-.007-.016-.008-.017-.007-.016-.007-.017-.007-.016-.008-.015-.007-.016-.007-.015-.007-.016-.008-.015-.007-.016-.007-.015-.007-.016-.009-.016-.008-.015-.008-.016-.008-.015-.009-.016-.008-.015-.008-.016-.009-.014-.008q-.008-.003-.015-.008-.008-.003-.014-.009l-.015-.008-.014-.008-.008-.004-.014-.009-.015-.008-.014-.008-.015-.008-.013-.009-.014-.008-.013-.008-.014-.009-.013-.008-.014-.008-.013-.009-.014-.008-.013-.008-.014-.009-.013-.008-.014-.008-.013-.008-.013-.009-.014-.008-.013-.008-.013-.008-.012-.009-.013-.008-.012-.008-.013-.009-.012-.008-.013-.008-.012-.009-.012-.008-.013-.008-.012-.009-.013-.008-.012-.008-.013-.008-.012-.009-.011-.008-.012-.008-.011-.008-.012-.009-.011-.008-.012-.008-.01-.009-.012-.008-.012-.008-.011-.009q-.005-.005-.012-.008l-.01-.008-.012-.009-.012-.008-.01-.008-.01-.008-.01-.009-.011-.008-.01-.008-.011-.009-.01-.008-.009-.006-.009-.008-.01-.009-.009-.008-.009-.008-.01-.009-.009-.008-.009-.008-.01-.008q-.003-.005-.009-.009l-.009-.008-.01-.008-.009-.009-.009-.008-.008-.008-.009-.008-.008-.009-.008-.008-.008-.008-.009-.009-.008-.008-.008-.008-.009-.009-.008-.008-.008-.008-.008-.008-.009-.009-.008-.008-.008-.008-.008-.009-.007-.008-.007-.008-.007-.008-.008-.009-.007-.008-.006-.008-.006-.009-.007-.008-.006-.008-.006-.009-.006-.008-.006-.008-.007-.008-.006-.009-.006-.008-.006-.008-.007-.009-.005-.008-.005-.008-.005-.008-.005-.009-.005-.008-.006-.008-.005-.009-.005-.008-.005-.008-.004-.008q0-.003-.004-.005l-.004-.008-.004-.008q-.001-.005-.004-.009l-.004-.008-.004-.008-.004-.008-.005-.009q0-.004-.003-.008 0-.004-.003-.008 0-.005-.003-.009 0-.004-.003-.008l-.003-.008-.003-.009-.003-.008-.002-.007-.002-.008q0-.005-.003-.009l-.002-.008-.002-.008-.002-.009-.002-.008-.002-.008v-.009l-.002-.008-.001-.007v-.156l.001-.009z"/>
    <path fill="#9CADFF" d="m6.039 10.842.001-.01.002-.01.002-.008.002-.01.002-.01.002-.008.002-.01.003-.01.002-.008.002-.01.002-.008v-.003l.004-.01.003-.009.003-.01.003-.009.004-.009.005-.01.004-.009.004-.009.004-.01.004-.009.004-.009.004-.01.005-.009q.001-.005.004-.009l.004-.01.004-.009.005-.009.004-.007q.002-.005.006-.008l.005-.01.005-.01.006-.008.006-.01.007-.01.006-.008.006-.01.006-.01.006-.008.007-.01.006-.01.006-.008.006-.01.007-.01.006-.008.007-.01.007-.01.008-.008.007-.01.007-.01.007-.008.008-.01.007-.01.007-.008.007-.01.008-.01.007-.008.002-.002.008-.01.009-.01.008-.008.008-.01.008-.01.009-.008.01-.01.008-.01.01-.01.028-.03.01-.009.008-.01.01-.01.009-.011.01-.01.009-.01.01-.011.01-.01.01-.01.01-.011.01-.01q.007-.005.01-.011l.011-.01.01-.01.011-.011.01-.01.01-.01.011-.011.01-.01q.007-.005.01-.011l.012-.01.012-.01.011-.011.011-.01.012-.01.011-.011.012-.01.011-.01.011-.011.012-.01.011-.011.012-.01.011-.01.01-.007.012-.01.012-.01.013-.011.012-.01.013-.01.012-.011.013-.01q.006-.006.013-.01.005-.006.014-.011.006-.006.013-.01l.013-.011.014-.01q.006-.006.013-.01l.014-.011.013-.01.014-.01.013-.011.014-.01.013-.011.014-.01.013-.01.015-.011.014-.01.015-.01.014-.011.015-.01.014-.01.015-.011.014-.01.015-.011.014-.01.015-.01.014-.011.015-.01.015-.01.015-.011.016-.01.015-.011.016-.01.015-.01.016-.011.015-.01.016-.01.015-.011.016-.01.016-.011.015-.01.016-.01.015-.011.017-.01.016-.01.017-.011.017-.01.016-.01.017-.011.016-.01.017-.011.017-.01.016-.01.017-.011.016-.01.017-.01.017-.011.016-.01.018-.011.017-.01.018-.01.018-.011.017-.01.018-.01.018-.011.017-.01.018-.01.017-.011.018-.01.018-.011.017-.01.018-.01.018-.011.017-.01.004-.002.019-.01.019-.01.018-.01.019-.011.019-.01.018-.01.019-.011.019-.01.018-.01.02-.011.02-.01.02-.011.02-.01q.009-.006.019-.01l.02-.011.02-.01q.009-.006.019-.01l.02-.011.02-.01.019-.01.02-.011.02-.01.02-.011.019-.01.02-.01.02-.011.021-.01.02-.009.021-.01.021-.008.02-.01.022-.01.02-.008.021-.01.02-.01.022-.008.02-.01.021-.01.02-.008.022-.01.021-.01.022-.008.022-.01.022-.01.021-.008.022-.01.022-.01.022-.008.022-.01.021-.01.022-.008.022-.01.022-.01.021-.008.022-.01.022-.01.067-.027.023-.01.023-.009.023-.01.023-.008.022-.01.023-.01.023-.008.023-.01.023-.01.045-.018.023-.01.023-.008.023-.01.023-.01.023-.008.024-.01.024-.01.024-.008.024-.01.024-.01.024-.008.023-.01q.013-.004.024-.01l.024-.008.024-.01.024-.01.024-.008.023-.01.048-.018.025-.01.05-.018.025-.01.025-.01.024-.008.025-.01q.013-.004.025-.01.013-.003.025-.008l.025-.01.025-.01.025-.008.025-.01.025-.01.024-.008.025-.01q.014-.003.025-.01.013-.002.025-.008l.026-.01.026-.009.026-.01.026-.009.026-.009q.012-.003.026-.01l.026-.009q.012-.003.026-.01.012-.002.025-.008l.026-.01.026-.009q.014-.004.026-.01.013-.003.026-.009l.026-.009q.013-.003.026-.01.013-.003.026-.009.013-.003.026-.01.012-.002.026-.008l.027-.01.027-.009.027-.008.027-.009.027-.008.027-.008.026-.009.027-.008.027-.008.027-.008.027-.009.027-.008.027-.008.027-.009.027-.008.027-.008.027-.008.027-.009q.007 0 .013-.004l.028-.008.029-.008.027-.009.028-.008.028-.008.028-.009.028-.008.028-.008.028-.009.028-.008.028-.008.028-.008.028-.009.028-.008.028-.008.028-.009.03-.008.028-.008.03-.009.028-.008.03-.008.029-.008.029-.009.029-.008.029-.008q.015-.003.029-.009l.029-.008.029-.008.029-.008.029-.009.029-.008.029-.008.029-.009.029-.008.03-.008q.015-.003.028-.009l.03-.008.03-.008.03-.008.03-.009.03-.008.03-.008.03-.009.03-.008.03-.008.03-.008.03-.008.03-.007.031-.007.03-.008.03-.007.03-.007.03-.007.03-.008.03-.007.03-.007.03-.007.032-.008.03-.007.032-.007.031-.007.031-.008.031-.007.031-.007.031-.007.032-.008.03-.007.032-.007.03-.007.032-.008.031-.007.031-.007.031-.007.031-.008.031-.007.032-.007.03-.007.032-.008.032-.007.032-.007.032-.008.032-.007.032-.007.033-.007q.015-.002.032-.008l.032-.007.032-.007.032-.007q.016-.002.032-.008l.033-.007.032-.007.032-.007.032-.008.032-.007.032-.007.032-.007.033-.007.032-.006.032-.006.032-.006.033-.007.033-.006.034-.006.033-.006.033-.006.033-.007.033-.006.034-.006.033-.006.033-.007.033-.006a.517.517 0 1 0-.205-1.013l-.034.006-.033.007-.033.006-.033.006-.033.006-.033.007-.034.006-.033.006-.033.006-.033.006-.033.007-.034.006-.033.006-.033.007-.033.008-.033.007-.033.007-.033.007-.032.008-.032.007-.032.007-.032.007-.032.008-.032.007-.033.007-.032.007-.032.008-.032.007-.032.007-.032.007-.032.008-.033.007-.032.007q-.015.002-.032.008l-.032.007-.032.007-.032.007-.032.008-.033.007-.03.007-.032.007-.03.008-.032.007-.031.007-.031.007-.031.008-.031.007-.031.007-.032.007-.03.008-.032.007-.031.007-.031.007-.031.008-.031.007-.031.007-.032.007-.03.008-.032.007-.03.007-.03.007-.03.008-.03.008-.03.008-.03.009-.03.008-.03.008-.03.009-.03.008-.03.008-.03.008-.03.009-.03.008-.03.008q-.016.003-.03.009l-.03.008-.031.008-.03.008-.03.009-.03.008-.03.008-.028.009-.03.008-.028.008-.03.009-.028.008-.03.008-.029.008-.029.009-.029.008-.029.008-.029.009-.029.008-.029.008-.029.008-.029.009-.029.008-.029.008-.029.009-.029.008-.028.008-.028.009-.028.008-.028.008-.028.008-.028.009-.028.008-.028.008-.028.009-.028.008-.028.008-.028.009a1 1 0 0 0-.097.03l-.028.008-.028.008-.028.008-.028.009-.028.008-.028.008-.028.009-.027.008-.027.008q-.015.004-.027.01l-.027.009q-.015.004-.027.01-.015.002-.027.009l-.027.009q-.015.003-.027.01-.015.002-.027.009l-.027.009q-.015.004-.027.01-.014.002-.027.009l-.027.009-.027.01q-.012.002-.027.009l-.027.009q-.012.003-.027.01-.012.002-.027.009l-.025.009-.026.01q-.014.002-.026.009l-.026.009-.026.01q-.013.002-.026.009l-.026.009q-.013.003-.026.01-.013.002-.026.009l-.026.009-.026.01q-.012.002-.026.009l-.026.009-.025.01q-.014.002-.026.009l-.026.009q-.014.003-.026.01-.014.002-.026.009l-.025.009-.025.01q-.012.002-.025.009l-.025.009-.025.01-.024.009-.025.009-.025.01q-.013.003-.025.009l-.025.009-.025.01-.025.009-.025.009-.025.01-.024.009-.025.009-.025.01q-.014.003-.024.009l-.048.018-.024.01-.023.009-.024.01-.024.008-.024.01-.024.01-.024.008-.024.01-.023.01-.024.008-.024.01-.024.01-.024.009-.024.009-.022.01-.046.018-.046.018-.023.01-.022.01-.023.008-.023.01-.023.01-.023.008-.022.01-.023.01-.023.008-.046.02-.021.008-.022.01-.022.01-.022.008-.022.01-.021.01-.022.008-.022.01-.022.01-.021.01-.022.01-.022.011-.022.01-.022.011-.021.01-.022.01-.02.011-.022.01-.02.01-.021.011-.02.01-.021.011-.021.01-.021.01-.02.011-.021.01-.021.01-.02.011-.022.01-.02.01-.021.011-.02.01-.02.011-.02.01-.02.01-.02.011-.02.01-.02.01-.019.011-.02.01-.02.011-.019.01-.02.01-.02.011-.019.01-.02.01-.02.011-.018.01-.019.01-.018.011-.02.01q-.007.006-.018.011l-.018.01-.019.01a1 1 0 0 0-.088.048q-.01.007-.019.01l-.019.011-.018.01-.019.011-.019.01-.018.01-.019.011-.019.01-.017.01-.018.011-.017.01-.018.01-.018.011-.017.01-.018.011-.018.01-.017.01-.018.011-.017.01-.018.01-.018.011-.017.01-.018.011-.016.01-.017.01-.017.011-.016.01-.017.01-.016.011-.017.01-.017.01-.016.011-.017.01-.016.011-.017.01-.017.01-.016.011-.016.01-.015.01-.016.011-.015.01-.016.011-.016.01-.015.01-.016.011-.015.01q-.007.006-.016.01l-.015.011-.016.01q-.007.006-.015.01l-.016.011-.014.01-.015.011-.014.01-.015.01-.015.011-.014.01q-.007.006-.015.01l-.014.011-.015.01-.014.011-.015.01-.014.01-.015.011-.014.01-.014.01-.013.011-.014.01-.013.011-.014.01-.013.01-.014.011-.013.01q-.006.006-.013.01l-.014.011-.013.01-.014.01-.013.011-.014.01-.012.011-.013.01-.012.01-.013.011-.012.01a1 1 0 0 0-.077.064l-.012.01-.013.01q-.006.007-.012.01l-.013.011-.012.01q-.006.007-.012.01l-.013.011-.011.01-.012.011-.011.01-.012.01-.011.011-.011.01-.012.01-.011.011-.012.01-.011.011-.011.01-.012.01-.011.011-.01.01-.011.01-.01.011q-.006.004-.01.01l-.011.011-.01.01-.01.01-.011.011-.01.01-.01.01-.011.011-.01.01q-.005.006-.011.01l-.01.011-.009.01-.009.011-.01.01q-.004.006-.009.01l-.009.011-.01.01q-.004.006-.009.01l-.009.011-.01.01-.009.011-.009.01q-.004.006-.01.01l-.008.011-.008.01-.008.01-.009.011a1 1 0 0 0-.063.077l-.008.01-.008.01-.009.011-.008.01-.008.01-.009.011-.008.01-.008.01-.007.011-.008.01-.007.011-.007.01-.007.01-.008.011-.007.01-.007.01-.007.011-.008.01-.007.01-.007.011-.006.01-.007.011-.006.01-.006.01-.006.011-.007.01-.006.01-.006.011-.006.01-.006.011-.007.01-.006.01-.005.011-.005.01-.005.01a.5.5 0 0 0-.053.1l-.005.01q-.004.004-.006.01l-.005.01q-.001.006-.005.01l-.005.011-.005.01-.006.011-.004.01-.004.01-.004.011-.004.01-.004.01-.005.011-.004.01q-.001.006-.004.01 0 .005-.004.011l-.004.01-.004.011-.004.01-.003.01-.004.011-.003.01-.003.01-.003.01-.003.01a.5.5 0 0 0-.03.097l-.003.01-.003.01-.003.009-.004.01-.002.009-.002.01-.002.01-.002.009-.002.009-.002.01-.002.009-.002.01-.002.008-.002.01-.002.009-.002.01-.001.009q0 .005-.002.009v.01q0 .005-.002.009v.009a.5.5 0 0 0-.011.105v.17a.5.5 0 0 0 .013.117l.003.01.002.009.002.009.002.01.002.009.002.009.002.01.002.009.002.009.002.01.003.009.003.009a.5.5 0 0 0 .04.12l.003.008.003.009.003.008.003.009.003.008.004.008q0 .005.004.008 0 .005.004.009 0 .005.004.008l.004.008.004.008.004.009.005.008.004.008.004.009.004.008.004.008.004.009q.02.045.046.084l.005.008.005.008.005.008.006.009.005.008.005.008.005.009.005.008.006.008.005.008.005.009.005.008.005.008.007.009.006.008.006.008.006.009.006.008.007.008.006.008.006.009.006.008.007.008.006.009.006.008.006.008a.5.5 0 0 0 .058.07l.008.01.007.007.007.009.007.008.008.008.007.008.007.009.007.008.008.008.007.009.007.008.007.008.009.009.008.008.008.008.009.008.008.009.008.008.008.008.009.009.008.008.008.008.009.008.008.009.008.008.01.008.009.009.01.008.009.008.009.009.01.008.009.008.009.008.01.009q.03.03.066.055l.009.007.01.007.009.008.009.007.01.007.009.007.01.008.01.007.01.007.011.007.01.008.01.007.011.007.01.007q.006.003.01.008l.011.007.01.007.011.007.01.008.01.007.012.007.012.007.01.008.012.007.012.007.011.007.012.008.011.007.011.007.012.007.011.008.012.007.011.007.011.007.013.008.012.007.013.007.012.008.013.007.012.007.012.007.013.008.012.007.013.007.012.007.013.008.012.007.013.007.012.007.014.008.013.007.013.007.014.007a.4.4 0 0 0 .07.038l.013.007.013.007.014.008.013.007.014.007.013.007.014.008.013.007.014.007.013.007.014.008.013.007.015.007.014.007.015.008.014.007.015.007.014.007.015.008.014.007.015.007.014.008.015.007.014.007.015.007.014.008.015.007.015.007.016.007.016.008.015.007.016.007.015.007.016.008.015.006.016.006.015.006.016.006.016.007.015.006.016.006.03.013.017.006.017.006.017.006.016.006.017.007.016.006.017.006.017.006.016.006.017.007.016.006.017.006.016.006.017.007.017.006.016.006.018.006.018.007.017.006.018.006.017.006.018.006.035.013.018.006.018.006.017.007.018.006.017.006.018.006.018.006.035.013.018.006.018.006.019.006.019.007.018.006.019.006.019.006.018.007.019.006.019.006.018.006.038.013.018.006.019.006.019.006.018.007q.03.012.064.02.01.001.02.006l.057.018.02.006.02.007.02.006.039.012.02.006.02.007.019.006.02.006.02.005.019.006.02.005.02.005.019.005.02.005q.01.004.02.005.01.005.02.006l.02.005.022.005.02.005.021.005.02.006.022.005.02.005.021.005.02.005q.011.004.022.005.01.005.02.006l.021.005.02.005.021.005.021.005.021.006.02.005.022.005.022.005.022.005.022.006.022.005.021.005.022.005.022.005.022.005.021.006.022.005.022.005.022.005.022.005.021.006.022.005.022.005.022.005.021.005q.011.004.023.005.011.005.023.006l.023.005.023.005.022.005.023.005q.011.005.023.006l.023.005.023.005.023.005.022.005q.012.002.023.006l.023.005.023.005.023.005.022.005.023.005.023.006.023.005.023.005.022.005.024.005.024.005.024.004.024.004.024.004.024.004.023.004.024.004.024.005.024.004.024.004.024.004.024.004.023.004.024.004.024.005.024.004.024.004.024.004.024.004.024.004.025.005.025.004.025.004.025.004.025.004.025.004.024.004.025.005.025.004.025.004.025.004.025.004.025.004.025.004.025.005.025.004.024.004.025.004.025.004.025.004.025.004.025.005.026.004.026.004.026.004.026.004.026.004.025.005.026.004.026.004.026.004.026.004.026.004.026.004.026.005.026.004.026.004.026.003.026.003.026.003.025.003.026.003.026.003.026.004.026.003.027.003.027.003.027.003.027.003.027.003.027.003.027.003q.012.004.027.004l.027.003.027.003.027.003.027.003.027.003.027.003.026.003.027.004.027.003.027.003.027.003.027.003.027.003.027.003.027.003.027.003.027.004.028.003.028.003.028.003.028.003.028.003.028.003a.2.2 0 0 0 .043.004l.027.003q.013.003.027.004l.026.003.027.003.027.003.027.003.027.003.027.003.027.003h.001l.027.003h.001l.027.003h.001q.013.004.027.004h.001l.026.003h.002l.026.003h.002l.026.003h.002l.026.003h.002l.026.003h.002l.026.003h.002l.026.003h.002l.026.003h.002q.012.003.026.003h.003l.026.002h.003l.026.002h.003l.025.002h.003l.025.002h.003l.025.002h.003l.025.002h.003l.025.002h.003l.025.002h.004l.025.002h.004l.025.002h.004l.025.002h.004l.025.002h.004l.025.002h.005l.024.003h.005l.023.002h.005l.023.002h.006l.023.002h.006l.023.002h.006l.024.002h.005l.024.002h.005l.024.002h.005l.024.002h.005l.024.002h.005l.024.002h.006l.023.002h.006l.023.003h.006l.023.002h.006l.023.002h.006l.023.002h.006l.023.002h.006l.023.002h.007l.023.002h.007l.023.002h.007l.023.002h.007l.023.002h.007l.022.002h.007l.022.002h.008l.021.002h.008l.021.002h.009l.021.003h.009l.021.002h.009l.022.002h.008l.022.002h.008l.022.002h.008l.022.002h.008l.02.002h.009l.02.002h.01l.02.002h.01l.02.002h.01l.021.002h.01l.02.002h.01l.02.002h.01l.02.002h.01l.02.003h.01l.021.002h.01l.02.002h.01l.02.002.01-.001.02.002a.155.155 0 1 0 0-.311h-.003l-.027-.003h-.003l-.027-.004h-.003l-.027-.003h-.003l-.027-.003h-.002l-.028-.003h-.002l-.028-.003h-.002l-.028-.003h-.002l-.028-.003h-.002l-.028-.003h-.002l-.028-.003h-.002l-.028-.004h-.002l-.028-.003h-.001l-.028-.003h-.001l-.028-.003h-.001l-.03-.003-.03-.003-.028-.003-.03-.003-.029-.003-.029-.004-.029-.003-.029-.003-.024-.002-.028-.003-.03-.003-.029-.003-.029-.003-.029-.003-.029-.003-.029-.004-.029-.003-.029-.003-.029-.003-.029-.003-.029-.003-.029-.003-.029-.003-.029-.004-.03-.003-.028-.003-.03-.003-.028-.003-.03-.003-.027-.003-.028-.003-.028-.003-.028-.003-.028-.003-.028-.004-.028-.003-.028-.003-.028-.003-.028-.003-.028-.004-.028-.004-.028-.005-.028-.004-.028-.004-.028-.004-.028-.004-.028-.004-.028-.004-.028-.005-.028-.004-.028-.004-.028-.004-.028-.004-.028-.004-.028-.005-.028-.004-.027-.004-.027-.004-.027-.004-.027-.004-.027-.004-.027-.005-.027-.004-.027-.004-.027-.004-.027-.004-.027-.004-.027-.004-.027-.005-.027-.004-.027-.004-.027-.004-.026-.004-.027-.004-.027-.004-.027-.005-.027-.004-.027-.004-.027-.004-.027-.004-.027-.004-.026-.005-.027-.004-.026-.004-.026-.004-.026-.004-.026-.004-.026-.004-.025-.005-.026-.006-.026-.005-.026-.005-.026-.005-.026-.005-.026-.006-.026-.005-.026-.005-.026-.005-.026-.005q-.011-.004-.026-.006l-.026-.005-.025-.005-.026-.005-.026-.005-.026-.005q-.013-.005-.026-.006l-.025-.005-.025-.005-.025-.005-.025-.005-.025-.006-.024-.005-.025-.005-.025-.005-.025-.005q-.012-.004-.025-.005l-.025-.006-.025-.005-.025-.005-.025-.005-.024-.005-.025-.006-.025-.005-.025-.005-.025-.005-.025-.005q-.012-.004-.025-.006l-.025-.005-.025-.005-.024-.005-.024-.005-.024-.005-.024-.006-.024-.005-.024-.005-.024-.005-.023-.005-.024-.006-.024-.005-.024-.005-.024-.005-.024-.005-.024-.007-.023-.006-.024-.006-.024-.006-.024-.006-.024-.007-.024-.006-.023-.006-.024-.006-.023-.006-.023-.007-.023-.006-.023-.006-.022-.006-.023-.007-.023-.006-.023-.006-.023-.006-.068-.019-.023-.006-.023-.006-.022-.007q-.011-.004-.023-.006-.011-.004-.023-.006-.01-.004-.023-.006-.01-.004-.023-.006-.01-.005-.023-.007l-.021-.006-.022-.006-.022-.006q-.01-.005-.022-.007l-.021-.006-.022-.006-.022-.006-.022-.007q-.01-.004-.022-.006l-.021-.006-.022-.006-.022-.006-.022-.007-.021-.006-.022-.006-.022-.006q-.01-.004-.022-.006-.01-.005-.022-.007-.01-.004-.021-.006l-.022-.006q-.01-.004-.022-.006l-.006-.003-.02-.006q-.01-.004-.022-.006l-.02-.006q-.01-.004-.021-.006l-.02-.007-.021-.006-.021-.006-.02-.006q-.01-.004-.022-.006-.01-.005-.02-.007l-.021-.006-.02-.006q-.01-.004-.022-.006-.01-.005-.02-.007l-.019-.006-.02-.007-.02-.007-.02-.008-.019-.007-.02-.007-.02-.007-.019-.008-.02-.007-.02-.007-.02-.007-.019-.008-.02-.007-.02-.007-.019-.007-.02-.008-.02-.007-.019-.007-.019-.007-.018-.008-.019-.007-.019-.007-.018-.008-.019-.007-.019-.007-.018-.007-.019-.008-.019-.007-.018-.007-.019-.007-.019-.008-.018-.007-.019-.007-.019-.007-.018-.008-.018-.007-.018-.007-.017-.007-.018-.008-.017-.007-.018-.007-.018-.007-.017-.008-.018-.007-.018-.007-.017-.007-.018-.008-.017-.007-.018-.007-.018-.007q-.008-.005-.017-.008l-.018-.007-.017-.007-.016-.008-.017-.007-.016-.007-.017-.007-.016-.008-.017-.007-.017-.007-.016-.007-.017-.008-.016-.007-.017-.007-.017-.007-.016-.008-.017-.007-.016-.007-.017-.007-.016-.008-.015-.007-.016-.007-.015-.007-.016-.008-.015-.007-.016-.007-.015-.007-.016-.009-.016-.008-.015-.008-.016-.009-.015-.008-.016-.008-.015-.008-.016-.009-.014-.008q-.008-.003-.015-.008l-.014-.009-.015-.008-.014-.008-.008-.004-.014-.009-.015-.008-.014-.008-.015-.009-.013-.008-.014-.008-.013-.008-.014-.009-.013-.008-.014-.008-.013-.009-.014-.008-.013-.008-.014-.008-.013-.009-.014-.008-.013-.008-.013-.009-.014-.008L6.955 12l-.013-.009-.012-.008-.013-.008-.012-.008-.013-.009-.012-.008-.013-.008-.012-.009-.012-.008-.013-.008-.012-.008-.013-.009-.012-.008-.013-.008-.012-.009-.011-.008-.012-.008-.011-.009-.012-.008-.011-.008-.012-.008-.01-.009-.012-.008-.012-.008-.011-.009q-.005-.005-.012-.008l-.01-.008-.012-.009-.012-.008-.01-.008-.01-.008-.01-.009-.011-.008-.01-.008-.011-.009-.01-.008-.009-.006-.009-.008-.01-.009-.009-.008-.009-.008-.01-.009-.009-.008-.009-.008-.01-.008q-.003-.005-.009-.009l-.009-.008-.01-.008-.009-.009-.009-.008-.008-.008-.009-.009-.008-.008-.008-.008-.008-.008-.009-.009-.008-.008-.008-.008-.009-.009-.008-.008-.008-.008q-.004-.006-.008-.008l-.009-.009-.008-.008-.008-.008-.008-.009-.007-.008-.007-.008-.007-.009-.008-.008-.007-.008-.006-.008-.006-.009-.007-.008-.006-.008-.006-.009-.006-.008-.006-.008-.007-.008-.006-.009-.006-.008-.006-.008-.007-.009-.005-.008-.005-.008-.005-.009-.005-.008-.005-.008-.006-.008-.005-.009-.005-.008-.005-.008-.004-.008q0-.002-.004-.005l-.004-.008-.004-.008q-.001-.005-.004-.009l-.004-.008-.004-.008-.004-.009-.005-.008q0-.004-.003-.008 0-.004-.003-.008 0-.005-.003-.009 0-.004-.003-.008l-.003-.008-.003-.009-.003-.008-.002-.007-.002-.009q0-.004-.003-.008l-.002-.008-.002-.008q0-.005-.002-.009l-.002-.008-.002-.008v-.009l-.002-.008-.001-.007v-.156l.001-.009z"/>
    <path fill="#F5F3E6" d="m6.039 11.878.001-.009.002-.01.002-.009.002-.009.002-.01.002-.009.002-.009.003-.01.002-.009.002-.009.002-.008v-.003l.004-.01.003-.009.003-.01.003-.009.004-.009.005-.01.004-.009q.001-.005.004-.009l.004-.01.004-.009.004-.009.004-.01.005-.009.004-.009.004-.01.004-.009.005-.009.004-.007q.002-.005.006-.009l.005-.009.005-.01.006-.008.006-.01.007-.01.006-.008.006-.01.006-.01.006-.009.007-.009.006-.01.006-.008.006-.01.007-.01.006-.008.007-.01.007-.01.008-.008.007-.01.007-.01.007-.009.008-.009.007-.01.007-.008.007-.01.008-.01.007-.008.002-.003.008-.009.009-.01.008-.009.008-.009.008-.01.009-.009.01-.01.008-.01.01-.01.01-.009.008-.01q.005-.003.01-.01l.01-.009.008-.01.01-.01.009-.011.01-.01q.004-.006.009-.01l.01-.011.01-.01.01-.011.01-.01.01-.01q.007-.006.01-.011l.011-.01.01-.01.011-.011.01-.01.01-.01.011-.011.01-.01q.007-.005.01-.011l.012-.01.012-.01.011-.011.011-.01.012-.01.011-.011.012-.01.011-.011.011-.01.012-.01.011-.011q.007-.004.012-.01l.011-.01.01-.007.012-.01.012-.01.013-.011.012-.01.013-.01.012-.011q.006-.006.013-.01l.013-.011q.005-.005.014-.01.006-.006.013-.01l.013-.011.014-.01q.006-.006.013-.01l.014-.011.013-.01.014-.011.013-.01.014-.01.013-.011.014-.01.013-.01.015-.011.014-.01.015-.01.014-.011.015-.01.014-.011.015-.01.014-.01.015-.011.014-.01.015-.01.014-.011.015-.01.015-.011.015-.01.016-.01.015-.011.016-.01.015-.01.016-.011.015-.01.016-.01.015-.011.016-.01.016-.011.015-.01.016-.01.015-.011.017-.01.016-.01.017-.011.017-.01.016-.011.017-.01.016-.01.017-.011.017-.01.016-.01.017-.011.016-.01.017-.01.017-.011.016-.01.018-.011.017-.01.018-.01.018-.011.017-.01.018-.01.018-.011.017-.01.018-.011.017-.01.018-.01.018-.011.017-.01.018-.01.018-.011.017-.01.004-.002.019-.01.019-.01.018-.01.019-.011.019-.01.018-.01.019-.011.019-.01.018-.011.02-.01q.008-.006.02-.01l.02-.011.02-.01q.009-.006.019-.01l.02-.011.02-.01q.009-.006.019-.01l.02-.011.02-.01.019-.011.02-.01.02-.01.02-.011.019-.01.02-.01.02-.011.021-.01.02-.009.021-.01q.011-.003.021-.009l.02-.009.022-.01q.01-.003.02-.009l.021-.009.02-.01q.011-.003.022-.009l.02-.009.021-.01q.011-.003.02-.009l.022-.009.021-.01q.012-.003.022-.009l.022-.009.022-.01.021-.009.022-.009.022-.01q.011-.003.022-.009l.022-.009.021-.01q.012-.003.022-.009l.022-.009.065-.028.022-.01.022-.009.023-.009.022-.01q.012-.003.023-.009l.023-.009.023-.01.023-.009.022-.009.023-.01.023-.008.023-.01.023-.01.045-.018.023-.01q.012-.003.023-.009l.023-.009.023-.01.023-.008.024-.01.024-.01.024-.008.024-.01.024-.01.024-.008.023-.01.048-.018.024-.01.024-.01.024-.008.023-.01q.013-.004.024-.01l.049-.018.025-.01.025-.008.025-.01.025-.01.024-.008.025-.01q.013-.004.025-.01.013-.003.025-.008l.025-.01.025-.01.025-.008.025-.01.025-.01.024-.008.025-.01q.014-.004.025-.01.013-.003.025-.008l.026-.01.026-.01.026-.008.026-.01.026-.01.026-.008.026-.01.026-.01.025-.008.026-.01q.014-.004.026-.01.014-.003.026-.008l.026-.01.026-.01.026-.008.026-.01.026-.01.026-.008.027-.01.027-.01.027-.007.027-.009.027-.008.027-.008.026-.009.027-.008.027-.008.027-.008.027-.009.027-.008.027-.008.027-.009.027-.008.027-.008.027-.009.027-.008q.007 0 .013-.004l.028-.008.029-.009.027-.008.028-.008.028-.008.028-.009.028-.008.028-.008.028-.009.028-.008.028-.008.028-.009.028-.008.028-.008.028-.008.028-.009.03-.008.028-.008.03-.009.028-.008.03-.008.029-.008.029-.009.029-.008.029-.008.029-.009.029-.008.029-.008.029-.009.029-.008.029-.008.029-.008.029-.009.029-.008.03-.008.028-.009.03-.008.03-.008.03-.008.03-.009.03-.008.03-.008.03-.009.03-.008.03-.008q.016-.003.03-.009l.03-.007.03-.007.031-.007.03-.008.03-.007.03-.007.03-.007.03-.008.03-.007.03-.007.03-.007.032-.008.03-.007.032-.007.031-.007.031-.008.031-.007.031-.007.031-.007.032-.008.03-.007.032-.007.03-.008.032-.007.031-.007.031-.007.031-.008.031-.007.031-.007.032-.007.03-.008.032-.007.032-.007.032-.007.032-.008.032-.007.032-.007.033-.007.032-.008.032-.007.032-.007.032-.007.032-.008.033-.007.032-.007.032-.007.032-.008.032-.007.032-.007.032-.007.033-.007.032-.006.032-.006.032-.006.033-.007.033-.006.034-.006.033-.006.033-.006.033-.007.033-.006.034-.006.033-.006.033-.007.033-.006a.517.517 0 1 0-.205-1.013l-.034.006-.033.007-.033.006-.033.006-.033.006-.033.006-.034.007-.033.006-.033.006-.033.006-.033.007-.034.006-.033.006-.033.007-.033.008-.033.007-.033.007-.033.007-.032.008-.032.007-.032.007-.032.007-.032.008-.032.007-.033.007-.032.007-.032.008-.032.007-.032.007-.032.007-.032.008-.033.007-.032.007-.032.007-.032.008-.032.007-.032.007-.032.007-.033.008-.03.007-.032.007-.03.008-.032.007-.031.007-.031.007-.031.008-.031.007-.031.007-.032.007-.03.008-.032.007-.031.007-.031.007-.031.008-.031.007-.031.007-.032.007-.03.008-.032.007-.03.007-.03.007-.03.008-.03.008-.03.008-.03.009-.03.008-.03.008-.03.008-.03.009-.03.008-.03.008-.03.009-.03.008-.03.008q-.016.003-.03.009l-.03.008-.031.008-.03.008-.03.009-.03.008-.03.008q-.015.003-.028.009l-.03.008-.028.008-.03.008-.028.009-.03.008-.029.008-.029.009-.029.008-.029.008-.029.009-.029.008-.029.008-.029.008-.029.009-.029.008-.029.008-.029.009-.029.008-.028.008-.028.008-.028.009-.028.008-.028.008-.028.009-.028.008-.028.008-.028.009-.028.008-.028.008-.028.008a1 1 0 0 0-.097.03l-.028.009-.028.008-.028.008-.028.009-.028.008-.028.008-.028.009-.027.008-.027.008q-.015.004-.027.01l-.027.009q-.015.004-.027.01-.015.002-.027.009l-.027.009q-.015.004-.027.01-.015.002-.027.008l-.027.01q-.015.003-.027.01-.014.002-.027.008l-.027.01-.027.01-.027.008-.027.01-.027.01-.027.008-.025.01q-.014.003-.026.01-.014.002-.026.008l-.026.01-.026.01-.026.008-.026.01-.026.01-.026.008-.026.01-.026.01-.026.008-.026.01-.025.01q-.014.003-.026.008l-.026.01q-.014.004-.026.01-.014.003-.026.008l-.025.01-.025.01-.025.008-.025.01-.025.01-.024.008-.025.01-.025.01-.025.008-.025.01-.025.01-.025.008-.025.01-.025.01-.024.008-.025.01-.025.01-.024.008-.024.01q-.013.004-.024.01l-.024.008-.023.01q-.013.004-.024.01l-.024.008-.024.01-.024.01-.024.008-.024.01-.023.01-.024.008-.024.01-.024.01-.024.008-.024.01-.022.01q-.013.003-.023.008l-.023.01-.023.01-.046.018-.022.01-.023.008-.023.01-.023.01-.023.008-.022.01-.023.01-.046.018-.023.01-.021.008-.044.02-.022.008-.043.02-.022.008-.022.01L8.4 8.7l-.022.01-.022.011-.021.01-.022.01-.02.011-.022.01-.02.01-.021.011-.02.01-.021.01-.021.011-.021.01-.02.011-.021.01-.021.01-.02.011-.022.01-.02.01-.021.011-.02.01-.02.01-.02.011-.02.01-.02.011-.02.01-.02.01-.019.011-.02.01-.02.01-.019.011-.02.01-.02.011-.019.01-.02.01-.02.011-.018.01-.019.01-.018.011-.02.01q-.007.006-.018.011l-.018.01-.019.01a1 1 0 0 0-.088.048q-.01.007-.019.01l-.019.011-.018.01q-.01.007-.019.01l-.019.011-.018.01-.019.011-.019.01-.017.01-.018.011-.017.01-.018.01-.018.011-.017.01-.018.01-.018.011-.017.01-.018.011-.017.01-.018.01-.018.011-.017.01q-.008.006-.018.01l-.016.011-.017.01-.017.011-.016.01-.017.01-.016.011-.017.01-.017.01-.016.011-.017.01-.016.011-.017.01-.017.01-.016.011-.016.01-.015.01-.016.011-.015.01-.016.01-.016.011-.015.01-.016.011-.015.01q-.007.006-.016.01l-.015.011-.016.01q-.007.006-.015.01l-.016.011-.014.01-.015.011-.014.01-.015.01-.015.011-.014.01q-.007.006-.015.01l-.014.011-.015.01-.014.01-.015.011-.014.01-.015.011-.014.01-.014.01-.013.011-.014.01-.013.01-.014.011-.013.01-.014.011-.013.01q-.006.006-.013.01l-.014.011-.013.01-.014.01-.013.011-.014.01-.012.01-.013.011-.012.01-.013.011-.012.01a1 1 0 0 0-.077.064l-.012.01-.013.01q-.006.007-.012.01l-.013.011-.012.01q-.006.007-.012.01l-.013.011-.011.01-.012.011-.011.01-.012.01-.011.011-.011.01-.012.01-.011.011-.012.01-.011.011-.011.01-.012.01-.011.011-.01.01-.011.01-.01.011q-.006.004-.01.01l-.011.01-.01.011-.01.01-.011.011-.01.01-.01.01-.011.011-.01.01q-.005.006-.011.01l-.01.011-.009.01-.009.01-.01.011-.009.01-.009.011-.01.01-.009.01-.009.011-.01.01q-.004.006-.009.01l-.009.011q-.004.006-.01.01l-.008.011-.008.01-.008.01-.009.011a1 1 0 0 0-.063.077l-.008.01-.008.01-.009.011-.008.01-.008.01-.009.011-.008.01-.008.01-.007.011-.008.01-.007.01-.007.011-.007.01-.008.011-.007.01-.007.01-.007.011-.008.01-.014.021-.006.01-.007.011-.006.01-.006.01-.006.011-.007.01-.006.01-.006.011-.006.01-.006.01-.007.011-.006.01-.005.011-.005.01-.005.01a.5.5 0 0 0-.053.1l-.005.01q-.004.004-.006.01l-.005.01q-.001.005-.005.01l-.005.011-.005.01q-.002.006-.006.01l-.004.011-.004.01-.004.011-.004.01-.004.01-.005.011-.004.01q-.001.006-.004.01 0 .005-.004.011l-.004.01-.004.01-.004.011-.003.01-.004.011-.003.01-.003.01-.003.01-.003.01a.5.5 0 0 0-.03.097l-.003.01-.003.01-.003.009-.004.01-.002.009-.002.01-.002.01-.002.009-.002.009-.002.01-.002.009-.002.009-.002.01-.002.009-.002.009-.002.01-.001.009-.002.009v.01l-.002.009v.009A.5.5 0 0 0 5 11.83V12a.5.5 0 0 0 .013.117l.003.01.002.009.002.009.002.01.002.009q0 .005.002.009l.002.01.002.009.002.009.002.01.003.009.003.009a.5.5 0 0 0 .03.095l.004.009q0 .005.003.008 0 .005.003.008l.003.008.003.009.003.008.003.008.003.009.004.008.004.008.004.008.004.009.004.008.004.008.004.009.005.008.004.008.004.009.004.008.004.008.004.008q.02.046.046.085l.005.008.005.008.005.008.006.009.005.008.005.008.005.009.005.008.006.008.005.008.005.009.005.008.005.008.007.009.006.008.006.008.006.009.006.008.007.008.006.008.006.009.006.008.007.008.006.009.006.008.006.008a.5.5 0 0 0 .058.07l.008.009.007.008.007.009.007.008.008.008.007.008.007.009.007.008.008.008.007.009.007.008.007.008.009.008.008.009.008.008.009.008.008.009.008.008.008.008.009.009.008.008.008.008.009.008.008.009.008.008.01.008.009.009.01.008.009.008.009.008.01.009.009.008.009.008.01.009q.03.03.066.055l.009.007.01.007.009.007.009.008.01.007.009.007.01.008.01.007.01.007.011.007.01.008.01.007.011.007.01.007q.006.003.01.008l.011.007.01.007.011.007.01.008.01.007.012.007.012.007.01.008.012.007.012.007.011.007.012.008.011.007.011.007.012.007.011.008.012.007.011.007.011.007.013.008.012.007.013.007.012.008.013.007.012.007.012.007.013.008.012.007.013.007.012.007.013.008.012.007.013.007.012.007.014.008.013.007.013.007.014.007a.4.4 0 0 0 .07.038l.013.007.013.007.014.007.013.008.014.007.013.007.014.008.013.007.014.007.013.007.014.008.013.007.015.007.014.007.015.008.014.007.015.007.014.007.015.008.014.007.015.007.014.007.015.008.014.007.015.007.014.007.015.008.015.007.016.007.016.008.015.007.016.007.015.007.016.008.015.006.031.012.016.006.016.007.015.006.016.006.015.006.016.006.016.007.034.012.016.006.017.007.016.006.017.006.017.006.016.007.017.006.016.006.017.006.016.006.017.007.017.006.016.006.018.006.018.006.017.007.018.006.017.006.018.006.035.013.018.006.018.006.017.006.018.007.017.006.018.006.018.006.017.007.018.006.018.006.018.006.038.013.018.006.019.006.019.006.018.007.019.006.019.006.018.006.019.006.019.007.018.006.019.006.019.006a1 1 0 0 0 .101.032l.019.007.02.006.02.006.019.006.02.007.02.006.039.012.04.013.019.006.02.006.02.005.019.005.02.006.02.005.019.005.02.005.02.005q.01.005.02.006l.02.005.022.005.02.005.021.005.02.006.022.005.02.005.021.005.02.005.022.005.02.006.021.005.02.005.021.005.021.005.021.006.02.005.022.005.022.005.022.005q.011.004.022.005.01.004.022.006l.021.005.022.005.022.005.022.005.021.006.022.005.022.005.022.005.022.005.021.005.022.006.022.005.022.005.021.005.023.005q.011.004.023.006l.023.005.023.005.022.005.023.005q.011.004.023.005.01.004.023.006l.023.005.023.005.022.005.023.005q.011.004.023.006l.023.005.023.005.022.005.023.005q.012.002.023.006l.023.005.023.005.022.005.024.005.024.004.024.005.024.004.024.004.024.004.023.004.024.004.024.005.024.004.024.004.024.004.024.004.023.004.024.004.024.005.024.004.024.004.024.004.024.004.024.004.025.004.025.005.025.004.025.004.025.004.025.004.024.004.025.004.025.005.025.004.025.004.025.004.025.004.025.004.025.005.025.004.024.004.025.004.025.004.025.004.025.004.025.005.026.004.026.004.026.004.026.004.026.004.025.004.026.005.026.004.026.004.026.004.026.004.026.004.026.004.026.005.026.004.026.003.026.003.026.003.025.003.026.003.026.003q.013.004.026.004l.026.003.027.003.027.003.027.003.027.003.027.003.027.003.027.003.027.004.027.003.027.003.027.003.027.003.027.003.027.003.026.003.027.003.027.003q.013.004.027.004l.027.003.027.003.027.003.027.003.027.003.027.003.027.003.028.004.028.003.028.003.028.003.028.003.028.003a.2.2 0 0 0 .043.004l.027.003.027.003q.013.003.026.003.014.004.027.004l.027.003.027.003.027.003.027.003.027.003h.001l.027.003h.001l.027.003h.001q.013.004.027.004h.001l.026.003h.002l.026.003h.002l.026.003h.002l.026.003h.002l.026.003h.002l.026.003h.002l.026.003h.002l.026.003h.002l.026.002h.003q.012.003.026.003h.003l.026.002h.003l.025.002h.003l.025.002h.003l.025.002h.003l.025.002h.003l.025.002h.003l.025.002h.004l.025.002h.004l.025.002h.004l.025.002h.004l.025.002h.004l.025.002h.005q.011.003.024.002h.005q.011.003.023.003h.005l.023.002h.006l.023.002h.006l.023.002h.006l.024.002h.005l.024.002h.005l.024.002h.005l.024.002h.005l.024.002h.005l.024.002h.006l.023.002h.006l.023.002h.006l.023.003h.006l.023.002h.006l.023.002h.006l.023.002h.006l.023.002h.007l.023.002h.007l.023.002h.007l.023.002h.007l.023.002h.007l.022.002h.007l.022.002h.008l.021.002h.008l.021.002h.009l.021.002h.009l.021.002h.009l.022.003h.008l.022.002h.008l.022.002h.008l.022.002h.008l.02.002h.009l.02.002h.01l.02.002h.01l.02.002h.01l.021.002h.01l.02.002h.01l.02.002h.01l.02.002h.01l.02.002h.01l.021.003h.01l.02.002h.01l.02.002.01-.001.02.002a.155.155 0 1 0 0-.311h-.003q-.013-.003-.027-.004h-.003l-.027-.003h-.003l-.027-.003h-.003l-.027-.003h-.002l-.028-.003h-.002l-.028-.003h-.002l-.028-.003h-.002l-.028-.003h-.002l-.028-.003h-.002l-.028-.003h-.002l-.028-.004h-.002l-.028-.003h-.001l-.028-.003h-.001l-.028-.003h-.001l-.03-.003-.03-.003-.028-.003-.03-.003-.029-.004-.029-.003-.029-.003-.029-.003-.024-.002-.028-.003-.03-.003-.029-.003-.029-.003-.029-.003-.029-.003-.029-.004-.029-.003-.029-.003-.029-.003-.029-.003-.029-.003-.029-.003-.029-.003-.029-.003-.03-.004-.028-.003-.03-.003-.028-.003-.03-.003-.027-.003-.028-.003-.028-.003-.028-.004-.028-.003-.028-.003-.028-.003-.028-.003-.028-.003-.028-.003-.028-.004-.028-.005-.028-.004-.028-.004-.028-.004-.028-.004-.028-.004-.028-.004-.028-.005-.028-.004-.028-.004-.028-.004-.028-.004-.028-.004-.028-.004q-.015-.004-.028-.005l-.028-.004-.027-.004-.027-.004-.027-.004-.027-.004-.027-.004-.027-.005-.027-.004-.027-.004-.027-.004-.027-.004-.027-.004-.027-.005-.027-.004-.027-.004-.027-.004-.027-.004-.026-.004-.027-.004-.027-.005-.027-.004-.027-.004-.027-.004-.027-.004-.027-.004-.027-.004q-.013-.004-.026-.005l-.027-.004-.026-.004-.026-.004-.026-.004-.026-.004-.026-.004q-.012-.004-.025-.006l-.026-.005-.026-.005-.026-.005-.026-.005-.026-.005-.026-.006-.026-.005-.026-.005-.026-.005-.026-.005q-.011-.005-.026-.006l-.026-.005-.025-.005-.026-.005-.026-.005-.026-.006-.026-.005-.025-.005-.025-.005-.025-.005-.025-.006-.025-.005-.024-.005-.025-.005-.025-.005-.025-.005-.025-.006-.025-.005-.025-.005-.025-.005-.025-.005q-.012-.004-.024-.005l-.025-.006-.025-.005-.025-.005-.025-.005-.025-.005q-.012-.004-.025-.006l-.025-.005-.025-.005-.024-.005-.024-.005q-.013-.004-.024-.005l-.024-.006-.024-.005-.024-.005-.024-.005-.023-.005-.024-.006-.024-.005-.024-.005-.024-.005-.024-.005-.024-.007-.023-.006-.024-.006-.024-.006-.024-.006-.024-.007-.024-.006-.047-.012-.023-.007-.023-.006-.023-.006-.023-.006-.022-.007-.023-.006-.023-.006-.023-.006-.023-.006-.068-.019-.023-.006-.023-.006-.022-.007q-.011-.004-.023-.006-.011-.004-.023-.006-.01-.004-.023-.006l-.023-.007q-.01-.004-.023-.006l-.021-.006-.022-.006-.022-.007q-.01-.004-.022-.006l-.021-.006-.022-.006-.022-.006-.022-.007q-.01-.004-.022-.006l-.021-.006-.022-.006-.022-.006q-.01-.005-.022-.007l-.021-.006L9.237 14l-.022-.006-.022-.007q-.01-.004-.022-.006-.01-.004-.021-.006l-.022-.006-.022-.007-.006-.002-.02-.006q-.01-.004-.022-.006l-.02-.006q-.01-.004-.021-.006-.01-.005-.02-.007l-.021-.006-.021-.006-.02-.006-.022-.007-.02-.006-.021-.006-.02-.006q-.01-.004-.022-.006l-.02-.007-.019-.006-.02-.007-.02-.007-.02-.008-.019-.007-.02-.007-.02-.007q-.009-.005-.019-.008l-.02-.007-.02-.007-.02-.007q-.009-.005-.019-.008l-.02-.007-.02-.007-.019-.008-.02-.007-.02-.007-.019-.007-.019-.008-.018-.007-.019-.007-.019-.007-.018-.008-.019-.007-.019-.007-.018-.007-.019-.008-.019-.007-.018-.007-.019-.007-.019-.008-.018-.007-.019-.007-.019-.007-.018-.008-.018-.007-.018-.007-.017-.007-.018-.008-.017-.007-.018-.007-.018-.007-.017-.008-.018-.007-.018-.007-.017-.008-.018-.007-.017-.007-.018-.007-.018-.008-.017-.007-.018-.007-.017-.007-.016-.008-.017-.007-.016-.007-.017-.007-.016-.008-.017-.007-.017-.007-.016-.007-.017-.008-.016-.007-.017-.007-.017-.007-.016-.008-.017-.007-.016-.007-.017-.007-.016-.008-.015-.007-.016-.007-.015-.008-.016-.007-.015-.007-.016-.007-.015-.007-.016-.009-.016-.008-.015-.008-.016-.009-.015-.008-.016-.008-.015-.008-.016-.009-.014-.008q-.008-.003-.015-.008l-.014-.009-.015-.008-.014-.008-.008-.005-.014-.008-.015-.008-.014-.008-.015-.009-.013-.008-.014-.008-.013-.008-.014-.009-.013-.008-.014-.008-.013-.009-.014-.008-.013-.008-.014-.009-.013-.008-.014-.008-.013-.008-.013-.009-.014-.008-.013-.008-.013-.009-.012-.008-.013-.008-.012-.009-.013-.008-.012-.008-.013-.008-.012-.009-.012-.008-.013-.008-.012-.009-.013-.008-.012-.008-.013-.008-.012-.009-.011-.008-.012-.008-.011-.009-.012-.008-.011-.008-.012-.009-.01-.008-.012-.008-.012-.008-.011-.009q-.005-.005-.012-.008l-.01-.008-.012-.009-.012-.008-.01-.008-.01-.009-.01-.008-.011-.008-.01-.008-.011-.009-.01-.008-.009-.006-.009-.008-.01-.009-.009-.008-.009-.008-.01-.009-.009-.008-.009-.008-.01-.009-.009-.008-.009-.008-.01-.008-.009-.009-.009-.008-.008-.008-.009-.009-.008-.008-.008-.008-.008-.008-.009-.009-.008-.008-.008-.008-.009-.009-.008-.008-.008-.008-.008-.009-.009-.008-.008-.008-.008-.008-.008-.009-.007-.008-.007-.008-.007-.009-.008-.008-.007-.008-.006-.009-.006-.008-.007-.008-.006-.009-.006-.008-.006-.008-.006-.008-.007-.009-.006-.008-.006-.008-.006-.009-.007-.008-.005-.008-.005-.008-.005-.009-.005-.008-.005-.008-.006-.009-.005-.008-.005-.008-.005-.009-.004-.007q0-.003-.004-.005l-.004-.008-.004-.009-.004-.008-.004-.008-.004-.008-.004-.009-.005-.008q0-.004-.003-.008l-.003-.009q0-.004-.003-.008 0-.004-.003-.008l-.003-.008-.003-.009-.003-.008-.002-.007-.002-.009q0-.004-.003-.008l-.002-.008-.002-.008q0-.005-.002-.009l-.002-.008-.002-.008v-.009l-.002-.008-.001-.007v-.156l.001-.01z"/>
    <path fill="#F10" d="m6.039 12.915.001-.01.002-.008.002-.01.002-.01.002-.008.002-.01.002-.01.003-.008.002-.01.002-.01.002-.007v-.004l.004-.009.003-.01.003-.008.003-.01.004-.01.005-.008q0-.006.004-.01l.004-.01.004-.008.004-.01.004-.01.004-.009.005-.009.004-.01.004-.008.004-.01.005-.01.004-.006q.002-.005.006-.009l.005-.009.005-.01.006-.009.006-.009.007-.01.006-.009.006-.009.006-.01.006-.009.007-.009.006-.01.006-.009.006-.009.007-.01.006-.009.007-.009.007-.01.008-.009.007-.009.007-.01.007-.009.008-.009.007-.01.007-.009.007-.009.008-.01.007-.009.002-.002.008-.009.009-.01.008-.009.008-.009.008-.01.009-.009.01-.01.008-.01.01-.01.01-.01.008-.008.01-.01.01-.01.008-.01.01-.01.009-.011.01-.01.009-.011.01-.01.01-.01.01-.011.01-.01.01-.01q.007-.005.01-.011l.011-.01.01-.011.011-.01.01-.01.01-.011.011-.01.01-.01q.007-.005.01-.011l.012-.01q.005-.006.012-.01l.011-.011.011-.01.012-.011.011-.01.012-.01.011-.011.011-.01.012-.01.011-.011q.007-.004.012-.01l.011-.01.01-.007.012-.01q.006-.007.012-.01l.013-.011.012-.01.013-.011.012-.01q.006-.006.013-.01l.013-.011q.005-.005.014-.01.006-.006.013-.01l.013-.011.014-.01.013-.011q.009-.005.014-.01l.013-.01.014-.011.013-.01.014-.01.013-.011.014-.01.013-.01.015-.011.014-.01.015-.011.014-.01.015-.01.014-.011.015-.01.014-.01.015-.011.014-.01.015-.011.014-.01.015-.01.015-.011.015-.01.016-.01.015-.011.016-.01.015-.01.016-.011.015-.01.016-.011.015-.01.016-.01.016-.011.015-.01.016-.01.015-.011.017-.01.016-.011.017-.01.017-.01.016-.011.017-.01.016-.01.017-.011.017-.01.016-.011.017-.01.016-.01.017-.011.017-.01.016-.01.018-.011.017-.01.018-.01.018-.011.017-.01.018-.011.018-.01.017-.01.018-.011.017-.01.018-.01.018-.011.017-.01.018-.011.018-.01.017-.01.004-.002.019-.01.019-.01q.009-.007.018-.01l.019-.011q.009-.006.019-.01l.018-.011.019-.01q.009-.006.019-.01l.018-.011.02-.01q.008-.006.02-.01l.02-.011.02-.01q.009-.006.019-.01l.02-.011.02-.01.019-.011.02-.01.02-.01.019-.011.02-.01.02-.01.02-.011.019-.01.02-.011.02-.01.021-.01.02-.009.021-.01.021-.009.02-.009.022-.01q.01-.003.02-.009l.021-.009.02-.01.022-.009.02-.009.021-.01.02-.009.022-.009.021-.01.022-.009.022-.009.022-.01.021-.009.022-.009.022-.01q.011-.003.022-.009l.022-.009.021-.01.022-.009.044-.018.021-.01.022-.009.022-.01.067-.027.023-.01.023-.009.023-.01.023-.009.022-.009.023-.01q.012-.003.023-.009l.023-.009.023-.01q.011-.003.023-.009l.022-.009.023-.01.046-.018.023-.01q.011-.003.023-.009l.024-.009.024-.01.024-.009.024-.009.024-.01.024-.009.023-.009.048-.019.024-.009.024-.01.024-.009.023-.009q.013-.004.024-.01l.024-.009.025-.009.025-.01q.012-.003.025-.009l.025-.009.025-.01.024-.009.025-.009.025-.01q.013-.002.025-.009l.025-.009.025-.01q.012-.002.025-.009l.025-.009.025-.01.024-.009.025-.009q.014-.004.025-.01.013-.002.025-.009l.026-.009.026-.01q.013-.002.026-.009l.026-.009.026-.01q.012-.002.026-.009l.026-.009.026-.01q.012-.002.025-.009l.026-.009q.014-.004.026-.01.014-.002.026-.009l.026-.009.026-.01q.013-.002.026-.009l.026-.009.026-.01q.012-.002.026-.009l.027-.009.027-.01.027-.008.027-.008.027-.008.027-.008.026-.009.027-.008.027-.008.027-.009.027-.008.027-.008.027-.008.027-.009.027-.008.027-.008.027-.009.027-.008q.007-.001.013-.004l.028-.008.029-.009.027-.008.028-.008.028-.009.028-.008.028-.008.028-.008.028-.009.028-.008.028-.008.028-.009.028-.008.028-.008q.016-.004.028-.009l.028-.008.03-.008.028-.008.03-.009.028-.008.03-.008q.014-.003.029-.009l.029-.008.029-.008.029-.008.029-.009.029-.008.029-.008.029-.009.029-.008.029-.008.029-.009.029-.008.029-.008.03-.008.028-.009.03-.008.03-.008.03-.009.03-.008.03-.008.03-.008.03-.009.03-.008.03-.008.03-.009.03-.007.03-.007.031-.007.03-.008.03-.007.03-.007.03-.007.03-.008.03-.007.03-.007.03-.008.032-.007.03-.007.032-.007.031-.008.031-.007.031-.007.031-.007.031-.008.032-.007.03-.007.032-.007.03-.008.032-.007.031-.007.031-.007.031-.008.031-.007.031-.007.032-.007.03-.008.032-.007.032-.007.032-.007.032-.008.032-.007.032-.007.033-.007.032-.008.032-.007.032-.007.032-.008.032-.007.033-.007.032-.007.032-.008.032-.007.032-.007.032-.007.032-.008.033-.006.032-.006.064-.012.033-.007.033-.006.034-.006.033-.006.033-.007.033-.006.033-.006.034-.006.033-.006.033-.007.033-.006a.517.517 0 1 0-.239-1.007l-.033.006-.033.007-.033.006-.033.006-.033.006-.034.007-.033.006-.033.006-.033.006-.033.006-.034.007-.033.006-.033.007-.033.007-.033.008-.033.007-.033.007-.032.007-.032.008-.032.007-.032.007-.032.007-.032.008-.033.007-.032.007-.032.008-.032.007-.032.007-.032.007-.032.008-.033.007-.032.007-.032.007-.032.008-.032.007-.032.007-.032.007-.033.008-.03.007-.032.007-.03.007-.032.008-.031.007-.031.007-.031.007-.031.008-.031.007-.032.007-.03.007-.032.008-.031.007-.031.007-.031.007-.031.008-.031.007-.032.007-.03.008-.032.007-.03.007-.03.007-.03.008-.03.008-.03.008-.03.008-.03.009-.03.008-.03.008-.03.009-.03.008-.03.008q-.016.003-.03.009l-.03.008-.03.008-.03.008-.03.009-.031.008-.03.008-.03.009-.03.008-.03.008-.028.008-.03.009-.028.008-.03.008-.028.009-.03.008-.029.008-.029.009-.029.008-.029.008-.029.008-.029.009-.029.008-.029.008-.029.009-.029.008-.029.008-.029.008-.029.009-.028.008-.028.008-.028.009-.028.008-.028.008-.028.009-.028.008-.028.008-.028.008-.028.009-.028.008-.028.008a1 1 0 0 0-.097.03l-.028.009-.028.008-.028.008-.028.009-.028.008-.028.008-.028.008-.027.009-.027.008q-.015.004-.027.01-.015.003-.027.009l-.027.009q-.015.004-.027.01-.015.003-.027.009l-.027.009q-.015.004-.027.01-.015.003-.027.009l-.027.009q-.014.004-.027.01-.015.003-.027.009l-.027.009-.027.01-.027.009-.027.009-.027.01q-.012.003-.025.009l-.026.009q-.014.004-.026.01-.014.003-.026.009l-.026.009-.026.01q-.013.003-.026.009l-.026.009-.026.01q-.013.003-.026.009l-.026.009-.026.01-.026.009-.025.009-.026.01q-.014.003-.026.009l-.026.009q-.014.004-.026.01-.013.003-.025.009l-.025.009-.025.01-.025.009-.025.009-.024.01-.025.009-.025.009-.025.01-.025.009-.025.009-.025.01-.025.009-.025.009-.024.01-.025.009-.025.009q-.014.004-.024.01l-.024.009-.024.009-.024.01-.047.018-.024.01-.024.009-.024.009-.024.01-.024.009-.023.009-.024.01-.024.009-.024.009-.024.01-.024.009-.022.009-.023.01-.046.018-.023.01-.023.009-.022.009-.023.01-.023.009-.023.009-.023.01q-.011.003-.022.009l-.023.009-.023.01-.023.009-.023.009-.021.01-.022.009-.022.009-.022.01-.022.009-.021.009-.022.01q-.011.003-.022.01l-.065.03-.022.01-.022.01-.022.01-.021.011-.022.01-.02.01-.022.011-.02.01-.021.011-.02.01-.021.01-.021.011-.021.01-.02.01-.021.011-.021.01-.02.011-.022.01-.02.01-.021.011-.02.01-.02.01-.02.011-.02.01-.02.01-.02.011-.02.01-.019.011-.02.01-.02.01-.019.011-.02.01-.02.01-.019.011-.02.01-.02.011-.018.01-.019.01-.018.011-.02.01q-.007.006-.018.01l-.018.011-.019.01a1 1 0 0 0-.088.048l-.019.01-.019.011-.018.01q-.01.007-.019.01l-.019.011-.018.01q-.01.007-.019.01l-.019.011-.017.01-.018.011-.017.01-.018.01-.018.011-.017.01-.018.01-.018.011-.017.01-.018.01-.017.011-.018.01-.018.011-.017.01q-.008.006-.018.01l-.016.011-.017.01-.017.01-.016.011-.017.01-.016.011-.017.01-.017.01-.016.011-.017.01-.016.01-.017.011-.017.01-.016.01-.016.011-.015.01-.016.011-.015.01-.016.01-.016.011-.015.01q-.007.007-.016.01l-.015.011q-.007.006-.016.01l-.015.011-.016.01q-.007.006-.015.01l-.016.011-.014.01-.015.01-.014.011-.015.01-.015.01-.014.011q-.007.006-.015.01l-.014.011-.015.01-.014.01-.015.011-.014.01q-.007.006-.015.01l-.014.011-.014.01-.013.011-.014.01-.013.01-.014.011-.013.01-.014.01-.013.011-.013.01-.014.011-.013.01-.014.01-.013.011-.014.01-.012.01-.013.011-.012.01-.013.01-.012.011a1 1 0 0 0-.077.063l-.012.01-.013.011-.012.01-.013.011-.012.01q-.006.007-.012.01l-.013.011-.011.01-.012.01-.011.011-.012.01-.011.011-.011.01-.012.01-.011.011-.012.01-.011.01-.011.011-.012.01q-.005.007-.011.01l-.01.011-.011.01-.01.011q-.006.004-.01.01l-.011.01-.01.011-.01.01-.011.01-.01.011-.01.01-.011.011-.01.01q-.005.006-.011.01l-.01.011-.009.01-.009.01-.01.011-.009.01-.009.01-.01.011-.009.01-.009.011-.01.01-.009.01-.009.011-.01.01q-.003.006-.008.01l-.008.011-.008.01-.009.011a1 1 0 0 0-.063.077l-.008.01-.008.01q-.004.006-.009.01l-.008.011-.008.01q-.003.006-.009.01l-.008.011-.008.01-.007.011-.008.01-.007.01-.007.011-.007.01-.008.01-.007.011-.007.01-.007.011-.008.01-.014.021-.006.01-.007.01-.006.011-.006.01-.006.011-.007.01-.006.01-.006.011-.006.01-.006.01-.007.011-.006.01-.005.01-.005.011-.005.01a.5.5 0 0 0-.053.1l-.005.01q-.004.004-.006.01l-.005.01q-.001.005-.005.01l-.005.011-.005.01-.006.01q-.001.006-.004.011l-.004.01q-.001.006-.004.01l-.004.011-.004.01-.005.011-.004.01-.004.01q0 .005-.004.011l-.004.01-.004.01-.004.011-.003.01-.004.01-.003.011-.003.01q0 .006-.003.01l-.003.01a.5.5 0 0 0-.03.097l-.003.01-.003.01-.003.009-.004.01-.002.009-.002.01-.002.01-.002.009q0 .005-.002.009l-.002.01-.002.008-.002.01-.002.01-.002.008-.002.01-.002.01-.001.008q0 .006-.002.01v.01l-.002.009v.009a.5.5 0 0 0-.011.105v.17a.5.5 0 0 0 .013.117l.003.01.002.008.002.01.002.01.002.008q0 .006.002.01l.002.01.002.008.002.01.002.01.003.008q0 .006.003.01a.5.5 0 0 0 .03.095l.004.008q0 .006.003.009l.003.008.003.008.003.009.003.008.003.008.003.008.004.009.004.008q0 .005.004.008 0 .006.004.009l.004.008.004.008.004.009.005.008.004.008.004.008q.001.005.004.009l.004.008.004.008q.02.045.046.084l.005.009.005.008.005.008.006.008.005.009.005.008.005.008.005.009.006.008.005.008.005.009.005.008.005.008.007.008.006.009.006.008.006.008.006.009.007.008.006.008.006.009.006.008.007.008.006.008.006.009.006.008a.5.5 0 0 0 .058.07l.008.009.007.008.007.008.007.009.008.008.007.008.007.009.007.008.008.008.007.008.007.009.007.008.009.008.008.009.008.008.009.008.008.009.008.008.008.008.009.008.008.009.008.008.009.008q.005.004.008.009l.008.008.01.008.009.008.01.009.009.008.009.008.01.009.009.008.009.008.01.009q.03.03.066.054l.009.008.01.007.009.007.009.008.01.007.009.007.01.007.01.008.01.007.011.007.01.007.01.008.011.007.01.007.01.007.011.008.01.007.011.007.01.008.01.007.012.007.012.007.01.008.012.007.012.007.011.007.012.008.011.007.011.007.012.007.011.008.012.007.011.007.011.007.013.008.012.007.013.007.012.007q.006.005.013.008l.012.007.012.007.013.007.012.008.013.007.012.007.013.007q.006.006.012.008l.013.007.012.007.014.008.013.007.013.007.014.007a.4.4 0 0 0 .07.038l.013.007.013.007.014.007.013.008.014.007.013.007.014.007.013.008.014.007.013.007.014.007.013.008.015.007.014.007.015.007.014.008.015.007.014.007.015.008.014.007.015.007.014.007.015.008.014.007.015.007.014.007.015.008.015.007.016.007.016.007.015.008.016.007.015.007.016.007.015.007.016.006.015.006.016.006.016.007.015.006.016.006.015.006.032.013.017.006.033.012.017.006.016.007.017.006.017.006.016.006.017.007.016.006.017.006.016.006.017.007.017.006.016.006.018.006.035.012.035.013.018.006.018.006.017.007.018.006.018.006.017.006.018.007.017.006.018.006.018.006.017.007.018.006.018.006.018.006.019.006q.009.004.019.006l.018.007.019.006.019.006.018.006.019.007.019.006.018.006.019.006.019.007.018.006.019.006.019.006a1 1 0 0 0 .101.032l.019.007.02.006.02.006.019.006.02.006.02.007.039.012.02.006.02.007.019.006.02.006.02.005.019.005.02.005.02.006.019.005.02.005.02.005q.01.004.02.005l.02.006.022.005.02.005.021.005.02.005q.011.005.022.006l.02.005.021.005.02.005.022.005.02.005.021.006.02.005.021.005.021.005.021.005q.01.005.02.006l.022.005.022.005.022.005.022.005.022.006.021.005.022.005.022.005.022.005.021.006.022.005.022.005.022.005.022.005.021.005.022.006.022.005.022.005.021.005.023.005q.011.004.023.005l.023.006.023.005.022.005.023.005.023.005.023.006.023.005.023.005.022.005.023.005.023.005q.011.004.023.006l.023.005.022.005.023.005.023.005.023.006.023.005.022.005.024.005.024.004.024.004.024.005.024.004.024.004.023.004.024.004.024.004.024.004.024.005.024.004.024.004.023.004.024.004.024.004.024.005.024.004.024.004.024.004.024.004.025.004.025.004.025.005.025.004.025.004.025.004.024.004.025.004.025.005.025.004.025.004.025.004.025.004.025.004.025.004.025.004q.012.004.024.005l.025.004.025.004.025.004.025.004.025.004.026.005.026.004.026.004.026.004.026.004.025.004.026.004.026.005.026.004.026.004.026.004.026.004.026.004.026.004.026.005.026.003.026.003.026.003.025.003.026.003.026.003.026.003.026.003.027.004.027.003.027.003.027.003.027.003.027.003.027.003.027.003.027.004.027.003.027.003.027.003.027.003.027.003.026.003.027.003.027.003.027.003.027.004.027.003.027.003.027.003.027.003.027.003.027.003.028.003.028.003q.015.004.028.004l.028.003.028.003.028.003a.2.2 0 0 0 .043.004l.027.003.027.003.026.003.027.003q.014.004.027.004l.027.003.027.003.027.003.027.003h.001l.027.003h.001l.027.003h.001l.027.003h.001l.026.004h.002l.026.003h.002l.026.003h.002l.026.003h.002l.026.003h.002l.026.003h.002l.026.003h.002l.026.003h.002l.026.002h.003l.026.002h.003l.026.003h.003l.025.002h.003l.025.002h.003l.025.002h.003l.025.002h.003l.025.002h.003l.025.002h.004l.025.002h.004l.025.002h.004l.025.002h.004l.025.002h.004l.025.002h.005l.024.002h.005l.023.002h.005q.011.003.023.003h.006l.023.002h.006l.023.002h.006l.024.002h.005l.024.002h.005l.024.002h.005l.024.002h.005l.024.002h.005l.024.002h.006l.023.002h.006l.023.002h.006l.023.002h.006l.023.002h.006l.023.003h.006l.023.002h.006l.023.002h.007l.023.002h.007l.023.002h.007l.023.002h.007l.023.002h.007l.022.002h.007l.022.002h.008l.021.002h.008l.021.002h.009l.021.002h.009l.021.002h.009l.022.002h.008l.022.003h.008l.022.002h.008l.022.002h.008l.02.002h.009l.02.002h.01l.02.002h.01l.02.002h.01l.021.002h.01l.02.002h.01l.02.002h.01l.02.002h.01l.02.002h.01l.021.002h.01l.02.003h.01l.02.002q.006 0 .01-.002l.02.003a.155.155 0 1 0 0-.312h-.003l-.027-.003h-.003l-.027-.003h-.003l-.027-.003h-.003l-.027-.003h-.002l-.028-.003h-.002l-.028-.003h-.002l-.028-.003h-.002l-.028-.003h-.002l-.028-.004h-.002l-.028-.003h-.002l-.028-.003h-.002l-.028-.003h-.001l-.028-.003h-.001l-.028-.003h-.001l-.03-.003-.03-.003-.028-.003-.03-.003-.029-.004-.029-.003-.029-.003-.029-.003-.024-.002-.028-.003-.03-.003-.029-.003-.029-.003-.029-.004-.029-.003-.029-.003-.029-.003-.029-.003-.029-.003-.029-.003-.029-.003-.029-.003-.029-.004-.029-.003-.03-.003-.028-.003-.03-.003-.028-.003-.03-.003-.027-.003-.028-.003-.028-.003-.028-.004-.028-.003-.028-.003-.028-.003-.028-.003-.028-.003-.028-.003-.028-.004-.028-.005-.028-.004-.028-.004-.028-.004-.028-.004-.028-.004-.028-.005-.028-.004-.028-.004-.028-.004-.028-.004-.028-.004-.028-.004-.028-.005-.028-.004-.028-.004-.027-.004-.027-.004-.027-.004-.027-.004-.027-.005-.027-.004-.027-.004-.027-.004-.027-.004-.027-.004-.027-.004-.027-.005-.027-.004-.027-.004-.027-.004-.027-.004-.026-.004-.027-.004-.027-.005-.027-.004-.027-.004-.027-.004-.027-.004-.027-.004-.027-.005-.026-.004-.027-.004-.026-.004-.026-.004-.026-.004-.026-.004-.026-.005-.025-.005-.026-.005-.026-.005-.026-.005-.026-.005-.026-.006-.026-.005-.026-.005-.026-.005-.026-.005-.026-.006-.026-.005-.026-.005-.025-.005-.026-.005q-.013-.004-.026-.005l-.026-.006-.026-.005-.025-.005-.025-.005-.025-.005q-.012-.004-.025-.006l-.025-.005-.024-.005-.025-.005-.025-.005q-.013-.004-.025-.005-.012-.005-.025-.006l-.025-.005-.025-.005-.025-.005-.025-.005-.024-.006-.025-.005-.025-.005-.025-.005-.025-.005q-.012-.004-.025-.005-.012-.005-.025-.006l-.025-.005-.025-.005-.024-.005-.024-.005-.024-.006-.024-.005-.024-.005-.024-.005-.024-.005q-.011-.004-.023-.006l-.024-.005-.024-.005-.024-.005-.024-.005q-.011-.004-.024-.005l-.024-.007-.023-.006-.024-.006-.024-.006-.024-.007-.024-.006-.024-.006-.047-.012-.023-.007-.023-.006-.023-.006-.023-.006-.022-.007-.023-.006-.023-.006-.023-.006-.023-.007-.045-.012-.023-.006-.046-.013-.022-.006q-.011-.004-.023-.006-.011-.004-.023-.006-.01-.004-.023-.006-.01-.005-.023-.007-.01-.004-.023-.006l-.021-.006-.022-.006-.022-.007q-.01-.004-.022-.006l-.021-.006-.022-.006-.022-.007q-.01-.004-.022-.006-.01-.004-.022-.006l-.021-.006-.022-.006-.022-.007q-.01-.004-.022-.006l-.021-.006-.022-.006-.022-.006q-.01-.005-.022-.007-.01-.004-.022-.006-.01-.004-.021-.006l-.022-.006-.022-.007-.006-.002-.02-.006q-.01-.004-.022-.006l-.02-.006q-.01-.005-.021-.006-.01-.005-.02-.007l-.021-.006-.021-.006-.02-.006-.022-.007-.02-.006-.021-.006-.02-.006-.022-.007-.02-.006-.019-.006-.02-.007-.02-.008-.02-.007-.019-.007-.02-.007-.02-.008-.019-.007-.02-.007-.02-.007-.02-.007q-.009-.005-.019-.008l-.02-.007-.02-.007-.019-.008-.02-.007-.02-.007-.019-.007-.019-.008-.018-.007-.019-.007-.019-.007-.018-.008-.019-.007-.019-.007-.018-.007-.019-.008-.019-.007-.018-.007-.019-.007q-.009-.006-.019-.008l-.018-.007-.019-.007-.019-.007-.018-.008-.018-.007-.018-.007-.017-.008-.018-.007-.017-.007-.018-.007-.018-.008-.017-.007-.018-.007-.018-.007-.017-.008-.018-.007-.017-.007-.018-.007-.018-.008-.017-.007-.018-.007-.017-.007-.016-.008-.017-.007-.016-.007-.017-.008-.016-.007-.017-.007-.017-.007-.016-.008-.017-.007-.016-.007-.017-.007-.017-.008-.016-.007-.017-.007-.016-.007-.017-.008-.016-.007-.015-.007-.016-.007-.015-.008-.016-.007-.015-.007-.016-.007-.015-.008-.016-.008-.016-.008-.015-.009-.016-.008-.015-.008-.016-.008-.015-.009-.016-.008-.014-.008q-.008-.003-.015-.009l-.014-.008-.015-.008-.014-.009-.008-.004-.014-.008-.015-.008-.014-.009-.015-.008-.013-.008-.014-.008-.013-.009-.014-.008-.013-.008-.014-.008-.013-.009-.014-.008-.013-.008-.014-.009-.013-.008-.014-.008-.013-.009-.013-.008-.014-.008-.013-.009-.013-.008-.012-.008-.013-.008-.012-.009-.013-.008-.012-.008-.013-.009-.012-.008L6.843 14l-.013-.008-.012-.009-.013-.008-.012-.008-.013-.009-.012-.008-.011-.008q-.008-.004-.012-.009l-.011-.008-.012-.008-.011-.008-.012-.009-.01-.008-.012-.008-.012-.009-.011-.008q-.005-.005-.012-.008l-.01-.008-.012-.009-.012-.008-.01-.008-.01-.009-.01-.008-.011-.008-.01-.009-.011-.008-.01-.008-.009-.006-.009-.009-.01-.008-.009-.008-.009-.008-.01-.009-.009-.008-.009-.008-.01-.009-.009-.008-.009-.008-.01-.009-.009-.008-.009-.008-.008-.008-.009-.009-.008-.008-.008-.008-.008-.009-.009-.008-.008-.008-.008-.009-.009-.008-.008-.008-.008-.008-.008-.009-.009-.008-.008-.008-.008-.009-.008-.008-.007-.008-.007-.008-.007-.009-.008-.008-.007-.008-.006-.009-.006-.008-.007-.008-.006-.009-.006-.008-.006-.008-.006-.008-.007-.009-.006-.008-.006-.008-.006-.009-.007-.008-.005-.008-.005-.008-.005-.009-.005-.008-.005-.008-.006-.009-.005-.008-.005-.008-.005-.009-.004-.007q0-.003-.004-.005l-.004-.008-.004-.009-.004-.008-.004-.008-.004-.008-.004-.009-.005-.008q0-.004-.003-.008 0-.005-.003-.009 0-.004-.003-.008 0-.004-.003-.008l-.003-.009-.003-.008-.003-.008-.002-.007-.002-.009q0-.004-.003-.008l-.002-.008-.002-.009-.002-.008-.002-.008-.002-.009v-.008l-.002-.008-.001-.007v-.156l.001-.01z"/>
  </g>
</svg>
