<svg xmlns="http://www.w3.org/2000/svg" fill="none" viewBox="0 0 20 20">
  <g clip-path="url(#aethir_svg__a)">
    <path fill="#1f2925" d="M10 20c5.523 0 10-4.477 10-10S15.523 0 10 0 0 4.477 0 10s4.477 10 10 10"/>
    <path fill="#d8ff52" d="M11.372 4.338H8.628a.82.82 0 0 0-.742.463L6.484 7.7a.546.546 0 0 0 .494.783H8.87c.263 0 .503-.15.618-.387l.51-1.055 2.618 5.406L9.08 9.9a.83.83 0 0 0-.483-.156H6.01a.82.82 0 0 0-.741.464L3.555 13.75a.546.546 0 0 0 .494.783h1.894c.263 0 .503-.15.617-.387l1.392-2.873 3.832 2.903c.306.231.68.357 1.063.357h3.104c.404 0 .67-.42.494-.783L12.113 4.8a.82.82 0 0 0-.741-.463"/>
  </g>
  <defs>
    <clipPath id="aethir_svg__a">
      <path fill="#fff" d="M0 0h20v20H0z"/>
    </clipPath>
  </defs>
</svg>
