<svg xmlns="http://www.w3.org/2000/svg" fill="none" viewBox="0 0 96 96">
  <path fill="#1D1D1F" fill-rule="evenodd" d="M89.6 48c0 22.975-18.625 41.6-41.6 41.6S6.4 70.975 6.4 48 25.025 6.4 48 6.4 89.6 25.025 89.6 48Zm6.4 0c0 26.51-21.49 48-48 48S0 74.51 0 48 21.49 0 48 0s48 21.49 48 48ZM58.297 25.981a3.9 3.9 0 0 0-1.337 1.054L25.603 64.518a3.407 3.407 0 0 0-.807 2.227 3.447 3.447 0 0 0 3.413 3.414 3.61 3.61 0 0 0 2.668-1.242l25.437-30.405v27.971a3.63 3.63 0 0 0 7.05 1.475c.165-.474.23-.976.19-1.475V29.257a3.614 3.614 0 0 0-3.598-3.659 3.896 3.896 0 0 0-1.659.383Z" clip-rule="evenodd"/>
</svg>
