<svg xmlns="http://www.w3.org/2000/svg" viewBox="0 0 500 499.7">
  <path fill-rule="evenodd" d="M210.9 3.1C42.8 29.3-50.1 213.6 28.1 365.7c91.9 178.6 351.7 178.6 443.6 0 93.7-182.4-58.5-394-260.8-362.6zm94.8 36.2c151.5 40.1 212.3 225.3 114 347.4-125.4 155.9-377 73.9-387.3-126.3C24.9 114.3 164 1.8 305.7 39.3zm-6.6 101.3c-7.4 6.8-159.5 188.7-165.8 198.3-8.1 12.3 3.1 29.4 16.9 25.9 3.6-.9 31.6-32.3 74.6-83.7l68.9-82.2 1.3 79.8c1.4 88.4 1.1 87 18 87 17.3 0 17.1 1.8 17.1-115.4 0-102-.2-105.5-5-110.4-6.7-6.6-18.3-6.3-26 .7z" clip-rule="evenodd"/>
</svg>
