<svg xmlns="http://www.w3.org/2000/svg" enable-background="new 0 0 100 100" viewBox="0 0 100 100">
  <defs>
    <filter id="a" width="100" height="100" x="0" y="0" filterUnits="userSpaceOnUse">
      <feColorMatrix values="1 0 0 0 0 0 1 0 0 0 0 0 1 0 0 0 0 0 1 0"/>
    </filter>
  </defs>
  <mask id="b" width="100" height="100" x="0" y="0" maskUnits="userSpaceOnUse">
    <g filter="url(#a)">
      <path fill="#fff" fill-rule="evenodd" d="M0 0h100v100H0z" clip-rule="evenodd"/>
    </g>
  </mask>
  <path fill="#29b2ff" fill-rule="evenodd" d="M50 0C22.4 0 0 22.4 0 50s22.4 50 50 50 50-22.4 50-50S77.6 0 50 0" clip-rule="evenodd" mask="url(#b)"/>
  <path fill="#fff" fill-rule="evenodd" d="m35.7 34.6-23 30.6h4.7l5-6.7h16v-3.8H25.2l15.1-20.1zm51.6 30.6-23-30.6h-4.6l15.1 20.1H61.6v3.8h16l5 6.7zm-39.2 0h3.8V17.9h-3.8z" clip-rule="evenodd"/>
  <path fill="#fff" fill-rule="evenodd" d="M22 57.7h15.7v-2.2H22z" clip-rule="evenodd"/>
  <path fill="none" stroke="#fff" stroke-width="1.492" d="M22 57.7h15.7v-2.2H22z"/>
  <path fill="#fff" fill-rule="evenodd" d="M62.3 57.7H78v-2.2H62.3z" clip-rule="evenodd"/>
  <path fill="none" stroke="#fff" stroke-width="1.492" d="M62.3 57.7H78v-2.2H62.3z"/>
</svg>
