<svg xmlns="http://www.w3.org/2000/svg" fill="none" viewBox="0 0 20 20">
  <path fill="url(#alpha-finance_svg__a)" d="M10 20c5.523 0 10-4.477 10-10S15.523 0 10 0 0 4.477 0 10s4.477 10 10 10"/>
  <path fill="url(#alpha-finance_svg__b)" d="M10 3.944V7.91l.72 1.787-.72-.603v1.902l.023.023a14.1 14.1 0 0 0 4.223 3.527z"/>
  <path fill="url(#alpha-finance_svg__c)" d="M10 3.944V7.91l-.72 1.787.72-.603v1.902l-.023.023a14.1 14.1 0 0 1-4.223 3.527z"/>
  <path fill="#f5cc02" d="M10 13.456a.974.974 0 1 0 0-1.949.974.974 0 0 0 0 1.95"/>
  <defs>
    <linearGradient id="alpha-finance_svg__a" x1="20" x2="0" y1="8.75" y2="10" gradientUnits="userSpaceOnUse">
      <stop stop-color="#1940a9"/>
      <stop offset="1" stop-color="#122766"/>
    </linearGradient>
    <linearGradient id="alpha-finance_svg__b" x1="12.115" x2="12.115" y1="3.914" y2="14.671" gradientUnits="userSpaceOnUse">
      <stop offset=".553" stop-color="#f6f8fb"/>
      <stop offset="1" stop-color="#adb7d4"/>
    </linearGradient>
    <linearGradient id="alpha-finance_svg__c" x1="7.871" x2="7.871" y1="14.596" y2="4.039" gradientUnits="userSpaceOnUse">
      <stop offset=".177" stop-color="#f3f4f8"/>
      <stop offset="1" stop-color="#acb8d9"/>
    </linearGradient>
  </defs>
</svg>
