<svg xmlns="http://www.w3.org/2000/svg" fill="none" viewBox="0 0 20 20">
  <path fill="#f2e3ee" d="M10 19.677c5.345 0 9.677-4.332 9.677-9.677S15.345.323 10 .323.323 4.655.323 10 4.655 19.677 10 19.677"/>
  <path fill="#d9327c" d="M10 20c5.523 0 10-4.477 10-10S15.523 0 10 0 0 4.477 0 10s4.477 10 10 10"/>
  <path fill="#fff" fill-rule="evenodd" d="M9.613 5.274a.76.76 0 0 0-.242.387c-.065.21-.42 1.242-.871 2.533h3.016c-.451-1.29-.806-2.323-.87-2.533a.76.76 0 0 0-.243-.387c-.08-.064-.193-.113-.403-.113s-.306.049-.387.113M5.16 8.194h2.05c.5-1.468.935-2.694 1-2.92.129-.387.338-.726.661-.968.323-.241.71-.354 1.113-.354s.79.096 1.113.354c.322.242.532.581.661.968.08.226.5 1.436 1 2.92h2.08a.613.613 0 1 1 0 1.225H5.162a.6.6 0 0 1-.596-.613.61.61 0 0 1 .596-.612m0 2.419a.6.6 0 0 0-.596.613.61.61 0 0 0 .596.613h.807l-.645 1.87-.13.356a.61.61 0 0 0 .372.774.61.61 0 0 0 .774-.371l.129-.355.322-.936c.13-.387.29-.838.468-1.338h5.516c.162.484.323.951.468 1.338l.322.936.13.355a.6.6 0 0 0 .774.37.6.6 0 0 0 .37-.773l-.128-.355-.646-1.871h.807a.613.613 0 1 0 0-1.226zm9.08 3.629.566-.194zm0 0-.564.193zm-8.467 0 .565.193zm0 0-.564-.194z" clip-rule="evenodd"/>
</svg>
