<svg xmlns="http://www.w3.org/2000/svg" fill="none" viewBox="0 0 20 20">
  <circle cx="10" cy="10" r="10" fill="#fff"/>
  <path fill="#000" fill-rule="evenodd" d="M4.468 3.067c-.083.052-.073.081.05.147a.8.8 0 0 0 .306.083c.083 0 .336.07.563.154.464.174.723.456.852.926.055.202.081 1.995.081 5.59 0 5.91.005 5.848-.484 6.278-.166.146-.487.297-.893.421-.348.106-.633.225-.633.263 0 .095 6.157.094 6.216 0 .024-.04-.1-.107-.275-.15-1.163-.285-1.454-.464-1.672-1.03-.127-.328-.136-.704-.136-5.713V4.675l.165-.357c.26-.563.37-.587 2.584-.583 2.03.005 2.365.05 2.98.41.375.221.852.864 1.017 1.373.13.402.358.832.442.832.101 0 .087-.672-.04-1.899a84 84 0 0 1-.109-1.095c0-.03-.075-.122-.165-.205-.16-.15-.231-.152-5.454-.15-2.91 0-5.339.03-5.395.066" clip-rule="evenodd"/>
</svg>
