<svg xmlns="http://www.w3.org/2000/svg" fill="none" viewBox="0 0 20 20">
  <path fill="#3776e0" d="M10 20c5.523 0 10-4.477 10-10S15.523 0 10 0 0 4.477 0 10s4.477 10 10 10"/>
  <path fill="#fff" d="M8.134 2.79a3.73 3.73 0 0 1 3.732 0l3.445 1.989a3.73 3.73 0 0 1 1.866 3.232v.915h-2.036V8.01c0-.606-.323-1.166-.848-1.469l-3.445-1.989a1.7 1.7 0 0 0-1.696 0l-3.445 1.99a1.7 1.7 0 0 0-.848 1.47v.914H2.823V8.01c0-1.333.711-2.565 1.866-3.232z"/>
  <path fill="#fff" fill-rule="evenodd" d="M4.859 11.408v.58c0 .607.323 1.167.848 1.47l3.3 1.906v-2.262A3.46 3.46 0 0 1 10 6.33a3.458 3.458 0 0 1 1.043 6.755v2.249l3.25-1.877c.525-.303.848-.863.848-1.47v-.58h2.036v.58a3.73 3.73 0 0 1-1.866 3.233l-3.445 1.989a3.73 3.73 0 0 1-3.732 0L4.689 15.22a3.73 3.73 0 0 1-1.866-3.232v-.581zm6.563-1.62a1.422 1.422 0 1 1-2.844 0 1.422 1.422 0 0 1 2.844 0" clip-rule="evenodd"/>
</svg>
