<svg xmlns="http://www.w3.org/2000/svg" fill="none" viewBox="0 0 200 200">
  <path fill="#ffe81c" d="M87.01 3.484a25.96 25.96 0 0 1 25.98 0l64.02 36.997A26.01 26.01 0 0 1 190 63.003v73.994a26.01 26.01 0 0 1-12.99 22.522l-64.02 36.997a25.96 25.96 0 0 1-25.98 0l-64.02-36.997A26.01 26.01 0 0 1 10 136.997V63.003A26.01 26.01 0 0 1 22.99 40.48z"/>
  <path fill="#000" d="m99.98 120.88 32.87-19.869-32.87-15.255-32.83 15.255z" opacity=".6"/>
  <path fill="#000" d="M99.98 85.756V45.25l-32.83 55.762 32.83 19.868z" opacity=".45"/>
  <path fill="#000" d="m99.98 120.88 32.87-19.868L99.98 45.25z" opacity=".8"/>
  <path fill="#000" d="m99.98 127.233-32.83-19.828 32.83 47.345z" opacity=".45"/>
  <path fill="#000" d="m132.85 107.405-32.87 19.828v27.517z" opacity=".8"/>
</svg>
