<svg xmlns="http://www.w3.org/2000/svg" fill="none" viewBox="0 0 384 384">
  <mask id="b" width="384" height="384" x="0" y="0" maskUnits="userSpaceOnUse" style="mask-type:alpha">
    <path fill="url(#a)" d="M384 192C384 85.961 298.039 0 192 0S0 85.961 0 192s85.961 192 192 192 192-85.961 192-192Z"/>
  </mask>
  <g mask="url(#b)">
    <path fill="url(#c)" d="M384 192C384 85.961 298.039 0 192 0S0 85.961 0 192s85.961 192 192 192 192-85.961 192-192Z"/>
    <g stroke-miterlimit="10" opacity=".8">
      <path stroke="url(#d)" stroke-width="3.701" d="M158.007 406.578c-14.062 0-27.399-.888-38.591-1.761l-3.085-.24-3.081-.429c-1.347-.188-3.18-.386-4.948-.579-10.767-1.171-30.79-3.352-52.893-13.733l-3.433-1.617-3.201-1.795c-42.483-23.81-58.382-59.648-66.943-78.913-.545-1.225-1.206-2.714-1.828-4.086-4.322-8.845-7.055-16.817-9.372-24.116l-.515-1.632-.43-1.583c-6.166-21.915-7.724-40.839-4.9-59.554 2.832-18.791 9.792-35.887 21.885-53.781l6.27-10.239a20.67 20.67 0 0 0 2.656-6.724c4.78-23.692 15.628-40.475 20.958-48.491a149.434 149.434 0 0 1 7.222-28.464l.498-1.399.532-1.364c.086-.24.198-.58.404-1.198 2.394-7.213 8.007-24.09 22.383-41.813l5.398-6.54 5.501-4.97a127.507 127.507 0 0 1 49.259-27.806 139.06 139.06 0 0 1 31.382-5.549l1.029-.077 1.55-.073c1.841-.086 3.673-.129 5.462-.129a115.82 115.82 0 0 1 19.809 1.67 22.01 22.01 0 0 0 12.114-1.386 138.493 138.493 0 0 1 35.454-9.518c1.017-.146 1.905-.258 2.605-.348 1.922-.24 4.977-.6 8.668-.953 6.437-.613 16.306-1.347 27.004-1.347 20.895 0 38.878 2.708 54.98 8.274l1.369.476 1.337.502c35.532 13.427 53.619 32.184 66.625 48.73l.619.79 1.79 1.593a123.837 123.837 0 0 1 29.497 33.18l2.424 3.99 2.048 4.184c17.38 35.475 11.857 68.23 9.775 80.537l-.112.657a141.047 141.047 0 0 1-7.11 26.606 135.836 135.836 0 0 1-5.844 24.429 141.723 141.723 0 0 1-20.169 39.441 140.99 140.99 0 0 1-16.993 19.842 13.816 13.816 0 0 0-4.08 8.013 123.95 123.95 0 0 1-.933 5.577c-5.094 27.327-17.045 46.347-21.924 53.92l-14.749 21.182c-17.761 22.129-38.834 36.723-64.337 44.568l-6.18 1.935-6.672 1.163a131.45 131.45 0 0 1-23.126 2.001c-1.068 0-2.145 0-3.338-.031h-.344l-1.317.081-1.412.052h-.039a34.089 34.089 0 0 0-8.715 1.437c-16.474 5.039-35.106 7.408-57.893 7.408Z" opacity=".8"/>
      <path stroke="url(#e)" stroke-width="3.701" d="M158.005 392.025c-13.474 0-26.399-.857-37.26-1.716l-2.575-.199-2.575-.355c-1.605-.222-3.566-.429-5.458-.643-10.458-1.139-27.94-3.038-47.457-12.191l-2.866-1.348-2.665-1.497C19.66 353.048 5.792 321.829-2.5 303.172c-.592-1.33-1.317-2.965-1.995-4.451-3.863-7.921-6.394-15.238-8.531-21.972l-.43-1.356-.373-1.321c-5.484-19.49-6.9-36.123-4.454-52.352 2.446-16.23 8.608-31.227 19.358-47.036l8.033-13.118a21.935 21.935 0 0 0 2.875-7.574c4-22.285 14.526-38.085 19.31-45.277l.605-.91.224-.36c.098-.219.193-.429.283-.657.291-.948.579-1.866.858-2.742a130.776 130.776 0 0 1 6.63-26.799l.429-1.167.46-1.171c.145-.374.282-.777.686-1.987 2.278-6.866 7.02-21.121 19.426-36.415l4.502-5.45 4.57-4.133a110.546 110.546 0 0 1 42.71-24.108 122.811 122.811 0 0 1 27.665-4.862l.859-.068 1.287-.06c1.566-.073 3.128-.108 4.652-.108 6.727-.012 13.437-1.948 20.027-.595a24.927 24.927 0 0 0 15.122-1.61c8.874-3.913 20.821-5.476 34.497-7.18.974-.141 1.824-.248 2.485-.33a271.76 271.76 0 0 1 8.153-.897c6.051-.58 15.362-1.287 25.374-1.287 18.955 0 35.101 2.399 49.37 7.334l1.141.394 1.115.43c31.494 11.899 47.06 27.828 59.186 43.272.674.858 1.364 1.738 1.622 2.043l.288.257 2.298 2.047.311.318a106.37 106.37 0 0 1 26.219 29.21l2.017 3.326 1.716 3.484c14.95 30.515 10.264 58.275 8.265 70.131l-.107.631a124.256 124.256 0 0 1-6.927 25.181 118.423 118.423 0 0 1-5.371 23.246 125.35 125.35 0 0 1-17.839 34.9 121.815 121.815 0 0 1-18.061 20.383 17.02 17.02 0 0 0-5.559 10.895 112.443 112.443 0 0 1-1.324 9.041c-4.494 24.122-14.995 40.806-19.801 48.277l-11.946 17.366c-15.877 20.402-34.691 33.743-57.483 40.767l-5.148 1.614-5.578.964a114.702 114.702 0 0 1-20.169 1.748c-.983 0-1.987 0-3.068-.026h-.944s-.215 0-.653.031l-1.18.073-1.188.042-2.373.091c-3.137.11-6.244.651-9.235 1.604-15.174 4.846-32.708 7.132-54.387 7.132Z" opacity=".8"/>
      <path stroke="url(#f)" stroke-width="3.47" d="M158.007 374.86c-12.874 0-25.396-.836-35.935-1.656l-2.055-.159-2.052-.283c-1.858-.258-3.948-.485-5.969-.707-9.994-1.087-25.086-2.73-42.01-10.669l-2.297-1.076-2.145-1.199c-32.51-18.223-44.449-45.108-52.353-62.9-.674-1.523-1.438-3.239-2.146-4.83-3.433-6.983-5.724-13.644-7.677-19.809l-.343-1.081-.3-1.061c-4.802-17.062-6.072-31.407-4.004-45.135 2.098-13.921 7.565-26.897 17.195-40.844l1.146-1.656 1.24-1.592c.78-.996 1.532-1.979 2.27-2.94l4.832-8.861a28.538 28.538 0 0 0 3.162-9.308c3.073-19.881 12.65-34.244 17.07-40.869l.022-.035c.254-.377.58-.858.747-1.124l.944-1.506c.37-.807.858-1.88 1.287-3.004.43-1.343.94-3.004 1.498-4.72a112.583 112.583 0 0 1 5.982-24.808l.335-.935.365-.944c.308-.785.536-1.468.982-2.811 2.116-6.355 6.038-18.152 16.47-31.021l3.609-4.364 3.643-3.292a93.575 93.575 0 0 1 36.153-20.409 105.292 105.292 0 0 1 23.945-4.18l.687-.05 1.043-.048a82.77 82.77 0 0 1 3.862-.09 81.74 81.74 0 0 1 20.683 2.63 25.366 25.366 0 0 0 17.44-1.84c8.655-4.202 20.233-8.66 33.798-10.325a162.73 162.73 0 0 1 2.355-.318c1.687-.21 4.373-.528 7.635-.858 5.677-.545 14.405-1.193 23.743-1.193 17.015 0 31.325 2.09 43.77 6.39l.914.317.893.335c28.926 10.934 41.877 25.254 51.744 37.814 2.176 2.768 2.505 3.197 3.999 4.523l1.842 1.64.716.733c4.759 3.686 14.49 11.277 23.008 25.318l1.617 2.66 1.366 2.786c12.521 25.554 8.626 48.632 6.756 59.725l-.105.613a107.955 107.955 0 0 1-6.755 23.705l-.084.7a102.693 102.693 0 0 1-4.804 21.408 108.773 108.773 0 0 1-15.511 30.365 102.181 102.181 0 0 1-20.109 21.435 16.389 16.389 0 0 0-6.189 12.062 99.18 99.18 0 0 1-1.577 13.662c-3.89 20.917-13.02 35.417-17.68 42.656l-9.26 13.685c-13.96 18.636-30.506 30.699-50.505 36.83l-4.115 1.288-4.45.773a98.04 98.04 0 0 1-17.238 1.495c-.897 0-1.811 0-2.798-.027h-1.214c-.167 0-.678 0-1.716.063l-.945.06-.914.034-4.771.178c-3.343.115-6.651.71-9.823 1.771-13.899 4.681-30.296 6.883-50.919 6.883Z" opacity=".8"/>
      <path stroke="url(#g)" stroke-width="3.238" d="M158 357.695c-12.303 0-24.4-.813-34.605-1.604l-1.54-.12-1.541-.212c-2.107-.292-4.325-.535-6.475-.768-9.394-1.026-22.237-2.419-36.574-9.145l-1.717-.81-1.6-.896c-27.533-15.449-37.66-38.241-45.058-54.894-.768-1.716-1.566-3.524-2.356-5.253-3.145-6.324-5.15-12.398-6.814-17.594l-.258-.812-.223-.791c-8.05-28.611-5.025-48.681 10.793-71.579l.858-1.245.931-1.193c1.051-1.343 2.034-2.634 3.004-3.862 1.459-1.914 2.935-3.862 4.544-5.866a15.992 15.992 0 0 0 2.39-4.128l1.816-4.634a22.13 22.13 0 0 0 1.433-6.15c1.575-18.353 10.5-31.733 14.92-38.363l.026-.035c.322-.489.811-1.218.974-1.48l1.034-1.652.318-.429a78.822 78.822 0 0 0 2.575-5.918 245.96 245.96 0 0 1 2.107-6.612c0-.091 0-.189.034-.292a96.033 96.033 0 0 1 5.278-22.516l.253-.704.275-.708c.48-1.223.82-2.244 1.287-3.656 1.889-5.673 5.047-15.17 13.51-25.606l2.707-3.278 2.716-2.455c19.989-18.135 42.355-19.7 49.83-20.203l.515-.039.789-.038a65.555 65.555 0 0 1 3.03-.069 66.946 66.946 0 0 1 25.829 5.282 10.62 10.62 0 0 0 9.058-.429h.043c7.6-4.407 21.521-12.397 39.269-14.534.858-.129 1.648-.227 2.227-.3a251.33 251.33 0 0 1 7.119-.785c5.305-.507 13.449-1.112 22.109-1.112 15.076 0 27.554 1.785 38.152 5.45l.687.236.669.253c24.79 9.368 35.482 21.121 44.304 32.356 2.372 3.004 3.432 4.398 6.089 6.741l1.382 1.232 1.107 1.137.857.678c4.203 3.253 12.016 9.308 18.952 20.714L366.254 91l1.024 2.09c10.086 20.598 6.93 39.278 5.235 49.319l-.1.596a91.165 91.165 0 0 1-6.185 21.225l-.246.583c-.026.125-.06.309-.112.58-.134.691-.209 1.24-.301 1.939l-.102.79a85.575 85.575 0 0 1-4.038 18.083 92.186 92.186 0 0 1-13.179 25.825c-5.663 8.041-12.014 14.59-19.142 19.773a24.99 24.99 0 0 0-7.464 8.71 25.003 25.003 0 0 0-2.792 11.124 84.88 84.88 0 0 1-1.413 14.402c-3.287 17.719-10.846 29.717-15.554 37.029l-6.729 10.088c-12.05 16.836-26.266 27.585-43.376 32.823l-.906.285a34.013 34.013 0 0 1-4.432 1.071l-1.086.19a80.73 80.73 0 0 1-14.298 1.239c-.811 0-1.635 0-2.528-.021h-1.485c-.334 0-1.218 0-2.815.099l-.708.042-.691.026c-2.295.086-5.149.185-7.694.298-3.487.143-6.933.82-10.217 2.003-12.316 4.399-27.387 6.484-46.92 6.484Z" opacity=".8"/>
      <g stroke-width="3.007" opacity=".8">
        <path stroke="url(#h)" d="M158.008 340.53c-11.719 0-23.395-.786-33.274-1.554l-1.03-.079-1.025-.143c-2.365-.327-4.72-.586-6.99-.831-8.634-.938-19.38-2.111-31.129-7.62l-1.15-.541-1.064-.595c-22.555-12.646-30.983-31.632-37.763-46.888-.832-1.878-1.716-3.819-2.575-5.707-2.656-5.298-4.454-10.726-5.93-15.375l-.172-.536-.15-.528c-6.643-23.602-4.45-38.582 8.394-57.176l.57-.828.623-.794a330.35 330.35 0 0 0 3.124-4.064c3.351-4.394 6.574-8.625 11.393-13.77a6.684 6.684 0 0 0 1.79-4.133l.364-5.553-.142-1.819.065-1.888c.502-15.23 8.153-26.687 12.247-32.841.472-.712.965-1.446 1.257-1.914l.691-1.098.64-.859c.763-1.248 2.772-5.505 4.29-9.59.524-1.717 1.537-4.991 2.43-7.587.261-.829.287-1.03.502-2.807A79.4 79.4 0 0 1 88.4 94.6l.167-.472.184-.477c.636-1.622 1.078-2.948 1.588-4.484 1.618-4.866 4.055-12.2 10.552-20.212l1.811-2.188 1.794-1.622c14.002-12.715 29.257-15.123 39.552-15.813l.348-.03h.532a48.442 48.442 0 0 1 2.218-.052c8.793 0 19.311 4.218 24.834 6.767a11.023 11.023 0 0 0 8.462.305 81.799 81.799 0 0 0 10.024-4.411c7.025-4.077 18.68-10.81 33.154-12.496.798-.12 1.515-.21 2.107-.288 1.455-.18 3.75-.43 6.595-.725 4.935-.472 12.492-1.034 20.478-1.034 13.13 0 23.778 1.476 32.544 4.505l.455.16.431.166c20.705 7.823 28.944 16.814 36.869 26.902 2.573 3.253 4.394 5.579 8.174 8.96l.919.82.857.858a20.825 20.825 0 0 0 2.485 2.099c3.555 2.75 9.511 7.359 14.793 16.057l.807 1.33.687 1.395c7.654 15.624 5.196 30.197 3.725 38.904l-.099.592a74.185 74.185 0 0 1-5.102 17.47v.043a16.914 16.914 0 0 0-1.369 4.553 46.913 46.913 0 0 0-.46 2.961l-.104.798a69.404 69.404 0 0 1-3.273 14.753 74.607 74.607 0 0 1-10.854 21.285c-6.993 9.977-15.078 16.997-24.819 21.456a14.097 14.097 0 0 0-5.841 4.949 14.088 14.088 0 0 0-2.398 7.272c-.047 1.064-.065 1.94-.034 2.429.481 7.505 1.024 16.01-.648 24.772-2.683 14.493-8.819 24.234-13.432 31.387 0 0-21.164 29.455-40.423 35.333l-2.073.648-2.227.391a63.567 63.567 0 0 1-11.355.983c-.721 0-1.459 0-2.253-.021h-1.758c-.755 0-1.987 0-3.901.133l-.468.029h-.463c-7.368.266-14.333.514-16.268.893a11.923 11.923 0 0 0-3.004.883c-10.9 4.778-25.194 7.014-44.912 7.014Z" opacity=".8"/>
        <path stroke="url(#i)" d="M158.008 323.365c-11.131 0-22.396-.757-31.948-1.502l-.511-.037-.51-.073c-2.614-.36-5.094-.632-7.497-.893-8.128-.883-16.534-1.797-25.696-6.094l-.575-.275-.532-.295c-17.594-9.869-24.13-24.61-30.468-38.883-.9-2.025-1.832-4.12-2.793-6.202-2.146-4.239-3.665-8.787-5.03-13.095l-.085-.267-.077-.27c-5.283-18.787-3.94-28.378 6.007-42.766l.288-.429.309-.399a357.274 357.274 0 0 0 3.248-4.223c4.78-6.269 8.913-11.689 18.173-20.237l.026-.026a4.867 4.867 0 0 0 1.223-5.149l-1.67-4.759a34.65 34.65 0 0 1-.703-4.553v-.052l-.103-1.287.035-.944c.338-10.338 5.776-18.487 9.372-23.881.562-.858 1.098-1.643 1.514-2.313l.344-.549.386-.519c1.91-2.575 5.012-9.703 6.643-14.119.429-1.36 1.527-5.012 2.441-7.659a27.606 27.606 0 0 0 1.258-6.137 62.144 62.144 0 0 1 3.527-15.118l.086-.24.094-.236c.794-2.038 1.352-3.712 1.893-5.334 1.437-4.321 3.064-9.222 7.591-14.804l.91-1.1.888-.802c9.947-9.037 20.851-10.856 29.262-11.414h.45c.472 0 .944-.03 1.412-.03 8.183 0 14.474 3.355 18.637 5.578l.97.515.146.078a93.203 93.203 0 0 0 3.076 1.617 11.84 11.84 0 0 0 8.355.859c5.699-1.532 14.59-4.905 20.572-8.192l.125-.073c6.291-3.648 15.766-9.14 26.871-10.36.7-.11 1.369-.192 2-.274 1.287-.163 3.433-.43 6.055-.665 4.566-.43 11.539-.957 18.847-.957 11.191 0 20.002 1.167 26.935 3.562l.227.081.233.086c16.611 6.278 22.671 12.848 29.421 21.456 2.746 3.497 5.343 6.802 10.264 11.183l.46.43.428.428a36.065 36.065 0 0 0 4.292 3.695c2.952 2.287 6.998 5.42 10.635 11.402l.402.665.342.699c5.225 10.664 3.485 20.972 2.215 28.494l-.099.592a56.744 56.744 0 0 1-4.046 13.779 32.905 32.905 0 0 0-2.378 7.939 63.424 63.424 0 0 0-.621 3.978l-.105.815a53 53 0 0 1-2.51 11.424 57.516 57.516 0 0 1-8.521 16.735c-6.309 9.055-13.302 14.638-22.594 17.594a20.28 20.28 0 0 0-10.843 8.214l-.739 1.133-.815.931c-2.359 2.686-1.696 13.097-1.288 19.31.431 6.819.888 13.869-.384 20.508-2.095 11.349-6.957 19.011-11.309 25.748 0 0-16.16 23.314-30.742 27.742l-1.06.334-1.116.193a46.545 46.545 0 0 1-8.415.729h-4.012c-.991 0-2.575 0-4.986.167h-.464c-9.78.358-15.68.567-18.941 1.202a28.989 28.989 0 0 0-6.386 1.909c-8.732 3.872-20.928 5.682-38.316 5.682Z" opacity=".8"/>
      </g>
    </g>
  </g>
  <path fill="#fff" d="M322.554 132.067c-.805 4.7-1.745 6.979-2.847 9.617l-.003.006c-1.189 2.859-2.536 6.104-3.759 12.542-.486 2.576-.729 4.467-.94 6.133l-.013.103-.013.097c-.34 2.669-.567 4.466-1.651 7.665-.881 2.613-2.351 6.972-5.896 11.667-2.861 3.8-7.652 10.159-14.044 10.922-.553.037-1.716.095-2.189-.147-18.134-9.26-33.715-16.103-39.108-17.638-6.274-1.777-5.471-15.454-4.761-27.521.319-5.393.62-10.492.367-14.859-.881-15.233-3.579-31.907-16.845-40.035-7.92-4.852-18.137-6.275-27.899-6.295 1.81-.86 3.827-2.03 6.026-3.31l.067-.038c5.748-3.33 12.882-7.46 19.972-8.188 2.319-.229 4.597-.497 6.843-.746 14.293-1.618 26.64-3.009 39.665 1.45 5.903 2.026 18.014 8.782 21.141 15.056 2.199 4.427 5.914 7.88 13.325 14.769 3.858 3.589 6.4 5.676 8.26 7.203l.086.07c2.612 2.148 3.127 2.597 3.903 4.186 2.403 4.894 1.528 10.091.313 17.291Zm-66.345 62.497c1.044.356 1.436 1.625.836 2.551-1.886 2.908-4.039 6.823-6.601 11.573-1.248 2.324-2.43 4.517-3.421 6.229-3.513 6.033-3.799 11.112-4.023 15.188-.241 4.263-.457 6.221-3.004 7.92-2.103 1.41-4.256 1.88-19.188 4.153-2.605.404-3.762.909-4.778 1.353-.164.07-.326.14-.495.21-1.035.426-2.064-.466-2.007-1.583.107-2.082.174-4.646.183-7.82v-.647c.078-2.926-.046-5.301-.151-7.215-.196-3.812-.221-5.418.796-7.077 1.247-2.006 2.221-2.618 3.819-3.632 2.234-1.402 5.296-3.335 9.828-9.564 2.409-3.297 2.944-5.087 3.277-6.633.143-.64.196-.88 2.051-2.286 1.96-1.488 7.933-6.013 15.579-4.728 2.024.343 4.578 1.08 7.299 2.008Zm-59.029 68.964c-.326.424-.705.62-1.254.648-1.562.063-2.658-.321-3.383-1.196-1.541-1.874-1.333-5.641-.974-7.842l6.314-1.684c.494 3.343.728 8.212-.703 10.074Zm.511-22.78c-.106.92-.221 1.957-.216 3.041.007.404.012.811.025 1.207.012 1.032.052 2.67-.09 3.416-1.973.717-3.657.717-5.87.68-.033-.64.007-1.594.032-2.239.013-.497.04-.991.045-1.463.008-.522 0-1.039 0-1.553-.007-1.215-.025-3.205.274-3.792a22.589 22.589 0 0 0 1.854-.367c1.305-.281 3.009-.64 4.094-.476a20.357 20.357 0 0 1-.148 1.546Zm-11.693 20.834c-.306 3.237-1.305 7.239-4.341 7.847-1.365.28-2.025-.13-2.442-.522-2.05-1.899-2.377-7.638-2.091-11.745 1.366.025 3.155-.281 5.276-.693 1.292-.256 2.58-.542 3.603-.778.119 1.521.204 3.689-.005 5.891Zm-1.427-11.616-6.848 2.402c.346-2.658.81-6.399.973-8.887.118-1.749.595-2.286.731-2.401.045-.04.138-.123.391-.123.04 0 .078.007.123.007l.143.02 4.329-.235c.184 2.035.184 6.502.158 9.217Zm-11.069-2.13c-.386 1.031-.843 3.95-1.129 6.005l-8.58-.261c.484-2.657 1.154-5.36 1.892-7.516.746-2.141 1.549-3.747 2.287-4.199.86-.516 2.755-.632 3.917.359 1.887 1.609 2.409 3.451 1.613 5.612Zm-3.205 26.262c-.665.909-1.403 1.371-2.319 1.468-.934.104-1.659-.105-2.239-.648-2.695-2.487-2.474-10.635-2.376-14.553 3.558-.811 7.398-1.501 9.22-1.606.273 3.28.351 11.747-2.286 15.339Zm-11.193-20.747c-.419 1.117-.823 2.174-1.129 3.107-.999.314-4.048.04-7.163-.647l2.141-13.502c3.518-.933 7.599-1.234 8.585-.188 1.3 1.38-1.31 8.287-2.434 11.23Zm-3.887 22.81c-1.664 2.051-4.158 3.009-7.639 2.973-2.409-.042-3.27-.956-3.702-1.641-1.932-3.061-.04-10.276 1.855-14.887l11.622.697c.118.813.216 1.795.261 2.869.128 3.278-.284 7.364-2.397 9.989Z"/>
  <path fill="#fff" d="M251.264 178.162c-10.462-2.964-9.561-18.262-8.691-33.049.309-5.232.6-10.179.362-14.224-.804-13.84-3.13-28.913-14.262-35.737-11.973-7.322-31.56-5.653-43.645-4.115-.012.001-.022.008-.033.01-.005 0-.009 0-.014.002-4.427 1.341-8.567 2.211-11.778 2.04-7.13-.368-12.678-3.37-17.565-6.005-3.812-2.066-7.137-3.85-10.269-3.85-.165 0-.339 0-.509.008-9.369.607-13.675 2.896-17.588 6.387-.983.87-2.183 3.393-6.11 14.711-1.983 5.719-2.349 8.849-2.718 11.89-.331 2.779-.668 5.637-2.146 9.901-1.029 2.941-1.787 5.478-2.522 7.925-1.938 6.5-3.468 11.62-8.068 17.708-.54.72-1.21 1.779-1.983 2.986-1.044 1.644-2.334 3.687-4.038 6.051-1.202 1.666-3.963 7.903-3.812 9.802.226 3.024 1.21 4.902 2.334 7.093 1.12 2.16 2.394 4.607 2.627 7.985l.038.547c.412 5.358-.354 8.046-10.545 17.151-6.516 5.83-11.146 11.448-14.268 15.57-.275.363.083.904.538.868.105-.016.21-.023.308-.023.196-.015.392-.023.585-.023.196 0 .392.008.585.015.196.008.384.023.577.053 2.465.281 4.867 1.323 6.602 3.12.301.312.77.397 1.173.236 1.659-.691 3.483-.578 5.225-.415 2.072.193 4.165.797 5.593 2.083.543.49 1.29.749 2.006.602 1.622-.332 3.313-.277 4.884.294a8.2 8.2 0 0 1 2.983 1.921c.771.778 2.077.934 3.03.391a7.105 7.105 0 0 1 1.237-.555c2.213-.751 4.66-.324 6.808.449 1.059.382 2.169.721 3.122 1.358 1.575 1.048 2.599 2.534 3.286 4.207.528 1.285 2.286 1.724 3.413.913 1.355-.975 2.473-1.101 3.601-.6.466.21.83.477 1.109.799.808.931 2.106 1.86 3.306 1.576 3.341-.79 7.387-.266 10.356 1.324 1.096.577 2.174 1.454 2.962 2.783l.002.004c.001.005.008.002.009-.003l.09-.59a.706.706 0 0 1 .489-.568l.719-.223c1.697-.54 10.342-3.032 13.705.509.146.146.399.16.539.008.458-.501.83-.777 1.067-.914 2.191-1.328 5.946-1.41 8.445.728.503.422 1.318.269 1.697-.267.234-.331.499-.622.795-.872.879-.758 1.99-1.12 3.22-1.045l4.751-.255c1.194-.066 4.906-.318 6.076-.566.089-.019.18-.035.273-.049.494-.075 1.082-.203 1.697-.331 2.303-.502 4.916-1.067 7.062-.076 2.062.954 1.801 3.303 1.553 5.373-.098.841-.203 1.719-.196 2.553.015.389.023.78.03 1.179.03 1.785.068 3.435-.285 4.702l-.001.008.001.006.217.981c.227.964 1.258 1.508 2.1.987 1.605-.991 3.257-2.242 3.784-2.983a.917.917 0 0 0 .115-.222c.074-.199.203-.611.346-1.444.293-1.764.622-5.35.652-12.633 0-.384 0-.66.008-.788.06-2.703-.045-4.871-.151-6.786-.195-3.948-.354-7.054 1.607-10.217 1.907-3.076 3.759-4.241 5.538-5.368 2.07-1.297 4.407-2.77 8.339-8.166 1.93-2.658 2.169-3.729 2.357-4.585.427-2.005 1.089-3.212 4.068-5.463 2.424-1.832 9.803-7.424 19.756-5.75 3.264.555 8.555 2.296 13.777 4.353a.02.02 0 0 0 .008.001l.005.001c.188.055.381.12.559.211.081.042.164.084.251.118 4.514 1.803 8.907 3.809 11.815 5.442.828.465 1.881.188 2.484-.545.899-1.09 1.873-1.754 2.918-2.381.418-.256.742-.449 1.05-.712.98-.832.969-2.577-.172-3.164-13.898-7.139-26.924-11.129-31.255-12.361Zm-99.701 3.22c-3.235 14.164-25.176 29.731-35.149 29.731h-.196a4.455 4.455 0 0 1-.517-.052 5.826 5.826 0 0 1-.608-.136c-.105-.03-.218-.068-.331-.098-1.809-.57-4.316-1.96-6.214-3.827-1.305-1.282-2.333-2.793-2.657-4.422l-.181-.856c-.54-2.409-1.21-5.418.916-10.342.294-.66.555-1.277.796-1.839.075-.188.158-.377.233-.555.226-.532.427-1.021.607-1.463a94.847 94.847 0 0 0 .976-2.53c.608-1.704.683-2.341.766-3.001.075-.517.151-1.15.361-2.05.623-2.658.946-4.909 1.233-6.914.509-3.604.953-6.718 2.896-9.577a7.86 7.86 0 0 1 1.111-1.32c.143-.136.279-.264.427-.392.151-.128.301-.24.449-.353a9.335 9.335 0 0 1 1.523-.871c.189-.083.377-.166.563-.234.384-.143.788-.263 1.209-.369 1.787-.434 3.895-.501 6.32-.195 2.65.211 5.104.712 7.28 1.32a46.257 46.257 0 0 1 4.811 1.636c.143.053.278.106.414.166.263.105.517.21.765.324.377.158.72.308 1.044.449.427.196.818.368 1.165.524l.323.151a23.756 23.756 0 0 1 3.971 2.266c.554.406 1.074.818 1.538 1.237.158.136.309.279.449.429.151.143.294.286.427.43 4.216 4.439 4.008 9.573 3.28 12.733Zm10.169-53.683-.427 2.568c-.984 5.787-3.242 13.72-11.574 15.762-8.016 1.96-9.916 2.38-15.62 2.636-.128.014-.263.014-.399.014-4.166 0-12.182-2.627-13.602-9.157-.908-4.204.946-7.25 4-12.302.51-.833 1.06-1.727 1.644-2.725 4.038-6.801 5.629-11.725 6.907-15.673 1.244-3.857 2.281-7.047 4.946-9.69a14.822 14.822 0 0 1 3.752-2.71 16.643 16.643 0 0 1 2.386-.968 19.386 19.386 0 0 1 5.863-.894c3.887 0 7.769 1.12 10.538 3.34 1.244 1 3.016 2.994 4.045 8.879.53 3.032-.371 8.603-2.459 20.92Zm59.439 16.468c-2.868 4.924-4.437 7.634-6.913 9.667-4.917 4.038-10.651 5.06-15.372 5.06-3.393 0-6.274-.525-7.97-.834-4.879-.893-13.961-2.544-16.985-9.712-.592-1.418-.6-2.319-.6-3.46 0-1.127 0-3.024-.524-7.537l-.031-.301c-.24-2.043-.509-4.354.076-7.318l.068-.354c1.711-8.705 2.175-10.036 2.559-10.786a3.494 3.494 0 0 1 4.698-1.508 3.496 3.496 0 0 1 1.569 4.562c-.173.495-.66 2.349-1.983 9.082l-.068.354c-.376 1.9-.21 3.341.008 5.165l.03.309c.57 4.901.57 7.122.57 8.324 0 .212 0 .445.007.583.003.053.029.125.045.175.508 1.204 1.585 2.148 2.923 2.895 1.151.643 2.39-.484 2.143-1.78-1.441-7.548-1.293-16.213 1.57-21.614.96-1.836 2.735-4.84 4.422-7.645.005-.007.011-.014.015-.022.004-.009.01-.016.014-.023.171-.283.342-.562.51-.845.143-.241.286-.471.419-.697a343.994 343.994 0 0 1 1.998-3.265 17.892 17.892 0 0 1 .384-.625c.12-.196.226-.377.324-.532.045-.075.09-.143.128-.211.022-.03.037-.06.052-.083.053-.09.106-.173.151-.241.09-.143.158-.248.196-.316a.12.12 0 0 1 .008-.016c.008-.015.025-.037.033-.052l.014-.022c.415-.605.827-1.187 1.232-1.746.912-1.261-.155-2.872-1.573-2.232-2.435 1.099-4.075 2.35-4.435 2.635a3.475 3.475 0 0 1-4.894-.554 3.502 3.502 0 0 1 .563-4.909c1.794-1.411 11.303-8.347 22.691-5.09 8.204 2.334 12.506 8.603 14.127 10.96 1.305 1.914 5.308 7.724 5.18 15.838-.096 6.186-2.678 10.638-7.379 18.721Z"/>
  <path fill="#fff" d="M147.205 101.738c-.582 1.411-1.28 3.16-2.03 5.06-1.749 4.399-3.735 9.383-4.688 11.19-1.647 3.122-2.926 5.092-3.95 6.68-1.17 1.822-2.103 3.265-2.808 5.275-1.235 3.519-1.456 7.452-.653 11.728-2.181-.241-5.752-1.744-6.156-3.637-.301-1.41.575-2.951 3.155-7.195.517-.848 1.071-1.769 1.678-2.793 4.435-7.468 6.229-13.024 7.549-17.088 1.423-4.419 2.096-6.274 4.362-7.822 1.014-.705 2.249-1.154 3.541-1.398Zm-4.323 156.636c-2.416 4.937-5.426 9.493-7.3 11.753-1.554-4.198-4.252-13.816-3.539-21.553.02-.223.046-.444.078-.66.286-2.389.921-4.582 2.051-6.339.745-1.154 2.808-1.86 5.152-1.86 1.729 0 3.611.379 5.23 1.248h.012c.869.464 2.051 1.402 2.174 4.133.178 3.686-1.579 8.643-3.858 13.278Z"/>
  <path fill="#fff" d="M275.308 203.043c.188.151.305.379.198.595-.721 1.45-1.588 2.467-2.609 3.667-1.233 1.468-2.644 3.134-3.958 5.732-1.868 3.681-2.466 7.039-2.779 15.637-.371 10.101.018 15.775.313 19.914.28 3.995.452 6.404-.261 10.301-1.437 7.86-4.799 13.066-9.058 19.654-5.327 8.239-10.839 16.753-19.966 19.469-.848.261-.876.261-3.257.269-2.071 0-5.517.006-12.039.248-11.923.432-17.903.646-23.02 1.631-5.368 1.039-8.169 2.181-10.884 3.278-2.45.99-4.766 1.933-9.206 2.845-2.645.535-6.6 1.118-20.076 1.136-14.006.026-22.461.034-33.626-1.238-15.319-1.75-23.009-2.626-28.115-5.353-12.047-6.426-17.133-17.982-25.548-37.125l-.044-.102c-.104-.238.187-.467.41-.334.4.248.816.452 1.255.598a7.095 7.095 0 0 0 3.526.295c.143-.026.274-.057.399-.112.024-.008.048-.021.072-.031a.277.277 0 0 1 .38.135c.534 1.476 1.385 2.788 2.813 3.545 1.43.747 3.057.805 4.648.792a47.771 47.771 0 0 0 4.924-.314c.865-.091 1.75.332 2.082 1.137 1.495 3.625 3.349 6.251 6.131 6.637.151.021.347.045.595.045.543 0 1.34-.136 2.428-.779 1.342-.791 3.364-.292 4.385.886.6.695 1.258 1.23 1.838 1.695 2.866 2.944 9.833 4.355 15.682 4.355 3.193 0 6.053-.418 7.737-1.241 2.41-1.168 2.41-2.962 2.292-3.689-.205-1.3-.39-2.591-.549-3.871-.019-.151.214-.212.275-.07.351.762.778 1.716 1.92 1.899.123.013.261.041.419.041 1.631 0 4.167.531 4.605 2.101.222.799.538 1.549.966 2.228.979 1.549 2.972 3.396 6.922 3.461h.306c4.537 0 8.038-1.484 10.4-4.415.153-.19.299-.384.439-.582.849-1.194 3.37-1.246 4.449-.253 1.215 1.123 2.744 1.703 4.448 1.703.273 0 .549-.013.835-.045 2.03-.217 3.787-1.293 5.1-3.127.858-1.199 1.485-2.672 1.943-4.265.135-.471.779-.609 1.138-.28.869.802 2.259 1.651 4.264 1.651.489 0 1.019-.052 1.581-.17 3.94-.791 5.902-4.054 6.831-7.735.031-.122.21-.156.291-.06.999 1.215 2.841 2.618 6.046 2.618.163 0 .334 0 .502-.008 1.696-.078 3.127-.823 4.158-2.155 1.213-1.581 1.715-3.895 1.852-6.248.05-.867.607-1.628 1.402-1.975 3.333-1.453 7.266-4.403 8.439-6.429l.024-.043c.361-.634.927-1.152 1.643-1.292 2.475-.483 3.583-.962 4.594-1.403.848-.371 1.529-.665 3.433-.961 15.148-2.311 18.104-2.821 21.382-5.007 4.904-3.27 5.152-7.769 5.393-12.123.208-3.682.444-7.86 3.303-12.764 1.039-1.79 2.238-4.023 3.513-6.385 2.179-4.044 5.207-9.668 7.425-12.756.504-.701 1.429-.921 2.223-.582 5.133 2.189 9.474 4.362 10.423 5.124Z"/>
  <path fill="#fff" d="M128.198 248.098c-.599 5.237-.966 12.234-.118 21.35.241 2.57.575 5.242.992 7.943-.718.392-2.861.943-6.673.881-5.479-.11-10.812-1.487-12.413-3.219l-.248-.224c-1.333-1.071-2.206-1.777-2.332-3.689-.04-.645.236-1.285.828-2.189.327-.509.758-1.094 1.293-1.821.921-1.235 2.063-2.776 3.232-4.759 3.428-5.793 4.728-7.583 6.38-9.841.13-.184.268-.367.411-.555a122.51 122.51 0 0 0 3.832-5.544 112.783 112.783 0 0 1 3.22-4.663c1.463-1.99 2.422-3.069 3.037-3.656-.091.901-.294 2.168-.49 3.338-.291 1.796-.657 3.998-.951 6.648Zm-2.512-81.415c-.032.045-.072.09-.105.138-.713.986-1.529 2.103-2.5 4.276-2.612 5.805-2.662 9.09-2.702 11.732-.026 1.386-.041 2.488-.42 3.775-.261.848-.685 1.822-1.174 2.944-1.541 3.526-3.551 8.149-2.65 14.37-1.248-.6-3.155-1.973-3.421-2.703a25.699 25.699 0 0 0-.216-1.007c-.431-1.939-.717-3.204.517-6.045 3.245-7.484 3.644-9.258 3.898-11.296.052-.444.105-.79.236-1.353.685-2.951 1.044-5.478 1.337-7.508.437-3.082.731-5.12 1.77-6.653.378-.567 1.45-.861 2.984-.861.607 0 1.292.045 2.037.151l.176.012c.075.008.156.015.233.028Zm-4.283 73.815c-.176-1.794-.489-3.591-1.142-5.283-.045-.085-.241-.517-.281-.599-.118-.216-.253-.419-.379-.633-.007-.007-.013-.007-.013-.012-.007-.013-.012-.013-.012-.02-.073-.078-.138-.156-.208-.229a4.957 4.957 0 0 0-.334-.301.183.183 0 0 0-.058-.053 1.544 1.544 0 0 0-.216-.155c-.138-.073-.268-.151-.404-.221a1.622 1.622 0 0 0-.228-.098s-.008 0-.008-.007c-.02-.008-.04-.013-.057-.021-.021-.012-.033-.02-.046-.025-.02-.007-.032-.012-.045-.012-.012 0-.012-.008-.012-.008-.04-.02-.065-.025-.086-.032-1.044-.384-2.103-.803-3.212-.967-.007 0-.025-.007-.04-.007h-.025c-.123 0-.379-.025-.392-.025a4.335 4.335 0 0 0-.456 0c-.073 0-.143 0-.209.007h-.058c-.025 0-.057.008-.09.008-.012.012-.032.012-.04.012h-.012c-.249.073-.51.139-.758.216-.106.053-.221.106-.326.171-.091.052-.184.118-.274.163-.008.008-.02.02-.033.02l-.02.02c-.118.118-.241.228-.359.347-.04.04-.15.175-.228.273-.02.013-.033.025-.033.038l-.012.012c-.008.008-.008.013-.02.02-.008.008-.008.013-.013.013-.032.058-.065.105-.078.13-.419.653-.843 1.3-1.28 1.945a248.875 248.875 0 0 1-3.081 4.598c-.954 1.378-1.908 2.755-2.854 4.133a497.24 497.24 0 0 0-1.573 2.304c-.091.13-.176.261-.261.392.62.117 1.239.24 1.867.358 1.403.256 2.801.502 4.223.698 2.932.399 5.911.582 8.879.477.144-.008.286 0 .419.025a158.276 158.276 0 0 0 2.625-3.86c.595-.908 1.162-1.749 1.697-2.527a2.977 2.977 0 0 1-.444-1.285Zm-10.429 12.113c-.254 2.258-2.781 8.108-6.726 13.678-3.302 4.655-5.308 5.784-5.707 5.823-1.593-.219-3.167-4.164-4.414-8.074-.502-1.586-.954-3.168-1.333-4.493-.855-2.977-1.011-6.967-.86-9.474 3.33 1.847 9.18 2.344 17.394 2.377h.025c.542.057 1.079.118 1.621.163Zm-5.851-18.597v.013c-.041.052-.073.11-.111.163-1.41 2.075-2.833 4.141-4.256 6.208a363.956 363.956 0 0 0-2.194 3.2c-.398.582-.933 1.222-1.397 1.913-1.17-.274-2.337-.542-3.494-.869a29.63 29.63 0 0 1-2.795-.933 5.326 5.326 0 0 1-.53-.221 2.345 2.345 0 0 0-.627-.791c.007-.007.007-.025.012-.032.334-.68.673-1.366 1.007-2.043.632-1.247 1.267-2.487 1.972-3.689 1.255-2.169 2.768-4.374 4.892-5.78.105-.078.22-.151.333-.221.823-.517 1.647-.881 2.658-1.006.118-.013.828-.008 1.162.02.057 0 .105.008.138.008h.007c.026.007.073.02.143.045.249.078.497.13.746.216.085.04.163.077.248.123.216.13.437.248.64.411-.326-.248.452.555.452.497.627.868.818 1.594.994 2.768Zm-11.173-5.901c-2.612 2.148-4.511 5.009-6.097 7.985-.889 1.652-1.692 3.336-2.528 5.015-.085.17-.17.333-.268.502-.79-.171-1.581-.4-2.352-.645a20.657 20.657 0 0 1-2.421-.926 31.736 31.736 0 0 1-1.077-.535c.783-1.483 1.717-2.906 2.605-4.289 1.255-1.952 2.612-3.872 4.088-5.674.555-.685 1.142-1.436 1.92-1.887.796-.47 1.757-.359 2.67-.306.966.06 2.005.085 2.919.451.188.08.391.206.542.309Zm-4.139 35.055c-.13.109-.24.23-.339.365-.09.026-.183.047-.24.06a44.3 44.3 0 0 1-1.9.152c-1.215.078-2.45.131-3.677.086-.685-.026-1.305-.13-1.586-.567-.451-.687-.587-1.881-.75-2.789a45.308 45.308 0 0 1-.34-13.62 40.96 40.96 0 0 0 7.188 1.888c-.53 4.068.372 10.041.901 11.87.246.851.495 1.711.743 2.555Zm-7.501-36.532a70.003 70.003 0 0 0-5.63 8.023c-.679 1.137-1.45 2.311-2.017 3.526a8.893 8.893 0 0 1-2.336-1.039c-.6-.372-1.182-.783-1.75-1.215-.142-.118-.534-.424-.777-.62-.058-.045-.11-.09-.171-.123.188-.534.535-1.129.725-1.528.432-.946.914-1.875 1.418-2.781.959-1.696 2.03-3.355 3.245-4.883.452-.562.881-1.288 1.581-1.496.64-.183 1.483-.098 1.998-.008 1.528.297 2.723.989 3.714 2.144ZM66.4 237.674c.033-.132.203-.149.282-.038.54.752 1.281 1.407 2.075 2.026.356.27.71.541 1.069.795.056.04.082.109.066.176-.83 3.447-1.405 7.1-1.424 10.707 0 .2-.302.242-.348.049-1.029-4.306-2.366-11.187-1.72-13.715Zm10.11 7.649c-.42 3.081-.62 6.171-.485 9.277.066 1.704.249 3.396.477 5.08 0 .013 0 .025.008.033v.007a3.052 3.052 0 0 0-1.142-.04c.078-.025-.123-.013-.209-.013h-.025c-.057-.007-.143-.012-.17-.02-.432-.105-.47-.15-.811-.366-.444-.286-.913-.811-1.227-1.345-.828-1.436-1.011-3.18-1.077-4.806-.123-3.192.15-6.38.745-9.506.51.208.954.399 1.692.717.73.319 1.488.633 2.226.974v.008h-.002Z"/>
  <defs>
    <linearGradient id="d" x1="-36.57" x2="403.452" y1="-33.959" y2="427.868" gradientUnits="userSpaceOnUse">
      <stop offset=".206" stop-color="#89D0FF"/>
      <stop offset=".398" stop-color="#EBBF9A"/>
      <stop offset=".602" stop-color="#EB8280"/>
      <stop offset=".841" stop-color="#A281FF"/>
    </linearGradient>
    <linearGradient id="e" x1="-19.438" x2="386.211" y1="-14.181" y2="413.312" gradientUnits="userSpaceOnUse">
      <stop offset=".206" stop-color="#89D0FF"/>
      <stop offset=".398" stop-color="#EBBF9A"/>
      <stop offset=".602" stop-color="#EB80DA"/>
      <stop offset=".841" stop-color="#A281FF"/>
    </linearGradient>
    <linearGradient id="f" x1="-2.234" x2="369.037" y1="2.98" y2="396.132" gradientUnits="userSpaceOnUse">
      <stop offset=".206" stop-color="#89D0FF"/>
      <stop offset=".398" stop-color="#EBBF9A"/>
      <stop offset=".602" stop-color="#EB8280"/>
      <stop offset=".841" stop-color="#A281FF"/>
    </linearGradient>
    <linearGradient id="g" x1="14.93" x2="351.748" y1="20.208" y2="378.917" gradientUnits="userSpaceOnUse">
      <stop offset=".206" stop-color="#89D0FF"/>
      <stop offset=".398" stop-color="#EBBF9A"/>
      <stop offset=".602" stop-color="#EB80E7"/>
      <stop offset=".841" stop-color="#A281FF"/>
    </linearGradient>
    <linearGradient id="h" x1="32.102" x2="334.529" y1="37.368" y2="361.603" gradientUnits="userSpaceOnUse">
      <stop offset=".206" stop-color="#89D0FF"/>
      <stop offset=".398" stop-color="#EBBF9A"/>
      <stop offset=".602" stop-color="#EB80D3"/>
      <stop offset=".841" stop-color="#A281FF"/>
    </linearGradient>
    <linearGradient id="i" x1="49.242" x2="317.257" y1="54.526" y2="344.42" gradientUnits="userSpaceOnUse">
      <stop offset=".206" stop-color="#89D0FF"/>
      <stop offset=".398" stop-color="#EBBF9A"/>
      <stop offset=".602" stop-color="#A280EB"/>
      <stop offset=".841" stop-color="#A281FF"/>
    </linearGradient>
    <radialGradient id="a" cx="0" cy="0" r="1" gradientTransform="rotate(90 -10.06 202.06) scale(215.708)" gradientUnits="userSpaceOnUse">
      <stop offset=".167" stop-color="#073183"/>
      <stop offset="1" stop-color="#0054F9"/>
    </radialGradient>
    <radialGradient id="c" cx="0" cy="0" r="1" gradientTransform="rotate(90 -10.06 202.06) scale(215.708)" gradientUnits="userSpaceOnUse">
      <stop offset=".167" stop-color="#073183"/>
      <stop offset="1" stop-color="#0054F9"/>
    </radialGradient>
  </defs>
</svg>
