<svg xmlns="http://www.w3.org/2000/svg" fill="none" viewBox="0 0 20 20">
  <path fill="url(#apecoin_svg__a)" d="M20 10c0-5.523-4.477-10-10-10S0 4.477 0 10s4.477 10 10 10 10-4.477 10-10"/>
  <path fill="#fff" d="M16.8 6.878c-.042.245-.09.364-.148.501a3 3 0 0 0-.196.654 5 5 0 0 0-.05.32v.01a1.7 1.7 0 0 1-.086.399 2 2 0 0 1-.308.608c-.149.198-.398.529-.731.568a.3.3 0 0 1-.114-.007c-.944-.482-1.756-.839-2.037-.919-.327-.092-.285-.805-.248-1.433.017-.281.032-.547.02-.774-.047-.793-.187-1.662-.878-2.085-.413-.253-.945-.327-1.453-.328.094-.045.2-.106.314-.173l.003-.002c.3-.173.671-.388 1.04-.426l.357-.039c.744-.084 1.387-.157 2.066.076.307.105.938.457 1.1.784.115.23.309.41.695.77.2.186.333.295.43.374l.004.004c.137.112.163.135.204.218.125.255.08.525.016.9m-3.455 3.256a.09.09 0 0 1 .043.132c-.098.152-.21.356-.344.603-.065.121-.126.235-.178.325-.183.314-.198.578-.21.79-.012.223-.023.325-.156.413-.11.074-.222.098-1 .216a1 1 0 0 0-.248.07l-.026.012c-.054.022-.107-.024-.104-.083q.008-.16.01-.407v-.034a4 4 0 0 0-.009-.375c-.01-.199-.011-.283.042-.369.065-.104.115-.136.199-.19.116-.072.275-.173.511-.497.126-.172.154-.265.171-.346.008-.033.01-.046.107-.119.102-.077.413-.313.811-.246.106.018.239.056.38.104m-3.074 3.592a.08.08 0 0 1-.065.034q-.122.005-.177-.062c-.08-.098-.069-.294-.05-.409l.329-.087c.025.174.037.427-.037.524m.027-1.186a1 1 0 0 0-.012.158l.002.063c0 .054.002.14-.005.178a.8.8 0 0 1-.306.035c-.001-.033 0-.083.002-.116l.002-.076V12.7c0-.063-.001-.167.015-.198q.045-.006.096-.019a.7.7 0 0 1 .213-.025c0 .022-.004.055-.007.08m-.609 1.086c-.016.169-.068.377-.226.409-.071.014-.106-.007-.127-.027-.107-.1-.124-.398-.11-.612.072.001.165-.015.276-.036l.187-.04c.006.078.01.191 0 .306m-.074-.604-.357.124a9 9 0 0 0 .05-.463c.007-.09.032-.119.039-.125q.002-.005.02-.006h.006l.008.001.225-.012c.01.106.01.339.009.48m-.577-.111c-.02.054-.044.206-.059.313l-.447-.014c.025-.138.06-.279.099-.391s.08-.195.119-.219a.2.2 0 0 1 .204.019q.146.125.084.292m-.167 1.368q-.051.07-.12.076-.073.009-.117-.033c-.14-.13-.13-.554-.124-.758.185-.043.385-.079.48-.084.014.17.018.612-.119.799m-.583-1.081q-.034.09-.059.162c-.052.017-.21.002-.373-.034l.111-.703c.184-.048.396-.064.448-.01.067.072-.069.432-.127.585m-.202 1.188q-.128.16-.398.155c-.126-.002-.17-.05-.193-.085-.1-.16-.002-.535.096-.776l.606.037q.01.064.013.15c.007.17-.014.383-.124.52"/>
  <path fill="#fff" d="M13.087 9.28c-.545-.155-.498-.952-.453-1.722.016-.273.031-.53.019-.74-.042-.722-.163-1.507-.743-1.862-.623-.381-1.644-.295-2.273-.214h-.002c-.231.07-.447.115-.614.106-.371-.019-.66-.175-.915-.312-.198-.108-.372-.2-.535-.2h-.026c-.488.031-.712.15-.916.332-.051.046-.114.177-.318.766-.104.298-.123.461-.142.62a2.2 2.2 0 0 1-.112.515c-.053.154-.093.286-.131.413-.101.339-.18.605-.42.922-.028.038-.063.093-.104.156a6 6 0 0 1-.21.315c-.063.087-.206.412-.198.51.011.158.063.256.121.37s.125.24.137.416l.002.028c.021.28-.019.42-.55.894-.339.303-.58.596-.742.81-.015.02.004.048.028.046l.016-.001a.4.4 0 0 1 .09.002.57.57 0 0 1 .344.163c.016.016.04.02.062.012a.56.56 0 0 1 .272-.022c.108.01.217.042.291.109a.12.12 0 0 0 .104.031.43.43 0 0 1 .41.115c.04.04.108.049.158.02a.4.4 0 0 1 .064-.028.55.55 0 0 1 .355.023c.055.02.113.038.163.07a.47.47 0 0 1 .17.22c.028.067.12.09.179.048.07-.051.128-.058.187-.032a.2.2 0 0 1 .058.042c.042.049.11.097.172.082a.8.8 0 0 1 .54.069c.056.03.113.076.154.145l.005-.03a.04.04 0 0 1 .025-.03l.038-.012c.088-.028.539-.158.714.027a.02.02 0 0 0 .028 0 .3.3 0 0 1 .055-.048.4.4 0 0 1 .44.038c.026.022.069.014.089-.014a.23.23 0 0 1 .21-.1l.246-.013a4 4 0 0 0 .33-.032q.04-.006.09-.017c.12-.026.255-.056.367-.004.107.05.094.172.08.28q-.008.067-.01.133l.002.061c.002.093.004.18-.015.245l.012.052c.011.05.065.079.11.051a.8.8 0 0 0 .196-.155l.006-.011a.4.4 0 0 0 .018-.076c.015-.092.033-.278.034-.658v-.04a4 4 0 0 0-.007-.354c-.01-.206-.019-.368.083-.532.1-.16.196-.221.289-.28.108-.067.23-.144.434-.425.1-.139.113-.194.123-.239.022-.104.057-.167.212-.285.126-.095.51-.386 1.029-.299.17.029.445.12.717.227l.03.01.013.007c.235.094.464.198.615.283.044.025.098.01.13-.028a.6.6 0 0 1 .152-.124q.032-.018.054-.037c.051-.043.051-.134-.009-.165a9.4 9.4 0 0 0-1.627-.644m-5.193.167c-.169.738-1.311 1.549-1.83 1.549h-.011a.3.3 0 0 1-.059-.01l-.017-.005a.9.9 0 0 1-.323-.2.46.46 0 0 1-.139-.23l-.01-.045a.77.77 0 0 1 .048-.538l.042-.096.012-.029a6 6 0 0 0 .083-.208c.031-.089.035-.122.04-.156q.003-.039.018-.107c.033-.138.05-.256.064-.36.027-.188.05-.35.151-.499a.4.4 0 0 1 .08-.09l.024-.017a.5.5 0 0 1 .171-.077.9.9 0 0 1 .33-.01c.138.01.265.037.379.068a2.4 2.4 0 0 1 .312.111l.054.023.06.028.018.008a1.2 1.2 0 0 1 .286.182l.024.022.022.023c.22.231.209.498.17.663m.53-2.796-.023.134c-.05.301-.169.714-.602.82-.418.103-.517.125-.814.138h-.02c-.218 0-.635-.136-.71-.476-.047-.22.05-.378.21-.64l.085-.143c.21-.354.293-.61.36-.816.064-.201.118-.367.257-.505a.8.8 0 0 1 .32-.191q.146-.047.305-.047c.203 0 .405.058.549.174.065.052.157.156.21.462.028.158-.019.449-.127 1.09m3.095.858c-.149.256-.23.397-.36.503-.256.21-.554.264-.8.264-.177 0-.327-.028-.415-.044-.255-.046-.728-.132-.885-.506a.4.4 0 0 1-.031-.18c0-.058 0-.157-.028-.392L9 7.138a1.1 1.1 0 0 1 .004-.381l.003-.019c.09-.453.114-.522.134-.561a.182.182 0 0 1 .326.159 5 5 0 0 0-.103.473l-.004.018a.8.8 0 0 0 0 .27l.002.015c.03.256.03.371.03.434v.03l.003.01a.33.33 0 0 0 .152.15c.06.034.124-.025.111-.093-.075-.393-.067-.844.082-1.125.05-.096.143-.252.23-.398l.001-.002h.001l.027-.045.021-.036.124-.203.017-.027.007-.011.003-.005.008-.012.01-.017.002-.003v-.001l.065-.091c.047-.066-.008-.15-.082-.117a1.2 1.2 0 0 0-.231.138.18.18 0 0 1-.255-.03.18.18 0 0 1 .03-.255c.093-.073.588-.435 1.181-.265.427.122.651.448.736.57.068.1.276.403.27.826-.005.322-.14.554-.385.975"/>
  <path fill="#fff" d="m7.667 5.299-.105.263a9 9 0 0 1-.245.583c-.085.163-.152.265-.205.348-.061.095-.11.17-.147.275a1.2 1.2 0 0 0-.034.61c-.113-.012-.3-.09-.32-.189-.016-.073.03-.153.164-.374l.088-.146c.23-.389.324-.678.393-.89.074-.23.109-.327.227-.407a.5.5 0 0 1 .184-.073m-.225 8.158a3.4 3.4 0 0 1-.38.612c-.081-.219-.222-.72-.185-1.122l.004-.035a.8.8 0 0 1 .107-.33c.039-.06.146-.097.268-.097.09 0 .188.02.273.065.046.024.107.073.114.215.009.192-.083.45-.201.692"/>
  <path fill="#fff" d="M14.339 10.575q.017.013.01.031a.8.8 0 0 1-.136.191c-.064.077-.137.163-.206.299-.097.191-.128.366-.144.814-.02.526 0 .822.016 1.037.014.208.023.334-.014.537-.075.41-.25.68-.472 1.024-.277.429-.564.872-1.04 1.014-.044.013-.045.013-.169.014-.108 0-.287 0-.627.012-.621.023-.933.034-1.199.085-.28.055-.425.114-.567.171-.127.052-.248.1-.48.148-.137.028-.343.059-1.045.06-.73 0-1.17.001-1.751-.065-.798-.091-1.199-.137-1.465-.279-.627-.334-.892-.936-1.33-1.933l-.003-.006c-.005-.012.01-.024.022-.017q.03.02.065.031a.35.35 0 0 0 .205.01l.003-.002a.014.014 0 0 1 .02.007.32.32 0 0 0 .147.185.5.5 0 0 0 .242.04q.128 0 .256-.016c.045-.004.091.018.109.06.077.189.174.325.319.345l.03.003c.03 0 .07-.007.127-.04.07-.042.176-.016.229.045a1 1 0 0 0 .095.089c.15.153.513.226.817.226.167 0 .316-.021.403-.064.126-.061.126-.155.12-.192l-.029-.202c-.001-.008.011-.011.014-.004.019.04.04.09.1.1l.022.001c.085 0 .217.028.24.11q.017.062.05.116c.051.08.155.177.36.18H7.7q.355 0 .541-.23l.023-.03c.045-.062.176-.065.232-.013a.33.33 0 0 0 .275.086.37.37 0 0 0 .266-.163.7.7 0 0 0 .101-.222c.007-.024.04-.032.06-.014a.32.32 0 0 0 .221.085.4.4 0 0 0 .083-.008c.205-.042.307-.211.355-.403.002-.007.011-.008.016-.003a.39.39 0 0 0 .315.136h.026a.28.28 0 0 0 .216-.113.6.6 0 0 0 .097-.325.12.12 0 0 1 .073-.103c.173-.076.378-.23.44-.335v-.002a.13.13 0 0 1 .086-.067 1 1 0 0 0 .24-.073.6.6 0 0 1 .178-.05c.79-.12.943-.147 1.114-.261.255-.17.268-.405.28-.632.011-.191.024-.41.173-.665.054-.093.116-.209.183-.332.113-.21.27-.504.386-.664a.096.096 0 0 1 .116-.03c.268.113.494.227.543.266"/>
  <path fill="#fff" d="M6.677 12.922a5.3 5.3 0 0 0-.006 1.112q.02.202.052.413c-.038.02-.15.05-.348.046-.285-.005-.563-.077-.646-.167l-.013-.012c-.07-.056-.115-.092-.122-.192-.002-.034.013-.067.044-.114q.026-.04.067-.095c.048-.064.107-.145.168-.248a5 5 0 0 1 .354-.541c.05-.07.11-.153.2-.289q.1-.15.167-.243a1.5 1.5 0 0 1 .158-.19 3 3 0 0 1-.025.174q-.024.14-.05.346m-.131-4.241-.005.008c-.037.051-.08.11-.13.222a1.35 1.35 0 0 0-.141.611.7.7 0 0 1-.022.197 2 2 0 0 1-.061.153c-.08.184-.185.425-.138.749-.065-.032-.164-.103-.178-.141l-.011-.053a.4.4 0 0 1 .027-.314c.169-.39.19-.483.202-.589l.013-.07c.035-.154.054-.285.07-.391.022-.16.037-.267.092-.347.02-.03.075-.045.155-.045q.048 0 .106.008l.01.001zm-.222 3.845a1 1 0 0 0-.06-.275l-.014-.031-.02-.033v-.001l-.001-.001-.011-.012-.032-.027-.02-.011-.013-.005-.003-.002h-.003l-.002-.002-.005-.002c-.054-.02-.11-.041-.167-.05h-.004l-.02-.002H5.91l-.004.001h-.003l-.04.012-.017.009-.014.008-.002.002-.02.019-.013.016-.002.002-.004.007-.067.101a13 13 0 0 1-.31.455l-.081.12-.014.02.098.019q.108.02.22.036a3 3 0 0 0 .484.027l.137-.201q.045-.072.088-.132a.2.2 0 0 1-.023-.067m-.543.631c-.013.117-.145.422-.35.712-.172.243-.277.302-.298.303-.083-.01-.165-.216-.23-.42a7 7 0 0 1-.069-.234 1.6 1.6 0 0 1-.045-.494c.174.097.478.123.906.124h.002zm-.304-.969-.006.01-.222.323-.114.166c-.02.03-.049.064-.073.1q-.091-.02-.182-.045a2 2 0 0 1-.173-.06.1.1 0 0 0-.033-.042l.001-.001.052-.107q.049-.098.103-.192a.9.9 0 0 1 .272-.312.3.3 0 0 1 .139-.053l.06.001h.007l.008.003.04.011.012.007.033.021c-.017-.013.024.03.024.026a.3.3 0 0 1 .052.144m-.582-.308a1.4 1.4 0 0 0-.318.417q-.068.13-.131.26l-.014.027a1.3 1.3 0 0 1-.305-.11c.04-.077.09-.151.136-.223q.098-.154.213-.295c.028-.036.059-.075.1-.099s.091-.018.139-.016c.05.003.104.005.152.024q.016.006.028.016m-.216 1.826-.018.019-.012.003a2 2 0 0 1-.29.012c-.036-.001-.069-.007-.083-.03-.024-.035-.031-.097-.04-.145a2.4 2.4 0 0 1-.017-.709q.182.066.374.098c-.027.212.02.523.047.619zm-.391-1.903a4 4 0 0 0-.293.418c-.036.059-.076.12-.105.183a.5.5 0 0 1-.122-.054 1 1 0 0 1-.091-.063l-.04-.032-.01-.007c.01-.027.028-.058.038-.08a2 2 0 0 1 .243-.398c.024-.03.046-.068.082-.078a.3.3 0 0 1 .104 0q.118.021.194.11m-.828.576c.001-.007.01-.008.014-.002a.5.5 0 0 0 .108.105l.056.042a.01.01 0 0 1 .003.009 2.5 2.5 0 0 0-.074.558c0 .01-.015.012-.018.002-.053-.224-.123-.582-.09-.714m.527.398a2.7 2.7 0 0 0 0 .75.2.2 0 0 0-.059-.002h-.012l-.01-.002c-.022-.005-.024-.008-.041-.019a.2.2 0 0 1-.064-.07.54.54 0 0 1-.056-.25 2.2 2.2 0 0 1 .039-.495l.088.037z"/>
  <mask id="apecoin_svg__c" width="20" height="20" x="0" y="0" maskUnits="userSpaceOnUse" style="mask-type:alpha">
    <path fill="url(#apecoin_svg__b)" d="M20 10c0-5.523-4.477-10-10-10S0 4.477 0 10s4.477 10 10 10 10-4.477 10-10"/>
  </mask>
  <g stroke-miterlimit="10" stroke-width=".1" mask="url(#apecoin_svg__c)" opacity=".8">
    <g opacity=".8">
      <path stroke="url(#apecoin_svg__d)" d="M8.23 21.176a26 26 0 0 1-2.01-.092l-.161-.012-.16-.023c-.07-.01-.166-.02-.258-.03-.561-.06-1.604-.174-2.755-.715l-.179-.084-.167-.094C.328 18.886-.5 17.02-.946 16.016l-.096-.213a9 9 0 0 1-.488-1.256l-.026-.085-.023-.082c-.321-1.142-.402-2.127-.255-3.102.147-.979.51-1.869 1.14-2.801l.326-.533q.1-.164.139-.35C.02 6.36.585 5.485.862 5.068a8 8 0 0 1 .376-1.483l.026-.072.028-.071.021-.063a6.6 6.6 0 0 1 1.166-2.178l.281-.34.286-.259A6.64 6.64 0 0 1 5.612-.846a7.2 7.2 0 0 1 1.635-.29l.053-.003.08-.004a6 6 0 0 1 1.317.08c.213.036.432.01.631-.072a7.2 7.2 0 0 1 1.847-.496l.135-.018a16 16 0 0 1 1.858-.12c1.088 0 2.025.141 2.864.431l.071.025.07.026c1.85.7 2.792 1.676 3.47 2.538l.032.041.093.083a6.5 6.5 0 0 1 1.537 1.728l.126.208.106.218c.906 1.848.618 3.554.51 4.195l-.006.034a7.4 7.4 0 0 1-.37 1.386 7 7 0 0 1-.305 1.272 7.4 7.4 0 0 1-1.05 2.054 7.4 7.4 0 0 1-.886 1.034.72.72 0 0 0-.212.417q-.02.147-.049.29a7.8 7.8 0 0 1-1.142 2.809l-.768 1.103c-.925 1.153-2.022 1.913-3.35 2.321l-.322.101-.348.06q-.598.106-1.204.105l-.174-.002h-.018l-.069.005-.073.002h-.002q-.232.008-.454.075c-.858.262-1.829.386-3.016.386Z"/>
      <path stroke="url(#apecoin_svg__e)" d="M8.23 20.418c-.702 0-1.376-.045-1.941-.09l-.134-.01-.134-.018c-.084-.012-.186-.023-.285-.034-.544-.06-1.455-.158-2.471-.635l-.15-.07-.138-.078C1.024 18.388.302 16.762-.13 15.79l-.104-.232a8 8 0 0 1-.444-1.144l-.023-.07-.02-.07c-.285-1.014-.359-1.88-.231-2.726.127-.845.448-1.626 1.008-2.45l.418-.683q.112-.183.15-.395c.208-1.16.757-1.983 1.006-2.358l.031-.047.012-.019.015-.034.045-.143c.065-.476.18-.944.345-1.396l.022-.06.024-.062c.008-.019.015-.04.036-.103.119-.358.366-1.1 1.012-1.897l.234-.283.238-.216A5.76 5.76 0 0 1 5.87.147a6.4 6.4 0 0 1 1.44-.254l.045-.003.067-.003q.123-.006.243-.006c.35 0 .7-.101 1.043-.03.265.054.54.025.787-.085.462-.203 1.085-.285 1.797-.374l.13-.017a14 14 0 0 1 1.746-.114c.987 0 1.828.125 2.57.382l.06.02.058.023c1.64.62 2.451 1.45 3.083 2.254l.085.106.015.014.12.106.015.017a5.5 5.5 0 0 1 1.366 1.521l.105.174.09.181c.778 1.59.534 3.035.43 3.653l-.006.033a6.5 6.5 0 0 1-.36 1.311 6 6 0 0 1-.28 1.21 6.5 6.5 0 0 1-.93 1.819 6.4 6.4 0 0 1-.94 1.061.9.9 0 0 0-.29.568q-.026.24-.069.47a6.9 6.9 0 0 1-1.03 2.515l-.623.904c-.827 1.063-1.807 1.758-2.994 2.124l-.268.084-.29.05a6 6 0 0 1-1.051.091l-.16-.001h-.049l-.034.001-.061.004-.062.002-.124.005a1.8 1.8 0 0 0-.48.084c-.791.252-1.704.371-2.834.371Z"/>
      <path stroke="url(#apecoin_svg__f)" d="M8.23 19.524c-.671 0-1.323-.044-1.872-.086l-.107-.009-.107-.014a9 9 0 0 0-.31-.037c-.521-.057-1.307-.142-2.189-.556l-.12-.056-.111-.062c-1.694-.95-2.315-2.35-2.727-3.276l-.112-.252a7 7 0 0 1-.4-1.032l-.017-.056-.016-.055c-.25-.889-.316-1.636-.209-2.351.11-.725.394-1.4.896-2.127l.06-.087.064-.082.118-.154.252-.461c.083-.15.138-.315.165-.485.16-1.035.659-1.783.889-2.128l.001-.002.039-.059.05-.078c.018-.042.044-.098.066-.157l.078-.246c.055-.44.16-.874.312-1.292l.017-.048.02-.05c.015-.04.027-.076.05-.146.11-.33.315-.945.858-1.616l.188-.227.19-.171a4.9 4.9 0 0 1 1.883-1.063q.61-.181 1.247-.218l.036-.003.054-.002a4.3 4.3 0 0 1 1.278.132c.305.077.627.043.909-.096a5.6 5.6 0 0 1 1.883-.554c.088-.01.228-.027.397-.045.296-.028.75-.062 1.237-.062.886 0 1.632.109 2.28.333l.047.017.047.017c1.506.57 2.18 1.315 2.695 1.97.113.144.13.166.208.235l.096.085.037.039c.248.192.755.587 1.199 1.318l.084.139.071.145c.652 1.33.45 2.533.352 3.11l-.006.033c-.07.423-.187.837-.352 1.234l-.004.037q-.065.571-.25 1.115a5.7 5.7 0 0 1-.808 1.581 5.3 5.3 0 0 1-1.047 1.117.85.85 0 0 0-.323.628q-.016.358-.082.711c-.202 1.09-.678 1.845-.92 2.222l-.483.713c-.727.97-1.589 1.599-2.63 1.918l-.215.067-.231.04a5 5 0 0 1-.898.078l-.146-.001h-.063c-.009 0-.035 0-.09.003l-.049.003-.296.011a1.8 1.8 0 0 0-.511.092c-.724.244-1.578.359-2.653.359Z"/>
      <path stroke="url(#apecoin_svg__g)" d="M8.23 18.63c-.641 0-1.272-.042-1.803-.084l-.08-.006-.08-.01a7 7 0 0 0-.338-.04c-.489-.054-1.158-.127-1.905-.477l-.089-.042-.083-.047c-1.434-.805-1.962-1.992-2.347-2.86l-.123-.273a6 6 0 0 1-.355-.916l-.013-.042-.012-.042c-.42-1.49-.261-2.535.562-3.728L1.61 10l.049-.063q.08-.105.156-.2.113-.15.237-.306a.8.8 0 0 0 .124-.215l.095-.242q.06-.154.074-.32c.082-.956.547-1.653.777-1.998l.002-.002.05-.077.054-.086.017-.022a4 4 0 0 0 .134-.309c.027-.087.069-.222.11-.344q0-.008.002-.015c.044-.4.136-.794.274-1.173l.014-.036.014-.037c.025-.064.043-.117.067-.19.098-.296.263-.79.704-1.334l.14-.171.142-.128c1.041-.945 2.206-1.026 2.595-1.052l.027-.002.041-.002a3.4 3.4 0 0 1 1.503.271.55.55 0 0 0 .472-.022h.002c.396-.23 1.121-.646 2.046-.757l.116-.016a13 13 0 0 1 1.522-.099c.785 0 1.435.093 1.987.284l.036.013.035.013c1.29.488 1.848 1.1 2.307 1.685.124.156.179.23.317.351l.072.064.058.06.045.035c.218.17.625.485.987 1.079l.063.104.053.108c.525 1.073.361 2.046.273 2.57l-.005.03c-.062.38-.17.752-.322 1.106l-.013.03-.006.03c-.007.036-.011.065-.016.101l-.005.041q-.055.483-.21.942a4.8 4.8 0 0 1-.687 1.345q-.442.627-.997 1.03a1.3 1.3 0 0 0-.534 1.033 4.4 4.4 0 0 1-.074.75c-.17.923-.565 1.548-.81 1.929l-.35.525c-.628.877-1.368 1.437-2.26 1.71l-.046.015a2 2 0 0 1-.231.055l-.057.01a4 4 0 0 1-.745.065l-.131-.001h-.078q-.024-.001-.146.005l-.037.002-.036.001-.4.016a1.8 1.8 0 0 0-.533.104c-.641.23-1.426.338-2.444.338Z"/>
    </g>
    <g opacity=".8">
      <path stroke="url(#apecoin_svg__h)" d="M8.23 17.736a23 23 0 0 1-1.734-.081l-.053-.004-.054-.008q-.185-.025-.364-.043c-.45-.049-1.009-.11-1.62-.397l-.06-.028-.056-.03c-1.175-.66-1.614-1.648-1.967-2.443q-.066-.149-.134-.297a5.4 5.4 0 0 1-.309-.801l-.009-.028-.008-.027c-.346-1.23-.232-2.01.437-2.978l.03-.043.033-.042.162-.212c.175-.228.343-.449.594-.717a.35.35 0 0 0 .093-.215l.019-.29-.008-.094.004-.098c.026-.793.424-1.39.638-1.71l.065-.1.036-.058.033-.044a4 4 0 0 0 .224-.5c.027-.09.08-.26.126-.395a.6.6 0 0 0 .027-.146q.054-.504.23-.98l.008-.025.01-.024a4 4 0 0 0 .082-.234c.084-.253.211-.635.55-1.053l.094-.114.093-.084c.73-.662 1.524-.788 2.06-.824l.019-.001h.027l.116-.003c.458 0 1.006.22 1.293.353a.57.57 0 0 0 .441.015 4 4 0 0 0 .522-.23c.366-.212.973-.562 1.727-.65l.11-.015c.075-.01.195-.022.343-.038.257-.024.65-.054 1.067-.054.684 0 1.238.077 1.695.235l.023.008.023.009c1.078.407 1.507.876 1.92 1.401.134.17.229.29.426.467l.048.042.044.045q.06.06.13.11c.185.143.495.383.77.836l.042.069.036.073c.399.813.27 1.572.194 2.026l-.005.03q-.077.473-.266.91v.003a1 1 0 0 0-.071.237c-.01.057-.018.103-.024.154l-.006.042q-.042.393-.17.768a3.9 3.9 0 0 1-.565 1.109c-.365.52-.786.885-1.293 1.117a.73.73 0 0 0-.43.637 1 1 0 0 0 0 .126c.024.391.052.834-.035 1.29-.14.755-.459 1.263-.7 1.635 0 0-1.101 1.534-2.105 1.84l-.108.034-.116.02a3.3 3.3 0 0 1-.59.052l-.118-.001h-.092c-.04 0-.103 0-.203.007l-.024.001h-.025c-.383.014-.746.027-.847.047a.6.6 0 0 0-.156.046c-.568.248-1.312.365-2.34.365Z"/>
      <path stroke="url(#apecoin_svg__i)" d="M8.23 16.842c-.58 0-1.167-.04-1.664-.078l-.027-.002-.027-.004a13 13 0 0 0-.39-.047c-.423-.046-.861-.093-1.338-.317l-.03-.014-.028-.016c-.916-.514-1.257-1.281-1.587-2.025l-.145-.323a4.5 4.5 0 0 1-.262-.682l-.005-.014-.004-.014c-.275-.978-.205-1.478.313-2.227l.015-.023.016-.02.17-.22c.248-.327.463-.61.946-1.054l.001-.002a.25.25 0 0 0 .064-.268l-.087-.248a2 2 0 0 1-.037-.237v-.003l-.005-.067.002-.049c.017-.538.3-.963.488-1.244l.079-.12.018-.029.02-.027c.1-.134.26-.505.346-.735.022-.07.08-.261.127-.399q.051-.155.065-.32.042-.405.184-.787l.005-.012.004-.013c.042-.106.07-.193.099-.278.075-.225.16-.48.395-.77L6 4.095l.046-.042c.518-.47 1.086-.565 1.524-.594h.024l.073-.002c.426 0 .754.175.97.29l.051.028.008.004q.089.048.16.084c.135.068.29.083.435.045a5.6 5.6 0 0 0 1.072-.427l.006-.004c.328-.19.821-.476 1.4-.54l.104-.014c.067-.008.179-.022.315-.034.238-.023.601-.05.982-.05.583 0 1.042.06 1.403.185l.012.005.012.004c.865.327 1.18.67 1.532 1.118.143.182.278.354.535.582l.024.022.022.023q.105.105.223.192c.154.12.365.282.554.594l.021.035.018.036c.272.555.182 1.092.115 1.484l-.005.031q-.06.372-.21.718-.088.198-.124.413a3 3 0 0 0-.033.207l-.005.043a2.8 2.8 0 0 1-.13.595c-.1.313-.25.607-.445.871-.328.472-.692.763-1.176.917a1.06 1.06 0 0 0-.565.428l-.039.059-.042.048c-.123.14-.088.682-.067 1.006.022.355.046.722-.02 1.068-.11.591-.363.99-.59 1.34 0 0-.84 1.215-1.6 1.446l-.056.017-.058.01a2.4 2.4 0 0 1-.438.038h-.209c-.051 0-.134 0-.26.009h-.024c-.51.019-.816.03-.986.063a1.5 1.5 0 0 0-.333.099c-.455.202-1.09.296-1.995.296Z"/>
    </g>
  </g>
  <defs>
    <linearGradient id="apecoin_svg__d" x1=".778" x2="18.32" y1="1.052" y2="19.735" gradientUnits="userSpaceOnUse">
      <stop offset=".206" stop-color="#89d0ff"/>
      <stop offset=".398" stop-color="#ebbf9a"/>
      <stop offset=".602" stop-color="#eb80e7"/>
      <stop offset=".841" stop-color="#a281ff"/>
    </linearGradient>
    <linearGradient id="apecoin_svg__e" x1=".778" x2="18.32" y1="1.052" y2="19.735" gradientUnits="userSpaceOnUse">
      <stop offset=".206" stop-color="#89d0ff"/>
      <stop offset=".398" stop-color="#ebbf9a"/>
      <stop offset=".602" stop-color="#eb80e7"/>
      <stop offset=".841" stop-color="#a281ff"/>
    </linearGradient>
    <linearGradient id="apecoin_svg__f" x1=".778" x2="18.32" y1="1.052" y2="19.735" gradientUnits="userSpaceOnUse">
      <stop offset=".206" stop-color="#89d0ff"/>
      <stop offset=".398" stop-color="#ebbf9a"/>
      <stop offset=".602" stop-color="#eb80e7"/>
      <stop offset=".841" stop-color="#a281ff"/>
    </linearGradient>
    <linearGradient id="apecoin_svg__g" x1=".778" x2="18.32" y1="1.052" y2="19.735" gradientUnits="userSpaceOnUse">
      <stop offset=".206" stop-color="#89d0ff"/>
      <stop offset=".398" stop-color="#ebbf9a"/>
      <stop offset=".602" stop-color="#eb80e7"/>
      <stop offset=".841" stop-color="#a281ff"/>
    </linearGradient>
    <linearGradient id="apecoin_svg__h" x1="2.565" x2="16.524" y1="2.84" y2="17.939" gradientUnits="userSpaceOnUse">
      <stop offset=".206" stop-color="#89d0ff"/>
      <stop offset=".398" stop-color="#ebbf9a"/>
      <stop offset=".602" stop-color="#a280eb"/>
      <stop offset=".841" stop-color="#a281ff"/>
    </linearGradient>
    <linearGradient id="apecoin_svg__i" x1="2.565" x2="16.524" y1="2.84" y2="17.939" gradientUnits="userSpaceOnUse">
      <stop offset=".206" stop-color="#89d0ff"/>
      <stop offset=".398" stop-color="#ebbf9a"/>
      <stop offset=".602" stop-color="#a280eb"/>
      <stop offset=".841" stop-color="#a281ff"/>
    </linearGradient>
    <radialGradient id="apecoin_svg__a" cx="0" cy="0" r="1" gradientTransform="rotate(90 -.524 10.524)scale(11.2348)" gradientUnits="userSpaceOnUse">
      <stop offset=".167" stop-color="#073183"/>
      <stop offset="1" stop-color="#0054f9"/>
    </radialGradient>
    <radialGradient id="apecoin_svg__b" cx="0" cy="0" r="1" gradientTransform="rotate(90 -.524 10.524)scale(11.2348)" gradientUnits="userSpaceOnUse">
      <stop offset=".167" stop-color="#073183"/>
      <stop offset="1" stop-color="#0054f9"/>
    </radialGradient>
  </defs>
</svg>
