<svg xmlns="http://www.w3.org/2000/svg" viewBox="0 0 44.4 56.6">
  <path fill="#070001" d="M22.2 1.1c5.6 0 11 2.1 14.9 6 4 3.9 6.2 9 6.2 14.5v33.9H1.1V21.6c0-5.5 2.2-10.6 6.2-14.5 3.9-3.9 9.2-6 14.9-6m0-1.1C16.3 0 10.7 2.2 6.5 6.3S0 15.8 0 21.6v35h44.4v-35c0-5.8-2.3-11.2-6.5-15.2C33.7 2.2 28.1 0 22.2 0z"/>
  <path fill="#070001" d="m35.264 9.115-1-1c-3.3-2.9-7.5-4.4-12-4.4-4.9 0-9.6 1.9-13 5.4-3.5 3.5-5.4 8.1-5.4 13v30.6h36.8v-30.5c0-5-2-9.6-5.4-13.1zm-5.7 41.7c-1.7.6-3.6.9-5.5.9h-13.3v-6.1c-.3-.3-.6-.7-.8-1-2.3-3-3.5-6.7-3.5-10.5v-11.5c0-4.5 1.7-8.7 4.7-12 .4 0 .9 0 1.4.1 3.1.3 7.3 1.4 10.9 3.9 3.2 2.2 7.1 6.2 7.1 12.7v23.2c-.3.1-.6.2-1 .3z"/>
  <path fill="#070001" d="M23.564 14.615c-3.6-2.4-7.8-3.6-10.9-3.9-.5 0-1-.1-1.4-.1-3 3.3-4.7 7.5-4.7 12v11.5c0 3.8 1.2 7.5 3.5 10.5.3.3.5.7.8 1v6.1h13.3c1.9 0 3.7-.3 5.5-.9.4-.1.7-.2 1.1-.4v-23.2c-.1-6.5-4-10.4-7.2-12.6zm-11.7 36v-3.9c1.8 1.7 3.9 3.1 6.2 3.9h-6.2zm17.7-.9c-1.7.6-3.6.9-5.5.9-4.4 0-8.5-1.7-11.7-4.9l-.6-.6c-.4-.4-.8-.9-1.1-1.4-2.1-2.8-3.2-6.2-3.2-9.7v-11.4c0-4 1.5-7.9 4.1-10.9 7 .3 17.9 5.1 17.9 15.5v22.5h.1z"/>
  <path fill="#070001" d="M17.997 37.24c-.3 0-.6-.3-.6-.6v-10.2c0-2.7 2.2-4.9 4.9-4.9s4.9 2.2 4.9 4.9c0 .3-.3.6-.6.6s-.6-.3-.6-.6c0-2-1.7-3.7-3.7-3.7s-3.7 1.7-3.7 3.7v10.2c0 .3-.3.6-.6.6z"/>
  <path fill="#070001" d="M24.097 29.34c-.3 0-.6-.3-.6-.6 0-.7-.5-1.2-1.2-1.2s-1.2.5-1.2 1.2c0 .3-.3.6-.6.6s-.6-.3-.6-.6c0-1.4 1.1-2.5 2.5-2.5s2.5 1.1 2.5 2.5c-.2.3-.5.6-.8.6zm-6.1 7.9c-1.8 0-3.3-1.5-3.3-3.3 0-.3.3-.6.6-.6s.6.3.6.6c0 1.1.9 2 2 2s2-.9 2-2c0-.3.3-.6.6-.6s.6.3.6.6c.1 1.8-1.3 3.3-3.1 3.3zm-3.5-6.9c-.2 0-.3-.1-.4-.2l-2.7-2.7v2.3c0 .3-.3.6-.6.6s-.7-.3-.7-.7v-3.7c0-.3.2-.5.4-.6.3-.1.5-.1.7.1l2.7 2.7v-1.6c0-.3.3-.6.6-.6s.6.3.6.6v3.1c0 .3-.2.5-.4.6 0 .1-.1.1-.2.1zm3.4-3.2c-.3 0-.6-.3-.6-.6 0-.1 0-2.6-1.7-2.6-.3 0-.6-.3-.6-.6s.3-.6.6-.6c2.3 0 2.9 2.5 2.9 3.8 0 .3-.3.6-.6.6z"/>
</svg>
