<svg xmlns="http://www.w3.org/2000/svg" fill="none" viewBox="0 0 20 20">
  <circle cx="10" cy="10" r="10" fill="#000"/>
  <path fill="#fff" d="M14.336 7.35h-1.41a.57.57 0 0 1-.428-.195l-.572-.645a.45.45 0 0 0-.672 0l-.49.553a.84.84 0 0 1-.632.287H2.419A8 8 0 0 0 2 9.323h7.281a.47.47 0 0 0 .337-.145l.68-.708a.45.45 0 0 1 .324-.137h.026a.46.46 0 0 1 .337.15l.572.645a.57.57 0 0 0 .43.195h5.94a8 8 0 0 0-.42-1.973zm-7.932 6.122a.47.47 0 0 0 .338-.145l.677-.708a.46.46 0 0 1 .324-.137h.029a.46.46 0 0 1 .337.15l.569.645a.58.58 0 0 0 .43.195h8.052c.307-.63.528-1.3.659-1.989h-7.732a.57.57 0 0 1-.427-.192l-.571-.645a.45.45 0 0 0-.521-.113.44.44 0 0 0-.151.113l-.49.553a.85.85 0 0 1-.635.284H2.108c.129.691.35 1.362.656 1.994zm5.714-8.28a.47.47 0 0 0 .34-.144l.677-.706a.45.45 0 0 1 .324-.14h.029a.44.44 0 0 1 .335.153l.571.645a.58.58 0 0 0 .43.193h1.53a7.993 7.993 0 0 0-12.781 0zM9.041 15.449H6.947a.57.57 0 0 1-.427-.195l-.569-.646a.453.453 0 0 0-.674 0l-.493.564a.84.84 0 0 1-.632.287h-.031a7.99 7.99 0 0 0 11.688 0z"/>
</svg>
