<svg xmlns="http://www.w3.org/2000/svg" fill="none" viewBox="0 0 20 20">
  <circle cx="10" cy="10" r="10" fill="#d700d4"/>
  <mask id="audius_svg__a" width="20" height="20" x="0" y="0" maskUnits="userSpaceOnUse" style="mask-type:alpha">
    <circle cx="10" cy="10" r="10" fill="#d700d4"/>
  </mask>
  <g mask="url(#audius_svg__a)">
    <path fill="#bd27d9" d="M5.75-2C2.99-2 .767-.476 0 .286V22l46-1.143v-9.143c-2.3 1.524-8.51 4.8-14.95 5.715C23 18.57 14.95 6 13.8 3.714S9.2-2 5.75-2"/>
    <path fill="#7319c2" d="M5 1C2.6 1 .667 2.333 0 3v19l40-1v-8c-2 1.333-7.4 4.2-13 5-7 1-14-10-15-12S8 1 5 1"/>
    <path fill="#3913ab" d="M4.25 4C2.21 4 .567 5.143 0 5.714V22l34-.857v-6.857c-1.7 1.143-6.29 3.6-11.05 4.285C17 19.43 11.05 10 10.2 8.286S6.8 4 4.25 4"/>
    <path fill="#891cca" d="M3.25 8C1.69 8 .433 8.889 0 9.333V22l26-.667V16c-1.3.889-4.81 2.8-8.45 3.333-4.55.667-9.1-6.666-9.75-8S5.2 8 3.25 8"/>
    <path fill="#270c83" d="M2.5 11.5c-1.2 0-2.167.667-2.5 1V22l20-.5v-4c-1 .667-3.7 2.1-6.5 2.5-3.5.5-7-5-7.5-6s-2-2.5-3.5-2.5"/>
  </g>
  <path fill="#fff" fill-rule="evenodd" d="M9.972 5.116c-.056.064-.358.552-.669 1.084a803 803 0 0 1-1.965 3.33c-1.252 2.115-1.39 2.378-1.324 2.52.073.159.075.159 1.292.159.883 0 1.241-.023 1.303-.084.047-.046.383-.588.748-1.204.6-1.017.678-1.12.832-1.102.144.017.29.22.906 1.255.404.68.735 1.255.736 1.28 0 .025-.048.093-.107.15-.09.089-.321.105-1.459.105-1.202 0-1.363.013-1.455.117-.21.237-1.148 1.88-1.148 2.012 0 .075.06.168.134.206.089.047 1.446.064 4.11.052 3.93-.017 3.977-.018 4.07-.154.085-.126-.004-.303-1.06-2.103-2.435-4.149-4.11-6.987-4.342-7.356-.254-.407-.415-.478-.602-.267" clip-rule="evenodd"/>
</svg>
