<svg xmlns="http://www.w3.org/2000/svg" fill="none" viewBox="0 0 20 20">
  <path fill="#b11d1b" fill-rule="evenodd" d="M6.263 19.3h7.87c1.076-.22 3.52-1.126 4.679-2.982 1.16-1.855 1.256-4.169 1.16-5.094-.083-.386-.299-1.267-.497-1.698-.2-.43-2.9-4.928-4.225-7.123-.8-.815-2.932-2.436-5.052-2.402C7.423 0 5.508 1.45 4.77 2.403 3.446 4.598.87 9.095.671 9.526c-.199.43-.538 1.312-.621 1.698-.097.925-.197 2.858 1.2 5.094C2.41 18.174 4.773 19.3 6.264 19.3m8.324-4.763h-8.78c-.29-.027-.953-.207-1.284-.704a2.3 2.3 0 0 1-.373-1.284l4.597-7.91c.22-.304.82-.895 1.45-.828.63-.067 1.228.524 1.45.828l4.596 7.91c.014.221-.041.787-.372 1.284-.332.497-.995.677-1.284.704" clip-rule="evenodd"/>
  <mask id="automata_svg__a" width="20" height="20" x="0" y="0" maskUnits="userSpaceOnUse" style="mask-type:alpha">
    <path fill="#f9c10d" fill-rule="evenodd" d="M6.263 19.3h7.87c1.076-.22 3.52-1.126 4.679-2.982 1.16-1.855 1.256-4.169 1.16-5.094-.083-.386-.299-1.267-.497-1.698-.2-.43-2.9-4.928-4.225-7.123-.8-.815-2.932-2.436-5.052-2.402C7.423 0 5.508 1.45 4.77 2.403 3.446 4.598.87 9.095.671 9.526c-.199.43-.538 1.312-.621 1.698-.097.925-.197 2.858 1.2 5.094C2.41 18.174 4.773 19.3 6.264 19.3m8.324-4.763h-8.78c-.29-.027-.953-.207-1.284-.704a2.3 2.3 0 0 1-.373-1.284l4.597-7.91c.22-.304.82-.895 1.45-.828.63-.067 1.228.524 1.45.828l4.596 7.91c.014.221-.041.787-.372 1.284-.332.497-.995.677-1.284.704" clip-rule="evenodd"/>
  </mask>
  <g mask="url(#automata_svg__a)">
    <path fill="url(#automata_svg__b)" fill-rule="evenodd" d="M.277 10.347c-.545 1.819-.276 3.92.723 5.634.448.768 1.586 1.919 2.348 2.374 1.2.717 2.105.945 3.758.945.877 0 1.11-.023 1.061-.105q-.064-.107.079.01c.124.101.14.094.14-.062 0-.098.035-.178.078-.178s.103-.08.134-.178c.042-.134.074-.151.124-.068.054.087.093.089.192.006.075-.062.143-.07.173-.023.065.107.464-.08.465-.218 0-.118-.134-.141-.2-.035-.058.095-.43.062-.4-.035.014-.042.098-.065.188-.05.098.016.163-.022.163-.094 0-.074-.084-.12-.215-.12-.248 0-.326-.067-.413-.355-.054-.18-.046-.195.064-.103.105.087.137.082.18-.029.028-.074.032-.166.008-.204-.023-.038.08-.097.23-.13.236-.053.25-.069.104-.126a1.4 1.4 0 0 0-.388-.072c-.179-.005-.213-.038-.178-.173.029-.109.114-.168.243-.168.142 0 .198-.046.198-.167 0-.206-.13-.217-.243-.02-.078.133-.085.134-.088.004 0-.078.035-.165.081-.193.132-.082.097-.232-.041-.179-.07.027-.125.008-.125-.042 0-.054.082-.07.208-.037.126.031.208.016.208-.039 0-.053.07-.069.167-.038.114.037.166.015.166-.068 0-.168-.379-.225-.576-.086-.104.073-.181.084-.214.03-.03-.047.01-.085.087-.085.099 0 .127-.049.096-.167-.043-.166.057-.233.142-.095.072.117.465.004.465-.134 0-.103-.023-.107-.125-.022-.103.086-.125.078-.125-.048 0-.119-.022-.13-.1-.052-.123.124-.233.13-.233.011 0-.048.047-.061.104-.03.084.048.084.037 0-.053-.102-.11-.152-.323-.052-.222.076.077.254-.13.254-.297 0-.119-.078-.145-.424-.146-1.771-.004-3.647-.12-4.195-.259-1.98-.5-3.44-1.943-4.015-3.96L.414 9.89zm9.075 4.423c-.029.047-.012.11.038.141.128.08.21-.03.104-.137q-.09-.09-.142-.004m.004.322c-.094.094-.057.193.071.193.07 0 .125-.036.125-.079 0-.105-.13-.18-.196-.114m.321.025c-.028.046-.011.084.037.084a.086.086 0 0 0 .088-.084c0-.046-.016-.083-.036-.083s-.06.037-.089.083m-.041.335c0 .046.037.084.083.084a.084.084 0 0 0 0-.168.084.084 0 0 0-.083.084m-.038.412c-.027.043-.01.102.036.13.047.03.085-.005.085-.077 0-.147-.05-.168-.121-.053m-.046.34a.084.084 0 1 0 .083-.084.084.084 0 0 0-.083.085m.334 0c0 .047.037.084.083.084a.084.084 0 0 0 0-.167.084.084 0 0 0-.083.084m-.623.332c-.07.115-.008.2.115.159.05-.018.057-.077.016-.144-.052-.084-.086-.088-.131-.015m.29.003c0 .046.037.084.083.084a.084.084 0 0 0 0-.167.084.084 0 0 0-.084.083m.333 0c0 .046.037.084.083.084a.084.084 0 0 0 0-.167.084.084 0 0 0-.083.083m-.694.369c-.047.123.007.217.124.217.039 0 .07-.075.07-.167 0-.192-.127-.225-.194-.05m.61-.034a.084.084 0 1 0 .083-.084.084.084 0 0 0-.083.084m-1.124.585a.2.2 0 0 1-.15.083c-.06-.001-.05-.034.025-.083.16-.103.189-.103.125 0m.533-.076a7 7 0 0 0-.037.344c-.02.23 0 .298.082.267.114-.044.132-.477.025-.585-.034-.033-.066-.045-.07-.026m.258.076c0 .046.056.084.125.084s.125-.038.125-.084-.056-.083-.125-.083-.125.037-.125.083m.5.005c0 .05.037.066.083.037.046-.028.083-.068.083-.088s-.037-.037-.083-.037-.083.04-.083.088m.416 0c0 .05.038.066.084.037.045-.028.083-.068.083-.088s-.038-.037-.083-.037-.084.04-.084.088m-.95.233c-.028.047-.011.11.038.141.128.08.211-.029.104-.136q-.09-.09-.141-.005m.337-.012c-.094.094-.057.193.072.193.069 0 .125-.036.125-.08 0-.104-.13-.18-.197-.113m-1.027.614c.022.085.023.171.002.192-.064.064-.36-.043-.36-.13 0-.046.056-.061.124-.035.17.066.158-.029-.02-.163-.134-.1-.131-.106.034-.064.098.025.197.115.22.2m.64-.129c0 .077.041.126.09.11.05-.017.09-.066.09-.11 0-.043-.04-.093-.09-.109-.049-.017-.09.033-.09.11m.334 0c0 .07.037.126.083.126s.084-.057.084-.126-.038-.125-.084-.125-.083.056-.083.125m.625-.04c.03.047.088.063.13.037.116-.072.094-.122-.052-.122-.071 0-.106.038-.078.085m-.663.327c-.057.093.074.193.151.115.08-.08.065-.192-.025-.192-.043 0-.1.035-.126.077m.62.006c0 .046.038.084.084.084a.084.084 0 0 0 0-.168.084.084 0 0 0-.083.084m-.974.363c-.024.038-.006.107.04.154q.083.083.137-.004c.03-.048.109-.066.176-.04.07.027.122-.001.122-.067 0-.123-.403-.16-.475-.043m.975-.028c0 .046.037.083.083.083a.084.084 0 0 0 0-.167.084.084 0 0 0-.083.084m-2.021.218c-.028.027-.1.03-.16.006q-.097-.042.05-.05c.088-.004.137.016.11.043" clip-rule="evenodd"/>
    <path fill="url(#automata_svg__c)" d="M17.043 6.084c-.048 0-.065-.037-.037-.083s.068-.084.088-.084.037.038.037.084-.04.083-.088.083"/>
    <path fill="url(#automata_svg__d)" d="M16.761 6.252c-.02 0-.06-.038-.088-.084s-.012-.084.037-.084c.048 0 .088.038.088.084s-.016.084-.037.084"/>
    <path fill="url(#automata_svg__e)" d="M17.381 6.586a.084.084 0 0 1 0-.167.084.084 0 0 1 0 .167"/>
    <path fill="url(#automata_svg__f)" d="M17.09 6.753c-.07 0-.125-.037-.125-.083s.056-.084.125-.084c.068 0 .125.038.125.084s-.057.083-.125.083"/>
    <path fill="url(#automata_svg__g)" d="M16.71 6.92c-.043 0-.079-.037-.079-.083s.059-.084.13-.084.107.038.079.084c-.029.046-.087.084-.13.084"/>
    <path fill="url(#automata_svg__h)" d="M17.73 7.152c-.055.019-.1-.026-.1-.099s.06-.132.133-.132c.147 0 .121.18-.033.231"/>
    <path fill="url(#automata_svg__i)" d="M16.224 7.196c-.107.108-.215.025-.136-.104a.1.1 0 0 1 .14-.038q.086.053-.004.142"/>
    <path fill="url(#automata_svg__j)" d="M17.423 7.268c-.044 0-.093-.04-.11-.09-.016-.05.033-.09.11-.09.076 0 .125.04.109.09-.017.05-.066.09-.11.09"/>
    <path fill="url(#automata_svg__k)" d="M17.09 7.423c-.13 0-.166-.1-.072-.193.066-.067.197.008.197.114 0 .043-.057.079-.125.079"/>
    <path fill="url(#automata_svg__l)" d="M17.25 7.673c-.216 0-.12-.123.237-.303q.616-.314.538-.094c-.02.058-.099.1-.174.093-.075-.006-.137.001-.137.017 0 .073.404.455.482.455.048 0 .106.047.13.104.022.058.045.03.05-.062.006-.14.02-.147.087-.042.058.09.04.157-.063.238-.13.103-.126.108.049.056.152-.046.202-.022.238.116.025.097.075.175.11.175.086 0 .706 1.204.864 1.676.502 1.504.512 2.836.031 4.388-.62 2.004-2.257 3.74-4.192 4.445-.298.109-.581.197-.629.197s.15-.258.441-.573c.967-1.049 1.437-2.283 1.44-3.776.002-1.314-.213-2.037-.996-3.346a21 21 0 0 1-.483-.836c-.058-.125-.245-.446-.58-.998-.097-.157-.133-.26-.082-.228s.117.02.146-.027.09-.085.136-.085c.045 0 .056.043.023.096q-.053.09.034.039c.1-.062.006-.406-.167-.616-.05-.06-.063-.136-.03-.17.033-.033.112.011.175.098.108.149.127.15.325.02.199-.131.215-.13.315.03.133.214.284.214.397 0q.09-.168.003-.167c-.047 0-.086-.052-.086-.115 0-.105.226-.227.467-.253a.5.5 0 0 0 .213-.11c.066-.055.212-.137.324-.182.195-.078.196-.082.021-.087-.1-.003-.206.033-.235.08-.059.095-.207.03-.207-.09 0-.044.075-.079.166-.079.18 0 .23-.133.07-.186-.055-.018-.07-.079-.036-.136.045-.072.143-.015.33.19.233.255.277.275.352.156.054-.086.127-.112.196-.068.085.052.065.104-.088.221-.11.085-.257.155-.328.156-.15.002-.33.163-.326.29.001.049.06.013.13-.08.126-.165.129-.165.247-.004.066.09.12.136.12.104 0-.146.02-.192.144-.33.072-.08.18-.146.238-.146a.22.22 0 0 0 .167-.096c.033-.054.023-.074-.022-.046-.044.027-.15-.031-.236-.131-.1-.118-.166-.146-.188-.08-.019.057-.087.102-.152.102"/>
    <path fill="url(#automata_svg__m)" d="M16.382 7.59a.084.084 0 0 1 0-.167.084.084 0 0 1 0 .167"/>
    <path fill="url(#automata_svg__n)" d="M15.466 7.84a.084.084 0 0 1 0-.167.084.084 0 0 1 0 .168"/>
    <path fill="url(#automata_svg__o)" d="M16.337 7.997c-.048.049-.202-.146-.204-.26 0-.035.032-.064.073-.064.093 0 .197.258.131.324"/>
    <path fill="url(#automata_svg__p)" d="M15.965 8.008c-.046 0-.083-.056-.083-.125 0-.07.037-.126.083-.126s.084.057.084.126-.038.125-.084.125"/>
    <path fill="url(#automata_svg__q)" d="M15.873 8.306c-.08.05-.316-.183-.321-.319-.005-.103.07-.072.244.102.1.1.13.184.077.217"/>
    <path fill="url(#automata_svg__r)" d="M15.303 8.22c-.05-.031-.066-.095-.038-.141q.053-.086.142.004c.107.107.024.216-.104.137"/>
    <path fill="url(#automata_svg__s)" d="M15.044 8.343c-.048 0-.065-.038-.036-.084.028-.046.068-.084.088-.084s.037.038.037.084-.04.084-.089.084"/>
    <path fill="url(#automata_svg__t)" d="M15.133 8.54c0-.041.084-.116.187-.167.265-.132.312-.13.312.011 0 .07-.028.126-.062.127-.035 0-.147.024-.25.052s-.187.017-.187-.024"/>
    <path fill="url(#automata_svg__u)" d="M14.628 8.51c-.049 0-.065-.038-.037-.084s.068-.083.088-.083.037.037.037.083-.04.084-.088.084"/>
    <path fill="url(#automata_svg__v)" d="M14.788 9.188c-.255.162-.42.027-.34-.28.048-.187.064-.185.278.03.142.143.154.191.062.25"/>
    <path fill="url(#automata_svg__w)" d="M3.912 3.661C4.95 1.798 6.597.523 8.512.1c.802-.178 2.77-.105 3.497.13a7.2 7.2 0 0 1 2.522 1.399l.273.232-1.148.003c-1.244.002-1.603.08-2.563.553-1.164.575-1.768 1.245-3.068 3.408-.36.597-.705 1.155-.767 1.238-.105.142-.11.14-.068-.027.025-.099.005-.204-.045-.235-.054-.033-.07-.007-.043.066.054.142-.125.283-.203.16-.03-.045-.144-.111-.255-.146l-.202-.063.202-.12c.11-.066.145-.104.077-.086-.069.019-.175-.045-.235-.142-.066-.105-.093-.12-.068-.036.052.17-.197.287-.29.137-.035-.057-.094-.075-.13-.038s-.002.103.078.148c.178.1.19.24.02.24-.069 0-.125-.04-.125-.088 0-.049-.037-.065-.084-.036-.046.028-.109-.014-.14-.095-.032-.084-.014-.16.043-.18.054-.018.098-.07.098-.114 0-.045-.042-.056-.093-.024-.05.031-.116.02-.145-.026-.03-.046-.138-.11-.24-.142-.137-.042-.188-.025-.188.066 0 .068.047.141.104.162.083.03.083.06 0 .15-.086.09-.104.084-.104-.037 0-.08-.036-.125-.08-.097-.048.029-.044-.054.008-.205.09-.262.238-.419.238-.253 0 .051.038.07.084.041s.143.007.214.079c.15.15.285.17.285.042 0-.049-.037-.065-.084-.037-.046.03-.106-.006-.133-.078s-.103-.131-.166-.131-.116-.037-.116-.081-.057-.06-.125-.033c-.07.027-.125.007-.125-.044s.037-.093.082-.093.002-.094-.098-.21c-.19-.22-.317-.268-.317-.12 0 .05.033.068.074.043s.096.008.121.076c.07.182-.054.217-.305.086-.193-.1-.224-.1-.224.004 0 .067-.041.121-.092.121-.086 0-.076-.105.052-.557.025-.085-.025-.005-.109.176-.114.246-.172.301-.225.215-.045-.073-.034-.13.027-.15.112-.037.049-.186-.079-.186-.046 0-.061.035-.035.078.08.13-.107.187-.289.09-.191-.104-.137-.29.063-.213.105.04.11.026.026-.075-.122-.148-.05-.298.146-.3.12 0 .123-.012.017-.08-.086-.054-.145-.04-.192.044-.037.067-.105.122-.151.122-.047 0-.064-.034-.038-.075.025-.041-.007-.096-.072-.12-.151-.059-.254.202-.114.289.076.047.08.091.016.157-.065.065-.119.055-.192-.033-.104-.126-.1-.136.598-1.387"/>
    <path fill="url(#automata_svg__x)" d="M3.14 5.248a.084.084 0 0 1 0-.167.084.084 0 0 1 0 .167"/>
    <path fill="url(#automata_svg__y)" d="M3.66 5.618c-.046.073-.168-.145-.181-.323-.004-.044.047-.007.111.082.065.089.096.197.07.24"/>
    <path fill="url(#automata_svg__z)" d="M3.056 5.499a.084.084 0 0 1 0-.168.084.084 0 0 1 0 .168"/>
    <path fill="url(#automata_svg__A)" d="M4.056 5.791c-.046-.028-.083-.087-.083-.13s.037-.079.083-.079.083.06.083.13c0 .072-.037.108-.083.08"/>
    <path fill="url(#automata_svg__B)" d="M4.889 5.917c-.046 0-.084-.057-.084-.126s.038-.125.084-.125c.045 0 .083.056.083.125 0 .07-.038.126-.083.126"/>
    <path fill="url(#automata_svg__C)" d="M3.718 5.917c-.043 0-.079-.038-.079-.084s.059-.083.13-.083.107.037.079.083c-.029.046-.087.084-.13.084"/>
    <path fill="url(#automata_svg__D)" d="M4.306 5.917a.084.084 0 0 1 0-.167.084.084 0 0 1 0 .167"/>
    <path fill="url(#automata_svg__E)" d="M5.053 6.041c-.04-.025-.052-.104-.025-.174q.05-.126.13-.047c.096.096.004.289-.105.221"/>
    <path fill="url(#automata_svg__F)" d="M4.717 6.168c-.043 0-.078-.038-.078-.084s.058-.083.13-.083c.071 0 .106.037.078.083s-.087.084-.13.084"/>
    <path fill="url(#automata_svg__G)" d="M3.853 6.335c-.02 0-.06-.037-.089-.083s-.011-.084.037-.084c.049 0 .088.038.088.084s-.016.083-.036.083"/>
    <path fill="url(#automata_svg__H)" d="M5.43 6.933c-.044 0-.093-.04-.109-.09s.033-.09.109-.09.125.04.109.09c-.017.05-.066.09-.11.09"/>
    <path fill="url(#automata_svg__I)" d="M5.055 7.046c-.046-.028-.083-.087-.083-.13s.037-.079.083-.079.083.059.083.13-.037.108-.083.08"/>
    <path fill="url(#automata_svg__J)" d="M6.001 7.197c-.077.077-.208-.022-.151-.115.026-.043.083-.078.126-.078.09 0 .104.114.025.193"/>
    <path fill="url(#automata_svg__K)" d="M6.339 7.402a3 3 0 0 0 .1-.251c.028-.08.103-.147.167-.147.154 0 .147.16-.01.22-.069.027-.125.102-.125.166s-.04.116-.09.116-.069-.047-.042-.104"/>
    <path fill="url(#automata_svg__L)" d="M5.56 7.339a.086.086 0 0 1-.088-.084c0-.046.016-.083.036-.083s.06.037.088.083c.029.046.012.084-.036.084"/>
    <path fill="url(#automata_svg__M)" d="M6.144 8.046c-.043.027-.101.01-.13-.037-.029-.046.006-.085.077-.085.147 0 .168.05.053.122"/>
  </g>
  <defs>
    <linearGradient id="automata_svg__b" x1=".417" x2="8.526" y1="10" y2="19.822" gradientUnits="userSpaceOnUse">
      <stop offset=".448" stop-color="#f9c10d"/>
      <stop offset="1" stop-color="#a91c15"/>
    </linearGradient>
    <linearGradient id="automata_svg__c" x1="15.834" x2="23.438" y1="19.167" y2="13.282" gradientUnits="userSpaceOnUse">
      <stop offset=".38" stop-color="#f9c10d"/>
      <stop offset="1" stop-color="#a91c15"/>
    </linearGradient>
    <linearGradient id="automata_svg__d" x1="15.834" x2="23.438" y1="19.167" y2="13.282" gradientUnits="userSpaceOnUse">
      <stop offset=".38" stop-color="#f9c10d"/>
      <stop offset="1" stop-color="#a91c15"/>
    </linearGradient>
    <linearGradient id="automata_svg__e" x1="15.834" x2="23.438" y1="19.167" y2="13.282" gradientUnits="userSpaceOnUse">
      <stop offset=".38" stop-color="#f9c10d"/>
      <stop offset="1" stop-color="#a91c15"/>
    </linearGradient>
    <linearGradient id="automata_svg__f" x1="15.834" x2="23.438" y1="19.167" y2="13.282" gradientUnits="userSpaceOnUse">
      <stop offset=".38" stop-color="#f9c10d"/>
      <stop offset="1" stop-color="#a91c15"/>
    </linearGradient>
    <linearGradient id="automata_svg__g" x1="15.834" x2="23.438" y1="19.167" y2="13.282" gradientUnits="userSpaceOnUse">
      <stop offset=".38" stop-color="#f9c10d"/>
      <stop offset="1" stop-color="#a91c15"/>
    </linearGradient>
    <linearGradient id="automata_svg__h" x1="15.834" x2="23.438" y1="19.167" y2="13.282" gradientUnits="userSpaceOnUse">
      <stop offset=".38" stop-color="#f9c10d"/>
      <stop offset="1" stop-color="#a91c15"/>
    </linearGradient>
    <linearGradient id="automata_svg__i" x1="15.834" x2="23.438" y1="19.167" y2="13.282" gradientUnits="userSpaceOnUse">
      <stop offset=".38" stop-color="#f9c10d"/>
      <stop offset="1" stop-color="#a91c15"/>
    </linearGradient>
    <linearGradient id="automata_svg__j" x1="15.834" x2="23.438" y1="19.167" y2="13.282" gradientUnits="userSpaceOnUse">
      <stop offset=".38" stop-color="#f9c10d"/>
      <stop offset="1" stop-color="#a91c15"/>
    </linearGradient>
    <linearGradient id="automata_svg__k" x1="15.834" x2="23.438" y1="19.167" y2="13.282" gradientUnits="userSpaceOnUse">
      <stop offset=".38" stop-color="#f9c10d"/>
      <stop offset="1" stop-color="#a91c15"/>
    </linearGradient>
    <linearGradient id="automata_svg__l" x1="15.834" x2="23.438" y1="19.167" y2="13.282" gradientUnits="userSpaceOnUse">
      <stop offset=".38" stop-color="#f9c10d"/>
      <stop offset="1" stop-color="#a91c15"/>
    </linearGradient>
    <linearGradient id="automata_svg__m" x1="15.834" x2="23.438" y1="19.167" y2="13.282" gradientUnits="userSpaceOnUse">
      <stop offset=".38" stop-color="#f9c10d"/>
      <stop offset="1" stop-color="#a91c15"/>
    </linearGradient>
    <linearGradient id="automata_svg__n" x1="15.834" x2="23.438" y1="19.167" y2="13.282" gradientUnits="userSpaceOnUse">
      <stop offset=".38" stop-color="#f9c10d"/>
      <stop offset="1" stop-color="#a91c15"/>
    </linearGradient>
    <linearGradient id="automata_svg__o" x1="15.834" x2="23.438" y1="19.167" y2="13.282" gradientUnits="userSpaceOnUse">
      <stop offset=".38" stop-color="#f9c10d"/>
      <stop offset="1" stop-color="#a91c15"/>
    </linearGradient>
    <linearGradient id="automata_svg__p" x1="15.834" x2="23.438" y1="19.167" y2="13.282" gradientUnits="userSpaceOnUse">
      <stop offset=".38" stop-color="#f9c10d"/>
      <stop offset="1" stop-color="#a91c15"/>
    </linearGradient>
    <linearGradient id="automata_svg__q" x1="15.834" x2="23.438" y1="19.167" y2="13.282" gradientUnits="userSpaceOnUse">
      <stop offset=".38" stop-color="#f9c10d"/>
      <stop offset="1" stop-color="#a91c15"/>
    </linearGradient>
    <linearGradient id="automata_svg__r" x1="15.834" x2="23.438" y1="19.167" y2="13.282" gradientUnits="userSpaceOnUse">
      <stop offset=".38" stop-color="#f9c10d"/>
      <stop offset="1" stop-color="#a91c15"/>
    </linearGradient>
    <linearGradient id="automata_svg__s" x1="15.834" x2="23.438" y1="19.167" y2="13.282" gradientUnits="userSpaceOnUse">
      <stop offset=".38" stop-color="#f9c10d"/>
      <stop offset="1" stop-color="#a91c15"/>
    </linearGradient>
    <linearGradient id="automata_svg__t" x1="15.834" x2="23.438" y1="19.167" y2="13.282" gradientUnits="userSpaceOnUse">
      <stop offset=".38" stop-color="#f9c10d"/>
      <stop offset="1" stop-color="#a91c15"/>
    </linearGradient>
    <linearGradient id="automata_svg__u" x1="15.834" x2="23.438" y1="19.167" y2="13.282" gradientUnits="userSpaceOnUse">
      <stop offset=".38" stop-color="#f9c10d"/>
      <stop offset="1" stop-color="#a91c15"/>
    </linearGradient>
    <linearGradient id="automata_svg__v" x1="15.834" x2="23.438" y1="19.167" y2="13.282" gradientUnits="userSpaceOnUse">
      <stop offset=".38" stop-color="#f9c10d"/>
      <stop offset="1" stop-color="#a91c15"/>
    </linearGradient>
    <linearGradient id="automata_svg__w" x1="13.998" x2="3.852" y1="1.408" y2="7.206" gradientUnits="userSpaceOnUse">
      <stop offset=".469" stop-color="#f9c10d"/>
      <stop offset="1" stop-color="#a91c15"/>
    </linearGradient>
    <linearGradient id="automata_svg__x" x1="13.998" x2="3.852" y1="1.408" y2="7.206" gradientUnits="userSpaceOnUse">
      <stop offset=".469" stop-color="#f9c10d"/>
      <stop offset="1" stop-color="#a91c15"/>
    </linearGradient>
    <linearGradient id="automata_svg__y" x1="13.998" x2="3.852" y1="1.408" y2="7.206" gradientUnits="userSpaceOnUse">
      <stop offset=".469" stop-color="#f9c10d"/>
      <stop offset="1" stop-color="#a91c15"/>
    </linearGradient>
    <linearGradient id="automata_svg__z" x1="13.998" x2="3.852" y1="1.408" y2="7.206" gradientUnits="userSpaceOnUse">
      <stop offset=".469" stop-color="#f9c10d"/>
      <stop offset="1" stop-color="#a91c15"/>
    </linearGradient>
    <linearGradient id="automata_svg__A" x1="13.998" x2="3.852" y1="1.408" y2="7.206" gradientUnits="userSpaceOnUse">
      <stop offset=".469" stop-color="#f9c10d"/>
      <stop offset="1" stop-color="#a91c15"/>
    </linearGradient>
    <linearGradient id="automata_svg__B" x1="13.998" x2="3.852" y1="1.408" y2="7.206" gradientUnits="userSpaceOnUse">
      <stop offset=".469" stop-color="#f9c10d"/>
      <stop offset="1" stop-color="#a91c15"/>
    </linearGradient>
    <linearGradient id="automata_svg__C" x1="13.998" x2="3.852" y1="1.408" y2="7.206" gradientUnits="userSpaceOnUse">
      <stop offset=".469" stop-color="#f9c10d"/>
      <stop offset="1" stop-color="#a91c15"/>
    </linearGradient>
    <linearGradient id="automata_svg__D" x1="13.998" x2="3.852" y1="1.408" y2="7.206" gradientUnits="userSpaceOnUse">
      <stop offset=".469" stop-color="#f9c10d"/>
      <stop offset="1" stop-color="#a91c15"/>
    </linearGradient>
    <linearGradient id="automata_svg__E" x1="13.998" x2="3.852" y1="1.408" y2="7.206" gradientUnits="userSpaceOnUse">
      <stop offset=".469" stop-color="#f9c10d"/>
      <stop offset="1" stop-color="#a91c15"/>
    </linearGradient>
    <linearGradient id="automata_svg__F" x1="13.998" x2="3.852" y1="1.408" y2="7.206" gradientUnits="userSpaceOnUse">
      <stop offset=".469" stop-color="#f9c10d"/>
      <stop offset="1" stop-color="#a91c15"/>
    </linearGradient>
    <linearGradient id="automata_svg__G" x1="13.998" x2="3.852" y1="1.408" y2="7.206" gradientUnits="userSpaceOnUse">
      <stop offset=".469" stop-color="#f9c10d"/>
      <stop offset="1" stop-color="#a91c15"/>
    </linearGradient>
    <linearGradient id="automata_svg__H" x1="13.998" x2="3.852" y1="1.408" y2="7.206" gradientUnits="userSpaceOnUse">
      <stop offset=".469" stop-color="#f9c10d"/>
      <stop offset="1" stop-color="#a91c15"/>
    </linearGradient>
    <linearGradient id="automata_svg__I" x1="13.998" x2="3.852" y1="1.408" y2="7.206" gradientUnits="userSpaceOnUse">
      <stop offset=".469" stop-color="#f9c10d"/>
      <stop offset="1" stop-color="#a91c15"/>
    </linearGradient>
    <linearGradient id="automata_svg__J" x1="13.998" x2="3.852" y1="1.408" y2="7.206" gradientUnits="userSpaceOnUse">
      <stop offset=".469" stop-color="#f9c10d"/>
      <stop offset="1" stop-color="#a91c15"/>
    </linearGradient>
    <linearGradient id="automata_svg__K" x1="13.998" x2="3.852" y1="1.408" y2="7.206" gradientUnits="userSpaceOnUse">
      <stop offset=".469" stop-color="#f9c10d"/>
      <stop offset="1" stop-color="#a91c15"/>
    </linearGradient>
    <linearGradient id="automata_svg__L" x1="13.998" x2="3.852" y1="1.408" y2="7.206" gradientUnits="userSpaceOnUse">
      <stop offset=".469" stop-color="#f9c10d"/>
      <stop offset="1" stop-color="#a91c15"/>
    </linearGradient>
    <linearGradient id="automata_svg__M" x1="13.998" x2="3.852" y1="1.408" y2="7.206" gradientUnits="userSpaceOnUse">
      <stop offset=".469" stop-color="#f9c10d"/>
      <stop offset="1" stop-color="#a91c15"/>
    </linearGradient>
  </defs>
</svg>
