<svg xmlns="http://www.w3.org/2000/svg" fill="none" viewBox="0 0 20 20">
  <circle cx="10" cy="10" r="10" fill="#fff"/>
  <path fill="#000" d="M8.816 10.835c.114-.109.204-.239.265-.381a1.14 1.14 0 0 0-.265-1.283L4.237 4.783 2.5 6.448l3.71 3.555-3.71 3.556 1.737 1.664zm2.056-1.97 4.578-4.388-1.736-1.665-3.71 3.556-3.71-3.556-1.738 1.665 4.579 4.388c.24.23.554.345.868.345.315 0 .629-.115.869-.345m6.628 4.687-3.71-3.555 3.71-3.556-1.737-1.664-4.578 4.388a1.136 1.136 0 0 0 0 1.665l4.578 4.387zm-7.503.08 3.71 3.556 1.737-1.665-4.579-4.388a1.26 1.26 0 0 0-.868-.345c-.326 0-.638.124-.869.345L4.55 15.523l1.737 1.665z"/>
  <circle cx="15" cy="15" r="5" fill="#131419"/>
  <path fill="#F0B90B" fill-rule="evenodd" d="m13.41 14.348 1.59-1.59 1.59 1.59.925-.924L15 10.909l-2.515 2.515zm-1.577-.27-.924.924.924.923.923-.924zM15 17.244l-1.59-1.59-.925.924L15 19.094l2.515-2.515-.925-.924zm3.167-3.166-.923.924.923.923.924-.923zM15 14.064l.938.937-.938.938-.937-.938.162-.168.084-.078z" clip-rule="evenodd"/>
</svg>
