<svg xmlns="http://www.w3.org/2000/svg" fill="none" viewBox="0 0 29 25">
  <path fill="url(#beam_svg__a)" d="M0 6.25h28.57v6.25H0z"/>
  <path fill="url(#beam_svg__b)" d="M0 2a2 2 0 0 1 2-2h24.57a2 2 0 0 1 2 2v4.25H0z"/>
  <path fill="url(#beam_svg__c)" d="M0 18.75h28.57V23a2 2 0 0 1-2 2H2a2 2 0 0 1-2-2z"/>
  <path fill="url(#beam_svg__d)" d="M0 12.502h28.57v6.25H0z"/>
  <defs>
    <linearGradient id="beam_svg__a" x1="14.2" x2="14.2" y1="9.529" y2="16.501" gradientUnits="userSpaceOnUse">
      <stop stop-color="#FF6B6B"/>
      <stop offset=".33" stop-color="#FE1414"/>
      <stop offset=".6" stop-color="#8E0900"/>
    </linearGradient>
    <linearGradient id="beam_svg__b" x1="15.643" x2="15.643" y1="3.279" y2="10.251" gradientUnits="userSpaceOnUse">
      <stop stop-color="#BBDBFF"/>
      <stop offset=".33" stop-color="#139EDD"/>
      <stop offset=".6" stop-color="#B9F7EA"/>
    </linearGradient>
    <linearGradient id="beam_svg__c" x1="14.286" x2="14.286" y1="22.029" y2="29.001" gradientUnits="userSpaceOnUse">
      <stop stop-color="#BBFFCA"/>
      <stop offset=".33" stop-color="#48DD13"/>
      <stop offset=".6" stop-color="#008805"/>
    </linearGradient>
    <linearGradient id="beam_svg__d" x1="14.286" x2="14.286" y1="15.781" y2="22.753" gradientUnits="userSpaceOnUse">
      <stop stop-color="#F1E869"/>
      <stop offset=".33" stop-color="#FEA514"/>
      <stop offset=".6" stop-color="#FF4539"/>
    </linearGradient>
  </defs>
</svg>
