<svg xmlns="http://www.w3.org/2000/svg" fill="none" viewBox="0 0 20 20">
  <path fill="#231F20" fill-rule="evenodd" d="M7.945.216c-.552.116-1.614.505-2.36.864-1.142.55-1.55.848-2.586 1.888-3.152 3.163-3.87 7.46-1.915 11.464.88 1.804 2.539 3.504 4.297 4.406 2.954 1.515 6.007 1.549 9.02.1 2.61-1.255 4.428-3.406 5.32-6.294.372-1.204.372-4.09 0-5.294-.892-2.885-2.706-5.032-5.32-6.297C12.29.033 10.147-.246 7.945.216m5.63 5.944c1.896.889 1.439 2.284-1.002 3.053-2.261.712-5.453.615-7.413-.226-.406-.174-.72-.332-.698-.35s.46.02.973.085c1.299.165 3.854-.09 5.044-.502 1.51-.524 2.26-1.289 1.974-2.014-.235-.599-.072-.606 1.122-.046m.643 3.647c.94.367 1.772.988 1.973 1.47.802 1.933-3.8 3.497-8.409 2.858-1.137-.158-3.284-.767-3.408-.966-.037-.06.88-.084 2.039-.051 3.177.089 5.54-.449 6.675-1.52.589-.554.706-.946.458-1.536-.236-.563-.175-.586.672-.255" clip-rule="evenodd"/>
  <path fill="url(#beta-finance_svg__a)" d="M13.575 6.16c1.897.889 1.439 2.284-1.002 3.053-2.261.712-5.453.615-7.413-.226-.406-.174-.72-.332-.697-.35.022-.018.46.02.972.085 1.299.165 3.854-.09 5.044-.502 1.51-.524 2.26-1.289 1.974-2.014-.235-.599-.072-.606 1.122-.046"/>
  <path fill="url(#beta-finance_svg__b)" d="M14.218 9.807c.94.367 1.772.988 1.973 1.47.802 1.933-3.8 3.497-8.409 2.858-1.137-.158-3.284-.767-3.408-.966-.037-.06.88-.084 2.039-.051 3.177.089 5.54-.449 6.675-1.52.589-.554.706-.946.458-1.536-.236-.563-.175-.586.672-.255"/>
  <defs>
    <linearGradient id="beta-finance_svg__a" x1="4.303" x2="16.353" y1="10.569" y2="10.641" gradientUnits="userSpaceOnUse">
      <stop stop-color="#887BED"/>
      <stop offset="1" stop-color="#FCB19D"/>
    </linearGradient>
    <linearGradient id="beta-finance_svg__b" x1="4.303" x2="16.353" y1="10.569" y2="10.641" gradientUnits="userSpaceOnUse">
      <stop stop-color="#887BED"/>
      <stop offset="1" stop-color="#FCB19D"/>
    </linearGradient>
  </defs>
</svg>
