<svg xmlns="http://www.w3.org/2000/svg" fill="none" viewBox="0 0 20 20">
  <g clip-path="url(#bifrost_svg__a)">
    <circle cx="10" cy="10" r="10" fill="#fff"/>
    <path fill="#FF474C" fill-rule="evenodd" d="M10 20c5.523 0 10-4.477 10-10S15.523 0 10 0 0 4.477 0 10s4.477 10 10 10M9.697 5.47c1.394-.384 2.776.675 2.774 2.144q0 .263-.06.509a3 3 0 0 0-.782.108l-4.32 1.19-1.708-2.822zm3.555 2.145q0 .313-.064.611a3 3 0 0 1 2.202 2.898 2.996 2.996 0 0 1-2.186 2.892l-5.184 1.44-2.548-4.211 5.385-1.495a2.2 2.2 0 0 0 1.176-.81 2 2 0 0 0-.197.045L6.947 10.33 4.399 6.12 9.49 4.717c1.9-.523 3.765.922 3.762 2.898m-2.186 2.887a2.98 2.98 0 0 0 1.864-1.535 2.21 2.21 0 0 1 1.68 2.157 2.215 2.215 0 0 1-1.614 2.139l-4.614 1.281-1.709-2.822z" clip-rule="evenodd"/>
  </g>
  <defs>
    <clipPath id="bifrost_svg__a">
      <path fill="#fff" d="M0 0h20v20H0z"/>
    </clipPath>
  </defs>
</svg>
