<svg xmlns="http://www.w3.org/2000/svg" fill="none" viewBox="0 0 20 20">
  <g clip-path="url(#binaryx_svg__a)">
    <path fill="#000" d="M10 20c5.523 0 10-4.477 10-10S15.523 0 10 0 0 4.477 0 10s4.477 10 10 10"/>
    <path fill="#fff" d="M15.449 7.539c-.368-.379-.933-.531-1.401-.406l.067-.111q.159-.266.204-.558c.098-.628-.146-1.174-.651-1.459a1.55 1.55 0 0 0-.979-.165 1.36 1.36 0 0 0-.701-1.131c-.632-.347-1.481-.172-1.854.382-.054.08-.133.198-.785 1.543-.047-.829-.19-1.152-.477-1.403-.441-.385-.999-.509-1.53-.341-.492.155-.882.552-.995 1.011-.054.219-.056.489-.045 1.654.005.451.012 1.159.002 1.782a1.3 1.3 0 0 0-.378.243c-.122.11-.25.258-.416.481-.016.021-1.576 2.244-.985 4.367.202.724.746 1.711 2.193 2.301.96.392 1.75.54 2.4.54 1.567 0 2.315-.863 2.66-1.261q.047-.055.085-.095c.588-.601.849-1.408 1.079-2.121.107-.332.209-.646.332-.911.157-.338.833-1.014 1.281-1.461.451-.45.807-.806 1.011-1.119.389-.597.344-1.288-.115-1.762z"/>
    <path fill="#000B07" d="M15.162 7.821c-.319-.329-.859-.427-1.202-.218-.192.117-.589.434-1.21.938.287-.489.635-1.078 1.021-1.722q.119-.199.152-.413c.071-.457-.098-.85-.453-1.05-.356-.201-.873-.173-1.153.062a1.4 1.4 0 0 0-.216.255l.031-.072c.352-.804.056-1.322-.338-1.539-.45-.248-1.072-.129-1.329.255-.084.125-.341.613-1.513 3.069.053-2.131-.048-2.592-.344-2.851-.333-.291-.751-.385-1.147-.261-.361.114-.647.399-.727.725-.042.172-.044.467-.033 1.554.005.533.014 1.404-.005 2.101-.388.006-.699.423-.867.648-.314.421-1.389 2.336-.921 4.02.258.928.917 1.614 1.958 2.038.903.368 1.638.515 2.243.515 1.183 0 1.872-.561 2.364-1.128q.057-.066.101-.113c.522-.533.757-1.261.985-1.964.111-.344.216-.669.349-.956.186-.402.838-1.053 1.361-1.576.417-.417.778-.777.959-1.054.344-.527.19-.999-.068-1.265z"/>
    <mask id="binaryx_svg__b" width="10" height="12" x="5" y="4" maskUnits="userSpaceOnUse" style="mask-type:luminance">
      <path fill="#fff" d="M8.652 9.161c.052-.012.091-.056.114-.105.246-.517 1.966-4.151 2.155-4.431.177-.263 1.141-.236.707.757s-1.61 3.734-1.63 3.895.166.285.34.124 2.12-3.382 2.332-3.56c.129-.108.81-.165.709.482a.6.6 0 0 1-.081.215c-.308.515-1.846 3.089-1.857 3.223-.012.149.174.301.36.225.183-.075 2.064-1.681 2.444-1.912.212-.129.895.142.523.713s-1.978 1.878-2.359 2.699c-.422.91-.565 2.089-1.228 2.766-.387.395-1.182 1.794-4.107.601-3.149-1.284-1.145-4.633-.804-5.22.197-.34.385-.463.469-.411.182.113-.148.871.302.764.367-.087.137-4.488.227-4.855.062-.254.534-.551.978-.181.245.205.093 3.856.144 4.076.038.166.178.154.262.135"/>
    </mask>
    <g mask="url(#binaryx_svg__b)">
      <path fill="#70F167" d="M11.291 4.361 3.926 7.858V4.361z"/>
      <path fill="#70F167" d="M11.477 4.361 3.926 7.946v-.088l7.365-3.497z"/>
      <path fill="#6FF168" d="M11.663 4.361 3.926 8.035v-.089l7.551-3.585z"/>
      <path fill="#6FF069" d="M11.85 4.361 3.926 8.123v-.088l7.737-3.674z"/>
      <path fill="#6EF06A" d="m12.036 4.361-8.11 3.85v-.088l7.924-3.762z"/>
      <path fill="#6DF06B" d="M12.222 4.361 3.926 8.3v-.089l8.11-3.85z"/>
      <path fill="#6DF06C" d="M12.409 4.361 3.926 8.388V8.3l8.296-3.939z"/>
      <path fill="#6CEF6D" d="M12.595 4.361 3.926 8.477v-.089l8.483-4.027z"/>
      <path fill="#6BEF6E" d="M12.781 4.361 3.926 8.565v-.088l8.669-4.116z"/>
      <path fill="#6BEF6F" d="M12.968 4.361 3.926 8.654v-.089l8.855-4.204z"/>
      <path fill="#6AEE70" d="M13.154 4.361 3.926 8.742v-.088l9.042-4.293z"/>
      <path fill="#69EE71" d="m13.34 4.361-9.414 4.47v-.089l9.228-4.381z"/>
      <path fill="#69EE72" d="M13.527 4.361 3.926 8.919v-.088l9.414-4.47z"/>
      <path fill="#68EE73" d="m13.532 4.361.034.07-9.64 4.577v-.089l9.601-4.558z"/>
      <path fill="#67ED74" d="m13.566 4.431.034.072-9.674 4.593v-.088z"/>
      <path fill="#67ED75" d="m13.6 4.503.034.073-9.708 4.609v-.089z"/>
      <path fill="#66ED76" d="m13.634 4.576.034.072-9.742 4.625v-.088z"/>
      <path fill="#65ED77" d="m13.668 4.648.035.072-9.777 4.641v-.088z"/>
      <path fill="#65EC78" d="m13.703 4.72.034.072L3.926 9.45v-.089z"/>
      <path fill="#64EC79" d="m13.737 4.792.034.072-9.845 4.674V9.45z"/>
      <path fill="#63EC7A" d="m13.771 4.864.035.073-9.88 4.69v-.089z"/>
      <path fill="#63EB7B" d="m13.806 4.937.034.072-9.914 4.706v-.088z"/>
      <path fill="#62EB7C" d="m13.84 5.009.034.072-9.948 4.723v-.089z"/>
      <path fill="#61EB7D" d="m13.874 5.081.034.072-9.982 4.739v-.088z"/>
      <path fill="#61EB7E" d="m13.908 5.153.035.072L3.926 9.981v-.089z"/>
      <path fill="#60EA7F" d="m13.943 5.225.034.072-10.051 4.772v-.088z"/>
      <path fill="#5FEA80" d="m13.977 5.297.034.073-10.085 4.788v-.089z"/>
      <path fill="#5FEA81" d="m14.011 5.37.034.072-10.119 4.804v-.088z"/>
      <path fill="#5EE982" d="m14.045 5.442.035.072-10.154 4.821v-.089z"/>
      <path fill="#5DE983" d="m14.08 5.514.034.072-10.188 4.837v-.088z"/>
      <path fill="#5DE984" d="m14.114 5.586.034.072-10.222 4.853v-.088z"/>
      <path fill="#5CE985" d="m14.148 5.658.035.073L3.926 10.6v-.089z"/>
      <path fill="#5BE886" d="m14.183 5.731.034.072-10.291 4.885V10.6z"/>
      <path fill="#5BE887" d="m14.217 5.803.034.072-10.325 4.902v-.089z"/>
      <path fill="#5AE888" d="m14.251 5.875.034.072-10.359 4.918v-.088z"/>
      <path fill="#59E789" d="m14.285 5.947.035.072-10.394 4.935v-.089z"/>
      <path fill="#59E78A" d="m14.32 6.019.034.073-10.428 4.95v-.088z"/>
      <path fill="#58E78B" d="m14.354 6.092.034.072-10.462 4.967v-.089z"/>
      <path fill="#57E78C" d="m14.388 6.164.034.072-10.496 4.983v-.088z"/>
      <path fill="#57E68D" d="m14.422 6.236.035.072-10.531 5v-.089z"/>
      <path fill="#56E68E" d="m14.457 6.308.034.072-10.565 5.016v-.088z"/>
      <path fill="#55E68F" d="m14.491 6.38.034.072-10.599 5.033v-.089z"/>
      <path fill="#55E690" d="m14.525 6.452.035.073-10.634 5.048v-.088z"/>
      <path fill="#54E591" d="m14.56 6.525.034.072-10.668 5.064v-.088z"/>
      <path fill="#53E592" d="m14.594 6.597.034.072L3.926 11.75v-.089z"/>
      <path fill="#53E593" d="m14.628 6.669.034.072-10.736 5.097v-.088z"/>
      <path fill="#52E494" d="m14.662 6.741.035.072-10.771 5.114v-.089z"/>
      <path fill="#51E495" d="m14.697 6.813.034.073-10.805 5.129v-.088z"/>
      <path fill="#51E496" d="m14.731 6.886.034.072-10.839 5.146v-.089z"/>
      <path fill="#50E497" d="m14.765 6.958.034.072-10.873 5.162v-.088z"/>
      <path fill="#4FE398" d="m14.799 7.03.035.072-10.908 5.179v-.089z"/>
      <path fill="#4FE399" d="m14.834 7.102.034.072-10.942 5.195v-.088z"/>
      <path fill="#4EE39A" d="m14.868 7.174.034.073-10.976 5.211v-.089z"/>
      <path fill="#4DE29B" d="m14.902 7.247.035.072-11.011 5.227v-.088z"/>
      <path fill="#4DE29C" d="m14.937 7.319.034.072-11.045 5.243v-.088z"/>
      <path fill="#4CE29E" d="m14.971 7.391.034.072-11.079 5.26v-.089z"/>
      <path fill="#4CE29F" d="m15.005 7.463.034.072-11.113 5.276v-.088z"/>
      <path fill="#4BE1A0" d="m15.039 7.535.035.072L3.926 12.9v-.089z"/>
      <path fill="#4AE1A1" d="m15.074 7.607.034.073-11.182 5.308V12.9z"/>
      <path fill="#4AE1A2" d="m15.108 7.68.033.069v.004L3.926 13.077v-.089z"/>
      <path fill="#49E0A3" d="M15.141 7.841 3.926 13.165v-.088l11.215-5.324z"/>
      <path fill="#48E0A4" d="M15.141 7.93 3.926 13.254v-.089l11.215-5.324z"/>
      <path fill="#48E0A5" d="M15.141 8.018 3.926 13.342v-.088L15.141 7.93z"/>
      <path fill="#47E0A6" d="M15.141 8.106 3.926 13.431v-.089l11.215-5.324z"/>
      <path fill="#46DFA7" d="M15.141 8.195 3.926 13.519v-.088l11.215-5.325z"/>
      <path fill="#46DFA8" d="M15.141 8.283 3.926 13.608v-.089l11.215-5.324z"/>
      <path fill="#45DFA9" d="M15.141 8.372 3.926 13.696v-.088l11.215-5.325z"/>
      <path fill="#44DEAA" d="M15.141 8.46 3.926 13.784v-.088l11.215-5.324z"/>
      <path fill="#44DEAB" d="M15.141 8.549 3.926 13.873v-.089L15.141 8.46z"/>
      <path fill="#43DEAC" d="M15.141 8.637 3.926 13.961v-.088l11.215-5.324z"/>
      <path fill="#42DEAD" d="M15.141 8.726 3.932 14.047l-.006-.012v-.074l11.215-5.324z"/>
      <path fill="#42DDAE" d="M15.14 8.814 3.967 14.119l-.034-.072L15.14 8.726z"/>
      <path fill="#41DDAF" d="M15.14 8.903 4 14.191l-.034-.072L15.14 8.814z"/>
      <path fill="#40DDB0" d="M15.14 8.991 4.036 14.264 4 14.191l11.14-5.288z"/>
      <path fill="#40DDB1" d="M15.141 9.08 4.069 14.336l-.034-.072 11.106-5.273z"/>
      <path fill="#3FDCB2" d="m15.141 9.168-11.038 5.24-.034-.072L15.141 9.08z"/>
      <path fill="#3EDCB3" d="M15.141 9.256 4.137 14.48l-.034-.072 11.038-5.24z"/>
      <path fill="#3EDCB4" d="M15.141 9.345 4.172 14.552l-.035-.072 11.004-5.224z"/>
      <path fill="#3DDBB5" d="M15.14 9.433 4.207 14.625l-.034-.073L15.14 9.345z"/>
      <path fill="#3CDBB6" d="M15.141 9.522 4.24 14.697l-.034-.072 10.935-5.192z"/>
      <path fill="#3CDBB7" d="M15.141 9.61 4.275 14.769l-.035-.072 10.901-5.175z"/>
      <path fill="#3BDBB8" d="M15.141 9.699 4.309 14.841l-.034-.072L15.141 9.61z"/>
      <path fill="#3ADAB9" d="M15.141 9.787 4.343 14.913l-.034-.072 10.832-5.142z"/>
      <path fill="#3ADABA" d="m15.141 9.876-10.764 5.11-.034-.073 10.798-5.126z"/>
      <path fill="#39DABB" d="m15.141 9.964-10.73 5.094-.034-.072 10.764-5.11z"/>
      <path fill="#38D9BC" d="M15.141 10.053 4.446 15.13l-.034-.072 10.729-5.094z"/>
      <path fill="#38D9BD" d="M15.141 10.141 4.48 15.202l-.034-.072 10.695-5.077z"/>
      <path fill="#37D9BE" d="M15.141 10.229 4.514 15.274l-.034-.072 10.661-5.061z"/>
      <path fill="#36D9BF" d="M15.141 10.318 4.549 15.347l-.035-.073 10.627-5.045z"/>
      <path fill="#36D8C0" d="M15.141 10.406 4.583 15.419l-.034-.072 10.592-5.029z"/>
      <path fill="#35D8C1" d="M15.14 10.495 4.618 15.491l-.034-.072 10.558-5.013z"/>
      <path fill="#34D8C2" d="m15.14 10.583-10.488 4.98-.035-.072 10.524-4.996z"/>
      <path fill="#34D7C3" d="M15.141 10.672 4.686 15.635l-.034-.072 10.489-4.98z"/>
      <path fill="#33D7C4" d="M15.141 10.76 4.72 15.707l-.034-.072 10.455-4.963z"/>
      <path fill="#32D7C5" d="M15.141 10.849 4.754 15.78l-.034-.073 10.421-4.947z"/>
      <path fill="#32D7C6" d="M15.141 10.937 4.789 15.852l-.035-.072 10.387-4.931z"/>
      <path fill="#31D6C7" d="M15.14 11.026 4.824 15.924l-.034-.072 10.352-4.915z"/>
      <path fill="#30D6C8" d="M15.14 11.114 4.858 15.996l-.034-.072 10.318-4.898z"/>
      <path fill="#30D6C9" d="m15.141 11.203-10.2 4.842H4.88l-.023-.049 10.284-4.882z"/>
      <path fill="#2FD6CA" d="M15.141 11.291 5.127 16.045h-.186l10.2-4.842z"/>
      <path fill="#2ED5CB" d="m15.141 11.379-9.827 4.666h-.187l10.014-4.754z"/>
      <path fill="#2ED5CC" d="M15.141 11.468 5.5 16.045h-.186l9.827-4.666z"/>
      <path fill="#2DD5CD" d="m15.14 11.556-9.454 4.489H5.5l9.64-4.577z"/>
      <path fill="#2CD4CE" d="m15.141 11.645-9.268 4.4h-.187l9.455-4.489z"/>
      <path fill="#2CD4CF" d="m15.141 11.733-9.082 4.312h-.186l9.268-4.4z"/>
      <path fill="#2BD4D0" d="m15.141 11.822-8.896 4.223h-.186l9.082-4.312z"/>
      <path fill="#2AD4D1" d="m15.141 11.91-8.709 4.135h-.187l8.896-4.223z"/>
      <path fill="#2AD3D2" d="m15.14 11.999-8.522 4.046h-.186l8.709-4.135z"/>
      <path fill="#29D3D3" d="m15.141 12.087-8.337 3.958h-.186l8.523-4.046zm-8.337 3.958 8.337-3.958v3.958z"/>
    </g>
  </g>
  <defs>
    <clipPath id="binaryx_svg__a">
      <path fill="#fff" d="M0 0h20v20H0z"/>
    </clipPath>
  </defs>
</svg>
