<svg xmlns="http://www.w3.org/2000/svg" viewBox="0 0 43.2 47.5">
  <linearGradient id="binaryx_svg__a" x1="17.043" x2="28.257" y1="39.513" y2="10.123" gradientTransform="matrix(1 0 0 -1 0 48.478)" gradientUnits="userSpaceOnUse">
    <stop offset="0" stop-color="#f15f40"/>
    <stop offset="1" stop-color="#ef2356"/>
  </linearGradient>
  <path fill="url(#binaryx_svg__a)" d="m36.9 35.1-6 3.2L17 36.8l1.2-2-2-1.2c-1-.6-.6-5.8-.6-5.8-6.6-9.3-3.1-15.3-3.1-15.3C11 19.7 21.2 23 21.2 23c-2-4.6.8-7 .8-7 2.2 5.4 4.8 5.6 4.8 5.6l2.6.2 3.4-3.4c-2.8-4.4.6-7.8.6-7.8 1.6 6.4 5 6.4 5 6.4l5 .2L27.8 1.7c-2.2-2.2-5.8-2.2-8.1 0l-18 18c-2.2 2.2-2.2 5.8 0 8.1l18 18c2.2 2.2 5.8 2.2 8.1 0l9.9-9.9z"/>
  <linearGradient id="binaryx_svg__b" x1="20.95" x2="32.165" y1="41.004" y2="11.614" gradientTransform="matrix(1 0 0 -1 0 48.478)" gradientUnits="userSpaceOnUse">
    <stop offset="0" stop-color="#f15f40"/>
    <stop offset="1" stop-color="#ef2356"/>
  </linearGradient>
  <path fill="url(#binaryx_svg__b)" d="M26.7 27c.8-.3 1.7-.8 2.5-1.9.2-.2.4-.1.5.2.2.9.6 2.5-2.9 2.2-.3 0-.4-.4-.1-.5"/>
</svg>
