<svg xmlns="http://www.w3.org/2000/svg" fill="none" viewBox="0 0 20 20">
  <path fill="#fff" d="M9.846 19.692c5.438 0 9.846-4.408 9.846-9.846S15.284 0 9.846 0 0 4.408 0 9.846s4.408 9.846 9.846 9.846"/>
  <path fill="url(#biswap_svg__a)" d="M17.473 3.704c-.683.135-1.334.326-1.87.445-1.223.274-2.366 1.211-2.617 2.926-.222 1.533.294 2.192.068 3.974-.397 3.113-3.383 4.185-4.776 4.836-.806.373-2.763 1.23-4.272 1.886a9.844 9.844 0 0 0 15.686-7.925 9.8 9.8 0 0 0-2.144-6.13z"/>
  <path fill="url(#biswap_svg__b)" d="M8.738 8.401c.759-1.64.485-1.644 1.06-3.184.727-1.953 2.986-1.398 3.61-1.314 1.028.139 1.298-.227 3.465-.576q.16-.025.314-.044A9.83 9.83 0 0 0 9.847 0 9.84 9.84 0 0 0 .96 5.602c3.247.806 6.753 2.557 7.777 2.799m-2.15-6.686c.285.044 1.675 1.77 1.937 6.206 0 0-1.787-.43-2.172-1.35-.317-.759.096-1.755.235-4.856m10.946 1.981c.003.008.011.012.015.02-.023-.004-.051-.004-.075-.008.02-.008.04-.008.06-.012M0 9.846q.002-1.18.266-2.279c.357.298.738.628 1.143 1.005 2.565 2.378 6.738 4.256 8.258 2.509q.007.004.008.008c-.278.365-1.338 1.52-3.362 1.163l-3.2 4.776A9.82 9.82 0 0 1 0 9.846"/>
  <defs>
    <linearGradient id="biswap_svg__a" x1="15.759" x2="13.436" y1="6.283" y2="19.08" gradientUnits="userSpaceOnUse">
      <stop stop-color="#ff496a"/>
      <stop offset="1" stop-color="#e42648"/>
    </linearGradient>
    <linearGradient id="biswap_svg__b" x1="4.752" x2="9.888" y1="14.504" y2="0" gradientUnits="userSpaceOnUse">
      <stop offset=".002" stop-color="#1158f1"/>
      <stop offset="1" stop-color="#119bed"/>
    </linearGradient>
  </defs>
</svg>
