<svg xmlns="http://www.w3.org/2000/svg" viewBox="0 0 85 85">
  <circle cx="42.5" cy="42.5" r="42.5" fill="#5dcb79"/>
  <path fill="#FFF" d="M55.048 29.403c1.255 3.531.279 6.083-1.839 7.922 4.23-.041 7.321 1.704 8.149 7.137 1.03 6.746-3.452 9.745-10.384 11.905l1.722 6.927-4.182 1.046-1.699-6.836a153 153 0 0 1-3.35.803l1.709 6.867-4.179 1.043-1.728-6.939c-.98.238-1.981.47-2.995.722l-5.443 1.36-.41-5.196s3.106-.725 3.041-.759c1.183-.298 1.285-1.225 1.227-1.776l-2.724-10.951.442-.111c-.179.02-.333.053-.45.082l-1.945-7.817c-.372-.808-1.167-1.652-2.862-1.229.037-.07-3.037.76-3.037.76L23 29.903l5.77-1.439.006.021c.867-.217 1.752-.456 2.653-.701l-1.706-6.86 4.181-1.044 1.673 6.725c1.111-.301 2.23-.604 3.329-.879l-1.662-6.681L41.426 18l1.708 6.862c5.517-.877 10.206-.287 11.914 4.541m-2.16 16.301c-1.346-5.409-10.033-2.375-12.868-1.667l2.287 9.195c2.834-.711 11.874-2.342 10.581-7.528m-5.173-12.487c-1.226-4.921-8.457-2.318-10.818-1.728l2.075 8.339c2.361-.59 9.915-1.892 8.743-6.611"/>
</svg>
