<svg xmlns="http://www.w3.org/2000/svg" viewBox="0 0 85 85">
  <circle cx="42.5" cy="42.5" r="42.5" fill="#eab300"/>
  <path fill="#FFF" d="M53.7 41c2.5-1.8 4.2-3.7 4.2-7.4 0-5.8-5.8-8.6-9.4-8.9-.2-.1-1-.1-1-.1V19h-5.8v5.6h-3.9l.1-5.6H32l-.1 5.6h-7.2v5h2c2 0 2.8 1.2 2.8 2.1v21.6c0 .8-.6 1.4-1.3 1.4-.8.1-2.2 0-2.2 0l-1.1 5.7H32V66h5.9l-.1-5.6h3.9V66h5.8v-5.6h.4c6.6 0 12.4-4 12.5-10.3.1-5.2-4.4-8.3-6.7-9.1Zm-15.9-2.5V30h5.9c2.4.1 3.9 1.1 4.6 2.2.6.7.8 1.6.8 2.3 0 .7-.2 1.4-.3 1.7-.1.5-.4.9-.7 1.3-.4.5-.6.7-.9.9-.9.6-2.1 1.1-3.9 1.1 0 0-5.4.1-5.5.1v-1.1Zm13.1 12.6c-.2.5-.5 1-.8 1.4-.5.5-.7.7-1 .9-1 .7-2.3 1.2-4.2 1.3h-7.1V44.3h7c.2 0 .4.1.5.1 2.6.1 4.2 1.1 5 2.3.6.9.9 1.8.9 2.5 0 .8-.2 1.5-.3 1.9Z"/>
</svg>
