<svg xmlns="http://www.w3.org/2000/svg" viewBox="0 0 85 85">
  <circle cx="42.5" cy="42.5" r="42.5" fill="#F7931A"/>
  <path fill="#FFF" d="M58.74 37.353c.76-5.065-3.104-7.787-8.387-9.603l1.714-6.86-4.184-1.041-1.669 6.68c-1.1-.274-2.23-.532-3.352-.788l1.68-6.723-4.181-1.041-1.715 6.858a144.43 144.43 0 0 1-2.672-.627l.005-.021-5.77-1.438-1.113 4.46s3.104.71 3.039.754c1.694.422 2 1.541 1.95 2.428l-1.953 7.816c.117.03.268.072.435.139-.14-.035-.288-.073-.442-.11L29.39 49.184c-.207.514-.733 1.285-1.917.992.041.06-3.042-.757-3.042-.757l-2.077 4.78 5.445 1.354c1.013.254 2.006.519 2.983.769L29.05 63.26l4.18 1.041 1.714-6.865c1.142.31 2.25.595 3.335.864l-1.71 6.832 4.185 1.041 1.731-6.926c7.135 1.348 12.5.804 14.758-5.636 1.82-5.185-.09-8.177-3.844-10.127 2.733-.63 4.793-2.424 5.342-6.131Zm-9.56 13.379c-1.293 5.185-10.04 2.382-12.877 1.68l2.298-9.193c2.836.706 11.93 2.105 10.58 7.513Zm1.295-13.454c-1.18 4.717-8.461 2.32-10.823 1.733l2.083-8.338c2.362.588 9.968 1.684 8.74 6.605Z"/>
</svg>
