<svg xmlns="http://www.w3.org/2000/svg" viewBox="0 0 2500 2500">
  <circle cx="1250" cy="1250" r="1250" fill="#c1ff3c" fill-rule="evenodd" clip-rule="evenodd"/>
  <path fill-rule="evenodd" d="M2034 1163V989h-174V640h-174v349h-348v871h174v-697h174v697h348v-174h-174v-523h174zm-958 436c0 48-39 87-87 87H641v-349h348c48 0 87 39 87 87v175zm-87-349zM641 814h261c48 0 87 39 87 87v174c0 48-39 87-87 87H641V813v1zm465 415v-24c36-32 58-78 58-130V864c0-124-101-225-225-225H467v1220h552c128 0 232-104 232-232v-203c0-90-59-169-145-195z" clip-rule="evenodd"/>
</svg>
