<svg xmlns="http://www.w3.org/2000/svg" fill="none" viewBox="0 0 20 20">
  <path fill="#070904" d="M0 10C0 4.477 4.477 0 10 0s10 4.477 10 10-4.477 10-10 10S0 15.523 0 10"/>
  <g fill="#FF6E26" filter="url(#blur_svg__a)">
    <path d="M8.343 4.688H4.375v.375h4.357zm.509.522H4.375v.376h4.866zm-4.477.872v-.376h1.233v.376zm3.539-.376.214.228v.148h1.207v-.376zm-3.539.912v-.376h1.233v.376zm3.539 0 .214-.228v-.148h1.207v.376zm1.006.496H4.374v-.376h4.933zm0 .134H4.374v.375h4.933zm-4.545.872v-.376h1.233v.375zm3.539-.376.214.228v.147h1.207v-.375zm-3.539.911V8.28h1.233v.375zm3.539 0 .214-.228V8.28h1.207v.375zm.429 1.033H4.375v-.376h4.357zm.509-.523H4.375v-.376h4.866zm2.806-4.477h-1.233v.375h1.233zm0 .522h-1.233v.376h1.233zm0 .51h-1.233v.375h1.233zm0 .496h-1.233v.375h1.233zm0 .522h-1.233v.376h1.233zm0 .51h-1.233v.375h1.233zm0 .522h-1.233v.376h1.233zm.107.51h-1.34v.362h1.689zm-.871.871h3.995V8.79h-4.344zm.509.509h3.486V9.3h-3.834zm2.99.965h-3.968V11h4.356zm.509.523h-4.477v.375h4.866zm-4.477.872v-.376h1.233v.375zm3.539-.376.214.228v.147h1.207v-.375zm-3.539.911v-.375h1.233v.375zm3.539 0 .214-.228v-.147h1.207v.375zm1.005.496h-4.544v-.375h4.933zm0 .134h-4.544v.376h4.933zm-4.544.872v-.376h1.233v.376zm3.539-.376.214.228v.148h1.207v-.376zm-3.539.912v-.376h1.233v.376zm0 .496v-.376h1.233v.376zm0 .536v-.375h1.233v.375zm3.726-1.032v-.376h1.234v.376zm0 .496v-.376h1.234v.376zm0 .536v-.375h1.234v.375zm-8.543-5H4.375V11h1.233zm0 .523H4.375v.375h1.233zm0 .509H4.375v.376h1.233zm0 .496H4.375v.375h1.233zm0 .523H4.375v.375h1.233zm0 .509H4.375v.376h1.233zm0 .523H4.375v.375h1.233zm.107.51h-1.34v.361h1.689zm2.387-3.593h1.233V11H8.102zm0 .523h1.233v.375H8.102zm0 .509h1.233v.376H8.102zm0 .496h1.233v.375H8.102zm0 .523h1.233v.375H8.102zm0 .509h1.233v.376H8.102zm0 .523h1.233v.375H8.102zm-.108.51h1.34v.361H7.647zm1.206.509H4.497l.348.375H8.84zm-.495.509H4.992l.348.376h3.003z"/>
  </g>
  <path fill="#FF6E26" d="M8.343 4.688H4.375v.375h4.357zm.509.522H4.375v.376h4.866zm-4.477.872v-.376h1.233v.376zm3.539-.376.214.228v.148h1.207v-.376zm-3.539.912v-.376h1.233v.376zm3.539 0 .214-.228v-.148h1.207v.376zm1.006.496H4.374v-.376h4.933zm0 .134H4.374v.375h4.933zm-4.545.872v-.376h1.233v.375zm3.539-.376.214.228v.147h1.207v-.375zm-3.539.911V8.28h1.233v.375zm3.539 0 .214-.228V8.28h1.207v.375zm.429 1.033H4.375v-.376h4.357zm.509-.523H4.375v-.376h4.866zm2.806-4.477h-1.233v.375h1.233zm0 .522h-1.233v.376h1.233zm0 .51h-1.233v.375h1.233zm0 .496h-1.233v.375h1.233zm0 .522h-1.233v.376h1.233zm0 .51h-1.233v.375h1.233zm0 .522h-1.233v.376h1.233zm.107.51h-1.34v.362h1.689zm-.871.871h3.995V8.79h-4.344zm.509.509h3.486V9.3h-3.834zm2.99.965h-3.968V11h4.356zm.509.523h-4.477v.375h4.866zm-4.477.872v-.376h1.233v.375zm3.539-.376.214.228v.147h1.207v-.375zm-3.539.911v-.375h1.233v.375zm3.539 0 .214-.228v-.147h1.207v.375zm1.005.496h-4.544v-.375h4.933zm0 .134h-4.544v.376h4.933zm-4.544.872v-.376h1.233v.376zm3.539-.376.214.228v.148h1.207v-.376zm-3.539.912v-.376h1.233v.376zm0 .496v-.376h1.233v.376zm0 .536v-.375h1.233v.375zm3.726-1.032v-.376h1.234v.376zm0 .496v-.376h1.234v.376zm0 .536v-.375h1.234v.375zm-8.543-5H4.375V11h1.233zm0 .523H4.375v.375h1.233zm0 .509H4.375v.376h1.233zm0 .496H4.375v.375h1.233zm0 .523H4.375v.375h1.233zm0 .509H4.375v.376h1.233zm0 .523H4.375v.375h1.233zm.107.51h-1.34v.361h1.689zm2.387-3.593h1.233V11H8.102zm0 .523h1.233v.375H8.102zm0 .509h1.233v.376H8.102zm0 .496h1.233v.375H8.102zm0 .523h1.233v.375H8.102zm0 .509h1.233v.376H8.102zm0 .523h1.233v.375H8.102zm-.108.51h1.34v.361H7.647zm1.206.509H4.497l.348.375H8.84zm-.495.509H4.992l.348.376h3.003z"/>
  <defs>
    <filter id="blur_svg__a" width="17.01" height="16.938" x="1.375" y="1.688" color-interpolation-filters="sRGB" filterUnits="userSpaceOnUse">
      <feFlood flood-opacity="0" result="BackgroundImageFix"/>
      <feBlend in="SourceGraphic" in2="BackgroundImageFix" result="shape"/>
      <feGaussianBlur result="effect1_foregroundBlur_5226_43350" stdDeviation="1.5"/>
    </filter>
  </defs>
</svg>
