<svg xmlns="http://www.w3.org/2000/svg" fill="none" viewBox="0 0 20 20">
  <circle cx="10" cy="10" r="10" fill="#03001A"/>
  <path fill="#F3F3F3" fill-rule="evenodd" d="m9.848 5.988-.004-3.39h.312l.004 3.39zm3.652 5.651 2.86 1.696-.16.269-2.86-1.697zm-6.696.268-2.86 1.697-.159-.269 2.859-1.696z" clip-rule="evenodd"/>
  <path fill="#F3F3F3" fill-rule="evenodd" d="M9.845 5.685a.31.31 0 0 1 .315 0l3.335 1.954a.313.313 0 0 1 0 .54l-3.336 1.938a.31.31 0 0 1-.314 0L6.505 8.17a.313.313 0 0 1 0-.54zM7.284 7.9l2.719 1.585 2.714-1.578-2.715-1.59z" clip-rule="evenodd"/>
  <path fill="#F3F3F3" fill-rule="evenodd" d="M6.507 7.63a.31.31 0 0 1 .313 0l3.343 1.946a.31.31 0 0 1 .155.27v3.871a.313.313 0 0 1-.469.271l-3.338-1.931a.31.31 0 0 1-.156-.27L6.35 7.9c0-.111.06-.215.156-.27m.47.814.003 3.162 2.713 1.57v-3.15z" clip-rule="evenodd"/>
  <path fill="#F3F3F3" fill-rule="evenodd" d="M13.494 7.637a.31.31 0 0 1 .156.271v3.887c0 .111-.06.215-.156.27l-3.338 1.923a.313.313 0 0 1-.469-.27V9.846c0-.112.06-.215.156-.27l3.338-1.94a.31.31 0 0 1 .313 0m-3.181 2.39v3.15l2.712-1.563V8.451z" clip-rule="evenodd"/>
  <path fill="#F3F3F3" fill-rule="evenodd" d="m10 2.065 6.63 3.896v7.777L10 17.634l-6.629-3.896V5.96zm0 1.087L4.31 6.497v6.704L10 16.546l5.692-3.345V6.497z" clip-rule="evenodd"/>
  <path fill="#F3F3F3" d="m10 9.856-.194.335.194.114.194-.114zM3.655 6.57l6.15 3.62.39-.67L4.043 5.9zm6.539 3.62 6.17-3.62-.387-.671-6.17 3.62z"/>
  <path fill="#F3F3F3" fill-rule="evenodd" d="M10 9.387c.259 0 .469.21.469.469v7.234a.469.469 0 0 1-.938 0V9.856c0-.26.21-.47.469-.47" clip-rule="evenodd"/>
</svg>
