<svg xmlns="http://www.w3.org/2000/svg" viewBox="0 0 512 512">
  <circle cx="256" cy="256" r="256" fill="#fdde00"/>
  <path fill="#3c2d0c" d="M131.39 180.995s-13.237 16.669-8.825 92.169c0 0-28.925 74.029-19.12 111.779s48.045 35.789 48.045 35.789 61.283 53.928 108.348 6.373-39.221-231.892-39.221-231.892l-10.786-63.734s-11.766 9.315-10.295 70.597-24.023 18.14-24.023 18.14Z"/>
  <path fill="#e78c19" d="m136.292 247.67-16.178 45.594-5.883 31.867s-20.101 71.088 62.753 70.107c0 0 64.714 57.85 106.876 19.12l11.276-12.256 19.61-30.396 32.358-96.581s-10.296-66.185-75.5-93.64c0 0-5.393-2.941-15.198.98 0 0-26.964-60.791-44.124-53.437 0 0-14.707 7.844-1.96 67.655l-23.043 10.296s-25.203-47.785-48.535-38.24c-21.572 8.824-2.452 78.931-2.452 78.931Z"/>
  <path fill="#efb99d" d="m220.127 158.933 1.96 26.474s1.471 15.198 17.65 9.806c4.572-1.525 8.589-4.71 8.166-9.936-.317-3.914-3.05-7.458-4.828-10.835-3.33-6.322-5.996-13.03-9.867-19.052-1.981-3.092-6.06-10.01-10.63-9.203 0 0-3.37-.98-2.451 12.746Zm-70.873 29.722c.309-.202 6.895-8.547 20.59 11.675 13.697 20.223 12.318 17.557 12.318 17.557s7.354 8.09-7.722 18.477a47.816 47.816 0 0 1-10.666 5.959 19.684 19.684 0 0 1-7.418 1.42c-2.862-.136-4.15-1.597-4.857-4.29-2.317-8.826-4.927-17.603-6.25-26.645-.996-6.817-2.988-19.575 4.005-24.153Z"/>
  <path fill="#fbfbfb" d="M308.474 229.401c0 4.806-7.026 8.702-15.692 8.702s-15.693-3.896-15.693-8.702 7.174-11.882 15.841-11.882 15.544 7.076 15.544 11.882Z"/>
  <ellipse cx="208.44" cy="261.538" fill="#fbfbfb" rx="17.143" ry="10.954" transform="rotate(-60.493 208.44 261.538)"/>
  <path fill="#fbfbfb" d="m240.227 306.747 42.898-22.307s53.438-27.945 66.43-6.374 0 54.42 0 54.42-5.638 38.484-44.859 41.916l-21.08 2.942-26.965.735s-43.388 2.452-75.255-21.08l-10.05-12.257s-20.346-27.945-6.129-48.046 62.754 11.031 62.754 11.031 6.618 3.432 12.256-.98Z"/>
  <circle cx="337.544" cy="185.162" r="10.295" fill="#e72d36"/>
  <circle cx="314.747" cy="159.914" r="10.295" fill="#e72d36"/>
  <circle cx="278.222" cy="151.825" r="10.295" fill="#e72d36"/>
  <path fill="#e72d36" d="M286.312 78.776c2.206 30.396-2.182 57.85-9.56 57.85s-17.16-29.66-17.16-57.85c0-11.643 6.104-13.482 13.483-13.482s12.394 1.87 13.237 13.482Zm68.203 18.971c-11.21 28.337-27.083 51.162-33.73 47.959s-2.58-34.166 9.66-59.559c5.054-10.487 11.352-9.494 17.999-6.29s10.354 7.064 6.071 17.89Zm48.748 55.114c-24.675 17.904-50.326 28.652-54.214 22.38s16.17-30.225 40.132-45.09c9.897-6.14 14.678-1.922 18.567 4.35s4.942 11.52-4.485 18.36Z"/>
  <path d="M238.197 276.837c-.925.072-1.824.189-2.692.34a3.085 3.085 0 0 1 .17.966c0 3.137-4.878 5.694-11.02 5.866a3.46 3.46 0 0 0-.038.798c.294 3.796 6.852 6.383 14.647 5.778 7.795-.606 13.875-4.174 13.58-7.97-.295-3.796-6.852-6.383-14.647-5.778Zm54.235-13.42a28.8 28.8 0 0 0-2.692.339 3.085 3.085 0 0 1 .17.966c0 3.138-4.878 5.694-11.02 5.866a3.46 3.46 0 0 0-.038.798c.294 3.796 6.852 6.383 14.647 5.778 7.795-.605 13.875-4.173 13.58-7.97-.295-3.796-6.852-6.383-14.647-5.777Zm17.78 15.875s-21.51 6.25-20.224 18.385 27.21 18.384 27.21 18.384 6.986 2.758 11.03-3.86 9.928-15.627 8.274-28.497c0 0-.552-9.56-26.29-4.412Z"/>
</svg>
