<svg xmlns="http://www.w3.org/2000/svg" viewBox="0 0 512 512">
  <circle cx="256" cy="256" r="256" fill="#50832b"/>
  <path fill="#fff" d="M259.9 221.9S167.7 164.7 101 241c0-.1 57.8 75.6 158.9-19.1z"/>
  <path d="M163.3 272.3c-2.4 0-4.8-.1-7.2-.3-36.7-3-56.4-28.3-57.3-29.4l-1.4-1.8 1.5-1.7c15.6-17.8 33.8-29.9 54.3-36 16.3-4.9 34.1-5.9 52.7-3.1 31.6 4.8 54.5 18.9 55.5 19.4l3 1.9-2.6 2.4c-34.4 32.3-67.5 48.6-98.5 48.6zM104.6 241c5 5.6 23.1 23.2 52 25.6 30.7 2.5 63.9-12.3 98.6-44.1-7.3-3.9-26.5-13.3-50.4-16.9-17.8-2.7-34.7-1.7-50.2 3-18.7 5.4-35.5 16.3-50 32.4z"/>
  <path fill="#fff" stroke="#000" stroke-miterlimit="10" stroke-width="10" d="M428.3 183.1s-41.9-45.8-162.7 37.5l66.1 16.5h38.1l26.7-8.9 18.4-13.3 13.4-31.8z"/>
  <path d="M242.7 230.2c0 15.8-19.2 28.5-42.9 28.5s-42.9-12.8-42.9-28.5 19.2-28.5 42.9-28.5 42.9 12.7 42.9 28.5z"/>
  <path d="M162.8 276.1c-11 0-21.7-2-31.7-6-16.5-6.5-32.7-18.8-48-36.4-.8-.9-1.9-2.2-2.5-4-1.7-5.3 1.6-12.4 10.5-22.2 7.4-8.2 15.9-15.1 16.9-15.9 12.3-9.9 26.6-16.1 41.4-17.8 23.5-2.7 49.9 4.2 78.2 20.4 1.3.7 10.4 6.9 18.1 12.2 17.7 12.3 17.7 12.8 18 14.8l.3 1.9-1.3 1.4c-16.3 16.5-32 28.7-47.9 37.4-17.3 9.4-35 14.2-52 14.2zm-3.3-95.2c-3.2 0-6.2.2-9.3.5-13.3 1.5-26.3 7.1-37.4 16.1-.9.7-9 7.3-16 15.1-8 8.7-9.3 13.3-8.9 14.7.1.3.7 1 1 1.4 14.5 16.7 29.6 28.2 45 34.3 23.5 9.3 50.9 6.6 77.1-7.7 14.3-7.8 28.5-18.7 43.3-33.2-7.6-5.7-28.4-19.9-30.5-21.1-23.2-13.4-44.8-20.1-64.3-20.1z"/>
  <ellipse cx="320.9" cy="212.9" stroke="#000" stroke-miterlimit="10" stroke-width="14" rx="34.3" ry="18.3" transform="rotate(-8.811 320.859 212.893)"/>
  <path d="M348.9 241.4c-8.1 0-16.7-.6-25.8-1.7-22.6-2.8-45-8.8-64.2-14.1l2.1-7.4c-1.4-.4-2.4.2-2.4.2 2.6-1.6 15.5-16.1 21.8-23.1 4.6-5.2 6.9-7.7 7.8-8.5 26.4-24.2 49.8-38.7 73.5-45.6 11.8-3.5 23.2-4.6 33.7-3.5 4 .4 11.7 1.5 18.7 4 8.8 3.2 14 7.7 15.4 13.5 4.2 17.8 3.1 34.6-3.3 48.7-6.9 15.3-19.7 26.3-37 31.8-12.2 3.8-25.5 5.7-40.3 5.7zm-81-21.3c40.4 11 82.4 19.8 118.9 8.2 15.1-4.8 26.3-14.3 32.3-27.6 5.7-12.5 6.7-27.7 2.8-43.8-1-4.1-8.8-9.6-27.5-11.7-9.6-1-19.9 0-30.8 3.2-22.6 6.6-45 20.6-70.5 43.9-.7.6-4 4.3-7.2 8-4.4 4.9-9.8 11-14.4 15.9-1.3 1.5-2.5 2.8-3.6 3.9z"/>
  <path fill="#85492d" d="M353.1 272.8c-.5.2-1 .4-1.4.5-4.5 1.5-9.4 1.4-14.2 1.4-19.1-.3-38.2-.6-57.3-.8-8.4-.1-16.9-.2-25.1 1.6-15.3 3.5-28.2 13.4-41.5 21.8-20 12.5-36.2 12.9-58.9 11.2-4.2-.3-8.5-.6-12.5-2.1-3.6-1.4-6.7-3.7-10.2-5.3-8.7-4.1-19.3-3.8-27.7.8s-14.4 13.4-15.5 23c-2.1 16.8 10.5 32.6 25.9 39.6 17.4 7.9 36.7 6.7 55.2 6 4-.2 8.1-.3 11.9-1.6 2.7-.9 5.2-2.3 7.7-3.7 16.8-9.5 34.2-18.3 50.9-28 15-8.7 29.2-19.8 46.5-23.4 11.7-2.4 23.8-1.1 35.8-1.5 10.4-.3 21.1-1.9 30.9 1.6 3.7 1.3 7.2 3.3 11.1 3.4 2.7 0 5.3-.9 7.8-2 9.5-3.9 18.6-8.9 27-14.9 7.6-5.4 14.8-11.9 18.7-20.3 3.9-8.5 3.8-19.3-2.2-26.3-5.6-6.5-15.2-8.6-23.6-6.9-8.4 1.8-15.8 6.8-22.2 12.7-5.2 4.8-10.4 10.5-17.1 13.2z"/>
  <path d="M151.5 374.8c-13 0-26-1.2-38.3-6.8-8.4-3.8-15.9-10-21-17.4-5.7-8.2-8.2-17.3-7.1-26.1 1.3-10.7 8-20.6 17.5-25.8 9.5-5.2 21.4-5.6 31.2-1 1.6.7 3 1.6 4.5 2.4 1.9 1.1 3.6 2.1 5.4 2.8 3.5 1.3 7.5 1.6 11.4 1.9 20.8 1.5 37 1.6 56.6-10.7l7.5-4.8c10.9-7.1 22.1-14.5 35.2-17.4 8.7-2 17.5-1.8 26-1.7l57.3.8c4.4.1 9 .1 13-1.2.4-.1.8-.3 1.2-.4 4.8-1.9 8.8-5.7 13-9.8 1-1 2-1.9 3.1-2.9 8.2-7.5 16-11.9 24-13.6 10.5-2.2 21.2 1 27.3 8.1 6.5 7.7 7.7 19.9 2.8 30.4-4.7 10.2-13.6 17.3-19.9 21.8-8.6 6.2-18 11.3-27.8 15.3-2.7 1.1-5.8 2.3-9.2 2.3h-.1c-3.6 0-6.8-1.3-9.7-2.5-.9-.4-1.8-.7-2.7-1.1-7.2-2.6-15-2.1-23.3-1.7-2 .1-4.1.2-6.2.3-3.8.1-7.6.1-11.4 0-8.3-.1-16.1-.2-23.8 1.4-12.6 2.6-23.8 9.7-34.7 16.5-3.5 2.2-7 4.4-10.6 6.5-9.3 5.4-18.9 10.6-28.3 15.6-7.5 4-15.2 8.2-22.6 12.4-2.6 1.5-5.3 3-8.4 4-4.4 1.4-8.9 1.6-13 1.7l-2.9.1c-5.5.4-10.7.6-16 .6zm-32.3-72.7c-4.5 0-8.9 1.1-12.9 3.2-7.4 4-12.6 11.7-13.6 20.1-1.9 15.5 10.5 29.6 23.7 35.6 15.6 7.1 33.4 6.4 50.6 5.7l2.9-.1c3.7-.1 7.5-.3 10.9-1.4 2.4-.8 4.6-2.1 7-3.4 7.5-4.3 15.3-8.4 22.8-12.5 9.3-5 18.9-10.2 28.1-15.5 3.5-2 7-4.2 10.4-6.3 11.5-7.2 23.3-14.6 37.2-17.5 8.5-1.8 17.1-1.7 25.4-1.6 3.6 0 7.4.1 11 0l6-.3c8.7-.5 17.7-1 26.3 2.1 1 .4 2.1.8 3 1.2 2.4 1 4.7 1.9 6.8 1.9 2 0 4.2-.8 6.3-1.7 9.3-3.8 18.1-8.7 26.2-14.5 5.6-4 13.5-10.3 17.4-18.8 4.2-9.1 2.2-17.7-1.7-22.3-4.3-5-12.1-7.2-19.9-5.6-6.6 1.4-13.2 5.2-20.4 11.7-1 .9-2 1.9-3 2.8-4.6 4.3-9.3 8.8-15.4 11.3-.6.2-1.1.4-1.7.6-5.2 1.7-10.7 1.6-15.5 1.6l-57.3-.8c-8.1-.1-16.4-.2-24.2 1.5-11.7 2.7-22.4 9.6-32.7 16.4-2.5 1.6-5.1 3.3-7.6 4.9-21.5 13.5-39.7 13.4-61.2 11.8-4.2-.3-9-.7-13.6-2.4-2.4-.9-4.5-2.1-6.5-3.3-1.4-.8-2.6-1.5-3.9-2.1-3.1-1.5-7-2.3-10.9-2.3z"/>
  <path d="M112.8 317.1c.9 10.1 7.6 18.5 16.7 22.7 9.8 4.5 21 4.7 31.6 3.2 19.8-2.7 37.8-12.1 55.3-21 17.7-9 36.1-18.5 56.2-20.3 12.5-1.1 25.1-.1 37.7-.7 12.6-.6 25.2-2 37.7-4.3 22.2-4 53.6-11.7 55.5-39.3.3-4.2-6.3-4.2-6.6 0-.7 9.7-7.6 17.6-15.6 22.4-9.5 5.6-20.7 7.9-31.4 10-11.7 2.3-23.5 3.8-35.3 4.5-11.9.7-23.8.1-35.7.5-19.4.7-37.2 7.5-54.5 15.9-16.6 8.1-32.9 17.6-50.7 22.9-10.1 3-21.2 4.8-31.8 3.1-10.2-1.7-21.4-8.2-22.4-19.6-.4-4.2-7-4.3-6.7 0z"/>
  <path fill="#fff" d="M227.7 226.9h-.8c-1-.1-2 .1-2.9.6-2.2 1.1-3.3 3.6-2.7 6 .6 2.2 2.6 3.6 4.7 3.7 1.7.4 3.6-.2 4.8-1.6 1.3-1.4 1.6-3.3 1-5-.3-2-2-3.6-4.1-3.7zm-4.1-3.5c4.2.2 4.2-6.4 0-6.6-3.8-.2-7.6-.4-11.4-.5-1.9-.1-3.2 1.6-3.3 3.3l-1 14.4c-.3 4.2 6.3 4.2 6.6 0 .2-3.7.5-7.3.7-11 2.8.1 5.6.2 8.4.4zm113.5-12.8c.1-.8.2-1.7.4-2.5.4-2.4-1.2-4.3-3.6-4.1-1.9-1.1-4.6-.5-6.3.5-4.6 2.7-4.9 8.9-1 12.4.9.8 1.9 1.4 3 1.7.1 0 .5.2.9.2-.7 2-.1 4.7 1.1 6.3.9 1.3 2.3 2 3.8 2.1 1.3.3 2.9 0 3.8-1.3 3-4.1 3.1-9.2.9-13.6-.5-1.1-1.8-1.7-3-1.7zm1.4-25.1c-.6 2.3-1.1 4.5-1.7 6.8-1 4.1 5.3 5.9 6.3 1.7.6-2.3 1.1-4.5 1.7-6.8 1.1-4.1-5.3-5.8-6.3-1.7z"/>
</svg>
