<svg xmlns="http://www.w3.org/2000/svg" fill="none" viewBox="0 0 20 20">
  <circle cx="10" cy="10" r="10" fill="#22263A"/>
  <path fill="#02F3A2" d="M5.027 7.267a2.9 2.9 0 0 1 1.44.342 2.94 2.94 0 0 1 1.09 1.01c.089-.106.17-.21.258-.307a1.37 1.37 0 0 1 1.067-.393 1.36 1.36 0 0 1 .995.553c.276.44.5.911.668 1.404q.187.505.445.975a.37.37 0 0 0 .334.217.36.36 0 0 0 .334-.217c.145-.264.243-.551.292-.85.063-.424.197-.834.396-1.213.281-.503.7-.912 1.205-1.18a2.8 2.8 0 0 1 1.41-.345v.935c-1.194.056-1.936.997-1.909 1.838.027.84.764 1.707 1.908 1.748v.9c-.692.15-1.926-.396-2.48-1.29a1.34 1.34 0 0 1-1.1.665c-.817.06-1.247-.354-1.51-.949-.236-.534-.42-1.086-.632-1.626a1.7 1.7 0 0 0-.178-.343c-.194-.274-.526-.225-.75.102a2.6 2.6 0 0 0-.372 1.11 2.64 2.64 0 0 1-.83 1.532 2.9 2.9 0 0 1-1.433.77c-.204.043-.42.052-.652.08v-.965a1.83 1.83 0 0 0 1.383-.563A1.65 1.65 0 0 0 6.93 9.79c-.093-.714-.75-1.54-1.912-1.601z"/>
  <path fill="#02F3A2" d="M16.032 6.29v7.41H3.968V6.29zM17 5.33H3v9.333h14z"/>
</svg>
