<svg xmlns="http://www.w3.org/2000/svg" fill="none" viewBox="0 0 20 20">
  <circle cx="10" cy="10" r="10" fill="#5ddefe"/>
  <mask id="brett-based_svg__a" width="20" height="20" x="0" y="0" maskUnits="userSpaceOnUse" style="mask-type:alpha">
    <path fill="#5ddefe" fill-rule="evenodd" d="M10 20c5.523 0 10-4.477 10-10S15.523 0 10 0 0 4.477 0 10s4.477 10 10 10m.156-1.875a7.969 7.969 0 1 0 0-15.937 7.969 7.969 0 0 0 0 15.937" clip-rule="evenodd"/>
  </mask>
  <g mask="url(#brett-based_svg__a)">
    <path fill="#fff" d="M17.813 8.75h2.5v3.438h-2.5z"/>
  </g>
  <path fill="#0254fe" fill-rule="evenodd" d="M19.76 12.188C18.762 16.658 14.771 20 10 20 4.477 20 0 15.523 0 10S4.477 0 10 0c5.1 0 9.308 3.817 9.923 8.75H18a7.969 7.969 0 1 0-.137 3.438z" clip-rule="evenodd"/>
  <path fill="#02a9db" d="M7.407 4.508c.087.028.211.078.278.114.457.238.8.795.932 1.513.033.18.04.287.04.644 0 .28-.007.441-.02.465-.022.041-.095.082-.232.133-.05.016-.089.039-.089.048 0 .022.07.008.297-.06.291-.087.75-.173 1.271-.242.163-.02.444-.06.622-.083a7 7 0 0 1 1.267-.078c.429.01.533.027.865.134.52.163.952.456 1.249.843l.143.186-.087-.028c-.25-.078-.275-.082-.58-.084-.269-.002-.33.006-.506.049-.282.069-.785.28-.965.407-.08.056-.048.058.072.004a6 6 0 0 1 .305-.125c.554-.214.735-.25 1.176-.232.308.01.423.04.66.175.274.154.422.35.5.653l.035.132-.106-.07c-.547-.371-1.378-.479-2.09-.27-.393.113-.74.385-.886.694a.9.9 0 0 0-.054.508c.065.342.375.668.846.892.364.17.704.232 1.2.216.287-.01.346-.017.524-.067.191-.056.41-.151.52-.23l.05-.035v.06c0 .33-.7.566-1.568.532-.256-.011-.33-.022-.906-.152a1.2 1.2 0 0 0-.228-.041c-.01.009.286.11.447.15.062.015.245.05.409.079.269.044.328.048.63.039.379-.011.644-.06.884-.16a1 1 0 0 1 .16-.058c.018 0 .02.043.01.18a2 2 0 0 1-.014.187c-.01.014-.83.173-.978.19-.225.025-1.129.025-1.685.001l-.928-.037a32 32 0 0 1-.742-.037 87 87 0 0 0-1.643-.093c-.67-.036-1.074-.015-1.473.072-.377.084-.612.302-.614.572 0 .119.076.39.152.538.195.38.536.748.91.98.487.306 1.048.51 1.666.61.645.104.88.12 1.642.122.75 0 .816-.003 1.67-.102a9 9 0 0 0 .928-.166c.04-.01.076-.015.08-.01a.4.4 0 0 1-.045.096c-.438.761-1.054 1.193-2.084 1.46-.284.072-.685.107-1.43.122-.812.015-1.144-.02-1.65-.173-.711-.218-1.147-.486-1.69-1.044a4 4 0 0 1-.736-.974c-.42-.752-.592-1.385-.59-2.196.002-.497.041-.788.223-1.61.191-.868.249-1.205.25-1.47.002-.098.006-.178.01-.178a3 3 0 0 1 .157.104c.149.1.229.123.12.032a2.66 2.66 0 0 1-.713-.955c-.143-.322-.236-.774-.22-1.06.012-.2.067-.481.125-.632.225-.584.727-1.044 1.299-1.182.267-.063.276-.065.538-.058.191.004.26.013.39.056"/>
  <path fill="#02a9db" d="M13.583 5.106c.348.096.623.363.716.69.061.216.074.339.054.505-.028.218-.075.35-.212.592-.208.366-.252.461-.295.621a2 2 0 0 1-.048.166 1 1 0 0 1-.14-.102c-.328-.272-.628-.45-.925-.548a4 4 0 0 0-1.155-.167c-.174 0-.219-.006-.219-.026 0-.047.095-.28.204-.505.123-.247.335-.545.522-.735.202-.205.547-.415.78-.475.235-.061.532-.068.717-.016"/>
  <path fill="#fff" d="M13.697 8.754c.327.075.635.2.826.331.269.187.458.429.521.669.069.257-.017.52-.241.742-.208.205-.492.347-.883.436a1.8 1.8 0 0 1-.51.05 1.8 1.8 0 0 1-.52-.05q-.926-.215-1.221-.756c-.136-.242-.156-.432-.076-.648.052-.141.187-.323.324-.435.212-.173.657-.344.963-.369.236-.02.668-.005.817.03"/>
  <path fill="#151515" d="M6.636 4.396c-.334.067-.525.146-.76.315-.448.322-.767.808-.837 1.277a2.2 2.2 0 0 0-.019.707c.054.428.228.857.518 1.266l.144.205-.03.274c-.033.301-.092.61-.22 1.15-.356 1.49-.38 2.172-.111 3.12.057.199.126.383.237.618.047.102.085.188.085.192 0 .035.373.616.496.77.044.056.11.136.141.177.033.04.158.173.278.294a4.1 4.1 0 0 0 1.414.92c.23.087.624.182.932.223.312.041 1.006.045 1.425.01.501-.045.85-.08.861-.088.008-.004.091-.02.186-.037a3.03 3.03 0 0 0 1.601-.844q.291-.307.471-.668l.091-.179.138-.061c.291-.134.499-.328.616-.575.072-.15.128-.365.128-.488a.85.85 0 0 0-.104-.363.4.4 0 0 1-.045-.087c0-.01.049-.028.108-.04.295-.057.51-.17.61-.323.071-.105.077-.159.025-.296q-.072-.189-.346-.28c-.128-.04-.128-.04-.124-.106.002-.035.004-.14.006-.23.003-.163.005-.17.074-.261a.7.7 0 0 0 .108-.23c.031-.12.05-.15.146-.252a.74.74 0 0 0 .221-.399c.069-.296-.031-.599-.291-.87-.141-.148-.149-.159-.156-.254-.017-.177-.03-.225-.087-.339a1.2 1.2 0 0 0-.362-.4.5.5 0 0 1-.127-.115 2 2 0 0 0-.101-.177c-.092-.145-.093-.153-.082-.251.022-.19.107-.408.317-.8.041-.077.098-.208.126-.29.05-.137.054-.169.056-.418 0-.216-.007-.293-.035-.382-.106-.335-.29-.56-.555-.687-.214-.1-.343-.13-.57-.13-.399.002-.77.156-1.13.47-.315.275-.655.8-.781 1.203l-.056.17c-.017.043-.085.063-.215.063-.07 0-.273.022-.843.093-.146.019-.682.103-.965.15-.154.029-.48.101-.527.122-.038.015-.038.024.01-.281a3.07 3.07 0 0 0-.284-1.67c-.195-.376-.497-.681-.804-.813a1.4 1.4 0 0 0-.612-.125 2 2 0 0 0-.39.02m.77.112c.088.028.212.078.279.114.456.238.8.795.931 1.513.034.18.041.287.041.644 0 .28-.007.441-.02.465-.023.041-.095.082-.232.133-.05.016-.09.039-.09.048 0 .022.071.007.298-.06.29-.087.75-.173 1.27-.242.164-.02.444-.06.622-.083.516-.071.833-.09 1.268-.078.428.01.532.027.864.134.462.145.854.392 1.144.716q.056.061.105.127l.143.186-.087-.028c-.249-.078-.275-.082-.579-.084-.269-.002-.33.006-.506.049-.21.05-.542.181-.772.297a2 2 0 0 0-.194.11c-.08.056-.048.058.073.004.061-.028.197-.084.304-.125.555-.214.735-.25 1.177-.232.308.01.423.04.66.175.273.154.422.35.5.653l.035.132-.106-.07c-.547-.371-1.379-.479-2.091-.27a2 2 0 0 0-.214.079c-.3.137-.552.363-.671.615a.9.9 0 0 0-.054.508c.065.342.375.668.846.892.364.17.703.232 1.199.216.287-.01.347-.017.525-.067.19-.056.41-.151.52-.23l.05-.035v.06c0 .33-.7.566-1.569.532-.256-.011-.33-.022-.905-.152a1.2 1.2 0 0 0-.228-.041c-.01.009.285.11.447.15.061.015.245.05.408.079.27.044.329.048.631.039.379-.011.644-.06.883-.16a1 1 0 0 1 .16-.058c.018 0 .02.043.011.18a2 2 0 0 1-.015.187c-.01.014-.83.173-.978.19-.224.025-1.128.025-1.685.001l-.928-.037a32 32 0 0 1-.742-.037 88 88 0 0 0-1.642-.093c-.67-.036-1.075-.015-1.473.072-.377.084-.613.302-.615.572 0 .119.076.39.152.538.195.38.537.748.91.98a4.4 4.4 0 0 0 1.666.61c.646.104.88.12 1.642.122.75 0 .817-.003 1.67-.102a9 9 0 0 0 .928-.166c.041-.01.076-.015.08-.01a.4.4 0 0 1-.044.096 2.73 2.73 0 0 1-1.179 1.13q-.39.196-.905.33c-.284.072-.685.107-1.431.122-.811.015-1.143-.02-1.65-.173-.71-.218-1.147-.486-1.69-1.044a4 4 0 0 1-.735-.974c-.421-.752-.592-1.385-.59-2.196.002-.497.04-.788.222-1.61.192-.868.25-1.205.251-1.47.002-.098.006-.178.01-.178a3 3 0 0 1 .157.104c.148.1.228.123.119.032a2.66 2.66 0 0 1-.713-.955c-.143-.322-.235-.774-.219-1.061.011-.2.067-.48.125-.631.224-.585.727-1.044 1.299-1.182.267-.063.276-.065.538-.058.19.004.26.013.39.056m6.176.598q.141.04.264.113c.22.131.384.338.452.577.062.216.075.339.054.505-.028.217-.074.35-.211.592-.208.366-.253.461-.295.621a2 2 0 0 1-.049.166 1 1 0 0 1-.139-.102c-.328-.272-.629-.45-.926-.548a4.2 4.2 0 0 0-1.154-.168c-.175 0-.219-.005-.219-.025 0-.047.095-.28.204-.505.123-.247.334-.545.521-.735.203-.205.548-.415.78-.475.236-.061.532-.068.718-.016m.115 3.648c.327.075.635.2.826.331.269.187.458.429.521.669.069.257-.016.52-.24.742-.209.205-.493.347-.884.436a1.8 1.8 0 0 1-.51.05 1.8 1.8 0 0 1-.52-.05q-.925-.215-1.221-.756c-.136-.242-.156-.432-.076-.648.052-.141.187-.323.325-.435.211-.173.656-.344.963-.369.235-.02.668-.005.816.03m-4.546 2.908c1.234.09 2.169.126 3.34.13 1.028.004 1.156-.007 1.703-.147.256-.067.555-.024.685.099.07.065.117.17.117.264 0 .114-.072.195-.247.281-.428.21-.857.236-2.054.12l-.028-.003c-.21-.019-.524-.047-.714-.061a59 59 0 0 1-1.346-.112c-.03-.005-.276-.022-.547-.037l-.835-.048c-.468-.028-1.267-.014-1.538.026-.247.037-.403.1-.487.195-.074.084-.094.14-.094.266-.002.086.009.123.067.227.219.391.94.75 1.83.907.127.022.285.052.352.065.364.076 1.004.123 1.733.123.79 0 1.18-.04 1.67-.162.67-.171.986-.39 1.05-.735.023-.116 0-.227-.076-.378a1 1 0 0 1-.053-.132c0-.017.066-.025.246-.025.134-.001.26.002.277.008.074.022.182.292.182.45-.002.196-.136.535-.266.67a1.6 1.6 0 0 1-.671.414l-.195.065q-.255.095-.937.167a5 5 0 0 0-.297.038c-.02.005-.307.018-.633.028-1.216.039-2.156-.03-2.702-.198a7 7 0 0 0-.275-.082 3.7 3.7 0 0 1-1.13-.575 2.6 2.6 0 0 1-.688-.832 1 1 0 0 0-.045-.108c-.107-.223-.104-.467.008-.594.065-.076.27-.199.402-.24.097-.032.463-.1.61-.115.18-.017 1.101.005 1.586.04m.198.562c.284.011.58.028.655.037.076.01.32.026.539.037.218.011.52.032.668.047s.345.031.436.037c.263.019.571.065.617.097.071.045.134.203.134.331 0 .147-.044.24-.169.352-.211.192-.43.248-.918.229-.342-.011-.563-.05-.965-.17a6.3 6.3 0 0 1-1.141-.44 4.6 4.6 0 0 1-.63-.388c-.046-.039-.11-.087-.142-.111-.034-.023-.062-.05-.062-.06 0-.022.338-.022.978.002m-1.13.017a.7.7 0 0 1 .176.12 1 1 0 0 0 .13.105.4.4 0 0 1 .102.073c.114.093.25.173.58.336.148.073.29.146.319.16a.2.2 0 0 0 .074.027.2.2 0 0 1 .074.026c.028.014.132.054.232.085.1.034.211.071.247.086.076.03.254.078.37.1.035.007.088.02.136.032l.05.013c.238.063.496.091.758.08.54-.02.807-.156.972-.495l.06-.117-.032-.151a.6.6 0 0 0-.08-.214c-.043-.054-.045-.062-.015-.054.084.026.15.033.555.06.7.046.666.037.746.213a.6.6 0 0 1 .056.263.42.42 0 0 1-.104.285 1.6 1.6 0 0 1-.392.268c-.696.327-2.034.422-3.526.253-.571-.065-.959-.147-1.382-.294-.384-.132-.551-.21-.755-.35-.173-.119-.284-.234-.34-.356a.5.5 0 0 1-.04-.149q-.017-.141.153-.26c.145-.102.704-.194.876-.145"/>
  <path fill="#151515" d="M6.47 5.277c-.3.104-.494.326-.596.68a1.5 1.5 0 0 0 .07.943c.032.067.06.11.065.099.006-.013-.017-.077-.046-.14-.09-.184-.104-.262-.104-.536.002-.235.005-.26.06-.408a1 1 0 0 1 .26-.417c.275-.256.652-.284 1.071-.076.179.09.483.374.544.51.065.142.056.162-.085.225l-.182.082c-.03.013-.11.047-.176.073q-.777.3-1.086.56a1 1 0 0 1-.198.14c-.019 0-.034.007-.034.015s-.033.069-.074.132c-.249.387-.226.67.065.804a.6.6 0 0 0 .306.027c.23-.027.541-.132.9-.308.25-.123.659-.354.659-.374 0-.008-.17.074-.38.18-.55.28-.828.387-1.123.434-.175.03-.25.026-.35-.017-.13-.057-.18-.141-.177-.307.003-.177.074-.326.243-.514.23-.258.536-.431 1.36-.77.488-.203.505-.23.295-.486a2 2 0 0 0-.35-.344 1.3 1.3 0 0 0-.437-.213 1.1 1.1 0 0 0-.5.006m1.903 2.796c-.156.018-.37.052-.473.074a3 3 0 0 0-.262.07c-.11.034-.193.067-.185.08.007.012.375-.044.436-.066a5 5 0 0 1 .343-.058c.334-.046.627-.056.863-.026.265.036.63.159.919.311.19.1.386.339.454.555.037.113.056.026.024-.103a.85.85 0 0 0-.337-.47 1.6 1.6 0 0 0-.227-.138c-.29-.145-.503-.205-.874-.246-.234-.026-.336-.024-.68.017"/>
  <path fill="#007593" d="M11.578 6.863c-.174 0-.219-.006-.219-.026 0-.047.095-.28.204-.505.123-.247.335-.545.522-.735.202-.205.547-.415.78-.475.235-.061.532-.068.717-.016q.142.04.264.113c-.341.01-.841.32-1.049.473-.408.216-.683.887-.77 1.196a4 4 0 0 0-.449-.025M7.407 4.508c.087.028.211.078.278.114-.018.294-.1.878-.278.862a1.3 1.3 0 0 0-.436-.213 1.1 1.1 0 0 0-.501.006c-.3.104-.494.326-.596.68a1.5 1.5 0 0 0 .07.943c.032.067.06.11.065.099l.025.028a1 1 0 0 1-.075.132c-.248.387-.226.67.065.804a.6.6 0 0 0 .306.027c-.206.605-.58 1.988-.565 2.689.053 2.58 1.478 4.063 2.479 4.996-.711-.218-1.147-.486-1.69-1.044a4 4 0 0 1-.736-.974c-.42-.752-.592-1.385-.59-2.196.002-.497.041-.788.223-1.61.191-.868.249-1.205.25-1.47.002-.098.006-.178.01-.178a3 3 0 0 1 .157.104c.149.1.229.123.12.032a2.66 2.66 0 0 1-.713-.955c-.143-.322-.236-.774-.22-1.061.012-.2.067-.48.125-.631.225-.585.727-1.044 1.299-1.182.267-.063.276-.065.538-.058.191.004.26.013.39.056"/>
  <path fill="#007593" d="M8.374 8.073a6 6 0 0 0-.474.074 3 3 0 0 0-.261.07c.074-.123.766-.405 1.475-.349.567.045.93.4 1.041.572a1.6 1.6 0 0 0-.226-.138c-.29-.145-.503-.205-.874-.246-.234-.026-.336-.024-.681.017m5.513-.134.143.186-.087-.028c-.25-.078-.275-.082-.58-.084-.269-.002-.33.006-.506.049-.21.05-.542.181-.772.297.249-.233.936-.667 1.697-.547q.056.061.105.127m.647 1.066c-.547-.37-1.378-.478-2.09-.27a2 2 0 0 0-.214.08c.196-.174.74-.503 1.352-.433s.89.445.952.623m-1.161 5.175c.04-.01.076-.015.08-.01a.4.4 0 0 1-.045.096 2.73 2.73 0 0 1-1.038 1.053c.255-.207.632-.785.817-1.097z"/>
  <path fill="#7d0448" d="M8.219 12.24c.033.01.111.066.176.122a1 1 0 0 0 .13.104.4.4 0 0 1 .102.073c.113.093.25.173.58.336.148.073.29.146.318.16.026.015.06.027.075.027a.2.2 0 0 1 .074.026c.028.014.131.054.232.085.1.034.211.071.246.086.077.03.255.078.372.1.046.01.13.03.185.045.238.063.496.091.757.08.54-.02.808-.156.973-.495l.06-.117-.033-.151a.6.6 0 0 0-.08-.214c-.042-.054-.044-.062-.014-.054.083.026.15.033.555.06.7.046.666.037.746.213.089.205.072.416-.049.548a1.6 1.6 0 0 1-.391.268c-.696.327-2.034.422-3.526.253-.571-.065-.96-.147-1.382-.294-.384-.132-.551-.21-.756-.35-.24-.166-.361-.324-.38-.505q-.017-.141.154-.26c.145-.103.703-.194.876-.145"/>
  <path fill="#550236" d="m12.498 12.872-.031-.151a.6.6 0 0 0-.08-.214c-.043-.054-.045-.062-.015-.054.083.026.15.033.555.06.7.046.666.037.746.213a.6.6 0 0 1 .056.263c-.17-.13-.891-.132-1.23-.117m-4.28-.632c.033.01.111.066.176.122a1 1 0 0 0 .13.104.4.4 0 0 1 .102.073c.113.093.25.173.58.336.148.073.29.146.318.16.026.015.06.027.075.027a.2.2 0 0 1 .074.026c.028.014.131.054.232.085.1.034.211.071.246.086.077.03.255.078.372.1l.135.032c-.919.063-2.492-.78-2.77-.82-.223-.034-.532.136-.66.224a.5.5 0 0 1-.04-.149q-.017-.141.154-.26c.145-.103.703-.194.876-.145"/>
  <path fill="#dd338b" d="M9.349 12.224c.284.011.579.028.655.037.076.01.32.026.538.037.22.011.52.032.668.047s.345.031.436.037c.264.019.572.065.618.097.07.045.134.203.134.331 0 .147-.045.24-.169.352-.211.192-.43.248-.918.229-.342-.011-.563-.05-.966-.17a6.3 6.3 0 0 1-1.14-.44 4.6 4.6 0 0 1-.63-.388c-.046-.039-.111-.087-.143-.111-.033-.023-.06-.05-.06-.06 0-.022.337-.022.977.002"/>
  <path fill="#e42c8a" d="M9.15 11.662c1.235.09 2.17.126 3.34.13 1.029.004 1.157-.007 1.704-.147.256-.067.555-.024.685.099.07.065.117.17.117.264 0 .114-.072.195-.247.281-.429.21-.857.236-2.054.12l-.028-.003c-.21-.019-.524-.047-.714-.061a59 59 0 0 1-1.346-.112c-.03-.005-.276-.022-.547-.037l-.835-.048c-.468-.028-1.268-.014-1.539.026-.246.037-.402.1-.486.195-.074.084-.094.14-.094.266-.002.086.009.123.066.227.22.391.941.75 1.83.907.128.022.286.052.353.065.363.076 1.004.123 1.733.123.79 0 1.18-.04 1.67-.162.67-.171.985-.39 1.05-.735.023-.116 0-.227-.076-.378a1 1 0 0 1-.053-.132c0-.017.066-.025.246-.025.134-.001.26.002.277.008.074.022.182.292.182.45-.002.196-.136.535-.266.67a1.6 1.6 0 0 1-.671.414c-.071.022-.16.052-.195.065q-.255.095-.937.167a5 5 0 0 0-.297.038c-.02.005-.307.018-.633.028-1.216.039-2.156-.03-2.702-.198a7 7 0 0 0-.275-.082 3.7 3.7 0 0 1-1.13-.575 2.6 2.6 0 0 1-.688-.832 1 1 0 0 0-.045-.108c-.107-.223-.104-.467.008-.594.065-.076.27-.199.402-.24.097-.032.462-.1.609-.115.18-.017 1.102.005 1.587.04"/>
  <path fill="#151515" d="M6.469 5.277c-.299.104-.494.326-.596.68a1.5 1.5 0 0 0 .07.943c.032.067.06.11.066.099a.4.4 0 0 0-.047-.14c-.089-.184-.104-.262-.104-.536.002-.235.006-.26.06-.408.072-.19.144-.307.261-.417.275-.256.652-.284 1.071-.076.178.09.482.374.544.51.065.142.055.162-.086.225l-.181.082c-.03.013-.11.047-.177.073q-.777.3-1.085.56a1 1 0 0 1-.199.14c-.018 0-.033.007-.033.015s-.034.069-.075.132c-.248.387-.226.67.065.804.206.095.648-.007 1.207-.281.25-.123.658-.354.658-.374 0-.008-.17.074-.38.18-.55.28-.828.387-1.123.434-.174.03-.25.026-.349-.017-.131-.057-.18-.141-.178-.307.004-.177.074-.326.243-.514.23-.258.537-.431 1.36-.77.489-.203.505-.23.296-.486-.243-.3-.501-.482-.787-.557a1.1 1.1 0 0 0-.501.006"/>
  <path fill="#df3184" d="M6.009 6.999a.4.4 0 0 0-.047-.14c-.089-.184-.104-.262-.104-.536.002-.235.006-.26.06-.408.072-.19.145-.307.261-.417.275-.256.652-.284 1.071-.076.178.09.483.374.544.51.065.142.056.162-.085.225l-.182.082c-.03.013-.11.047-.177.073q-.777.3-1.085.56a1 1 0 0 1-.199.14c-.018 0-.033.007-.033.015z"/>
  <path fill="#151515" d="M8.455 8.602c-.488.065-.911.25-1.136.504a.8.8 0 0 0-.223.415c-.031.136-.031.142.01.296.022.088.068.205.104.264.066.108.237.282.384.388.11.078.391.217.517.256a3 3 0 0 0 1.151.153c.275-.01.447-.039.724-.123.087-.028.087-.028.035.028-.065.07-.356.24-.538.313-.405.164-.97.221-1.39.143a8 8 0 0 1-.353-.08 2.2 2.2 0 0 1-.566-.272c-.128-.096-.139-.104-.139-.072 0 .115.542.424.867.491.22.047 1.033.047 1.249 0 .361-.078.736-.277.992-.527a4 4 0 0 1 .28-.242c.166-.122.279-.249.36-.4.064-.115.066-.126.066-.314-.002-.187-.004-.203-.07-.337-.08-.172-.207-.313-.407-.458-.292-.209-.551-.319-.954-.397a3.6 3.6 0 0 0-.963-.03m.85.057c.332.05.415.078.792.266.295.146.512.345.624.572a.5.5 0 0 1 .072.314c0 .203-.045.313-.187.477-.117.134-.218.203-.446.315-.269.132-.445.175-.939.227a1.1 1.1 0 0 1-.399-.008l-.365-.06a1.4 1.4 0 0 1-.438-.133c-.29-.133-.448-.235-.598-.39-.219-.225-.286-.381-.269-.627.013-.199.074-.318.252-.499.123-.122.171-.154.377-.255.258-.126.382-.167.588-.191a.7.7 0 0 0 .147-.026c.022-.023.612-.008.789.018"/>
  <path fill="#fff" d="M9.304 8.66c.333.05.416.077.793.265.295.146.512.345.623.572a.5.5 0 0 1 .073.314c0 .203-.045.313-.188.477-.117.134-.217.203-.445.314-.27.133-.445.175-.94.228-.186.02-.238.02-.398-.008l-.366-.06a1.4 1.4 0 0 1-.438-.133c-.289-.133-.447-.235-.597-.39-.219-.225-.286-.381-.27-.627.014-.199.075-.318.253-.499.123-.122.171-.154.377-.255.258-.126.382-.167.588-.191a.7.7 0 0 0 .147-.026c.022-.023.612-.008.788.018"/>
  <path fill="#151515" d="M8.621 8.992c-.16.032-.206.053-.373.164a.75.75 0 0 0-.298.328c-.041.082-.047.12-.047.264 0 .15.006.18.058.287.215.437.874.636 1.412.426a.88.88 0 0 0 .486-.432.5.5 0 0 0 .061-.262.45.45 0 0 0-.059-.26 1 1 0 0 0-.126-.2 1.2 1.2 0 0 0-.47-.289 1.7 1.7 0 0 0-.644-.026m.711.42c.041.03.08.074.087.094a.21.21 0 0 1-.068.214c-.052.045-.073.05-.158.043a.27.27 0 0 1-.236-.143c-.03-.05-.03-.067-.01-.116.059-.143.25-.19.385-.093m3.707-.305c-.288.065-.486.17-.63.33-.142.158-.18.236-.19.402-.013.178.018.26.16.417.168.188.396.268.743.264.353-.004.624-.112.845-.335.261-.265.272-.607.025-.847-.213-.209-.617-.307-.953-.231m.709.4q.135.06.076.179c-.054.112-.225.17-.353.119-.08-.032-.108-.069-.108-.14 0-.068.034-.104.149-.156.104-.047.137-.048.236-.002"/>
  <path fill="#f37db1" d="M12.302 12.884c.031.098-.125.236-.35.308s-.431.052-.462-.045c-.032-.098.164-.04.388-.113.225-.073.393-.247.424-.15"/>
</svg>
