<svg xmlns="http://www.w3.org/2000/svg" fill="none" viewBox="0 0 20 20">
  <g clip-path="url(#buildon_svg__a)">
    <mask id="buildon_svg__b" width="20" height="20" x="0" y="0" maskUnits="userSpaceOnUse" style="mask-type:alpha">
      <circle cx="10" cy="10" r="10" fill="#fff"/>
    </mask>
    <g mask="url(#buildon_svg__b)">
      <path fill="#317037" d="M20 .013v10.02a.96.96 0 0 0-.68.053c.002-.244-.015-.535-.11-.763-.144-.352-.52-.39-.821-.201-.025.015-.135.117-.155.111-.067-.086-.189-.229-.306-.226-.038 0-.127.026-.128.073 0 .053.099.027.138.036.047.01.133.106.159.148.033.055.038.175.098.183.08.011.099-.081.152-.128.227-.198.594-.272.738.062.072.164.107.48.095.655-.005.072-.038.185-.035.243.001.022.008.043.028.053.086.043.199-.12.284-.155a.7.7 0 0 1 .542.016v1.705c-.076.013-.143.053-.209.09a1.9 1.9 0 0 0-.63.556c-.05.024-.102-.007-.151-.006-.075.002-.132.05-.202.066a1.5 1.5 0 0 0-.293-.413c-.27-.274-.73-.505-1.06-.194-.394.37-.331.968-.386 1.453-.014.128-.088.092-.187.134a.24.24 0 0 0-.14.126c-.026.057-.074.195.032.172.017-.038.055-.127.082-.152.05-.043.181-.043.244-.076.172-.092.107-.41.115-.577.017-.306.137-.893.431-1.049.346-.182.84.268 1.001.55.03.053.071.2.1.233.025.028.074.027.102.007.027-.019.025-.066.047-.087a1 1 0 0 1 .116-.058c.065-.013.09.038.143.038.102 0 .152-.14.206-.207.096-.118.307-.281.438-.361.061-.038.135-.075.202-.098V20h-4.383c.021-.076.097-.116.147-.167.055-.057.072-.111.167-.152.058-.025.153-.026.173-.108.017-.069-.08-.38-.087-.487-.026-.396.1-.896.594-.821.355.053.823.344 1.03.635.039.053.107.257.188.134.053-.081.027-.214.18-.222.107-.005.178.167.219.248.138.042.106-.091.154-.166.074-.114.312-.185.442-.21.037-.007.1.023.127-.033.042-.084-.064-.104-.128-.102-.09.003-.317.08-.396.125a.6.6 0 0 0-.154.14c-.035.008-.1-.085-.133-.105-.153-.088-.275-.001-.385.105l-.297-.306c-.69-.528-1.584-.632-1.59.499 0 .174.072.357.095.526-.073-.005-.162.062-.22.107-.082.066-.124.135-.185.208-.038.046-.101.087-.115.152H.013V.013zM6.13 1.6h-.194c-.063 0-.14.101-.153.16-.02.012-.06-.045-.08-.06-.427-.298-.925-.386-1.39-.111-.183.109-.363.295-.431.501-.014.042-.069.227-.023.242.02.005.038.004.052-.012.027-.027.08-.201.108-.252.302-.553 1.056-.635 1.554-.294.052.036.15.166.205.173.175.022.037-.227.278-.213.066.003.201.092.231-.01.021-.07-.058-.27-.064-.37-.037-.616.915-.792 1.202-.256.108.203.101.542.014.752-.03.07-.17.18-.111.252.061.075.134-.038.175-.068.147-.104.388-.07.53.027.042.028.09.118.155.06.064-.059-.024-.138-.07-.172-.146-.11-.36-.129-.536-.109.158-.453.025-1.022-.48-1.165-.415-.118-.966.085-1.011.561a.8.8 0 0 0 .038.365zm8.887.44a1.2 1.2 0 0 0-.123-.524c-.364-.693-1.196-.696-1.663-.11a2 2 0 0 0-.293.554c-.142-.055-.347-.095-.49-.03-.04.02-.242.164-.19.217.09.017.116-.06.196-.092.098-.04.253-.027.356 0 .067.016.126.081.208.045.046-.021.106-.244.135-.305.156-.332.475-.66.86-.682.43-.024.842.392.857.813.003.06-.023.226-.007.26.037.075.122-.007.15-.011.046-.007.117.106.13.144.024.063.011.195.096.212s.137-.103.19-.165c.28-.32.7-.663 1.149-.641.901.043.878 1.427.389 1.94-.046.048-.138.07-.11.152.008.02.188.1.232.141.014.014.133.146.138.156.032.061.01.184.13.099.13-.135-.29-.416-.287-.458.07-.099.152-.179.206-.289.207-.426.242-1.094-.023-1.497-.48-.73-1.421-.287-1.871.236-.03.033-.056.095-.092.128-.043-.125-.116-.297-.273-.293m-4.704-.32c-.058-.01-.07-.068-.106-.1-.588-.528-1.363-.027-1.537.635a2.4 2.4 0 0 0-.076.592c0 .042.022.082.013.125a1.3 1.3 0 0 0-.223.05c-.185.06-.396.16-.556.27-.194.133-.3.312-.459.474s-.392.294-.547.465c-.283.314-.35.687-.554 1.032-.09.15-.222.269-.325.408-.204.273-.383.593-.456.93-.004.015-.017.029-.02.045l-.03.417c-.095-.013-.192-.032-.287-.04-.062-.005-.153-.014-.213-.014-.12-.002-.267.035-.373.028-.053-.004-.12-.04-.177-.05a.82.82 0 0 0-.822.33c-.067.102-.197.488-.194.606 0 .029.014.056.045.058a.12.12 0 0 0 .046-.049c.117-.219.117-.478.328-.665a.7.7 0 0 1 .488-.151.4.4 0 0 0-.097.15c-.212.567-.247 1.254-.33 1.849-.068-.028-.133-.019-.2-.027-.072-.01-.133-.088-.197-.129-.195-.122-.413-.223-.647-.176-.051.01-.094.045-.135.05-.093.016-.41-.029-.405.127.002.081.152.213.167.287.006.03-.016.07.005.107a.5.5 0 0 0-.256.044c-.032.014-.071.05-.1.06-.153.045-.62.02-.39.303.029.036.162.142.17.156.013.024.01.111.02.146.023.085.1.203.17.256.056.042.125.061.184.096.023.1-.084.075-.146.09-.062.017-.185.069-.17.145.008.042.189.188.233.208.039.017.074.01.105.027.027.015.04.059.07.078.113.076.271.09.403.083.01.036.098.104.128.118.037.018.068.01.098.022.035.016.086.108.147.114-.775.677.08 2.008.477 2.687.747 1.276 1.677 2.566 3.16 3.002 0 .03.019.036.04.047.528.293 1.3.45 1.897.431.04 0 .081-.025.128.002.312.343.85.683 1.306.772l.146.1c.839.464 1.996.196 2.771-.28.67-.413 1.147-1.15 1.782-1.576.163-.11.343-.183.524-.256.004.003.067.018.094.033.2.11.269.2.43.336.053.044.103.098.174.056.041-.024.032-.062.055-.092.01-.012.031-.01.033-.013.103.084.224.142.326.227.038.031.089.097.126.127.223.18.163-.018.295-.106a.7.7 0 0 1 .292-.074c.067.006.065.083.157.043l.057-.043c.236.024.402.209.573.352.157.063.15-.16.146-.253-.023-.697-.506-1.023-.92-1.478a1 1 0 0 1-.114-.14c-.04-.129.318-.189.235-.301l-.787-.18c.06-.046.131-.106.036-.162l-.697-.142c-.364-.051-.656.026-.971.198-.067.037-.138.102-.202.132-.07.034-.158.044-.235.072-.855.318-1.521 1.413-2.219 1.995-.551.46-1.436.772-2.148.6-.016-.056-.11-.067-.147-.114-.01-.014-.02-.011 0-.027.195-.059.392-.118.583-.19 1.467-.56 2.934-1.764 3.482-3.274a2.7 2.7 0 0 0 .162-.883 2.3 2.3 0 0 1 .56-.314c.417-.158.714-.219 1.023-.578.139-.162.228-.371.388-.515.226-.204.525-.267.764-.448.24-.184.445-.475.546-.76.146-.41.08-.816.194-1.218.098-.347.439-.809.426-1.146-.009-.205-.064-.398-.068-.614a1.2 1.2 0 0 0-.083-.449c-.01-.026-.052-.071-.047-.095l.277-.241c.476-.48.173-1.241-.377-1.502-.136-.065-.267-.072-.409-.104-.278-.299-.76-.35-1.146-.307-.012-.045-.063-.063-.093-.1-.12-.141-.184-.35-.29-.509-.167-.247-.482-.347-.763-.39-.2-.206-.428-.252-.693-.32-.23-.25-.515-.51-.88-.493-.591-.528-.957-.272-1.633-.214-.263.022-.405-.117-.618-.145a.9.9 0 0 0-.109-.258c-.112-.195-.333-.428-.565-.474-.08-.015-.174-.003-.246-.014zM6.345 3.101c.088.088.153-.083.157-.152.024-.49-.692-.638-.925-.27-.017.028-.058.084-.035.112l.041.015c.047-.013.114-.12.161-.147.157-.093.447-.06.559.092.04.055.063.118.054.187-.007.043-.059.115-.011.163M3.735 4.18a.73.73 0 0 0-.307-.22.8.8 0 0 0-.58.053c-.163.095-.25.276-.296.45-.163-.168-.376-.198-.566-.053-.271-.5-1.017-.645-1.406-.2-.435.497-.188 1.433.118 1.947.097.164.25.36.44.41.095-.027-.114-.179-.138-.205-.402-.45-.829-1.813-.165-2.19.337-.192.827-.053 1.022.278.04.066.038.18.155.14.043-.015.032-.045.053-.067.098-.102.271-.082.369.01l.056.074c.037.059.042.176.147.128.058-.026.026-.063.03-.092.036-.317.163-.579.522-.581.257-.002.627.26.592.54-.005.047-.051.099.007.141.087.064.122-.06.128-.127.016-.195-.06-.305-.183-.437zm-.293 1.234c-.021.032-.055.08-.038.115.037.076.1-.047.128-.072.156-.136.376-.17.578-.14.092.014.205.146.274.113.068-.034.024-.124.029-.17.012-.11.159-.39.237-.47.04-.042.176-.096.14-.167s-.137-.018-.183.013c-.086.06-.229.308-.273.41-.024.056-.028.117-.056.171-.062.004-.147-.04-.208-.046-.224-.023-.499.05-.628.243M2.55 15.01c-.47-.411-1.052-.289-1.431.172-.035.042-.04.107-.088.14-.114-.082-.288-.29-.443-.244-.043.013-.184.114-.122.158.04.029.094-.04.137-.052.044-.013.094.026.129.053.088.067.164.197.248.245.134.078.135-.045.193-.127.575-.812 1.495-.46 1.648.444a.93.93 0 0 1-.084.628c-.017.036-.052.035-.04.094.02.107.11.027.161.028.129.002.271.286.297.395.01.044.013.24.029.25.022.016.089.011.108-.012.015-.018.035-.122.053-.161.077-.179.243-.395.436-.457.322-.104.693.111.862.384.028.045.027.129.107.133.047-.01.048-.045.048-.087-.002-.15-.232-.373-.357-.444-.46-.264-.785-.182-1.11.204-.022.027-.028.066-.06.087-.086-.172-.172-.387-.38-.426.06-.121.083-.26.09-.397.015-.338-.177-.784-.431-1.007m-.893 2c-.034-.034-.037-.05-.086-.081-.06-.039-.322-.133-.293-.003.003.012.17.05.213.082.092.068.301.408.28.519-.006.033-.05.064-.009.11.06.066.115-.013.163-.017a1.1 1.1 0 0 1 .34.04c.041.015.054.051.113.049.052-.003.068-.05.055-.095-.037-.122-.42-.13-.528-.133.012-.075-.018-.122-.049-.184a1 1 0 0 0-.2-.287m4.819 1.776a.8.8 0 0 0-.081-.325c-.062-.128-.233-.337-.358-.402-.36-.186-.767-.04-1.046.222-.098.092-.18.24-.274.34-.164.007-.38-.054-.506.082-.016.018-.069.094-.065.115.018.088.122-.038.154-.056.158-.091.353.059.487-.02.092-.053.205-.266.29-.35.14-.14.407-.274.605-.28.318-.008.595.298.655.593.015.074-.042.205.006.247.061.053.128-.027.193-.033.107-.01.204.076.25.164.016.033.012.1.06.115.06.017.168-.09.234-.12.206-.096.727-.15.925-.04.065.035.109.14.177.008.01-.1-.223-.177-.3-.192-.295-.056-.647.013-.917.122-.02.008-.037.041-.055.037-.101-.146-.241-.275-.434-.226z"/>
      <path fill="#081109" d="M15.443 20c.013-.065.077-.106.115-.152.06-.074.103-.142.185-.208.057-.046.146-.112.22-.107-.024-.169-.095-.353-.094-.526.005-1.131.899-1.028 1.59-.5l.296.306c.11-.105.232-.193.385-.104.032.019.098.113.133.104a.7.7 0 0 1 .154-.14c.08-.045.307-.122.396-.125.064-.002.17.02.128.102-.028.056-.09.026-.127.033-.13.026-.368.096-.442.21-.048.076-.016.208-.154.167-.04-.082-.112-.253-.22-.248-.151.007-.126.14-.18.221-.08.124-.149-.08-.186-.134-.208-.29-.676-.582-1.03-.635-.496-.075-.621.426-.595.822.007.108.104.418.087.487-.02.08-.115.082-.173.107-.095.041-.112.096-.167.152-.05.051-.126.091-.147.167zM20 12.045a1 1 0 0 0-.202.098c-.132.08-.343.244-.438.362-.054.067-.105.207-.206.207-.053 0-.078-.051-.144-.038a1 1 0 0 0-.116.058c-.021.022-.02.068-.046.087-.029.02-.078.02-.102-.007-.03-.034-.07-.18-.1-.233-.161-.282-.656-.732-1.001-.55-.294.156-.415.742-.431 1.048-.01.168.056.485-.116.577-.062.034-.194.034-.243.077-.028.024-.065.114-.082.151-.107.023-.058-.114-.032-.171a.24.24 0 0 1 .14-.127c.098-.041.172-.005.186-.134.055-.484-.007-1.082.386-1.452.331-.312.79-.08 1.06.193.115.117.228.265.294.414.07-.016.127-.064.201-.066.05-.002.101.03.151.005.162-.228.386-.418.63-.555.067-.037.134-.078.21-.09v.146M20 10.193a.7.7 0 0 0-.543-.016c-.085.037-.198.198-.283.156-.02-.01-.027-.032-.028-.053-.003-.059.03-.172.035-.243.012-.176-.024-.492-.095-.656-.145-.334-.511-.26-.739-.061-.053.046-.07.139-.152.127-.06-.008-.065-.127-.098-.182-.025-.042-.111-.138-.159-.148-.038-.01-.138.016-.137-.036 0-.048.09-.074.128-.074.117-.002.239.14.306.227.02.004.13-.097.154-.112.302-.188.678-.15.822.201.094.229.112.52.11.764a.96.96 0 0 1 .68-.053z"/>
      <path fill="#081109" d="m10.313 1.719.192.361.148.478c.16-.086.4-.117.58-.093.213.029.354.168.617.145.677-.058 1.042-.313 1.634.215.138.122.262.28.446.373.14.07.285.081.434.12.264.068.493.114.692.32.117.119.18.343.269.484.108.173.275.253.43.368.066.048.19.189.267.187.06-.001.133-.035.18-.04.386-.044.869.008 1.146.306.161.173.32.456.321.7.001.36-.243.632-.522.827.04.117.119.278.133.4.013.11-.006.234.002.345.028.388.124.454-.047.86-.154.366-.332.597-.378 1.02-.05.467-.032.82-.289 1.243-.267.441-.562.496-.963.73-.36.21-.495.653-.842.903-.307.22-.683.291-1.023.442l-.288.205c-.061 1.157-.765 2.146-1.592 2.898-.721.655-1.536 1.085-2.455 1.396q-.09.03-.183.05c-.016.021.063.073.08.085.199.142.538.31.772.367.713.173 1.597-.138 2.148-.6.698-.581 1.364-1.677 2.22-1.994.075-.029.164-.038.234-.072.064-.03.135-.095.202-.132.315-.172.607-.249.97-.198l.698.142c.095.055.024.116-.036.163-.06.046-.184.082-.154.174.007.022.18.202.212.235.08.08.191.16.269.243.295.318.546.738.553 1.18 0 .034-.002.14-.014.167l-.057.043c-.091.04-.092-.037-.156-.043 0-.03-.019-.036-.036-.051-.215-.19-.4-.303-.703-.268-.048.006-.238.06-.273.086-.026.02-.021.052-.027.06-.003.002-.024 0-.033.013-.023.03-.014.068-.056.091-.07.042-.12-.012-.173-.056-.162-.136-.23-.225-.43-.335-.027-.015-.09-.03-.095-.034-.096-.081-.265-.128-.384-.208-.13-.088-.106-.164-.282-.118-.724.187-1.37 1.05-1.932 1.532-.662.568-1.75.977-2.625.806-.457-.089-.994-.429-1.306-.772a2 2 0 0 1-.12-.153c-.02-.032-.115-.215-.127-.218a4.15 4.15 0 0 1-1.747-.08c-.025-.007-.045-.02-.071-.029-1.484-.436-2.413-1.726-3.161-3.001-.398-.68-1.251-2.01-.477-2.688a1.25 1.25 0 0 1 .46-.225c.054-.012.136-.011.193-.014v-.147c-.12.013-.246 0-.365.015-.223.027-.432.108-.661.119-.131.006-.29-.008-.404-.083-.028-.02-.042-.063-.068-.078-.032-.018-.067-.01-.106-.028-.044-.019-.224-.165-.233-.208-.015-.076.11-.128.17-.144.062-.015.17.01.147-.09-.06-.035-.129-.055-.185-.097a.56.56 0 0 1-.17-.256c-.009-.035-.006-.121-.02-.145-.008-.014-.14-.12-.17-.157-.231-.283.237-.258.39-.303.03-.009.068-.046.1-.06a.5.5 0 0 1 .257-.043c-.021-.037 0-.077-.006-.107-.014-.075-.164-.207-.167-.288-.005-.155.312-.11.405-.126.042-.006.084-.04.135-.05.235-.047.453.054.647.176.065.04.124.12.198.128-.006.03.015.03.033.04.025.015.136.084.154.067-.004-.028.01-.053.013-.08.083-.594.117-1.28.33-1.849a.4.4 0 0 1 .096-.15.68.68 0 0 0-.488.152c-.21.187-.21.446-.328.665a.1.1 0 0 1-.045.049c-.031-.003-.045-.03-.046-.058-.003-.118.127-.504.195-.606a.82.82 0 0 1 .822-.33c.057.01.123.046.176.05.107.007.253-.03.374-.028.059 0 .15.009.212.014.095.007.192.027.287.04l.03-.417c.003-.016.016-.03.02-.046.073-.336.252-.656.456-.93.104-.138.236-.258.325-.407.204-.345.272-.718.555-1.032.154-.172.38-.296.546-.465s.266-.342.46-.474c.16-.11.37-.21.555-.27.07-.022.15-.04.224-.05.008-.043-.013-.083-.014-.125a2.4 2.4 0 0 1 .076-.592c.175-.662.95-1.163 1.537-.635.037.032.048.09.106.1zm-.089.155c-.415-.598-1.09-.336-1.357.244-.17.367-.153.79-.085 1.178.015.083.047.163.052.248.07-.01.06-.069.141-.079.087-.012.142.034.186.034.097 0 .2-.386.339-.43.105-.032.223.044.32.075a1.5 1.5 0 0 0 0-.233c-.016-.18-.097-.614-.219-.74-.105-.109-.24-.025-.306.081-.022.036-.049.133-.066.147-.031.024-.087.016-.099-.024-.047-.16.192-.394.349-.39.172.006.27.136.334.281.115.268.136.564.101.851.092-.067.157-.15.276-.17.125-.021.28.094.35-.09a2 2 0 0 0-.289-.964c-.006-.01-.022-.014-.026-.02zm3.438 1.319c-.32-.251-.435-.526-.903-.555-.376-.024-.805.171-1.16.092-.225-.05-.384-.154-.635-.137a1.6 1.6 0 0 0-.303.06l-.001.105c.06-.006.197-.055.224.036.027.092-.053.072-.094.087-.128.049-.204.204-.351.222-.103.013-.167-.046-.272-.005-.097.038-.166.18-.261.193-.105.013-.316-.107-.365-.087-.104.104-.204.445-.38.434-.046-.003-.106-.044-.144-.039-.042.007-.052.054-.083.078a.66.66 0 0 1-.372.107c-.053-.003-.257-.047-.272-.102-.023-.085.131-.023.167-.02.05.006.298-.01.31-.06.005-.022-.075-.172-.088-.215s-.057-.312-.07-.323a2 2 0 0 0-.25.091c-.115.056-.31.155-.416.224-.226.149-.356.377-.549.557-.107.1-.254.185-.359.28-.401.365-.442.854-.746 1.266-.125.17-.278.32-.392.502-.205.325-.337.708-.315 1.097.275.065.547.134.8.26-.001-.019-.011-.034-.01-.055.01-.11.097-.496.163-.571q.015-.021.041-.027c.04 0 .035.046.032.073-.008.094-.064.215-.072.314l-.022.271-.064.049c.582.293.702.946.493 1.526a2.2 2.2 0 0 1-.567.806c-.064.051-.144.083-.203.14-.006.069.229.125.286.15.41.18.877.531.96 1 .015.09.01.178.03.262.484.286 1.064.24 1.568.484.347.167.668.49 1.014.664.507.255 1.033.14 1.567.232.377.066.722.317 1.13.207.307-.082.51-.29.762-.457.505-.336 1.036-.296 1.447-.802.228-.28.29-.475.628-.674.328-.193.563-.224.812-.561.384-.523.26-.95.376-1.516.1-.483.502-.866.435-1.374-.03-.22-.043-.29-.038-.52.003-.13-.079-.268-.108-.394a2.1 2.1 0 0 1-.786.267c-.006.035.005.02.02.027.05.027.166.056.148.133-.025.106-.3-.038-.341-.087-.09-.105.009-.214-.02-.26-.046-.039-.114-.041-.16-.08-.144-.12.049-.35-.027-.453-.032-.044-.261-.069-.322-.09-.11-.04-.159-.137-.16-.25-.003-.107.065-.237.03-.34-.01-.035-.074-.065-.1-.1-.06-.08-.033-.167-.058-.263-.026-.104-.075-.152-.154-.219.06-.12.201.046.244.112l.474-.23-.485-.367c-.298-.307-.23-.66-.711-.835-.354-.13-.646-.088-.97-.342zm3.546 1.824a.9.9 0 0 0-.546-.247c-.445-.05-.87.117-1.272.281.014.06.006.15.04.201.028.044.132.045.119.144l.148-.098c.38-.221.995-.292 1.207.189.031.071.068.257-.043.27-.111.012-.048-.116-.053-.149a1 1 0 0 0-.106-.185c-.212-.24-.543-.164-.81-.076-.122.04-.234.084-.323.183.003.102-.071.214-.024.316.029.062.214.074.28.093.135.039.213.118.211.266 0 .084-.046.164-.049.249.113.05.23.105.228.248a1.76 1.76 0 0 0 .91-.373c.47-.381.57-.888.082-1.312M5.915 12.91a.59.59 0 0 1 .384-.488c.068-.026.218-.043.262-.072.03-.02.083-.156.117-.202.106-.145.28-.197.444-.25.204-.35.254-.828.017-1.176s-.744-.639-1.163-.688c-.068-.008-.172.018-.227-.027s-.022-.1.029-.131c.096-.06.262-.107.373-.174.62-.366 1.06-1.476.444-2.034-.436-.396-1.583-.619-2.137-.458-.096.027-.11.025-.147.119-.119.304-.213.862-.259 1.194-.063.459-.124.963-.148 1.424-.035.688.01 1.402.04 2.091.005.133.002.265.015.398l.02.02c.531.107.994.44 1.543.469.052.003.376.004.393-.015M3.808 9.342c-.196-.07-.342-.224-.523-.322-.182-.097-.357-.169-.547-.067a.36.36 0 0 0-.164.378c.017.074.19.068.17.182-.073.005-.132-.044-.208-.048-.569-.03-.76.687-.202.839.037.01.086.02.124.023.041.003.131-.037.152.035.034.124-.197.103-.264.085-.062.185-.048.379.162.443.246.074.523-.045.765-.083.155-.024.315-.027.472-.034.013-.009.011-.026.013-.04.03-.254-.014-.587-.001-.854.003-.074.066-.515.051-.538zm-1.276-.388c-.017-.007-.135.02-.12.04.048-.003.036.052.066.066zm-.573.64-.165.04c-.014-.003-.011.025-.009.033a.6.6 0 0 0 .12.1c-.02-.076.05-.104.054-.173m.253.999c-.052-.005-.1.017-.147.033.009.024.123.099.133.087zm1.545.6c-.247.02-.469.102-.633.292-.152.177-.276.516-.074.7.23.209.523.05.741-.087l-.034-.906m5.565.924a5 5 0 0 0-.324-.203c-.45-.244-.983-.214-1.446-.42-.033-.014-.072-.049-.11-.062-.016.01-.016.02-.02.034-.023.082-.026.16-.057.25-.027.074-.07.15-.104.222.08.028.144.08.2.14.217.232.166.416.52.56.528.214 1.228.184 1.792.233.13.072-.069.101-.134.106-.14.011-.335.007-.479 0-.4-.018-1.208-.108-1.508-.377-.182-.162-.208-.477-.481-.564-.234-.076-.448.085-.483.316.042-.01.157.032.161.073.01.084-.119.023-.167.02-.215-.016-.51.088-.625.28-.136.23-.028.54.206.658.047.023.134.02.144.084.018.13-.251.043-.285-.023-.116.115-.14.326-.025.451.179.196.536.048.758.016.699-.101 1.818.156 2.5.362.043.013.315.102.325.116.025.034-.017.062-.051.063-.106.003-.436-.08-.559-.107-.061-.014-.12-.043-.184-.05-.024.027.092.503.113.573.025.08.068.193.104.27.022.048.188.265.041.263-.079 0-.149-.167-.178-.233a1.9 1.9 0 0 1-.174-.898c-.539-.123-1.082-.247-1.639-.24-.014.142.015.28.027.42.01.107.01.22.03.329.013.068.096.287.07.33-.042.06-.126-.013-.146-.054-.067-.14-.1-.55-.1-.712l.013-.314c-.308.01-.632.193-.932.047-.06-.029-.09-.075-.138-.103-.08-.045-.305-.077-.341-.139-.081-.138.185-.256.272-.324l.099-.156c-.067-.09-.13-.18-.133-.297-.234-.001-.447.012-.677-.037-.313-.067-.596-.226-.898-.327-.076-.026-.44-.112-.464-.136-.04-.04-.009-.084-.012-.134-.003-.06-.022-.119-.014-.18-.255.175-.587.281-.846.053a1 1 0 0 0 .043.237c.089.299.249.573.396.844.852 1.564 1.935 3.293 3.866 3.594 2.277.355 5.218-1.437 5.914-3.623.068-.213.118-.433.16-.652q-.124.091-.262.164c-.689.365-.934.034-1.586-.076-.407-.069-.856-.007-1.263-.122-.32-.09-.637-.366-.91-.548zm-3.42 1.687-.02-.147-.113.1zm10.433.879c.02-.03-.15-.04-.163-.043-.295-.065-.473-.128-.786-.073-.169.03-.305.099-.463.156l.28.06c.24.12.457.3.412.599s-.282.447-.561.491c-.014.002-.053.004-.05.023.267.139.554.25.792.44.037.03.125.142.162.144.053-.005.068-.07.092-.09.151-.125.53-.149.712-.1.193.05.337.164.48.298.016-.43-.247-.848-.54-1.146-.123-.126-.411-.344-.475-.496-.047-.11-.008-.223.109-.262zm-.977.928c.11-.097.16-.327.087-.457-.082-.15-.388-.32-.556-.318-.041 0-.078.035-.11.043-.365.09-.569.176-.862.418-.794.653-1.3 1.573-2.26 2.03-.686.326-1.432.408-2.113.024-.17-.095-.32-.223-.467-.347a3 3 0 0 0-.34.067c-.014.007-.027.013-.023.03.088.116.164.243.266.348 1.102 1.137 2.754.721 3.811-.24.498-.454.948-1.053 1.574-1.331.046-.02.19-.055.211-.068.013-.008.015-.038.036-.045.1-.034.271-.013.371-.015a.7.7 0 0 0 .375-.138"/>
      <path fill="#1e351a" d="M17.348 4.943c.142.033.273.039.41.104.55.261.852 1.022.377 1.502l-.279.241c-.004.024.038.07.048.096.062.173.081.27.084.449.003.216.059.409.067.613.013.337-.328.8-.426 1.147-.114.401-.049.807-.194 1.218a1.7 1.7 0 0 1-.546.76c-.24.18-.538.243-.764.447-.16.144-.25.354-.388.515-.31.36-.607.42-1.024.579-.21.079-.378.18-.559.313a2.7 2.7 0 0 1-.162.884c-.548 1.508-2.015 2.713-3.482 3.273-.19.073-.387.132-.583.19-.02.016-.01.013 0 .028.038.047.13.057.147.113a2.7 2.7 0 0 1-.771-.368c-.018-.012-.097-.064-.081-.085q.093-.019.184-.05c.918-.31 1.733-.74 2.454-1.395.828-.752 1.531-1.741 1.592-2.898l.288-.205c.34-.151.716-.222 1.023-.442.347-.25.482-.694.842-.904.4-.233.696-.288.963-.729.257-.424.24-.776.29-1.243.045-.423.223-.655.377-1.021.17-.405.075-.47.047-.86-.008-.11.011-.235-.002-.344-.014-.122-.092-.283-.133-.4.279-.195.523-.467.522-.828-.001-.244-.16-.526-.32-.7zm-7.235 13.298c.875.17 1.963-.238 2.625-.806.562-.482 1.208-1.346 1.932-1.533.176-.045.152.031.282.119.119.08.288.127.384.208a3 3 0 0 0-.523.256c-.635.425-1.112 1.163-1.783 1.575-.774.477-1.932.745-2.77.282z"/>
      <path fill="#081109" d="M15.017 2.038c.157-.004.23.169.273.294.036-.033.063-.096.092-.128.45-.524 1.39-.967 1.871-.237.265.404.23 1.071.023 1.498-.054.11-.136.19-.206.288-.003.043.417.324.286.458-.12.085-.097-.037-.13-.099a3 3 0 0 0-.137-.155c-.044-.04-.225-.12-.232-.141-.028-.083.064-.105.11-.153.489-.513.513-1.897-.39-1.94-.449-.021-.868.322-1.147.642-.054.061-.103.182-.19.164-.089-.017-.073-.148-.097-.211-.013-.038-.085-.152-.13-.145-.028.005-.113.086-.15.012-.017-.035.01-.2.008-.26-.016-.42-.428-.837-.857-.814-.386.022-.705.35-.861.682-.029.062-.089.284-.135.305-.082.037-.141-.028-.208-.045-.103-.026-.258-.04-.357 0-.079.033-.104.11-.195.092-.052-.053.15-.197.19-.216.142-.065.348-.024.49.03.071-.192.165-.394.293-.554.467-.587 1.298-.584 1.663.11.09.17.112.33.123.523"/>
      <path fill="#1e351a" d="m16.509 14.723.787.179c.082.112-.276.172-.235.3.005.019.093.118.114.14.413.456.896.782.92 1.48.003.092.01.315-.146.252-.171-.144-.338-.328-.574-.352a.7.7 0 0 0 .014-.168c-.007-.44-.258-.861-.553-1.179-.078-.083-.19-.163-.269-.243a3 3 0 0 1-.212-.235c-.03-.092.097-.13.154-.174"/>
      <path fill="#081109" d="M3.735 4.18c.123.132.198.242.182.436-.006.067-.04.191-.127.128-.06-.043-.013-.094-.007-.142.034-.279-.336-.541-.592-.54-.36.003-.486.264-.523.581-.004.03.028.067-.03.093-.105.047-.11-.07-.147-.129l-.056-.074c-.098-.092-.27-.111-.368-.01-.022.023-.01.052-.053.067-.118.041-.117-.074-.155-.14-.196-.33-.686-.47-1.023-.278-.663.378-.237 1.74.165 2.19.024.027.234.178.138.205-.19-.05-.342-.246-.44-.41C.395 5.643.147 4.707.582 4.21c.39-.445 1.135-.3 1.407.2.19-.145.403-.115.565.054.047-.175.134-.355.296-.45a.8.8 0 0 1 .58-.053.73.73 0 0 1 .307.219zM6.13 1.599a.8.8 0 0 1-.04-.365c.046-.476.597-.679 1.012-.561.504.143.638.712.48 1.165.176-.02.39-.001.537.11.045.033.13.115.069.17-.062.056-.114-.031-.154-.059-.144-.097-.385-.131-.531-.027-.042.03-.115.143-.175.068-.061-.076.081-.182.11-.252.088-.21.095-.55-.013-.752-.288-.536-1.24-.36-1.202.255.006.1.085.3.064.372-.03.101-.165.013-.231.009-.24-.014-.103.235-.278.213-.054-.007-.153-.137-.205-.173-.498-.34-1.252-.26-1.554.294-.028.051-.081.225-.108.252-.014.016-.032.017-.052.012-.046-.015.009-.2.023-.242.068-.206.248-.392.431-.501.465-.275.963-.187 1.39.112.02.014.06.072.08.058.014-.058.09-.16.153-.16h.193zM2.55 15.011c.254.223.446.67.43 1.008a1 1 0 0 1-.089.397c.208.039.294.254.38.425.031-.02.038-.06.06-.086.325-.387.65-.469 1.11-.204.125.07.355.295.357.444 0 .042 0 .077-.048.087-.08-.004-.08-.088-.107-.133-.17-.273-.54-.488-.862-.385-.192.062-.359.278-.437.457-.017.04-.037.144-.052.161-.02.023-.086.029-.108.013-.016-.01-.02-.206-.03-.25-.025-.11-.167-.394-.296-.395-.051 0-.141.079-.161-.028-.012-.06.023-.058.04-.095a.94.94 0 0 0 .084-.628c-.154-.903-1.073-1.255-1.648-.443-.058.081-.06.204-.193.127-.084-.049-.16-.179-.248-.246-.035-.027-.085-.065-.13-.053-.044.013-.096.081-.136.053-.061-.044.08-.146.122-.159.155-.045.33.163.443.244.047-.033.053-.098.088-.14.379-.46.96-.582 1.43-.171m3.927 3.776c.193-.049.332.08.433.226.019.005.036-.029.056-.037.27-.11.622-.178.916-.122.077.015.31.092.3.192-.067.131-.111.027-.177-.009-.198-.108-.718-.055-.924.04-.067.031-.174.139-.235.12-.047-.013-.043-.08-.06-.114-.045-.088-.143-.174-.25-.164-.064.006-.132.085-.192.033-.05-.042.009-.173-.006-.247-.06-.295-.337-.6-.656-.593-.198.006-.465.14-.605.28-.084.084-.198.297-.29.35-.133.079-.328-.071-.487.02-.032.018-.136.144-.153.055-.004-.02.048-.096.064-.114.126-.136.342-.075.506-.083.095-.098.177-.247.275-.34.279-.26.686-.406 1.046-.22.125.064.296.273.357.401a.8.8 0 0 1 .081.325z"/>
      <path fill="#1e351a" d="M16.202 4.637c-.047.005-.12.039-.18.04-.077.002-.2-.139-.266-.187-.156-.115-.323-.195-.431-.368-.088-.141-.152-.365-.269-.485.282.043.597.143.763.39.106.159.171.368.29.51.031.037.081.055.093.1m-9.46 12.351c.026.008.046.022.071.03a4.15 4.15 0 0 0 1.747.079c.012.003.107.186.128.218.034.05.085.114.12.153-.048-.027-.088-.003-.128-.002-.599.018-1.37-.139-1.898-.43-.021-.012-.04-.018-.039-.048m3.57-15.268c.071.01.166-.002.245.014.233.046.454.279.566.474.046.08.09.166.108.257a1.05 1.05 0 0 0-.579.093l-.148-.478zm6.849 15.002a.7.7 0 0 0-.292.074c-.133.088-.073.286-.295.106-.038-.03-.088-.096-.126-.127-.103-.085-.224-.143-.326-.227.006-.007.002-.04.027-.06.035-.026.225-.08.273-.085.302-.036.488.077.703.267.017.016.037.02.036.051"/>
      <path fill="#081109" d="M3.442 5.414c.13-.193.404-.266.628-.244.061.007.146.051.207.047.029-.054.033-.115.057-.17.044-.103.187-.352.273-.41.046-.032.149-.083.184-.014.034.07-.1.125-.14.167-.08.08-.227.36-.238.47-.005.046.037.137-.03.17-.066.032-.18-.1-.274-.113-.202-.03-.421.005-.577.14-.028.025-.091.148-.128.072-.017-.036.017-.083.038-.115M1.657 17.01c.085.085.146.177.2.287.03.062.06.11.048.184.107.002.491.011.527.133.014.045-.002.092-.054.095-.059.003-.072-.034-.114-.048a1 1 0 0 0-.34-.04c-.047.003-.103.082-.162.016-.042-.046.003-.077.01-.11.02-.111-.19-.45-.28-.519-.045-.032-.211-.07-.214-.082-.03-.13.233-.036.293.003.049.03.052.047.086.08z"/>
      <path fill="#1e351a" d="M2.731 11.046c.23-.011.439-.091.662-.119.119-.014.244-.002.364-.015v.146c-.057.004-.138.002-.192.015a1.3 1.3 0 0 0-.46.225c-.062-.005-.112-.098-.148-.113-.03-.013-.06-.004-.098-.022-.03-.015-.117-.082-.128-.118"/>
      <path fill="#081109" d="M6.345 3.101c-.047-.047.005-.12.011-.163a.25.25 0 0 0-.054-.187c-.112-.151-.401-.185-.558-.092-.048.027-.114.134-.161.147L5.54 2.79c-.022-.028.018-.084.036-.112.232-.368.949-.22.924.27-.004.07-.069.24-.156.152"/>
      <path fill="#1e351a" d="M14.364 3.318c-.149-.039-.294-.05-.434-.12-.184-.092-.309-.25-.446-.373.364-.017.65.242.88.493M3.851 9.114c-.004.026-.017.052-.013.08-.018.017-.129-.053-.154-.068-.018-.01-.039-.01-.033-.04.066.009.131 0 .2.027"/>
      <path fill="#8f5b24" d="M13.663 3.193c.324.254.616.212.97.342.481.176.414.528.71.835l.486.367-.474.23c-.043-.066-.184-.232-.244-.112.08.066.128.114.154.22.025.094-.002.182.058.262.026.035.089.065.1.1.035.103-.033.233-.03.34.002.114.05.21.16.25.061.021.29.046.322.09.076.103-.117.333.027.453.046.039.114.041.16.08.029.047-.07.155.02.26.041.049.316.193.341.087.019-.077-.098-.107-.149-.133-.014-.007-.025.008-.019-.027.277-.032.544-.13.786-.266.029.125.11.263.108.392-.005.23.008.3.038.521.066.508-.335.89-.435 1.375-.117.565.008.993-.377 1.515-.247.337-.483.368-.81.561-.339.199-.4.394-.628.675-.412.505-.942.466-1.448.8-.252.167-.455.376-.762.458-.408.11-.753-.141-1.13-.207-.534-.092-1.06.023-1.567-.232-.346-.174-.666-.497-1.014-.664-.504-.243-1.083-.197-1.568-.484-.02-.084-.015-.172-.03-.263-.083-.468-.55-.818-.96-.999-.057-.025-.292-.081-.286-.15.06-.057.14-.089.203-.14.213-.173.474-.548.567-.806.209-.58.09-1.233-.493-1.526l.064-.049.022-.271c.008-.099.064-.22.072-.314.003-.027.008-.073-.032-.073-.018.002-.03.014-.04.027-.067.075-.154.462-.163.571-.002.021.008.036.01.056-.253-.127-.526-.196-.8-.261-.023-.389.109-.772.314-1.097.114-.181.268-.332.392-.502.304-.413.345-.9.746-1.265.105-.096.253-.182.359-.281.193-.18.323-.408.55-.557.104-.069.3-.168.415-.223a2 2 0 0 1 .25-.092c.013.01.057.28.07.323.013.044.093.193.087.216-.01.05-.26.065-.31.06-.035-.004-.189-.066-.166.019.015.055.22.098.272.102a.66.66 0 0 0 .372-.107c.03-.024.04-.07.083-.078.038-.005.098.036.144.039.176.01.276-.33.38-.434.049-.02.26.1.365.087.095-.013.164-.155.26-.193.106-.04.17.018.273.005.147-.018.223-.173.35-.221.042-.016.122.006.095-.088-.027-.093-.164-.041-.224-.036l.001-.105c.1-.027.2-.054.303-.06.252-.017.41.087.636.137.354.08.783-.116 1.159-.092.468.029.583.304.903.555zm-1.463.663c-.431-.24-1.012.035-1.48-.005-.158-.013-.264-.071-.434-.034-.19.041-.466.362-.63.482-.213.156-.449.254-.669.432-.34.276-.369.436-.568.804-.351.645-.822.935-.824 1.747 0 .16.034.32.04.48.014.331-.062.666-.04 1 .036.552.403.687.72 1.053s.536.605 1.05.736c.542.137.859-.028 1.371-.127.156-.03.324-.036.474-.073.456-.114.695-.515 1.002-.823.188-.188.444-.343.606-.557.172-.227.25-.522.364-.78.266-.6.708-.952.65-1.669-.02-.245-.098-.481-.108-.731-.013-.323.03-.575-.117-.883-.205-.432-.673-.478-1.014-.73-.132-.1-.249-.241-.392-.321zM6.47 6.184c-.047.016-.275.483-.297.556-.011.038-.033.127-.004.155.022.023.088.033.106-.001.055-.241.19-.454.253-.69-.008-.024-.037-.027-.057-.02m7.645 4.626c.009-.01.027-.015.041-.032.03-.036.166-.21.175-.238.019-.055-.036-.07-.074-.047-.013.007-.02.035-.033.047-.116.1-.213.222-.326.326-.054.05-.215.115-.094.2.057.015.243-.158.288-.207.014-.016.014-.039.023-.05zm-.501-.122-.761.4c-.077.06-.006.137.075.115.261-.135.522-.276.75-.463.018-.033-.035-.063-.064-.052"/>
      <path fill="#efba1c" d="M9.322 12.117c.274.181.591.458.911.548.407.115.855.053 1.262.122.653.11.898.44 1.587.075a2 2 0 0 0 .262-.164 6 6 0 0 1-.16.652c-.696 2.186-3.638 3.978-5.914 3.624-1.931-.302-3.015-2.03-3.867-3.595-.147-.27-.307-.544-.396-.844a1 1 0 0 1-.043-.236c.26.227.592.122.846-.054-.008.062.011.12.015.18.003.05-.029.094.012.134.024.024.388.11.464.136.301.101.584.26.898.328.23.049.443.035.676.036.004.118.066.207.133.298l-.098.155c-.087.068-.354.186-.272.325.036.062.26.093.34.139.049.027.079.073.138.102.3.147.624-.037.933-.046l-.014.313c.002.162.034.573.1.712.02.042.105.114.147.054.025-.042-.057-.261-.07-.33-.021-.108-.02-.222-.03-.328-.012-.14-.041-.278-.027-.42.556-.007 1.1.117 1.639.24a1.9 1.9 0 0 0 .173.898c.03.066.1.232.179.233.147.002-.02-.215-.042-.264a3 3 0 0 1-.103-.27c-.022-.07-.138-.545-.113-.572.063.007.122.036.184.05.122.027.453.11.558.106.035-.001.076-.029.051-.063a3 3 0 0 0-.324-.115c-.683-.207-1.802-.464-2.5-.363-.223.033-.58.18-.759-.015-.114-.126-.09-.336.026-.451.033.065.303.152.284.023-.009-.065-.097-.061-.143-.085-.234-.118-.343-.427-.207-.657.115-.192.41-.297.625-.28.049.003.177.063.168-.02-.005-.042-.12-.083-.161-.074.035-.23.248-.391.482-.316.273.088.3.402.481.565.3.269 1.11.359 1.509.377.143.006.338.011.479 0 .064-.005.264-.035.133-.106-.563-.05-1.263-.02-1.792-.234-.353-.144-.303-.326-.52-.56a.5.5 0 0 0-.2-.14c.035-.07.078-.147.104-.222.032-.09.035-.168.057-.25.004-.014.004-.024.02-.033.038.013.077.048.11.062.463.205.997.176 1.446.42.102.055.227.137.325.203z"/>
      <path fill="#ee8922" d="M5.915 12.91c-.017.019-.34.018-.393.015-.549-.03-1.012-.362-1.543-.469l-.02-.02c-.013-.132-.01-.265-.015-.398-.03-.689-.075-1.403-.04-2.091.024-.461.085-.965.148-1.424.046-.332.14-.89.259-1.194.036-.094.051-.092.147-.12.554-.16 1.7.064 2.137.459.615.558.177 1.668-.444 2.035-.111.066-.277.112-.373.173-.05.031-.085.086-.03.131s.16.019.228.027c.42.05.924.337 1.163.688s.186.827-.017 1.177c-.165.052-.338.104-.444.249-.034.046-.086.182-.117.203-.044.028-.194.046-.262.07a.6.6 0 0 0-.384.49m-.843-4.684c-.07 0-.188.058-.215.128a2.5 2.5 0 0 0-.06.42c.003.274.336.374.563.322.432-.1.467-.535.09-.749a1.4 1.4 0 0 0-.378-.121m-.337 2.557c-.043.043-.052.13-.058.19-.022.233-.022.484-.026.72-.002.07-.047.14.026.198.074.058.426.14.532.161.519.105 1.168-.067 1.018-.724-.067-.292-.31-.5-.594-.58-.199-.055-.745-.117-.898.036"/>
      <path fill="#efba1c" d="M15.359 15.611a.7.7 0 0 1-.376.138c-.1.002-.27-.02-.371.015-.02.007-.023.037-.035.045-.023.013-.166.047-.212.068-.626.279-1.076.878-1.574 1.33-1.057.962-2.708 1.378-3.811.24-.102-.104-.178-.23-.266-.346-.004-.018.01-.023.022-.03a3 3 0 0 1 .341-.068c.147.125.298.252.467.347.68.384 1.427.303 2.113-.024.96-.457 1.466-1.377 2.26-2.03.293-.242.497-.329.862-.418.032-.008.069-.042.11-.043.168-.002.474.168.556.318.072.13.024.36-.087.457zm1.849-10.594c.487.425.388.931-.083 1.312a1.76 1.76 0 0 1-.91.374c.002-.144-.114-.198-.227-.249.002-.084.049-.165.049-.249.001-.147-.076-.226-.211-.265-.067-.02-.252-.031-.28-.093-.048-.103.027-.214.024-.316.089-.1.2-.143.323-.183.267-.088.597-.164.81.076.02.022.102.162.106.185.005.032-.063.161.052.148.116-.013.075-.198.043-.27-.212-.48-.826-.41-1.207-.188l-.147.098c.013-.099-.091-.1-.12-.144-.033-.051-.025-.141-.04-.201.403-.164.827-.33 1.272-.281a.9.9 0 0 1 .546.247m-13.4 4.324c.015.023-.048.463-.051.538-.013.266.032.6 0 .854 0 .014 0 .03-.012.04-.157.006-.317.01-.472.035-.241.037-.519.156-.765.081-.21-.063-.224-.257-.162-.442.068.019.298.04.264-.085-.02-.072-.11-.032-.152-.035a1 1 0 0 1-.124-.023c-.557-.153-.367-.869.202-.839.076.004.135.053.208.048.02-.114-.153-.107-.17-.182a.36.36 0 0 1 .164-.378c.19-.102.372-.026.547.067.174.094.327.251.523.322"/>
      <path fill="#8f5b24" d="M16.336 14.683c-.117.04-.156.152-.11.262.065.153.353.371.476.497.293.299.555.715.54 1.146-.143-.134-.287-.248-.48-.3-.183-.047-.561-.024-.712.102-.025.02-.039.084-.092.09-.037-.003-.126-.115-.163-.145-.237-.19-.525-.3-.792-.44-.002-.019.037-.02.05-.022.28-.045.516-.188.562-.491.045-.304-.171-.48-.413-.6l-.28-.059c.16-.058.295-.127.464-.157.313-.055.49.008.786.073.013.004.183.014.163.043z"/>
      <path fill="#efba1c" d="M10.224 1.874c.005.006.02.01.027.02.18.279.274.633.288.963-.069.184-.224.07-.35.09-.125.022-.184.104-.275.17a1.65 1.65 0 0 0-.102-.85c-.063-.145-.161-.276-.334-.28-.156-.005-.395.23-.348.389.012.04.067.048.098.023.017-.013.045-.11.067-.146.065-.107.2-.19.306-.082.122.127.202.561.219.74.002.028.01.222 0 .233-.097-.03-.215-.107-.32-.074-.14.044-.242.43-.34.43-.044 0-.098-.046-.185-.034-.081.01-.07.068-.141.078-.006-.085-.037-.164-.052-.248-.068-.387-.085-.811.084-1.178.268-.58.943-.841 1.358-.243"/>
      <path fill="#8f5b24" d="m3.757 11.192.034.906c-.218.137-.512.296-.74.088-.202-.185-.08-.524.073-.7.164-.19.386-.272.633-.293m-1.798-1.6c-.005.069-.073.098-.053.173a.6.6 0 0 1-.12-.1c-.003-.008-.006-.035.008-.033zm.253 1-.014.12c-.01.012-.124-.064-.133-.087.047-.016.096-.038.147-.033m3.69 3.211-.132-.047.113-.1zm-3.37-4.85-.053.106c-.03-.013-.019-.069-.067-.066-.015-.02.103-.046.12-.04"/>
      <path fill="#081109" d="M12.2 3.856c.143.08.26.222.392.32.34.252.81.3 1.014.731.146.308.104.56.117.883.01.25.087.486.107.731.06.717-.383 1.07-.65 1.67-.114.256-.191.552-.363.78-.162.213-.418.367-.606.556-.307.308-.546.709-1.002.823-.15.037-.319.043-.474.073-.513.099-.83.264-1.372.126-.513-.13-.721-.356-1.05-.735-.328-.38-.683-.501-.72-1.053-.02-.333.055-.67.042-1-.006-.16-.041-.32-.041-.48.002-.812.473-1.102.824-1.747.2-.368.227-.528.568-.804.22-.178.456-.276.668-.432.165-.12.441-.44.63-.482.17-.037.277.02.434.034.469.04 1.05-.236 1.48.005zm1.093.88c-.186-.162-.384-.207-.586-.314-.23-.123-.451-.41-.675-.485-.36-.118-.74.05-1.101.055-.142.002-.269-.03-.401-.045-.029-.003-.146-.007-.171-.003-.165.02-.446.332-.589.44-.343.257-.8.423-1.031.817-.102.173-.178.371-.28.546-.231.394-.624.752-.7 1.219-.053.322.02.582.023.889.002.408-.154.902.066 1.279.121.207.317.3.474.459.225.229.305.449.61.63.722.426 1.163.174 1.896.039.126-.023.298-.022.421-.059.34-.1.757-.68 1.027-.925.068-.06.15-.108.217-.169.398-.359.463-.822.706-1.273.166-.308.428-.596.483-.955.053-.34-.058-.641-.091-.971-.024-.236.019-.477-.028-.705a.87.87 0 0 0-.27-.47m.321 5.953c.029-.012.082.019.064.052-.228.188-.49.328-.75.463-.081.023-.152-.055-.075-.115zM6.47 6.184c.02-.007.05-.004.058.02-.062.237-.198.45-.253.69-.018.035-.084.024-.106.002-.028-.029-.007-.118.004-.156.022-.073.25-.54.298-.556m7.644 4.626c-.01.01-.01.033-.024.05-.043.048-.23.222-.288.207-.12-.086.04-.151.094-.2.114-.105.211-.226.327-.327.013-.011.02-.04.033-.047.037-.023.092-.008.074.047-.01.028-.146.203-.175.239-.014.016-.032.02-.042.032m-9.379-.027c.153-.153.7-.09.898-.035.283.078.527.286.594.579.15.657-.5.829-1.018.724-.105-.022-.46-.105-.532-.16-.07-.057-.028-.129-.026-.2.004-.235.004-.486.026-.72.006-.059.015-.146.058-.188m.159 1.031c.388.164 1.273.257 1.209-.39-.05-.495-.65-.626-1.06-.592-.061.005-.2.019-.217.089-.023.102.039.08.1.107.091.042.313.156.378.222.075.077.023.153-.071.124-.022-.006-.14-.106-.179-.128-.03-.018-.068-.027-.101-.043-.011-.005-.017-.056-.07-.012-.13.11-.068.285-.093.433zm.178-3.589c.069 0 .312.084.378.12.377.215.342.65-.09.75-.227.052-.56-.048-.563-.322 0-.07.037-.36.06-.42.027-.07.145-.128.215-.128M5 8.397c-.022.023-.056.3-.058.35-.005.175.193.235.34.219.047-.006.167-.046.195-.084.04-.055-.014-.148-.025-.204-.011-.057.006-.127-.035-.178-.05-.06-.371-.15-.418-.102"/>
      <path fill="#efba1c" d="M13.293 4.735c.137.12.233.292.27.47.047.227.004.469.028.704.033.33.144.632.091.971-.055.36-.316.647-.483.956-.243.45-.308.914-.706 1.273-.067.06-.15.109-.217.169-.27.243-.687.824-1.027.925-.123.036-.295.035-.421.058-.733.135-1.174.387-1.896-.04-.305-.179-.385-.4-.61-.629-.157-.16-.353-.252-.474-.458-.22-.378-.064-.871-.066-1.28-.002-.307-.076-.567-.023-.889.076-.467.469-.825.7-1.218.102-.175.178-.373.28-.546.232-.394.689-.56 1.031-.818.143-.108.424-.419.589-.44.025-.003.142 0 .171.003.132.015.259.048.4.046.363-.006.742-.174 1.102-.055.224.074.444.362.675.484.202.108.4.152.586.314m-2.642.204c-.063-.073-.192-.28-.272-.309-.027-.01-.07-.009-.084.024-.018.037.006.07.026.102.067.105.218.277.305.375.064.072.14.135.199.213.07.04.144-.014.107-.094-.087-.091-.165-.19-.247-.286-.009-.012-.026-.016-.035-.025m-.089.553c-.158.037-.363.437-.21.564.06.05.086.034.15.003.113-.056.249-.305.251-.43.003-.116-.08-.162-.19-.137m.733.027c-.058.017-.062.095.004.124.27.118.61.183.89.283l.23.023c.101-.131-.119-.143-.2-.173-.103-.036-.204-.086-.307-.119-.126-.04-.508-.17-.617-.138m-.08.766c.076-.1.2-.392.07-.482-.14-.097-.325.154-.37.27-.032.086-.086.273.012.328s.225-.037.287-.116m-.31 1.249c.22-.194.272-.369.112-.636-.204-.338-.666-.59-1.045-.661-.495-.095-.672.599-.58.967.054.22.17.387.36.504l-.16.24c-.17.038-.352.027-.513.098-.037.029-.016.084.021.1.046.021.283-.036.355-.044.026-.003.127-.019.139-.01.03.12.067.236.1.354.015.053.015.192.117.159.058-.02.024-.144.03-.19l-.123-.375c.023-.103.13-.17.142-.273.068.014.14.05.208.061.263.041.641-.123.836-.295m-6.009 4.282-.104-.19c.025-.147-.038-.322.093-.432.052-.044.059.007.07.012.033.016.072.026.101.043.038.022.158.122.178.128.095.029.147-.047.072-.124-.065-.066-.287-.18-.378-.222-.061-.028-.123-.005-.1-.107.016-.07.156-.085.218-.09.41-.033 1.01.098 1.059.594.064.646-.821.553-1.21.39z"/>
      <path fill="#317037" d="M5 8.397c.046-.048.368.042.417.103.042.051.025.12.036.177s.064.15.024.204c-.028.039-.147.079-.195.084-.147.016-.345-.043-.34-.219.002-.05.036-.327.058-.35z"/>
      <path fill="#081109" d="M10.905 7.534c-.195.172-.574.336-.836.295-.068-.01-.14-.047-.209-.061-.012.104-.118.17-.141.273l.123.376c-.006.045.027.17-.03.189-.103.033-.103-.106-.118-.16-.032-.117-.07-.234-.1-.353-.012-.009-.113.007-.138.01-.072.008-.31.065-.355.045-.038-.017-.058-.073-.021-.1.16-.072.343-.061.513-.1l.16-.24a.8.8 0 0 1-.361-.503c-.092-.368.085-1.062.58-.967.38.072.842.323 1.045.66.16.268.109.443-.112.637zm.309-1.249c-.062.08-.186.172-.287.116-.101-.057-.045-.242-.011-.329.044-.115.229-.365.37-.269.129.09.005.383-.072.482m.081-.766c.108-.033.49.097.616.138.104.033.205.082.307.119.082.029.302.041.2.173l-.23-.024c-.28-.1-.62-.164-.89-.283-.066-.028-.062-.106-.004-.124m-.732-.026c.11-.026.194.021.191.137-.003.125-.138.374-.25.43-.065.031-.09.047-.15-.003-.154-.127.05-.527.21-.564m.087-.553c.01.009.027.013.036.024.081.096.16.195.246.287.037.08-.037.134-.107.094-.058-.079-.135-.142-.199-.214a4 4 0 0 1-.305-.374c-.02-.032-.043-.065-.025-.103.013-.032.056-.032.084-.023.08.028.209.236.271.308"/>
    </g>
  </g>
  <defs>
    <clipPath id="buildon_svg__a">
      <path fill="#fff" d="M0 0h20v20H0z"/>
    </clipPath>
  </defs>
</svg>
