<svg xmlns="http://www.w3.org/2000/svg" viewBox="0 0 50 50">
  <g transform="translate(.1 .1)">
    <circle cx="24.9" cy="24.9" r="24.9" fill="#00f6ff"/>
    <path d="M4.8 18.6h15.5c.2 0 .3.1.4.3l1.8 5.2c.1.1 0 .3-.1.4l-5.5 6.2c0 .2-.1.2-.2.2H9.3c-.2 0-.3-.1-.4-.3L4.4 19.2c-.1-.3.1-.6.4-.6m27.9.3-5.4 5.8c-.1.1-.2.3-.1.5l1.9 5.3c.1.2.2.3.4.3h15c.3 0 .5-.3.4-.5l-3.9-11c-.1-.3-.2-.4-.4-.4H33c-.1-.2-.2-.1-.3 0"/>
    <path d="m19.1 33 5.1-5.6c.1-.1.4-.1.4.1l2.2 6.2c0 .1.1.2.2.2h7.6c.2 0 .3.3.2.4L24.2 45.6c-.1.1-.4.1-.4-.1l-4.9-12.3c.1-.1.1-.2.2-.2m6.8-28.6 4.5 11.5c.1.2 0 .4-.1.6l-4.6 5.3c-.2.2-.5.2-.6-.1L22.6 16c-.1-.2-.2-.3-.4-.3h-6.9c-.3 0-.4-.3-.2-.5L25.4 4.3c.2-.1.4-.1.5.1"/>
  </g>
</svg>
