<svg xmlns="http://www.w3.org/2000/svg" viewBox="0 0 849.6 779.3">
  <circle cx="424.8" cy="391.9" r="387.4" fill="#ec1c24"/>
  <path fill="#fff" d="m741.3 394.1 1.1.8S719.2 138.3 633.7 10.4c-8.2-12.3-25.7-14-36.1-3.6C573.1 31.4 533 97.3 493 207.3c-21.4-3.6-43.6-5.4-66.4-5.4s-45 1.9-66.4 5.4c-40-110-80.1-175.9-104.5-200.5-10.4-10.4-27.9-8.7-36.1 3.6C134.2 138.3 111 394.9 111 394.9l1.1-.8c-7.5 22-11.6 45.1-11.6 69 0 99.5 69.5 185.9 171.7 230 46 19.8 98.6 31.1 154.5 31.1s108.4-11.3 154.4-31.1C683.4 649 752.9 562.5 752.9 463c0-23.8-4.1-46.9-11.6-68.9"/>
  <path fill="#231f20" d="M9.5 601c-3 0-6-1.5-7.8-4.2-3-4.3-1.9-10.3 2.5-13.2 88.7-60.6 150.1-44 152.7-43.3 5.1 1.4 8 6.7 6.5 11.8-1.4 5-6.7 8-11.7 6.5-.7-.2-56.2-14.4-136.8 40.7-1.7 1.2-3.5 1.7-5.4 1.7m50.3 73.5c-1.8 0-3.5-.5-5.2-1.5-4.4-2.8-5.7-8.7-2.8-13.1 43.7-67.7 116.5-81.3 119.6-81.8 5.1-.9 10.1 2.5 11 7.7s-2.5 10.1-7.7 11c-.9.2-67.9 13-106.9 73.4-1.8 2.7-4.9 4.3-8 4.3M840.1 601c-1.8 0-3.7-.5-5.3-1.7-80.7-55.1-136.3-40.8-136.8-40.7-5 1.4-10.3-1.6-11.7-6.6s1.5-10.3 6.5-11.7c2.6-.7 64-17.3 152.7 43.3 4.3 3 5.5 8.9 2.5 13.2-1.9 2.8-4.8 4.2-7.9 4.2m-50.3 73.5c-3.1 0-6.2-1.5-8-4.3-39.2-60.8-106.3-73.3-106.9-73.4-5.2-.9-8.6-5.8-7.7-11s5.9-8.6 11-7.7c3.1.5 75.9 14.1 119.6 81.8 2.8 4.4 1.6 10.3-2.8 13.1-1.6 1-3.4 1.5-5.2 1.5"/>
  <path fill="#a7dff8" d="M345.3 437.1c-1 49-40.9 88.4-90.1 88.4S165 485.1 165 435.3c0-14.4 3.4-27.9 9.4-39.9z"/>
  <path fill="#231f20" d="M316 429.9c.2 2 .6 6 .6 8 0 32.4-26.3 58.7-58.7 58.7s-58.7-26.3-58.7-58.7c0-11.9 5.1-24.5 11.1-33.7z"/>
  <path fill="#a7dff8" d="M498 437.1c1 49 40.9 88.4 90.1 88.4 49.8 0 90.2-40.4 90.2-90.2 0-14.4-3.4-27.9-9.4-39.9z"/>
  <path fill="#231f20" d="M527.9 429.1c-.2 2-1.2 6.8-1.2 8.8 0 32.4 26.3 58.7 58.7 58.7s58.7-26.3 58.7-58.7c0-11.9-4.5-24.5-10.5-33.7zm-82.1 179c-9 0-18.7-2.7-28.1-10-25.3 19.7-52.8 6.1-64.5-4.7-3.9-3.6-4.1-9.6-.5-13.4s9.6-4.1 13.4-.5c2.3 2.1 23.7 20.4 43.8.3 1.8-1.8 4.2-2.8 6.7-2.8h2.2c2.5 0 4.9 1 6.7 2.8 20.1 20.1 41.5 1.9 43.8-.3 3.9-3.5 9.9-3.3 13.4.6 3.5 3.8 3.3 9.8-.5 13.4-7.4 6.7-21 14.6-36.4 14.6"/>
  <ellipse cx="417" cy="561" fill="#f7bad5" rx="27.7" ry="13.2"/>
  <path fill="#f7bad5" d="M160.7 307.6s15-166.3 70.4-249.2c5.3-7.9 16.6-9.1 23.4-2.3 15.9 16 45.6 84.7 71.6 156.4 0-.1-30.1 6.7-165.4 95.1m535.1 0s-15-166.3-70.4-249.2c-5.3-7.9-16.6-9.1-23.4-2.3-15.9 16-47.2 84.7-73.1 156.4-.1-.1 47.2 6.7 166.9 95.1"/>
  <path fill="#d5e9f8" d="M521.9 278.8c30.8-115.2-141.4-95.7-137.5-210.7.4 48.9-8.7 100.8 24.6 140.3-53.9 6.3-70.5-65.8-85.1-99.5-4.6 62.8-16.3 160.5 54.8 187.4"/>
  <path fill="#fff" d="M535.8 278.8c35-143.3-154.2-111.2-150.4-226.2.4 48.9-6.3 95.3 26.9 134.8-53.9 6.3-74.3-59.9-89-93.6-4.6 62.8 30.7 178 128.6 202.5"/>
</svg>
