<svg xmlns="http://www.w3.org/2000/svg" viewBox="0 0 849.65 779.33">
  <circle cx="424.82" cy="391.95" r="387.38" fill="#ec1c24"/>
  <path fill="#fff" d="m741.29 394.07 1.1.83S719.24 138.28 633.73 10.41c-8.19-12.25-25.68-14.01-36.07-3.56-24.48 24.61-64.59 90.49-104.56 200.5-21.44-3.55-43.64-5.43-66.39-5.43s-44.96 1.88-66.4 5.43C320.35 97.34 280.24 31.46 255.76 6.85c-10.39-10.45-27.88-8.69-36.07 3.56C134.18 138.28 111.03 394.9 111.03 394.9l1.1-.83c-7.51 21.99-11.59 45.1-11.59 69 0 99.46 69.46 185.92 171.65 230.02 46 19.85 98.61 31.13 154.53 31.13s108.43-11.26 154.39-31.08c102.26-44.08 171.78-130.57 171.78-230.07 0-23.89-4.09-47.01-11.59-69Z"/>
  <path fill="#231f20" d="M9.51 601.05a9.48 9.48 0 0 1-7.85-4.15c-2.96-4.33-1.85-10.25 2.49-13.2 88.67-60.56 150.12-43.98 152.7-43.25 5.05 1.44 7.97 6.7 6.53 11.75-1.44 5.03-6.66 7.96-11.7 6.54-.66-.17-56.23-14.39-136.82 40.65a9.45 9.45 0 0 1-5.35 1.66m50.33 73.41c-1.77 0-3.55-.49-5.15-1.52-4.41-2.85-5.68-8.73-2.83-13.14 43.7-67.72 116.52-81.27 119.6-81.81 5.15-.9 10.1 2.54 11.01 7.71s-2.54 10.09-7.7 11.01c-.93.17-67.95 12.96-106.94 73.4a9.5 9.5 0 0 1-7.99 4.35m780.3-73.41a9.45 9.45 0 0 1-5.35-1.66c-80.68-55.09-136.28-40.79-136.82-40.65-5.05 1.38-10.28-1.57-11.69-6.6-1.4-5.03 1.49-10.25 6.52-11.69 2.58-.73 64.02-17.32 152.7 43.25a9.49 9.49 0 0 1 2.49 13.2 9.48 9.48 0 0 1-7.85 4.15m-50.33 73.41c-3.12 0-6.17-1.53-7.99-4.35-39.24-60.83-106.26-73.28-106.93-73.4-5.17-.92-8.62-5.85-7.71-11.01.92-5.17 5.9-8.61 11.01-7.71 3.08.54 75.9 14.09 119.6 81.81 2.85 4.41 1.58 10.3-2.83 13.14a9.47 9.47 0 0 1-5.15 1.52"/>
  <path fill="#a7dff8" d="M345.34 437.08c-.97 48.97-40.9 88.39-90.1 88.39s-90.2-40.38-90.2-90.2c0-14.36 3.44-27.88 9.41-39.93l170.89 41.73Z"/>
  <path fill="#231f20" d="M316 429.94c.2 1.95.59 5.95.59 7.96 0 32.44-26.3 58.73-58.73 58.73s-58.73-26.3-58.73-58.73c0-11.89 5.06-24.49 11.13-33.74z"/>
  <path fill="#a7dff8" d="M497.99 437.08c.97 48.97 40.9 88.39 90.1 88.39 49.81 0 90.2-40.38 90.2-90.2 0-14.36-3.44-27.88-9.41-39.93l-170.89 41.73Z"/>
  <path fill="#231f20" d="M527.91 429.07c-.2 1.95-1.18 6.83-1.18 8.83 0 32.44 26.3 58.73 58.73 58.73 32.44 0 58.73-26.3 58.73-58.73 0-11.89-4.47-24.49-10.55-33.74L527.9 429.07Zm-82.14 179.04c-9.05 0-18.71-2.73-28.08-10.03-25.34 19.74-52.83 6.08-64.51-4.73-3.85-3.56-4.08-9.58-.52-13.43 3.57-3.85 9.58-4.09 13.43-.52 2.34 2.12 23.68 20.37 43.79.25a9.5 9.5 0 0 1 6.72-2.78h2.19c2.52 0 4.94 1 6.72 2.78 20.1 20.1 41.45 1.86 43.82-.28 3.87-3.52 9.87-3.27 13.41.6 3.54 3.85 3.31 9.83-.53 13.38-7.36 6.82-21.01 14.76-36.44 14.76"/>
  <ellipse cx="416.99" cy="561.02" fill="#f7bad5" rx="27.73" ry="13.2"/>
  <path fill="#f7bad5" d="M160.73 307.6s15.01-166.33 70.43-249.21c5.31-7.94 16.64-9.08 23.38-2.31 15.91 15.99 45.6 84.71 71.57 156.35 0 0-30.14 6.81-165.38 95.16Zm535.06 0s-15.01-166.33-70.43-249.21c-5.31-7.94-16.64-9.08-23.38-2.31-15.91 15.99-47.16 84.71-73.14 156.35 0 0 47.26 6.81 166.94 95.16Z"/>
  <path fill="#d5e9f8" d="M521.86 278.85c30.81-115.19-141.4-95.74-137.55-210.7.38 48.87-8.67 100.78 24.56 140.27-53.86 6.34-70.47-65.77-85.15-99.49-4.6 62.84-16.28 160.47 54.83 187.39"/>
  <path fill="#fff" d="M535.84 278.85c34.96-143.32-154.22-111.2-150.38-226.16.38 48.87-6.34 95.26 26.89 134.76-53.86 6.34-74.29-59.86-88.97-93.58-4.6 62.84 30.68 177.99 128.56 202.46"/>
</svg>
