<svg xmlns="http://www.w3.org/2000/svg" fill="none" viewBox="0 0 166 166">
  <path fill="url(#celsius-network_svg__a)" d="M124.51 60.693a4.153 4.153 0 0 0-2.937 7.092 4.154 4.154 0 0 0 7.092-2.938 4.15 4.15 0 0 0-2.564-3.84 4.2 4.2 0 0 0-1.591-.314M82.993 0a83 83 0 1 0 .014 166 83 83 0 0 0-.014-166m37.753 117.723a51.85 51.85 0 0 1-38.217 17.048h-.095a51.84 51.84 0 0 1-38.527-17.23A51.3 51.3 0 0 1 30.966 77.25a51.95 51.95 0 0 1 45.388-45.671 53 53 0 0 1 6.06-.35 51.2 51.2 0 0 1 31.525 10.773 2.44 2.44 0 0 1 .956 1.851 2.46 2.46 0 0 1-.821 1.926l-5.495 4.922a3.15 3.15 0 0 1-2.1.801 3.23 3.23 0 0 1-1.852-.586 38.7 38.7 0 0 0-22.186-6.989A39.15 39.15 0 0 0 53.3 57.023a38.7 38.7 0 0 0-9.662 30.481 39.19 39.19 0 0 0 34.34 34.306q2.227.245 4.47.249a38.72 38.72 0 0 0 27.693-11.608 3.25 3.25 0 0 1 2.297-.963c.62 0 1.226.183 1.743.526l6.101 3.999a2.5 2.5 0 0 1 1.09 1.751 2.45 2.45 0 0 1-.626 1.959m3.764-40.345a12.53 12.53 0 0 1-11.577-7.736 12.532 12.532 0 1 1 23.154 0 12.53 12.53 0 0 1-11.577 7.736"/>
  <defs>
    <linearGradient id="celsius-network_svg__a" x1="27.443" x2="143.374" y1="143.15" y2="23.746" gradientUnits="userSpaceOnUse">
      <stop stop-color="#3228ba"/>
      <stop offset=".927" stop-color="#f63aac"/>
    </linearGradient>
  </defs>
</svg>
