<svg xmlns="http://www.w3.org/2000/svg" fill="none" viewBox="0 0 166 166">
  <path fill="url(#celsius-network_svg__a)" d="M124.51 60.693a4.153 4.153 0 0 0-2.937 7.092 4.154 4.154 0 0 0 7.092-2.938 4.154 4.154 0 0 0-2.564-3.84 4.147 4.147 0 0 0-1.591-.314ZM82.993 0a83 83 0 1 0 .014 166 83 83 0 0 0-.014-166Zm37.753 117.723a51.846 51.846 0 0 1-38.217 17.048h-.095a51.842 51.842 0 0 1-38.527-17.23A51.302 51.302 0 0 1 30.966 77.25a51.953 51.953 0 0 1 45.388-45.671 52.485 52.485 0 0 1 6.06-.35 51.213 51.213 0 0 1 31.525 10.773 2.438 2.438 0 0 1 .956 1.851 2.462 2.462 0 0 1-.821 1.926l-5.495 4.922a3.149 3.149 0 0 1-2.1.801 3.234 3.234 0 0 1-1.852-.586 38.709 38.709 0 0 0-22.186-6.989A39.154 39.154 0 0 0 53.3 57.023a38.705 38.705 0 0 0-9.662 30.481 39.188 39.188 0 0 0 34.34 34.306c1.484.163 2.976.247 4.47.249a38.719 38.719 0 0 0 27.693-11.608 3.245 3.245 0 0 1 2.297-.963c.62 0 1.226.183 1.743.526l6.101 3.999a2.492 2.492 0 0 1 1.09 1.751 2.448 2.448 0 0 1-.626 1.959Zm3.764-40.345a12.528 12.528 0 0 1-11.577-7.736 12.532 12.532 0 1 1 23.154 0 12.53 12.53 0 0 1-11.577 7.736Z"/>
  <defs>
    <linearGradient id="celsius-network_svg__a" x1="27.443" x2="143.374" y1="143.15" y2="23.746" gradientUnits="userSpaceOnUse">
      <stop stop-color="#3228BA"/>
      <stop offset=".927" stop-color="#F63AAC"/>
    </linearGradient>
  </defs>
</svg>
