<svg xmlns="http://www.w3.org/2000/svg" fill="none" viewBox="0 0 20 20">
  <mask id="changenow_svg__a" width="20" height="20" x="0" y="0" maskUnits="userSpaceOnUse" style="mask-type:luminance">
    <path fill="#fff" d="M0 0h20v20H0z"/>
  </mask>
  <g mask="url(#changenow_svg__a)">
    <path fill="#202029" d="M10 20c5.523 0 10-4.477 10-10S15.523 0 10 0 0 4.477 0 10s4.477 10 10 10"/>
    <path stroke="url(#changenow_svg__b)" d="M10 19.5a9.5 9.5 0 1 0 0-19 9.5 9.5 0 0 0 0 19Z"/>
    <path fill="#00c26f" d="M3.224 12.102h1.09v-2.036h.022l1.53 2.036h.885V8.236h-1.09v2.004h-.022L4.121 8.236h-.897z"/>
    <path fill="#00c26f" fill-rule="evenodd" d="M11.35 10.17c0-1.235-.766-2.001-1.982-2.001s-1.981.766-1.981 2.001.763 1.999 1.981 1.999c1.216 0 1.982-.764 1.982-1.999m-2.786 0c0-.67.322-1.096.804-1.096s.804.426.804 1.096c0 .667-.318 1.093-.804 1.093-.485 0-.804-.426-.804-1.093" clip-rule="evenodd"/>
    <path fill="#00c26f" d="m13.926 12.102.586-2.213h.022l.586 2.213h1.09l1.014-3.866H16.03l-.452 2.443h-.022l-.586-2.443h-.894l-.586 2.443h-.022l-.452-2.443h-1.194l1.014 3.866z"/>
  </g>
  <defs>
    <linearGradient id="changenow_svg__b" x1="9.999" x2="9.999" y1="-.519" y2="20.516" gradientUnits="userSpaceOnUse">
      <stop stop-color="#fb9600"/>
      <stop offset=".25" stop-color="#00c26f"/>
      <stop offset=".505" stop-color="#6696d6"/>
      <stop offset=".776" stop-color="#f28984"/>
      <stop offset="1" stop-color="#5fcef0"/>
    </linearGradient>
  </defs>
</svg>
