<svg xmlns="http://www.w3.org/2000/svg" fill="none" viewBox="0 0 20 20">
  <circle cx="10" cy="10" r="10" fill="#ff1256"/>
  <path fill="#fff" d="m6.611 5.711 2.321-1.433c.204-.115.204-.354.057-.5L7.05 1.903a.1.1 0 0 0-.137 0l-.184.185a.6.6 0 0 0 .003.852l.758.699a.28.28 0 0 1-.05.438l-.905.554a.6.6 0 0 0-.195.827l.136.221c.028.046.09.06.135.032m2.24 7.685a2.58 2.58 0 0 0-.604-2.317L6.78 9.417a2.01 2.01 0 0 1 .425-3.024l2.4-1.533a.406.406 0 0 1 .492.044c.877.808 3.93 3.724 3.794 6.736 0 0 .004 4.676-4.602 6.426-.677.257-1.362-.362-1.184-1.064.637-2.52.748-3.607.748-3.607zm.6-7.2L7.77 7.263a.786.786 0 0 0-.174 1.179l1.533 1.772c.878.966 1.227 2.3.932 3.573l-.257 1.127c-.11.489.466.83.847.503 1.615-1.394 3.878-4.745-.844-9.186a.29.29 0 0 0-.354-.034z"/>
</svg>
