<svg xmlns="http://www.w3.org/2000/svg" viewBox="0 0 30 30">
  <path fill="#cd0124" d="M17.8 15.7c0-.2 0-.3-.2-.4-.7-.5-1.5-1-2.2-1.5a.45.45 0 0 0-.5 0l-2.2 1.6a.55.55 0 0 0-.3.5 1.07 1.07 0 0 1-.2.6.45.45 0 0 0 0 .5c.8 1.6 1.5 3.2 2.3 4.8.3.5.5 1.1.8 1.7.1-.1.1-.2.2-.3.9-2 1.7-4 2.6-6 .1-.2.1-.3-.1-.4a1.31 1.31 0 0 1-.2-1.1Zm-3.4-2.6c-2-1.4-4-2.8-5.9-4.1l-.1.1c.1.2.1.3.2.5l2.1 4.5c.2.4.3.8.9.9a.9.9 0 0 0 .5-.1c.6-.5 1.3-.9 1.9-1.4Z"/>
  <path fill="#cd0124" d="M15 0a15 15 0 1 0 15 15A15 15 0 0 0 15 0Zm8.1 8.7c-.2 0-.3.1-.4.3-.8 2-1.7 4-2.5 6v.4a1.3 1.3 0 0 1-.8 1.8q-.15 0-.3.3c-.9 2-1.8 4.1-2.6 6.1a.45.45 0 0 0 0 .5 1.26 1.26 0 0 1-.2 1.7 1.22 1.22 0 0 1-1.6.1 1.15 1.15 0 0 1-.3-1.6.64.64 0 0 0 0-.6c-1-2-1.9-4-2.9-6a.7.7 0 0 0-.5-.4 1.28 1.28 0 0 1-.9-1.9.45.45 0 0 0 0-.5c-.9-2-1.8-3.9-2.8-5.9 0-.1-.1-.2-.4-.2a1.28 1.28 0 0 1-1.1-1.2 1.54 1.54 0 0 1 .9-1.3 1.24 1.24 0 0 1 1.5.5c.1.2.2.2.5.2h12.7c.2 0 .4 0 .5-.3a1.15 1.15 0 0 1 1.4-.5 1.4 1.4 0 0 1 .9 1.2 1.3 1.3 0 0 1-1.1 1.3Z"/>
  <path fill="#cd0124" d="M15 12.4a.45.45 0 0 0 .5 0c1.9-1.4 3.8-2.7 5.6-4.1.1-.1.2-.1.2-.2V8H8.7a.77.77 0 0 1 .3.2Zm1 .7c.8.6 1.6 1.1 2.4 1.6.2.1.5 0 .8 0 .1 0 .2-.2.2-.3.7-1.6 1.4-3.3 2.1-4.9 0-.1.1-.2.1-.3h-.1c-1.7 1.2-3.6 2.5-5.5 3.9Z"/>
</svg>
