<svg xmlns="http://www.w3.org/2000/svg" fill="none" viewBox="0 0 20 20">
  <path fill="#B37AAF" d="m14.839 18.28-2.258-3.55-6.882 3.55z"/>
  <path fill="#B388BD" d="M15 18.28 20 10l-7.419 4.73 2.258 3.55z"/>
  <path fill="#B397C9" d="m5.7 18.28 6.881-3.55L3.55 8.173 5.163 18.28z"/>
  <path fill="#B3C1EE" d="m20 10-8.387-5.054.968 9.785z"/>
  <path fill="#B3A5D6" d="m0 10 5 8.28h.161L3.548 8.171z"/>
  <path fill="#B2B3E1" d="m3.549 8.172 9.032 6.559-.968-9.785z"/>
  <path fill="#B4CFFA" d="M5 1.72 3.55 8.172l8.064-3.226L5.7 1.72z"/>
  <path fill="#B4CFFA" d="m20 10-5-8.28h-.16l-3.227 3.226z"/>
  <path fill="#B7FAFF" d="M5 1.72 0 10l3.548-1.828zm.699 0 5.914 3.226 3.226-3.226z"/>
</svg>
