<svg xmlns="http://www.w3.org/2000/svg" fill="none" viewBox="0 0 20 20">
  <path fill="#1682fe" d="M12.538 3.9h-1.289v2.103h1.289zM8.84 0H7.552v2.103H8.84z"/>
  <path fill="#60d8a4" d="M5.143 2.006H3.855v2.103h1.288z"/>
  <path fill="#f4bb3b" d="M3.301 10H2v6.003h1.301z"/>
  <path fill="#60d8a4" d="M3.301 3.997H2V10h1.301z"/>
  <path fill="#1682fe" d="M14.38 5.905h-1.288v2.103h1.288z"/>
  <path fill="#ff5a5a" d="M14.38 11.992h-1.288v2.103h1.288zm-1.842 2.005h-1.289V16.1h1.289zm-3.698 3.9H7.552V20H8.84z"/>
  <path fill="#f4bb3b" d="M5.143 15.891H3.855v2.103h1.288z"/>
  <path fill="#3a3a3a" d="M18 7.994V3.997h-1.855V2.006h-3.697V0H8.75v2.006H5.053V4.01H3.198v11.992h1.855v2.005h3.698v2.006h3.697v-2.006h3.697v-2.005H18v-4.011h-3.697v2.005h-1.855v2.006H8.75v-2.006H6.908V6.003h1.855V3.997h3.698v2.006h1.855v2.005H18z"/>
</svg>
