<svg xmlns="http://www.w3.org/2000/svg" fill="none" viewBox="0 0 20 20">
  <path fill="#103f68" d="M10 20c5.523 0 10-4.477 10-10S15.523 0 10 0 0 4.477 0 10s4.477 10 10 10"/>
  <path fill="#fff" d="m9.985 1.618 7.265 4.184v8.395l-7.257 4.197-.059-.015-7.184-4.182V5.802l7.184-4.184zm-.024.868L3.513 6.241v7.517l6.447 3.754.788-.456 5.739-3.3V6.242l-5.74-3.32zm-5.449 8.097 1.909-1.427 1.687 1.078v1.938l1.277 1.23v.577l-1.231 1.153H7.115zm6.031 3.398-.002-.58 1.272-1.229v-1.938l1.67-1.092 1.904 1.442-2.59 4.535h-1.025zm-1.808-3.747-.622-1.626h3.693l-.61 1.626.18 1.818-1.424.003-1.408.002zm1.217-2.072-3.51-.002.653-2.915h5.697l.687 2.92z"/>
</svg>
