<svg xmlns="http://www.w3.org/2000/svg" fill="none" viewBox="0 0 20 20">
  <path fill="#f5ac37" d="M10 0c5.523 0 10 4.478 10 10s-4.477 10-10 10S0 15.523 0 10 4.478 0 10 0"/>
  <path fill="#fefefd" d="M10.365 10.702h3.8c.081 0 .12 0 .125-.107a7 7 0 0 0 0-1.162c0-.075-.037-.106-.118-.106H6.609c-.093 0-.119.03-.119.119v1.112c0 .143 0 .143.15.143zm3.501-2.675a.12.12 0 0 0 0-.088 2.5 2.5 0 0 0-.226-.393 3.2 3.2 0 0 0-.463-.582q-.126-.16-.287-.281a4.5 4.5 0 0 0-1.875-.95 4.7 4.7 0 0 0-1.063-.112H6.596c-.093 0-.106.037-.106.118v2.219c0 .093 0 .119.119.119h7.212s.063-.013.075-.05zm0 3.975a1.5 1.5 0 0 0-.32 0h-6.93c-.094 0-.126 0-.126.125v2.169c0 .1 0 .125.126.125h3.2q.229.016.455-.031a4.8 4.8 0 0 0 1.357-.3q.24-.083.456-.213h.044a4.06 4.06 0 0 0 1.743-1.755s.044-.095-.005-.12m-8.632 3.543V12.09c0-.081 0-.093-.1-.093H3.779c-.075 0-.106 0-.106-.1v-1.188h1.45c.08 0 .112 0 .112-.106V9.427c0-.075 0-.094-.1-.094H3.779c-.075 0-.106 0-.106-.1v-1.1c0-.068 0-.087.1-.087h1.344c.093 0 .118 0 .118-.118v-3.37c0-.099 0-.124.126-.124h4.687q.51.02 1.012.112a6.1 6.1 0 0 1 1.957.725c.4.237.77.522 1.1.85q.37.386.668.832.296.451.488.956c.016.087.1.146.187.131h1.119c.143 0 .143 0 .15.138v1.025c0 .1-.038.125-.138.125h-.863c-.087 0-.112 0-.106.113q.051.57 0 1.143c0 .106 0 .119.12.119h.986c.044.056 0 .112 0 .17q.009.108 0 .217v.757c0 .106-.03.138-.125.138h-1.181a.156.156 0 0 0-.182.118 5 5 0 0 1-1.312 1.913 8 8 0 0 1-.669.537c-.25.144-.494.294-.75.413a6.8 6.8 0 0 1-1.475.468 7.7 7.7 0 0 1-1.463.119H5.233v-.006z"/>
</svg>
