<svg xmlns="http://www.w3.org/2000/svg" viewBox="0 0 400 400">
  <defs>
    <linearGradient id="decentraland_svg__a" x1="85.355%" x2="14.645%" y1="14.645%" y2="85.355%">
      <stop offset="0%" stop-color="#ff2d55"/>
      <stop offset="100%" stop-color="#ffbc5b"/>
    </linearGradient>
    <linearGradient id="decentraland_svg__b" x1="49.966%" x2="49.966%" y1="0%" y2="100%">
      <stop offset="0%" stop-color="#a524b3"/>
      <stop offset="100%" stop-color="#ff2d55"/>
    </linearGradient>
  </defs>
  <g fill-rule="evenodd">
    <circle cx="200" cy="200" r="200" fill="url(#decentraland_svg__a)"/>
    <path fill="url(#decentraland_svg__b)" d="M125.7 0v150h125z" transform="translate(16 130)"/>
    <path fill="#fff" d="M16.7 280h125V130z"/>
    <path fill="#fc9965" d="M40 320c11.4 15.1 24.9 28.6 40 40h240c15.1-11.4 28.6-24.9 40-40z"/>
    <path fill="#ff2d55" d="M80 360c33.4 25.1 75 40 120 40s86.6-14.9 120-40z"/>
    <path fill="url(#decentraland_svg__b)" d="M252.3 0v110H344z" transform="translate(16 210)"/>
    <path fill="#ffbc5b" d="M268.3 280H16.7c6.2 14.3 14.1 27.7 23.3 40h228.4v-40z"/>
    <path fill="#fff" d="M176.7 320h91.6V210z"/>
    <circle cx="268.3" cy="130" r="50" fill="#ffc95b"/>
    <circle cx="141.7" cy="75" r="25" fill="#ffc95b"/>
  </g>
</svg>
