<svg xmlns="http://www.w3.org/2000/svg" fill="none" viewBox="0 0 20 20">
  <g clip-path="url(#defipulse-index_svg__a)">
    <circle cx="9.979" cy="10" r="10" fill="#7957DE"/>
    <path fill="#361D67" d="m11.144 19.933-.083-.022-5.42-5.42 1.851-6.985 5.116-1.22 6.646 7.46a10.01 10.01 0 0 1-8.11 6.187"/>
    <path fill="#9479E5" d="M10.313 15.919c2.935 0 4.675-1.816 4.675-4.826 0-3.001-1.74-4.807-4.61-4.807h-3.33v9.633zm-1.52-1.51V7.795h1.487c1.957 0 2.49.918 2.49 3.124 0 2.215-.9 2.772-2.908 2.772z"/>
    <path fill="#fff" d="M8.873 14.458c2.935 0 4.676-1.816 4.676-4.826 0-3-1.74-4.807-4.61-4.807h-3.33v9.633zm-1.52-1.51V6.335H8.84c1.957 0 2.978 1.091 2.978 3.297 0 2.215-1.021 3.316-3.03 3.316z"/>
  </g>
  <defs>
    <clipPath id="defipulse-index_svg__a">
      <path fill="#fff" d="M0 0h20v20H0z"/>
    </clipPath>
  </defs>
</svg>
