<svg xmlns="http://www.w3.org/2000/svg" xmlns:xlink="http://www.w3.org/1999/xlink" viewBox="0 0 40 40">
  <defs>
    <path id="defipulse-index_svg__a" d="M0 0h39.653v39.791H0z"/>
  </defs>
  <g transform="translate(.246 .104)">
    <mask id="defipulse-index_svg__b" fill="#fff">
      <use xlink:href="#defipulse-index_svg__a"/>
    </mask>
    <path fill="#8150E6" d="M39.653 19.896c0 10.988-8.876 19.895-19.826 19.895S0 30.884 0 19.896 8.877 0 19.827 0s19.826 8.908 19.826 19.896" mask="url(#defipulse-index_svg__b)"/>
  </g>
  <path fill="#3C176B" d="M39.158 25.405 25.043 11.467l-8.044-1.508-4.707 17.776L24.17 39.469c7.226-1.524 13.004-6.996 14.988-14.064"/>
  <path fill="#6B42BD" d="M18.36 26.177v-11h2.771q1.397.001 2.565.356a5.4 5.4 0 0 1 2.024 1.107q.116.103.227.216c.01-1.491-.529-2.977-1.29-4.32a9.5 9.5 0 0 0-2.61-.363h-6.721v13.99c1.021.011 2.019.095 3.035.014"/>
  <path fill="#9B74EC" d="M29.995 17.378q-.722-1.752-1.927-2.912a7.8 7.8 0 0 0-2.77-1.726 10 10 0 0 0-.641-.205c.761 1.344 1.3 2.83 1.29 4.32.462.47.757 2.286 1.035 2.983l-8.621 7.897v-1.558c-1.016.08-2.014-.003-3.035-.014v4.576h6.36q1.54 0 3.142-.566a8.9 8.9 0 0 0 2.915-1.713q1.313-1.146 2.144-2.9.831-1.75.831-4.15c0-1.58-.24-2.863-.723-4.032"/>
  <path fill="#FFF" d="M17.59 24.727a10 10 0 0 0 2.686-.356 6.2 6.2 0 0 0 2.204-1.107q.94-.75 1.482-1.95t.542-2.912c0-1.124-.16-1.999-.482-2.807q-.482-1.212-1.337-1.963a5.4 5.4 0 0 0-2.023-1.107q-1.169-.356-2.566-.356h-2.77v12.558h2.265ZM12.292 9.165h6.72a9.5 9.5 0 0 1 3.253.567 7.8 7.8 0 0 1 2.77 1.726q1.204 1.16 1.927 2.912c.723 1.752.722 2.45.722 4.032q0 2.398-.83 4.15-.833 1.754-2.144 2.9a8.9 8.9 0 0 1-2.915 1.712q-1.602.567-3.144.567h-6.359z"/>
</svg>
