<svg xmlns="http://www.w3.org/2000/svg" xmlns:xlink="http://www.w3.org/1999/xlink" viewBox="0 0 40 40">
  <defs>
    <path id="defipulse-index_svg__a" d="M0 0h39.653v39.791H0z"/>
  </defs>
  <g transform="translate(.246 .104)">
    <mask id="defipulse-index_svg__b" fill="#fff">
      <use xlink:href="#defipulse-index_svg__a"/>
    </mask>
    <path fill="#8150E6" d="M39.653 19.896c0 10.988-8.876 19.895-19.826 19.895C8.877 39.791 0 30.884 0 19.896S8.877 0 19.827 0c10.95 0 19.826 8.908 19.826 19.896" mask="url(#defipulse-index_svg__b)"/>
  </g>
  <path fill="#3C176B" d="M39.158 25.405 25.043 11.467l-8.044-1.508-4.707 17.776L24.17 39.469c7.226-1.524 13.004-6.996 14.988-14.064"/>
  <path fill="#6B42BD" d="M18.36 26.177v-11h2.771c.931 0 1.786.12 2.565.356a5.413 5.413 0 0 1 2.024 1.107c.078.069.153.141.227.216.01-1.491-.529-2.977-1.29-4.32a9.513 9.513 0 0 0-2.61-.363h-6.721v13.99c1.021.011 2.019.095 3.035.014"/>
  <path fill="#9B74EC" d="M29.995 17.378c-.481-1.168-1.124-2.139-1.927-2.912a7.767 7.767 0 0 0-2.77-1.726 9.452 9.452 0 0 0-.641-.205c.761 1.344 1.3 2.83 1.29 4.32.462.47.757 2.286 1.035 2.983l-8.621 7.897v-1.558c-1.016.08-2.014-.003-3.035-.014v4.576h6.36c1.027 0 2.074-.188 3.142-.566a8.923 8.923 0 0 0 2.915-1.713c.875-.765 1.59-1.73 2.144-2.9.554-1.167.831-2.55.831-4.15 0-1.58-.24-2.863-.723-4.032"/>
  <path fill="#FFF" d="M17.59 24.727a9.88 9.88 0 0 0 2.686-.356 6.154 6.154 0 0 0 2.204-1.107c.627-.5 1.12-1.15 1.482-1.95.361-.8.542-1.77.542-2.912 0-1.124-.16-1.999-.482-2.807-.321-.808-.767-1.462-1.337-1.963a5.41 5.41 0 0 0-2.023-1.107c-.78-.237-1.634-.356-2.566-.356h-2.77v12.558h2.265ZM12.292 9.165h6.72a9.49 9.49 0 0 1 3.253.567 7.766 7.766 0 0 1 2.77 1.726c.803.773 1.445 1.744 1.927 2.912s.722 2.45.722 4.032c0 1.599-.277 2.982-.83 4.15-.555 1.17-1.27 2.135-2.144 2.9a8.924 8.924 0 0 1-2.915 1.712c-1.068.378-2.116.567-3.144.567h-6.359V9.165Z"/>
</svg>
