<svg xmlns="http://www.w3.org/2000/svg" fill="none" viewBox="0 0 20 20">
  <circle cx="10" cy="10" r="10" fill="url(#dent_svg__a)"/>
  <path fill="#fff" fill-rule="evenodd" d="M9.39 2.19a1.9 1.9 0 0 0-1.07.937c-.211.418-.223.593-.223 3.22 0 2.342.005 2.504.094 2.79.112.362.33.684.62.913l.212.168.024-3.264c.026-3.553.013-3.397.292-3.65a.97.97 0 0 1 1.505.243c.068.122.083.373.103 1.746l.024 1.604.463-.432.463-.432V4.947c0-.624-.023-1.194-.054-1.338a1.94 1.94 0 0 0-1.034-1.331c-.41-.198-1.023-.236-1.419-.089M4.297 5.163c-1.405.391-1.87 2.141-.838 3.147.172.167.651.472 1.622 1.032l2.155 1.246c.882.512 1.067.582 1.555.582.343 0 .873-.144.873-.238 0-.022-.123-.11-.273-.194s-.465-.266-.7-.403c-.236-.138-1.326-.767-2.423-1.4-1.097-.63-2.056-1.204-2.13-1.273-.383-.357-.403-.898-.05-1.29a.93.93 0 0 1 .802-.316c.225.03.288.064 1.806.946 1.168.678 1.122.659 1.07.455a28 28 0 0 1-.143-.618l-.102-.46-.98-.558c-.538-.307-1.066-.59-1.172-.627a2.1 2.1 0 0 0-1.072-.031m10.437-.002c-.248.068-.282.086-2.885 1.579-1.942 1.113-2.078 1.215-2.334 1.751-.123.257-.238.779-.172.779.022 0 .916-.513 3.955-2.27 1.544-.893 1.582-.913 1.805-.944.578-.08 1.15.507 1.045 1.07a.9.9 0 0 1-.32.557c-.088.076-.72.459-1.403.85-.684.392-1.244.724-1.245.738 0 .013.267.106.594.206l.594.182.961-.556c1.05-.607 1.37-.866 1.572-1.28.42-.86.111-1.956-.688-2.434-.461-.276-1.003-.36-1.48-.228M10.766 8.87c-.277.074-.437.148-.436.2 0 .02 1.17.708 2.598 1.53 1.428.824 2.688 1.555 2.8 1.625a1 1 0 0 1 .42.662c.078.416-.227.888-.656 1.015-.363.108-.539.058-1.22-.342l-.95-.548c-.431-.248-.868-.501-.97-.562-.13-.077-.18-.09-.162-.042.015.038.086.328.158.645.124.543.14.58.28.652.17.086.45.246 1.216.692.68.395.745.423 1.119.476 1.476.209 2.59-1.348 1.934-2.704-.18-.374-.482-.648-1.105-1.007-.49-.282-1.257-.724-3.228-1.863-.839-.486-1.236-.58-1.798-.43m.17 4.163c-.013 3.184-.015 3.248-.112 3.434a1.1 1.1 0 0 1-.309.332c-.18.123-.252.143-.518.142q-.573-.002-.819-.462c-.104-.195-.108-.253-.131-1.787l-.024-1.585-.463.418-.463.417v1.122c0 1.222.04 1.505.269 1.896a1.86 1.86 0 0 0 1.95.913c.765-.14 1.315-.657 1.51-1.416.064-.252.073-.649.06-2.896l-.013-2.604-.148-.309c-.167-.347-.41-.647-.63-.774l-.146-.085zm-6.354-2.096c-1.048.61-1.279.803-1.492 1.245-.65 1.343.473 2.899 1.942 2.69.333-.047.643-.177 1.117-.469.17-.104.341-.205.38-.223.04-.019.146-.08.238-.136.091-.057.262-.157.38-.222 1.437-.798 2.766-1.602 2.96-1.789.272-.264.492-.694.537-1.048.028-.224.022-.254-.044-.228-.042.016-.51.28-1.04.587a808 808 0 0 1-4.26 2.454c-.927.514-1.866-.476-1.276-1.346.08-.118.435-.347 1.41-.91.718-.413 1.323-.77 1.346-.793.044-.044-.98-.388-1.137-.383-.048.002-.526.258-1.061.57" clip-rule="evenodd"/>
  <defs>
    <linearGradient id="dent_svg__a" x1="10" x2="10" y1="0" y2="20" gradientUnits="userSpaceOnUse">
      <stop stop-color="#ee472a"/>
      <stop offset="1" stop-color="#d2141f"/>
    </linearGradient>
  </defs>
</svg>
