<svg xmlns="http://www.w3.org/2000/svg" fill="none" viewBox="0 0 20 20">
  <circle cx="10" cy="10" r="10" fill="#30239D" transform="rotate(90 10 10)"/>
  <path fill="#fff" fill-rule="evenodd" d="M8.06 2.789h.06c2.995 0 5.838 1.21 7.064 3.055.672 1.02.94 2.177 1.043 3.086a9.5 9.5 0 0 1 .044 1.599v.008l-.003.04c0 .443-.04 1.065-.169 1.516-.486 1.964-1.96 3.448-4.218 4.325a11.6 11.6 0 0 1-3.244.791l-.015.001h-.004s-.002 0-.016-.217l.015.218h-.109l-2.606-1.126-.138-.228V4.422l.088-.218 2.103-1.363zm-.446 13.26a11.2 11.2 0 0 0 2.793-.721c1.114-.457 2.046-1.092 2.604-1.857.597-.784.826-1.726.91-2.423a3.7 3.7 0 0 0 .008-.961l-.002-.011-.004-.021v-.015l-.003-.018c-.185-1.196-.894-1.952-1.666-2.437-.712-.446-1.49-.67-1.98-.802v-.787c1.202.118 2.438.416 3.404 1.05 1.025.673 1.763 1.734 1.83 3.421v.002c.02.408-.002 1.035-.112 1.456l-.001.004c-.532 2.15-2.323 3.279-3.778 3.845h-.001c-1.359.54-2.636.68-2.976.713zm1.96-2.77V5.488l.287-.238.1.007c2.344.163 4.094.864 5.146 2.096a5.5 5.5 0 0 0-.542-1.115c-.506-.781-1.397-1.46-2.52-1.947a9.9 9.9 0 0 0-3.576-.778v9.799c.392.027.706.014 1.104-.031m-3.11 2.135c1.283-.037 2.498-.285 3.521-.685 1.019-.397 1.83-.939 2.337-1.557a5.9 5.9 0 0 1-1.656.654 7.6 7.6 0 0 1-2.597.161l-.1-.012-.2-.247V3.82l-1.304.848zm3.81-7.939c.449.123 1.034.311 1.569.64.654.401 1.216 1.002 1.362 1.943l.006.04.011.021v.054l.002.014a3.6 3.6 0 0 1-.019.747c-.09.438-.302.81-.65 1.155-.55.528-1.405.892-2.281 1.072z" clip-rule="evenodd"/>
</svg>
