<svg xmlns="http://www.w3.org/2000/svg" viewBox="0 0 250.7 256">
  <path fill="#278dc1" fill-rule="evenodd" d="M-.2 127.783C-.2 57.046 56.275 0 125.3 0s125.502 57.046 125.502 127.783-55.905 127.783-125.501 127.783C56.275 256.136-.2 198.52-.2 127.783z" clip-rule="evenodd"/>
  <path fill="#fffffe" fill-rule="evenodd" d="M89.362 118.085c-8.557 0-14.832-6.845-14.832-15.402 0-8.557 6.845-15.403 14.832-15.403 8.557 0 14.832 6.846 14.832 15.403s-6.275 15.402-14.832 15.402zm27.382-57.616h-11.98v19.395c-4.563-2.852-9.697-4.563-14.832-4.563-14.832 0-27.382 12.55-27.382 27.952s11.98 27.953 27.382 27.953c14.832 0 27.382-12.55 27.382-27.953V60.47zm44.496 77.582c8.557 0 14.832 6.846 14.832 15.403s-6.846 15.402-14.832 15.402c-8.557 0-14.832-6.845-14.832-15.402 0-8.557 6.845-15.403 14.832-15.403zm-27.382 57.617h11.98v-19.396c4.563 2.852 9.697 4.564 14.831 4.564 14.832 0 27.382-12.55 27.382-27.953s-11.98-27.952-27.382-27.952c-14.832 0-27.382 12.55-27.382 27.952l.57 42.785zm13.12-115.804c8.557 0 14.832 6.846 14.832 15.403s-6.845 15.402-14.832 15.402-14.832-6.845-14.832-15.402c0-8.557 6.846-15.403 14.832-15.403zm.57-11.98c-15.402 0-27.381 12.55-27.381 27.953s11.98 27.953 27.382 27.953c14.832 0 27.382-12.55 27.382-27.953 0-5.704-1.711-10.838-4.564-15.402h18.825v-12.55H147.55zm-43.925 107.818c-8.556 0-14.832-6.846-14.832-15.403s6.846-15.402 14.832-15.402c8.557 0 14.832 6.845 14.832 15.402 0 8.557-6.845 15.403-14.832 15.403zm-.57 12.55c.57 0 .57 0 0 0 15.402 0 27.382-12.55 27.382-27.953s-11.98-27.952-27.382-27.952c-14.832 0-27.382 12.55-27.382 27.952 0 5.705 1.711 10.839 4.564 15.403H61.409v12.55h41.644z" clip-rule="evenodd"/>
</svg>
