<svg xmlns="http://www.w3.org/2000/svg" fill="none" viewBox="0 0 20 20">
  <g clip-path="url(#digibyte_svg__a)">
    <path fill="#286bcb" d="M10 20.063c5.523 0 10-4.478 10-10s-4.477-10-10-10-10 4.477-10 10 4.477 10 10 10"/>
    <path fill="#fff" d="M4.873 7.624h6.46s2.231-.02.689 2.855c0 0-1.126 2.251-3.919 2.21l1.505-3.844a.304.304 0 0 0-.275-.417l-1.98-.033-2.501 6.086s.834.083 1.292.042l-.25.625h1.18a.16.16 0 0 0 .15-.104l.212-.563.5-.042-.291.709h1.15a.21.21 0 0 0 .196-.133l.321-.826s3.502-.583 5.086-3.418c0 0 2.125-3.293-.375-4.46a4.8 4.8 0 0 0-1.543-.417l.292-.721a.14.14 0 0 0-.063-.179.14.14 0 0 0-.066-.017h-1.08l-.333.875h-.459l.259-.679a.146.146 0 0 0-.134-.196H9.812l-.333.875H6.11a.5.5 0 0 0-.442.263z"/>
  </g>
  <defs>
    <clipPath id="digibyte_svg__a">
      <path fill="#fff" d="M0 0h20v20H0z"/>
    </clipPath>
  </defs>
</svg>
