<svg xmlns="http://www.w3.org/2000/svg" fill="none" viewBox="0 0 20 20">
  <circle cx="10" cy="10" r="10" fill="#FFF706"/>
  <path fill="#000" d="M4.17 12.5H2.812v3.438h1.356c.99 0 1.769-.756 1.769-1.71 0-.966-.777-1.728-1.769-1.728m-.02 2.691h-.516v-1.945h.516c.526 0 .937.433.937.983 0 .539-.41.962-.937.962M8.283 12.5c-.965 0-1.72.759-1.72 1.719s.753 1.719 1.719 1.719A1.7 1.7 0 0 0 10 14.218 1.7 1.7 0 0 0 8.283 12.5m0 2.685c-.515 0-.906-.414-.906-.966 0-.553.39-.967.906-.967.515 0 .905.414.905.967s-.39.966-.905.966m3.699-2.685h-1.357v3.438h1.357c.989 0 1.768-.756 1.768-1.71 0-.966-.779-1.728-1.768-1.728m-.02 2.691h-.515v-1.945h.516c.526 0 .937.433.937.983 0 .539-.411.962-.937.962m3.975-2.691c-1.053 0-1.876.757-1.876 1.719s.823 1.719 1.876 1.719 1.874-.757 1.874-1.72c0-.961-.822-1.718-1.874-1.718m0 2.685c-.562 0-.988-.414-.988-.966 0-.553.426-.967.988-.967s.987.414.987.967-.426.966-.987.966m-1-9.51a6.55 6.55 0 0 0-3.035-1.58q.089-.071.175-.156c.501-.502.68-1.135.397-1.416-.252-.253-.79-.135-1.26.256-.088-.696-.438-1.216-.855-1.216-.418 0-.769.52-.857 1.216-.472-.39-1.007-.509-1.26-.256-.281.282-.104.916.397 1.416q.088.086.177.158A6.58 6.58 0 0 0 3.686 9.96l-.109 1.29H5.27l.098-1.147a4.886 4.886 0 0 1 4.87-4.473h.253a4.884 4.884 0 0 1 4.868 4.473l.098 1.147h1.694l-.107-1.29a6.56 6.56 0 0 0-2.106-4.285"/>
  <path fill="#000" d="M8.71 7.797c-.336 0-.608.484-.608 1.081s.272 1.081.607 1.081.608-.484.608-1.08c0-.598-.273-1.082-.608-1.082m3.31 0c-.335 0-.608.484-.608 1.081s.273 1.081.608 1.081.607-.484.607-1.08c0-.598-.272-1.082-.607-1.082"/>
</svg>
