<svg xmlns="http://www.w3.org/2000/svg" fill="none" viewBox="0 0 20 20">
  <path fill="url(#dogelon-mars_svg__a)" fill-rule="evenodd" d="M4.962 3.263c-.032-.149-.1-.283-.152-.299a5 5 0 0 0-.432-.075c-.452-.063-.653.11-.8.685-.314 1.23-.31 2.599.012 3.97.129.55.13.62.007.976-.195.569-.281 1.075-.39 2.298-.109 1.238-.12 1.302-.241 1.302-.104 0-.125-.06-.247-.678-.051-.26-.109-.459-.128-.44s-.108.379-.2.8c-.09.421-.23.9-.31 1.063-.094.192-.11.284-.045.259.128-.05.228.107.113.178-.06.037-.055.091.014.174.08.097.08.135-.003.185-.08.05-.074.075.024.113a.13.13 0 0 1 .079.176c-.07.185.306.716 1.061 1.496a12.3 12.3 0 0 0 2.687 2.115c.646.37 1.138.591 3.04 1.37.28.114.64.311.799.438.171.136.341.21.418.18.073-.027.17.01.227.087.09.122.13.107.403-.152.375-.354.554-.447 1.716-.896 2.007-.776 3.295-1.587 4.647-2.925.843-.835 1.315-1.434 1.376-1.745.014-.071.032-.148.04-.17a1 1 0 0 0 .027-.163.106.106 0 0 1 .131-.096c.092.02.087-.01-.025-.134-.144-.159-.064-.325.106-.22.043.027.01-.108-.075-.3-.083-.192-.272-.784-.42-1.315-.148-.532-.276-.935-.285-.896-.136.578-.49 1.496-.576 1.496-.09 0-.1-.243-.055-1.33l.054-1.33-.27-.055c-.327-.065-.812-.42-.812-.594 0-.096.052-.114.207-.075.399.1.372-.054-.058-.34-.645-.426-.814-.597-.713-.718.062-.075.04-.116-.083-.155-.329-.105-.148-.368.253-.368.138 0 .122-.034-.1-.221-.258-.217-.808-1-.808-1.15 0-.041.24-.121.533-.176a3.8 3.8 0 0 1 1.563.055c.05.012.088.02.114.009.067-.027.069-.172.069-.65 0-.78-.12-1.538-.3-1.885-.122-.235-.127-.237-.692-.19-.542.046-.709.1-.79.326l-.04.147c-.027.137-.25.558-.497.937-.247.378-.449.721-.449.763s-.073.115-.163.163c-.14.075-.175.057-.244-.124a1.3 1.3 0 0 1-.081-.286c0-.04-.06-.05-.134-.022-.08.03-.174-.004-.234-.086-.091-.125-.105-.12-.148.047-.047.178-.057.175-.356-.116-.28-.273-.338-.295-.646-.254-.187.026-.585.004-.885-.049-.628-.11-.782-.064-.286.085.268.08.311.116.207.175-.171.096-1.65.12-2.28.037l-.488-.065.204.164.203.165H9.03c-.18 0-.486-.073-.68-.161l-.005-.002c-.259-.117-.366-.166-.398-.136-.023.022-.007.083.02.188v.002c.041.166.027.204-.063.17-.074-.029-.112.005-.106.091s-.034.122-.112.098c-.244-.078-.79-.021-.983.1-.657.418-1.638.16-1.994-.523-.128-.247-.251-1.126-.157-1.126.034 0 .208.166.387.37s.477.445.662.537l.336.169-.338-.355c-.37-.39-.548-.701-.637-1.113m.74 8.542a.65.65 0 0 1 .277-.313c.276-.14 1.183-.13 1.68.017.513.152.698.348.664.701-.04.405-.4.582-1.192.586-1.089.005-1.644-.38-1.429-.99m6.964.718c-.402-.375-.11-.877.608-1.046.508-.119 1.394-.103 1.65.03.612.316.326 1.077-.464 1.238-.68.139-1.519.035-1.794-.222m-2.902 2.75c-.516-.675-.535-1.056-.067-1.318.162-.091.397-.121.813-.105.487.019.62.055.793.219.331.31.275.622-.225 1.246-.134.168-.227.322-.206.344.022.02.458.143.97.27.938.234 1.125.358.866.573-.08.066-.23.073-.499.022a1.7 1.7 0 0 0-.806.04c-.54.144-1.39.145-1.867.002a1.5 1.5 0 0 0-.762-.04c-.303.056-.414.046-.505-.044-.217-.218-.04-.337.78-.528.447-.103.855-.215.907-.247.065-.04.004-.177-.192-.434" clip-rule="evenodd"/>
  <path fill="#fff" d="M4.34 3.655c-.553.358-.284 2.428-.081 3.419.26-.586 1.831-1.71 2.686-2.076-.638-.597-2.051-1.701-2.605-1.343m12.21 0c.553.358.285 2.428.081 3.419-.26-.586-1.831-1.71-2.686-2.076.638-.597 2.051-1.701 2.605-1.343"/>
  <path fill="url(#dogelon-mars_svg__b)" d="M2.602 12.853c-.39.26-.407 1.003-.366 1.343.57.773 1.929 2.425 2.808 2.848 1.099.53 2.564 1.628 3.785 1.872.977.196 1.33.652 1.384.855l.244-.163.244.163c.054-.203.407-.66 1.384-.855 1.22-.244 2.686-1.343 3.784-1.872.88-.423 2.239-2.075 2.809-2.848.04-.34.024-1.083-.367-1.343-.39-.26-.76-.326-.895-.326-.936-.122-2.564 1.538-3.54 1.506-1.222-.04-1.995-1.18-3.42-1.18s-2.197 1.14-3.418 1.18c-.977.032-2.604-1.628-3.54-1.506-.136 0-.505.065-.896.326"/>
  <ellipse cx="10.294" cy="17.578" fill="#e6e6e6" rx=".394" ry=".244" transform="rotate(7.2 10.294 17.578)"/>
  <path fill="url(#dogelon-mars_svg__c)" fill-rule="evenodd" d="M15.755 2.773c0 .128-.044.34-.083.5.08-.226.248-.28.79-.325.565-.048.57-.046.691.189.18.347.3 1.105.3 1.885 0 .478-.001.623-.068.65-.026.01-.063.003-.114-.01a3.8 3.8 0 0 0-1.563-.054c-.293.055-.533.135-.533.176 0 .15.55.933.808 1.15.222.187.238.221.1.221-.4 0-.582.263-.253.368.123.039.145.08.082.155-.1.121.07.292.714.719.43.285.456.439.058.339-.155-.04-.207-.02-.207.075 0 .174.485.529.812.594l.27.054-.054 1.33c-.045 1.088-.035 1.331.055 1.331.086 0 .44-.918.576-1.496.009-.039.137.364.285.896.148.531.337 1.123.42 1.315.084.192.117.327.075.3-.17-.105-.25.061-.107.22.113.124.118.155.026.134a.105.105 0 0 0-.13.096 1 1 0 0 1-.027.163 2 2 0 0 0-.041.17c-.061.311-.533.91-1.376 1.745-1.352 1.338-2.64 2.15-4.647 2.925-1.162.45-1.34.542-1.716.896-.274.258-.314.274-.403.152-.056-.077-.154-.114-.227-.086-.077.029-.247-.045-.419-.181-.159-.127-.518-.324-.799-.439-1.901-.778-2.393-1-3.039-1.369a12.3 12.3 0 0 1-2.687-2.115c-.755-.78-1.132-1.311-1.061-1.496a.13.13 0 0 0-.079-.176c-.098-.037-.104-.063-.024-.113.082-.05.083-.088.003-.184-.07-.084-.074-.138-.014-.175.114-.07.015-.227-.114-.178-.064.025-.048-.067.046-.26.08-.163.22-.64.31-1.062.091-.421.181-.781.2-.8s.077.18.128.44c.121.618.143.678.247.678.12 0 .132-.064.242-1.302.108-1.223.193-1.73.389-2.298.122-.357.122-.427-.007-.976-.323-1.371-.327-2.74-.012-3.97.147-.576.348-.748.8-.685.186.026.38.06.432.075.051.016.12.15.152.299a3.3 3.3 0 0 1-.062-.529l-.387-.07c-.774-.141-1.043.154-1.261 1.383l-.028.157c-.097.55-.13.737-.24.844.056.105.06 1.028.056 1.477l-.26.375-.261.376v2.85l-.268.546c-.148.3-.358.616-.468.703s-.2.18-.2.206c0 .116.289.036.463-.127.22-.207.221-.198.067.532-.13.609-.443 1.22-.696 1.355-.207.111-.205.243.003.243.09 0 .154.043.142.096-.01.053.08.147.204.208.123.062.224.149.224.193 0 .202.703 1.075 1.436 1.786 1.347 1.305 2.522 2.059 4.355 2.794 1.405.564 1.756.741 2.08 1.05.22.208.282.23.387.143s.125-.08.125.037c0 .113.045.13.224.085.123-.03.253-.107.288-.17.13-.23.776-.593 1.726-.968 2.285-.9 3.685-1.795 5.084-3.248.588-.611 1.15-1.374 1.104-1.5-.022-.06.082-.16.245-.238.155-.075.283-.16.283-.192 0-.031.077-.077.172-.102.162-.042.156-.06-.112-.337-.387-.398-.745-1.46-.671-1.992.028-.205.015-.53-.028-.724-.04-.173-.055-.26-.04-.295.012-.028.042-.023.096 0 .508.21.534.119.135-.475-.157-.233-.25-.436-.204-.451.14-.047.09-.258-.063-.258-.184 0-.48-.206-.59-.411-.083-.155-.076-.155.336.007.231.091.442.144.47.117.026-.027-.014-.157-.09-.288-.074-.131-.108-.239-.074-.239s.133-.052.22-.116c.152-.112.15-.12-.078-.206l-.235-.09.188-.2c.229-.244.166-.327-.222-.294l-.292.025.173-.272c.351-.552.367-.606.247-.878-.062-.142-.193-.275-.297-.301-.135-.034-.163-.074-.102-.147q.176-.208-.296-.207h-.271V5.12c0-.307.03-.407.122-.407a.12.12 0 0 0 .122-.122.12.12 0 0 0-.116-.122c-.195 0-.189-.272.013-.519.229-.28.2-.425-.075-.396-.172.018-.217-.027-.3-.305-.148-.493-.373-.602-1.104-.533zm-12.732 7.72c-.013.342-.022.573-.11.65-.226-1.33-.497-4.07.23-4.395.02.26.121.5.212.717.11.26.204.485.128.667-.404.958-.438 1.806-.46 2.362" clip-rule="evenodd"/>
  <path fill="url(#dogelon-mars_svg__d)" d="M7.62.097c-.188.226-.43.922-.477 1.373-.027.262-.078.476-.112.476-.035 0-.213-.17-.395-.377l-.331-.376-.161.193a1.8 1.8 0 0 0-.255.478c-.052.157-.124.317-.16.356-.065.071-.239-.437-.24-.702 0-.078-.051-.142-.113-.142-.137 0-.363.536-.428 1.013l-.048.345c0 .175.041.425.062.529.089.412.267.723.637 1.113l.337.355-.336-.169c-.184-.092-.482-.334-.661-.537s-.353-.37-.387-.37c-.094 0 .029.88.157 1.126.356.684 1.337.941 1.994.524.192-.122.74-.179.983-.101.078.024.119-.012.112-.098s.032-.12.106-.091c.09.034.104-.004.063-.17l-.001-.002c-.026-.105-.042-.166-.02-.188.033-.03.14.019.4.136l.003.002c.195.088.501.16.68.16h.326l-.204-.164-.203-.164.488.065c.63.082 2.108.059 2.28-.037.104-.059.061-.095-.207-.175-.496-.149-.343-.194.286-.085.3.053.698.075.884.05.308-.042.366-.02.646.253.3.291.31.294.357.116.043-.168.056-.172.148-.047.06.082.154.117.234.086.074-.028.134-.018.134.022s.036.17.08.286c.07.18.105.199.245.124.09-.048.163-.121.163-.163s.202-.385.449-.763c.246-.379.47-.8.498-.937q.016-.084.039-.147c.039-.16.083-.372.083-.5l-.098-.328a2.1 2.1 0 0 0-.334-.613c-.405-.492-1.858-1.087-1.858-.761 0 .067.112.168.248.225.496.205 1.039.907 1.164 1.504.032.154-.038.063-.189-.246C14.12 1.396 13.4 1.05 11.553 1.05c-.951 0-1.554-.083-2.102-.291-.613-.234-.511.138.128.465.168.085.305.178.305.205 0 .078-.984-.054-1.262-.17-.351-.147-.666-.55-.732-.938-.058-.344-.125-.4-.27-.224"/>
  <path fill="url(#dogelon-mars_svg__e)" d="M3.143 6.748c-.727.326-.456 3.066-.23 4.395.088-.077.097-.308.11-.65.022-.555.056-1.403.46-2.361.076-.182-.019-.408-.128-.667-.09-.217-.192-.457-.212-.717"/>
  <path fill="url(#dogelon-mars_svg__f)" d="M2.668 5.215c-.312.138-.495.162-1.018.132-.687-.04-.813.044-.455.303.17.122.17.13.02.106-.298-.047-.172.206.225.451.312.193.507.248.994.279l.606.039c.005-.449 0-1.372-.057-1.477-.066.064-.16.1-.315.167"/>
  <path fill="#000" d="m4.9 2.734-.387-.07c-.774-.141-1.043.154-1.261 1.383-.088.639-.18 1.755-.109 2.701.02.26.121.5.212.717.11.26.204.485.128.667-.404.958-.438 1.806-.46 2.362-.013.341-.022.572-.11.65-.226-1.33-.497-4.07.23-4.396-.07-.946.021-2.062.109-2.7l-.028.156c-.097.55-.13.737-.24.844.056.105.06 1.028.056 1.477l-.26.375-.261.376v2.85l-.268.546c-.148.3-.358.616-.468.703s-.2.18-.2.206c0 .116.289.036.463-.127.22-.207.221-.198.067.532-.13.609-.443 1.22-.696 1.355-.207.111-.205.243.003.243.09 0 .154.043.142.096-.01.053.08.147.204.208.123.062.224.149.224.193 0 .202.703 1.075 1.436 1.786 1.347 1.305 2.522 2.059 4.355 2.794 1.405.564 1.756.741 2.08 1.05.22.208.282.23.387.143s.125-.08.125.037c0 .113.045.13.224.085.123-.03.253-.107.288-.17.13-.23.776-.593 1.726-.968 2.285-.9 3.685-1.795 5.084-3.248.588-.611 1.15-1.374 1.104-1.5-.022-.06.082-.16.245-.238.155-.075.283-.16.283-.192 0-.031.077-.077.172-.102.162-.042.156-.06-.112-.337-.387-.398-.745-1.46-.671-1.992.028-.205.015-.53-.028-.724-.04-.173-.055-.26-.04-.295-.24.295-.25.996-.226 1.309.148.531.337 1.123.42 1.315.084.192.117.327.075.3-.17-.105-.25.061-.107.22.113.124.118.155.026.134a.105.105 0 0 0-.13.096 1 1 0 0 1-.027.163 2 2 0 0 0-.041.17c-.061.311-.533.91-1.376 1.745-1.352 1.338-2.64 2.15-4.647 2.925-1.162.45-1.34.542-1.716.896-.274.258-.314.274-.403.152-.056-.077-.154-.114-.227-.086-.077.029-.247-.045-.419-.181-.159-.127-.518-.324-.799-.439-1.901-.778-2.393-1-3.039-1.369a12.3 12.3 0 0 1-2.687-2.115c-.755-.78-1.132-1.311-1.061-1.496a.13.13 0 0 0-.079-.176c-.098-.037-.104-.063-.024-.113.082-.05.083-.088.003-.184-.07-.084-.074-.138-.014-.175.114-.07.015-.227-.114-.178-.064.025-.048-.067.046-.26.08-.163.22-.64.31-1.062.091-.421.181-.781.2-.8s.077.18.128.44c.121.618.143.678.247.678.12 0 .132-.064.242-1.302.108-1.223.193-1.73.389-2.298.122-.357.122-.427-.007-.976-.323-1.371-.327-2.74-.012-3.97.147-.576.348-.748.8-.685.186.026.38.06.432.075.051.016.12.15.152.299a3.3 3.3 0 0 1-.062-.529m12.797 2.794V5.12c0-.307.03-.407.122-.407a.12.12 0 0 0 .122-.122.12.12 0 0 0-.116-.122c-.195 0-.189-.272.013-.519.229-.28.2-.425-.075-.396-.172.018-.217-.027-.3-.305-.148-.493-.373-.602-1.104-.533l-.605.057c0 .128-.044.34-.083.5.08-.226.248-.28.79-.325.565-.048.57-.046.691.189.18.347.3 1.105.3 1.885 0 .478-.001.623-.068.65a.4.4 0 0 0 .313-.145"/>
  <path fill="#000" fill-rule="evenodd" d="M5.702 11.805a.65.65 0 0 1 .276-.313c.277-.14 1.184-.13 1.68.017.514.152.7.348.665.701-.04.405-.4.582-1.192.586-1.089.005-1.644-.38-1.429-.99m6.964.718c-.403-.375-.11-.877.608-1.046.507-.119 1.394-.103 1.65.03.612.316.326 1.077-.464 1.238-.68.139-1.519.035-1.794-.222m-6.349-.846c.037.177.181.187.214.016.018-.09-.022-.143-.106-.143-.078 0-.123.053-.108.127m7.163 0c.037.177.181.187.214.016.017-.09-.023-.143-.107-.143-.078 0-.123.053-.107.127m-3.716 3.596c-.516-.675-.535-1.055-.067-1.318.162-.091.397-.121.813-.105.487.019.62.055.793.219.331.31.275.622-.225 1.246-.134.168-.227.322-.206.344.021.02.458.143.97.27.938.234 1.125.358.866.573-.08.066-.23.073-.499.022a1.7 1.7 0 0 0-.806.04c-.54.144-1.39.145-1.867.002a1.5 1.5 0 0 0-.762-.04c-.303.056-.414.046-.505-.044-.217-.218-.04-.337.78-.528.447-.103.855-.215.907-.247.065-.04.004-.177-.192-.434m.283-.793c.207 0 .297-.204.162-.367-.13-.156-.317-.155-.377.001-.073.19.03.366.215.366m-.276 1.895c.073.073 1.163.067 1.349-.008.1-.04.033-.09-.247-.184-.35-.117-.417-.117-.772.002-.214.072-.363.157-.33.19" clip-rule="evenodd"/>
  <path fill="#fff" d="M7.43 9.8c-.749 0-1.397.461-1.628.692.13-.13.679.054.936.163.23.176.798.537 1.221.57.53.04.814-.489.814-.733S8.366 9.8 7.43 9.8m5.606-.498c.731-.162 1.464.148 1.74.323-.156-.1-.651.2-.88.361-.186.223-.662.697-1.068.82-.508.155-.9-.3-.953-.538s.248-.764 1.161-.966"/>
  <defs>
    <linearGradient id="dogelon-mars_svg__b" x1="2.546" x2="18.662" y1="14.847" y2="14.44" gradientUnits="userSpaceOnUse">
      <stop stop-color="#e6e6e6"/>
      <stop offset=".329" stop-color="#fff"/>
      <stop offset=".484" stop-color="#fff"/>
      <stop offset=".631" stop-color="#fff"/>
      <stop offset="1" stop-color="#e6e6e6"/>
    </linearGradient>
    <linearGradient id="dogelon-mars_svg__c" x1="10.303" x2="10.279" y1="0" y2="11.957" gradientUnits="userSpaceOnUse">
      <stop stop-color="#877c6a"/>
      <stop offset=".388" stop-color="#544840"/>
      <stop offset="1" stop-color="#634f21"/>
    </linearGradient>
    <linearGradient id="dogelon-mars_svg__d" x1="10.303" x2="10.279" y1="0" y2="11.957" gradientUnits="userSpaceOnUse">
      <stop stop-color="#877c6a"/>
      <stop offset=".388" stop-color="#544840"/>
      <stop offset="1" stop-color="#634f21"/>
    </linearGradient>
    <linearGradient id="dogelon-mars_svg__e" x1="10.303" x2="10.279" y1="0" y2="11.957" gradientUnits="userSpaceOnUse">
      <stop stop-color="#877c6a"/>
      <stop offset=".388" stop-color="#544840"/>
      <stop offset="1" stop-color="#634f21"/>
    </linearGradient>
    <linearGradient id="dogelon-mars_svg__f" x1="10.303" x2="10.279" y1="0" y2="11.957" gradientUnits="userSpaceOnUse">
      <stop stop-color="#877c6a"/>
      <stop offset=".388" stop-color="#544840"/>
      <stop offset="1" stop-color="#634f21"/>
    </linearGradient>
    <radialGradient id="dogelon-mars_svg__a" cx="0" cy="0" r="1" gradientTransform="matrix(0 8.41643 -8.46886 0 10.465 11.293)" gradientUnits="userSpaceOnUse">
      <stop stop-color="#fbefc2"/>
      <stop offset="1" stop-color="#f9b263"/>
    </radialGradient>
  </defs>
</svg>
