<svg xmlns="http://www.w3.org/2000/svg" fill="none" viewBox="0 0 20 20">
  <circle cx="10" cy="10" r="10" fill="#000"/>
  <path fill="#fff" fill-rule="evenodd" d="M15.919 4.478c.281.1.515.26.762.519.285.303.328.497.21.96-.116.456-.332.824-.697 1.193-.303.31-.488.422-1.647 1.013h-.002c-.448.228-.449.228-.857 2.54-.272 1.516-.563 2.697-.879 3.556-.196.538-.659 1.45-.909 1.803-.694.97-1.638 1.535-2.575 1.544-.294.003-.306 0-.569-.131a3.5 3.5 0 0 1-.94-.75c-.347-.394-.828-1.538-.938-2.225a8 8 0 0 1-.066-.687 45 45 0 0 0-.19-2.266 13 13 0 0 0-.203-1.031c-.238-.978-.525-2.135-.581-2.325-.06-.213-.204-.37-.744-.816-.557-.46-.825-.747-.972-1.05C4.006 6.091 4 6.069 4 5.765c0-.265.013-.346.088-.552.118-.32.234-.472.434-.579.16-.084.181-.087.619-.084.409 0 .478.01.718.088.479.156.803.378 1.638 1.112l.431.381.194-.022c.103-.012.437-.068.737-.125 1.013-.193 1.163-.196 1.885-.043.287.062.319.062.537.018.285-.059.669-.225 1.25-.54 1.216-.66 1.835-.916 2.44-1.013a2.3 2.3 0 0 1 .948.072m-3.163 1.678c.178 0 .203-.01.281-.093.094-.107.182-.12.288-.035l.072.056-.081.063c-.097.078-.1.084-.02.166.073.071.06.125-.034.125-.184 0-.25.115-.28.484-.02.234-.035.287-.091.334a.24.24 0 0 1-.12.057c-.065 0-.162-.094-.162-.157 0-.037-.034-.06-.112-.072-.131-.021-.231-.1-.231-.18 0-.041.034-.06.143-.079a.5.5 0 0 0 .222-.087c.107-.091.072-.216-.087-.329-.066-.043-.119-.096-.122-.118 0-.078.137-.135.334-.135m-1.869 3.357c.138-.238.391-.497.572-.588.535-.266 1.013.125 1.182.972.1.503.075.775-.11 1.134-.19.372-.46.469-.99.36-.52-.11-.71-.229-.841-.525-.144-.328-.062-.92.188-1.353M7.584 10.94c-.615-.32-.565-1.472.075-1.71.25-.09.579-.003.785.213.418.437.275 1.29-.26 1.512a.9.9 0 0 1-.6-.015m.76 4.04c.16-.272.484-.531.812-.643.219-.075.61-.072.866.006.394.122.719.394.894.75.075.156.084.206.084.515 0 .325-.006.357-.1.547-.166.34-.516.647-.934.822-.422.178-1.016.197-1.316.044a.9.9 0 0 1-.45-.488c-.144-.365-.066-1.193.144-1.553" clip-rule="evenodd"/>
</svg>
