<svg xmlns="http://www.w3.org/2000/svg" fill="none" viewBox="0 0 640 640">
  <g clip-path="url(#dogs_svg__a)">
    <rect width="640" height="640" fill="#000" rx="320"/>
    <path fill="#fff" d="M307.379 158.631a.279.279 0 0 0 .043-.127c.003-.051.029-.08.08-.087 2.057-.283 3.795-.438 5.216-.465 1.679-.033 3.945.093 6.797.378a.407.407 0 0 1 .316.191.59.59 0 0 0 .472.27c2.728.134 4.901.34 6.519.619 3.364.578 6.828 1.176 10.228 2.112 2.743.759 5.392 1.618 8.161 1.818 6.266.455 12.419-.842 18.323-2.944a140.171 140.171 0 0 0 16.361-7.023c4.193-2.126 8.287-4.221 12.283-6.287a221.282 221.282 0 0 0 5.863-3.145c10.536-5.861 19.908-10.825 28.116-14.894 3.224-1.598 7.155-3.444 11.791-5.539a202.711 202.711 0 0 1 17.484-6.932 123.526 123.526 0 0 1 6.346-1.972c10.245-2.918 21.295-4.733 31.929-3.814 6.719.579 13.053 2.231 19.004 4.954 3.816 1.747 7.638 4.131 11.468 7.153 4.334 3.42 8.558 7.732 12.671 12.935a16.028 16.028 0 0 1 3.095 6.468c.41 1.8.627 3.984.652 6.551.035 3.672-.2 6.82-.705 9.442-2.107 10.957-6.795 21.549-13.014 30.467-6.763 9.702-14.972 17.721-24.625 24.056a109.539 109.539 0 0 1-5.831 3.559c-3.134 1.789-6.129 3.594-9.35 5.298-10.136 5.358-18.037 9.256-27.215 13.808-.689.341-1.392.725-2.108 1.153-1.569.939-3.227 1.678-4.537 2.942a13.41 13.41 0 0 0-1.968 2.399c-1.489 2.325-2.749 5.191-3.779 8.601-1.097 3.627-1.809 6.115-2.134 7.463-1.337 5.507-2.6 11.41-3.79 17.712a1106.772 1106.772 0 0 0-3.281 18.19 2852.03 2852.03 0 0 1-5.465 30.924c-.478 2.618-.917 5.241-1.432 7.828-.473 2.38-.772 4.784-1.277 7.12-.482 2.256-.851 4.589-1.326 6.778a110.973 110.973 0 0 0-1.004 5.241 19.206 19.206 0 0 1-.442 1.983c-.572 2.025-.745 4.181-1.31 6.153-.522 1.825-.628 3.744-1.137 5.565a34.07 34.07 0 0 0-.552 2.297c-.164.817-.329 1.597-.495 2.339a942.722 942.722 0 0 1-3.401 14.68c-.97 4.045-1.871 7.073-3.028 11.592a141.6 141.6 0 0 1-1.499 5.405c-.509 1.698-.884 3.396-1.409 5.09-.369 1.187-.615 2.424-1.021 3.604-.162.47-.315.944-.459 1.424-4 13.144-8.237 25.196-12.711 36.155-3.497 8.57-7.729 17.467-12.695 26.69-.618 1.15-1.303 2.263-1.925 3.419-1.427 2.641-3.214 5.664-5.361 9.072-3.212 5.093-6.878 10.229-11 15.405-1.852 2.326-3.929 4.656-5.904 6.859a118.356 118.356 0 0 1-21.726 19.022 95.395 95.395 0 0 1-11.545 6.711c-9.387 4.613-19.161 7.679-29.322 9.199-2.834.423-4.546.668-5.136.735a60.555 60.555 0 0 1-5.192.355c-2.919.07-5.418-.097-8.217-.933-2.505-.749-4.568-1.514-6.19-2.296-2.061-.993-4.142-1.976-6.106-3.129-6.068-3.554-11.899-7.829-17.492-12.825a6.333 6.333 0 0 0-.572-.444c-.382-.258-.545-.726-.947-1.003a5.799 5.799 0 0 1-.562-.445 62.037 62.037 0 0 1-2.795-2.68c-.183-.188-.31-.482-.542-.609-.452-.252-.765-.594-.938-1.026a.54.54 0 0 0-.355-.331c-.486-.158-.78-.491-.885-.999-.048-.232-.188-.365-.418-.398-.475-.071-.741-.356-.798-.856a.654.654 0 0 0-.283-.461.566.566 0 0 0-.296-.093.573.573 0 0 1-.422-.224 1.978 1.978 0 0 1-.276-.542c-.179-.541-.601-.665-.93-1.059-3.376-4.052-5.956-7.748-7.742-11.091-1.855-3.476-3.408-7.377-5.139-11.03-5.023-10.572-9.627-21.699-12.875-32.85-.618-2.123-1.383-5.061-2.293-8.814a50.207 50.207 0 0 1-.848-4.302c-.289-1.932-.824-3.8-1.054-5.739-.228-1.94-.484-3.913-.768-5.916-1.02-7.183-1.017-14.379-1.04-21.599a49.58 49.58 0 0 0-.336-5.435 344.761 344.761 0 0 1-1.084-11.204c-.726-9.044-1.463-18.189-2.21-27.435a343.387 343.387 0 0 0-.608-6.755c-.462-4.616-.812-9.162-1.373-13.757-.442-3.624-.788-7.08-1.376-10.69a769.084 769.084 0 0 1-.765-4.729 64.588 64.588 0 0 0-1.828-8.186c-.718-2.433-1.278-4.542-1.679-6.327a1092.646 1092.646 0 0 0-4.494-19.219c-1.057-4.35-2.109-8.747-3.155-13.19a85.426 85.426 0 0 0-.907-3.523c-.273-.967-.57-2.11-.891-3.429a5361.1 5361.1 0 0 0-9.125-36.928 417.579 417.579 0 0 0-2.53-9.673 6.984 6.984 0 0 0-.541-1.364 177.396 177.396 0 0 0-2.138-3.924 9.64 9.64 0 0 0-1.07-1.524c-4.827-5.599-10.578-10.345-16.302-14.994-4.545-3.693-9.1-7.436-13.665-11.231a120.924 120.924 0 0 1-13.613-13.27c-1.047-1.196-2.034-2.496-3.015-3.767-1.054-1.365-2.269-3.186-3.643-5.461-4.984-8.243-6.989-17.204-6.016-26.884.128-1.272.322-2.521.581-3.747.336-1.587.502-3.165.944-4.726 1.175-4.147 2.742-8.256 4.701-12.327 2.257-4.683 5.252-8.242 9.653-10.783a28.04 28.04 0 0 1 8.683-3.208c2.626-.492 5.215-1.167 7.878-1.113 2.409.051 4.702.069 6.881.053a28.123 28.123 0 0 1 4.338.297c2.378.353 4.607.677 6.688.973 2.453.348 5.112 1.1 7.546 1.738 4.503 1.179 8.976 2.774 13.419 4.787 1.042.474 2.005.963 2.889 1.467 1.313.752 2.686 1.35 3.965 2.169a176.76 176.76 0 0 1 13.407 9.466 237.331 237.331 0 0 1 9.713 8.025 987.352 987.352 0 0 1 12.848 11.361 508.908 508.908 0 0 0 12.571 10.96c.532.445 1.107.993 1.812 1.124 1.17.216 2.09.287 2.759.213 2.95-.32 5.914-.631 8.892-.932 1.676-.167 3.225-.582 4.897-.842 2.18-.339 4.329-.729 6.445-1.17 5.057-1.056 10.974-2.25 17.751-3.58 2.992-.588 5.89-.896 8.816-1.437 3.862-.709 7.655-.806 11.501-.856a.523.523 0 0 0 .258-.074.618.618 0 0 0 .204-.2Zm90.337 41.099a.864.864 0 0 1 .791.742c.297 2.09 1.218 3.89 2.762 5.398.815.799 1.915 1.457 3.072 1.153a19.54 19.54 0 0 0 3.593-1.327c1.788-.865 2.636-2.781 3.025-4.616.658-3.078.701-6.36.701-9.492 0-5.218 1.174-11.783 7.207-13.14 1.558-.352 3.202-.713 4.933-1.083a.655.655 0 0 0 .372-1.056c-1.259-1.554-2.15-3.285-3.925-4.412-.592-.374-.575-1.066-.11-1.531a26.834 26.834 0 0 1 2.865-2.476c.535-.402 2.4-1.932 1.24-2.668a55.236 55.236 0 0 1-4.148-2.921c-1.287-.996-2.527-.612-3.929-.097-1.237.455-2.183 1.165-2.839 2.133-.672.986-1.12 2.142-2.088 2.867a4.65 4.65 0 0 1-2.436.943c-2.44.2-5.016.548-7.473.505-1.961-.037-3.876-.258-5.764.371-.53.176-1.034.539-1.513 1.089-1.156 1.334-2.958 3.339-.781 4.723a31.245 31.245 0 0 0 2.696 1.534c1.433.722 2.58 1.739 3.564 2.918 1.781 2.136 3.101 6.12.581 8.163-2.516 2.035-5.973 2.771-9.294 2.864-1.087.034-2.164.234-3.248.348a.63.63 0 0 0-.418.219.643.643 0 0 0-.153.449c.156 2.831 1.592 5.636 4.151 6.933 2.022 1.022 4.289 1.3 6.566 1.467Zm-57.438 130.751c.636.806 1.456 1.642 2.46 2.507 4.291 3.696 9.434 5.712 14.992 6.778.794.151 1.532.471 2.32.608 2.709.465 5.292 1.234 8.034 1.632 1.272.185 2.551.362 3.836.531 2.941.388 5.812.329 8.613-.177 1.857-.334 3.542-.792 5.053-1.374 4.122-1.581 7.682-5.278 9.789-9.001 2.217-3.913 4.041-8.186 5.475-12.818a50.561 50.561 0 0 0 1.915-8.848c.435-3.58.386-7.551-.715-11.003-1.396-4.392-1.978-8.878-2.682-13.537a29.892 29.892 0 0 0-2.726-8.764c-2.201-4.499-4.596-8.335-7.187-11.509-2.742-3.355-6.399-6.33-10.494-7.941-1.731-.682-3.357-1.078-4.88-1.187-2.039-.149-3.881-.076-5.528.221-3.211.575-6.448 1.921-9.71 4.037-3.743 2.427-7.102 5.468-10.078 9.122-4.705 5.776-8.344 12.098-10.917 18.965a87.618 87.618 0 0 0-2.131 6.458c-1.797 6.253-2.431 12.587-1.901 19.002.474 5.729 2.382 10.909 5.724 15.539.213.294.502.465.738.759Zm-76.601-53.607c-2.467-2.801-5.481-5.022-9.042-6.665-4.195-1.932-9.128-2.443-13.616-1.781-7.362 1.089-13.662 6.04-16.936 12.571-3.457 6.901-4.758 14.36-3.903 22.378.592 5.562 2.49 11.538 5.765 15.873 3.091 4.095 7.372 7.357 12.345 8.727 1.485.408 3.139.657 4.963.746 2.037.098 3.819.034 5.345-.191 3.161-.466 6.187-1.566 9.079-3.302 1.213-.729 2.353-1.655 3.453-2.574 2.912-2.44 5.174-5.459 6.785-9.058 1.259-2.808 2.11-5.238 2.553-7.29 1.791-8.28.759-16.285-3.095-24.012-.931-1.87-2.163-3.677-3.696-5.422Zm83.525 209.48c1.084-7.698.243-16.004-2.815-22.99-2.154-4.922-5.028-9.21-8.62-12.862-8.952-9.101-21.231-14.857-33.979-15.365-9.949-.401-20.098 2.513-28.358 8.44-3.178 2.279-6.183 4.977-9.015 8.092-2.664 2.93-4.661 5.749-5.99 8.456-.925 1.883-1.8 4.027-2.626 6.431-.426 1.23-.662 2.494-1.054 3.734a27.857 27.857 0 0 0-.722 2.797 280.306 280.306 0 0 0-1.017 5.291c-.452 2.494-.841 6.08-1.167 10.76-.398 5.718.035 11.472 1.3 17.264.348 1.595 1.07 3.685 2.164 6.27.2.47.426.902.678 1.294.652 1.009 1.097 2.085 1.819 3.075 2.863 3.919 6.403 6.959 10.62 9.118 5.286 2.711 11.508 4.014 17.442 4.131 3.654.072 7.065-.118 10.232-.568 2.236-.316 4.843-.864 7.821-1.644 8.859-2.323 17.176-6.451 24.522-12.027 1.549-1.176 2.995-2.54 4.418-3.863 4.681-4.359 8.308-9.291 10.883-14.798 1.822-3.897 2.977-7.576 3.464-11.036Z"/>
  </g>
  <defs>
    <clipPath id="dogs_svg__a">
      <path fill="#fff" d="M0 0h640v640H0z"/>
    </clipPath>
  </defs>
</svg>
