<svg xmlns="http://www.w3.org/2000/svg" fill="none" viewBox="0 0 640 640">
  <g clip-path="url(#dogs_svg__a)">
    <rect width="640" height="640" fill="#000" rx="320"/>
    <path fill="#fff" d="M307.379 158.631a.3.3 0 0 0 .043-.127q.004-.077.08-.087 3.085-.424 5.216-.465 2.519-.05 6.797.378a.4.4 0 0 1 .316.191.59.59 0 0 0 .472.27q4.092.2 6.519.619c3.364.578 6.828 1.176 10.228 2.112 2.743.759 5.392 1.618 8.161 1.818 6.266.455 12.419-.842 18.323-2.944a140 140 0 0 0 16.361-7.023q6.29-3.189 12.283-6.287a221 221 0 0 0 5.863-3.145q15.804-8.791 28.116-14.894 4.837-2.397 11.791-5.539a203 203 0 0 1 17.484-6.932 124 124 0 0 1 6.346-1.972c10.245-2.918 21.295-4.733 31.929-3.814q10.078.869 19.004 4.954 5.724 2.62 11.468 7.153 6.501 5.13 12.671 12.935a16 16 0 0 1 3.095 6.468q.615 2.7.652 6.551.053 5.508-.705 9.442c-2.107 10.957-6.795 21.549-13.014 30.467q-10.145 14.553-24.625 24.056a110 110 0 0 1-5.831 3.559c-3.134 1.789-6.129 3.594-9.35 5.298-10.136 5.358-18.037 9.256-27.215 13.808q-1.034.511-2.108 1.153c-1.569.939-3.227 1.678-4.537 2.942a13.4 13.4 0 0 0-1.968 2.399q-2.234 3.487-3.779 8.601-1.646 5.44-2.134 7.463-2.005 8.26-3.79 17.712a1107 1107 0 0 0-3.281 18.19 2852 2852 0 0 1-5.465 30.924c-.478 2.618-.917 5.241-1.432 7.828-.473 2.38-.772 4.784-1.277 7.12-.482 2.256-.851 4.589-1.326 6.778a111 111 0 0 0-1.004 5.241 19 19 0 0 1-.442 1.983c-.572 2.025-.745 4.181-1.31 6.153-.522 1.825-.628 3.744-1.137 5.565a34 34 0 0 0-.552 2.297q-.246 1.226-.495 2.339a943 943 0 0 1-3.401 14.68c-.97 4.045-1.871 7.073-3.028 11.592a142 142 0 0 1-1.499 5.405c-.509 1.698-.884 3.396-1.409 5.09-.369 1.187-.615 2.424-1.021 3.604q-.243.704-.459 1.424-6 19.716-12.711 36.155-5.246 12.855-12.695 26.69c-.618 1.15-1.303 2.263-1.925 3.419q-2.14 3.96-5.361 9.072-4.817 7.64-11 15.405c-1.852 2.326-3.929 4.656-5.904 6.859a118.4 118.4 0 0 1-21.726 19.022 95 95 0 0 1-11.545 6.711q-14.08 6.92-29.322 9.199-4.251.635-5.136.735a61 61 0 0 1-5.192.355c-2.919.07-5.418-.097-8.217-.933q-3.757-1.123-6.19-2.296c-2.061-.993-4.142-1.976-6.106-3.129q-9.102-5.331-17.492-12.825a6 6 0 0 0-.572-.444c-.382-.258-.545-.726-.947-1.003a6 6 0 0 1-.562-.445 62 62 0 0 1-2.795-2.68c-.183-.188-.31-.482-.542-.609q-.678-.378-.938-1.026a.54.54 0 0 0-.355-.331q-.728-.237-.885-.999-.072-.348-.418-.398-.713-.106-.798-.856a.65.65 0 0 0-.283-.461.57.57 0 0 0-.296-.093.57.57 0 0 1-.422-.224 2 2 0 0 1-.276-.542c-.179-.541-.601-.665-.93-1.059q-5.064-6.077-7.742-11.091c-1.855-3.476-3.408-7.377-5.139-11.03-5.023-10.572-9.627-21.699-12.875-32.85q-.928-3.184-2.293-8.814a50 50 0 0 1-.848-4.302c-.289-1.932-.824-3.8-1.054-5.739q-.342-2.91-.768-5.916c-1.02-7.183-1.017-14.379-1.04-21.599a50 50 0 0 0-.336-5.435 345 345 0 0 1-1.084-11.204q-1.09-13.566-2.21-27.435a343 343 0 0 0-.608-6.755c-.462-4.616-.812-9.162-1.373-13.757-.442-3.624-.788-7.08-1.376-10.69a769 769 0 0 1-.765-4.729 65 65 0 0 0-1.828-8.186q-1.077-3.65-1.679-6.327a1093 1093 0 0 0-4.494-19.219q-1.586-6.525-3.155-13.19a85 85 0 0 0-.907-3.523q-.41-1.45-.891-3.429a5361 5361 0 0 0-9.125-36.928 418 418 0 0 0-2.53-9.673 7 7 0 0 0-.541-1.364 177 177 0 0 0-2.138-3.924 9.6 9.6 0 0 0-1.07-1.524c-4.827-5.599-10.578-10.345-16.302-14.994q-6.817-5.539-13.665-11.231a121 121 0 0 1-13.613-13.27c-1.047-1.196-2.034-2.496-3.015-3.767q-1.582-2.048-3.643-5.461-7.476-12.364-6.016-26.884.192-1.908.581-3.747c.336-1.587.502-3.165.944-4.726q1.762-6.22 4.701-12.327c2.257-4.683 5.252-8.242 9.653-10.783a28 28 0 0 1 8.683-3.208c2.626-.492 5.215-1.167 7.878-1.113q3.613.077 6.881.053a28 28 0 0 1 4.338.297q3.567.53 6.688.973c2.453.348 5.112 1.1 7.546 1.738q6.755 1.768 13.419 4.787 1.563.711 2.889 1.467c1.313.752 2.686 1.35 3.965 2.169a177 177 0 0 1 13.407 9.466 237 237 0 0 1 9.713 8.025 987 987 0 0 1 12.848 11.361 509 509 0 0 0 12.571 10.96c.532.445 1.107.993 1.812 1.124q1.755.324 2.759.213 4.425-.48 8.892-.932c1.676-.167 3.225-.582 4.897-.842q3.27-.509 6.445-1.17 7.586-1.585 17.751-3.58c2.992-.588 5.89-.896 8.816-1.437 3.862-.709 7.655-.806 11.501-.856a.5.5 0 0 0 .258-.074.6.6 0 0 0 .204-.2m90.337 41.099a.864.864 0 0 1 .791.742q.446 3.135 2.762 5.398c.815.799 1.915 1.457 3.072 1.153a19.5 19.5 0 0 0 3.593-1.327c1.788-.865 2.636-2.781 3.025-4.616.658-3.078.701-6.36.701-9.492 0-5.218 1.174-11.783 7.207-13.14q2.337-.528 4.933-1.083a.655.655 0 0 0 .372-1.056c-1.259-1.554-2.15-3.285-3.925-4.412-.592-.374-.575-1.066-.11-1.531a27 27 0 0 1 2.865-2.476c.535-.402 2.4-1.932 1.24-2.668a55 55 0 0 1-4.148-2.921c-1.287-.996-2.527-.612-3.929-.097q-1.855.682-2.839 2.133c-.672.986-1.12 2.142-2.088 2.867a4.65 4.65 0 0 1-2.436.943c-2.44.2-5.016.548-7.473.505-1.961-.037-3.876-.258-5.764.371q-.795.264-1.513 1.089c-1.156 1.334-2.958 3.339-.781 4.723a31 31 0 0 0 2.696 1.534c1.433.722 2.58 1.739 3.564 2.918 1.781 2.136 3.101 6.12.581 8.163-2.516 2.035-5.973 2.771-9.294 2.864-1.087.034-2.164.234-3.248.348a.63.63 0 0 0-.418.219.64.64 0 0 0-.153.449c.156 2.831 1.592 5.636 4.151 6.933 2.022 1.022 4.289 1.3 6.566 1.467m-57.438 130.751q.954 1.21 2.46 2.507c4.291 3.696 9.434 5.712 14.992 6.778.794.151 1.532.471 2.32.608 2.709.465 5.292 1.234 8.034 1.632q1.908.278 3.836.531 4.411.582 8.613-.177 2.786-.501 5.053-1.374c4.122-1.581 7.682-5.278 9.789-9.001q3.325-5.87 5.475-12.818a50.6 50.6 0 0 0 1.915-8.848c.435-3.58.386-7.551-.715-11.003-1.396-4.392-1.978-8.878-2.682-13.537a29.9 29.9 0 0 0-2.726-8.764q-3.301-6.748-7.187-11.509c-2.742-3.355-6.399-6.33-10.494-7.941q-2.596-1.023-4.88-1.187-3.058-.224-5.528.221-4.817.863-9.71 4.037-5.614 3.64-10.078 9.122-7.057 8.664-10.917 18.965a88 88 0 0 0-2.131 6.458q-2.696 9.38-1.901 19.002.711 8.594 5.724 15.539c.213.294.502.465.738.759m-76.601-53.607q-3.7-4.201-9.042-6.665c-4.195-1.932-9.128-2.443-13.616-1.781-7.362 1.089-13.662 6.04-16.936 12.571q-5.186 10.351-3.903 22.378c.592 5.562 2.49 11.538 5.765 15.873 3.091 4.095 7.372 7.357 12.345 8.727q2.227.612 4.963.746 3.056.147 5.345-.191 4.741-.698 9.079-3.302c1.213-.729 2.353-1.655 3.453-2.574q4.368-3.66 6.785-9.058 1.889-4.212 2.553-7.29 2.686-12.42-3.095-24.012-1.397-2.805-3.696-5.422m83.525 209.48c1.084-7.698.243-16.004-2.815-22.99q-3.231-7.383-8.62-12.862c-8.952-9.101-21.231-14.857-33.979-15.365-9.949-.401-20.098 2.513-28.358 8.44q-4.767 3.419-9.015 8.092-3.996 4.395-5.99 8.456-1.387 2.825-2.626 6.431c-.426 1.23-.662 2.494-1.054 3.734a28 28 0 0 0-.722 2.797 280 280 0 0 0-1.017 5.291q-.678 3.74-1.167 10.76-.597 8.577 1.3 17.264.522 2.392 2.164 6.27.3.706.678 1.294c.652 1.009 1.097 2.085 1.819 3.075q4.295 5.879 10.62 9.118c5.286 2.711 11.508 4.014 17.442 4.131q5.481.107 10.232-.568 3.354-.474 7.821-1.644c8.859-2.323 17.176-6.451 24.522-12.027 1.549-1.176 2.995-2.54 4.418-3.863q7.021-6.538 10.883-14.798 2.733-5.846 3.464-11.036"/>
  </g>
  <defs>
    <clipPath id="dogs_svg__a">
      <path fill="#fff" d="M0 0h640v640H0z"/>
    </clipPath>
  </defs>
</svg>
