<svg xmlns="http://www.w3.org/2000/svg" viewBox="0 0 600 600">
  <path fill="#efbfa8" d="M300 0C134.3 0 0 134.3 0 300s134.3 300 300 300 300-134.3 300-300S465.7 0 300 0zm149 347c-13-29-61-93-131-86-73 8-156 49-180 109-37-29-5-79 17-102-5-22 9-70 17-90 3-17 17-29 24-32-1-12 20-18 30-20l1-2c3-9 6-20 32-28 22-8 42 12 50 23 2-6 10-15 18-8 72 11 96 90 100 127 14 10 43 36 50 60 7 29-1 35-11 43l-2 2c-5 6-11 6-15 4zm-14 31c-15.7 65.8-68.5 116.3-135 129-42 0-109-66-128-97-39-3-30-23-21-32l-5-2c18-42 69-92 169-104 55-7 97 32 122 72 1 13 0 27-2 34zm-219-50c6 15 24 39 50 11-2-8-16-22-50-11zm40 142c-4-6 20-9 32-10l16-4c3-13-3-14-6-13-24 2-22-26-16-35 7-8 22-5 27-4 5 2 13 0 16-1 15-1 14 17 11 26-1 12-18 16-26 16-1 9 1 13 3 13l34 8c13 5 6 6 0 7-17-11-29-7-37-5l-6 2c-14-5-29-4-35-2-3 3-10 7-13 2zm89-126c1-12 13-32 48-14-5 12-22 31-48 14z"/>
</svg>
