<svg xmlns="http://www.w3.org/2000/svg" fill="none" viewBox="0 0 20 20">
  <circle cx="10" cy="10" r="10" fill="#fff"/>
  <path fill="#d7d7d7" d="M13.105 6.111V4.556H5.518v10.887h2.277v-.777H9.31v-.778h1.518v-.777h2.276v-.778h.76v-.778h-.76v1.554h-2.276V9.221h3.793v2.333-4.666h-1.517zm0 5.445h.76v.777h-.76zm-3.034 2.332h-.76v.778H6.277V9.999h.758v.779h.76v.777h.758v.778h.758v.777h.76zm.758-5.444h-.758v.778H7.795v-.778h2.276-3.036V6.11h.76v-.777h2.276v.777h.758z"/>
  <path fill="#29f91e" d="M9.311 6.111H7.795v1.556H9.31z"/>
  <path fill="#087903" d="M10.07 6.111v-.777H7.795v.777H9.31v1.556H7.793V6.11h.002-.76v2.333h3.035z"/>
  <path fill="#7c0404" d="M13.104 10h-1.517v1.555h1.517z"/>
  <path fill="#e80000" d="M10.829 12.333h2.276v-.778h-1.518V9.999h1.518v1.556h.76V9.222h-3.036z"/>
  <path fill="#0919d8" d="M8.552 13.11v-.777h-.758v-.778h-.76v-.777h-.757v3.11h3.034v-.778z"/>
  <path fill="#16b5f4" d="M7.035 10.778v-.779h-.758v.779zm2.276 1.555h-.758v.777h.758zm.001.777v.777h.759v-.777zm-.76-.777v-.778h-.758v.778zm-.757-1.555h-.76v.777h.76z"/>
  <path fill="#9e9e9e" d="M15.38 4.556h-.758v.778h.758zm.76.778h-.76v.777h.76zm-3.035.777h.759V4.556h.758v-.778h-.758V3h-.76z"/>
  <path fill="#000" d="M9.311 13.888H6.277v.778h3.034zm6.829-7.777h-3.036v.777h1.518v.002h.758v2.332h.76zm-.76 10.11h-4.55V17h5.31v-4.667h-.759z"/>
  <path fill="#000" d="M4.76 3.778h8.344V3H4v14h2.276v-.779H4.759zm9.104 5.444v2.334-.001l.758.001V9.222zm-3.035 3.111v.777h2.276v-.777zm3.035-.777h-.758v.777h.758z"/>
  <path fill="#000" d="M7.793 9.222h2.277v-.778H7.793zm3.036-3.111h-.758v2.333h.758zm3.031 7.034v1.543H11.6v.77h3.011v-2.313z"/>
</svg>
