<svg xmlns="http://www.w3.org/2000/svg" fill="none" viewBox="0 0 20 20">
  <circle cx="10" cy="10" r="10" fill="#fff"/>
  <path fill="#3B218C" d="M16.37 11.118h-1.815a7.5 7.5 0 0 0 0-2.238h1.815a.348.348 0 0 0 0-.696h-1.955a7.36 7.36 0 0 0-1.94-3.418 7.38 7.38 0 0 0-5.962-2.131.054.054 0 0 0-.047.06.054.054 0 0 0 .047.046 7.3 7.3 0 0 1 6.35 5.444H7.669a.348.348 0 0 0 0 .697h5.335a7.4 7.4 0 0 1 0 2.236H7.67a.348.348 0 0 0 0 .697h5.194a7.3 7.3 0 0 1-6.35 5.444.054.054 0 0 0-.048.058.054.054 0 0 0 .048.048 7.38 7.38 0 0 0 5.962-2.131 7.37 7.37 0 0 0 1.94-3.42h1.955a.348.348 0 0 0 0-.696"/>
</svg>
