<svg xmlns="http://www.w3.org/2000/svg" fill="none" viewBox="0 0 20 20">
  <g clip-path="url(#edgex_svg__a)">
    <path fill="#22ff73" d="M0 0h20v20H0z"/>
    <path fill="#0f100f" d="m6.138 11.883 2.567-4.444.845-1.462c.14-.244.325-.545.45-.793.105.206.245.435.362.639l.823 1.414 2.705 4.698.715 1.235c.13.225.272.456.388.687-.674-.015-1.355.006-2.03.002a.2.2 0 0 1-.1-.022c-.016-.044-.004-.034-.007-.06-.012-.1-.061-.234-.088-.337l-.519-1.942-.874-3.267c-.1-.367-.21-.856-.322-1.205-.183.204-.44.446-.638.644L9.27 8.814c-1.016 1.017-2.042 2.064-3.066 3.068z"/>
    <path fill="#0f100f" d="m6.07 12.014.016.017c.02.011.249.068.288.08l1.235.33 3.786 1.014c.46.12 1.063.31 1.513.399-.196.014-.454.007-.654.007l-1.16-.006h-3.97l-1.298-.001c-.26 0-.564-.007-.822.01.188-.37.435-.764.642-1.128.096-.167.32-.582.424-.723"/>
    <path fill="#032101" d="M6.07 12.014c.013-.036.048-.096.068-.131l.066-.001c-.038.045-.088.1-.118.149z"/>
  </g>
  <defs>
    <clipPath id="edgex_svg__a">
      <rect width="20" height="20" fill="#fff" rx="10"/>
    </clipPath>
  </defs>
</svg>
