<svg xmlns="http://www.w3.org/2000/svg" viewBox="0 0 512 512">
  <circle cx="256" cy="256" r="256" fill="#fff"/>
  <path fill="#1f0472" d="M124.5 406.3V105.7h75.2v225.4h37.7v-75c.5 0 .7-.1 1-.1h35.5c.4 0 .8.1 1.2.1-.1.5-.2 1.1-.2 1.6v73.5h74.8v75H126.6c-.7.1-1.4.1-2.1.1"/>
  <path fill="#1f0472" d="M350 180.7v74.4c0 .2 0 .5-.1.8-.6 0-1.2.1-1.9.1h-71.3c-.6 0-1.2.1-1.7.2 0-.7-.1-1.4-.1-2V143.3h-36v-37.4h73.5v74.9c.5 0 .9.1 1.2.1h35.5c.3-.1.6-.1.9-.2"/>
  <path fill="#1f0472" d="M350 180.8v-75h37.4v74.9c-.4 0-.7.1-1.1.1h-35.5c-.2 0-.5-.1-.8 0 0-.1 0 0 0 0"/>
</svg>
