<svg xmlns="http://www.w3.org/2000/svg" viewBox="0 0 41.6 48">
  <path fill="#fba219" d="M8.3 21.6v9.6l-4.2 2.4V19.2zM41.6 12v24l-4.2 2.4V19.2l-4.2 2.4v19.2L20.8 48V24l4.2-2.4v19.2l4.2-2.4V19.2zM12.5 9.6 8.3 12l4.2 2.4zm8.3-4.8-4.2 2.4 4.2 2.4z"/>
  <path fill="#323232" d="m41.6 12-4.2 2.4-16.6-9.6-4.2 2.4 4.2 2.4 12.5 7.2-4.2 2.4-16.6-9.6L8.3 12l16.6 9.6-4.1 2.4L0 12 20.8 0zm-25 24v4.8L4.2 33.6l4.2-2.4zm8.3 4.8 4.2-2.4-4.2-2.4z"/>
  <path fill="#f8691a" d="M0 12v24l20.8 12V24zm16.6 28.8L4.2 33.6V19.2l12.5 7.2v14.4zm20.8-2.4L33.3 36V21.6l4.2-2.4zm0-24-4.2 2.4-12.4-7.2V4.8z"/>
  <path fill="#f8691a" d="M12.5 9.6v4.8L25 21.6V36l4.2 2.4V19.2z"/>
</svg>
