<svg xmlns="http://www.w3.org/2000/svg" viewBox="0 0 58.4 58.4">
  <title>Group 16</title>
  <path fill-rule="evenodd" d="m11.2 47.63 18.3 7.4 18.2-7.8 7.3-18.3-7.8-18.2-18.3-7.3-18.2 7.8-7.3 18.3zm18.3 10.8c-.2 0-.4 0-.6-.1l-19.6-7.9q-.6-.3-.9-.9L.1 30.13c-.2-.4-.2-.8 0-1.3L8 9.33q.3-.6.9-.9L28.3.13c.4-.2.8-.2 1.3 0l19.6 7.9c.3.1.6.4.8.8l8.3 19.4c.2.4.2.8 0 1.3l-7.9 19.6q-.3.6-.9.9l-19.4 8.3c-.1.1-.4.1-.6.1" clip-rule="evenodd"/>
  <path fill-rule="evenodd" d="m33.4 28.93-7.8 8.6H38v3.8H20.5v-3.8l7.8-8.6-7.8-8.1v-3.7H38v3.7H25.8z" clip-rule="evenodd"/>
</svg>
