<svg xmlns="http://www.w3.org/2000/svg" fill="none" viewBox="0 0 20 20">
  <circle cx="10" cy="10" r="10" fill="url(#ethereum-name-service_svg__a)"/>
  <path fill="#fff" d="M5.667 8.76c.129.274.447.817.447.817L9.79 3.5 6.202 6.005a1.56 1.56 0 0 0-.51.562 2.6 2.6 0 0 0-.025 2.192M4.21 10.76a4.1 4.1 0 0 0 1.607 2.973L9.785 16.5s-2.483-3.578-4.577-7.138a3.6 3.6 0 0 1-.42-1.214q-.045-.292 0-.583c-.055.1-.161.308-.161.308a4.7 4.7 0 0 0-.429 1.373 8.4 8.4 0 0 0 .013 1.514m10.123.48c-.128-.274-.446-.817-.446-.817L10.212 16.5l3.588-2.504c.213-.142.389-.335.51-.562a2.6 2.6 0 0 0 .024-2.193m1.457-2.001a4.1 4.1 0 0 0-1.606-2.973L10.217 3.5s2.481 3.578 4.577 7.138c.211.377.353.788.419 1.214q.045.292 0 .583c.054-.1.16-.308.16-.308a4.7 4.7 0 0 0 .43-1.373 8.4 8.4 0 0 0-.012-1.514"/>
  <path fill="#fff" d="M5.692 6.567c.121-.226.296-.42.51-.562L9.79 3.5 6.114 9.578s-.321-.542-.447-.817a2.6 2.6 0 0 1 .025-2.194M4.21 10.76a4.1 4.1 0 0 0 1.606 2.973L9.785 16.5s-2.483-3.578-4.577-7.138a3.6 3.6 0 0 1-.42-1.214q-.045-.292 0-.583c-.055.1-.161.308-.161.308a4.7 4.7 0 0 0-.429 1.373 8.4 8.4 0 0 0 .013 1.514m10.117.482c-.128-.274-.446-.817-.446-.817l-3.67 6.075 3.588-2.504c.214-.142.389-.335.51-.562a2.6 2.6 0 0 0 .025-2.193zm1.457-2a4.1 4.1 0 0 0-1.606-2.973L10.217 3.5s2.481 3.578 4.577 7.138c.211.377.353.788.42 1.214q.042.292 0 .583c.054-.1.16-.308.16-.308.212-.433.357-.896.428-1.373a8.4 8.4 0 0 0-.01-1.514z" style="mix-blend-mode:color"/>
  <defs>
    <linearGradient id="ethereum-name-service_svg__a" x1="4" x2="15.5" y1="2" y2="18.5" gradientUnits="userSpaceOnUse">
      <stop stop-color="#8098fa"/>
      <stop offset="1" stop-color="#4db5f2"/>
    </linearGradient>
  </defs>
</svg>
