<svg xmlns="http://www.w3.org/2000/svg" viewBox="0 0 512 512">
  <circle cx="256" cy="256" r="256"/>
  <linearGradient id="ether-fi_svg__a" x1="154.67" x2="357.89" y1="151.981" y2="355.202" gradientTransform="matrix(1 0 0 -1 0 509.751)" gradientUnits="userSpaceOnUse">
    <stop offset="0" stop-color="#34a3ed"/>
    <stop offset=".999" stop-color="#8165f5"/>
  </linearGradient>
  <path fill="url(#ether-fi_svg__a)" d="M439 282.3q0-.15 0 0c0-.2 0-.3.1-.3.1-.3.1-.6.1-1v-.4c0-.3 0-.6-.1-.9v-.2l-13-54.3c-.5-2-2-3.5-4-4l-53.8-13h-.3c-.3-.1-.5-.1-.8-.1h-.4c-.3 0-.6.1-1 .1h-.4c-.4.1-.7.3-1.1.5-.1 0-.1.1-.2.1-.3.2-.6.4-.8.6l-.1.1-65.1 63.2c-.6.2-1.2.6-1.6 1-.5.5-.9 1.1-1.1 1.7l-23.3 22.7-13-44.7c0-.1-.1-.3-.2-.4-.1-.2-.1-.3-.2-.4-.3-.6-.6-1.1-1.1-1.5s-1-.7-1.6-1c-.1-.1-.3-.1-.4-.2-.1 0-.3-.1-.4-.2l-43.5-10.5 92-91.6-14-61.3L230.4 73 72.8 230l13.3 59.2 53.9 14 13.2 52.1c.5 2 2.1 3.5 4.1 3.9l49.9 10 14.7 52.5c0 .1.1.2.2.4.1.1.1.3.2.4.3.5.6 1.1 1 1.5v.1c.4.4 1 .8 1.6 1 .2.1.3.1.5.2.1.1.3.1.4.2l52.8 13.5c.4.1.9.2 1.3.2.5 0 .9-.1 1.3-.2h.2c.1 0 .2-.1.2-.1.2-.1.4-.1.5-.2.2-.1.3-.2.5-.2.1-.1.3-.2.4-.3s.3-.2.4-.3l.2-.2 153.9-152.9.1-.1c.2-.2.4-.5.6-.8 0-.1.1-.1.1-.2.4-.7.6-1.1.7-1.4m-70 55.2-10.3-41.4 25.4-25.4 39.7 12.3zm-86.5 86L271 383.9l46.3-46.3 38.9 12.7zm-63.2-51 36.6 11.2-26.1 26.1zm78.3-84.1 11.1 42.6-44.3 44.3-42.8-13.1zm66.9-65 12 39.8-25 25-40.5-12.8zm-5.9 116.4-32.8-10.7 24.1-24.1zm-41.1-17.6-9.5-36.5 35 11zm-55.2 70.3 9.8 33.6-34.6-8.8zm164.2-119.7-39.6-12.3-11.9-39.7 41.5 10zm-212 81.4-9.7-39.9 14.8-15.5 40.1 11.5zm5.9-71.8-10.7-32.7 34.1 8.2zm7.6 7.6 23.5-24.7 10 34.2zm-16 1.2-14.8 15.5-42.3-10.8 44.2-44zm-49.6-135.3 11.3 37.5-46.5 46.9-38.3-11.2zm77-28.8L215 151.8l-39.5-8.9 53.9-53.6zm-5.3 74.8-10.4-43.7 23.1-23.3 41 13.5zm-51.8-17.1-9.5-31.5 33.3 7.5zm32.5-17.7 8.5 35.9-33.3-10.8zM126 256.7l10.5 34.5L101 282zm8.6-8.6 46.9-47.3L222 214l-75 74.7zm155.9-110.2-40.7-13.4L239.5 86l41.2 9.3zM85.9 239.4l32.7 9.6-24.9 25.1zm76.8 109.9-10.9-43.1 42.6 10.9 9.9 40.5z"/>
</svg>
