<svg xmlns="http://www.w3.org/2000/svg" fill="none" viewBox="0 0 20 20">
  <circle cx="10" cy="10" r="10" fill="#09125d"/>
  <path fill="url(#ether-fi_svg__a)" fill-rule="evenodd" d="m11.392 2.153.643 2.88-4.392 4.473 2.371.505.612 2.55 4.4-4.48 2.768.59.643 2.881-7.376 7.51-2.7-.785-.66-2.503-2.51-.851-.717-2.433-2.516-.732L1.25 9.07l7.374-7.507zM4.854 12.579l.555 1.882 1.433-1.459zm2.236.658-1.45 1.475 1.963.666zm.993 2.657.504 1.911 1.327-1.352zm2.074.8-1.335 1.359 1.933.562zm.932 1.853-.662-2.128 2.247-2.289 2.09.675zm4.089-4.163-.51-2.284 1.178-1.198 2.09.674zm2.843-3.142-2.086-.673-.61-2.072 2.188.466zM15 8.595l.607 2.061-1.18 1.202-2.177-.464zm-3.171 3.228L8.16 15.558l2.025.619 2.25-2.292zm1.115 2.033 1.906.615-.465-2.083zm1.197-1.707-1.433 1.46-.555-1.883zm-6.207 3.153 2.286-2.328-2.154-.731-.696.709zm.4-3.331 1.962.666-.514-2.141zm1.2-1.71L8.101 11.72l-.555-1.883zm-2.312-.326.607 2.062-.701.714-2.177-.464zm-2.535 2.093 3.675-3.742-2.09-.674L4.024 9.9zm-.903-2.37L1.759 9.04l3.668-3.735.607 2.062zm2.758-2.32 1.906.615-.465-2.083zm1.724-1.756.51 2.283 2.757-2.807-2.09-.675zM9.533 4.05l2.086.674-.509-2.28-2.188-.466zm-.935-1.974.607 2.062-1.18 1.202-2.177-.464zM5.75 5.207l.555 1.883L7.74 5.63zM1.68 9.376l1.831.559-1.328 1.352zm.739 2.158 1.335-1.359.598 1.922z" clip-rule="evenodd"/>
  <defs>
    <linearGradient id="ether-fi_svg__a" x1="17.534" x2="2.315" y1="8.695" y2="11.755" gradientUnits="userSpaceOnUse">
      <stop stop-color="#aa5ff8"/>
      <stop offset=".494" stop-color="#6f64e3"/>
      <stop offset="1" stop-color="#35a2ea"/>
    </linearGradient>
  </defs>
</svg>
