<svg xmlns="http://www.w3.org/2000/svg" fill="none" viewBox="0 0 20 20">
  <g clip-path="url(#euro-coin_svg__a)">
    <path stroke="#93BAE5" stroke-width="1.4" d="M7.885 15.977c-2.477-.98-4.103-3.148-4.135-5.845-.032-2.638 1.611-4.965 4.066-5.906.387-.148.29-.635.285-.955-.006-.267-.174-.396-.439-.307C4.67 3.98 2.55 6.726 2.498 9.864c-.053 3.32 1.986 6.352 5.215 7.345.2.06.364-.063.38-.27.026-.298.077-.85-.208-.962Zm4.437 1.21c6.822-2.287 6.806-11.934-.018-14.22-.667-.222-.55 1.1-.2 1.243.662.27 1.252.58 1.797 1.035 3.333 2.785 2.995 7.801-.653 10.15-.33.212-.725.372-1.096.54-.4.18-.301.577-.299.925.002.298.178.424.47.327Z"/>
    <path stroke="#93BAE5" stroke-width="1.4" d="m8.542 10.26-.02-.532a.06.06 0 0 1 .06-.063h1.642a.28.28 0 0 0 .224-.112l.368-.496a.263.263 0 0 0-.21-.419H8.773q-.042 0-.032-.042c.402-1.495 1.92-1.984 2.898-.599a.245.245 0 0 0 .294.085c.172-.071.84-.265.707-.563-.587-1.308-2.058-1.787-3.371-1.293-.978.368-1.62 1.384-1.852 2.371a.05.05 0 0 1-.019.03.06.06 0 0 1-.033.011h-.873a.1.1 0 0 0-.075.038l-.43.576a.258.258 0 0 0 .207.412l1.005.001q.056 0 .056.056v.547q0 .045-.045.044h-.713a.1.1 0 0 0-.063.027c-.167.177-.297.377-.446.568-.132.168.031.414.22.412q.565-.01 1.15.001.046 0 .057.046c.256 1.15 1.04 2.175 2.199 2.479 1.226.321 2.448-.243 3-1.405.203-.425-.377-.543-.732-.671a.1.1 0 0 0-.08.002.36.36 0 0 0-.188.154c-.274.495-.666.823-1.244.856-.887.051-1.378-.646-1.63-1.417q-.017-.047.033-.047h1.545a.1.1 0 0 0 .084-.04c.158-.189.864-.969.116-.965q-.96.005-1.925-.001-.05-.001-.05-.05Z"/>
    <path fill="#2775CA" d="M9.783 0h.402q3.773.142 6.482 2.583c4.444 4.003 4.368 11.059-.178 14.955-3.805 3.263-9.532 3.22-13.245-.202Q.219 14.548 0 10.306v-.643C.217 4.339 4.446.134 9.783 0M7.885 15.977c-2.477-.98-4.103-3.148-4.135-5.845-.032-2.638 1.612-4.965 4.066-5.906.387-.148.29-.635.285-.955-.005-.267-.174-.396-.439-.307C4.67 3.98 2.55 6.726 2.499 9.864c-.053 3.32 1.986 6.352 5.215 7.345.2.06.364-.063.38-.27.026-.298.077-.85-.208-.962m4.437 1.21c6.823-2.287 6.806-11.934-.017-14.22-.668-.222-.55 1.1-.2 1.243.661.27 1.251.58 1.796 1.035 3.333 2.785 2.995 7.801-.653 10.15-.33.212-.725.372-1.096.54-.4.18-.301.577-.298.925.001.298.177.424.468.327m-3.78-6.926-.02-.533a.06.06 0 0 1 .06-.063h1.642a.28.28 0 0 0 .223-.112l.37-.496a.263.263 0 0 0-.212-.419H8.773q-.043 0-.032-.042c.402-1.495 1.92-1.984 2.897-.599a.245.245 0 0 0 .295.085c.172-.071.84-.265.706-.563-.586-1.308-2.057-1.787-3.37-1.293-.978.368-1.62 1.384-1.852 2.371a.05.05 0 0 1-.02.03.06.06 0 0 1-.033.011h-.872a.1.1 0 0 0-.075.038l-.43.576a.258.258 0 0 0 .207.412l1.005.001q.055 0 .055.056v.547q0 .044-.044.044h-.714a.1.1 0 0 0-.062.027c-.167.177-.297.377-.447.568-.132.168.032.414.221.412q.564-.01 1.15.001.047 0 .056.046c.257 1.15 1.04 2.175 2.2 2.479 1.225.321 2.448-.243 3-1.405.203-.425-.377-.543-.732-.671a.1.1 0 0 0-.081.002.36.36 0 0 0-.188.154c-.273.495-.665.823-1.243.856-.887.051-1.378-.646-1.63-1.417q-.017-.047.033-.047h1.545a.1.1 0 0 0 .084-.04c.158-.189.863-.969.116-.965q-.96.005-1.925-.001-.05-.001-.051-.05"/>
    <path fill="#fff" d="M7.885 15.977c.285.112.234.664.209.962-.017.207-.182.33-.38.27-3.23-.993-5.27-4.025-5.216-7.345.052-3.138 2.172-5.884 5.164-6.9.265-.089.433.04.439.307.005.32.102.807-.285.955-2.455.94-4.098 3.268-4.066 5.906.032 2.697 1.658 4.864 4.135 5.845m4.419-13.009c6.824 2.285 6.84 11.932.018 14.219-.29.097-.467-.029-.469-.327-.002-.348-.101-.746.299-.925.371-.168.766-.328 1.096-.54 3.648-2.349 3.986-7.365.653-10.15-.545-.455-1.135-.766-1.797-1.035-.35-.142-.467-1.465.2-1.242"/>
    <path fill="#fff" d="M8.593 10.31q.965.007 1.925.002c.747-.004.042.776-.116.966a.1.1 0 0 1-.084.039H8.773q-.05 0-.033.047c.252.77.743 1.468 1.63 1.417.579-.033.97-.361 1.244-.856a.36.36 0 0 1 .187-.155.1.1 0 0 1 .081-.001c.355.128.935.246.733.671-.553 1.162-1.775 1.726-3.001 1.405-1.16-.304-1.943-1.329-2.2-2.479q-.01-.045-.056-.046-.585-.01-1.15-.001c-.189.002-.352-.244-.22-.412.149-.191.28-.391.446-.568a.1.1 0 0 1 .063-.027h.713q.045 0 .045-.044V9.72q0-.056-.056-.056H6.194a.258.258 0 0 1-.207-.413l.43-.576a.1.1 0 0 1 .075-.038h.873a.06.06 0 0 0 .033-.011.05.05 0 0 0 .02-.03c.23-.987.873-2.003 1.851-2.371 1.313-.494 2.784-.015 3.37 1.293.135.298-.534.492-.706.563a.24.24 0 0 1-.294-.085c-.977-1.385-2.496-.896-2.898.6q-.01.04.032.041h1.833a.262.262 0 0 1 .21.42l-.368.495a.28.28 0 0 1-.224.112H8.582a.06.06 0 0 0-.06.063l.02.533q.002.049.051.05"/>
  </g>
  <defs>
    <clipPath id="euro-coin_svg__a">
      <path fill="#fff" d="M0 0h20v20H0z"/>
    </clipPath>
  </defs>
</svg>
