<svg xmlns="http://www.w3.org/2000/svg" fill="none" viewBox="0 0 36 36">
  <g clip-path="url(#euro-coin_svg__a)">
    <path fill="#1AA3FF" fill-rule="evenodd" d="M0 18C0 8.059 8.059 0 18 0s18 8.059 18 18-8.059 18-18 18S0 27.941 0 18Z" clip-rule="evenodd"/>
    <path fill="#fff" d="m11.612 18.825-.652.88a.46.46 0 0 0 .41.667h2.134c.675 2.79 2.619 4.692 5.223 4.653 1.848 0 3.242-.919 4.172-2.75a.46.46 0 0 0-.224-.625l-1.018-.454a.458.458 0 0 0-.597.213c-.48.976-1.279 1.597-2.333 1.597-.955 0-1.722-.468-2.308-1.413a5.175 5.175 0 0 1-.551-1.22H18.6a.46.46 0 0 0 .41-.253l.652-.88a.46.46 0 0 0-.41-.666H15.56a10.37 10.37 0 0 1-.003-1.163H18.6a.46.46 0 0 0 .41-.252l.652-.88a.46.46 0 0 0-.41-.667h-3.389c.496-1.616 1.53-2.675 2.863-2.654 1.014 0 1.802.556 2.307 1.465a.455.455 0 0 0 .581.188l1.024-.452a.459.459 0 0 0 .219-.638c-.944-1.706-2.322-2.562-4.131-2.562-1.652 0-2.975.656-3.98 1.96-.587.767-.996 1.667-1.238 2.693h-1.487a.46.46 0 0 0-.41.252l-.652.88a.46.46 0 0 0 .41.667h1.893a12.088 12.088 0 0 0-.007 1.162h-1.233a.46.46 0 0 0-.41.252Z"/>
    <path fill="#fff" d="M6.156 17.242c.37-5.918 5.134-10.696 11.05-11.084 3.11-.204 5.985.8 8.209 2.586a.566.566 0 0 0 .73-.02l.873-.777a.568.568 0 0 0-.014-.86 14.095 14.095 0 0 0-9.613-3.23c-7.245.306-13.14 6.134-13.525 13.375a14.085 14.085 0 0 0 2.27 8.479c.188.29.593.34.851.11l.871-.778a.564.564 0 0 0 .103-.722 11.806 11.806 0 0 1-1.805-7.08Zm23.708-6.953a.567.567 0 0 0-.851-.11l-.871.777a.564.564 0 0 0-.103.723 11.805 11.805 0 0 1 1.805 7.08c-.37 5.916-5.134 10.695-11.05 11.083a11.815 11.815 0 0 1-8.209-2.586.566.566 0 0 0-.731.019l-.872.778a.568.568 0 0 0 .014.86 14.095 14.095 0 0 0 9.614 3.229c7.244-.306 13.14-6.134 13.524-13.375a14.085 14.085 0 0 0-2.27-8.478Z"/>
  </g>
  <defs>
    <clipPath id="euro-coin_svg__a">
      <rect width="36" height="36" fill="#fff" rx="18"/>
    </clipPath>
  </defs>
</svg>
