<svg xmlns="http://www.w3.org/2000/svg" viewBox="0 0 1024 1024">
  <circle cx="512" cy="512" r="512" fill="#1969ff" fill-rule="evenodd" clip-rule="evenodd"/>
  <path fill="#fff" d="M481 162.8c17.2-9.1 43.5-9.1 60.7 0l176 92.8c10.4 5.5 16.1 13.6 17.1 22.1h.2v466.4c-.2 9.2-6 18.3-17.3 24.3l-176 92.8c-17.2 9.1-43.5 9.1-60.7 0l-176-92.8c-11.2-5.9-16.6-15.1-16.9-24.3V277.8h.1c.8-8.5 6.2-16.5 16.8-22.1zM707 537l-165.4 87.5c-17.2 9.1-43.4 9.1-60.7 0l-165-87.3v205.5l165 86.8c9.8 5.2 19.9 10.3 29.8 10.5h.6c9.9 0 19.4-5 29.1-9.7L707 741.9zM260.4 734c0 17.9 2.1 29.6 6.1 37.9 3.4 6.9 8.5 12.1 17.8 18.5l.5.4c2 1.4 4.3 2.8 7 4.5l3.2 2 9.9 6-14.1 23.7-11.1-6.7-1.9-1.2c-3.2-2-5.9-3.7-8.3-5.4-26.5-18-36.3-37.6-36.5-78.5V734zM498 413c-1.3.4-2.5 1-3.6 1.5l-175.7 93.1c-.2.1-.4.2-.5.3l-.2.1.3.2.4.2 175.7 93.1q1.65.9 3.6 1.5zm28 0v190c1.3-.4 2.5-1 3.6-1.5l175.7-93.1c.2-.1.4-.2.5-.3l.1-.1-.3-.2-.4-.2-175.7-93.1c-1-.5-2.2-1.1-3.5-1.5m181-102-158 83 158 83zm-391 0v166l158-83zm213.4-123.4c-9.1-4.8-25.7-4.8-34.8 0l-175.9 93c-.2.1-.4.2-.5.3l-.2.1.3.2.4.2 175.9 93c9.1 4.8 25.7 4.8 34.8 0l175.9-93c.2-.1.4-.2.5-.3l.1-.1-.3-.2-.4-.2zm203.8 9.4 11.1 6.7 1.9 1.2c3.2 2 5.9 3.7 8.3 5.4 26.5 18 36.3 37.6 36.5 78.5v1.2h-27.4c0-17.9-2.1-29.6-6.1-37.9-3.4-6.9-8.5-12.1-17.8-18.5l-.5-.4c-2-1.4-4.3-2.8-7-4.5l-3.2-2-9.9-6z"/>
</svg>
