<svg xmlns="http://www.w3.org/2000/svg" fill="none" viewBox="0 0 20 20">
  <circle cx="10" cy="10" r="10" fill="#000b6a"/>
  <path fill="#fff" d="M7.614 4.053h1.464v1.502H7.614zm-3.69 0h1.527v1.502H3.924zm1.464 3.63v1.503H3.86V7.684zm-.382 8.264H4.37v-.563h.572v.563zm.445-3.005H3.924v-1.44h1.527zm3.245 3.005h-.573v-.563h.573zm0-3.505h-.573v-.564h.573zm.445-3.193H7.614V7.746h1.527zm3.245 6.698h-.573v-.563h.573zm0-3.505h-.573v-.564h.573zm0-3.694h-.573v-.563h.573zm.509-3.193h-1.527V4.053h1.527zm3.245 10.392h-.573v-.563h.573zm0-3.505h-.573v-.564h.573zm0-3.694h-.573v-.563h.573zm0-3.631h-.573v-.564h.573z"/>
</svg>
