<svg xmlns="http://www.w3.org/2000/svg" viewBox="0 0 495.1 331.4">
  <path d="M0 165.7c0-30.5 24.7-55.2 55.2-55.2s55.2-24.7 55.2-55.2S135.2 0 165.7 0s55.2 24.7 55.2 55.2-24.7 55.2-55.2 55.2-55.2 24.7-55.2 55.2 24.7 55.2 55.2 55.2 55.2 24.7 55.2 55.2-24.7 55.2-55.2 55.2-55.2-24.7-55.2-55.2-24.7-55.2-55.2-55.2S0 196.2 0 165.7m495.1 0c0 30.5-24.7 55.2-55.2 55.2s-55.2 24.7-55.2 55.2-24.7 55.2-55.2 55.2-55.2-24.7-55.2-55.2 24.7-55.2 55.2-55.2 55.2-24.7 55.2-55.2-24.7-55.2-55.2-55.2-55.2-24.7-55.2-55.2S298.9 0 329.4 0s55.2 24.7 55.2 55.2 24.7 55.2 55.2 55.2c30.6.1 55.3 24.8 55.3 55.3"/>
  <path d="M301.8 165.7c0 29.6-24 53.7-53.7 53.7s-53.7-24-53.7-53.7c0-29.6 24-53.7 53.7-53.7 29.6 0 53.7 24 53.7 53.7"/>
</svg>
