<svg xmlns="http://www.w3.org/2000/svg" fill="none" viewBox="0 0 20 20">
  <g clip-path="url(#firo_svg__a)">
    <path fill="#FEFEFE" d="M9.98 19.962c5.502 0 9.962-4.46 9.962-9.962S15.482.038 9.981.038.019 4.498.019 10s4.46 9.962 9.962 9.962"/>
    <path fill="#9B1C2E" d="M5.865 14.372a.62.62 0 0 0 .552-.333l1.468-2.789h-2.27a.62.62 0 0 1-.621-.622v-1.25c0-.346.282-.622.621-.622h3.59l2.788-5.282a.63.63 0 0 1 .552-.333h4.699A9.95 9.95 0 0 0 9.994.019C4.48.02.006 4.487.006 10.006c0 1.564.36 3.052 1.007 4.372h4.852z"/>
    <path fill="#9B1C2E" d="M14.109 5.628a.62.62 0 0 0-.551.334L12.09 8.75h2.269c.346 0 .622.282.622.622v1.25a.62.62 0 0 1-.622.622h-3.59l-2.788 5.282a.63.63 0 0 1-.552.333H2.731a9.95 9.95 0 0 0 7.25 3.122c5.512 0 9.987-4.468 9.987-9.987a9.9 9.9 0 0 0-1.006-4.372h-4.853z"/>
  </g>
  <defs>
    <clipPath id="firo_svg__a">
      <path fill="#fff" d="M0 0h20v20H0z"/>
    </clipPath>
  </defs>
</svg>
