<svg xmlns="http://www.w3.org/2000/svg" fill="none" viewBox="0 0 20 20">
  <path fill="#fff" d="M20 10c0 5.523-4.477 10-10 10S0 15.523 0 10 4.477 0 10 0s10 4.477 10 10"/>
  <path fill="#9B1C2E" d="M6.423 14.046a.62.62 0 0 1-.553.334v.007H1.008A9.9 9.9 0 0 1 0 10.007C0 4.476 4.483 0 10.006 0a9.97 9.97 0 0 1 7.264 3.128h-4.707a.63.63 0 0 0-.553.334L9.216 8.754H5.62a.624.624 0 0 0-.623.623v1.252c0 .34.276.623.623.623h2.273z"/>
  <path fill="#9B1C2E" d="M13.577 5.954a.62.62 0 0 1 .553-.334v-.007h4.861A9.9 9.9 0 0 1 20 9.993c0 .885-.115 1.743-.33 2.56a5.556 5.556 0 0 0-7.117 7.117c-.817.215-1.675.33-2.56.33a9.97 9.97 0 0 1-7.264-3.128h4.708a.63.63 0 0 0 .553-.334l2.793-5.292h3.597c.34 0 .623-.276.623-.623V9.371a.624.624 0 0 0-.623-.623h-2.274z"/>
  <path fill="#9B1C2E" fill-rule="evenodd" d="M10 20c5.523 0 10-4.477 10-10a9.96 9.96 0 0 0-1.011-4.387h-4.86v.007a.62.62 0 0 0-.552.334l-1.47 2.794h2.273c.347 0 .623.282.623.623v1.252a.624.624 0 0 1-.623.623h-3.597L7.99 16.538a.63.63 0 0 1-.553.334H2.735A9.97 9.97 0 0 0 10 20m-8.989-5.613A9.96 9.96 0 0 1 0 10C0 4.477 4.477 0 10 0a9.97 9.97 0 0 1 7.265 3.128h-4.702a.63.63 0 0 0-.553.334L9.216 8.754H5.62a.624.624 0 0 0-.623.623v1.252c0 .34.276.623.623.623h2.273l-1.47 2.794a.62.62 0 0 1-.553.334v.007z" clip-rule="evenodd"/>
</svg>
