<svg xmlns="http://www.w3.org/2000/svg" fill="none" viewBox="0 0 20 20">
  <path fill="#E42058" d="M20 10c0 5.523-4.477 10-10 10S0 15.523 0 10 4.477 0 10 0s10 4.477 10 10"/>
  <path fill="#fff" d="M12.69 9.38H8.25A2.244 2.244 0 0 0 6 11.57c0 .032.025.06.059.06h4.44a2.246 2.246 0 0 0 2.25-2.193.06.06 0 0 0-.06-.059zM8.25 6a2.24 2.24 0 0 0-2.247 2.192c0 .032.024.06.056.06h6.692a2.246 2.246 0 0 0 2.25-2.193.06.06 0 0 0-.06-.059zm-1.124 9c.622 0 1.126-.506 1.126-1.13A1.127 1.127 0 1 0 6 13.871C6 14.495 6.504 15 7.126 15"/>
</svg>
