<svg xmlns="http://www.w3.org/2000/svg" fill="none" viewBox="0 0 20 20">
  <path fill="#f4a427" d="M17.48 14.521c-.206 2.447-3.123 4.522-7.481 4.41-4.112-.113-6.99-1.808-7.195-4.263a4.5 4.5 0 0 1 .034-.945 7.3 7.3 0 0 1 .957-2.674l.307.14c.807-.31 1.64-.544 2.49-.698a15.7 15.7 0 0 1 3.383-.106 15.7 15.7 0 0 1 3.383.106c.855.153 1.694.386 2.506.697l.307-.14.216-.098a8.2 8.2 0 0 1 1.017 2.693q.075.437.044.878"/>
  <path fill="#fff" d="M17.48 14.521c-.206 2.447-3.081 4.413-7.481 4.41-4.112-.113-6.99-1.808-7.195-4.263a4.5 4.5 0 0 1 .034-.945 3.6 3.6 0 0 1 1.33-.034c.837.135 1.3.644 1.889.907.343.158.681-.1.994-.38a4.56 4.56 0 0 1 3.101-1.292c1.179-.015 2.124.445 3.157 1.38a1.1 1.1 0 0 0 .78.323c.273-.073.524-.21.731-.4a3.73 3.73 0 0 1 2.623-.587q.075.437.044.879"/>
  <path fill="#f79422" d="M5.398 8.493a2.14 2.14 0 0 1-1.04.566l-.154.029q-.24.063-.487.082a1 1 0 0 1-.104-.013 1.6 1.6 0 0 1-.26-.09 3.7 3.7 0 0 1-.78-.488A6.7 6.7 0 0 1 1.31 7.238 4.687 4.687 0 0 1 2.29.845a.277.277 0 0 1 .43.11.27.27 0 0 1 .013.167c-.193.824-.341 2.116.434 3.227.664.943 2.082 1.847 2.936 1.83.192 1.033-.097 1.725-.706 2.325"/>
  <path fill="#221f1f" fill-rule="evenodd" d="M2.53.959a.12.12 0 0 0-.14.008l-.003.002a4.53 4.53 0 0 0-.949 6.179c.348.49.763.931 1.232 1.309h.002q.342.281.746.468.11.05.23.08l.068.009a2.6 2.6 0 0 0 .46-.08l.15-.028a2 2 0 0 0 .963-.524v-.001c.292-.282.5-.58.614-.926.105-.316.135-.682.068-1.124-.449-.033-.988-.26-1.49-.575-.557-.35-1.094-.825-1.44-1.317-.816-1.168-.654-2.517-.46-3.353h.001A.12.12 0 0 0 2.53.958m-.09-.33a.43.43 0 0 1 .426.266.43.43 0 0 1 .02.263c-.19.813-.325 2.047.41 3.101.318.451.821.9 1.352 1.233.536.336 1.072.538 1.452.53a.156.156 0 0 1 .157.128c.1.54.077.998-.057 1.403s-.375.745-.692 1.052a2.3 2.3 0 0 1-1.117.607h-.005l-.148.028a3 3 0 0 1-.53.086 1 1 0 0 1-.133-.017 2 2 0 0 1-.286-.1h-.001a3.8 3.8 0 0 1-.814-.51 6.8 6.8 0 0 1-1.291-1.371v-.001A4.843 4.843 0 0 1 2.194.723.43.43 0 0 1 2.44.628" clip-rule="evenodd"/>
  <path fill="#5a595c" d="m9.135 4.91-.333 3.317h-.02c-.521.067-1.219.173-2.181.326-.893.14-2.082.741-2.782 1.15l-.104-.522q.247-.02.486-.083l.154-.029a2.13 2.13 0 0 0 1.04-.565c.61-.59.898-1.277.706-2.326l.096.031a4 4 0 0 1 1.096-.811 4.3 4.3 0 0 1 1.84-.488"/>
  <path fill="#221f1f" fill-rule="evenodd" d="M8.961 5.076c-.557.043-1.1.2-1.595.46l-.003.002c-.394.197-.75.46-1.052.779l-.026.022c.063.463.03.865-.088 1.223-.134.406-.375.746-.692 1.053q-.088.087-.185.164c.43-.176.868-.32 1.256-.38a90 90 0 0 1 2.083-.313zm.174-.166-.005-.156a4.4 4.4 0 0 0-1.909.505 4.1 4.1 0 0 0-1.068.772l-.004-.001a.156.156 0 0 0-.202.176c.093.505.068.912-.046 1.258-.115.347-.323.646-.614.927l-.001.002a2 2 0 0 1-.962.523l-.151.028-.011.003q-.226.06-.46.078a.156.156 0 0 0-.14.186l.104.522a.156.156 0 0 0 .232.104c.699-.407 1.866-.995 2.727-1.13.957-.151 1.65-.257 2.166-.324h.01c.081 0 .148-.06.156-.14l.333-3.318zM4.359 9.228l-.124.023q-.165.042-.334.066l.029.142q.198-.112.429-.231" clip-rule="evenodd"/>
  <path fill="#929497" d="m16.74 10.852-.218.098-.213.099-.31.14a13.7 13.7 0 0 0-2.506-.698 17.3 17.3 0 0 0-3.383-.3 17.3 17.3 0 0 0-3.382.3 14 14 0 0 0-2.506.697c-.104-.046-.206-.096-.31-.14l-.432-.196c.013-.361 0-.56 0-.922.089-.057.2-.13.334-.204l.033-.02c.664-.41 1.86-1.011 2.746-1.15.962-.153 1.65-.26 2.18-.326a21 21 0 0 1 2.6-.003 74 74 0 0 1 2.2.328c.904.14 2.111.755 2.803 1.163l.026.013q.192.113.32.199c0 .362-.013.56 0 .922"/>
  <path fill="#221f1f" fill-rule="evenodd" d="M9.836 8.035h.005a21 21 0 0 1 1.551.037c.536.068 1.23.174 2.206.329.933.144 2.159.77 2.853 1.18l.02.01.01.005q.195.115.328.204a.16.16 0 0 1 .07.122c.008.175.008.313.007.445v.025c0 .14 0 .275.01.45a.16.16 0 0 1-.091.153l-.218.097v.001l-.213.098h-.001l-.31.14a.16.16 0 0 1-.12.003 13.7 13.7 0 0 0-2.476-.69 20.3 20.3 0 0 0-3.356-.271v-.156.156a20.5 20.5 0 0 0-3.357.272c-.845.15-1.674.382-2.476.689a.16.16 0 0 1-.12-.003l-.12-.055-.186-.083-.004-.002-.432-.197a.16.16 0 0 1-.092-.147c.009-.231.006-.39.003-.574-.001-.102-.003-.21-.003-.343 0-.053.027-.103.072-.132l.011-.007a7 7 0 0 1 .366-.224c.67-.41 1.882-1.022 2.795-1.166m3.543 1.66a20.6 20.6 0 0 1 3.408.275h.002a14 14 0 0 1 2.473.683l.25-.112.213-.098.001-.001.12-.054a7 7 0 0 1-.005-.364v-.024c.001-.11.002-.22-.003-.35a7 7 0 0 0-.242-.148l-.021-.01-.01-.005c-.691-.408-1.876-1.009-2.747-1.143a75 75 0 0 0-2.193-.327 21 21 0 0 0-2.57.002 79 79 0 0 0-2.17.325c-.853.134-2.028.722-2.688 1.128l-.018.01-.02.014q-.143.082-.254.153 0 .13.003.243c.002.16.004.309 0 .495l.335.152q.102.044.2.09l.052.024c.802-.303 1.63-.531 2.473-.682h.002a21 21 0 0 1 3.409-.277m-.275-2.026c-.373.002-.732.018-1.072.039zm-1.072.039h-.01zm-.01 0c-.534.068-1.224.175-2.186.327z" clip-rule="evenodd"/>
  <path fill="#929497" d="M11.38 8.227a21 21 0 0 0-1.535-.036c-.369 0-.725.018-1.064.039h.021l.333-3.318.07-.672c.265-.146.562-.224.864-.227h.042c.303.002.601.08.866.227l.068.662v.018z"/>
  <path fill="#221f1f" fill-rule="evenodd" d="M10.07 3.857h.042c.33.002.653.087.941.247.045.025.075.07.08.12l.068.662v.026l.335 3.3a.156.156 0 0 1-.165.171 21 21 0 0 0-1.523-.036h-.003a17 17 0 0 0-1.043.039h-.02a.156.156 0 0 1-.128-.247l.326-3.243.07-.672a.16.16 0 0 1 .08-.12c.287-.16.61-.244.938-.247zM8.975 8.062c.278-.015.569-.027.868-.027q.716-.009 1.363.026l-.317-3.125-.001-.016v-.01l-.058-.57a1.66 1.66 0 0 0-.72-.17h-.041c-.25.002-.495.06-.718.17l-.061.589zm.868-.027h.002v.156zm3.51 2.64a17.5 17.5 0 0 0-3.353-.3v-.155.157a20 20 0 0 0-3.355.3 13.7 13.7 0 0 0-2.478.69.16.16 0 0 1-.12-.004l-.18-.082A7.2 7.2 0 0 0 3 13.777a4.2 4.2 0 0 0-.033.91c.098 1.163.827 2.16 2.055 2.887 1.23.728 2.947 1.176 4.983 1.232 2.044 0 3.833-.486 5.132-1.265 1.3-.78 2.094-1.845 2.191-3.002l.156.013-.155-.013a3.5 3.5 0 0 0-.03-.839 8.1 8.1 0 0 0-.93-2.517l-.084.039-.005.002-.333.14a.16.16 0 0 1-.116.001 13.6 13.6 0 0 0-2.478-.69m4.288 3.89c-.109 1.29-.988 2.431-2.342 3.244-1.356.814-3.204 1.31-5.295 1.31H10c-2.074-.058-3.849-.514-5.136-1.276-1.289-.762-2.1-1.84-2.208-3.13v-.002a4.5 4.5 0 0 1 .035-.98A7.5 7.5 0 0 1 3.667 11a.156.156 0 0 1 .198-.063l.25.113c.802-.303 1.63-.53 2.474-.682a20.4 20.4 0 0 1 3.41-.305 18 18 0 0 1 3.41.305c.845.15 1.674.38 2.476.683l.273-.114.21-.098a.156.156 0 0 1 .2.063 8.4 8.4 0 0 1 1.04 2.743v.004q.073.456.033.917" clip-rule="evenodd"/>
  <path fill="#f79422" d="M18.752 7.238a6.7 6.7 0 0 1-1.264 1.34q-.358.295-.78.489l-.134.054-.083.026c-.185.052-.278 0-.627-.06l-.153-.028a2.15 2.15 0 0 1-1.041-.566c-.61-.589-.898-1.276-.703-2.325.843.018 2.27-.886 2.933-1.83.78-1.1.622-2.392.437-3.216a.27.27 0 0 1 .121-.299.28.28 0 0 1 .324.022 4.69 4.69 0 0 1 .973 6.392"/>
  <path fill="#221f1f" fill-rule="evenodd" d="M17.613.938a.12.12 0 0 0-.12.074.1.1 0 0 0-.005.072l.001.004c.187.832.36 2.183-.462 3.34-.346.493-.885.968-1.443 1.318-.5.314-1.04.542-1.484.574-.068.448-.04.816.065 1.134.114.347.322.645.613.927l.001.001c.265.26.599.443.963.524l.15.028q.133.023.222.042l.01.002.139.027a.4.4 0 0 0 .184-.008l.075-.023.123-.05q.402-.186.744-.466v-.001a6.5 6.5 0 0 0 1.236-1.31 4.533 4.533 0 0 0-.94-6.178l-.003-.004a.12.12 0 0 0-.07-.027M17.376.69a.43.43 0 0 1 .504.034 4.846 4.846 0 0 1 1 6.603v.001A7 7 0 0 1 17.586 8.7a3.8 3.8 0 0 1-.82.512l-.132.054-.013.004-.088.028a.7.7 0 0 1-.318.015q-.069-.011-.15-.028l-.013-.003-.214-.04h-.002l-.154-.03h-.005a2.3 2.3 0 0 1-1.116-.607c-.318-.307-.559-.647-.693-1.053-.133-.407-.156-.868-.054-1.413a.156.156 0 0 1 .156-.127c.376.008.911-.194 1.448-.53.532-.334 1.037-.783 1.354-1.233.74-1.043.596-2.275.413-3.091a.43.43 0 0 1 .19-.468" clip-rule="evenodd"/>
  <path fill="#5a595c" d="m16.496 9.147-.112.571c-.692-.408-1.9-1.033-2.802-1.163a84 84 0 0 0-2.201-.328l-.336-3.31a4.1 4.1 0 0 1 1.73.481 3.9 3.9 0 0 1 1.104.811l.098-.03c-.195 1.033.094 1.725.703 2.325.286.282.647.478 1.04.565.024 0 .13.052.154.057.202.068.42.079.627.031"/>
  <path fill="#221f1f" fill-rule="evenodd" d="M10.932 4.81a.16.16 0 0 1 .121-.049 4.3 4.3 0 0 1 1.794.498c.399.197.763.458 1.077.772l.007-.002a.156.156 0 0 1 .2.178c-.094.496-.07.9.045 1.248.114.348.322.65.614.937.264.261.598.443.962.524l.15.028.208.037.01.002c.061.012.107.02.146.025.072.01.119.008.188-.011a.156.156 0 0 1 .196.18l-.112.571a.156.156 0 0 1-.233.105 13 13 0 0 0-1.306-.678c-.497-.222-1.01-.403-1.44-.465h-.002a84 84 0 0 0-2.197-.328.156.156 0 0 1-.135-.14l-.335-3.309a.16.16 0 0 1 .042-.123m2.86 1.53-.027-.023a3.7 3.7 0 0 0-1.059-.779l-.004-.002a4 4 0 0 0-1.483-.449l.305 3.002c.517.069 1.179.168 2.081.312.328.047.69.155 1.05.293l-.085-.079m1.31.642q.21.112.393.216l.03-.148-.077-.007a3 3 0 0 1-.163-.028l-.01-.001zM13.792 6.34c-.063.456-.032.855.086 1.213.133.406.374.75.691 1.062" clip-rule="evenodd"/>
  <path fill="#221f1f" fill-rule="evenodd" d="M10.936 4.761h.109v.313h-.11z" clip-rule="evenodd"/>
  <path fill="#f79422" d="M16.52 9.02a.495.495 0 0 1-.141.737"/>
  <path fill="#221f1f" fill-rule="evenodd" d="M16.461 9.247a.34.34 0 0 0-.064-.13l.245-.194a.65.65 0 0 1-.185.969l-.156-.27a.34.34 0 0 0 .164-.23.3.3 0 0 0-.004-.145" clip-rule="evenodd"/>
  <path fill="#f79422" d="M3.684 9.02a.495.495 0 0 0 .143.737"/>
  <path fill="#221f1f" fill-rule="evenodd" d="M3.439 9.173a.65.65 0 0 1 .122-.25l.245.194a.338.338 0 0 0 .098.504l-.155.271a.655.655 0 0 1-.31-.719" clip-rule="evenodd"/>
  <path fill="#171717" fill-rule="evenodd" d="M10.145 14.608a.156.156 0 0 1 .153.147 1 1 0 0 1 0 .113.51.51 0 0 0 .348.446l.017.007a.7.7 0 0 0 .456.055.156.156 0 0 1 .066.306c-.22.047-.448.02-.65-.076a.83.83 0 0 1-.398-.3.87.87 0 0 1-.385.3 1.02 1.02 0 0 1-.655.076.156.156 0 0 1 .066-.306.7.7 0 0 0 .47-.06.55.55 0 0 0 .35-.453 1 1 0 0 1 .004-.114.156.156 0 0 1 .158-.141" clip-rule="evenodd"/>
  <path fill="#171717" d="M11.152 13.893c0 .3-.471.726-1.041.726s-1.041-.408-1.041-.71c0-.303.47-.406 1.04-.406s1.042.088 1.042.39"/>
  <path fill="#fff" d="M10.546 13.777c0 .07-.2.168-.445.168s-.443-.096-.443-.165c0-.07.198-.057.443-.057.244 0 .444-.018.444.054"/>
  <path fill="#171717" fill-rule="evenodd" d="M8.5 14.614c.086.007.15.082.143.168a.54.54 0 0 0 .434.578h.053a.156.156 0 1 1 0 .312h-.068l-.028-.002a.853.853 0 0 1-.703-.913.156.156 0 0 1 .17-.144m1.639-.359c.086 0 .156.07.156.156v.354a.156.156 0 0 1-.313 0v-.354c0-.086.07-.156.157-.156m1.64.36a.156.156 0 0 1 .172.14.853.853 0 0 1-.73.931h-.07a.156.156 0 1 1 0-.312h.055a.54.54 0 0 0 .434-.587.156.156 0 0 1 .14-.172" clip-rule="evenodd"/>
  <path fill="#221f1f" fill-rule="evenodd" d="M19.39 3.873A4.55 4.55 0 0 0 17.687.97l.192-.247a4.846 4.846 0 0 1 1.005 6.605l-.256-.179a4.53 4.53 0 0 0 .764-3.275M2.53.959a.12.12 0 0 0-.14.008l-.003.002a4.53 4.53 0 0 0-.949 6.179c.348.49.763.931 1.232 1.309h.002q.342.281.746.468.11.05.23.08l.068.009a2.6 2.6 0 0 0 .46-.08l.15-.028a2 2 0 0 0 .963-.524v-.001c.292-.282.5-.58.614-.926.105-.316.135-.682.068-1.124-.449-.033-.988-.26-1.49-.575-.557-.35-1.094-.825-1.44-1.317-.816-1.168-.654-2.517-.46-3.353h.001A.12.12 0 0 0 2.53.958m-.09-.33a.43.43 0 0 1 .426.266.43.43 0 0 1 .02.263c-.19.813-.325 2.047.41 3.101.318.451.821.9 1.352 1.233.536.336 1.072.538 1.452.53a.156.156 0 0 1 .157.128c.1.54.077.998-.057 1.403s-.375.745-.692 1.052a2.3 2.3 0 0 1-1.117.607h-.005l-.148.028a3 3 0 0 1-.53.086 1 1 0 0 1-.133-.017 2 2 0 0 1-.286-.1h-.001a3.8 3.8 0 0 1-.814-.51 6.8 6.8 0 0 1-1.291-1.371v-.001A4.843 4.843 0 0 1 2.194.723.43.43 0 0 1 2.44.628" clip-rule="evenodd"/>
  <path fill="#221f1f" d="M8.214 12.206c0 .563-.333 1.018-.744 1.018-.412 0-.742-.455-.742-1.018 0-.493.26-.907.596-1l.83.626q.057.183.06.374"/>
  <path fill="#fff" d="M7.938 12.072c0 .199-.117.364-.26.364s-.26-.165-.26-.364c0-.2.12-.367.26-.367s.26.165.26.367"/>
  <path fill="#221f1f" d="M7.306 12.968a6 6 0 0 0-.78.775q-.17.21-.285.453a2 2 0 0 0-.16.516q-.025.134-.04.272l-.013.14v.139a5 5 0 0 0 0 .56 4.5 4.5 0 0 0 .146.837q.035.135.093.259a2 2 0 0 1-.124-.259c-.037-.087-.068-.178-.1-.258a5 5 0 0 1-.145-.56 5 5 0 0 1-.078-.577l-.008-.142v-.147q0-.148.013-.295a2.3 2.3 0 0 1 .128-.594 2.5 2.5 0 0 1 .273-.543q.335-.492.757-.914a.237.237 0 0 1 .399.16.23.23 0 0 1-.058.165l-.016.016z"/>
  <path fill="#221f1f" d="M7.134 12.893a.14.14 0 0 1-.055 0h-.09l-.12-.025a1.5 1.5 0 0 0-.242-.029 1.6 1.6 0 0 0-.487.041q-.122.03-.234.083c-.237.11-.437.283-.578.501a1.5 1.5 0 0 1 .726-.8q.254-.146.539-.207.143-.024.289-.031h.252s.023 0 0 0a.24.24 0 0 1 .233.149.234.234 0 0 1-.156.312.2.2 0 0 1-.098.006m6.443-.687c0 .563-.333 1.018-.741 1.018-.409 0-.745-.455-.745-1.018q0-.193.052-.38l.833-.62c.344.09.601.504.601 1"/>
  <path fill="#fff" d="M12.343 12.072c0 .199.12.364.26.364s.26-.165.26-.364c0-.2-.119-.367-.26-.367-.14 0-.26.165-.26.367"/>
  <path fill="#221f1f" d="M13.301 12.627q.411.416.742.9.169.244.283.516.113.279.154.576.034.293 0 .587a6 6 0 0 1-.235 1.11q-.043.138-.096.26-.05.134-.125.258.059-.126.097-.259a5 5 0 0 0 .154-.822 7 7 0 0 0 .028-.555q0-.271-.058-.535a2 2 0 0 0-.19-.493 3 3 0 0 0-.299-.44 6 6 0 0 0-.78-.775.234.234 0 0 1 .139-.401.24.24 0 0 1 .168.045l.018.015"/>
  <path fill="#221f1f" d="M13.13 12.426h.127q.075-.004.15 0 .153.005.303.026c.2.028.397.084.582.165q.278.121.49.336c.135.137.242.3.315.478a1.42 1.42 0 0 0-.88-.592 2 2 0 0 0-.52-.036 2 2 0 0 0-.26.031l-.13.026h-.152a.237.237 0 0 1-.269-.223.23.23 0 0 1 .152-.23.2.2 0 0 1 .097-.015"/>
</svg>
