<svg xmlns="http://www.w3.org/2000/svg" viewBox="0 0 256 256">
  <g transform="scale(2.56)">
    <circle cx="50" cy="50" r="50" fill="#00ef8b"/>
    <path fill="#fff" d="M57.8 42.2h14.1v14.1H57.8zM43.7 61.6c0 2.9-2.4 5.3-5.3 5.3s-5.3-2.4-5.3-5.3 2.4-5.3 5.3-5.3h5.3V42.2h-5.3C27.7 42.2 19 50.9 19 61.6S27.7 81 38.4 81s19.4-8.7 19.4-19.4v-5.3H43.7zm19.4-26.5H79V21H63.1c-10.7 0-19.4 8.7-19.4 19.4v1.8h14.1v-1.8c0-2.9 2.4-5.3 5.3-5.3"/>
    <path fill="#16ff99" d="M57.8 42.2H43.7v14.1h14.1z"/>
  </g>
</svg>
