<svg xmlns="http://www.w3.org/2000/svg" fill="none" viewBox="0 0 20 20">
  <path fill="#000" d="M10 19.417A9.417 9.417 0 1 0 10 .583a9.417 9.417 0 0 0 0 18.834"/>
  <path fill="#000" fill-rule="evenodd" d="M10 1.165a8.835 8.835 0 1 0 0 17.67 8.835 8.835 0 0 0 0-17.67M0 10C0 4.477 4.477 0 10 0s10 4.477 10 10-4.477 10-10 10S0 15.523 0 10" clip-rule="evenodd"/>
  <path fill="#fff" d="M4.805 4.762a58 58 0 0 0-.728.774c-.004.01.354.36.794.778.44.42.824.787.85.81l.05.047-.09.149a5.08 5.08 0 0 0-.453 4.295c.093.271.252.619.387.847.067.113.096.185.09.199a67 67 0 0 1-.89.943c-.483.503-.877.923-.884.93-.003.01 1.35 1.316 1.48 1.422L5.46 16l.764-.797.874-.917.112-.112.106.066a5.2 5.2 0 0 0 1.87.708c.35.063 1.019.08 1.393.033a5.1 5.1 0 0 0 2.022-.678l.152-.093.162.159a181 181 0 0 0 1.691 1.608c.013.007 1.466-1.512 1.463-1.532-.004-.01-1-.966-1.609-1.539l-.202-.191.093-.153a5.09 5.09 0 0 0 .437-4.308 7 7 0 0 0-.424-.907l-.062-.109.85-.89c.466-.486.847-.893.844-.903a51 51 0 0 0-1.522-1.44c-.014 0-.388.38-.834.85a43 43 0 0 1-.828.854c-.006.004-.05-.016-.089-.046a5.1 5.1 0 0 0-2.012-.738c-.271-.04-1.085-.046-1.337-.01a5 5 0 0 0-1.598.487c-.145.07-.314.162-.38.201l-.12.073-.135-.132c-.073-.073-.404-.384-.731-.698a83 83 0 0 1-.742-.708l-.145-.143zm5.556 2.157c.526.063.995.242 1.429.546.222.156.553.487.708.709a3.05 3.05 0 0 1-.397 3.994 3.04 3.04 0 0 1-3.478.496 3.07 3.07 0 0 1-1.611-2.144 3.7 3.7 0 0 1 0-1.149c.056-.29.132-.5.274-.79a3.04 3.04 0 0 1 3.075-1.662"/>
</svg>
