<svg xmlns="http://www.w3.org/2000/svg" fill="none" viewBox="0 0 20 20">
  <path fill="#EC1966" d="m19.257 4.531-.085-.044a1 1 0 0 0-.081-.051L10.946.26a2 2 0 0 0-.258-.106A1.6 1.6 0 0 0 9.983 0a1.6 1.6 0 0 0-.7.17L4.115 2.81.9 4.441a1 1 0 0 0-.098.062l-.053.028c-.22.113-.403.275-.53.47a1.17 1.17 0 0 0-.194.642v8.565c0 .27.08.536.233.77.153.235.372.43.636.564l8.388 4.286a1.59 1.59 0 0 0 1.442 0l8.533-4.36c.22-.112.403-.274.53-.469s.194-.417.194-.642V5.643c0-.225-.067-.447-.195-.642a1.4 1.4 0 0 0-.53-.47"/>
  <g opacity=".1">
    <path fill="#000" d="m.002 5.835.091 8.35c.003.278.087.55.244.791.157.24.382.44.653.58l8.132 4.167a.67.67 0 0 0 .612 0 .6.6 0 0 0 .223-.201.5.5 0 0 0 .08-.273l-.098-8.94a.5.5 0 0 0-.083-.269.6.6 0 0 0-.222-.196L.897 5.367a.65.65 0 0 0-.721.084.5.5 0 0 0-.13.173A.5.5 0 0 0 0 5.83v.005"/>
    <mask id="funtoken_svg__a" width="11" height="15" x="0" y="5" maskUnits="userSpaceOnUse" style="mask-type:luminance">
      <path fill="#fff" d="m.002 5.835.091 8.35c.003.278.087.55.244.791.157.24.382.44.653.58l8.132 4.167a.67.67 0 0 0 .612 0 .6.6 0 0 0 .223-.201.5.5 0 0 0 .08-.273l-.098-8.94a.5.5 0 0 0-.083-.269.6.6 0 0 0-.222-.196L.897 5.367a.65.65 0 0 0-.721.084.5.5 0 0 0-.13.173A.5.5 0 0 0 0 5.83v.005"/>
    </mask>
    <g mask="url(#funtoken_svg__a)">
      <path fill="#000" d="m7.498 1.407-14.675 7.6 9.728 14.808 14.675-7.601z"/>
    </g>
  </g>
  <g opacity=".2">
    <path fill="#000" d="M19.098 5.357 10.25 9.843a.6.6 0 0 0-.227.2.5.5 0 0 0-.081.276l.098 8.952c0 .095.03.188.084.27q.082.123.223.196a.67.67 0 0 0 .608-.002l8.144-4.173c.274-.14.502-.342.66-.585s.24-.519.24-.8V5.82a.5.5 0 0 0-.039-.203.5.5 0 0 0-.124-.173.6.6 0 0 0-.19-.117.66.66 0 0 0-.543.03"/>
    <mask id="funtoken_svg__b" width="11" height="15" x="9" y="5" maskUnits="userSpaceOnUse" style="mask-type:luminance">
      <path fill="#fff" d="M19.098 5.357 10.25 9.843a.6.6 0 0 0-.227.2.5.5 0 0 0-.081.276l.098 8.952c0 .095.03.188.084.27q.082.123.223.196a.67.67 0 0 0 .608-.002l8.144-4.173c.274-.14.502-.342.66-.585s.24-.519.24-.8V5.82a.5.5 0 0 0-.039-.203.5.5 0 0 0-.124-.173.6.6 0 0 0-.19-.117.66.66 0 0 0-.543.03"/>
    </mask>
    <g mask="url(#funtoken_svg__b)">
      <path fill="#000" d="M18.634 2.219 4.29 7.263l7.015 15.725 14.344-5.044z"/>
    </g>
  </g>
  <path fill="#fff" d="M14.293 15.278a.45.45 0 0 1-.296-.108.35.35 0 0 1-.124-.262l-.022-3.583c0-.076.025-.15.074-.213a.4.4 0 0 1 .197-.137.47.47 0 0 1 .25-.013q.128.03.214.117l1.608 1.64-.01-2.465a.35.35 0 0 1 .123-.263.45.45 0 0 1 .296-.11h.001c.111 0 .218.039.296.108.08.07.123.164.124.263l.012 3.464a.34.34 0 0 1-.073.213.4.4 0 0 1-.198.137.47.47 0 0 1-.25.013.43.43 0 0 1-.213-.117l-1.606-1.638.016 2.58a.35.35 0 0 1-.121.264.45.45 0 0 1-.296.11zm-3.777-8.951a2.9 2.9 0 0 1-.986-.174l-.047-.02L6.671 4.71a.37.37 0 0 1-.192-.22.33.33 0 0 1 .039-.276.4.4 0 0 1 .247-.17.46.46 0 0 1 .311.034l2.789 1.41c.212.076.44.114.669.11.663 0 1.16-.287 1.17-.547a.4.4 0 0 0-.068-.189.5.5 0 0 0-.155-.142l-.045-.021-.125-.064-2.255-1.157a.4.4 0 0 1-.12-.093.4.4 0 0 1-.071-.128.32.32 0 0 1 .04-.276.4.4 0 0 1 .106-.106.43.43 0 0 1 .303-.072.5.5 0 0 1 .152.045l2.342 1.202.04.016c.194.095.36.233.478.4s.186.359.198.556v.02c0 .72-.873 1.285-1.987 1.285zm-7.25 8.923a.5.5 0 0 1-.326-.12.4.4 0 0 1-.136-.29l-.016-4.653q0-.11.061-.205a.44.44 0 0 1 .168-.15.5.5 0 0 1 .46-.003l3.548 1.78q.08.038.139.103a.4.4 0 0 1 .082.143.37.37 0 0 1-.042.313.4.4 0 0 1-.119.122.5.5 0 0 1-.342.083.5.5 0 0 1-.172-.051L3.714 10.89l.006 1.527 2.652 1.296c.09.044.16.114.202.197.04.084.048.177.023.265a.4.4 0 0 1-.165.222.5.5 0 0 1-.505.035l-2.204-1.077.006 1.483a.4.4 0 0 1-.135.29.5.5 0 0 1-.326.121z"/>
</svg>
