<svg xmlns="http://www.w3.org/2000/svg" fill="none" viewBox="0 0 20 20">
  <circle cx="10" cy="10" r="10" fill="#fff"/>
  <path fill="#000" fill-rule="evenodd" d="M8.303 3.007a849 849 0 0 1-3.165 1.716c-.729.393-1.39.761-1.468.818-.126.092.24.325 3.187 2.03l3.33 1.927 1.28-.744 1.28-.744-.542-.312-.543-.312-.74.427-.74.427-2.241-1.294c-1.232-.711-2.231-1.301-2.219-1.31.147-.117 4.385-2.36 4.458-2.36.055 0 1.338.669 2.85 1.487l2.75 1.487.528-.296c.293-.164.498-.326.46-.364s-.626-.37-1.308-.738l-3.253-1.763A91 91 0 0 0 10.167 2c-.013.002-.852.455-1.864 1.007M3.004 9.974l.021 3.818 3.399 2.095 3.399 2.094.02-3.93c.012-2.16-.006-3.954-.04-3.986-.11-.108-2.427-1.43-2.504-1.43-.041 0-.075.261-.075.581V9.8l.759.437.76.437v2.66c0 1.462-.027 2.657-.06 2.655s-1.06-.624-2.282-1.38L4.178 13.23l.005-3.214.005-3.213-.555-.325c-.306-.178-.577-.324-.603-.324-.025 0-.037 1.718-.026 3.819m10.898-1.866-3.36 1.944-.021 1.49c-.012.82.002 1.49.032 1.49s.283-.127.562-.283l.507-.284v-.896l.001-.896 2.179-1.255c1.198-.69 2.233-1.275 2.299-1.3.105-.04.117.27.101 2.534l-.018 2.58-2.84 1.75-2.841 1.749V18l.22-.131c.12-.072 1.659-1.02 3.418-2.104l3.2-1.973.02-3.818c.012-2.1-.006-3.817-.04-3.814-.033.002-1.572.88-3.42 1.948" clip-rule="evenodd"/>
</svg>
