<svg xmlns="http://www.w3.org/2000/svg" fill="none" viewBox="0 0 21 20">
  <g clip-path="url(#gatetoken_svg__a)">
    <path fill="#d35756" d="M19.832 5.3 13.79 8.475v3.682l2.078-1.106v2.135l-5.856 3.38-4.706-2.717a2.3 2.3 0 0 1-1.15-1.992V6.423L9.013 3.62a2 2 0 0 1 1.997 0l4.857 2.804 2.973-1.717-7.566-4.37a2.53 2.53 0 0 0-2.526 0l-7.565 4.37v8.863c0 .825.44 1.586 1.154 1.999L10.012 20l7.665-4.425a2.33 2.33 0 0 0 1.164-2.017V9.47l.99-.526V5.3"/>
  </g>
  <defs>
    <clipPath id="gatetoken_svg__a">
      <path fill="#fff" d="M.507 0h20v20h-20z"/>
    </clipPath>
  </defs>
</svg>
