<svg xmlns="http://www.w3.org/2000/svg" fill="none" viewBox="0 0 194 195">
  <circle cx="96.893" cy="97.201" r="96.839" fill="#314012"/>
  <path fill="#c7e36c" fill-rule="evenodd" d="M168.887 102.452c-2.788 37.246-33.9 66.599-71.87 66.599-39.806 0-72.075-32.258-72.075-72.05 0-39.793 32.269-72.052 72.074-72.052 37.908 0 68.981 29.257 71.857 66.416h-34.459c7.522-16.621 7.977-31.723-.249-38.623-12.148-10.19-38.628 1.364-59.145 25.808s-27.301 52.519-15.153 62.709 38.628-1.364 59.145-25.808a113 113 0 0 0 9.449-12.999z" clip-rule="evenodd"/>
  <path fill="#c7e36c" d="M102.43 102.452h28.821l-11.13 14.573-17.691-7.101z"/>
</svg>
