<svg xmlns="http://www.w3.org/2000/svg" fill="none" viewBox="0 0 20 20">
  <path fill="url(#gods-unchained_svg__a)" d="m1.325 4.727 2.58-.998L5.207.95 7.432 0l2.958 1.283L12.97.19l2.39.903 1.09 3.016 2.722 1.117L20 7.41l-1.207 3.017 1.089 2.636-.805 2.09L16 16.461l-1.207 2.66-2.107.879-2.935-1.283-2.745 1.117-2.06-.855-1.183-2.993-2.769-1.14L0 12.328l1.278-2.993L.331 7.03z"/>
  <path fill="url(#gods-unchained_svg__b)" fill-rule="evenodd" d="m3.905 3.73-2.58.997L.331 7.03l.947 2.304L0 12.328l.994 2.518 2.77 1.14 1.183 2.993 2.059.855 2.745-1.117L12.686 20l2.107-.879L16 16.461l3.077-1.307.805-2.09-1.09-2.636L20 7.41l-.828-2.185-2.722-1.117-1.09-3.016L12.97.19l-2.58 1.093L7.432 0 5.207.95zM1.183 7.101l.71-1.829 1.87-.76-.875 2.185 2.532 6.2-2.225-.879zm2.486-.499.923 2.21 2.58-6.153 2.2-.926L7.48.903l-1.799.783zm-2.675 5.75.805-1.924.947 2.232 6.153 2.566-2.248.926-4.9-2.043zm3.574 3.681.805 1.9 1.775.713 4.9-2.019 2.792-6.746-.947-2.233-3.242 7.673-3.858 1.615zm5.94 1.948 2.178-.903 2.58-6.128.947 2.21-2.06 4.94-1.774.736zm5.61-2.732 1.847-.783.757-1.782-2.036-4.917-2.248-.926 2.509 6.152zM10.982 4.537l2.201-.95 4.876 2.019.805 1.829-.805 1.852-.947-2.185zm1.68-3.444L7.835 3.112l-2.816 6.77.97 2.208 3.266-7.696 3.811-1.591 2.225.879-.781-1.853zm-4 6.223.734-1.592 3.764 1.64-.71 1.567zm-.354.95-.71 1.568 3.787 1.639.71-1.64zm-1.775 4.085.686-1.543 3.81 1.615-.71 1.568z" clip-rule="evenodd"/>
  <defs>
    <radialGradient id="gods-unchained_svg__a" cx="0" cy="0" r="1" gradientTransform="rotate(90 0 10)scale(10)" gradientUnits="userSpaceOnUse">
      <stop stop-color="#EEFBFC"/>
      <stop offset=".823" stop-color="#6FCAFC"/>
      <stop offset="1" stop-color="#2987F5"/>
    </radialGradient>
    <radialGradient id="gods-unchained_svg__b" cx="0" cy="0" r="1" gradientTransform="rotate(90 0 10)scale(10)" gradientUnits="userSpaceOnUse">
      <stop stop-color="#20839F"/>
      <stop offset="1" stop-color="#1D4A6F"/>
    </radialGradient>
  </defs>
</svg>
