<svg xmlns="http://www.w3.org/2000/svg" fill="none" viewBox="0 0 20 20">
  <circle cx="10" cy="10" r="10" fill="#000"/>
  <path fill="#abf600" d="M14.856 3.514a1.085 1.085 0 0 0-1.044 1.379c.613-.254 1.312-.402 2.122-.415a1.085 1.085 0 0 0-1.078-.964m1.081 1.163a5.5 5.5 0 0 0-2.055.401 1.085 1.085 0 0 0 2.055-.401m-2.389.333v-.392c-1.198 0-2.17.972-2.17 2.172v.073q.267-.352.567-.667a5.6 5.6 0 0 1 1.603-1.185m-2.17 2.186q.329-.463.71-.863c.424-.443.903-.82 1.46-1.102v6.807c0 1.2-.972 2.172-2.17 2.172zm-.611.564c-.386-.601-1.06-1-1.827-1v4.494q.298-.575.59-1.169l.074-.15c.366-.74.739-1.484 1.163-2.175M8.94 11.677c.264-.486.513-.99.762-1.493l.08-.16c.35-.709.703-1.413 1.098-2.066.147.293.23.625.23.976v7.24A2.17 2.17 0 0 1 8.94 14zm-.268.076V8.674c-1.199 0-2.17.973-2.17 2.172v3.594a5.5 5.5 0 0 0 .892-.812c.484-.543.896-1.185 1.278-1.875m-2.17 2.928c.384-.258.727-.57 1.04-.92.422-.475.79-1.022 1.13-1.606v1.146a2.17 2.17 0 0 1-2.17 2.172zm-.379.003q.108-.323.11-.683v-1.636a2.17 2.17 0 0 0-2.17 2.172v.738a4.6 4.6 0 0 0 2.06-.591m-2.06.789a4.8 4.8 0 0 0 1.94-.5 2.17 2.17 0 0 1-1.94 1.2z"/>
</svg>
