<svg xmlns="http://www.w3.org/2000/svg" fill="none" viewBox="0 0 20 20">
  <path fill="url(#harmony_svg__a)" d="M15.143 1c-2.124 0-3.857 1.738-3.913 3.869v4.317c-.392 0-.783.056-1.23.056s-.839 0-1.23.056v-4.43c0-2.13-1.789-3.868-3.969-3.812C2.733 1.056 1.056 2.794 1 4.87v10.317c.056 2.13 1.789 3.869 3.969 3.813 2.124-.056 3.801-1.738 3.801-3.813v-4.318c.391 0 .783-.056 1.23-.056s.838 0 1.23-.056v4.374c.056 2.13 1.789 3.869 3.969 3.813C17.323 18.887 19 17.204 19 15.13V4.869C19 2.739 17.267 1 15.143 1M4.913 2.57a2.27 2.27 0 0 1 2.292 2.299V9.41a13.8 13.8 0 0 0-3.298.953c-.447.224-.895.448-1.286.785v-6.28c0-1.234 1.006-2.299 2.292-2.299m2.292 12.616a2.27 2.27 0 0 1-2.292 2.299 2.27 2.27 0 0 1-2.292-2.3v-1.008c0-.897.727-1.795 1.957-2.3.838-.392 1.733-.616 2.683-.784zm7.938 2.299a2.27 2.27 0 0 1-2.292-2.3v-4.54a13.8 13.8 0 0 0 3.298-.954c.447-.224.895-.449 1.286-.785v6.28a2.306 2.306 0 0 1-2.292 2.299m.335-9.252c-.838.393-1.733.617-2.683.785v-4.15a2.27 2.27 0 0 1 2.292-2.298 2.27 2.27 0 0 1 2.292 2.299v1.01c.056.952-.67 1.793-1.9 2.354"/>
  <defs>
    <linearGradient id="harmony_svg__a" x1="10" x2="-2.448" y1="1" y2="13.41" gradientUnits="userSpaceOnUse">
      <stop stop-color="#00e8a2"/>
      <stop offset="1" stop-color="#00ade8"/>
    </linearGradient>
  </defs>
</svg>
