<svg xmlns="http://www.w3.org/2000/svg" fill="none" viewBox="0 0 55 55">
  <rect width="53.9" height="53.9" x=".55" y=".55" fill="#fff" rx="26.95"/>
  <mask id="harvest-finance_svg__a" width="33" height="29" x="11" y="13" maskUnits="userSpaceOnUse" style="mask-type:luminance">
    <path fill="#fff" d="M44 13.2H11v28.6h33z"/>
  </mask>
  <g mask="url(#harvest-finance_svg__a)">
    <path fill="#5F5F5F" d="M41.337 31.764c.109.086.18.16.287.248.064.053.065.053.128-.005l.132-.123a.415.415 0 0 1 .598.022q.102.106.19.225a.47.47 0 0 1-.033.62q-.07.073-.146.14c-.042.037-.044.074-.014.12q.093.145.178.293.11.188.2.387c.059.125.059.124.18.084q.09-.032.18-.054a.416.416 0 0 1 .471.256q.077.18.114.374a.46.46 0 0 1-.24.479c-.066.034-.139.05-.208.075-.083.032-.09.038-.077.124.044.27.075.543.077.818.001.06.023.094.082.1.051.004.102.014.153.02a.434.434 0 0 1 .4.338c.006.018.02.396.002.498-.04.227-.207.388-.427.397a.6.6 0 0 1-.142-.01q-.132-.022-.165.11a6 6 0 0 1-.196.638.13.13 0 0 0 .039.155 1 1 0 0 1 .136.168c.036.083-.118-.046-.154-.068-.081-.05-1.081-.63-1.454-.84.027-.206.123-.472.162-.676.197-1.041-.007-1.991-.578-2.858a3.34 3.34 0 0 0-1.925-1.412 3.2 3.2 0 0 0-2.085.103c-.565.217-1.185.574-1.525 1.136-.039.046-.057.04-.119.011-.212-.111-1.046-.683-1.385-.89-.15-.16-.25-.42-.137-.611.08-.137.189-.248.305-.348.163-.14.4-.136.573-.004.215.163.214.163.423-.013.109-.091.225-.173.34-.256.106-.078.114-.11.064-.232-.136-.332-.049-.585.258-.75a1.5 1.5 0 0 1 .254-.113c.234-.075.45.013.577.233.133.23.132.229.382.168.132-.032.266-.055.4-.08.133-.026.154-.048.161-.187q.005-.105.03-.206c.035-.134.1-.252.231-.305.252-.101.507-.12.754.012.146.079.214.214.216.388.003.262.005.264.248.306.16.027.316.068.472.107.12.03.15.018.197-.103.117-.306.41-.462.754-.284.097.05.2.087.285.169a.53.53 0 0 1 .114.584l-.032.074c-.047.123-.053.194-.053.194s.242.169.348.253"/>
    <path fill="#414141" d="M41.574 37.253c.1.101 1.437.872 1.552.944.035.005.061.029.092.042a1 1 0 0 1 .067.07c.106.157.104.322.043.494q-.06.139-.14.262a.416.416 0 0 1-.563.154 2 2 0 0 1-.181-.109c-.043-.028-.073-.02-.103.021q-.245.343-.544.636c-.04.04-.044.074-.01.12q.057.076.109.159a.467.467 0 0 1-.097.638q-.104.086-.214.163c-.198.135-.43.097-.581-.095a2 2 0 0 1-.118-.168c-.032-.05-.064-.062-.118-.03a5 5 0 0 1-.71.338c-.09.035-.088.036-.071.134l.017.103c.057.287-.008.442-.246.59-.062.035-.132.03-.198.048a1.2 1.2 0 0 1-.349.02l-.114-.063c-.113-.099-.163-.23-.192-.378-.04-.203-.016-.17-.193-.161q-.352.017-.703-.004c-.091-.005-.091-.005-.112.084q-.017.061-.027.124c-.038.265-.24.464-.564.4a2 2 0 0 1-.235-.062.456.456 0 0 1-.304-.531l.036-.182c.015-.082.014-.087-.065-.118a5 5 0 0 1-.702-.33c-.089-.048-.088-.048-.15.039q-.047.07-.098.139c-.15.199-.388.24-.589.102a3 3 0 0 1-.223-.17.47.47 0 0 1-.096-.612q.056-.092.12-.18c.03-.04.032-.073-.006-.11a5 5 0 0 1-.55-.645c-.032-.044-.063-.044-.104-.017q-.075.049-.152.093c-.232.132-.473.067-.608-.172-.049-.085-.108-.163-.142-.26-.083-.237-.013-.456.194-.589q.068-.041.132-.082c.076-.049.079-.05.045-.137a5 5 0 0 1-.241-.793c-.014-.06-.044-.084-.103-.07a1 1 0 0 1-.141.02c-.28.03-.488-.146-.517-.44q-.013-.122-.022-.242a.47.47 0 0 1 .1-.323.43.43 0 0 1 .282-.163c.062-.008.124-.013.185-.023.08-.014.083-.015.085-.104a5 5 0 0 1 .041-.577c.01-.084.037-.166.031-.252q-.008-.087-.074-.114c-.031-.01-.038-.013-.084-.026a.5.5 0 0 1-.239-.134"/>
    <path fill="#414141" d="M33.513 35.05c.01-.059-.013-.147-.071-.164-.05-.015-.128-.046-.178-.062a.49.49 0 0 1-.339-.442c-.025-.093.053-.393.088-.49.08-.215.272-.34.49-.306a.6.6 0 0 1 .138.038q.125.05.182-.075c.09-.203.224-.404.31-.608.084-.197.024-.18.053-.174.072.065 1.113.598 1.442.877-.214.244-.69 1.347-.709 1.716"/>
    <path fill="#414141" d="M35.64 33.627c.665-.758 1.14-1.083 1.797-1.279a3.37 3.37 0 0 1 3.11.64c.49.399.845.905 1.088 1.502.148.366.227.747.263 1.143.053.567-.062 1.2-.247 1.728-.037.035-.717-.455-.79-.55-.017-.052.004-.1.017-.148.066-.257.11-.52.102-.788-.037-1.288-.87-2.352-2.023-2.611-.85-.192-1.753.002-2.578.886-.021.012-.028-.015-.168-.117-.235-.15-.351-.245-.512-.348-.092-.056-.087-.026-.06-.058"/>
    <path fill="#5F5F5F" d="M41.665 37.324a1 1 0 0 0-.06.115 3.45 3.45 0 0 1-.923 1.296 3.3 3.3 0 0 1-1.8.855c-.167.023-.335.048-.503.042a3.6 3.6 0 0 1-1.41-.317 3.6 3.6 0 0 1-1.703-1.676 4 4 0 0 1-.377-1.336 3.9 3.9 0 0 1 .071-1.197c.092-.45.263-.867.502-1.252a2 2 0 0 1 .165-.21c.174.095.649.425.725.497.048.066-.04.152-.068.195a2.8 2.8 0 0 0-.343.722c-.27.907-.146 1.752.396 2.511a2.47 2.47 0 0 0 1.82 1.06c1.072.114 2.172-.527 2.625-1.658.025-.063.019-.162.12-.166.066.079.686.474.763.519"/>
    <path fill="#EDAE50" d="M40.903 36.805a3.3 3.3 0 0 1-.315.66c-.424.65-1.002 1.053-1.738 1.192-.746.14-1.43-.035-2.037-.507a2.7 2.7 0 0 1-1.006-1.662 2.88 2.88 0 0 1 .463-2.229l.05-.075c.018-.022.244-.285.354-.383a2.54 2.54 0 0 1 1.685-.664c1.195-.024 2.274.829 2.585 2.068q.188.745-.014 1.488l-.027.111"/>
    <path fill="#414141" d="M39.1 35.92a.725.725 0 0 1-.7.748.74.74 0 0 1-.724-.755c.003-.41.307-.75.73-.75.35-.001.714.33.694.757"/>
    <path fill="#FCD38C" d="M39.14 34.51a.23.23 0 0 1 .206.086c.05.056.104.109.153.167.113.133.044.377-.103.425-.063.02-.122.022-.179-.017a1.5 1.5 0 0 1-.314-.305c-.097-.123-.048-.28.096-.334a.34.34 0 0 1 .142-.022"/>
    <path fill="#414141" d="M19.946 41.745a.67.67 0 0 1-.351-.516c-.012-.08-.033-.158-.049-.237-.01-.056-.037-.075-.092-.07q-.527.047-1.055.012-.071-.004-.143-.012-.066-.008-.077.06c-.017.083-.04.165-.053.249a.66.66 0 0 1-.403.536.9.9 0 0 1-.439-.002c-.135-.026-.274-.038-.397-.113-.047-.037-.098-.069-.139-.114a.65.65 0 0 1-.169-.573l.05-.25c.026-.142.026-.143-.1-.19a7 7 0 0 1-.837-.38q-.099-.051-.193-.11c-.048-.03-.08-.024-.11.024-.048.073-.1.142-.148.216-.2.314-.594.406-.904.154-.081-.066-.167-.125-.248-.191-.288-.231-.34-.6-.13-.913q.081-.123.167-.243.043-.055-.007-.1-.025-.023-.048-.048a7 7 0 0 1-.741-.87c-.064-.087-.065-.087-.158-.03l-.19.116c-.335.202-.667.113-.873-.232-.029-.044-.04-.06-.069-.113-.036-.075-.08-.144-.114-.221-.14-.33-.042-.666.253-.851l.209-.129c.093-.058.094-.059.054-.16a8 8 0 0 1-.317-.998c-.014-.056-.03-.112-.04-.168s-.042-.076-.095-.069c-.098.013-.196.029-.295.035a.59.59 0 0 1-.581-.32.7.7 0 0 1-.085-.309c-.007-.081-.022-.154-.027-.241-.022-.33.157-.743.55-.773.084-.006.168-.02.252-.029.097-.011.1-.012.102-.11a8 8 0 0 1 .119-1.196c.018-.11.018-.111-.085-.147l-.23-.079c-.33-.117-.5-.448-.407-.8q.053-.195.12-.384c.116-.326.433-.49.75-.392.095.03.19.059.282.096.06.023.085.004.11-.05q.09-.194.184-.383l.062-.12c.066-.127.136-.253.22-.37.076-.069 12.807 7.819 12.772 7.91-.025.046-.044.09-.068.136-.045.084-.087.17-.135.252-.182.31-.512.405-.821.236-.081-.045-.159-.096-.238-.144-.083-.05-.084-.05-.14.026a9 9 0 0 1-.395.498q-.186.215-.385.414c-.06.061-.06.063-.014.133l.161.235a.66.66 0 0 1-.133.904 8 8 0 0 1-.276.211c-.292.214-.64.155-.857-.144l-.162-.233c-.05-.07-.052-.071-.125-.03q-.45.26-.929.448l-.134.052c-.08.033-.082.034-.066.128.014.083.026.168.049.25.085.303-.093.669-.487.798-.17.056-.54.096-.702.028"/>
    <path fill="#666059" d="M25.778 37.57c-.268-.164-2.647-1.709-2.814-1.806-.09-.048-.061-.054-.006-.162a5 5 0 0 0 .388-1.384c.046-.35.043-.7.016-1.051a4.9 4.9 0 0 0-.67-2.123 5 5 0 0 0-.856-1.068A4.2 4.2 0 0 0 21 29.36a4.3 4.3 0 0 0-1.45-.52 4.2 4.2 0 0 0-.965-.056 4.4 4.4 0 0 0-1.94.587 4.8 4.8 0 0 0-1.26 1.087c-.091.112-.221.333-.31.445-.052.065-.906-.519-2.068-1.243.043-.08.084-.145.13-.214.029-.043.026-.076-.01-.11l-.213-.202a.65.65 0 0 1-.135-.79c.032-.064.09-.217.177-.327q.064-.08.135-.153c.224-.244.66-.248.894-.023.283.272.246.209.485.016a10 10 0 0 1 .625-.472c.116-.08.124-.118.065-.25-.065-.149-.124-.297-.111-.466.015-.21.096-.388.258-.504.231-.166.477-.302.772-.293.243.007.414.134.538.344.044.075.078.157.114.237q.049.112.161.08.476-.129.959-.208c.117-.02.14-.056.145-.179a1 1 0 0 0 0-.128c-.025-.39.261-.716.6-.739.186-.012.373-.027.558.012.273.058.54.32.514.682-.004.05-.001.1 0 .15.002.149.029.185.168.206q.452.068.894.192c.155.045.18.029.244-.124.05-.12.102-.24.191-.337.182-.194.407-.225.642-.17.187.043.361.132.522.242.26.18.356.502.25.815q-.034.098-.077.192c-.055.124-.046.17.064.242q.345.228.663.497c.232.197.19.227.447-.017.224-.214.57-.24.775-.093.207.148.388.335.507.569.107.208.093.59-.12.783-.063.058-.12.124-.179.188q-.078.083-.017.178.285.442.507.921c.037.078.1.098.177.073q.136-.047.277-.073a.63.63 0 0 1 .656.301c.125.225.202.472.21.736.008.29-.129.49-.364.624q-.117.065-.245.102-.136.039-.11.181c.063.346.084.697.105 1.047.006.093.048.144.137.147.066.002.131.015.196.024.337.047.567.323.569.681q0 .105-.01.209a2.5 2.5 0 0 1-.077.367c-.084.297-.369.46-.662.44-.095-.006-.19-.022-.285-.032-.087-.01-.092-.008-.113.083a8 8 0 0 1-.367 1.177c-.022.053-.013.086.034.114q.14.081.276.17a.65.65 0 0 1 .25.74.4.4 0 0 1-.025.051"/>
    <path fill="#EDAE50" d="M16.07 31.47c.11-.139.215-.283.336-.414.569-.616 1.256-.977 2.068-1.073a3.15 3.15 0 0 1 2.027.42c.969.573 1.546 1.448 1.729 2.601.105.67.025 1.324-.227 1.952q-.02.053-.037.11c.028.06.001.112-.023.164a3.1 3.1 0 0 1-.47.725c-.536.63-1.193 1.048-1.99 1.192-1.056.192-2.01-.066-2.84-.786-.672-.584-1.078-1.34-1.208-2.247a3.8 3.8 0 0 1 .492-2.512.25.25 0 0 1 .143-.131"/>
    <path fill="#45423D" d="M16.685 33.55c-.018-1.3 1.038-2.292 2.159-2.298 1.099-.006 2.195.916 2.197 2.31.002 1.294-.995 2.278-2.158 2.29-1.268.014-2.221-1.088-2.198-2.301"/>
    <path fill="#FCD38C" d="M21.004 31.429c.018.192-.21.343-.37.232a1.5 1.5 0 0 1-.295-.253c-.123-.144-.095-.294.068-.388.12-.07.233-.075.345.025.078.07.154.141.21.233a.26.26 0 0 1 .041.151"/>
    <path fill="#EDAE50" d="M17.123 33.566c-.027-.94.696-1.856 1.745-1.852.98.004 1.745.832 1.736 1.868-.01 1.021-.814 1.822-1.769 1.81-.99-.014-1.739-.892-1.712-1.826"/>
    <path fill="#414141" d="M18.858 34.303c-.39 0-.716-.342-.713-.754.002-.407.301-.746.717-.751.38-.004.712.327.71.757-.002.42-.315.748-.714.748"/>
    <path fill="#FCD38C" d="M19.682 32.307c.042 0 .082.005.117.029a.5.5 0 0 1 .227.447c-.003.1-.139.204-.23.182a.56.56 0 0 1-.372-.266q-.114-.189.053-.322a.34.34 0 0 1 .205-.07"/>
    <path fill="#666059" d="M16.07 31.47a3.8 3.8 0 0 0-.596 1.676c-.053.476-.016.958.11 1.417.127.46.34.888.627 1.26q.656.844 1.644 1.169c.382.125.775.183 1.173.155q1.563-.107 2.54-1.404.203-.274.35-.587.022-.046.049-.09c.09.044.794.523.915.612.047.035.026.081.003.124a4.74 4.74 0 0 1-1.632 1.826c-.46.298-.966.51-1.495.625-.41.091-.824.105-1.238.077a4.2 4.2 0 0 1-1.578-.427 4.4 4.4 0 0 1-.958-.63 4.7 4.7 0 0 1-1.31-1.832 5.1 5.1 0 0 1-.043-3.649 5 5 0 0 1 .384-.806c.08-.118.094-.122.212-.051.197.118.576.366.77.49q.038.021.074.045"/>
    <path fill="#45423D" d="M22.193 34.317c.1-.467.109-.95.027-1.421a3.7 3.7 0 0 0-.502-1.32c-.417-.567-.94-1.044-1.523-1.339a3 3 0 0 0-1.147-.27c-1.043-.04-1.937.324-2.665 1.116q-.172.19-.322.4c-.086-.055-.875-.479-.986-.58-.044-.04.3-.45.477-.642.386-.42.823-.766 1.325-1.02a4.2 4.2 0 0 1 1.548-.462 4.4 4.4 0 0 1 1.247.035c.543.094 1.045.317 1.52.615q.49.305.893.729c.524.558.91 1.207 1.127 1.962.139.486.206.99.2 1.498a4.9 4.9 0 0 1-.45 2.01c-.051.11-.004.107-.155 0-.184-.14-.645-.43-.84-.562-.012-.01.147-.377.226-.75"/>
    <path fill="#EDAE50" d="M17.35 14.616c-.08-.27-.142-.543-.21-.816-.017-.071.003-.09.075-.11 4.017-1.028 8.9-.242 11.41.559.397.15.784.324 1.142.563.155.104.302.219.418.372q.048.063.087.133c.06.114.074.229.017.353q-.198.434-.431.847-.152.27-.305.537-.072.13-.161.248c-.052.051-.11.026-.166.013-.246-.058-.494-.103-.738-.166-.018-.005-.037.003-.055.003-.256-.087-.526-.097-.785-.162-.034-.008-.064.013-.096.007-.427-.087-.86-.131-1.29-.193-.15-.022-.306-.01-.453-.067-.056-.063-.066-.144-.085-.223-.108-.463-.248-.913-.506-1.312a2 2 0 0 0-.127-.175.75.75 0 0 0-.511-.3 35 35 0 0 0-1.704-.198c-.947-.085-1.895-.1-2.844-.085-.469.006-.936.04-1.404.082a24 24 0 0 0-1.158.13c-.048.004-.089.001-.12-.04"/>
    <path fill="#45423D" d="M30.668 22.707c-.267-.003-.534-.008-.8-.004-.086 0-.104-.051-.123-.116-.072-.023-.07-.093-.081-.15-.087-.447-.168-.895-.262-1.34-.23-1.094-.49-2.18-.805-3.251-.054-.185-.113-.368-.166-.553-.016-.056-.047-.117.005-.174.02-.023.045-.023.07-.018.298.058.594.116.886.2.191.567.352 1.145.5 1.726a48 48 0 0 1 .776 3.68M17.35 14.616c.351-.063.705-.1 1.06-.134.255-.024.511-.04.767-.058.71-.052 1.422-.05 2.133-.038q.775.016 1.55.081.515.043 1.028.103c.287.035.572.085.86.125.093.012.163.06.23.124.228.22.39.49.517.785.151.35.255.715.324 1.092-.016.053-.057.054-.098.051a16 16 0 0 1-.548-.043q-.241-.02-.482-.032c-.256-.015-.512-.045-.77-.03-.098.006-.196-.02-.295-.022-.134-.002-.175.029-.222.16-.274.77-.5 1.558-.697 2.354a43 43 0 0 0-.736 3.73c-.053.335-.096.672-.143 1.008-.01.069-.016.139-.058.198-.032.034-.073.036-.112.025-.184-.05-.367-.106-.551-.157a.1.1 0 0 1-.039-.021.1.1 0 0 1-.025-.037c-.03-.084-.011-.17 0-.252.188-1.357.417-2.705.719-4.038a27 27 0 0 1 .767-2.79c.047-.138.02-.178-.117-.18-.546-.006-1.09.014-1.636.041-.274.014-.548.026-.821.05H19.9c-.285.003-.292.01-.382.29-.524 1.626-.89 3.293-1.173 4.983-.084.505-.159 1.012-.234 1.519-.007.046-.012.092-.04.13-.026.046-.07.052-.113.059-.228.035-.456.059-.683.101-.051.01-.114.021-.124-.065l.114-.801q.148-1.043.335-2.078c.164-.903.351-1.8.583-2.686.11-.42.224-.84.362-1.251.048-.144.048-.144-.056-.244q-.379-.362-.759-.722a.3.3 0 0 1-.093-.165q-.131-.525-.265-1.051a.3.3 0 0 1-.021-.114"/>
    <path fill="#A9A9A9" d="M17.35 14.615c.014.037.03.073.021.114-.021-.035-.05-.069-.02-.114"/>
    <path fill="#B9E1E1" d="M23.181 24.7a8.5 8.5 0 0 0-1.317-.59c-.041-.014-.084-.026-.116-.061.047-.34.09-.68.14-1.02q.177-1.179.412-2.346c.24-1.18.525-2.345.901-3.484q.09-.274.185-.546c.032-.092.033-.092.126-.09.52.016 1.041.037 1.561.072.249.016.497.04.745.06q.615.065 1.228.157c.173.026.347.05.519.083.099.042.16.122.22.213.228.35.409.726.56 1.114.157.407.301.82.399 1.25.038.169.093.334.132.502.129.554.272 1.104.376 1.665.053.287.11.575.18.859.02.075.05.16-.042.215-.01.012-.018.026-.03.033-.164.091-.274.24-.382.39q-.269.38-.535.76c-.05.023-.091.004-.132-.027a32 32 0 0 0-.65-.477c-.112-.08-.12-.12-.046-.238.106-.167.22-.328.33-.493.041-.063.086-.125.12-.193.062-.124.04-.248-.055-.322s-.214-.06-.305.048c-.115.136-.205.291-.303.441l-.937 1.418c-.029.044-.059.088-.079.139-.046.115-.014.233.08.297.095.066.205.053.286-.045.114-.137.204-.293.303-.441q.093-.143.19-.284c.046-.065.096-.074.16-.03.238.16.465.338.697.508.039.028.077.062.076.12l-.218.373q-.057.092-.112.186a.8.8 0 0 0-.026.794c.35.718.714 1.427 1.124 2.11l.158.25c.144.238.36.333.615.341.245.008.49-.02.734-.043a5.7 5.7 0 0 1-.844 2.96c-.077.127-.16.181-.309.177-.395-.013-.79-.002-1.187-.001-.08-.012-.077-.086-.088-.142a9 9 0 0 0-.173-.682 10 10 0 0 0-1.079-2.462c-.15-.247-.318-.48-.475-.722a8 8 0 0 0-.467-.578 10 10 0 0 0-.921-.94 10.5 10.5 0 0 0-1.526-1.107c-.075-.047-.164-.076-.203-.17"/>
    <path fill="#DCF9FB" d="M29.367 22.78a.4.4 0 0 0 .012-.231c-.14-.572-1.122-4.556-1.677-5.433-.068-.106-.084-.134-.137-.18.261.02.517.079.776.117a.12.12 0 0 1 .095.067q.52 1.665.893 3.373c.153.695.309 1.44.433 2.14l.002.005c.025.05.031.036-.114.055-.09.012-.211.054-.284.087"/>
    <path fill="#B9E1E1" d="M21.068 23.866c-.226-.047-.452-.098-.678-.138a8 8 0 0 0-.816-.1 12 12 0 0 0-.775-.024c-.146 0-.293.015-.44.004-.06-.049-.05-.115-.04-.18a42 42 0 0 1 .457-2.82c.132-.658.281-1.311.464-1.955.175-.615.379-1.22.695-1.773.047-.083.055-.152.004-.23.035-.015.072-.015.109-.017.83-.04 1.662-.083 2.494-.075.036 0 .073-.009.108.01.014.042-.01.076-.021.11a28 28 0 0 0-.883 3.236 46 46 0 0 0-.516 2.806c-.058.382-.108.764-.162 1.146"/>
    <path fill="#DCF9FB" d="M20.012 16.635c.148-.018.134-.01.045.151-.24.434-.444.88-.598 1.35-.09.272-.177.547-.245.829-.073.306-.16.61-.228.918-.07.312-.128.627-.191.94-.066.32-.133.641-.182.965q-.116.754-.224 1.51c-.014.102-.033.205-.03.31-.037.018-.291.045-.31 0 .016-.247.06-.49.096-.734q.134-.904.303-1.801c.26-1.383.582-2.75 1.013-4.086.027-.084.06-.166.084-.251.014-.05.042-.068.087-.07.103-.005.361-.031.38-.03"/>
    <path fill="#414141" d="M33.752 33.65c-.256-.022-.542-.234-.746.315-.203.544.096.753.05.735a.3.3 0 0 0-.066-.002c-.168.002-.342-.027-.51-.028-.058-.028-.044-.08-.035-.129q.128-.644.386-1.241c.227-.522.505-1.01.854-1.453a6.3 6.3 0 0 1 1.713-1.522 5.8 5.8 0 0 1 2.207-.779 5.3 5.3 0 0 1 1.14-.045.35.35 0 0 0 .335-.177.24.24 0 0 1 .122-.11c.062-.002.12.027.18.04.132.032.145.027.203-.1a5 5 0 0 1 .312-.592.2.2 0 0 0 .072-.08 2.2 2.2 0 0 1 .593-.633.04.04 0 0 1 .022-.004c.085 0 .107.069.128.136.09.294.191.583.317.863.208.464.464.894.793 1.272.05.057.112.108.083.2l-.515.95q-.038.071-.08.139-.071.12-.16.226a.3.3 0 0 0-.05-.031c-.01-.005-.028-.023-.038-.029-.18-.102-.154-.11-.064-.301a.55.55 0 0 0 .05-.38.4.4 0 0 0-.074-.155.4.4 0 0 0-.125-.11 1.3 1.3 0 0 0-.366-.157.42.42 0 0 0-.465.225c-.03.058-.05.12-.077.179-.039.086-.061.098-.147.073a4 4 0 0 0-.687-.151c-.023-.003-.043-.012-.065-.014q-.091-.013-.088-.11c0-.061-.004-.123 0-.185a.397.397 0 0 0-.332-.435 1.04 1.04 0 0 0-.448.006c-.188.045-.3.166-.326.372q-.016.114-.018.23c-.001.1-.008.109-.104.128-.119.025-.238.044-.357.067a4 4 0 0 0-.364.092c-.078.024-.096.015-.128-.062-.03-.07-.058-.142-.097-.207a.41.41 0 0 0-.474-.204 1.3 1.3 0 0 0-.38.177.46.46 0 0 0-.161.542c.021.061.053.119.078.179.032.075.029.094-.034.134a7 7 0 0 0-.633.48c-.06.05-.076.05-.132-.004q-.075-.078-.158-.143a.406.406 0 0 0-.52.01 1.4 1.4 0 0 0-.275.314.445.445 0 0 0 .066.557 1 1 0 0 0 .168.138 5 5 0 0 0-.54.769"/>
    <path fill="#45423D" d="m31.702 34.649-1.849-.002h-2.938c-.226 0-.23-.008-.198-.241.022-.17.026-.34-.065-.495a.58.58 0 0 0-.42-.304 2 2 0 0 0-.274-.03c-.11-.002-.13-.031-.134-.148a8 8 0 0 0-.112-1.127c-.027-.148-.02-.16.12-.2a1.3 1.3 0 0 0 .326-.14c.252-.159.326-.431.265-.712-.027-.128-.07-.252-.11-.376-.105-.322-.385-.49-.703-.427-.108.022-.212.058-.317.093-.086.029-.097.026-.137-.062a7 7 0 0 0-.588-1.06c-.042-.062-.04-.081.025-.132.088-.07.16-.16.24-.237.197-.186.194-.576.076-.763a2 2 0 0 0-.404-.456.57.57 0 0 0-.743.03c-.073.07-.157.128-.222.208-.039.047-.075.048-.12.007a10 10 0 0 0-.333-.285 7 7 0 0 0-.552-.4c-.164-.11-.157-.086-.073-.268a2 2 0 0 0 .091-.223c.095-.297.01-.623-.295-.785-.13-.07-.262-.142-.404-.182-.198-.057-.392-.046-.566.09a.6.6 0 0 0-.165.213c-.047.1-.088.204-.133.306-.034.076-.041.081-.118.055a6 6 0 0 0-.9-.215l-.218-.034c-.105-.016-.113-.024-.115-.14v-.29c.003-.269-.132-.441-.35-.553a.5.5 0 0 0-.201-.056c-.165-.006-.33-.017-.494.011-.313.056-.508.286-.518.62q-.001.128 0 .255c-.002.13-.007.134-.126.154a8 8 0 0 0-1.086.241c-.085.027-.095.021-.134-.067l-.11-.253c-.147-.334-.486-.442-.8-.322a3 3 0 0 0-.342.157.64.64 0 0 0-.341.47.66.66 0 0 0 .029.342c.034.099.08.191.122.285.036.08.032.098-.037.143a8 8 0 0 0-.832.626l-.099.091c-.057.05-.074.05-.132-.002-.064-.058-.13-.114-.189-.176a.604.604 0 0 0-.865.016q-.095.112-.192.223c-.08.087-.085.084-.167.004-.07-.068-.234-.22-.245-.229-.11-.128-.105-.13.006-.26a8.46 8.46 0 0 1 3.47-2.478 7.8 7.8 0 0 1 3.383-.5q.887.057 1.744.305.702.202 1.357.536.448.223.865.5.586.392 1.104.878.495.467.926 1.002.058.076.11.159c.268.32.484.679.685 1.046.406.736.709 1.53.9 2.356.067.289.112.582.161.875.044.255.221.342.44.219.273-.155.447-.524.407-.85-.009-.07-.055-.15.017-.217.057-.034.12-.031.182-.031.33-.001.66-.005.99.001.137.003.228-.05.3-.17.274-.445.482-.931.618-1.442.107-.398.184-.802.21-1.217a1 1 0 0 0-.002-.127c-.006-.05.006-.092.05-.119l.236-.011c.274-.017.274-.017.274.273l.001.66c.002.202.053.264.24.314.447.12.9.159 1.362.134.213-.012.422-.052.634-.07a.5.5 0 0 0 .127-.035c.129-.052.166-.104.168-.251.004-.274 0-.549.003-.823 0-.06-.011-.126.04-.174.082-.068.162-.016.236.017.184.08.322.225.448.381.236.29.41.62.575.955q.022.041.018.09c-.006.074-.058.112-.11.148a6.8 6.8 0 0 0-1.18 1.034 7.2 7.2 0 0 0-1.732 3.49c-.012.06 0 .144-.09.154"/>
    <path fill="#A19D98" d="M31.702 34.649q.04-.198.083-.395c.24-1.075.7-2.034 1.364-2.886a6.8 6.8 0 0 1 1.55-1.461c.034-.024.07-.042.092-.082.026-.046 2.025-1.401 4.26-.966.133.102.15.298.077.475-.07.173-.202.228-.413.223-.195-.006-.389-.017-.583-.005q-.489.025-.969.13a5.8 5.8 0 0 0-2.387 1.133 6.3 6.3 0 0 0-1.9 2.496 6.3 6.3 0 0 0-.394 1.276c-.005.026-.077.45-.099.638-.02.174-.099.295-.259.353-.234.084-.484-.096-.489-.357-.003-.131.024-.26.043-.39.007-.051.015-.174.024-.182"/>
    <path fill="#FCBE4F" d="M29.794 33.745h-1.198c-.188-.002-.323-.098-.4-.275a.48.48 0 0 1 .058-.501.44.44 0 0 1 .358-.173c.095-.003.19 0 .286 0h2.024a.5.5 0 0 1 .349.115c.14.127.196.332.138.514a.46.46 0 0 1-.158.231.43.43 0 0 1-.257.09q-.6.001-1.2-.001"/>
    <path fill="#EDAE50" d="M17.151 23.727c.025.02.054.021.083.015a8 8 0 0 1 .756-.109l.074-.008c.888-.07 2.073-.018 3.005.24.205.06.412.105.618.165.02 0 1.027.389 1.418.61.035.026.052.04.077.06a.6.6 0 0 1-.145.463 1.3 1.3 0 0 1-.557.392c-.279-.128-.556-.258-.844-.363a8.2 8.2 0 0 0-1.568-.402 8 8 0 0 0-1.403-.089q-.833.016-1.646.208a8.3 8.3 0 0 0-4.354 2.665l-.112.128c-.077.089-.11.147-.168.217q-.14.179-.278.359c-.215.28-.592.295-.827.001-.16-.199-.132-.498-.003-.687q.212-.304.452-.583c.164-.193.324-.39.503-.567.251-.248.502-.499.775-.72a9.5 9.5 0 0 1 3.086-1.696q.447-.144.907-.238c.054-.01.11-.015.151-.061m9.178 3.735c.273.341.495.718.71 1.1.253.45.462.921.64 1.41.164.447.305.901.399 1.371l.036.158c.025.144.053.287.023.435-.061.305-.206.544-.48.676-.231.112-.431-.005-.47-.27a9.6 9.6 0 0 0-.507-2.03 9 9 0 0 0-1.161-2.158q-.033-.046-.064-.093c.053-.184.162-.333.267-.486.058-.087.15-.072.226-.098.123-.04.252-.074.38-.015"/>
    <path fill="#FCD38C" d="M26.266 27.447c-.603-.052-.792.574-.811.614a10 10 0 0 0-.834-.95 8.5 8.5 0 0 0-2.045-1.503l-.097-.053c.028-.035.276-.086.483-.383.174-.251.216-.421.22-.471.196.078.369.204.548.317q.464.29.89.64.385.316.741.67c.162.163.314.335.468.505.178.198.358.397.5.63"/>
    <path fill="#EDAE50" d="M41.895 30.313c-.065-.114-.163-.197-.242-.299a5.9 5.9 0 0 1-.946-1.83l-.072-.232c-.01-.033-.018-.07-.062-.069-.543-.49-1.198-.762-1.84-1.061-.968-.451-1.98-.761-3.004-1.035a30 30 0 0 0-2.432-.52c-.075-.013-.154-.02-.205-.093-.014-.053-.014-.107-.014-.16q-.001-.96.001-1.919c0-.07-.02-.15.051-.2.16.04.327.04.49.065.309.045.619.078.927.127.399.063.799.12 1.194.203.273.058.548.107.82.168.32.072.64.144.955.229.526.14 1.051.284 1.564.473.204.076.406.157.613.225.21.068.375.204.532.357.341.334.682.668 1.012 1.015.22.232.441.463.651.705.091.106.192.202.287.304.163.177.316.365.483.539a.78.78 0 0 1 .224.515c.014.282.006.562-.062.84a3.65 3.65 0 0 1-.67 1.367 2 2 0 0 1-.255.286"/>
    <path fill="#45423E" d="m28.178 24.354-.758-.554-.036-.027c-.046-.046-.073-.025-.102.024q-.066.106-.138.21c-.11.163-.217.33-.33.49-.083.121-.19.158-.306.12a.3.3 0 0 1-.168-.43c.027-.054.063-.104.097-.154l1.158-1.747a1 1 0 0 1 .08-.11.267.267 0 0 1 .369-.047.3.3 0 0 1 .111.173.3.3 0 0 1-.027.208c-.034.068-.078.13-.12.194l-.36.54c-.049.071-.05.073.019.123q.387.286.776.568z"/>
    <path fill="#EDAE50" d="M31.305 22.75c.035.027.033.067.033.105v2.032a.2.2 0 0 1-.011.068c-.046.058-.11.056-.172.056-.227.001-.453-.011-.68-.016-.633-.015-1.267-.006-1.9-.005a.3.3 0 0 0-.13.024c-.024.011-.046.028-.042.06s.029.042.054.049a.2.2 0 0 0 .055.006c.31-.007.621.007.933-.014.299-.02.6-.013.9.006.259.016.519.023.778.033.066.002.132-.003.191.039.03.155.076.309.044.47q0 .023-.012.042c-.048.061-.123.062-.186.09-.12.052-.179.137-.175.276.017.633-.03 1.265-.022 1.897q0 .11.01.22c.017.158-.025.21-.176.226q-.06.005-.121.007-.105.002-.211-.005c-.206.034-.415.036-.622.051-.385.027-.667-.137-.868-.487-.278-.485-.559-.969-.813-1.468-.114-.224-.22-.453-.341-.674-.193-.355-.195-.703.03-1.043.1-.148.171-.315.289-.449.065-.162.17-.296.266-.438a13 13 0 0 1 .695-.983c.076-.096.181-.156.278-.225.128-.036.595-.046.713-.05.134-.005.269-.002.403 0 .064 0 .686.036.81.1m7.901 6.515c-.041-.024-.067-.058-.064-.111.008-.163-.092-.243-.214-.302-.162-.063-1.4-.186-2.632.265a6 6 0 0 0-1.243.576c-.073.045-.153.075-.22.13-.01.007-.028.002-.042.003-.097-.146-.161-.31-.248-.461a3.6 3.6 0 0 0-.46-.658.97.97 0 0 0-.51-.318c-.056.005-.064-.038-.071-.08a1 1 0 0 1-.007-.15c0-.352-.005-.703.002-1.054.007-.332-.03-.662-.025-.994a.26.26 0 0 0-.165-.261 1 1 0 0 1-.128-.067c-.031-.02-.065-.04-.052-.09l.005-.25c.036-.054.086-.046.139-.038q.913.145 1.815.358c.723.172 1.442.361 2.145.608a15 15 0 0 1 1.662.674c.257.124.518.239.752.407.088.064.159.148.226.236.16.209.119.452.104.69-.004.073-.038.142-.044.217a4.3 4.3 0 0 0-.351.7c-.02.05-.046.07-.102.05-.088-.032-.18-.054-.272-.08"/>
    <path fill="#FCD38C" d="M39.933 28.595a.3.3 0 0 1-.015-.192c.025-.135.016-.27.016-.405 0-.132-.07-.234-.145-.329a1.1 1.1 0 0 0-.344-.282 15 15 0 0 0-1.904-.842c-.47-.172-.946-.33-1.428-.46a29 29 0 0 0-1.843-.44c-.356-.072-.715-.125-1.071-.195l-.066-.008v-.254c.22.022.435.068.65.109q.422.08.843.17c.293.063.588.124.878.206.223.062.448.115.672.176q.819.225 1.618.517c.434.158.852.354 1.273.543q.602.27 1.163.627c.11.069.21.153.314.233.037.028.07.062.03.115-.14.13-.284.255-.408.404-.082.099-.155.205-.233.307m-8.629-3.639v.255c-.732-.064-2.1-.064-2.79-.023a1 1 0 0 1-.156-.017c-.039-.01-.098-.061-.097-.094.002-.06.035-.09.077-.112a.4.4 0 0 1 .184-.033c.66 0 1.32-.01 1.98.006z"/>
    <path fill="#FEFEFE" d="M42.621 28.043c.004.249-.044.479-.112.704-.12.4-.314.756-.563 1.08-.05.067-.053.067-.105.002a4.8 4.8 0 0 1-.6-.981 7 7 0 0 1-.318-.814c-.028-.086-.025-.102.057-.146.286-.154.585-.264.905-.312.145-.022.292-.022.438-.04l.044-.002c.138.003.16.022.212.155a.9.9 0 0 1 .042.354"/>
    <path fill="#414141" d="M33.117 22.951c0 .738.008 2.356.026 2.81-.041.054-.094.034-.142.02-.517-.159-1.036-.135-1.558-.035-.044.009-.087.02-.124-.018l-.002.004c-.025-.035 0-3.64-.004-3.87a.55.55 0 0 1 .062-.276c.057-.107.107-.218.16-.328a.04.04 0 0 1 .029-.014c.6.27 1.097.584 1.55 1.072-.007.176 0 .412.003.635"/>
    <path fill="#A19D98" d="M31.566 21.202h-.01l-.008-.002a.9.9 0 0 0 .046-.34c-.002-.347.003-.694 0-1.041a.5.5 0 0 1 .11-.328q.556-.734 1.204-1.379a6 6 0 0 1 .884-.74c.061.015.035.057.021.089-.196.455-.168.933-.106 1.407.027.209.082.424.247.577q.018.016.022.04a.07.07 0 0 1-.009.044c-.372.182-.665.465-.911.805-.037.05-.064.103-.055.17a25 25 0 0 0 .001 1.507l-.003.022c-.055.04-.09-.005-.125-.036-.147-.131-.29-.268-.448-.386a3.6 3.6 0 0 0-.543-.344.5.5 0 0 0-.317-.065"/>
    <path fill="#A19D98" d="M34.032 17.321c.074.04.112.104.131.188q.072.32.095.65c.025.373-.026.735-.115 1.094a.6.6 0 0 1-.086.21c-.047.008-.062-.027-.08-.062-.22-.395-.26-.828-.232-1.273.004-.06.013-.122.017-.183a.96.96 0 0 1 .27-.624m-.675 8.484c.115.053.17.13.175.275.023.725.017 1.45.019 2.175 0 .046.005.24.004.294-.002.3-.007.601-.003.902.002.106-.04.166-.127.204-.725.21-1.667.199-2.327-.023-.149-.047-.188-.106-.19-.268v-.636q.001-.134 0-.267c-.001-.088.022-1.463.022-1.506 0-.324.003-.648 0-.972-.002-.102.034-.163.125-.206 1.048-.349 1.599-.247 2.302.028"/>
    <path fill="#45423D" d="M31.126 27.715V26.07c.002-.108.011-.122.11-.16.368-.15 1.446-.29 2.022.11.09.05.105.102.109.223.015.274-.01 2.31-.01 3.093v.047c-.003.112-.01.117-.118.14a4.2 4.2 0 0 1-2.003-.046c-.099-.026-.104-.028-.104-.14v-1.623z"/>
    <path fill="#DCF9FB" d="M31.541 21.224c.013-.1.07-.11.181-.082q.2.062.38.178c.263.166.515.348.737.574.05.05.107.093.16.139a.17.17 0 0 0 .05.086c.07.066.078.143.064.24-.116-.018-.181-.091-.255-.177a3.5 3.5 0 0 0-.681-.59 3.5 3.5 0 0 0-.556-.292c-.058-.025-.087-.023-.08-.076m2.492-3.903c.039.022.064.033-.037.127-.127.12-.212.424-.203.922.008.33.012.624.264 1.093a.12.12 0 0 1-.09.066c-.427-.442-.385-1.802-.174-2.157.087-.096.138-.106.24-.051"/>
  </g>
  <rect width="53.9" height="53.9" x=".55" y=".55" stroke="#CED3E6" stroke-width="1.1" rx="26.95"/>
</svg>
