<svg xmlns="http://www.w3.org/2000/svg" fill="none" viewBox="0 0 20 20">
  <g clip-path="url(#harvest-finance_svg__a)">
    <mask id="harvest-finance_svg__b" width="20" height="20" x="0" y="0" maskUnits="userSpaceOnUse" style="mask-type:luminance">
      <path fill="#fff" d="M19.824 0H0v19.824h19.824z"/>
    </mask>
    <g mask="url(#harvest-finance_svg__b)">
      <path fill="#F1F1F1" d="M14.105 0H5.718A5.72 5.72 0 0 0 0 5.718v8.387a5.72 5.72 0 0 0 5.718 5.718h8.387a5.72 5.72 0 0 0 5.718-5.718V5.718A5.72 5.72 0 0 0 14.106 0"/>
      <mask id="harvest-finance_svg__c" width="14" height="12" x="3" y="4" maskUnits="userSpaceOnUse" style="mask-type:luminance">
        <path fill="#fff" d="M16.012 4.575h-12.2v10.674h12.2z"/>
      </mask>
      <g mask="url(#harvest-finance_svg__c)">
        <path fill="#5F5F5F" d="M15.028 11.503c.04.032.066.06.105.093.024.02.024.02.048-.002l.049-.046a.15.15 0 0 1 .22.008 1 1 0 0 1 .071.084.176.176 0 0 1-.012.231l-.054.053q-.023.02-.005.045l.066.109q.04.07.073.144c.022.047.022.047.067.032l.066-.02a.15.15 0 0 1 .175.095.7.7 0 0 1 .042.14.17.17 0 0 1-.09.178c-.024.013-.05.019-.076.029-.03.011-.033.014-.028.046q.025.15.028.305-.002.034.03.037l.057.008a.16.16 0 0 1 .148.126c.002.007.007.148 0 .186-.014.085-.076.145-.157.148a.2.2 0 0 1-.053-.003q-.049-.01-.06.04-.031.122-.073.238a.05.05 0 0 0 .014.059c.01.008.045.049.05.062.014.031-.043-.017-.056-.025-.03-.019-.4-.236-.538-.314.01-.077.046-.176.06-.252a1.4 1.4 0 0 0-.214-1.067 1.234 1.234 0 0 0-1.482-.489c-.21.082-.438.215-.564.425-.014.017-.021.015-.044.004-.079-.042-.387-.255-.512-.333-.056-.059-.092-.156-.05-.228a.5.5 0 0 1 .112-.13.17.17 0 0 1 .212 0c.08.06.08.06.156-.006q.061-.05.126-.095c.04-.03.042-.041.024-.087q-.075-.187.095-.28a1 1 0 0 1 .094-.042c.087-.028.166.005.213.087.05.085.05.085.142.063q.073-.017.147-.03c.05-.01.057-.018.06-.07a.4.4 0 0 1 .011-.077c.013-.05.037-.094.085-.114a.31.31 0 0 1 .28.005q.078.046.08.145c0 .098 0 .098.09.114q.089.016.175.04c.044.01.056.006.073-.039.043-.114.151-.172.279-.106.036.02.074.033.105.063a.2.2 0 0 1 .042.218l-.012.028c-.017.046-.02.073-.02.073s.09.062.13.094"/>
        <path fill="#414141" d="M15.114 13.552c.037.037.532.325.574.352.013.002.023.01.034.015l.025.027c.039.058.038.12.016.184a1 1 0 0 1-.052.098.153.153 0 0 1-.208.057l-.067-.04q-.023-.016-.038.008-.091.128-.2.237-.024.02-.005.044l.04.06a.175.175 0 0 1-.035.238 1 1 0 0 1-.08.06c-.073.051-.159.037-.214-.034l-.044-.063q-.015-.03-.043-.011-.127.074-.263.126c-.033.013-.033.013-.026.05l.006.038c.021.107-.003.165-.09.22-.024.013-.05.011-.074.018a.4.4 0 0 1-.129.008l-.042-.024a.24.24 0 0 1-.071-.141c-.015-.076-.006-.063-.071-.06a2 2 0 0 1-.26-.001c-.034-.002-.034-.003-.042.03q-.006.023-.01.047c-.014.099-.089.173-.208.15a1 1 0 0 1-.087-.024.17.17 0 0 1-.112-.198l.013-.068c.005-.03.005-.032-.024-.044a2 2 0 0 1-.26-.123c-.032-.018-.032-.018-.055.014l-.036.052c-.056.075-.144.09-.218.038a1 1 0 0 1-.082-.063.175.175 0 0 1-.036-.229l.045-.066q.016-.023-.003-.042a2 2 0 0 1-.203-.24q-.017-.024-.038-.007l-.057.035c-.085.05-.175.025-.225-.064-.018-.032-.04-.061-.052-.097-.03-.088-.005-.17.072-.22l.048-.03c.029-.019.03-.02.017-.052a2 2 0 0 1-.09-.296q-.005-.032-.037-.026l-.052.007c-.104.012-.18-.054-.191-.164l-.008-.09a.18.18 0 0 1 .036-.12.16.16 0 0 1 .105-.061l.068-.009c.03-.005.03-.006.031-.039q.003-.108.016-.215c.004-.031.014-.062.011-.094q-.002-.033-.027-.043l-.031-.01a.2.2 0 0 1-.088-.05"/>
        <path fill="#414141" d="M12.135 12.73c.004-.023-.005-.056-.026-.062-.018-.005-.048-.017-.066-.023-.072-.023-.117-.084-.125-.165a.5.5 0 0 1 .032-.183c.03-.08.101-.127.182-.114a.2.2 0 0 1 .05.014q.046.019.068-.028c.033-.076.082-.15.114-.227.031-.074.01-.067.02-.065.027.024.412.223.533.328-.08.09-.255.502-.262.64"/>
        <path fill="#414141" d="M12.92 12.199c.246-.283.422-.404.665-.478q.224-.067.455-.048.386.033.695.287.268.226.402.561a1.5 1.5 0 0 1 .006 1.071c-.014.013-.265-.17-.292-.205-.006-.02.001-.037.006-.055q.04-.144.038-.294c-.014-.481-.322-.878-.748-.975-.315-.071-.648 0-.953.33-.008.005-.01-.005-.062-.043-.087-.056-.13-.091-.19-.13-.034-.02-.032-.01-.021-.021"/>
        <path fill="#5F5F5F" d="m15.149 13.578-.023.043c-.075.193-.195.35-.34.484a1.22 1.22 0 0 1-.666.319 1 1 0 0 1-.186.016 1.27 1.27 0 0 1-.816-.31 1.3 1.3 0 0 1-.335-.434 1.5 1.5 0 0 1-.113-.945q.052-.253.186-.468a1 1 0 0 1 .06-.078c.065.035.24.159.269.185.017.025-.015.057-.026.073a1 1 0 0 0-.126.27c-.1.338-.054.654.146.937a.91.91 0 0 0 .673.396c.396.042.803-.197.97-.62.01-.023.007-.06.045-.062.024.03.253.178.281.194"/>
        <path fill="#EDAE50" d="M14.867 13.384c-.032.086-.067.17-.117.246a.96.96 0 0 1-.642.445.9.9 0 0 1-.753-.19 1 1 0 0 1-.372-.619c-.057-.302.003-.58.171-.832l.019-.028c.006-.008.09-.107.13-.143a.94.94 0 0 1 .623-.248c.442-.009.841.31.956.772q.07.278-.005.555z"/>
        <path fill="#414141" d="M14.2 13.054a.27.27 0 0 1-.258.28.275.275 0 0 1-.268-.282c.001-.153.114-.28.27-.28a.27.27 0 0 1 .256.282"/>
        <path fill="#FCD38C" d="M14.215 12.528a.08.08 0 0 1 .076.032l.056.062c.042.05.016.14-.038.158-.023.008-.045.009-.066-.006a.6.6 0 0 1-.116-.113.078.078 0 0 1 .035-.125.1.1 0 0 1 .053-.008"/>
        <path fill="#414141" d="M7.12 15.228a.25.25 0 0 1-.13-.192l-.018-.09q-.005-.029-.035-.025a2.5 2.5 0 0 1-.442 0q-.024-.003-.029.022l-.02.093a.25.25 0 0 1-.148.2.34.34 0 0 1-.162 0c-.05-.01-.102-.015-.147-.043q-.028-.018-.052-.042a.25.25 0 0 1-.062-.214l.018-.093c.01-.053.01-.054-.037-.071a3 3 0 0 1-.309-.142q-.036-.019-.071-.041-.026-.019-.041.009l-.055.08c-.074.118-.22.152-.334.058l-.092-.072a.247.247 0 0 1-.048-.34l.062-.091q.016-.02-.003-.037l-.017-.018q-.15-.15-.274-.325c-.024-.032-.024-.032-.059-.011l-.07.043c-.124.075-.246.042-.323-.086l-.025-.043q-.023-.04-.042-.082a.247.247 0 0 1 .093-.318l.078-.048c.034-.021.034-.022.02-.06a3 3 0 0 1-.118-.372l-.014-.063q-.007-.03-.036-.025-.054.008-.109.013a.22.22 0 0 1-.214-.12.3.3 0 0 1-.032-.115c-.002-.03-.008-.058-.01-.09-.008-.123.058-.277.204-.288l.093-.011c.035-.005.037-.005.038-.041a3 3 0 0 1 .043-.447c.007-.04.007-.041-.031-.055l-.085-.029a.24.24 0 0 1-.15-.299q.018-.072.044-.143c.043-.122.16-.183.277-.146q.053.015.104.035c.022.01.032.002.041-.019l.068-.142.023-.045q.035-.071.081-.138c.028-.026 4.735 2.918 4.722 2.952l-.025.05-.05.095c-.068.116-.19.151-.304.088q-.045-.026-.088-.054c-.03-.018-.031-.018-.052.01a3 3 0 0 1-.288.34c-.022.023-.022.024-.005.05l.06.088a.247.247 0 0 1-.05.337l-.102.079c-.108.08-.237.058-.317-.054l-.06-.087c-.018-.026-.019-.026-.046-.01q-.165.096-.343.166l-.05.02c-.03.012-.03.012-.024.047q.007.047.018.093c.031.114-.034.25-.18.298a.5.5 0 0 1-.26.01"/>
        <path fill="#666059" d="M9.275 13.67c-.099-.062-.978-.638-1.04-.674-.033-.018-.023-.02-.002-.06a2 2 0 0 0 .143-.517 2 2 0 0 0 .006-.393 1.84 1.84 0 0 0-.564-1.19 1.5 1.5 0 0 0-.309-.23 1.6 1.6 0 0 0-.536-.195 1.5 1.5 0 0 0-.357-.02 1.63 1.63 0 0 0-1.183.624c-.033.042-.081.125-.115.167-.018.024-.334-.194-.764-.464q.023-.043.048-.08.017-.024-.004-.041l-.078-.076a.244.244 0 0 1-.05-.294c.012-.024.033-.081.065-.123q.024-.03.05-.057a.24.24 0 0 1 .33-.008c.106.101.092.078.18.006q.113-.094.231-.177c.043-.03.046-.043.024-.093a.36.36 0 0 1-.041-.174.24.24 0 0 1 .095-.188.46.46 0 0 1 .286-.11c.09.003.153.051.199.13q.023.042.042.088.018.041.06.03.175-.049.354-.078c.043-.008.052-.021.054-.067v-.048c-.01-.145.096-.267.221-.275.07-.005.138-.01.207.004.1.022.2.12.19.254q-.002.03 0 .057c0 .055.01.069.062.076q.167.026.33.072c.058.017.066.01.09-.046a.4.4 0 0 1 .071-.126c.067-.072.15-.084.237-.064.07.017.134.05.193.09a.26.26 0 0 1 .093.305l-.029.072c-.02.046-.017.063.024.09q.128.086.245.185c.086.074.07.085.165-.006.083-.08.211-.09.287-.034a.6.6 0 0 1 .187.212c.04.077.034.22-.044.292q-.034.033-.066.07-.03.03-.007.067.105.165.188.343.021.043.065.028a1 1 0 0 1 .103-.028.23.23 0 0 1 .242.113.6.6 0 0 1 .078.274.25.25 0 0 1-.135.233.4.4 0 0 1-.09.039q-.051.014-.041.067c.023.13.031.26.039.39q.003.054.05.056.037.002.073.009c.124.017.21.12.21.254a.7.7 0 0 1-.032.215.23.23 0 0 1-.245.164q-.053-.005-.105-.012c-.032-.004-.034-.003-.042.031a3 3 0 0 1-.135.44c-.009.02-.005.031.012.042q.052.03.102.063c.088.06.125.171.092.276z"/>
        <path fill="#EDAE50" d="M5.688 11.394q.059-.08.124-.155.315-.346.764-.4.4-.051.75.156.537.323.639.97.058.377-.084.73-.009.02-.014.04c.01.023 0 .042-.008.062q-.07.15-.174.27a1.24 1.24 0 0 1-.735.445 1.2 1.2 0 0 1-1.05-.293 1.33 1.33 0 0 1-.447-.839 1.43 1.43 0 0 1 .182-.937.1.1 0 0 1 .053-.05"/>
        <path fill="#45423D" d="M5.914 12.17c-.006-.486.384-.856.798-.858.407-.002.812.342.813.862 0 .483-.368.85-.798.855-.469.005-.821-.406-.813-.86"/>
        <path fill="#FCD38C" d="M7.51 11.378c.006.072-.078.128-.137.086a.6.6 0 0 1-.109-.094c-.045-.053-.035-.11.026-.144.044-.026.086-.028.127.01a.4.4 0 0 1 .078.086q.015.025.015.056"/>
        <path fill="#EDAE50" d="M6.076 12.176c-.01-.351.258-.693.646-.692.362.002.645.31.641.697-.003.382-.3.68-.653.676-.367-.005-.643-.333-.634-.681"/>
        <path fill="#414141" d="M6.717 12.45c-.145 0-.265-.127-.264-.28.001-.152.111-.28.265-.28.14-.002.263.121.263.282-.001.156-.117.279-.264.279"/>
        <path fill="#FCD38C" d="M7.023 11.706q.023-.001.042.01.086.06.084.168c0 .037-.05.076-.085.067a.2.2 0 0 1-.137-.099q-.042-.07.02-.12a.12.12 0 0 1 .076-.026"/>
        <path fill="#666059" d="M5.687 11.394a1.44 1.44 0 0 0-.18 1.154c.047.172.126.332.232.47q.242.315.608.437c.14.046.286.068.433.058q.578-.04.939-.524.075-.102.13-.22l.018-.033c.033.016.293.195.338.228.017.013.01.03.001.046a1.76 1.76 0 0 1-.603.682 1.6 1.6 0 0 1-1.01.262 1.63 1.63 0 0 1-.938-.395 1.75 1.75 0 0 1-.485-.683 1.92 1.92 0 0 1 .126-1.663c.03-.044.036-.045.079-.019.073.044.213.137.284.183z"/>
        <path fill="#45423D" d="M7.95 12.456a1.4 1.4 0 0 0-.175-1.023 1.65 1.65 0 0 0-.563-.5 1.215 1.215 0 0 0-1.41.316 2 2 0 0 0-.119.149c-.032-.02-.323-.179-.364-.216-.016-.015.11-.168.176-.24q.213-.237.49-.38c.173-.096.372-.15.572-.173q.232-.027.461.013c.201.035.386.118.562.23q.18.113.33.272c.194.208.337.45.417.732q.077.274.073.559a1.8 1.8 0 0 1-.165.75c-.02.041-.002.04-.058 0-.068-.052-.238-.16-.31-.21-.005-.003.054-.14.083-.28"/>
        <path fill="#EDAE50" d="M6.16 5.103q-.041-.151-.077-.304c-.006-.027.001-.034.028-.041 1.485-.384 3.29-.09 4.217.208.147.056.29.121.423.21a.6.6 0 0 1 .154.139.4.4 0 0 1 .033.05.14.14 0 0 1 .006.132 4 4 0 0 1-.16.316l-.112.2a1 1 0 0 1-.06.093c-.019.019-.04.01-.061.005-.091-.022-.183-.04-.273-.063l-.02.002c-.095-.033-.194-.037-.29-.06-.013-.004-.024.004-.036.002-.158-.033-.318-.05-.477-.072-.055-.009-.113-.004-.167-.026-.02-.023-.025-.053-.032-.083a1.5 1.5 0 0 0-.187-.49l-.047-.065a.28.28 0 0 0-.189-.112q-.314-.045-.63-.073c-.35-.032-.7-.038-1.05-.032a9 9 0 0 0-.947.08c-.019 0-.034 0-.045-.016"/>
        <path fill="#45423D" d="m11.084 8.123-.296-.002c-.032 0-.039-.019-.045-.043-.027-.009-.026-.035-.03-.056q-.046-.25-.097-.5a16 16 0 0 0-.298-1.214l-.061-.206c-.006-.02-.018-.044.002-.065q.01-.01.026-.007c.11.022.22.044.327.075q.104.318.185.644a18 18 0 0 1 .287 1.374M6.16 5.103c.13-.024.261-.037.392-.05q.142-.012.284-.021c.263-.02.526-.02.788-.015q.287.007.573.03.19.016.38.04c.107.012.212.03.318.046a.15.15 0 0 1 .085.046.9.9 0 0 1 .191.293q.083.196.12.408c-.006.02-.021.02-.036.019l-.203-.016q-.09-.009-.178-.013c-.095-.005-.19-.016-.284-.01-.037.002-.073-.008-.11-.009-.049 0-.064.01-.082.06a10 10 0 0 0-.257.878c-.114.46-.2.925-.272 1.393q-.029.187-.053.376c-.004.025-.006.051-.022.073q-.018.018-.041.01l-.204-.059a.03.03 0 0 1-.014-.008l-.01-.013c-.01-.032-.004-.064 0-.094.07-.507.155-1.01.266-1.508.08-.352.169-.7.284-1.04.017-.052.008-.067-.043-.068a10 10 0 0 0-.605.015c-.101.006-.203.01-.304.02h-.02c-.105 0-.108.003-.141.107a13 13 0 0 0-.434 1.86q-.045.283-.086.567c-.003.017-.004.034-.015.049-.01.017-.026.019-.042.021q-.127.018-.252.038c-.02.004-.042.008-.046-.024l.042-.3q.055-.388.124-.774.089-.507.215-1.003.059-.236.134-.467c.018-.054.018-.054-.02-.09L6.3 5.6a.12.12 0 0 1-.035-.062q-.047-.196-.098-.392a.1.1 0 0 1-.007-.043"/>
        <path fill="#A9A9A9" d="M6.16 5.102q.01.02.008.043c-.009-.013-.019-.026-.008-.043"/>
        <path fill="#B9E1E1" d="M8.316 8.867c-.156-.09-.32-.16-.487-.22-.015-.006-.031-.01-.043-.023l.052-.38q.065-.441.152-.876a11 11 0 0 1 .402-1.504c.011-.035.012-.035.046-.034q.29.008.577.027.138.01.276.023.227.023.453.058.097.014.192.03c.037.016.06.046.082.08q.124.197.206.416c.059.152.112.306.148.467.014.063.034.124.049.187.048.207.1.412.139.621q.028.162.067.32c.007.029.018.06-.016.081l-.011.012a.5.5 0 0 0-.141.146l-.198.284c-.019.008-.034.001-.05-.01q-.117-.09-.24-.179c-.04-.03-.044-.044-.016-.088q.06-.094.122-.184.024-.035.044-.072c.023-.047.015-.093-.02-.12-.035-.028-.08-.023-.113.017-.042.051-.076.11-.112.165l-.346.53q-.017.023-.03.051c-.016.043-.005.087.03.11.035.026.076.02.106-.016.042-.051.075-.11.112-.164l.07-.106q.024-.037.06-.012c.087.06.171.127.257.19.014.01.028.023.028.045l-.08.14q-.022.033-.042.068a.3.3 0 0 0-.01.297c.13.268.264.533.416.787l.058.094a.26.26 0 0 0 .227.127c.091.003.182-.008.272-.016-.002.4-.11.767-.312 1.105-.028.047-.059.067-.114.066-.146-.005-.293-.001-.439 0-.03-.005-.028-.033-.032-.054a3.8 3.8 0 0 0-.463-1.173c-.056-.092-.118-.18-.176-.27a3.7 3.7 0 0 0-.513-.567 4 4 0 0 0-.564-.412c-.028-.018-.06-.029-.075-.064"/>
        <path fill="#DCF9FB" d="M10.601 8.15a.15.15 0 0 0 .005-.087c-.052-.213-.415-1.7-.62-2.027-.025-.04-.03-.05-.05-.068.096.008.19.03.286.044q.011.002.02.008t.015.017q.194.621.33 1.26c.057.258.115.537.16.798l.001.002c.01.018.012.013-.042.02a.4.4 0 0 0-.105.033"/>
        <path fill="#B9E1E1" d="M7.534 8.556q-.125-.028-.25-.052-.15-.027-.302-.037a4 4 0 0 0-.286-.009c-.054 0-.109.006-.163.001-.022-.018-.018-.042-.015-.067.046-.353.1-.704.17-1.052q.07-.37.17-.73c.065-.23.14-.455.258-.662.017-.03.02-.056.001-.086q.02-.006.04-.006c.308-.015.615-.03.922-.028.014 0 .027-.003.04.004.006.016-.003.028-.008.041-.135.394-.238.799-.326 1.208a17 17 0 0 0-.19 1.047q-.032.213-.06.428"/>
        <path fill="#DCF9FB" d="M7.145 5.857c.055-.007.05-.004.016.056q-.135.242-.22.504a4 4 0 0 0-.091.31c-.027.114-.06.227-.085.342l-.07.35c-.024.12-.05.24-.067.361l-.083.563c-.005.039-.012.077-.011.116-.014.007-.108.017-.115 0 .006-.092.022-.182.036-.273q.05-.338.112-.673a13 13 0 0 1 .374-1.525q.016-.046.03-.093.009-.028.033-.026c.038-.002.134-.012.14-.012"/>
        <path fill="#414141" d="M12.224 12.207c-.095-.008-.2-.087-.276.117-.075.204.035.282.018.275h-.024c-.062 0-.126-.011-.188-.011-.022-.01-.017-.03-.013-.048a2.5 2.5 0 0 1 .458-1.006q.268-.346.633-.568a2.15 2.15 0 0 1 1.237-.307.13.13 0 0 0 .124-.067.1.1 0 0 1 .045-.04c.023-.001.045.01.067.015.049.011.054.01.075-.038.035-.076.07-.15.115-.22a.1.1 0 0 0 .027-.03.8.8 0 0 1 .22-.237l.007-.002c.031 0 .04.026.047.051q.05.165.118.322c.076.174.171.334.293.475.018.021.041.04.03.075l-.19.355-.03.051a1 1 0 0 1-.059.084l-.018-.011c-.003-.002-.01-.009-.014-.01-.066-.04-.057-.042-.024-.113a.2.2 0 0 0 .019-.142.16.16 0 0 0-.074-.1.5.5 0 0 0-.135-.058.155.155 0 0 0-.172.084l-.028.067c-.015.032-.023.037-.055.027a1.5 1.5 0 0 0-.254-.056l-.024-.005q-.034-.005-.033-.041v-.07a.15.15 0 0 0-.122-.162.4.4 0 0 0-.166.003q-.105.024-.12.138l-.007.086c0 .038-.003.04-.038.048l-.132.025q-.068.014-.135.035c-.028.009-.035.005-.047-.024q-.016-.04-.036-.077a.15.15 0 0 0-.175-.076.5.5 0 0 0-.14.066.17.17 0 0 0-.06.202l.029.067c.011.028.01.035-.013.05a3 3 0 0 0-.234.18c-.022.018-.028.018-.049-.002l-.058-.054a.15.15 0 0 0-.193.004.5.5 0 0 0-.101.117.17.17 0 0 0 .024.208c.023.023.026.025.062.052-.056.06-.167.223-.2.287"/>
        <path fill="#45423D" d="M11.466 12.58h-1.77c-.084 0-.085-.004-.073-.09a.28.28 0 0 0-.024-.185.22.22 0 0 0-.156-.114 1 1 0 0 0-.101-.01c-.04-.002-.048-.013-.05-.056a3 3 0 0 0-.04-.42c-.011-.056-.008-.06.044-.076a.5.5 0 0 0 .12-.051c.093-.06.12-.162.098-.266q-.017-.072-.04-.14c-.04-.12-.143-.183-.26-.16q-.06.014-.118.035c-.032.01-.036.01-.05-.024a3 3 0 0 0-.218-.395c-.015-.023-.014-.03.01-.05.032-.026.058-.059.088-.088.073-.07.072-.215.028-.285a.8.8 0 0 0-.149-.17.21.21 0 0 0-.275.012c-.027.026-.058.047-.082.077q-.02.026-.045.003l-.122-.107a3 3 0 0 0-.204-.15c-.061-.04-.058-.031-.027-.099l.033-.083c.036-.111.004-.233-.109-.293-.048-.026-.097-.053-.149-.068-.073-.021-.145-.018-.21.033a.2.2 0 0 0-.06.08l-.05.114c-.012.029-.015.03-.043.02a2.2 2.2 0 0 0-.413-.092c-.04-.006-.042-.01-.043-.053v-.108c.001-.1-.049-.164-.13-.206a.2.2 0 0 0-.074-.021c-.06-.002-.121-.007-.182.004-.116.02-.188.107-.192.231v.096c0 .048-.002.05-.046.057-.136.023-.27.048-.402.09-.031.01-.035.008-.05-.025l-.04-.094c-.054-.125-.18-.165-.295-.12a1 1 0 0 0-.127.058.25.25 0 0 0-.115.303q.02.054.045.107c.013.03.012.036-.014.053q-.161.106-.307.234-.02.016-.037.034c-.021.018-.028.018-.049-.001q-.036-.032-.07-.066a.22.22 0 0 0-.32.006l-.07.083c-.03.033-.032.031-.062.002l-.09-.086c-.041-.048-.04-.048.001-.097a3.1 3.1 0 0 1 1.283-.925 2.9 2.9 0 0 1 1.25-.186 2.97 2.97 0 0 1 1.875.828q.183.174.342.374l.04.06c.1.118.18.252.254.39.15.274.262.57.333.879.025.108.041.217.06.326.015.096.081.128.162.082a.34.34 0 0 0 .15-.317c-.003-.026-.02-.056.007-.081.02-.013.044-.012.067-.012h.366c.05.002.084-.018.111-.062q.152-.252.228-.539.061-.223.078-.454v-.048q-.005-.028.018-.044c.026 0 .084-.004.087-.004.101-.006.101-.006.101.102v.247c.001.075.02.098.09.116q.247.066.503.05c.079-.004.156-.02.234-.026a.2.2 0 0 0 .047-.013c.048-.019.062-.039.062-.093l.001-.308c0-.022-.004-.046.015-.065.03-.025.06-.005.087.007.068.03.12.084.166.142.087.108.151.231.213.357a.1.1 0 0 1 .006.033c-.002.028-.021.042-.04.055q-.239.166-.436.386a2.7 2.7 0 0 0-.641 1.303c-.004.022 0 .053-.034.057"/>
        <path fill="#A19D98" d="m11.465 12.58.031-.148a2.7 2.7 0 0 1 1.077-1.622c.013-.009.027-.016.034-.03.01-.018.749-.524 1.575-.361.05.038.055.11.028.177-.026.065-.074.085-.152.083-.072-.002-.144-.006-.216-.002q-.18.01-.358.049a2.15 2.15 0 0 0-.883.423 2.36 2.36 0 0 0-.702.931 2.4 2.4 0 0 0-.145.476 6 6 0 0 0-.037.239q-.009.098-.096.131c-.086.032-.179-.035-.18-.133-.002-.049.008-.097.015-.145.003-.02.006-.065.01-.068"/>
        <path fill="#FCBE4F" d="M10.76 12.242h-.443q-.105-.002-.148-.102a.18.18 0 0 1 .022-.187.16.16 0 0 1 .132-.065h.854a.18.18 0 0 1 .129.043.19.19 0 0 1 .051.192.17.17 0 0 1-.059.086.16.16 0 0 1-.095.034z"/>
        <path fill="#EDAE50" d="M6.086 8.503q.015.01.03.006c.093-.02.187-.03.28-.04.008-.002.004-.002.027-.004a3.4 3.4 0 0 1 1.111.09c.076.022.153.039.229.061a5 5 0 0 1 .524.228l.029.023a.23.23 0 0 1-.054.172.5.5 0 0 1-.206.146c-.103-.047-.206-.096-.312-.135a3 3 0 0 0-1.098-.183q-.308.005-.609.077a3.06 3.06 0 0 0-1.61.995l-.04.048c-.03.033-.042.054-.063.08l-.103.135c-.079.104-.218.11-.305 0-.06-.074-.05-.186-.001-.257q.078-.113.167-.217c.06-.072.12-.146.186-.212.093-.092.185-.186.286-.268a3.5 3.5 0 0 1 1.14-.633q.166-.054.336-.09c.02-.003.041-.005.056-.022M9.48 9.898c.1.127.183.267.262.41q.138.252.237.526c.06.167.112.337.147.512l.013.059c.01.054.02.107.009.162-.023.114-.076.203-.178.253-.085.041-.16-.002-.173-.1a3.6 3.6 0 0 0-.188-.76 3.3 3.3 0 0 0-.43-.804l-.023-.035c.02-.069.06-.124.099-.182.022-.032.055-.026.083-.036.046-.015.094-.027.141-.005"/>
        <path fill="#FCD38C" d="M9.456 9.892c-.223-.02-.293.215-.3.23a4 4 0 0 0-.308-.356 3.1 3.1 0 0 0-.792-.58c.01-.013.102-.032.178-.143a.4.4 0 0 0 .081-.176c.073.03.137.077.203.119q.171.108.33.238.142.119.273.25.089.092.173.189c.066.074.132.148.185.235"/>
        <path fill="#EDAE50" d="M15.234 10.961c-.024-.042-.06-.073-.09-.111a2.2 2.2 0 0 1-.35-.684l-.026-.086c-.004-.012-.007-.026-.023-.025-.2-.183-.443-.285-.68-.397a6.7 6.7 0 0 0-1.11-.386c-.298-.08-.598-.14-.9-.194-.027-.005-.057-.007-.076-.035q-.006-.03-.005-.06v-.715c0-.026-.007-.056.02-.076.059.016.12.016.18.025.115.017.23.03.343.048.148.023.296.044.442.075.1.022.202.04.303.063q.177.04.353.085c.194.053.389.106.578.177.075.028.15.059.226.084a.5.5 0 0 1 .197.133q.19.187.374.379.123.13.241.263.052.058.106.113c.06.067.117.137.179.201q.076.08.083.193c.005.105.002.21-.024.313a1.37 1.37 0 0 1-.341.617"/>
        <path fill="#45423E" d="m10.162 8.738-.28-.207-.013-.01c-.017-.018-.027-.01-.038.008l-.05.079q-.06.092-.123.183-.047.067-.113.044a.113.113 0 0 1-.062-.16q.016-.03.036-.057l.457-.694a.1.1 0 0 1 .137-.017.1.1 0 0 1 .04.065.12.12 0 0 1-.009.077q-.02.039-.044.073l-.134.201c-.018.027-.018.027.007.046l.287.212z"/>
        <path fill="#EDAE50" d="M11.319 8.14c.013.01.012.024.012.038v.759l-.004.025c-.017.022-.04.02-.063.021q-.126-.001-.252-.006c-.234-.005-.468-.002-.703-.002a.1.1 0 0 0-.047.009q-.016.005-.016.022.003.016.02.019l.02.002c.115-.003.23.003.345-.005q.166-.01.333.002.144.008.288.012c.024.001.048 0 .07.015.011.058.028.115.017.175q0 .009-.005.016c-.018.023-.045.023-.069.033-.044.02-.066.052-.064.104.006.236-.011.472-.008.708q0 .04.003.082c.006.058-.009.078-.065.084l-.045.002-.078-.001c-.076.013-.153.013-.23.019q-.211.015-.32-.182c-.103-.181-.207-.361-.301-.548q-.062-.127-.126-.251a.36.36 0 0 1 .011-.39c.037-.055.063-.117.107-.167.024-.06.063-.11.098-.164q.12-.19.257-.367c.028-.036.067-.058.103-.083.048-.014.22-.018.264-.02h.149c.023 0 .253.014.299.038m2.921 2.431q-.025-.012-.024-.041c.003-.06-.034-.09-.08-.113-.06-.023-.517-.07-.972.1q-.241.08-.46.214c-.027.017-.056.028-.081.048q-.007.002-.016.002c-.036-.055-.06-.116-.091-.172a1.3 1.3 0 0 0-.17-.246.36.36 0 0 0-.189-.118c-.02.001-.024-.015-.026-.03a.4.4 0 0 1-.003-.057q-.002-.196 0-.393c.003-.124-.01-.247-.008-.37q0-.072-.061-.098l-.048-.025c-.011-.008-.024-.015-.019-.034l.002-.093c.013-.02.032-.017.051-.014a9 9 0 0 1 1.464.36c.209.074.415.154.615.252.095.046.191.089.278.152a.4.4 0 0 1 .083.088c.06.078.044.168.039.257-.002.028-.014.053-.017.081a1.6 1.6 0 0 0-.13.261q-.009.03-.037.02c-.033-.013-.067-.02-.1-.03"/>
        <path fill="#FCD38C" d="M14.509 10.32a.1.1 0 0 1-.006-.072c.01-.05.006-.1.006-.15s-.026-.088-.054-.123a.4.4 0 0 0-.127-.106 6.3 6.3 0 0 0-1.232-.486 11 11 0 0 0-.68-.164c-.132-.026-.265-.046-.397-.073l-.024-.002v-.095c.081.008.16.025.24.04q.156.03.312.064.163.033.324.077l.249.065q.303.084.598.193c.16.06.315.132.47.203q.223.102.43.234.06.04.117.087c.013.01.025.023.01.043-.051.049-.104.095-.15.15q-.044.057-.086.115m-3.191-1.358v.095a9 9 0 0 0-1.031-.008l-.058-.007c-.014-.003-.036-.023-.036-.035.001-.022.013-.033.029-.042a.15.15 0 0 1 .068-.012c.244 0 .488-.004.732.002z"/>
        <path fill="#FEFEFE" d="M15.503 10.114a.9.9 0 0 1-.042.263 1.3 1.3 0 0 1-.208.403c-.018.025-.02.025-.039 0a1.8 1.8 0 0 1-.222-.365 3 3 0 0 1-.117-.304c-.01-.032-.01-.038.021-.055a1 1 0 0 1 .335-.116c.053-.008.108-.008.162-.015h.016c.05 0 .059.007.078.057.017.044.017.09.016.132"/>
        <path fill="#414141" d="M11.99 8.214c0 .275.002.879.008 1.048-.015.02-.034.013-.052.008a1.16 1.16 0 0 0-.576-.013c-.016.003-.032.007-.046-.007v.002c-.01-.013 0-1.359-.002-1.445q-.001-.054.023-.103l.06-.122.01-.005c.222.1.405.218.573.4-.003.066 0 .154.001.237"/>
        <path fill="#A19D98" d="M11.415 7.56h-.007a.3.3 0 0 0 .017-.127q.002-.195 0-.388c0-.048.013-.086.041-.123q.206-.274.445-.514a2.2 2.2 0 0 1 .327-.277c.022.006.013.022.008.034-.073.17-.062.348-.04.525.01.078.03.158.091.215a.025.025 0 0 1 .005.031.9.9 0 0 0-.336.3c-.014.02-.024.04-.02.064a9 9 0 0 0 0 .563l-.001.008c-.02.015-.034-.002-.046-.013q-.08-.076-.166-.144a1.4 1.4 0 0 0-.2-.129.2.2 0 0 0-.118-.024"/>
        <path fill="#A19D98" d="M12.327 6.113q.039.022.048.07.027.12.035.242c.01.14-.01.275-.042.409a.2.2 0 0 1-.032.078c-.018.003-.023-.01-.03-.023a.86.86 0 0 1-.085-.475q.001-.034.006-.068a.36.36 0 0 1 .1-.233m-.249 3.167c.042.019.062.048.064.102.009.27.006.541.007.812l.002.11q-.003.167-.001.336c0 .04-.015.062-.047.076a1.56 1.56 0 0 1-.86-.008c-.056-.018-.07-.04-.07-.1v-.338c-.001-.032.007-.546.007-.562v-.362q-.002-.055.046-.077c.388-.13.591-.093.851.01"/>
        <path fill="#45423D" d="M11.252 9.992v-.614c0-.04.004-.046.04-.06.137-.056.535-.108.748.041.034.019.04.038.04.083.006.103-.004.862-.003 1.155v.017c-.001.042-.004.044-.044.053a1.55 1.55 0 0 1-.74-.018c-.037-.01-.039-.01-.039-.052V9.99z"/>
        <path fill="#DCF9FB" d="M11.407 7.57c.004-.038.026-.042.067-.032a.6.6 0 0 1 .14.067c.097.062.19.13.272.214q.03.028.06.052.004.019.018.032c.026.025.029.054.024.09-.043-.007-.067-.034-.095-.066a1.3 1.3 0 0 0-.252-.22 1.3 1.3 0 0 0-.205-.11c-.021-.009-.032-.008-.03-.028m.922-1.456c.014.008.023.012-.014.047-.047.045-.078.158-.075.344.003.123.004.233.098.408q-.012.021-.034.024c-.158-.164-.142-.672-.064-.804.032-.036.05-.04.089-.02"/>
      </g>
    </g>
    <path fill="#E68F7B" d="m17.031 10 3.04 5.023-3.029-1.294z"/>
    <path fill="#F8EC7C" d="M14 15.023 17.031 10l.012 3.729z"/>
    <path fill="#6EB87D" d="M17.031 16.875 14 15.023l3.043-1.294z"/>
    <path fill="#946BA7" d="m20.071 15.023-3.029-1.294-.01 3.146z"/>
    <path fill="#697CB9" d="m17.031 17.513 3.04-1.802-3.04 4.283z"/>
    <path fill="#4FADD0" d="M17.031 17.513 14 15.71l3.031 4.283z"/>
  </g>
  <defs>
    <clipPath id="harvest-finance_svg__a">
      <path fill="#fff" d="M0 0h20v20H0z"/>
    </clipPath>
  </defs>
</svg>
