<svg xmlns="http://www.w3.org/2000/svg" fill="none" viewBox="0 0 20 20">
  <g clip-path="url(#helium_svg__a)">
    <circle cx="10" cy="10" r="10" fill="#fff"/>
    <path fill="#474dff" d="M12.66 5.202a1.496 1.496 0 0 1 2.113 0 1.496 1.496 0 0 1-1.268 2.535.2.2 0 0 0-.068 0 .769.769 0 0 0-.798 1.086c.5 1.083.27 2.379-.576 3.224a2.87 2.87 0 0 1-3.224.575.77.77 0 0 0-.593-.021.76.76 0 0 0-.43.397.8.8 0 0 0-.071.38.3.3 0 0 0 0 .075 1.496 1.496 0 0 1-2.532 1.303 1.5 1.5 0 0 1 0-2.116c.337-.338.8-.49 1.268-.423h.025q.074.017.152.018.167.002.324-.07a.78.78 0 0 0 .397-.427.76.76 0 0 0-.021-.596 2.87 2.87 0 0 1 .575-3.224 2.87 2.87 0 0 1 3.225-.576.774.774 0 0 0 1.022-.372.8.8 0 0 0 .06-.462v-.003a1.5 1.5 0 0 1 .42-1.303m-1.477 5.964a1.654 1.654 0 1 0-2.34-2.34 1.654 1.654 0 0 0 2.34 2.34M10 0c5.522 0 10 4.477 10 9.998S15.526 20 10 20 0 15.523 0 9.998C0 4.474 4.478 0 10 0m5.33 7.871a2.261 2.261 0 1 0-3.817-2.045 4.42 4.42 0 0 0-4.666 1.005 4.41 4.41 0 0 0-1.002 4.67 2.26 2.26 0 0 0-1.161.62 2.261 2.261 0 1 0 3.821 2.03 4.41 4.41 0 0 0 4.652-1.008 4.42 4.42 0 0 0 1.012-4.647 2.3 2.3 0 0 0 1.161-.625"/>
  </g>
  <defs>
    <clipPath id="helium_svg__a">
      <path fill="#fff" d="M0 0h20v20H0z"/>
    </clipPath>
  </defs>
</svg>
