<svg xmlns="http://www.w3.org/2000/svg" fill="none" viewBox="0 0 20 20">
  <circle cx="10" cy="10" r="10" fill="#fecb17"/>
  <mask id="horizen_svg__a" width="14" height="14" x="5" y="5" maskUnits="userSpaceOnUse" style="mask-type:luminance">
    <path fill="#fff" d="m16.696 5.273-1.34 2.058A5.85 5.85 0 0 1 16 10c0 3.266-2.668 5.913-5.96 5.913a6 6 0 0 1-2.686-.635l-2.075 1.33a8.2 8.2 0 0 0 4.762 1.517c4.522 0 8.189-3.638 8.189-8.125 0-1.764-.57-3.396-1.532-4.728"/>
  </mask>
  <g mask="url(#horizen_svg__a)">
    <path fill="#100b1b" d="M11.252-1.134-1.18 12.196 12.255 24.53 24.686 11.2z"/>
  </g>
  <mask id="horizen_svg__b" width="9" height="5" x="6" y="10" maskUnits="userSpaceOnUse" style="mask-type:luminance">
    <path fill="#fff" d="M6.627 12.268a4.12 4.12 0 0 0 3.413 1.801 4.1 4.1 0 0 0 4.043-3.338 9.5 9.5 0 0 0-1.978-.209 9.42 9.42 0 0 0-5.478 1.746"/>
  </mask>
  <g mask="url(#horizen_svg__b)">
    <path fill="#100b1b" d="m10.066 6.834-5.22 5.599 5.798 5.324 5.22-5.599z"/>
  </g>
  <path fill="#100b1b" d="M12.067 9.78a10 10 0 0 1 2.085.222V10c0-2.253-1.841-4.081-4.112-4.081S5.927 7.747 5.927 10q0 .277.037.546c-1.037.781-1.528 1.4-1.543 1.42A5.8 5.8 0 0 1 4.08 10c0-3.265 2.668-5.913 5.96-5.913a6 6 0 0 1 2.678.631l2.076-1.33a8.2 8.2 0 0 0-4.754-1.513c-4.523 0-8.19 3.638-8.19 8.126a8.04 8.04 0 0 0 1.6 4.822 9.8 9.8 0 0 1 1.4-1.917s.808-.836 1.427-1.257a9.85 9.85 0 0 1 5.79-1.87"/>
  <path stroke="#100b1b" stroke-miterlimit="10" stroke-width=".226" d="M12.067 9.78a10 10 0 0 1 2.085.222V10c0-2.253-1.841-4.081-4.112-4.081S5.927 7.747 5.927 10q0 .277.037.546c-1.037.781-1.528 1.4-1.543 1.42A5.8 5.8 0 0 1 4.08 10c0-3.265 2.668-5.913 5.96-5.913a6 6 0 0 1 2.678.631l2.076-1.33a8.2 8.2 0 0 0-4.754-1.513c-4.523 0-8.19 3.638-8.19 8.126a8.04 8.04 0 0 0 1.6 4.822 9.8 9.8 0 0 1 1.4-1.917s.808-.836 1.427-1.257a9.85 9.85 0 0 1 5.79-1.87Z"/>
</svg>
