<svg xmlns="http://www.w3.org/2000/svg" fill="none" viewBox="0 0 20 20">
  <g clip-path="url(#humanity-protocol_svg__a)">
    <path fill="#ba5400" d="M10 20c5.523 0 10-4.477 10-10S15.523 0 10 0 0 4.477 0 10s4.477 10 10 10"/>
    <path fill="#d9ead7" d="M12.124 13.956a3.5 3.5 0 0 1-.975.526l-.028.01a.3.3 0 0 1-.343-.113l-.165-.23a.49.49 0 0 0-.38-.215 3 3 0 0 0-.23-.008q-.113.001-.22.014a.48.48 0 0 0-.347.212l-.193.28a.31.31 0 0 1-.346.117c-.318-.104-.638-.277-1.005-.543-.067-.049-.163-.04-.212.02a.15.15 0 0 0-.004.178c.215.305.432.61.644.905l.38.53c.206.29.478.445.833.472q.233.019.453.018c.2 0 .39-.011.58-.034q.476-.06.758-.463c.133-.191.267-.388.397-.577l.06-.087c.145-.21.292-.427.44-.638q.06-.09.122-.176a.144.144 0 0 0-.03-.202.155.155 0 0 0-.188.005zm-5.172-.672a3.5 3.5 0 0 1-.8-.765l-.018-.024a.305.305 0 0 1 0-.36l-.042-.032.052.017.159-.214a.5.5 0 0 0 .087-.43 2.3 2.3 0 0 0-.146-.425.48.48 0 0 0-.31-.265l-.326-.096a.305.305 0 0 1-.218-.294c0-.334.067-.69.208-1.123.025-.08-.013-.168-.086-.194a.15.15 0 0 0-.17.05c-.227.303-.453.61-.671.907l-.01.01-.367.498a1.07 1.07 0 0 0-.192.938c.088.36.196.68.334.977q.203.436.674.579l.672.2.08.024c.252.074.51.15.763.227l.016-.05-.003.053.193.06a.16.16 0 0 0 .093-.002.15.15 0 0 0 .09-.09.155.155 0 0 0-.062-.176m.945-6.489q.162-.15.157-.376l-.01-.34a.31.31 0 0 1 .213-.299c.317-.102.675-.15 1.126-.15h.005c.085 0 .156-.063.159-.141a.15.15 0 0 0-.1-.147c-.34-.115-.682-.23-1.014-.34l-.071-.023-.588-.196a1.07 1.07 0 0 0-.951.107 5 5 0 0 0-.825.62c-.234.217-.35.493-.341.82l.017.701.002.091c.007.26.015.527.02.79l.004.214a.146.146 0 0 0 .143.146h.004a.16.16 0 0 0 .144-.113q.161-.538.487-1.008l.01-.015a.3.3 0 0 1 .343-.11l.016-.05v.055l.253.084a.49.49 0 0 0 .435-.05 2.3 2.3 0 0 0 .359-.27zm5.635.285c.197.27.353.597.493 1.03a.16.16 0 0 0 .147.112.1.1 0 0 0 .037-.005.15.15 0 0 0 .107-.14c.006-.365.008-.732.011-1.088l.006-.675a1.07 1.07 0 0 0-.397-.872 5 5 0 0 0-.844-.593 1.04 1.04 0 0 0-.886-.071c-.22.078-.444.156-.66.234l-.081.029-.751.265-.202.07a.15.15 0 0 0-.075.055.15.15 0 0 0-.02.126c.019.064.08.107.15.107h.005q.562-.014 1.106.15l.02.007c.126.04.212.16.211.292l-.002.284a.49.49 0 0 0 .182.398 2 2 0 0 0 .368.258.48.48 0 0 0 .406.033l.321-.114c.126-.044.27 0 .348.11zm2.175 3.446-.427-.557-.115-.15q-.212-.273-.42-.55l-.011-.014-.118-.156a.14.14 0 0 0-.077-.053.15.15 0 0 0-.126.02c-.054.036-.077.112-.053.18q.186.53.198 1.09v.03a.305.305 0 0 1-.211.29l-.271.086a.49.49 0 0 0-.323.295 2.4 2.4 0 0 0-.133.43.48.48 0 0 0 .094.396l.208.27a.304.304 0 0 1 .003.365c-.196.271-.459.52-.827.788-.068.05-.088.143-.044.207a.15.15 0 0 0 .166.059c.363-.112.726-.228 1.078-.338l.013-.005.591-.186a1.07 1.07 0 0 0 .706-.646c.141-.343.24-.665.304-.986a1.04 1.04 0 0 0-.206-.864z"/>
  </g>
  <defs>
    <clipPath id="humanity-protocol_svg__a">
      <path fill="#fff" d="M0 0h20v20H0z"/>
    </clipPath>
  </defs>
</svg>
