<svg xmlns="http://www.w3.org/2000/svg" viewBox="0 0 203.23 201.81">
  <path fill="#fcd15a" fill-rule="evenodd" d="M134.77 88.91h-1.41c-7.05.7-12 6.35-11.29 13.4 0 1.42-.7 3.53-2.12 4.24-.7.7-1.41.7-2.82.7a2.59 2.59 0 0 1-2.11-.7 12 12 0 0 0-7.06-2.12h-1.41c-7.06.71-12 6.35-11.29 13.41 0 2.11-.71 3.53-2.12 4.23-.7.71-1.41.71-2.82.71a2.59 2.59 0 0 1-2.12-.71 11.37 11.37 0 0 0-6.35-2.07 12.66 12.66 0 0 0-12.7 12.71 12.65 12.65 0 0 0 12.7 12.7h1.41a12.76 12.76 0 0 0 11.29-11.29V132c0-1.41.71-3.53 2.12-4.23.71-.71 1.41-.71 2.82-.71a2.59 2.59 0 0 1 2.12.71 11.93 11.93 0 0 0 7.06 2.11h1.41a12.75 12.75 0 0 0 11.29-11.29v-2.11q0-3.18 2.11-4.24c.71-.7 1.41-.7 2.83-.7a2.59 2.59 0 0 1 2.11.7 12 12 0 0 0 7.06 2.12 12.65 12.65 0 0 0 12.7-12.7c-.71-7.06-6.35-12.7-13.41-12.7"/>
  <path fill="#fcd15a" fill-rule="evenodd" d="M134.77 88.91h-1.41c-7.05.7-12 6.35-11.29 13.4 0 1.42-.7 3.53-2.12 4.24-.7.7-1.41.7-2.82.7a2.59 2.59 0 0 1-2.11-.7 12 12 0 0 0-7.06-2.12h-1.41c-7.06.71-12 6.35-11.29 13.41 0 2.11-.71 3.53-2.12 4.23-.7.71-1.41.71-2.82.71a2.59 2.59 0 0 1-2.12-.71 11.37 11.37 0 0 0-6.35-2.07 12.66 12.66 0 0 0-12.7 12.71 12.65 12.65 0 0 0 12.7 12.7h1.41a12.76 12.76 0 0 0 11.29-11.29V132c0-1.41.71-3.53 2.12-4.23.71-.71 1.41-.71 2.82-.71a2.59 2.59 0 0 1 2.12.71 11.93 11.93 0 0 0 7.06 2.11h1.41a12.75 12.75 0 0 0 11.29-11.29v-2.11q0-3.18 2.11-4.24c.71-.7 1.41-.7 2.83-.7a2.59 2.59 0 0 1 2.11.7 12 12 0 0 0 7.06 2.12 12.65 12.65 0 0 0 12.7-12.7c-.71-7.06-6.35-12.7-13.41-12.7M108 72.68h-1.41c-7.06.7-12 6.35-11.29 13.41q0 3.16-2.12 4.23c-.7.7-1.41.7-2.82.7a2.61 2.61 0 0 1-2.12-.7 11.9 11.9 0 0 0-7-2.12h-1.51a12.93 12.93 0 0 0-11.29 12.7 12.65 12.65 0 0 0 12.71 12.7h1.41a12.75 12.75 0 0 0 11.29-11.29v-2.11q0-3.2 2.15-4.2c.71-.7 1.42-.7 2.83-.7a2.59 2.59 0 0 1 2.11.7 11.9 11.9 0 0 0 7.06 2.08h1.41a12.92 12.92 0 0 0 11.29-12.7 12.64 12.64 0 0 0-12.7-12.7"/>
  <path fill="#fcd15a" fill-rule="evenodd" d="M108 72.68h-1.41c-7.06.7-12 6.35-11.29 13.41q0 3.16-2.12 4.23c-.7.7-1.41.7-2.82.7a2.61 2.61 0 0 1-2.12-.7 11.9 11.9 0 0 0-7-2.12h-1.51a12.93 12.93 0 0 0-11.29 12.7 12.65 12.65 0 0 0 12.71 12.7h1.41a12.75 12.75 0 0 0 11.29-11.29v-2.11q0-3.2 2.15-4.2c.71-.7 1.42-.7 2.83-.7a2.59 2.59 0 0 1 2.11.7 11.9 11.9 0 0 0 7.06 2.08h1.41a12.92 12.92 0 0 0 11.29-12.7 12.64 12.64 0 0 0-12.7-12.7"/>
  <path fill="#fcd15a" fill-rule="evenodd" d="M101.61 0C45.87 0 0 45.16 0 100.9c0 55.75 45.87 100.91 101.61 100.91a109.4 109.4 0 0 0 39.51-7.81c37.4-15.52 62.1-52.21 62.1-92.43C203.92 45.16 158.06 0 101.61 0m-72 100.2c0-39.52 32.45-71.27 72-71.27a72.1 72.1 0 0 1 50.8 21.17c13.41 13.41 21.17 31.75 21.17 50.1 0 39.51-32.46 71.26-72 71.26-39.52 0-72-31.75-72-71.26Z"/>
  <path fill="#fcd15a" fill-rule="evenodd" d="M101.61 0C45.87 0 0 45.16 0 100.9c0 55.75 45.87 100.91 101.61 100.91a109.4 109.4 0 0 0 39.51-7.81c37.4-15.52 62.1-52.21 62.1-92.43C203.92 45.16 158.06 0 101.61 0m-72 100.2c0-39.52 32.45-71.27 72-71.27a72.1 72.1 0 0 1 50.8 21.17c13.41 13.41 21.17 31.75 21.17 50.1 0 39.51-32.46 71.26-72 71.26-39.52 0-72-31.75-72-71.26Z"/>
  <path fill="#fcd15a" d="m90.6 77.29-.55-2.66h.06a1.78 1.78 0 0 0 1-2.33l2.06-1.36c.11.11.22.16.27.27l-2.55 6.14a.7.7 0 0 0-.27-.06m.05-9.72 2.06 1.36a2 2 0 0 0 0 1.36l-2.06 1.35a1.82 1.82 0 0 0-2.39-.16l-1.08-1a1.63 1.63 0 0 0 0-1.84l1.08-1a2 2 0 0 0 1.09.38 1.59 1.59 0 0 0 1.3-.49m-5.27-4.45.33-.16 2.23 2.28a1.7 1.7 0 0 0-.22 1.68c0 .11 0 .16.11.27l-1.09 1a1.78 1.78 0 0 0-2.12 0L82.8 66.3a1.8 1.8 0 0 0-.06-2.12l1-1.19a1.73 1.73 0 0 0 1.62.16M91 67a1.78 1.78 0 0 0-1-2.33l.54-2.77a.7.7 0 0 0 .32 0l2.5 6.3c-.11 0-.22.16-.32.21Zm-18.16-4.91c.22-.11.87-.44 1-1l2.44.49a2.25 2.25 0 0 0 .27 1l-2.22 2.23a1.8 1.8 0 0 0-1-.33Zm13.3.38a2 2 0 0 0 .33-1.14l2.39-.54a1.62 1.62 0 0 0 1 .92l-.55 2.77a2.8 2.8 0 0 0-.7.11.8.8 0 0 0-.27.16ZM82 58.18l1.42 2a1.79 1.79 0 0 0-.11 2.33l-1 1.2a1.85 1.85 0 0 0-1.85 0l-.92-1a1.82 1.82 0 0 0-.17-2.39l1.36-2.07a1.7 1.7 0 0 0 .54.11 1.7 1.7 0 0 0 .76-.16m-8 2.28v-.33l5.81-2.55c.11.11.22.27.32.38L78.71 60a1.78 1.78 0 0 0-2.34 1Zm8.58-2.66a1 1 0 0 0 .21-.33l6 2.28v.38l-2.39.6a1.77 1.77 0 0 0-2.43-.94Zm-1.31-3a1.8 1.8 0 0 0-1.73 1.46 1.66 1.66 0 0 0 0 .77l-5.81 2.49a2 2 0 0 0-.27-.32 1.81 1.81 0 0 0-2.56 2.55c.06 0 .11.11.17.11a12.54 12.54 0 0 0-2.56 6.46v1.3a13 13 0 0 0 13 13 11 11 0 0 0 1.3-.11 12.8 12.8 0 0 0 6.63-2.72c0 .06.05.06.05.11a1.53 1.53 0 0 0 2.17-2.17.6.6 0 0 0-.21-.16l2.55-6.14a1.79 1.79 0 1 0 .87-3.47h-.06a1.1 1.1 0 0 0-.43-.06.65.65 0 0 0-.33.06l-2.49-6.3a1.82 1.82 0 0 0-1.91-3.09 1.6 1.6 0 0 0-.59.59l-6-2.28a1.74 1.74 0 0 0-1.41-2.06c-.11 0-.22-.06-.33-.06Z"/>
</svg>
