<svg xmlns="http://www.w3.org/2000/svg" xmlns:xlink="http://www.w3.org/1999/xlink" viewBox="0 0 139 113">
  <defs>
    <path id="immutable-x_svg__a" d="M0 0h139v113H0z"/>
  </defs>
  <clipPath id="immutable-x_svg__b">
    <use xlink:href="#immutable-x_svg__a" overflow="visible"/>
  </clipPath>
  <g fill="#17b5cb" clip-path="url(#immutable-x_svg__b)">
    <path d="M124.1 0h14.6L79.5 67.6c-1.5 1.7-1.6 4.3-.1 6.1l34.1 39.7H98.3L66.8 76.6l-1.6-2c-1.5-1.7-1.4-4.4.1-6.1L124.1 0z"/>
    <path d="M91.2 73.7c-1-1.1-1.3-2.7-1-4.1.3-.8.8-1.6 1.4-2.2l3.9-4.3 43.5 50.3h-13.8s-25.5-29.8-34-39.7zm-76 39.7H0l46.6-53.9c1.5-1.7 1.5-4.3 0-6L.4 0H15l46.5 53.9c1.2 1.6 1.4 3.9.1 5.4-12.2 14.1-46.4 54.1-46.4 54.1zM40.6 0h-14l43.1 49.9s.1-.1 4.9-5.8c1.3-1.5 1.6-3.4.1-4.9C65.7 30 40.6 0 40.6 0zm42 34.8L112.5 0H98.3L82.7 18.2l-4.5 5.3c-1.5 1.7-1.6 4.3-.1 6.1 1.1 1.3 4.5 5.2 4.5 5.2zm-26 43.8-29.9 34.8h14.1l15.6-18.2 4.5-5.3c1.5-1.7 1.6-4.3.1-6.1l-4.4-5.2z"/>
  </g>
</svg>
