<svg xmlns="http://www.w3.org/2000/svg" fill="none" viewBox="0 0 20 20">
  <circle cx="10" cy="10" r="10" fill="#122028"/>
  <path fill="url(#immutable-x_svg__a)" d="M14.781 5h1.292l-5.238 5.982a.416.416 0 0 0-.01.54l3.018 3.513h-1.345L9.711 11.78l-.142-.177a.416.416 0 0 1 .01-.54z"/>
  <path fill="url(#immutable-x_svg__b)" d="M11.87 11.522c-.089-.097-.115-.239-.089-.363a.6.6 0 0 1 .124-.194l.345-.38 3.85 4.45h-1.222s-2.256-2.637-3.008-3.513"/>
  <path fill="url(#immutable-x_svg__c)" d="M5.145 15.035H3.8l4.123-4.77a.404.404 0 0 0 0-.53L3.835 5h1.292l4.115 4.77c.106.142.124.345.009.478-1.08 1.248-4.106 4.787-4.106 4.787"/>
  <path fill="url(#immutable-x_svg__d)" d="M7.393 5h-1.24l3.815 4.416s.009-.009.433-.513c.115-.133.142-.301.01-.434C9.613 7.655 7.392 5 7.392 5"/>
  <path fill="url(#immutable-x_svg__e)" d="M11.11 8.08 13.754 5h-1.257l-1.38 1.61-.398.47a.416.416 0 0 0-.009.54c.097.115.398.46.398.46"/>
  <path fill="url(#immutable-x_svg__f)" d="m8.808 11.956-2.645 3.08H7.41l1.38-1.611.399-.47a.416.416 0 0 0 .009-.54c-.098-.114-.39-.46-.39-.46"/>
  <defs>
    <linearGradient id="immutable-x_svg__a" x1="15.51" x2="7.12" y1="4.9" y2="9.142" gradientUnits="userSpaceOnUse">
      <stop stop-color="#049bb1"/>
      <stop offset="1" stop-color="#30c9df"/>
    </linearGradient>
    <linearGradient id="immutable-x_svg__b" x1="15.73" x2="11.298" y1="10.54" y2="13.853" gradientUnits="userSpaceOnUse">
      <stop stop-color="#049bb1"/>
      <stop offset="1" stop-color="#30c9df"/>
    </linearGradient>
    <linearGradient id="immutable-x_svg__c" x1="8.858" x2="1.373" y1="4.9" y2="8.071" gradientUnits="userSpaceOnUse">
      <stop stop-color="#049bb1"/>
      <stop offset="1" stop-color="#30c9df"/>
    </linearGradient>
    <linearGradient id="immutable-x_svg__d" x1="10.128" x2="5.717" y1="4.956" y2="8.293" gradientUnits="userSpaceOnUse">
      <stop stop-color="#049bb1"/>
      <stop offset="1" stop-color="#30c9df"/>
    </linearGradient>
    <linearGradient id="immutable-x_svg__e" x1="13.487" x2="10.383" y1="4.969" y2="7.402" gradientUnits="userSpaceOnUse">
      <stop stop-color="#049bb1"/>
      <stop offset="1" stop-color="#30c9df"/>
    </linearGradient>
    <linearGradient id="immutable-x_svg__f" x1="9.026" x2="5.923" y1="11.925" y2="14.35" gradientUnits="userSpaceOnUse">
      <stop stop-color="#049bb1"/>
      <stop offset="1" stop-color="#30c9df"/>
    </linearGradient>
  </defs>
</svg>
