<svg xmlns="http://www.w3.org/2000/svg" fill="none" viewBox="0 0 20 20">
  <path fill="url(#injective-protocol_svg__a)" d="M2.423 3.407q.187-.23.385-.45c.006-.008.02-.01.025-.016.012-.015.031-.024.043-.039l.012-.014c.091-.084.189-.175.3-.254a4.5 4.5 0 0 1 1.243-.673c1.391-.484 2.94-.186 4.156.95 1.696 1.573 1.544 4.108.19 5.793-1.711 2.512-4.652 6.017-.58 9.156.732.565 1.275 1.03 3.581 1.69-1.508.275-2.907.19-4.463-.204-1.101-.615-2.833-1.932-3.422-3.71-.89-2.698 1.568-6.73 2.755-8.283 1.631-2.15-1.007-4.476-2.95-1.879C2.683 6.828.906 10.658 1.524 13.5c.36 1.611.842 2.785 2.75 4.399a9 9 0 0 1-1.031-.703C-1.19 13.11-.675 6.793 2.423 3.406"/>
  <path fill="url(#injective-protocol_svg__b)" d="M17.51 16.304q-.186.228-.386.45c-.005.007-.019.008-.025.016-.011.014-.03.023-.042.038l-.012.014c-.091.084-.189.175-.3.254a4.5 4.5 0 0 1-1.243.673c-1.392.484-2.94.186-4.156-.95-1.696-1.573-1.544-4.108-.19-5.793 1.711-2.512 4.652-6.017.58-9.156-.732-.565-1.275-1.03-3.581-1.69 1.508-.275 2.906-.19 4.463.204C13.72.98 15.45 2.296 16.04 4.075c.89 2.697-1.567 6.73-2.755 8.282-1.63 2.15 1.008 4.476 2.95 1.879 1.016-1.354 2.793-5.184 2.175-8.026-.36-1.61-.842-2.785-2.75-4.399q.531.31 1.031.703c4.432 4.086 3.918 10.403.82 13.79"/>
  <defs>
    <linearGradient id="injective-protocol_svg__a" x1=".008" x2="19.925" y1="9.855" y2="9.855" gradientUnits="userSpaceOnUse">
      <stop stop-color="#0082fa"/>
      <stop offset="1" stop-color="#00f2fe"/>
    </linearGradient>
    <linearGradient id="injective-protocol_svg__b" x1=".008" x2="19.925" y1="9.855" y2="9.855" gradientUnits="userSpaceOnUse">
      <stop stop-color="#0082fa"/>
      <stop offset="1" stop-color="#00f2fe"/>
    </linearGradient>
  </defs>
</svg>
