<svg xmlns="http://www.w3.org/2000/svg" viewBox="0 0 990 990">
  <path fill="#f7941c" d="M654.8 438.1c-34.3 16.4-68.6 32.5-102.7 49.3-11.1 5.5-16.6 4.5-16.1-9.5.4-14 0-28 0-42 0-15.1-.3-30.2 0-45.4.3-11.3-2.9-14.2-13.5-8-27.8 16.5-56 32.3-84.1 48.4-13.1 7.5-26.2 14.9-39.2 22.6-6.1 3.6-9 9.6-5.3 15.6 3.7 6.1 8.8 1.2 13.2-.6 18.4-7.9 37.1-15.5 55.3-24 12.1-5.7 18.3-5.8 17.3 10.5-1 17.3-1 34.7 0 52.1.6 11.8-4 17.7-14.3 23.3-29.5 16-58.7 32.8-81.2 58.6-32.9 37.9-26.2 91.7 14.2 116.4 49.8 30.5 114.2 3.3 131-54.5 10.1-34.7 6.7-70.1 6.7-105.2 0-15 3.9-24.5 18-31.8 36.6-19.1 72.5-39.8 108.5-60 6.5-3.6 13.9-8.7 9.2-17-4.9-8.9-11.4-1.4-17 1.2M462.5 652.7c-10.1 14.5-26 20.6-39 15s-19.8-23.3-14.9-40.4c9.2-32.7 36.3-48.2 62.5-64.4 5.7-3.4 8.1.4 8.1 6 .2 6.5.2 13.2.2 19.9.2 22.7-3.4 44.5-16.9 63.9"/>
  <path fill="#f7941c" d="M695.5 293.2c-26.3-26.3-57.5-47.1-91.8-61.3s-71.1-21.5-108.3-21.5c-75.1 0-147.1 29.8-200.2 82.9s-82.9 125.1-82.9 200.1c0 37.2 7.3 74 21.6 108.3 14.2 34.3 35.1 65.5 61.4 91.8s57.5 47.1 91.8 61.4c34.3 14.2 71.2 21.5 108.3 21.5 75.1 0 147.1-29.8 200.1-82.9 53.1-53.1 82.9-125.1 82.9-200.1 0-37.2-7.3-74-21.5-108.3-14.3-34.5-35.1-65.7-61.4-91.9m-16.6 383.4c-48.7 48.7-114.7 76-183.5 76s-134.8-27.3-183.5-75.9-76-114.6-76.1-183.4c0-34.1 6.7-67.8 19.8-99.3 13-31.5 32.2-60.1 56.3-84.2s52.7-43.2 84.2-56.2 65.2-19.7 99.3-19.7c68.8 0 134.8 27.3 183.4 76 48.7 48.6 76 114.6 76.1 183.4 0 68.7-27.3 134.7-76 183.3"/>
  <path fill="#f7941c" d="M471.4 341.3c3.5 3.5 7.7 6.3 12.4 8.3 4.6 1.9 9.6 2.9 14.6 2.9s10-1 14.6-2.9 8.9-4.7 12.4-8.3c3.6-3.5 6.4-7.7 8.3-12.4 1.9-4.6 2.9-9.6 2.9-14.6 0-10.1-4-19.8-11.2-27-7.2-7.1-16.8-11.2-27-11.2h-.1c-5 0-10 1-14.6 2.9s-8.8 4.7-12.4 8.3c-3.5 3.5-6.3 7.7-8.3 12.4-1.9 4.6-2.9 9.6-2.9 14.6s1 10 2.9 14.6c2 4.6 4.8 8.8 8.4 12.4"/>
  <path fill="#f7941c" d="M495.5 0C218.6 0 0 224.5 0 494.5 0 768.5 221.5 990 494.5 990 771.4 990 990 765.5 990 494.5 990 218.6 765.5 0 495.5 0M831 535.9c0 8.1-3.1 11.5-11.2 12.5-6.3.8-12.5 1.5-18.8 2.3-3.2 16.5-7.7 32.6-13.5 48.4 4.8 3.8 10 7.5 14.9 11.3 7.2 5.5 8.1 9.5 3.6 17.4-13.5 23.3-26.9 46.5-40.4 69.8-4.6 7.9-8.5 9.1-16.8 5.8-6-2.5-12.1-5-18.1-7.6-10.7 12.5-22.5 24.1-35.1 34.7 2.6 6.1 5.2 12.2 7.7 18.4 3.4 8.4 2.1 12.2-5.8 16.8-23.2 13.5-46.5 26.9-69.8 40.4-7.8 4.7-11.8 3.8-17.4-3.4-4.1-5.3-8.1-10.7-12.1-16-15.4 5.5-31.3 9.7-47.3 12.6-.8 6.5-1.6 13.2-2.4 19.9-1.1 8.8-4.3 11.8-13.2 11.8h-81.4c-8.4 0-11.7-3.1-12.8-11.6-.9-6.7-1.7-13.5-2.5-20.2-16.1-2.9-32-7.1-47.5-12.6-4.1 5.4-8.1 10.8-12.2 16.1-5.2 6.7-9.3 7.7-16.8 3.4-23.5-13.5-46.9-27.1-70.3-40.7-7.6-4.4-8.9-8.3-5.5-16.3 2.5-6.1 5-12.1 7.6-18.1-12.7-10.7-24.6-22.4-35.4-35l-17.3 7.3c-8.4 3.5-12.3 2.3-16.8-5.5-13.7-23.4-27.2-46.9-40.7-70.4-4.3-7.4-3.4-11.5 3.6-16.8 4.8-3.7 9.7-7.3 14.5-11-5.8-15.9-10.3-32.2-13.5-48.8-5.8-.7-11.4-1.5-17.1-2.5-4.3-.8-8.1-4.1-12.2-6.3v-94.5c4-2.2 7.9-5.5 12.2-6.3 5.4-1 10.7-1.8 16.2-2.4 3-17 7.3-33.7 13-49.9-4.4-3.4-8.8-6.8-13.2-10.1-6.7-5.2-7.7-9.3-3.4-16.8 13.5-23.5 27.1-46.9 40.7-70.4 4.4-7.7 8.3-9 16.8-5.4l14.2 6c11.3-13.4 23.7-25.9 37-37.2-1.9-4.5-3.8-9-5.6-13.5-3.9-9.2-2.7-13 5.7-17.9 23-13.4 46.1-26.7 69.2-40 8.2-4.7 12.1-3.9 17.9 3.7 3 3.8 5.9 7.7 8.8 11.6q25.05-9 51.3-13.8c.5-4.1 1-8.3 1.4-12.5 0-2.7.7-5.4 1.8-7.8 1.2-2.4 2.8-4.6 4.9-6.3h94.7c2.1 1.7 3.7 3.9 4.9 6.3s1.8 5.1 1.8 7.8c.4 4.2.9 8.4 1.4 12.7 17.4 3.1 34.5 7.7 51.1 13.8 3-3.9 5.9-7.9 8.9-11.8 5.8-7.6 9.7-8.4 17.9-3.7 23.3 13.5 46.5 26.9 69.8 40.4 7.8 4.5 8.9 8.4 5.5 16.8-2 4.8-4.1 9.7-6.1 14.5 13.2 11.3 25.4 23.7 36.5 37l14.7-6.2c8.7-3.6 12.5-2.4 17.3 5.9 13.4 23.1 26.7 46.1 40 69.2 4.7 8.2 3.9 12.1-3.6 17.9-4.6 3.4-9 6.7-13.5 10.1 5.6 16.1 9.9 32.6 12.8 49.4l17.5 2.2c8.6 1.1 11.6 4.4 11.5 12.8z"/>
</svg>
