<svg xmlns="http://www.w3.org/2000/svg" fill="none" viewBox="0 0 20 20">
  <circle cx="10" cy="10" r="10" fill="#fff"/>
  <path fill="#000" fill-rule="evenodd" d="M10 18.417a8.417 8.417 0 1 0 0-16.834 8.417 8.417 0 0 0 0 16.834M10 20c5.523 0 10-4.477 10-10S15.523 0 10 0 0 4.477 0 10s4.477 10 10 10" clip-rule="evenodd"/>
  <circle cx="9.917" cy="10" r="7.667" fill="#000"/>
  <path fill="#fff" d="M8.622 8.545a2.6 2.6 0 0 0 1.226-.367q.318-.195.765-.64.984-.983 1.92-1.91a.06.06 0 0 0 .019-.048.06.06 0 0 0-.023-.045c-.356-.297-.878-.392-1.28-.14q-.21.132-.45.377-.54.55-1.034 1.048-.255.258-.471.388-.596.36-1.305.147c-.243-.073-.464-.24-.647-.421l-.676-.67q-.086-.084-.171.001l-.65.656a.06.06 0 0 0 0 .08q.412.429.817.81.815.767 1.96.734m-1.298 3.293c-.054.26-.237.539-.421.73q-.357.37-.73.729-.062.06-.002.12l.684.686a.04.04 0 0 0 .057 0q.296-.298.6-.592.37-.358.551-.627.487-.72.404-1.67a2.4 2.4 0 0 0-.107-.578 2.8 2.8 0 0 0-.656-1.038 883 883 0 0 0-2.172-2.155.06.06 0 0 0-.074-.01l-.02.016c-.324.415-.378.974-.05 1.39q.154.196.383.416.51.492 1.014.99.22.219.34.4.343.515.2 1.193m6.626 1.234.004-.007-.002-.008a.4.4 0 0 0-.063-.08q-.264-.26-.548-.55a4 4 0 0 0-.538-.478 2.62 2.62 0 0 0-1.691-.478 2.46 2.46 0 0 0-1.51.587q-.197.165-.372.34-1.002.996-2.003 1.996a.05.05 0 0 0-.01.057l.012.017a1.14 1.14 0 0 0 1.557-.053q.575-.561 1.187-1.191c.322-.33.652-.6 1.134-.636.416-.031.795.038 1.12.312q.314.267.828.797.05.051.109.092.014.01.03.008.017 0 .029-.013zm-2.583-4.759q-.105 1.032.474 1.832.132.181.558.605.992.99 1.913 1.9.03.03.057 0c.298-.32.384-.8.202-1.208-.096-.214-.291-.415-.463-.581l-.97-.936a4 4 0 0 1-.346-.379 1.5 1.5 0 0 1 .05-1.937c.262-.297.557-.563.839-.847q.035-.037 0-.072l-.725-.723a.033.033 0 0 0-.047 0q-.376.37-.747.746c-.44.446-.732.974-.795 1.6"/>
</svg>
