<svg xmlns="http://www.w3.org/2000/svg" viewBox="0 0 800 800">
  <circle cx="400" cy="400" r="400" fill="#141726"/>
  <linearGradient id="jupiter_svg__a" x1="574.926" x2="248.526" y1="665.873" y2="142.313" gradientTransform="matrix(1 0 0 -1 0 800)" gradientUnits="userSpaceOnUse">
    <stop offset=".16" stop-color="#c6f462"/>
    <stop offset=".89" stop-color="#33d9ff"/>
  </linearGradient>
  <path fill="url(#jupiter_svg__a)" d="M536 568.9c-66.8-108.5-166.4-170-289.4-195.6-43.5-9-87.2-8.9-129.4 7.7-28.9 11.4-33.3 23.4-19.7 53.7 92.4-21.9 178.4-1.5 258.9 45 81.1 46.9 141.6 112.2 169.1 205 38.6-11.8 43.6-18.3 34.3-54.2-5.5-21.1-12.4-43.1-23.8-61.6"/>
  <linearGradient id="jupiter_svg__b" x1="572.59" x2="246.2" y1="667.33" y2="143.77" gradientTransform="matrix(1 0 0 -1 0 800)" gradientUnits="userSpaceOnUse">
    <stop offset=".16" stop-color="#c6f462"/>
    <stop offset=".89" stop-color="#33d9ff"/>
  </linearGradient>
  <path fill="url(#jupiter_svg__b)" d="M609.1 480.6c-85.8-125-207.3-194.9-355.8-218.3-39.3-6.2-79.4-4.5-116.2 14.3-17.6 9-33.2 20.5-37.4 44.9 115.8-31.9 219.7-3.7 317.5 53 98.3 57 175.1 133.5 205 251.1 20.8-18.4 24.5-41 19.1-62-7.4-28.8-15.8-59.1-32.2-83"/>
  <linearGradient id="jupiter_svg__c" x1="577.015" x2="250.625" y1="664.567" y2="141.007" gradientTransform="matrix(1 0 0 -1 0 800)" gradientUnits="userSpaceOnUse">
    <stop offset=".16" stop-color="#c6f462"/>
    <stop offset=".89" stop-color="#33d9ff"/>
  </linearGradient>
  <path fill="url(#jupiter_svg__c)" d="M105 488.6c7.3 16.2 12.1 34.5 23 47.6 5.5 6.7 22.2 4.1 33.8 5.7 1.8.2 3.6.5 5.4.7 102.9 15.3 184.1 65.1 242.1 152 3.4 5.1 8.9 12.7 13.4 12.7 17.4-.1 34.9-2.8 52.5-4.5C449 557.5 232.8 438.3 105 488.6"/>
  <linearGradient id="jupiter_svg__d" x1="569.027" x2="242.627" y1="669.552" y2="145.992" gradientTransform="matrix(1 0 0 -1 0 800)" gradientUnits="userSpaceOnUse">
    <stop offset=".16" stop-color="#c6f462"/>
    <stop offset=".89" stop-color="#33d9ff"/>
  </linearGradient>
  <path fill="url(#jupiter_svg__d)" d="M656.6 366.7C599.9 287.4 521.7 234.6 432.9 197c-61.5-26.1-125.2-41.8-192.8-33.7-23.4 2.8-45.3 9.5-63.4 24.7 230.9 5.8 404.6 105.8 524 303.3.2-13.1 2.2-27.7-2.6-39.5-12-29.3-23.4-59.8-41.5-85.1"/>
  <linearGradient id="jupiter_svg__e" x1="571.697" x2="245.297" y1="667.892" y2="144.332" gradientTransform="matrix(1 0 0 -1 0 800)" gradientUnits="userSpaceOnUse">
    <stop offset=".16" stop-color="#c6f462"/>
    <stop offset=".89" stop-color="#33d9ff"/>
  </linearGradient>
  <path fill="url(#jupiter_svg__e)" d="M709.8 325.3c-47-178.9-238-265-379.2-221.4 152.1 30 276.9 102.5 379.2 221.4"/>
  <linearGradient id="jupiter_svg__f" x1="579.038" x2="252.648" y1="663.311" y2="139.751" gradientTransform="matrix(1 0 0 -1 0 800)" gradientUnits="userSpaceOnUse">
    <stop offset=".16" stop-color="#c6f462"/>
    <stop offset=".89" stop-color="#33d9ff"/>
  </linearGradient>
  <path fill="url(#jupiter_svg__f)" d="M155.4 583.9c54.6 69.3 124 109.7 213 122.8-34-63.5-153.8-132.2-213-122.8"/>
</svg>
