<svg xmlns="http://www.w3.org/2000/svg" viewBox="0 0 20.226 20.196">
  <path fill="#6fc7ba" d="M20.225 9.996c0 1.352-.558 2.659-1.047 3.836s-1.246 2.342-2.165 3.26-2.02 1.709-3.238 2.214c-1.175.487-2.503.89-3.855.89s-2.71-.334-3.884-.82c-1.22-.506-2.053-1.604-2.971-2.525-.918-.918-1.947-1.78-2.453-3S.025 11.348.025 9.996-.134 7.21.353 6.032c.505-1.22 1.571-2.193 2.492-3.111.918-.918 1.937-1.879 3.157-2.384C7.176.05 8.568 0 9.92 0s2.662.246 3.837.733c1.22.505 2.394 1.193 3.312 2.114.918.918 1.715 2.05 2.22 3.267.487 1.175.936 2.53.936 3.882" class="kaspa_svg__cls-4"/>
  <path fill="#1a1a1a" d="m10.608 15.44 2.143.318.852-5.762-.852-5.765-2.143.317.611 4.146-4.484-3.453-1.32 1.723 3.934 3.032-3.935 3.03 1.32 1.724 4.485-3.455z" class="kaspa_svg__cls-3"/>
</svg>
