<svg xmlns="http://www.w3.org/2000/svg" fill="none" viewBox="0 0 20 20">
  <path fill="#6FC7BA" d="M19.772 9.771c0 1.322-.545 2.6-1.023 3.751a9.9 9.9 0 0 1-2.117 3.187c-.899.899-1.974 1.67-3.166 2.164-1.15.478-2.447.867-3.769.867s-2.647-.324-3.797-.802-2.006-1.57-2.904-2.468c-.899-.899-1.904-1.74-2.398-2.932C.12 12.387.024 11.09.024 9.768c0-1.321-.156-2.724.322-3.872.494-1.192 1.538-2.145 2.437-3.041.898-.9 1.893-1.837 3.085-2.33C7.02.047 8.378 0 9.7 0s2.6.239 3.75.717c1.193.493 2.34 1.166 3.24 2.065.898.899 1.677 2.002 2.17 3.195.479 1.15.915 2.472.915 3.794z"/>
  <path fill="#fff" d="m12.466 4.135-2.093.312.597 4.052-4.387-3.377-1.288 1.686L9.142 9.77l-3.847 2.961 1.29 1.686 4.385-3.376-.597 4.054 2.093.31.832-5.635z"/>
</svg>
