<svg xmlns="http://www.w3.org/2000/svg" fill="none" viewBox="0 0 20 20">
  <circle cx="10" cy="10" r="10" fill="#fff"/>
  <path fill="url(#kite_svg__a)" d="M14.504 16.936a3.1 3.1 0 0 0 .815-1.765l.117-.956c.93-7.535.93-7.62.93-7.736l-.002-.088a2.67 2.67 0 0 0-.938-1.937 2.75 2.75 0 0 0-2.109-.634L4.66 4.87c-1.09.133-2.004.923-2.274 1.968a2.7 2.7 0 0 0-.083.762 2.65 2.65 0 0 0 1.486 2.28c.997.468 3.007 1.008 4.2 2.195 1.195 1.187 1.734 3.183 2.204 4.174l.003.006a2.68 2.68 0 0 0 2.401 1.496 2.62 2.62 0 0 0 1.908-.817"/>
  <path fill="#fff" d="M10.864 15.056a1.734 1.734 0 0 0 3.467 0c0-.949-.78-1.724-1.735-1.724a1.73 1.73 0 0 0-1.732 1.724m1.039-8.56a1.735 1.735 0 0 0 3.467 0c0-.949-.78-1.724-1.735-1.724a1.73 1.73 0 0 0-1.732 1.724M3.296 7.529A1.73 1.73 0 0 0 5.03 9.252 1.73 1.73 0 0 0 6.763 7.53a1.734 1.734 0 0 0-3.467 0" opacity=".4"/>
  <defs>
    <linearGradient id="kite_svg__a" x1="5.273" x2="14.242" y1="13.158" y2="2.63" gradientUnits="userSpaceOnUse">
      <stop stop-color="#9b8564"/>
      <stop offset="1" stop-color="#dbd5c7"/>
    </linearGradient>
  </defs>
</svg>
