<svg xmlns="http://www.w3.org/2000/svg" fill="none" viewBox="0 0 20 20">
  <path fill="#0093dd" d="M10 20c5.523 0 10-4.477 10-10S15.523 0 10 0 0 4.477 0 10s4.477 10 10 10"/>
  <path fill="#fff" fill-rule="evenodd" d="m8.438 10 3.25 3.313 2.062-2.063c.375-.375.938-.375 1.25 0a.98.98 0 0 1 0 1.375l-2.687 2.75a.906.906 0 0 1-1.313 0l-3.875-4v2.375c0 .5-.437.938-.937.938a.96.96 0 0 1-.938-.938v-7.5c0-.5.438-.937.938-.937s.937.437.937.937v2.375l3.875-4a.906.906 0 0 1 1.313 0L15 7.375a.98.98 0 0 1 0 1.375c-.375.375-.937.375-1.25 0l-2.062-2.125zm3.25-.937c.5 0 .937.437.937.937s-.437.938-.937.938A.96.96 0 0 1 10.75 10c0-.5.438-.937.938-.937" clip-rule="evenodd"/>
</svg>
