<svg xmlns="http://www.w3.org/2000/svg" viewBox="0 0 20 20">
  <g fill="#31cb9e">
    <path d="m8.966 9.998 7.457 4.272a.393.393 0 0 0 .596-.34V6.06a.39.39 0 0 0-.596-.337zm7.299-6.165L11.167.083a.405.405 0 0 0-.638.215L8.667 8.65l7.553-4.176a.376.376 0 0 0 .045-.64M11.161 19.91l5.104-3.749a.382.382 0 0 0-.042-.65l-7.556-4.176 1.862 8.352a.403.403 0 0 0 .632.23"/>
    <path d="M7.027 9.843 8.966.776a.385.385 0 0 0-.597-.391L3.403 4.194a1.03 1.03 0 0 0-.403.82v9.665a1.03 1.03 0 0 0 .403.832l4.942 3.797a.385.385 0 0 0 .597-.39z"/>
  </g>
</svg>
