<svg xmlns="http://www.w3.org/2000/svg" fill="none" viewBox="0 0 285 501">
  <path fill="#0A0A0A" d="M227.844 290.616c34.169-19.805 57.138-56.789 57.138-99.152v-48.595C284.982 64.249 221.264.5 142.644.5S.275 64.25.275 142.869v52.075h86.782v3.386a112.7 112.7 0 0 0-29.644 12.054C23.244 230.189.275 267.173.275 309.536v48.595C.275 436.75 63.993 500.5 142.613 500.5s142.369-63.75 142.369-142.369v-52.075H198.2v-3.386a112.7 112.7 0 0 0 29.644-12.054M170.422 375.5c0 15.344-12.433 27.778-27.778 27.778s-27.777-12.434-27.777-27.778v-250c0-15.344 12.433-27.778 27.777-27.778s27.778 12.434 27.778 27.778z"/>
</svg>
