<svg xmlns="http://www.w3.org/2000/svg" fill="none" viewBox="0 0 20 20">
  <g clip-path="url(#layerzero_svg__a)">
    <mask id="layerzero_svg__b" width="20" height="20" x="0" y="0" maskUnits="userSpaceOnUse" style="mask-type:luminance">
      <path fill="#fff" d="M0 0h20v20H0z"/>
    </mask>
    <g mask="url(#layerzero_svg__b)">
      <path fill="#000" d="M10 20c5.523 0 10-4.477 10-10S15.523 0 10 0 0 4.477 0 10s4.477 10 10 10"/>
      <path fill="#fff" d="M10 4.3a3.25 3.25 0 0 0-2.301.972 3.28 3.28 0 0 0-.943 2.323v1.088H9.39V7.106a.57.57 0 0 1 .346-.52.6.6 0 0 1 .215-.043h.095a.56.56 0 0 1 .561.563v4.227a2.62 2.62 0 0 0 1.863-.776 2.65 2.65 0 0 0 .772-1.874V7.595a3.3 3.3 0 0 0-.95-2.33A3.22 3.22 0 0 0 9.999 4.3m.047 9.172h-.095a.56.56 0 0 1-.56-.564L9.39 8.683a2.62 2.62 0 0 0-1.863.775 2.65 2.65 0 0 0-.772 1.874v1.073a3.28 3.28 0 0 0 .938 2.328 3.24 3.24 0 0 0 3.557.715 3.26 3.26 0 0 0 1.993-3.043v-1.073h-2.635v1.576a.566.566 0 0 1-.56.564"/>
    </g>
  </g>
  <defs>
    <clipPath id="layerzero_svg__a">
      <path fill="#fff" d="M0 0h20v20H0z"/>
    </clipPath>
  </defs>
</svg>
