<svg xmlns="http://www.w3.org/2000/svg" fill="none" viewBox="0 0 80 80">
  <g clip-path="url(#lido-staked-ether_svg__a)">
    <rect width="80" height="80" fill="#fff" rx="40"/>
    <path fill="#00A3FF" d="m54.767 35.471.403.614c4.546 6.92 3.53 15.984-2.44 21.79C49.215 61.291 44.611 63 40.007 63z" opacity=".6"/>
    <path fill="#00A3FF" d="m40.006 43.838 14.76-8.367L40.006 63z" opacity=".2"/>
    <path fill="#00A3FF" d="m25.233 35.471-.403.614c-4.546 6.92-3.53 15.984 2.44 21.79C30.785 61.291 35.389 63 39.993 63z"/>
    <path fill="#00A3FF" d="m39.988 43.838-14.76-8.367L39.989 63z" opacity=".6"/>
    <path fill="#00A3FF" d="M40.012 25.147v14.43l12.713-7.21z" opacity=".2"/>
    <path fill="#00A3FF" d="m40.008 25.147-12.723 7.22 12.723 7.21z" opacity=".6"/>
    <path fill="#00A3FF" d="m40.008 13.012-12.723 19.36 12.723-7.24z"/>
    <path fill="#00A3FF" d="m40.012 25.13 12.723 7.24L40.012 13z" opacity=".6"/>
  </g>
  <defs>
    <clipPath id="lido-staked-ether_svg__a">
      <rect width="80" height="80" fill="#fff" rx="40"/>
    </clipPath>
  </defs>
</svg>
