<svg xmlns="http://www.w3.org/2000/svg" xmlns:xlink="http://www.w3.org/1999/xlink" viewBox="0 0 2500 2500">
  <style>
    .lido-dao_svg__st1{clip-path:url(#lido-dao_svg__SVGID_00000175323500588710242480000010409320418089475220_)}.lido-dao_svg__st3{fill:url(#lido-dao_svg__SVGID_00000044889847098847693360000003610436166394470064_)}.lido-dao_svg__st4{clip-path:url(#lido-dao_svg__SVGID_00000132060139772894435250000012028383138600074161_)}.lido-dao_svg__st5{fill-rule:evenodd;clip-rule:evenodd;fill:url(#lido-dao_svg__SVGID_00000102511534257884174120000005995613096072189056_)}.lido-dao_svg__st6{fill:url(#lido-dao_svg__SVGID_00000047035653201721046440000013437142730650075042_)}.lido-dao_svg__st7{fill:url(#lido-dao_svg__SVGID_00000044171817386892203900000009737351172183354244_)}.lido-dao_svg__st8{fill:url(#lido-dao_svg__SVGID_00000085962081573399893610000001228047778553261499_)}.lido-dao_svg__st9{fill:url(#lido-dao_svg__SVGID_00000058554585950608509210000006868345997990463903_)}
  </style>
  <path fill="none" d="M1250 0c690 0 1250 560 1250 1250s-560 1250-1250 1250S0 1940 0 1250 560 0 1250 0z"/>
  <defs>
    <path id="lido-dao_svg__a" d="M1250 0c690 0 1250 560 1250 1250s-560 1250-1250 1250S0 1940 0 1250 560 0 1250 0z"/>
  </defs>
  <clipPath id="lido-dao_svg__b">
    <use xlink:href="#lido-dao_svg__a" overflow="visible"/>
  </clipPath>
  <g clip-path="url(#lido-dao_svg__b)">
    <path fill="none" stroke="#000" stroke-miterlimit="22.926" d="m0 0 2500 2500m0-2500L0 2500"/>
  </g>
  <linearGradient id="lido-dao_svg__c" x1="1250" x2="1250" y1="-1656" y2="844" gradientTransform="translate(0 1656)" gradientUnits="userSpaceOnUse">
    <stop offset="0" stop-color="#f89791"/>
    <stop offset="1" stop-color="#f7c882"/>
  </linearGradient>
  <path fill="url(#lido-dao_svg__c)" d="M1250 0c690 0 1250 560 1250 1250s-560 1250-1250 1250S0 1940 0 1250 560 0 1250 0z"/>
  <defs>
    <path id="lido-dao_svg__d" d="m1249 1472-557-318-15 23c-171 263-133 607 92 828 265 260 695 260 960 0 225-221 263-565 92-828l-15-23-557 318z"/>
  </defs>
  <clipPath id="lido-dao_svg__e">
    <use xlink:href="#lido-dao_svg__d" overflow="visible"/>
  </clipPath>
  <g clip-path="url(#lido-dao_svg__e)">
    <radialGradient id="lido-dao_svg__f" cx="4255.891" cy="1058.028" r="594" gradientTransform="matrix(-.01243 -1.5265 1.8194 -.02652 -624.372 8621.436)" gradientUnits="userSpaceOnUse">
      <stop offset="0" stop-color="#c5c6ab"/>
      <stop offset="1" stop-color="#7985ab"/>
    </radialGradient>
    <circle cx="1249" cy="1541" r="679" fill="url(#lido-dao_svg__f)" fill-rule="evenodd" clip-rule="evenodd"/>
  </g>
  <path fill="none" d="m1249 1472-557-318-15 23c-171 263-133 607 92 828 265 260 695 260 960 0 225-221 263-565 92-828l-15-23-557 318z"/>
  <radialGradient id="lido-dao_svg__g" cx="1249" cy="-620" r="24" gradientTransform="translate(0 1656)" gradientUnits="userSpaceOnUse">
    <stop offset="0" stop-color="#06f" stop-opacity="0"/>
    <stop offset="1" stop-color="#00c2ff" stop-opacity=".4"/>
  </radialGradient>
  <path fill="url(#lido-dao_svg__g)" d="m1249 762-480 274 480 274 480-274z"/>
  <radialGradient id="lido-dao_svg__h" cx="1248.5" cy="-503.5" r="28.008" gradientTransform="translate(0 1656)" gradientUnits="userSpaceOnUse">
    <stop offset="0" stop-color="#aee6f9" stop-opacity=".859"/>
    <stop offset="1" stop-color="#c8d6dc"/>
  </radialGradient>
  <path fill="url(#lido-dao_svg__h)" d="m1250 833-558 321 557 318 556-318z"/>
  <linearGradient id="lido-dao_svg__i" x1="1009" x2="1009" y1="-1406" y2="-406" gradientTransform="translate(0 1656)" gradientUnits="userSpaceOnUse">
    <stop offset="0" stop-color="#77d4ff"/>
    <stop offset="1" stop-color="#93d6f2" stop-opacity=".898"/>
  </linearGradient>
  <path fill="url(#lido-dao_svg__i)" d="m1249 300-480 736 480 274z"/>
  <linearGradient id="lido-dao_svg__j" x1="1489" x2="1489" y1="-1406" y2="-406" gradientTransform="translate(0 1656)" gradientUnits="userSpaceOnUse">
    <stop offset="0" stop-color="#506aac"/>
    <stop offset="1" stop-color="#96cfef" stop-opacity=".82"/>
  </linearGradient>
  <path fill="url(#lido-dao_svg__j)" d="m1249 1310 480-274-480-736z"/>
</svg>
