<svg xmlns="http://www.w3.org/2000/svg" fill="none" viewBox="0 0 20 20">
  <g clip-path="url(#liquity-usd_svg__a)">
    <mask id="liquity-usd_svg__b" width="20" height="20" x="0" y="0" maskUnits="userSpaceOnUse" style="mask-type:luminance">
      <path fill="#fff" d="M20 0H0v20h20z"/>
    </mask>
    <g mask="url(#liquity-usd_svg__b)">
      <path fill="#745DDF" d="M19.6 12.864a9.99 9.99 0 0 1-7.816 7.048v-2.848a4.8 4.8 0 0 0 1.776-1.192 4.62 4.62 0 0 0 1.24-3.152v-.024c0-2.512-1.816-3.52-3.52-4.264l-.864-.384c-.92-.416-1.624-.784-1.624-1.408 0-.872.76-1.336 1.472-1.336.76 0 1.192.28 1.648 1.072l.352.616 2.28-1.464-.296-.552a4.45 4.45 0 0 0-2.464-2.128V.24c.224.04.44.088.664.144.024.008.048.008.072.016s.048.008.072.016c.008 0 .016 0 .024.008.056.016.12.032.184.048a9.994 9.994 0 0 1 6.808 12.392z"/>
      <path fill="#2EB6EA" d="M12 12.832c0 1.144-1.032 1.856-1.992 1.856-1.152 0-1.808-.952-1.936-1.832l-.112-.768-2.76.776.128.616c.392 1.944 1.72 3.344 3.528 3.76v2.752a10 10 0 0 1-1.448-.28c-.064-.016-.136-.032-.2-.056A10 10 0 0 1 0 10.056V.448C0 .232.176.056.392.056h8.464v2.752a4.08 4.08 0 0 0-2.36 1.824 3.8 3.8 0 0 0-.512 1.912v.08c.024 2.24 1.672 3.184 3.232 3.888l.776.336.064.032c1.232.568 1.928.936 1.928 1.944z"/>
      <path fill="#fff" d="M14.792 12.696v.024c0 .76-.184 1.504-.544 2.176a4.4 4.4 0 0 1-.696.976 4.8 4.8 0 0 1-1.776 1.192v2.856l-.8.072s-1.712.048-2.12 0l-.008-2.744c-1.8-.424-3.128-1.816-3.528-3.76l-.128-.616 2.76-.776.112.768c.128.88.784 1.832 1.936 1.832.96 0 1.992-.712 1.992-1.856 0-1.008-.696-1.376-1.936-1.944l-.064-.032-.776-.336c-1.56-.704-3.208-1.64-3.232-3.888v-.08c0-.672.176-1.328.512-1.912a4.02 4.02 0 0 1 2.36-1.824V.072c1.8-.016 1.944-.008 2.928.168v2.616a4.4 4.4 0 0 1 2.464 2.128l.296.552L12.264 7l-.352-.616c-.456-.792-.888-1.072-1.648-1.072-.72 0-1.472.464-1.472 1.336 0 .632.704 1 1.624 1.408l.864.384c1.704.744 3.52 1.752 3.52 4.264z"/>
    </g>
  </g>
  <defs>
    <clipPath id="liquity-usd_svg__a">
      <path fill="#fff" d="M0 0h20v20H0z"/>
    </clipPath>
  </defs>
</svg>
