<svg xmlns="http://www.w3.org/2000/svg" fill="none" viewBox="0 0 20 20">
  <circle cx="10" cy="10" r="10" fill="#3949a1"/>
  <path fill="#fff" fill-rule="evenodd" d="m13.86 16.605-8.594-6.029-1.06.74a1.698 1.698 0 0 0 0 2.783l1.922 1.348 2.23-1.557.818.576-3.046 2.13-2.46-1.726a2.642 2.642 0 0 1 0-4.325l.586-.409-.004-.005.19-.133-.772-.541a2.64 2.64 0 0 1 0-4.325l2.47-1.736 8.594 6.03 1.055-.737a1.697 1.697 0 0 0 0-2.783l-1.922-1.348-2.227 1.559-.817-.576 3.048-2.133 2.464 1.728-.003-.006a2.64 2.64 0 0 1 0 4.325l-.432.302.003.004-.346.242.773.542a2.64 2.64 0 0 1 0 4.325zm.872-6.026 1.054.74a1.698 1.698 0 0 1 0 2.782l-1.924 1.346-7.77-5.448 3.086-2.155-.817-.576-.227.159-.007-.01L5.266 9.42l-1.054-.739a1.698 1.698 0 0 1 0-2.782l1.924-1.346 7.771 5.448-3.09 2.16.816.575 2.307-1.611.004.006z" clip-rule="evenodd"/>
</svg>
