<svg xmlns="http://www.w3.org/2000/svg" viewBox="0 0 500 500">
  <linearGradient id="mantra-dao_svg__a" x1="484.87" x2="-54.658" y1="339.6" y2="138.34" gradientTransform="matrix(1 0 0 -1 0 502)" gradientUnits="userSpaceOnUse">
    <stop offset=".372" stop-color="#ff97d6"/>
    <stop offset=".802" stop-color="#f8b994"/>
  </linearGradient>
  <path fill="url(#mantra-dao_svg__a)" d="M250 0c138.2 0 250 112.1 250 250 0 138.2-112.1 250-250 250C111.8 500 0 387.9 0 250S112.1 0 250 0"/>
  <path fill="#373535" d="M284.4 192.3 250.2 158l-34.1 34.1 34.1 34.4zm89.7-1.4-93.2 91.3c-16.9 16.7-44.5 16.7-61.4 0l-93.2-91.3-33 33.9 93.2 91.3c17.7 17.2 40.7 25.9 63.8 25.9s46.1-8.7 63.8-25.9l93.2-91.3z"/>
</svg>
