<svg xmlns="http://www.w3.org/2000/svg" fill="none" viewBox="0 0 20 20">
  <circle cx="10" cy="10" r="10" fill="#000"/>
  <path fill="#fff" d="m5.771 7.853-2.18-1.11a7 7 0 0 0-.43 1.044l2.327.753c.076-.235.17-.467.283-.687m1.852-1.956 1.207 2.08a2.3 2.3 0 0 1 .562-.233L8.767 5.42q.239-.065.483-.104L8.866 2.9q-.56.09-1.097.265l.746 2.288a5 5 0 0 0-.691.287L6.726 3.6c-.333.171-.656.37-.96.592L7.21 6.166q.2-.144.414-.269m6.478 1.723-2.08 1.21q.154.264.235.56l2.322-.626a5 5 0 0 1 .104.483l2.416-.385a7 7 0 0 0-.265-1.097l-2.288.748a5 5 0 0 0-.288-.691l2.141-1.099a7 7 0 0 0-.591-.96l-1.976 1.444q.145.199.27.414m-.849-4.031a7 7 0 0 0-1.044-.431l-.751 2.328q.354.114.687.283zm-.868 2.265-1.22 2.119q.265.154.484.371l3.425-3.436a7 7 0 0 0-.858-.731l-1.412 1.948a5 5 0 0 0-.419-.271M5.856 7.613l2.12 1.222q.153-.266.371-.485L4.912 4.924a7 7 0 0 0-.731.858l1.947 1.413a5 5 0 0 0-.272.418m4.885-2.337.37-2.378A7 7 0 0 0 10 2.812h-.006v4.852H10q.308 0 .601.078l.628-2.364a5 5 0 0 0-.488-.102M7.743 9.397l-2.364-.629q-.064.24-.103.488L2.9 8.885A7 7 0 0 0 2.812 10h4.852q0-.309.079-.603m6.487 2.75 2.18 1.11a7 7 0 0 0 .43-1.044l-2.327-.752a5 5 0 0 1-.283.686m-1.853 1.956-1.207-2.08q-.266.153-.562.233l.625 2.323q-.239.065-.483.104l.384 2.415c.371-.059.74-.148 1.097-.264l-.747-2.288q.358-.117.692-.288l1.097 2.142c.334-.17.657-.37.96-.59l-1.442-1.977a5 5 0 0 1-.414.27M5.899 12.38l2.08-1.209a2.3 2.3 0 0 1-.234-.56l-2.323.625a5 5 0 0 1-.104-.482l-2.416.384c.06.371.149.74.265 1.097l2.288-.748q.117.357.288.692l-2.141 1.098c.17.334.37.657.591.96l1.976-1.443a5 5 0 0 1-.27-.414m.848 4.03a7 7 0 0 0 1.044.431l.751-2.328a5 5 0 0 1-.687-.283zm.868-2.264 1.222-2.12a2.4 2.4 0 0 1-.485-.37l-3.425 3.436c.265.265.554.51.858.73l1.412-1.947q.202.146.418.27m6.53-1.758-2.119-1.222q-.154.267-.372.485l3.435 3.426a7 7 0 0 0 .731-.857l-1.947-1.413a5 5 0 0 0 .272-.419m-4.746-.129-.628 2.364q.242.064.488.102l-.37 2.378c.366.057.74.085 1.112.085h.005v-4.851h-.005q-.308 0-.602-.078M12.336 10q0 .309-.078.603l2.364.63q.064-.242.102-.488l2.378.37c.057-.366.086-.741.086-1.114z"/>
</svg>
