<svg xmlns="http://www.w3.org/2000/svg" viewBox="0 0 20 20">
  <circle cx="10" cy="10" r="10" fill="url(#mantra-dao_svg__a)"/>
  <path fill="#373535" d="M9.342 7.606c-.327.327-.596.645-.596.702 0 .048.279.375.625.712l.624.616.625-.616c.346-.337.624-.664.624-.721C11.244 8.202 10.082 7 9.985 7c-.019 0-.317.27-.643.606"/>
  <path fill="#373535" d="M4.615 8.886 4 9.52l1.97 1.963c1.652 1.645 2.065 2 2.536 2.203a3.63 3.63 0 0 0 3.41-.24c.24-.155 1.25-1.107 2.258-2.117L16 9.5l-.644-.644-.653-.654-1.845 1.847c-1.864 1.856-2.248 2.145-2.863 2.145-.595 0-.999-.289-2.69-1.953-.922-.914-1.768-1.732-1.883-1.828-.192-.163-.211-.144-.807.472"/>
  <defs>
    <linearGradient id="mantra-dao_svg__a" x1="2" x2="15" y1="10" y2="5.5" gradientUnits="userSpaceOnUse">
      <stop stop-color="#f9b994"/>
      <stop offset="1" stop-color="#ff97d6"/>
    </linearGradient>
  </defs>
</svg>
