<svg xmlns="http://www.w3.org/2000/svg" fill="none" viewBox="0 0 20 20">
  <g clip-path="url(#maple-finance_svg__a)">
    <path fill="#FC784A" d="M10 20c5.523 0 10-4.477 10-10S15.523 0 10 0 0 4.477 0 10s4.477 10 10 10"/>
    <path fill="#fff" d="M5.101 8.866c2.14-.062 7.24-.297 8.38-1.958.865-1.263-1.046-2.577-1.953-3.052-.908-.477-2.172-.69-2.172-.69 2.542.288 6.56 1.685 5.31 4.223C13.546 9.661 7.706 9.97 5.1 9.97V8.866zm.001 5.657v-1.08c3.233-.107 7.557-.212 9.798-2.349.061 1.882-2.524 2.731-4.503 3.085-1.712.306-3.538.393-5.295.344"/>
    <path fill="#fff" d="M14.8 8.788c-1.775 1.819-5.204 2.356-9.7 2.356v1.09c4.728 0 9.687-.722 9.7-3.446"/>
  </g>
  <defs>
    <clipPath id="maple-finance_svg__a">
      <path fill="#fff" d="M0 0h20v20H0z"/>
    </clipPath>
  </defs>
</svg>
