<svg xmlns="http://www.w3.org/2000/svg" fill="none" viewBox="0 0 149 100">
  <path fill="#2DB8E3" fill-rule="evenodd" d="M96.304 2.956A10.08 10.08 0 0 0 89.152 0h-.026a10.02 10.02 0 0 0-7.149 2.996L2.953 82.478A10.07 10.07 0 0 0 0 89.648a10.1 10.1 0 0 0 2.986 7.163 10.05 10.05 0 0 0 7.141 2.956 10.1 10.1 0 0 0 7.185-2.986l79.021-79.485a10.164 10.164 0 0 0-.03-14.34Z" clip-rule="evenodd"/>
  <path fill="#3840C7" fill-rule="evenodd" d="M142.184.967a10.06 10.06 0 0 0-11.044 2.219L52.108 82.675a10.154 10.154 0 0 0 .037 14.34 10.136 10.136 0 0 0 14.33-.04l61.708-62.067v54.915a10.15 10.15 0 0 0 2.97 7.168 10.13 10.13 0 0 0 7.161 2.972 10.146 10.146 0 0 0 10.13-10.14V10.34a10.09 10.09 0 0 0-6.26-9.374Z" clip-rule="evenodd"/>
</svg>
