<svg xmlns="http://www.w3.org/2000/svg" fill="none" viewBox="0 0 20 20">
  <path fill="#1c68f3" d="M10 20c5.523 0 10-4.477 10-10S15.523 0 10 0 0 4.477 0 10s4.477 10 10 10"/>
  <path fill="#fff" fill-rule="evenodd" d="M16 7.667V11H5.57a4.535 4.535 0 0 0 8.492 1H16v2.8a1.2 1.2 0 0 1-1.2 1.2H5.2A1.2 1.2 0 0 1 4 14.8V7.667zM12.91 12a3.53 3.53 0 0 1-2.918 1.541 3.53 3.53 0 0 1-2.918-1.54zM7.434 8.467c-.94 0-1.718.695-1.847 1.6h1.022a.867.867 0 0 1 1.65 0h1.023a1.87 1.87 0 0 0-1.848-1.6m5.134 0c-.94 0-1.719.695-1.848 1.6h1.023a.867.867 0 0 1 1.65 0h1.022a1.87 1.87 0 0 0-1.847-1.6M14.8 4A1.2 1.2 0 0 1 16 5.2v1.467H4V5.2A1.2 1.2 0 0 1 5.2 4z" clip-rule="evenodd"/>
</svg>
