<svg xmlns="http://www.w3.org/2000/svg" fill="none" viewBox="0 0 50 50">
  <path fill="#CBBBFB" d="M13.728 11.91v2.908h2.909V11.91zm11.636 0v2.908h2.909V11.91zm11.636 0v2.908h2.91V11.91z"/>
  <path fill="#371D70" d="M16.637 14.818h2.909v2.91h2.909v-2.91h2.909V11.91h2.909V9h-5.818v2.91h-5.818z"/>
  <path fill="#371D70" d="M28.273 14.818h2.909v2.91h2.91v-2.91H37V11.91h2.91V9h-5.82v2.91h-5.818zm11.637 0h2.908V11.91H39.91z"/>
  <path fill="#CBBBFB" d="M39.91 14.818v20.364H13.726V14.818h-2.909v23.273h32V14.818z"/>
  <path fill="#371D70" d="M42.818 14.818v23.273h-32V14.818h2.91V11.91h2.908V9h-5.818v2.91H7.91v2.908H5V41h40.727V14.818z"/>
  <path fill="#9F7AF8" d="M13.728 17.727v17.455h26.181V14.818H37v2.91h-2.909v2.908h-2.909v-2.909h-2.909v-2.909h-2.91v2.91h-2.908v2.908h-2.91v-2.909h-2.908v-2.909h-2.91zm8.727 13.091v-7.273h8.727v2.91h-5.818v2.909h5.818v2.909h-8.727z"/>
  <path fill="#CBBBFB" d="M16.637 17.727h2.909v-2.909h-2.91zm8.727 0v-2.909h-2.91v2.91zm2.909 0h2.909v-2.909h-2.91zm8.727 0v-2.909h-2.909v2.91z"/>
  <path fill="#CBBBFB" d="M19.546 20.636h2.909v-2.909h-2.91zm11.636 0h2.909v-2.909h-2.91z"/>
  <path fill="#371D70" d="M25.364 32.273h5.818v-2.91h-5.818v-2.908h5.818v-2.91h-8.727v8.728z"/>
</svg>
