<svg xmlns="http://www.w3.org/2000/svg" fill="none" viewBox="0 0 20 20">
  <circle cx="9.803" cy="9.803" r="9.408" fill="#fff"/>
  <path fill="#B4C7FF" d="M6.447 7.368 2.763 9.605v4.737l3.684-1.513zm6.974-.131-3.553 2.04v5.591l3.553-1.973z"/>
  <path fill="#FBB508" d="M9.934 5 6.776 6.842v.526l3.158 1.843.987-.461 1.776-1.053.264-.855z"/>
  <path fill="#1B61F5" fill-rule="evenodd" d="M8.336.158C4.296.792 1.065 3.864.184 7.91c-.246 1.132-.245 3.026.002 4.152.653 2.975 2.586 5.48 5.267 6.823 3.33 1.668 7.47 1.3 10.426-.925 2.05-1.544 3.42-3.774 3.843-6.256.636-3.732-.828-7.421-3.843-9.691C13.764.42 10.999-.26 8.336.158m2.966 6.29c.675.407 1.223.779 1.218.825-.011.11-2.407 1.562-2.575 1.562-.158 0-2.561-1.448-2.593-1.563-.026-.095 2.4-1.555 2.595-1.562.07-.002.68.33 1.355.738M8.173 8.757c.925.559 1.73 1.016 1.79 1.015.06 0 .87-.457 1.8-1.016l1.689-1.015 1.74 1.052 1.741 1.051.023 1.881c.018 1.493 0 1.872-.085 1.84a64 64 0 0 1-1.743-1.027c-.9-.542-1.669-.985-1.71-.985s-.836.46-1.77 1.022c-1.538.926-1.714 1.012-1.89.919a82 82 0 0 1-1.59-.948c-.767-.464-1.476-.882-1.575-.927-.152-.07-.446.078-1.865.937-.926.56-1.695 1.007-1.71.993-.06-.06-.02-3.733.041-3.756.038-.015.811-.481 1.72-1.037A69 69 0 0 1 6.46 7.742c.017-.001.788.455 1.712 1.015" clip-rule="evenodd"/>
</svg>
