<svg xmlns="http://www.w3.org/2000/svg" fill="none" viewBox="0 0 20 20">
  <g clip-path="url(#mog-coin_svg__a)">
    <path fill="url(#mog-coin_svg__b)" d="M10 20c5.523 0 10-4.477 10-10S15.523 0 10 0 0 4.477 0 10s4.477 10 10 10"/>
    <path fill="#F8C03B" d="M5.628 8.68c-.148-1.955-.334-3.905-.12-4.711a.2.2 0 0 1 .24-.146c1.074.244 2.305.983 3.839 2.069z"/>
    <path fill="#AB5F12" stroke="#904C0D" stroke-miterlimit="10" stroke-width=".039" d="M5.963 8.419c-.13-1.71-.499-3.5-.311-4.204a.177.177 0 0 1 .209-.128c.939.214 2.152 1.02 3.492 1.97z"/>
    <path fill="#F8C03B" d="M14.38 8.68c.148-1.955.334-3.905.12-4.711a.2.2 0 0 0-.24-.146c-1.074.244-2.306.983-3.84 2.069z"/>
    <path fill="#AB5F12" stroke="#904C0D" stroke-miterlimit="10" stroke-width=".039" d="M14.045 8.419c.129-1.71.498-3.5.31-4.204a.177.177 0 0 0-.208-.128c-.94.214-2.152 1.02-3.493 1.97z"/>
    <path fill="url(#mog-coin_svg__c)" d="M13.542 6.996c-1.074-.927-2.069-1.373-3.317-1.465a.4.4 0 0 0-.1-.016l-.1.004-.102-.004a.4.4 0 0 0-.1.016c-1.248.092-2.243.538-3.317 1.465-.761.657-3.07 3.606-1.222 6.448 1.12.95 3.469 2.716 4.776 2.738 1.323 0 3.585-1.788 4.704-2.738 1.848-2.842-.46-5.79-1.222-6.448"/>
    <path fill="url(#mog-coin_svg__d)" d="M13.542 6.996c-1.074-.927-2.069-1.373-3.317-1.465a.4.4 0 0 0-.1-.016l-.1.004-.102-.004a.4.4 0 0 0-.1.016c-1.248.092-2.243.538-3.317 1.465-.761.657-3.07 3.606-1.222 6.448 1.12.95 3.469 2.716 4.776 2.738 1.323 0 3.585-1.788 4.704-2.738 1.848-2.842-.46-5.79-1.222-6.448"/>
    <path fill="#000" d="m14.248 12.86-1.852.044-2.414.057-2.413-.057-1.852-.044s1.265.852 1.731 1.196c.439.324 1.52.94 2.373 1.014a2 2 0 0 0 .323 0c.853-.074 1.933-.69 2.372-1.014a77 77 0 0 1 1.732-1.196"/>
    <path fill="url(#mog-coin_svg__e)" d="M11.564 12.766c-1.262.155-2.52.153-3.767-.13-.202-.047-.812-.21-.93-.237-.725-.233-.605 0 .048.796l.432.529c.149.127.173.038.185-.1.039-.43.13-.526.563-.528.353-.001.706.048 1.058.045.874-.007 1.746-.033 2.62-.048.423-.007.738-.007.725.586-.002.096.042.13.132.08l.5-.591c.985-.855 1.045-1.155.025-.77-.078.014-1.008.296-1.591.368"/>
    <path fill="#4E3106" d="M10.896 10.757c0 .42-.242.852-.896.852-.624 0-.927-.452-.927-.872s.49-.831.91-.831.913.431.913.851"/>
    <path fill="#000" d="M9.707 11.11c.087.116.07.277.003.336-.041.036-.175-.005-.263-.12s-.098-.257-.027-.311c.07-.055.2-.02.287.095m.623 0c-.088.116-.07.277-.004.336.041.036.175-.005.263-.12s.098-.257.027-.311c-.07-.055-.2-.02-.287.095"/>
    <path fill="#253948" d="M8.81 9.791c0 .121-.663-.498-1.53-.498-.865 0-1.52.803-1.485.38.034-.403.627-.842 1.493-.842s1.522.525 1.522.96"/>
    <path fill="#432703" d="M7.302 7.446c.011.12-.22.202-.923.706-.705.504-1.064 1.476-1.198 1.074-.08-.241.157-.976.862-1.48.704-.504 1.238-.54 1.26-.3"/>
    <path fill="#253948" d="M11.192 9.791c0 .121.664-.498 1.53-.498s1.52.803 1.485.38c-.033-.403-.626-.842-1.492-.842s-1.523.525-1.523.96"/>
    <path fill="#432703" d="M12.7 7.446c-.01.12.22.202.924.706s1.063 1.476 1.198 1.074c.08-.241-.158-.976-.862-1.48s-1.238-.54-1.26-.3"/>
    <path fill="#4E3106" d="M8.627 11.106c-.323-.233-.704-.344-1.08-.453-.922-.235-1.938-.348-2.845.005a2 2 0 0 0-.496.295.02.02 0 0 0 .024.03c.302-.227.671-.345 1.042-.4.747-.103 1.513.01 2.234.217.347.11.716.225 1.01.44.093.074.2-.06.111-.134"/>
    <path fill="#4E3106" d="M8.461 11.388c-.338-.21-.726-.296-1.108-.379-.936-.172-1.957-.216-2.838.197a2 2 0 0 0-.475.329.02.02 0 0 0-.001.026.02.02 0 0 0 .027.002c.286-.247.646-.39 1.012-.47.74-.153 1.51-.092 2.244.065.354.086.73.177 1.038.372.097.067.195-.074.101-.142"/>
    <path fill="#4E3106" d="M8.375 11.686c-.354-.185-.747-.24-1.134-.293-.947-.1-1.968-.067-2.815.412a2 2 0 0 0-.448.364.02.02 0 0 0 0 .027.02.02 0 0 0 .028 0c.266-.27.614-.44.973-.547.725-.208 1.5-.206 2.242-.105.36.058.741.12 1.064.29.102.06.189-.088.09-.149m2.963-.579c.323-.233.704-.344 1.08-.453.923-.235 1.938-.348 2.845.005.179.074.348.172.496.295a.02.02 0 0 1-.024.03c-.302-.227-.671-.345-1.042-.4-.747-.103-1.513.01-2.233.217-.348.11-.717.225-1.012.44-.092.074-.199-.06-.11-.134"/>
    <path fill="#4E3106" d="M11.503 11.388c.338-.21.726-.296 1.108-.379.936-.172 1.957-.216 2.838.197.173.086.335.195.475.329a.02.02 0 0 1 .001.026.02.02 0 0 1-.027.002c-.286-.247-.646-.39-1.012-.47-.739-.153-1.51-.092-2.243.065-.355.086-.73.177-1.04.372-.096.067-.194-.074-.1-.142"/>
    <path fill="#4E3106" d="M11.59 11.686c.353-.185.746-.24 1.133-.293.947-.1 1.968-.067 2.815.412.166.1.32.22.448.364a.02.02 0 0 1 0 .027.02.02 0 0 1-.028 0c-.266-.27-.614-.44-.973-.547-.725-.208-1.499-.206-2.242-.105-.36.058-.741.12-1.064.29-.101.06-.188-.088-.09-.149"/>
    <path fill="url(#mog-coin_svg__f)" d="m6.8 12.36.032-.67.037-.87s-1.005.455-1.005.469l-.195.097-.41.185-.573.29c-.83.565-1.378 1.408-.776 2.39.541.883 2.386 1.196 2.794-.353l.075-.285c.043-.164.007-.97.02-1.252"/>
    <path fill="url(#mog-coin_svg__g)" d="m13.2 12.39-.032-.67-.037-.871s1.005.455 1.005.47l.195.096.41.185.573.291c.829.564 1.378 1.408.776 2.389-.542.883-2.386 1.196-2.794-.353l-.075-.284c-.043-.165-.008-.97-.021-1.253"/>
    <path fill="url(#mog-coin_svg__h)" d="M14.609 8.467c-.881-.288-2.716-.303-4.503-.333l-.003-.004-.12.002-.119-.002-.002.004c-1.788.03-3.622.045-4.503.333-.017.954-.013 1.84.052 2.523.897.485 2.512 1.211 2.877 1.107.652-.121.971-2.05 1.696-2.05.724 0 1.044 1.929 1.696 2.05.364.104 1.98-.622 2.877-1.107.064-.683.068-1.569.052-2.523" opacity=".85"/>
    <path fill="#DD216F" d="M11.363 8.13h-2.74v.492h2.74z"/>
    <path fill="#1E1E1E" d="M10.614 10.574s-.316-.534-.632-.511c-.34-.007-.62.498-.62.498l-.17-.085s.288-.718.805-.718.806.706.806.706z"/>
    <path fill="#DD216F" d="m5.666 9.082-.51.149v-.727l.51-.15zm8.633 0 .51.149v-.727l-.51-.15z"/>
  </g>
  <defs>
    <radialGradient id="mog-coin_svg__b" cx="0" cy="0" r="1" gradientTransform="matrix(10 0 0 10 10 10)" gradientUnits="userSpaceOnUse">
      <stop stop-color="#82C2FD"/>
      <stop offset=".808" stop-color="#000F96"/>
      <stop offset=".857" stop-color="#000F92"/>
      <stop offset=".895" stop-color="#000F89"/>
      <stop offset=".93" stop-color="#000F78"/>
      <stop offset=".962" stop-color="#000F61"/>
      <stop offset=".993" stop-color="#000F43"/>
      <stop offset="1" stop-color="#000F3B"/>
    </radialGradient>
    <radialGradient id="mog-coin_svg__c" cx="0" cy="0" r="1" gradientTransform="matrix(4.18398 0 0 4.89287 9.976 10.34)" gradientUnits="userSpaceOnUse">
      <stop stop-color="#FAD347"/>
      <stop offset=".288" stop-color="#F9CD42"/>
      <stop offset=".632" stop-color="#F7BF34"/>
      <stop offset=".761" stop-color="#F7B82D"/>
      <stop offset="1" stop-color="#F2B42C"/>
    </radialGradient>
    <radialGradient id="mog-coin_svg__d" cx="0" cy="0" r="1" gradientTransform="translate(9.971 7.253)scale(2.39819)" gradientUnits="userSpaceOnUse">
      <stop stop-color="#FBE24D"/>
      <stop offset=".626" stop-color="#FBE24D" stop-opacity="0"/>
    </radialGradient>
    <radialGradient id="mog-coin_svg__f" cx="0" cy="0" r="1" gradientTransform="translate(5.496 12.84)scale(2.27981)" gradientUnits="userSpaceOnUse">
      <stop stop-color="#82C2FD"/>
      <stop offset=".739" stop-color="#2F76EA"/>
      <stop offset=".813" stop-color="#3278EA"/>
      <stop offset=".871" stop-color="#3B81EC"/>
      <stop offset=".924" stop-color="#4C90F0"/>
      <stop offset=".973" stop-color="#63A6F6"/>
      <stop offset="1" stop-color="#74B5FA"/>
    </radialGradient>
    <radialGradient id="mog-coin_svg__g" cx="0" cy="0" r="1" gradientTransform="rotate(180 7.252 6.434)scale(2.27981)" gradientUnits="userSpaceOnUse">
      <stop stop-color="#82C2FD"/>
      <stop offset=".739" stop-color="#2F76EA"/>
      <stop offset=".813" stop-color="#3278EA"/>
      <stop offset=".871" stop-color="#3B81EC"/>
      <stop offset=".924" stop-color="#4C90F0"/>
      <stop offset=".973" stop-color="#63A6F6"/>
      <stop offset="1" stop-color="#74B5FA"/>
    </radialGradient>
    <linearGradient id="mog-coin_svg__e" x1="6.372" x2="13.895" y1="13.009" y2="13.009" gradientUnits="userSpaceOnUse">
      <stop stop-color="#9DA2AD"/>
      <stop offset=".005" stop-color="#9EA3AD"/>
      <stop offset=".118" stop-color="#B8BABF"/>
      <stop offset=".233" stop-color="#CBCACB"/>
      <stop offset=".351" stop-color="#D7D4D2"/>
      <stop offset=".476" stop-color="#DBD8D5"/>
      <stop offset=".625" stop-color="#D7D5D2"/>
      <stop offset=".75" stop-color="#CDCCCC"/>
      <stop offset=".865" stop-color="#BBBCC0"/>
      <stop offset=".975" stop-color="#A3A7B1"/>
      <stop offset="1" stop-color="#9DA2AD"/>
    </linearGradient>
    <linearGradient id="mog-coin_svg__h" x1="5.351" x2="14.617" y1="10.118" y2="10.118" gradientUnits="userSpaceOnUse">
      <stop stop-color="#00FF89"/>
      <stop offset=".196" stop-color="#FFEF00"/>
      <stop offset=".265" stop-color="#FFC200"/>
      <stop offset=".339" stop-color="#FF9A00"/>
      <stop offset=".407" stop-color="#FF7D00"/>
      <stop offset=".465" stop-color="#FF6B00"/>
      <stop offset=".507" stop-color="#FF6500"/>
      <stop offset=".548" stop-color="#FF6D00"/>
      <stop offset=".613" stop-color="#FF8300"/>
      <stop offset=".692" stop-color="#FFA700"/>
      <stop offset=".783" stop-color="#FFD900"/>
      <stop offset=".819" stop-color="#FFEF00"/>
      <stop offset="1" stop-color="#00FF89"/>
    </linearGradient>
    <clipPath id="mog-coin_svg__a">
      <path fill="#fff" d="M0 0h20v20H0z"/>
    </clipPath>
  </defs>
</svg>
