<svg xmlns="http://www.w3.org/2000/svg" fill="none" viewBox="0 0 20 20">
  <circle cx="10" cy="10" r="10" fill="#020b2c"/>
  <path fill="url(#monad_svg__a)" d="M10.87 6.045a.27.27 0 0 1 .493 0l.72 1.666c.2.468.586.824 1.064.988l3.045 1.049c.242.082.242.432 0 .514v-.005l-3.045 1.05a1.8 1.8 0 0 0-1.064.987l-.72 1.666c-.092.216-.396.216-.494 0l-.669-1.543a1.79 1.79 0 0 0-1.264-1.044l-5.102-1.106c-.283-.062-.283-.467 0-.529l5.102-1.106A1.8 1.8 0 0 0 10.2 7.588z"/>
  <path fill="url(#monad_svg__b)" d="M10.621 5.938a.54.54 0 0 1 .948-.079l.04.074.002.005.72 1.666c.17.398.498.7.904.84l3.043 1.048c.486.165.487.86 0 1.026l-.356.121v-.003l-2.687.925a1.53 1.53 0 0 0-.833.697l-.071.143-.72 1.667v-.001c-.19.44-.797.426-.988.005l-.002-.004-.668-1.544a1.52 1.52 0 0 0-1.073-.887L3.776 10.53c-.565-.124-.565-.933 0-1.057L8.878 8.37l.176-.05c.4-.139.726-.44.899-.838zm.742.107a.27.27 0 0 0-.494 0L10.2 7.588a1.79 1.79 0 0 1-1.264 1.044L3.834 9.738c-.283.062-.283.467 0 .53l5.102 1.105a1.79 1.79 0 0 1 1.264 1.044l.67 1.543a.27.27 0 0 0 .493 0l.72-1.666a1.8 1.8 0 0 1 1.064-.988l3.045-1.048v.004c.242-.082.242-.432 0-.514l-3.045-1.049a1.8 1.8 0 0 1-1.064-.988z"/>
  <path fill="#929bb8" d="M16 8.09h.157v.44h.107v-.44h.157V8H16zm.745.271L16.647 8h-.16v.53h.1v-.417l.104.417h.103l.106-.417v.417h.1V8h-.16z"/>
  <defs>
    <linearGradient id="monad_svg__a" x1="12.25" x2="8.65" y1="8.65" y2="12.25" gradientUnits="userSpaceOnUse">
      <stop stop-color="#fefefe"/>
      <stop offset="1" stop-color="#a2a4b1"/>
    </linearGradient>
    <linearGradient id="monad_svg__b" x1="13.15" x2="7.3" y1="7.3" y2="11.8" gradientUnits="userSpaceOnUse">
      <stop stop-color="#fbfbf9"/>
      <stop offset="1" stop-color="#e1e4f3"/>
    </linearGradient>
  </defs>
</svg>
