<svg xmlns="http://www.w3.org/2000/svg" fill="none" viewBox="0 0 74 74">
  <path fill="#fff" d="M52.887 56.08h15.549c1.654-2.815 2.401-4.474 3.49-7.521H60.89v-31.05L36.903 41.498 12.916 17.51v31.049H1.88c1.129 3.042 1.884 4.716 3.49 7.52h15.55V36.542l15.982 15.984 15.985-15.984z"/>
  <path fill="#f60" d="M0 36.902C0 16.524 16.526 0 36.903 0c20.378 0 36.904 16.524 36.904 36.902 0 4.074-.66 7.992-1.88 11.657H60.89v-31.05L36.903 41.498 12.916 17.51v31.049H1.88A36.8 36.8 0 0 1 0 36.902"/>
  <path fill="#4c4c4c" d="M20.92 36.542v19.537H5.37c6.478 10.628 18.178 17.726 31.533 17.726s25.056-7.098 31.533-17.726h-15.55V36.542L36.903 52.526z"/>
</svg>
