<svg xmlns="http://www.w3.org/2000/svg" fill="none" viewBox="0 0 20 20">
  <circle cx="10" cy="10" r="10" fill="#2470FF"/>
  <path fill="#D3E2FF" d="M5.693 11.767V14.8c0 .186.158.264.208.281a.34.34 0 0 0 .361-.07l2.294-2.205c.196-.187.384-.385.526-.616a2 2 0 0 0 .094-.17.89.89 0 0 0 .004-.834c-.204-.409-.724-.824-1.507-1.219l-1.337.747c-.397.225-.643.623-.643 1.053"/>
  <path fill="#fff" d="M4.375 5.022v3.18c0 .399.267.751.646.864 1.292.373 3.542 1.176 4.087 2.356.07.155.112.306.126.465a3.75 3.75 0 0 0 .45-2.184 3.75 3.75 0 0 0-1.58-2.708L4.898 4.75a.3.3 0 0 0-.19-.063.3.3 0 0 0-.157.039.34.34 0 0 0-.176.295"/>
  <path fill="#D3E2FF" d="M14.226 11.767V14.8c0 .186-.158.264-.207.281a.34.34 0 0 1-.361-.07l-2.348-2.256a3 3 0 0 1-.433-.502c-.095-.148-.134-.232-.134-.232a.89.89 0 0 1-.003-.835c.204-.409.723-.824 1.506-1.219l1.338.747c.4.225.642.623.642 1.053"/>
  <path fill="#fff" d="M15.548 5.022v3.18c0 .399-.267.75-.646.863-1.292.374-3.543 1.177-4.087 2.357-.07.155-.112.306-.126.465a3.75 3.75 0 0 1-.45-2.184 3.75 3.75 0 0 1 1.58-2.709l3.206-2.243a.3.3 0 0 1 .19-.064q.08-.002.157.04a.34.34 0 0 1 .176.295"/>
</svg>
