<svg xmlns="http://www.w3.org/2000/svg" fill="none" viewBox="0 0 20 20">
  <path fill="#EA8397" d="M10.59 13.99a.6.6 0 0 0-.101-.137 3.23 3.23 0 0 0 2.082-1.41c1.827.78 3.537 1.739 4.976 3.128.047.045.1.083.16.126q.047.031.098.07c.134-.339-.018-.52-.232-.682-1.508-1.146-3.079-2.19-4.835-2.929a3.3 3.3 0 0 0 .372-1.533c0-.66-.19-1.274-.52-1.789 1.316-1.55 2.87-2.667 5.09-2.595a.6.6 0 0 0-.299-.113 12 12 0 0 1-.394-.012c-.339-.014-.678-.028-1.002.034-1.553.293-2.636 1.27-3.574 2.432A3.2 3.2 0 0 0 9.62 7.344a1 1 0 0 0 .009-.154l-.03-.48c-.04-.632-.079-1.264-.142-1.894-.079-.793-.229-1.574-.604-2.292a1.4 1.4 0 0 0-.138-.203l-.054-.072.822 5.11a3.23 3.23 0 0 0-2.378 1.574q-.306-.51-.61-1.024l-.148-.249-.075.043c.21.48.437.95.755 1.37a3.3 3.3 0 0 0-.301.82c-.829-.4-1.67-.767-2.587-.923a3.7 3.7 0 0 0-2.127.245c-.332.143-.45.33-.39.644l.078-.028a1 1 0 0 0 .13-.052c.728-.39 1.512-.53 2.303-.33.557.142 1.1.337 1.643.531q.343.124.687.242.1.035.199.075-.015.16-.016.326c0 1.338.786 2.49 1.913 3.003l-.006.01-.006.009q-.158.239-.305.484l-.144.232c-.676 1.082-1.363 2.156-2.4 2.95-.01.008-.01.027-.012.05l-.005.037c.316.034.563-.096.792-.267.544-.405.904-.964 1.25-1.528.365-.597.711-1.206 1.058-1.815l.013-.023.021-.036a3.2 3.2 0 0 0 1.633.131c.232.76.631 1.432 1.15 2.033.175.202.192.368.082.6-.596 1.254-1.464 2.269-2.672 2.976-1.452.85-3.045.66-4.327-.427-1.324-1.124-1.495-2.514-1.05-4.066a7 7 0 0 1 .263-.713q.07-.168.138-.344H4.03l.242-.485a1 1 0 0 0 .124-.152c-1.587-.048-3.018-.313-3.851-1.797l-.008.006a4.4 4.4 0 0 1-.423-1.067c.05-.085.02-.195-.043-.423l-.024-.09c-.067-.243-.05-.513-.033-.776l.01-.154c.02-.424.05-.85.114-1.27.097-.634.33-1.213.81-1.673a2 2 0 0 0 .178-.208c.056-.072.113-.145.179-.208.39-.372.908-.371 1.383-.354.427.015.851.092 1.275.169q.243.044.484.084c.08.013.157.038.227.062l.088.028q.045-.287.086-.571c.061-.417.122-.83.214-1.236a5.46 5.46 0 0 1 1.132-2.272C7.58-.15 10.073-.675 12.082 1.127a6.7 6.7 0 0 1 1.477 1.903l.006.01.002.006c.057.108.101.195.274.132 1.255-.46 2.479-.34 3.67.146 1.57.969 2.28 2.57 2.489 3.678l-.005-.005c-.002 1.644-.976 2.633-2.23 3.544q.158.142.312.273c.217.185.422.361.604.558.862.93 1.344 2.023 1.278 3.302-.051.977-.397 1.873-1.043 2.606-.99 1.123-2.278 1.164-3.592.75-2.145-.675-3.74-2.02-4.734-4.04"/>
  <path fill="#FEECAC" d="M10.489 13.853a3.23 3.23 0 0 0 2.082-1.41l.167-.287a3.3 3.3 0 0 0 .372-1.533c0-.66-.19-1.274-.52-1.789l-.179-.254A3.2 3.2 0 0 0 9.62 7.344l-.136.014a3.23 3.23 0 0 0-2.38 1.575l-.077.14a3.3 3.3 0 0 0-.301.82l-.064.404q-.016.16-.016.326c0 1.338.786 2.49 1.913 3.003l.256.103a3.2 3.2 0 0 0 1.633.131z"/>
</svg>
