<svg xmlns="http://www.w3.org/2000/svg" fill="none" viewBox="0 0 20 20">
  <circle cx="10" cy="10" r="10" fill="#fff"/>
  <path fill="#000" d="m13.026 5.542-2.09 3.104a.222.222 0 0 0 .33.292l2.058-1.785a.084.084 0 0 1 .139.063v5.587a.083.083 0 0 1-.148.054l-6.22-7.445a1.07 1.07 0 0 0-.812-.377h-.218A1.065 1.065 0 0 0 5 6.1v7.87a1.065 1.065 0 0 0 1.065 1.065 1.07 1.07 0 0 0 .909-.508l2.09-3.103a.222.222 0 0 0-.33-.292l-2.058 1.785a.08.08 0 0 1-.09.013.08.08 0 0 1-.049-.076v-5.59a.083.083 0 0 1 .148-.053l6.219 7.447a1.07 1.07 0 0 0 .813.377h.217A1.065 1.065 0 0 0 15 13.97V6.1a1.065 1.065 0 0 0-1.974-.558"/>
</svg>
