<svg xmlns="http://www.w3.org/2000/svg" viewBox="0 0 1000 1000">
  <path fill="#0a0d11" fill-rule="evenodd" d="M500 1000c276.1 0 500-223.9 500-500S776.1 0 500 0 0 223.9 0 500s223.9 500 500 500" clip-rule="evenodd"/>
  <path fill="#544b40" fill-rule="evenodd" d="M500 984.4c267.5 0 484.4-216.9 484.4-484.4S767.5 15.6 500 15.6 15.6 232.5 15.6 500 232.5 984.4 500 984.4M1000 500c0 276.1-223.9 500-500 500S0 776.1 0 500 223.9 0 500 0s500 223.9 500 500" clip-rule="evenodd"/>
  <path fill="#e1d8c7" d="M436.5 462.5c-5.1-4.7-13.1 1.5-9.1 7.7l62.7 101.3c2.6 3.6 1.5 8.7-2.6 10.9-1.5 1.1-2.9 1.5-4.4 1.5-2.6 0-5.1-1.5-6.6-3.6l-88.9-130.5c-4-5.5-12.8-1.1-10.6 5.5l66 180.1c1.1 3.6 0 7.7-3.6 9.5-1.5.7-2.9 1.5-4.4 1.5-3.3 0-6.2-2.2-7.3-5.5L344 459.5c-2.9-6.6-12.8-4-11.7 3.3l39.4 220.9c.4 3.6-1.5 7.3-4.4 8.7-5.9 2.4-14.1 5.2-16-4L306 484c-1.5-6.9-11.7-5.8-12 1.1l2.6 224.2c0 4-2.9 7.3-6.9 8-3.6.7-7.7 1.1-11.7 1.5-4.7.4-8.7-3.3-9.1-7.7l-4.7-200.9c-.4-7.7-10.6-8.4-12-1.1L212 708.9c-.7 4.4-4.7 7.3-9.1 6.6-8.4-1.1-16.4-2.9-24.8-4.7-4.4-1.1-6.9-5.5-5.8-9.8l75.8-364.2c4.7-24.1 25.9-41.6 51-41.6 14.6 0 27.7 5.8 37.2 14.9l227.5 227.5c5.1 4.7 13.1-1.5 9.1-7.7l-62.7-101.3c-2.6-3.6-1.5-8.7 2.6-10.9 1.5-1.1 2.9-1.5 4.4-1.5 2.6 0 5.1 1.5 6.6 3.6l88.9 130.5c4 5.5 12.8 1.1 10.6-5.5l-66-180.1c-1.1-3.6.4-7.7 3.6-9.5 1.5-.7 2.9-1.5 4.4-1.5 3.3 0 6.2 2.2 7.3 5.5l83.8 181.2c2.9 6.6 12.8 4 11.7-3.3l-39.4-220.9c-.4-3.6 1.5-7.3 4.4-8.7 5.9-2.4 14.1-5.2 16 4L694.3 516c1.5 6.9 11.7 5.8 12-1.1l-2.6-224.2c0-4 2.9-7.3 6.9-8 3.6-.7 7.7-1.1 11.7-1.5 4.7-.4 8.7 3.3 9.1 7.7l4.7 200.9c.4 7.7 10.6 8.4 12 1.1l40.1-199.8c.7-4.4 4.7-7.3 9.1-6.6 8.4 1.1 16.4 2.9 24.8 4.7 4.4 1.1 6.9 5.5 5.8 9.8l-75.8 364.2c-4.7 24.1-25.9 41.6-51 41.6-14.6 0-27.7-5.8-37.2-14.9z"/>
</svg>
