<svg xmlns="http://www.w3.org/2000/svg" viewBox="0 0 20 20">
  <circle cx="10" cy="10" r="10" fill="#0a0d12"/>
  <path fill="#e1d8c7" d="M16.54 5.864a.13.13 0 0 0-.082-.057l-.32-.068a.12.12 0 0 0-.119.1l-.824 4.33c-.016.055-.105.044-.1-.016v-.002l.253-4.403a.12.12 0 0 0-.106-.119 1 1 0 0 0-.092-.004.114.114 0 0 0-.113.105l-.439 5.087c-.003.064-.09.06-.096.003l-.278-5.024c-.004-.054-.047-.094-.117-.094l-.068.01a.1.1 0 0 0-.086.102l.082 5.374c-.002.06-.087.067-.097.005l-.893-5.067a.113.113 0 0 0-.112-.098.14.14 0 0 0-.057.015c-.054.022-.083.072-.074.121l.681 5.284c.005.06-.08.076-.097.02l-1.532-4.722a.11.11 0 0 0-.104-.073.1.1 0 0 0-.063.02c-.031.021-.048.054-.043.119l1.249 4.729c.012.056-.065.084-.094.03l-.003-.005-1.97-3.931a.09.09 0 0 0-.148-.021.1.1 0 0 0-.025.062l.006.036 1.654 3.783c.025.055-.051.098-.087.048l-.005-.008-2.102-2.921a.1.1 0 0 0-.065-.032.2.2 0 0 0-.048.018.07.07 0 0 0-.03.059c0 .007.009.038.013.044l1.592 2.42c.033.05-.036.105-.08.06 0 0-4.982-5.014-4.985-5.014v.001a.93.93 0 0 0-.645-.259.89.89 0 0 0-.873.705L3.44 14.038a.13.13 0 0 0 .019.098q.03.046.082.057l.32.068c.06 0 .11-.042.119-.1l.824-4.328c.014-.058.105-.047.101.015l-.253 4.404c0 .063.046.114.107.12q.036.004.072.003h.02a.114.114 0 0 0 .113-.105l.439-5.086c.003-.066.094-.062.098 0l.275 5.021c.005.054.048.094.118.094l.068-.01a.1.1 0 0 0 .086-.102l-.083-5.373c0-.062.087-.069.098-.008l.892 5.068a.113.113 0 0 0 .113.098.14.14 0 0 0 .057-.015c.053-.021.083-.071.073-.121l-.681-5.281c-.007-.062.08-.08.098-.022v.001l1.532 4.72a.11.11 0 0 0 .104.073.1.1 0 0 0 .062-.02c.032-.021.049-.054.044-.12L7.108 8.46c-.015-.059.065-.088.094-.033l1.971 3.936a.09.09 0 0 0 .148.02.1.1 0 0 0 .026-.062l-.006-.035-1.654-3.784c-.025-.054.051-.097.087-.047l.004.006 2.103 2.922q.027.031.065.032a.2.2 0 0 0 .047-.018.07.07 0 0 0 .031-.06.2.2 0 0 0-.013-.044l-1.592-2.42c-.033-.05.036-.103.079-.061 4.77 4.755 4.982 5.014 4.986 5.014a.93.93 0 0 0 .645.258c.42 0 .78-.29.873-.704l1.558-7.42a.13.13 0 0 0-.019-.099z"/>
</svg>
