<svg xmlns="http://www.w3.org/2000/svg" fill="none" viewBox="0 0 20 20">
  <g clip-path="url(#numeraire_svg__a)">
    <path fill="#050708" d="M18.779 13.375v-6.75a.72.72 0 0 0-.291-.594L10.446.154a.72.72 0 0 0-.918.022L1.542 6.012a.75.75 0 0 0-.32.618q-.003 3.374 0 6.746a.75.75 0 0 0 .323.618q3.993 2.916 7.983 5.834a.73.73 0 0 0 .917.023q4.008-2.927 8.014-5.856a.73.73 0 0 0 .32-.62"/>
    <path fill="#fff" d="M9.073 1.623c.07-.08.143-.205.267-.188.422.003.845-.007 1.267.005.073.045.129.113.191.172v1.307c-.125.001-.251.007-.377-.002l-.03-.122c0-.325.028-.65.001-.976h-.93l-.003.33-.393-.002c.001-.174-.018-.351.007-.524m-1.053.532q.214-.008.43-.002c.001.602.004 1.204-.002 1.806q-.204.004-.408.002c-.045-.6-.01-1.204-.02-1.806m3.63.647q.57-.006 1.14 0 .003.207 0 .416-.57.007-1.14 0zm-2.303.205q.23-.004.46-.003c.146.286.33.552.45.851q-.211.009-.423.007a34 34 0 0 1-.487-.855m1.565.503q.198-.005.398-.001c.361.56.712 1.126 1.076 1.685q0 .255-.003.51l-.156-.027c-.309-.46-.592-.937-.898-1.399-.005.52.002 1.04-.003 1.56q-.207.005-.415 0c-.002-.776-.005-1.552 0-2.329m1.649.315q.212-.005.424.001v.4a10 10 0 0 1-.424.001zm-6.98.132q.166-.003.333 0c.298-.02.595-.015.893.002l-.001.388c-.44.264-.863.557-1.31.81-.131-.05-.232-.155-.339-.243.292-.178.578-.365.873-.539-.15-.007-.3-.006-.448-.008a13 13 0 0 1-.002-.41M9.1 4.11q.204-.007.41 0 .005.204 0 .41a7 7 0 0 1-.41 0 9 9 0 0 1 0-.41m-2.007.4c.219.332.431.669.653.999.221-.334.435-.673.659-1.005 0 .22.014.442-.005.662-.203.347-.437.675-.656 1.013-.214-.332-.442-.657-.646-.996-.023-.223-.006-.449-.005-.672m6.06.056q.986-.005 1.971 0v.4q-.985.003-1.971 0zm-3.478.52q.198-.003.397-.001c.007.583 0 1.166.004 1.75q-.093.088-.183.178c-.455.005-.91 0-1.365.002-.06-.057-.122-.112-.176-.174-.023-.179-.006-.361-.006-.54h.38q.005.153.002.308c.313.035.63.01.944.018.001-.514-.004-1.028.003-1.541m6.352 1.723a69 69 0 0 1 0-1.32 9 9 0 0 1 .414 0q.006.66 0 1.32-.207.004-.414 0m-1.962-.988c.26-.003.522-.043.78-.001.17.552.315 1.113.483 1.666h-.4c-.127-.428-.235-.862-.366-1.29l-.22.002c-.109.432-.24.858-.352 1.288h-.403c.165-.553.32-1.11.478-1.665M2.95 6.033q.898-.007 1.797 0 .005.205 0 .412-.9.007-1.798 0a13 13 0 0 1 0-.412m2.081 0h.408a10 10 0 0 1 0 .415q-.204.002-.409 0a18 18 0 0 1 0-.414m1.506.016.402.001q.004.48.002.961-.204.002-.407 0c-.001-.32-.005-.64.003-.962m10.473.288q.23-.004.462-.003c.152.282.337.55.45.851q-.21.007-.42.006c-.167-.283-.324-.572-.492-.854m-6.064.342h.4q.003.659.001 1.316l-.402.002zm1.406.534a18 18 0 0 1 0-.413 10 10 0 0 1 .406.002l-.001.411zm-7.61.608c.323-.236.668-.441 1-.664.22.002.438 0 .658.003-.326.233-.673.434-1 .664.337.212.667.433 1.002.647q-.338.004-.677.002c-.325-.22-.663-.424-.983-.652m11.288-.383q.207-.005.415 0 .005.207-.001.414-.207.005-.414 0a10 10 0 0 1 0-.413m-14.187.056q1.035-.008 2.072 0l.002.393a22 22 0 0 1-.934.593c-.134-.049-.236-.16-.35-.241.17-.108.344-.212.51-.328-.433-.002-.866.003-1.3-.002a14 14 0 0 1 0-.415m5.909.4c.597.002 1.195-.003 1.792.002q.021.205-.006.409l-1.785.001zm2.182.002q.216-.005.43.002v.402a10 10 0 0 1-.43.001zm1.88.578c-.02-.141.126-.214.2-.311q.264-.001.527.002.005.198.002.397l-.333.004v.94c.516.004 1.032-.001 1.548.004q.002.2-.002.4c-.581.004-1.163 0-1.744.002-.074-.097-.216-.17-.198-.31a81 81 0 0 1 0-1.128m1.956-.125a6 6 0 0 1 .428 0v.409a6 6 0 0 1-.428 0 19 19 0 0 1 0-.41m1.359.001c.6-.008 1.201-.002 1.803-.003l-.001.417c-.6 0-1.201.005-1.802-.003a14 14 0 0 1 0-.41M6.8 8.83h1.01q.005.21 0 .42H6.801a5 5 0 0 1-.001-.42m2.221 0h1.586c.192-.03.384.17.36.359q-.002.582 0 1.166l-.205.218-.524-.002v-.4l.328-.004V9.25c-.513-.046-1.03-.008-1.545-.021zm-3.724.124q.387-.004.774 0c.156.56.324 1.114.472 1.675l-.39.001c-.132-.43-.234-.87-.371-1.298l-.221.016c-.098.431-.238.852-.344 1.282q-.201 0-.4-.002.237-.838.48-1.674m11.264.504c.45-.004.9-.009 1.35.002.113.07.241.183.217.332q-.002.48 0 .962c-.004.154.003.307-.002.461.007.126-.027.25-.02.375l-.384-.001.001-1.734c-.314-.009-.628-.002-.942-.005l-.003.323q-.198.003-.396.002-.003-.266-.002-.532.09-.09.181-.185m-12.806.016h.418v1.317h-.42zm-1.312.368q.207-.003.411.01.003.195 0 .391-.207.003-.414 0a9 9 0 0 1 .003-.402m4.912 2.408q-.005-1.166 0-2.33.204-.005.408 0c.32.516.65 1.027.977 1.539.141.182.057.426.08.638q-.073 0-.142.002c-.294-.467-.602-.926-.883-1.4-.05.515-.01 1.035-.026 1.553q-.207.002-.414-.002m1.815-2.032q.21-.005.417 0 .002.508 0 1.017-.21.004-.417 0a66 66 0 0 1 0-1.017m2.515.454q.204-.002.408 0 .003.207 0 .415h-.408a18 18 0 0 1 0-.415m1.323.019c.422-.006.845-.003 1.268-.002.017.123.028.249.016.374-.04.081-.136.049-.208.056-.36-.01-.72.021-1.078-.02a8 8 0 0 1 .002-.409m1.705.059c.136-.002.274-.011.41.01.013.477.005.955.003 1.433q-.207.003-.413 0-.007-.721 0-1.443m-3.769.282h.4q.003.206 0 .413-.2.003-.4 0zm-6.411.294c.475-.052.954-.011 1.431-.026a3 3 0 0 1 .368.016q.003.21 0 .417c-.6-.001-1.198.003-1.797-.002a12 12 0 0 1-.002-.405m-2.691.306.196-.19q.26-.003.52.001.003.197.001.394l-.323.004c.002.313-.002.625.002.938.511.002 1.022-.003 1.533.003q.003.193.001.386l-.38.001c-.453-.004-.907.008-1.36-.005a.44.44 0 0 1-.186-.194c-.012-.445-.002-.892-.004-1.338m10.598.26q.1-.097.206-.19c.442.003.884 0 1.325.001l.2.19v1.312q-.201.001-.403-.004c0-.367-.003-.734.002-1.102h-.928q0 .167-.003.335l-.397.002c-.005-.181-.003-.362-.003-.544m2.837.772c.49-.32.984-.63 1.479-.942q.175.119.349.244l-1.066.678c.521.006 1.043 0 1.566.003v.417q-1.164.003-2.327 0a18 18 0 0 1-.002-.4m-5.545.079c.492-.327.999-.63 1.49-.958.117.08.233.163.352.24-.34.239-.701.447-1.047.678.518.009 1.037-.001 1.556.005q.006.214 0 .429c-.776.004-1.553.001-2.33.001-.02-.13-.02-.263-.021-.395m-5.105-.353q.325.495.646.991c.229-.327.434-.67.66-.998.005.222.002.445.004.667-.226.331-.433.675-.665 1.001-.215-.328-.423-.66-.647-.982-.002-.226-.005-.453.002-.679m2.365.847a5 5 0 0 1 .003-.423q.205-.005.408.01.004.206 0 .413zm1.923.204q.207-.003.414 0c.003.512 0 1.025.002 1.538a6 6 0 0 0-.294.018l-.125-.023c.003-.51-.002-1.023.003-1.533m2.849.321c.26-.005.52-.001.78-.003l.478 1.675q-.201 0-.402-.003c-.114-.427-.238-.85-.354-1.277l-.217-.01-.36 1.29-.4-.001c.162-.556.325-1.112.475-1.67m-5.887.924c.494-.318.988-.637 1.49-.944q.174.12.346.243c-.359.223-.711.458-1.074.675.526.01 1.052-.001 1.578.006q.004.208-.001.415c-.78.002-1.558.006-2.337-.002a10 10 0 0 1-.002-.393m4.085-.843q.219.003.434-.026c.17.28.37.557.458.876l-.406.002a67 67 0 0 0-.485-.852m5.727.171q.213-.007.426-.002v.408a6 6 0 0 1-.426-.003 11 11 0 0 1 0-.403m-1.044 1.085c.171-.276.355-.543.527-.819q.009.307.003.614c.005.077-.05.136-.087.198-.19.281-.372.567-.558.85-.225-.335-.442-.673-.664-1.01 0-.224-.003-.448.003-.671.217.326.423.661.646.984.063-.026.09-.094.13-.146M4.09 14.701c.364-.012.728-.006 1.092-.003.002.134.01.27-.007.404-.36.018-.723.01-1.085.003zm4.433.879c.583-.008 1.165 0 1.748-.004l.2.201q-.003.668-.001 1.337l-.174.185q-.28.007-.56 0c.003-.127-.013-.255.017-.379.106-.01.211-.007.318-.008v-.935c-.517-.003-1.033.006-1.55-.005zm-2.801.149q.204-.003.41 0v.41a15 15 0 0 1-.41 0 15 15 0 0 1 0-.41m7.213.22c.154-.13.294.086.426.15v.049c-.345.222-.698.432-1.035.666l.195-.001q.156 0 .313.003v.41q-.638.008-1.275 0a7 7 0 0 1-.01-.385c.453-.31.926-.59 1.386-.892m-6.447.378c.552-.002 1.103-.005 1.654.002v.407c-.551.008-1.103.005-1.654.002a13 13 0 0 1 0-.41m1.469 1.046q.233-.003.466.001c.144.286.335.55.446.851-.14.008-.278.008-.417.009-.17-.284-.33-.575-.495-.861m2.753.435q.204-.003.407.01c.002.135.001.271-.016.407h-.388a8 8 0 0 1-.003-.417m-.945 1.349c0-.317-.007-.634.005-.95q.205 0 .41.02v.93q-.208.004-.415 0"/>
  </g>
  <defs>
    <clipPath id="numeraire_svg__a">
      <path fill="#fff" d="M0 0h20v20H0z"/>
    </clipPath>
  </defs>
</svg>
