<svg xmlns="http://www.w3.org/2000/svg" fill="none" viewBox="0 0 20 20">
  <g clip-path="url(#okb_svg__a)">
    <path fill="#000" d="M19.992.007H.007v19.986h19.985z"/>
    <path fill="#fff" d="M7.967 4.368H4.511a.17.17 0 0 0-.17.17v3.457c0 .094.076.17.17.17h3.456a.17.17 0 0 0 .17-.17V4.538a.17.17 0 0 0-.17-.17m7.522 0h-3.456a.17.17 0 0 0-.17.17v3.457c0 .094.075.17.17.17h3.456a.17.17 0 0 0 .17-.17V4.538a.17.17 0 0 0-.17-.17m-7.522 7.467H4.511a.17.17 0 0 0-.17.17v3.457c0 .094.076.17.17.17h3.456a.17.17 0 0 0 .17-.17v-3.457a.17.17 0 0 0-.17-.17m7.522 0h-3.456a.17.17 0 0 0-.17.17v3.457c0 .094.075.17.17.17h3.456a.17.17 0 0 0 .17-.17v-3.457a.17.17 0 0 0-.17-.17M11.72 8.102H8.262a.17.17 0 0 0-.17.17v3.456c0 .094.076.17.17.17h3.456a.17.17 0 0 0 .17-.17V8.272a.17.17 0 0 0-.17-.17"/>
  </g>
  <defs>
    <clipPath id="okb_svg__a">
      <path fill="#fff" d="M0 0h20v20H0z"/>
    </clipPath>
  </defs>
</svg>
