<svg xmlns="http://www.w3.org/2000/svg" viewBox="0 0 44.8 44.8">
  <path fill="#06070a" fill-rule="evenodd" d="M22.4 3.2c-10.6 0-19.2 8.6-19.2 19.2s8.6 19.2 19.2 19.2h11.5c-3.4 2-7.3 3.2-11.5 3.2C10 44.8 0 34.7 0 22.4 0 10 10 0 22.4 0c12.4 0 22.4 10 22.4 22.4 0 1.1-.1 2.2-.2 3.2h-3.2c.2-1 .3-2.1.3-3.2C41.6 11.8 33 3.2 22.4 3.2z" clip-rule="evenodd"/>
  <path fill="#06070a" fill-rule="evenodd" d="M40.8 35.2c-.8 1.1-1.8 2.2-2.8 3.2H22.4c-8.8 0-16-7.2-16-16s7.2-16 16-16 16 7.2 16 16c0 1.1-.1 2.2-.3 3.2h-3.3c.3-1 .4-2.1.4-3.2 0-7.1-5.7-12.8-12.8-12.8-7.1 0-12.8 5.7-12.8 12.8 0 7.1 5.7 12.8 12.8 12.8h18.4z" clip-rule="evenodd"/>
  <path fill="#06070a" fill-rule="evenodd" d="M42.6 32c.5-1 .9-2.1 1.2-3.2H22.3c-3.5 0-6.4-2.9-6.4-6.4 0-3.5 2.9-6.4 6.4-6.4 3.5 0 6.4 2.9 6.4 6.4 0 1.2-.3 2.3-.9 3.2h3.5c.4-1 .5-2.1.5-3.2 0-5.3-4.3-9.6-9.6-9.6s-9.6 4.3-9.6 9.6 4.3 9.6 9.6 9.6h20.4z" clip-rule="evenodd"/>
</svg>
