<svg xmlns="http://www.w3.org/2000/svg" fill="none" viewBox="0 0 20 20">
  <circle cx="10" cy="10" r="10" fill="#fff"/>
  <path fill="#48a3ff" d="M10 16.592a.35.35 0 0 1-.348-.348v-1.792a.348.348 0 0 1 .696 0v1.792a.35.35 0 0 1-.348.348m4.728-.732a.35.35 0 0 1-.348-.348v-1.196a.348.348 0 0 1 .696 0v1.196a.35.35 0 0 1-.348.348M5.272 14.8a.35.35 0 0 1-.348-.348V12.66a.348.348 0 0 1 .696 0v1.792a.35.35 0 0 1-.348.348m4.708-1.176a5 5 0 0 1-3.576-1.496 5.1 5.1 0 0 1-1.48-3.556q-.005-.025-.004-.056v-4.76c0-.14.084-.268.216-.32a.5.5 0 0 1 .136-.028c.088 0 .18.036.248.104l1.14 1.152a5 5 0 0 1 3.32-1.256c1.352 0 2.62.532 3.576 1.496a5.1 5.1 0 0 1 1.48 3.556q.005.025.004.056v4.76c0 .14-.084.268-.216.32a.4.4 0 0 1-.132.028h-.004a.36.36 0 0 1-.248-.104l-1.14-1.152a4.96 4.96 0 0 1-3.32 1.256m-4.364-5.16a.2.2 0 0 1 .004.052c0 1.18.456 2.288 1.28 3.124a4.32 4.32 0 0 0 3.084 1.292 4.3 4.3 0 0 0 2.832-1.056L5.616 4.6zm7.96 3.192.768.776V8.568c-.004-.016-.004-.036-.004-.052 0-1.18-.456-2.288-1.28-3.124A4.32 4.32 0 0 0 9.976 4.1c-1.048 0-2.04.372-2.832 1.056L10.252 8.3l3.304 3.336q.013.01.02.02"/>
</svg>
