<svg xmlns="http://www.w3.org/2000/svg" viewBox="0 0 500 500">
  <path fill="#48a3ff" d="M250 414.8c-4.8 0-8.7-3.9-8.7-8.7v-44.8c0-4.8 3.9-8.7 8.7-8.7s8.7 3.9 8.7 8.7v44.8c0 4.8-3.9 8.7-8.7 8.7m118.2-18.3c-4.8 0-8.7-3.9-8.7-8.7v-29.9c0-4.8 3.9-8.7 8.7-8.7s8.7 3.9 8.7 8.7v29.9c0 4.8-3.9 8.7-8.7 8.7M131.8 370c-4.8 0-8.7-3.9-8.7-8.7v-44.8c0-4.8 3.9-8.7 8.7-8.7s8.7 3.9 8.7 8.7v44.8c0 4.8-3.9 8.7-8.7 8.7m117.7-29.4c-33.8 0-65.5-13.3-89.4-37.4-23.5-23.9-36.7-55.4-37-88.9-.1-.4-.1-.9-.1-1.4v-119c0-3.5 2.1-6.7 5.4-8 1.1-.4 2.2-.6 3.4-.7 2.2 0 4.5.9 6.2 2.6l28.5 28.8c23-20.3 52.2-31.4 83-31.4 33.8 0 65.5 13.3 89.4 37.4 23.5 23.9 36.7 55.4 37 88.9.1.4.1.9.1 1.4v119c0 3.5-2.1 6.7-5.4 8-1.1.4-2.2.7-3.3.7h-.1c-2.2 0-4.5-.9-6.2-2.6l-28.5-28.8c-22.9 20.4-52.1 31.4-83 31.4m-109.1-129c.1.4.1.9.1 1.3 0 29.5 11.4 57.2 32 78.1 20.6 20.8 48 32.3 77.1 32.3 26.2 0 51.1-9.3 70.8-26.4L140.4 115zm199 79.8 19.2 19.4v-96.6c-.1-.4-.1-.9-.1-1.3 0-29.5-11.4-57.2-32-78.1-20.6-20.8-48-32.3-77.1-32.3-26.2 0-51 9.3-70.8 26.4l77.7 78.6 82.6 83.4c.2.2.4.3.5.5"/>
</svg>
