<svg xmlns="http://www.w3.org/2000/svg" fill="none" viewBox="0 0 20 20">
  <circle cx="10" cy="10" r="10" fill="#4AA2FE"/>
  <path fill="#fff" fill-rule="evenodd" d="M12.906 15.017c-.965.548-2.653 1.215-4.545.65-2.447-.734-4.185-3.228-4.1-6.084V5.07c0-.06.073-.09.116-.047l9.312 9.378a.066.066 0 0 1-.005.099 7 7 0 0 1-.771.512zM3.273 9.568c-.09 3.252 1.89 6.172 4.803 7.046h.002c3.156.943 5.766-.982 6.216-1.336.52-.408.52-1.146.096-1.572L5.078 4.327c-.664-.669-1.805-.199-1.805.744z" clip-rule="evenodd"/>
  <path fill="#fff" fill-rule="evenodd" d="M7.094 4.983c.965-.548 2.653-1.215 4.545-.65 2.447.734 4.185 3.228 4.1 6.084v4.512c0 .06-.074.09-.116.047L6.311 5.598a.066.066 0 0 1 .005-.099 7 7 0 0 1 .778-.516m9.633 5.449c.09-3.252-1.89-6.172-4.803-7.046h-.002c-3.156-.943-5.766.982-6.216 1.336a1.054 1.054 0 0 0-.096 1.572l9.312 9.379c.664.669 1.805.198 1.805-.744z" clip-rule="evenodd"/>
</svg>
