<svg xmlns="http://www.w3.org/2000/svg" fill="none" viewBox="0 0 20 20">
  <path fill="#000" d="M0 0h20v20H0z"/>
  <path fill="#fff" d="M8.796 3.08A7 7 0 0 0 5.13 4.917a9 9 0 0 0-.662.716l-.26.337 2.01 2.005 2.015 2.01-2.015 2.009-2.015 2.01.229.296c.265.344.815.892 1.212 1.209 1.32 1.052 3.17 1.613 4.853 1.469 1.77-.157 3.243-.825 4.463-2.03.273-.268.778-.876.778-.933 0-.016-.899-.924-1.994-2.017l-2-1.99 1.261-1.272c.69-.7 1.594-1.61 2.003-2.022l.742-.748-.172-.233C14.49 4.3 12.777 3.308 10.935 3.04c-.474-.069-1.654-.045-2.14.04m2.127 2.337c.417.092.775.212 1.1.373l.277.14-1.16 1.156-1.16 1.157-1.152-1.149c-1.313-1.308-1.236-1.152-.682-1.393a5.5 5.5 0 0 1 1.192-.34c.337-.052 1.228-.02 1.585.056m1.357 8.65c-.065.065-.811.357-1.152.453-.357.1-.442.108-1.148.108-.666-.004-.807-.012-1.104-.096a6.6 6.6 0 0 1-1.088-.412l-.104-.056 1.148-1.165 1.148-1.165 1.164 1.157c.638.632 1.148 1.165 1.136 1.177"/>
  <path fill="#fff" d="M3.927 6.43c-.337.532-.666 1.385-.839 2.174-.08.372-.088.532-.088 1.38 0 1.073.04 1.362.325 2.238.133.409.63 1.465.69 1.465.013 0 .41-.384.88-.852l.858-.857-.1-.236a4.67 4.67 0 0 1-.028-3.439l.124-.316-.859-.857-.862-.86zm11.139.704-.855.853.08.188a4.72 4.72 0 0 1-.024 3.687l-.06.116.855.853c.474.472.87.856.887.856.056 0 .514-.96.666-1.405a7.12 7.12 0 0 0 .048-4.479c-.12-.372-.658-1.521-.714-1.521-.016 0-.413.384-.883.852"/>
</svg>
