<svg xmlns="http://www.w3.org/2000/svg" viewBox="0 0 1037 1037">
  <circle cx="518.5" cy="518.5" r="518.5" fill="#ff0421"/>
  <path fill="#fafaf9" d="M761.8 365.3H576.3l-43.7 309.6h88.8l10.5-75h101c91.2 0 136.7-36.6 147-114.9 10.7-80.7-27.5-119.7-118.1-119.7M790 479.6c-3.6 33.3-22.7 47.8-60.9 47.8h-86.9l12.6-89.5h90.9c34.6-.1 47.6 11.7 44.3 41.7M357.4 358c-120.9 0-184.3 50.8-199.2 159.6-15.2 111.3 37 164.5 161 164.5s184-50.8 198.9-159.6C533.2 411.2 481.4 358 357.4 358m70.4 159.7c-8.2 61.4-39.1 88.9-103.7 88.9-60.6 0-83.4-24.2-75.5-84.1 8.2-61.7 39.7-88.9 103.7-88.9s83.3 24.5 75.5 84.1"/>
</svg>
