<svg xmlns="http://www.w3.org/2000/svg" viewBox="0 0 20 20">
  <circle cx="10" cy="10" r="10" fill="#ff0420"/>
  <path fill="#fff" d="M7.082 12.652a2.4 2.4 0 0 1-1.463-.42 1.44 1.44 0 0 1-.562-1.215q.003-.205.037-.405.098-.542.278-1.298.51-2.064 2.633-2.064a2.6 2.6 0 0 1 1.035.196c.291.114.542.312.72.57.18.265.271.58.263.9a3 3 0 0 1-.038.398q-.112.667-.27 1.297-.262 1.029-.908 1.538-.645.503-1.725.503m.105-1.08c.26.007.514-.081.713-.248.22-.2.37-.466.428-.758q.172-.705.262-1.23.03-.16.03-.323 0-.682-.713-.682a1.1 1.1 0 0 0-.72.247 1.4 1.4 0 0 0-.42.758q-.135.503-.27 1.23-.03.156-.03.316 0 .69.72.69m3.181 1.005a.16.16 0 0 1-.128-.052.18.18 0 0 1-.022-.136l1.035-4.876a.2.2 0 0 1 .082-.135.23.23 0 0 1 .143-.052h1.995a2.3 2.3 0 0 1 1.336.345 1.13 1.13 0 0 1 .51.997q0 .199-.045.39a2.03 2.03 0 0 1-.758 1.276q-.563.413-1.545.413h-1.013l-.345 1.643a.22.22 0 0 1-.082.135.23.23 0 0 1-.142.052zm2.656-2.866a.9.9 0 0 0 .547-.172.8.8 0 0 0 .315-.495q.021-.112.023-.226a.42.42 0 0 0-.128-.33.63.63 0 0 0-.435-.12h-.9l-.285 1.343z"/>
</svg>
