<svg xmlns="http://www.w3.org/2000/svg" class="sc-bdfBwQ lkvAzg mobile-icon" color="text" viewBox="0 0 32 32">
  <path fill="#633001" fill-rule="evenodd" d="M5.842 5.002a4.226 4.226 0 1 1 8.38-.776v5.21A25.26 25.26 0 0 1 16 9.374c.577 0 1.147.02 1.709.057V4.226a4.226 4.226 0 1 1 8.38.776l-1.143 6.124c3.924 1.714 6.892 4.69 6.892 8.43v2.262c0 3.076-2.034 5.65-4.879 7.389C24.093 30.959 20.215 32 16 32s-8.093-1.041-10.96-2.793C2.197 27.469.163 24.894.163 21.818v-2.262c0-3.72 2.937-6.685 6.829-8.402l-1.15-6.152zM23.48 11.93l1.338-7.166a2.933 2.933 0 1 0-5.816-.539v6.63a23.119 23.119 0 0 0-1.293-.129 23.957 23.957 0 0 0-1.709-.06 23.942 23.942 0 0 0-3.07.198V4.226a2.933 2.933 0 1 0-5.817.538l1.343 7.19c-4.198 1.56-7.001 4.38-7.001 7.602v2.262c0 4.91 6.512 8.89 14.545 8.89s14.546-3.98 14.546-8.89v-2.262c0-3.238-2.833-6.071-7.066-7.626z" clip-rule="evenodd"/>
  <path fill="#FEDC90" d="M30.546 21.818c0 4.91-6.513 8.89-14.546 8.89s-14.545-3.98-14.545-8.89v-2.262h29.09v2.262z"/>
  <path fill="#D1884F" fill-rule="evenodd" d="M7.113 4.764a2.933 2.933 0 1 1 5.816-.538v6.64a23.588 23.588 0 0 1 3.071-.2 23.624 23.624 0 0 1 3.002.19v-6.63a2.933 2.933 0 1 1 5.816.538l-1.338 7.167c4.233 1.554 7.066 4.387 7.066 7.625 0 4.909-6.513 8.888-14.546 8.888s-14.545-3.98-14.545-8.888c0-3.222 2.803-6.043 7-7.602l-1.342-7.19z" clip-rule="evenodd"/>
  <path fill="#633001" d="M11.96 18.91c0 1.338-.724 2.423-1.617 2.423-.892 0-1.616-1.085-1.616-2.424s.724-2.424 1.616-2.424c.893 0 1.616 1.085 1.616 2.424zm11.151 0c0 1.338-.724 2.423-1.616 2.423-.893 0-1.616-1.085-1.616-2.424s.723-2.424 1.616-2.424c.893 0 1.616 1.085 1.616 2.424z"/>
</svg>
