<svg xmlns="http://www.w3.org/2000/svg" fill="none" viewBox="0 0 20 20">
  <g clip-path="url(#pancakeswap_svg__a)">
    <circle cx="10" cy="10" r="10" fill="url(#pancakeswap_svg__b)"/>
    <path fill="#633001" fill-rule="evenodd" d="M9.928 16.563c-1.93-.002-3.483-.465-4.57-1.296-1.098-.842-1.681-2.036-1.681-3.387 0-1.302.582-2.241 1.24-2.876a5.5 5.5 0 0 1 1.481-.999c-.09-.275-.201-.635-.301-1.007-.134-.497-.266-1.081-.266-1.509 0-.506.11-1.015.408-1.41.315-.418.789-.641 1.358-.641.445 0 .823.165 1.12.45.282.272.47.633.6 1.01.229.663.318 1.495.343 2.326h.545c.025-.83.114-1.663.343-2.325.13-.378.318-.74.6-1.011.297-.285.675-.45 1.12-.45.57 0 1.043.223 1.358.64.298.396.408.905.408 1.411 0 .428-.132 1.012-.265 1.51-.1.371-.212.731-.302 1.006a5.5 5.5 0 0 1 1.481 1c.659.634 1.24 1.573 1.24 2.875 0 1.351-.583 2.545-1.681 3.387-1.086.831-2.64 1.294-4.57 1.296z" clip-rule="evenodd"/>
    <path fill="#d1884f" d="M7.597 3.92c-.834 0-1.218.628-1.218 1.498 0 .69.446 2.075.63 2.614a.243.243 0 0 1-.142.301c-.67.267-2.643 1.242-2.643 3.476 0 2.352 2.006 4.126 5.704 4.13h.009c3.698-.004 5.704-1.778 5.704-4.13 0-2.234-1.974-3.21-2.642-3.476a.243.243 0 0 1-.142-.3c.183-.54.63-1.924.63-2.615 0-.87-.385-1.499-1.22-1.499-1.2 0-1.5 1.719-1.52 3.564a.224.224 0 0 1-.223.223H9.341c-.122 0-.22-.1-.222-.223-.021-1.845-.32-3.564-1.522-3.564"/>
    <path fill="#fedc90" d="M9.937 15.185c-2.717 0-5.708-1.47-5.713-3.372v.009c0 2.355 2.009 4.13 5.713 4.13s5.713-1.775 5.713-4.13v-.009c-.005 1.902-2.996 3.371-5.713 3.371"/>
    <path fill="#633001" d="M8.427 11.229c0 .642-.3.976-.67.976s-.672-.334-.672-.976c0-.643.3-.977.671-.977.37 0 .671.334.671.977m4.362 0c0 .642-.3.976-.671.976-.37 0-.671-.334-.671-.976 0-.643.3-.977.67-.977s.672.334.672.977"/>
  </g>
  <defs>
    <linearGradient id="pancakeswap_svg__b" x1="10" x2="10" y1="0" y2="20" gradientUnits="userSpaceOnUse">
      <stop stop-color="#53dee9"/>
      <stop offset="1" stop-color="#1fc7d4"/>
    </linearGradient>
    <clipPath id="pancakeswap_svg__a">
      <path fill="#fff" d="M0 0h20v20H0z"/>
    </clipPath>
  </defs>
</svg>
