<svg xmlns="http://www.w3.org/2000/svg" fill="none" viewBox="0 0 20 20">
  <g clip-path="url(#pax-gold_svg__a)">
    <path fill="#efe812" d="M5.28 3.344c.36-.414.694-.764 1.01-1.06C.942 2.11 2.5 5.993.747 9.935c-2.006 4.544.238 6.275 3.58 6.816a7.3 7.3 0 0 1-1.13-1.856C1.04 12.158 1.914 7.166 5.279 3.344"/>
    <path fill="#ede70a" d="M18.147 8.184a15.4 15.4 0 0 1-2.7 4.541 13 13 0 0 1-3.281 2.855 8.83 8.83 0 0 1-4.841 1.381c-1 .01-2-.06-2.988-.209a6.1 6.1 0 0 0 1.998 1.572c4.836 2.349 5.14-2.012 10.255-4.226 2.872-1.243 2.883-3.671 1.555-5.914M12.166 3.65a6.4 6.4 0 0 1 1.996.711 11.15 11.15 0 0 1 3.986 3.823c.87-2.465.464-4.4-1.44-4.75-2.095-.385-3.731-.51-5.305-1.612C9.466.47 7.766.91 6.293 2.286l.32.013c2.042.122 3.996.53 5.543 1.347"/>
    <path fill="#dec21c" d="M5.279 3.343c-3.365 3.823-4.24 8.815-2.072 11.553a8.35 8.35 0 0 1 .467-7.422C5.498 4.42 9.16 3.094 12.166 3.65c-1.558-.827-3.51-1.225-5.543-1.347l-.32-.016c-.327.303-.66.642-1.024 1.055"/>
    <path fill="#e5cb22" d="M14.162 4.356a6.3 6.3 0 0 0-1.996-.705c2.048 1.082 3.408 2.916 3.408 5.816a7.3 7.3 0 0 1-.926 3.494 7.3 7.3 0 0 1-2.482 2.62 12.9 12.9 0 0 0 3.281-2.856 15.4 15.4 0 0 0 2.7-4.54 11.15 11.15 0 0 0-3.985-3.829"/>
    <path fill="#cca727" d="M12.166 3.651c-3.007-.557-6.668.769-8.492 3.81a8.33 8.33 0 0 0-.467 7.435 7.2 7.2 0 0 0 1.13 1.856c.989.149 1.988.219 2.988.21a8.83 8.83 0 0 0 4.84-1.382 7.3 7.3 0 0 0 2.483-2.619 7.3 7.3 0 0 0 .926-3.494c0-2.9-1.36-4.734-3.408-5.816m-.338 10.55a4.98 4.98 0 0 1-3.753.685 5 5 0 0 1-3.142-2.174C3.44 10.398 4.178 7.41 6.42 5.82c2.508-1.79 5.723-1.085 6.895 1.49 1.143 2.507.829 5.405-1.486 6.892"/>
  </g>
  <defs>
    <clipPath id="pax-gold_svg__a">
      <path fill="#fff" d="M0 1h19v18H0z"/>
    </clipPath>
  </defs>
</svg>
