<svg xmlns="http://www.w3.org/2000/svg" viewBox="0 0 84.3 84.9">
  <path fill="#0071f3" d="M42.1 84.9c23.3 0 42.1-19 42.1-42.4C84.3 19 65.4 0 42.1 0 18.9 0 0 19 0 42.4c0 23.5 18.9 42.5 42.1 42.5z"/>
  <path fill="#fff" d="M48.8 17H34c-1.6 0-3.1 1.2-3.3 2.9l-1 6.8v.1h-5c-1.3 0-2.4 1.1-2.4 2.4 0 1.4 1.1 2.4 2.4 2.5h4.2l-.7 4.7v.4h-5c-1.3 0-2.4 1.1-2.4 2.4 0 1.3 1.1 2.4 2.4 2.4h4.2l-2.3 14.6-.7 4.9-.4 2.6c-.3 2.1 1.2 3.9 3.3 3.9h11.2c1.6 0 3-1.2 3.3-2.9l2.1-13.4h5.2c9.4 0 17.1-7.8 16.9-17.3-.1-9.7-7.9-17-17.2-17zm-15 14.5 15 .1c1.3 0 2.5 1.1 2.5 2.5s-1.1 2.5-2.5 2.5H33l.8-5.1zm15.1 14.6h-6.2c-1.6 0-3 1.2-3.3 2.9l-2.1 13.4H29l3.2-21h16.6c4 0 7.3-3.3 7.3-7.3s-3.3-7.3-7.3-7.3l-14.2-.1.7-4.8h13.8c6.8 0 12.2 5.6 12.1 12.4-.2 6.6-5.7 11.8-12.3 11.8z"/>
</svg>
