<svg xmlns="http://www.w3.org/2000/svg" viewBox="0 0 2800 3500">
  <title>Asset 3</title>
  <path fill="#dedede" d="M1400 0c773.2 0 1400 626.8 1400 1400 0 726.8-553.8 1324.2-1262.4 1393.3 4.1-50.2 3.2-100.7-2.5-150.8-40.7-355.6-321-636.3-676.5-677.4V110.5l-.7-1.6C1024.6 38.8 1207.8 0 1400 0"/>
  <path fill="#152e51" d="M683.5 1964.9V198.5l-.7-1.1c56.2-33.6 114.7-63.2 175-88.5l.7 1.6v1854.6c355.5 41.1 635.9 321.8 676.5 677.4 5.8 50.1 6.6 100.6 2.5 150.8-45.2 4.4-91.1 6.6-137.5 6.7-486 0-914.2-247.6-1165.2-623.6C356.5 2058.4 514 1984 682.5 1965h1z"/>
  <path fill="#1e4480" d="M1537.6 2793.3c-29.2 359-308.6 659.2-680 701.7-422.5 48.3-804.2-255-852.5-677.5-28.3-247.2 63.8-480.5 229.8-641.1 251 376 679.2 623.6 1165.2 623.6 46.4-.1 92.2-2.3 137.5-6.7"/>
  <path fill="#dedede" d="M683.5 198.5v1766.4h-1a766.38 766.38 0 0 0-447.7 211.4C86.5 1954.1.1 1687.2.1 1400c0-511 273.8-958.2 682.8-1202.6z"/>
</svg>
