<svg xmlns="http://www.w3.org/2000/svg" viewBox="0 0 512 512">
  <circle cx="256" cy="256" r="256" fill="#3d8130"/>
  <path fill="#3d8130" d="m369.996 221.829-.001-.039h-.026l.027.039zm2.624 46.281-.01-.014.002.02Zm-19.17 71.316.024-.013-.065-.076.041.089z"/>
  <path fill="#3d8130" d="m152.097 203.018-11.549 22.396-11.9 23.453-8.379 21.991-5.586 23.394-3.502 25.561-2.11 22.134-2.423 14.544 2.395 11.291 4.148 9.68 7.565 13.41 17.592 11.038 12.99 5.052c3.217.98 6.565 2.008 9.504 2.923l15.404 2.801 22.036 1.05 18.195-.001c2.052 0 20.457-1.041 20.642-1.052l.037-.002h.036l23.437.351 22.597-2.781 9.815-4.061 6.694-8.033.27-10.578c-.36-.873-1.745-4.262-2.069-5.557-.337-.892-4.789-6.199-8.893-10.795l-.08-.104c-1.77-2.586-4.74-7.15-4.74-8.645 0-1.535 1.822-5.864 2.188-6.716l.19-.443 9.36-2.73 6.194 4.473 5.623-3.124 6.328-6.313 10.978-8.135 9.971-5.699 7.95-1.514 10.404 7.06-.67-.77 4.338-3.767 3.981-6.636v-6.9l-.75-2.002-5.12 4.145-9.122 2.554-.153-.003-13.967-.35-20.297 2.137-6.424.676-4.928-.676-13.088-1.797-14.787-2.815-23.948-3.873-.11-.047-22.925-9.532-20.059-11.616-12.275-8.304-1.183-5.914 1.566-5.48 4.861-3.646 11.413 2.58 24.862 7.704c12.209 2.497 30.78 6.224 32.04 6.285.572 0 3.049.397 8.985 1.372 6.394 1.05 15.15 2.487 16.962 2.487 3.119 0 26.97 1.321 28.438 1.403 1.267-.021 20.72-.35 22.785-.35 1.379 0 8.852-2.45 13.43-4.06l6.78-8.136 6.53-11.342a20.294 20.294 0 0 0-1.162-9.65 20.849 20.849 0 0 0-8.386-10.185c-2.02 3.758-4.554 6.211-7.568 7.301a10.47 10.47 0 0 1-3.58.625 11.243 11.243 0 0 1-5.143-1.24l1.002-1.775a9.21 9.21 0 0 0 7.055.462c2.707-.99 4.997-3.372 6.83-7.092a19.454 19.454 0 0 1-7.019 1.258 19.833 19.833 0 0 1-4.455-.47l.247-.989.246-.99c.077.019 7.786 1.855 13.636-2.6 4.135-3.15 6.424-8.668 6.81-16.41l-6.733 7.854-8.098 3.663c-3.65.912-15.644 3.89-16.737 3.89-.426 0-1.956-.238-5.897-.866-4.85-.773-12.18-1.941-14.101-1.941-3.412 0-8.169-3.66-8.7-4.077l-.57-.449 3.81-11.05 10.483-11.887 11.141-7.907 13.77.006 13.022 1.448 5.607 6.368 2.693 4.04v-10.83l-10.81-3.93c-1.168-.17-11.918-1.729-14.484-1.729-2.487 0-12.098 1.468-13.662 1.71l-13.85 9.002-1.111-1.71 14.216-9.24.216-.034c.461-.072 11.338-1.767 14.191-1.767 2.849 0 14.394 1.694 14.884 1.765l.2.05 11.735 4.284 1.128.644.095-.754-5.456-4.814-9.879-4.769-11.96-1.025-13.783 2.412-5.501 2.407-.817-1.868 5.846-2.527 14.165-2.478 12.598 1.08.52.25-3.785-5.91-10.665-9.417.107-.121-41.577 1.155s-5.404.684-11.626 1.463l5.889 8.512 3.02 5.285-1.522 5.326-1.96-.56 1.285-4.5-2.572-4.5-6.29-9.086.366-.253c-7.762.97-16.101 1.997-16.587 1.997-.921 0-34.34 2.5-35.655 2.5a64.31 64.31 0 0 1-8.289-1.053c-.526-.263-22.76-8.42-23.55-8.947-.79-.526-8.552-8.025-8.552-8.025l-15.248-4.71-13.274 16.416Zm162.327 45.907a47.908 47.908 0 0 1 5.666 3.118l11.418 1.342 6.502-1.368.42 1.995-6.829 1.438-7.863-.925a58.046 58.046 0 0 1 9.314 8.489 48.154 48.154 0 0 1 5.347 7.379l-1.76 1.03a46.425 46.425 0 0 0-6.366-8.41 59.388 59.388 0 0 0-10.95-9.007l-.02-.003-5.79-3.257Zm-114.334-37.46 9.075-8.709 7.918-6.478 11.293-2.172 11.929-.35 12.66-.001 10.543.35 21.328.356 6.708 4.122 8.173 7.477 4.726 5.817 2.152 11.835-2.007.365-2.058-11.32-4.348-5.352-7.941-7.25-5.994-3.664-16.651-.278 7.26 3.982c3.889 2.011 10.559 5.625 11.299 7.105.463.844 5.784 6.046 10.659 10.586l.11.12 7.536 9.69 1.09 7.99-2.021.275-1.015-7.447-7.15-9.192c-2.487-2.316-10.312-9.667-11.033-11.11-.55-.782-5.85-3.846-10.433-6.217l-10.685-5.859-10.282-.343-12.596.001-11.816.348-10.543 2.04-7.488 6.127-8.498 8.158-.904 5.42 1.85 1.619 4.458-2.378 7.411-9.176 13.365-5.057 17.425-1.778 14.682 1.433 19.12 9.914 7.943 4.692 7.595 10.126 3.45 11.042 5.069 3.257v4.515l-4.673 4.282-8.447 3.52-3.611 2.955-3.792 6.16-1.878 3.053-.247.13c-2.532 1.333-6.917 3.555-8.137 3.625-.884.164-6.543 2.744-11.541 5.162l-.144.057c-.376.115-9.212 2.83-11.36 3.189l-.335-2.012c1.917-.32 10.15-2.837 11.021-3.104 5.045-2.44 11.244-5.33 12.302-5.33a54.6 54.6 0 0 0 6.997-3.262l.928-1.507 4.629-7.522 1.075-.88c-3.182-.293-7.425-.787-8.511-1.408-.533-.18-3.492-.573-19.152-.573-3.913 0-13.146-2.105-14.355-2.508-1.025-.342-10.399-3.12-10.493-3.147l-.238-.07-.179-.173c-.087-.083-8.76-8.38-15.242-12.133l1.022-1.764c6.246 3.616 14.129 10.998 15.452 12.254 1.503.446 9.347 2.773 10.322 3.098 1.12.373 10.07 2.403 13.712 2.403 18.903 0 19.723.547 20.213.873.668.352 5.194.92 8.991 1.236l-.058.698 1.549-1.267 8.393-3.497 3.748-3.436v-2.503l-2.6-1.67.118.314-8.66 3.215-12.017 1.41c-.575.018-3.237.09-6.146.09-3.362 0-7.054-.097-8.24-.492-1.623-.541-11.655-2.742-16.732-3.83l-.142-.03-.128-.07c-6.344-3.415-14.053-7.707-14.75-8.752-.485-.57-4.358-2.634-7.66-4.206l-.074-.04-11.108-6.478-1.523.285-.247-1.318-3.472-2.025-5.381 2.87-3.765-3.294Zm4.57 47.926.478 1.982-6.795 1.64-3.38.817-.196-.816-.282-1.167Zm4.36 9.478-.52 1.973a17.73 17.73 0 0 0-6.99.036c-3.77.705-9.397 2.86-14.784 9.115l-1.545-1.33c11.165-12.965 23.326-9.929 23.838-9.794Z"/>
  <path fill="#3d8130" d="M222.672 218.321c.604-.072 14.816-1.762 16.61-1.762.686 0 2.712.182 5.279.411 3.522.316 9.417.843 10.27.67 1.43-.357 15.4-1.634 16.987-1.778l8.318-.594-1.727-1.021-18.722-9.706-14.087-1.374-16.958 1.73-12.598 4.767-6.448 7.983 4.052 2.364Z"/>
  <path fill="#3d8130" d="M271.983 217.894c-6.154.56-15.692 1.483-16.666 1.727-.905.226-4.106-.009-10.938-.62-2.316-.206-4.503-.402-5.097-.402-1.386 0-12.228 1.254-16.335 1.743l-6.608 1.239 9.035 5.27c2.814 1.34 7.568 3.718 8.409 4.852.757.761 7.627 4.672 13.924 8.065 1.613.346 14.761 3.177 16.807 3.86 1.404.466 9.089.43 13.637.3l11.761-1.385 7.116-2.668-.368-.236-3.567-11.414-7.14-9.52-4.216-2.491.07.979Zm92.442-.744-4.956-5.618-12.183-1.353h-12.95l-10.515 7.461-9.963 11.338-3.201 9.283c1.627 1.18 4.846 3.209 6.863 3.209 2.083 0 8.925 1.09 14.423 1.967 2.555.407 5.197.827 5.583.84.898-.06 10.343-2.357 16.145-3.807l7.429-3.377 5.858-6.835-.53-3.178-18.247-7.434-23.323-.697.06-2.038 23.691.707 19.644 8.003.844 5.067q.02-.424.03-.857v-5.628Zm-21.867 117.289-6.786 1.292-9.623 5.5-10.767 7.987-3.01 3.01 6.806 4.763.469 3.75-4.563 4.563-1.442-1.442 3.857-3.857-.232-1.863-6.358-4.45-1.89 1.89-3.985 2.213-1.13 5.367 5.566 4.947 8.053-.322c1.532-1.1 3.98-2.728 5.163-2.816a29.094 29.094 0 0 0 3.52-2.432c2.738-2.053 3.804-2.802 4.593-2.834a47.997 47.997 0 0 0 6.856-4.04l.31-.207 9.847 1.136 3.404 3.403-.672.72c-2.137 2.29-4.511 5.252-4.64 6.011a4.114 4.114 0 0 1-.33 1.401l2.278-1.253 10.829-7.686 1.18 1.664-10.975 7.78-5.125 2.82c-.201.306-.375.559-.495.73l-.367-.256-7.837 4.31-5.41 7.778-1.857 4.64 3.861 5.47 4.272 4.93 5.054.631 4.68-1.002-.058-1.042 5.24-8.182 9.824-9.473 1.416 1.469-9.736 9.388-4.671 7.34.305 5.487 4.985 3.428 6.552.655 3.736-1.15-.708-1.062.523-.588c.23-.259 5.646-6.35 6.707-7.411.812-.812 5.37-6.057 7.668-8.717l1.543 1.333c-.273.316-6.702 7.759-7.769 8.826-.832.832-4.686 5.147-6.102 6.736l3.47 5.206h5.908l5.144-2.251 4.15-6.2 5.614-5.964 1.485 1.398-5.555 5.902-4.329 6.493-6.083 2.661h-7.425l-3.06-4.591-4.71 1.449-7.483-.748-6.242-4.292-.224-4.04-4.705 1.008-6.173-.771-4.71-5.436-7.007-4.203-7.328-8.062-1.799-12.59 2.019-.287 1.543 10.802 8.705-6.866 9.37-9.024 5.364-7.449-2.582-.298c-2.858 1.895-6.323 4.043-7.518 4.168a28.718 28.718 0 0 0-3.527 2.434c-2.8 2.1-3.85 2.835-4.646 2.835a21.333 21.333 0 0 0-4.312 2.612l-.25.182-9.49.38-7.066-6.28 1.01-4.794-.663.368-6.437-4.648-7.477 2.18a27.278 27.278 0 0 0-1.835 5.472c.086.786 2.315 4.467 4.345 7.44 2.712 3.038 8.937 10.13 9.307 11.609.272 1.09 1.577 4.317 2.057 5.47l.084.2-.349 13.578 3.9 5.85c2.01 1.172 16.747 9.77 18.403 10.763 1.184.711 11.786 3.73 18.253 5.481l21.899 2.086 17.628-2.42 15.143-6.883 8.208-7.88-1.915-7.022-10.099-18.804-7.3-11.125-12.462-13.847-18.734-10.25-2.83-6.013Z"/>
  <path fill="#983b1f" d="m358.471 293.88-.264.092c-2.02.713-12.203 4.269-14.373 4.269-2.073 0-22.58.347-22.788.35l-.037.001-.037-.002c-.252-.013-25.268-1.402-28.362-1.402-1.977 0-10.113-1.335-17.292-2.514-4-.657-8.136-1.336-8.672-1.345-1.432 0-27.308-5.278-32.48-6.336l-.098-.025-24.871-7.707-10.378-2.343-3.56 2.669-1.24 4.345.922 4.61 11.552 7.815 19.91 11.526 22.633 9.401 23.74 3.84 14.763 2.812 17.718 2.431 26.607-2.801.067.001 13.88.348 8.421-2.359 7.08-5.73 5.798-8.868 1.253-4.07-1.883-4.574c-8.357 7.61-9.346 7.86-9.769 7.966l-8.622 2.134-23.909 1.055-.051-.002-25.036-1.419-24.81-4.543-20.034.352-.132-.034-20.782-5.288-18.44-6.406-9.823-5.965 1.058-1.743 9.731 5.908 18.1 6.265 20.526 5.22 19.963-.351.1.018 24.848 4.55 24.795 1.396 23.704-1.046 8.32-2.08c.527-.209 3.277-2.373 9.17-7.75.783-.715 1.349-1.238 1.54-1.415l7.617-10.388 2.589-4.853a39.465 39.465 0 0 1-.987-5.04 27.534 27.534 0 0 0-3.412-4.359 17.296 17.296 0 0 1-.18 2.702l-.032.172-6.854 11.873Z"/>
  <path d="m405.132 399.99-10.229-19.049-7.414-11.304-12.84-14.285-18.456-10.098-2.743-5.828-.538.291s1.71 6.184 2.894 6.842 17.236 8.815 18.025 9.21c.79.394 14.736 16.971 14.736 16.971l11.183 19.472 6.71 14.999s-8.552 8.815-9.078 8.947c-.527.131-17.104 8.157-17.63 8.157s-16.578 1.842-17.499 1.578c-.92-.262-20.656-1.973-22.235-2.105-1.578-.131-19.866-7.367-19.866-7.367l-15.788-9.473-4.473-6.973-6.316 7.104s-8.946 4.474-10.13 4.474c-1.184 0-23.025 2.894-24.735 2.894h-43.943s-43.417-.79-45.26-1.71c-.597-.299-4.145-1.443-8.665-2.852l-3.73-.678-5.774-2.245c-7.09-2.16-13.538-4.093-13.538-4.093l-17.893-11.577s-7.5-13.026-7.763-13.684c-.263-.657-4.867-11.578-4.867-12.104 0-.526-1.58-9.21-1.58-9.21l3.159-19.866 1.447-20.92 3.42-22.76s5.658-22.893 5.79-23.945c.13-1.053 9.34-23.682 9.34-23.682l9.737-17.499 12.761-26.445 14.078-19.866 13.683-16.315.935.29.034-.043-1.586-1.282-13.333 16.49-14.782 21.464-11.647 22.57-11.929 23.508-8.464 22.2-5.652 23.634-3.532 25.751-2.102 22.069-2.481 14.89 2.496 11.766 4.27 10.014 7.895 14.008 18.112 11.364 19.118 7.455 19.484 3.56 22.285 1.07h18.244c2.083 0 19.552-.986 20.721-1.052l23.47.35.07.001 22.875-2.815.138-.017 10.534-4.36 5.394-6.472 4.494 6.74.203.118c.169.099 16.855 9.832 18.584 10.87 1.823 1.094 17.115 5.253 18.853 5.724l22.391 2.146 18.01-2.471.148-.02 15.573-7.08.159-.071 9.333-8.96Z"/>
  <path d="m165.43 181.31-14.079 19.867-12.761 26.445-9.736 17.499s-9.21 22.63-9.342 23.682c-.131 1.052-5.789 23.945-5.789 23.945l-3.42 22.76-1.447 20.92-3.158 19.867s1.579 8.683 1.579 9.21c0 .525 4.604 11.446 4.868 12.103.263.658 7.762 13.684 7.762 13.684l17.893 11.577s6.449 1.932 13.538 4.093l-12.99-5.052-17.592-11.038-7.565-13.41-4.148-9.68-2.395-11.29 2.424-14.545 2.11-22.134 3.5-25.56 5.588-23.395 8.377-21.99 11.901-23.454 11.549-22.396 14.676-21.316 13.274-16.417-.935-.289Zm177.575 150.967-7.95 1.514-9.97 5.699-10.979 8.135-6.328 6.313-5.623 3.124-6.194-4.474-9.36 2.73-.19.444c-.366.852-2.188 5.181-2.188 6.716 0 1.496 2.97 6.059 4.74 8.645l.08.104c4.104 4.596 8.556 9.903 8.893 10.795.324 1.295 1.71 4.684 2.07 5.557l-.271 10.578-6.694 8.033-9.815 4.06-22.597 2.782-23.437-.35h-.036l-.037.001c-.185.01-18.59 1.052-20.642 1.052l-18.195.001-22.036-1.05-15.404-2.8c4.52 1.408 8.068 2.552 8.666 2.851 1.842.92 45.259 1.71 45.259 1.71h43.943c1.71 0 23.55-2.894 24.735-2.894 1.184 0 10.13-4.474 10.13-4.474l6.316-7.104 4.473 6.973 15.788 9.473s18.288 7.236 19.866 7.367c1.58.132 21.314 1.843 22.235 2.105.921.264 16.972-1.578 17.499-1.578s17.103-8.026 17.63-8.157c.526-.132 9.078-8.947 9.078-8.947l-6.71-14.999-11.183-19.472s-13.946-16.577-14.736-16.972c-.79-.394-16.84-8.552-18.025-9.21s-2.894-6.84-2.894-6.84l.538-.292-.041-.089Zm11.626 14.447 18.734 10.25 12.462 13.847 7.3 11.125 10.099 18.804 1.915 7.022-8.208 7.88-15.143 6.884-17.628 2.419-21.9-2.086c-6.466-1.752-17.068-4.77-18.252-5.48-1.656-.994-16.394-9.592-18.402-10.765l-3.9-5.85.348-13.577-.084-.2c-.48-1.153-1.785-4.38-2.057-5.47-.37-1.478-6.595-8.57-9.307-11.61-2.03-2.972-4.26-6.653-4.345-7.439a27.278 27.278 0 0 1 1.835-5.472l7.477-2.18 6.437 4.648.663-.368-1.01 4.794 7.065 6.28 9.491-.38.25-.182a21.333 21.333 0 0 1 4.312-2.612c.795 0 1.846-.735 4.646-2.835a28.718 28.718 0 0 1 3.527-2.434c1.195-.125 4.66-2.273 7.518-4.168l2.582.298-5.363 7.45-9.37 9.023-8.706 6.866-1.543-10.802-2.019.288 1.799 12.59 7.328 8.061 7.007 4.203 4.71 5.436 6.173.771 4.705-1.007.224 4.039 6.242 4.292 7.482.748 4.71-1.45 3.062 4.592h7.425l6.082-2.661 4.33-6.493 5.554-5.902-1.485-1.398-5.613 5.964-4.15 6.2-5.145 2.251h-5.907l-3.47-5.206c1.415-1.589 5.269-5.904 6.101-6.736 1.067-1.067 7.496-8.51 7.77-8.826l-1.544-1.333c-2.297 2.66-6.856 7.905-7.668 8.717-1.061 1.06-6.477 7.152-6.707 7.41l-.523.589.708 1.062-3.736 1.15-6.552-.655-4.985-3.428-.305-5.488 4.67-7.339 9.737-9.389-1.416-1.468-9.823 9.473-5.24 8.182.057 1.042-4.68 1.002-5.054-.632-4.272-4.929-3.861-5.47 1.856-4.64 5.41-7.778 7.838-4.31.367.257c.12-.172.294-.425.495-.731l5.125-2.82 10.975-7.78-1.18-1.664-10.829 7.686-2.278 1.253a4.114 4.114 0 0 0 .33-1.401c.129-.759 2.503-3.72 4.64-6.01l.672-.72-3.404-3.404-9.846-1.136-.311.207a47.997 47.997 0 0 1-6.856 4.04c-.79.032-1.855.781-4.593 2.834a29.094 29.094 0 0 1-3.52 2.432c-1.183.088-3.631 1.716-5.163 2.816l-8.053.322-5.565-4.947 1.13-5.367 3.984-2.213 1.89-1.89 6.358 4.45.232 1.863-3.857 3.857 1.442 1.442 4.563-4.562-.47-3.751-6.805-4.763 3.01-3.01 10.767-7.988 9.623-5.499 6.786-1.292 9.243 6.272Zm-27.4 44.67-2.742-1.646-6.018-6.618 9.154-7.22 9.548-9.19 6.202-8.585 3.497.404 1.513 1.512c-1.933 2.128-4.518 5.236-4.518 6.637a10.382 10.382 0 0 1-1.551 3.233l-8.656 4.76-5.75 8.266-2.42 5.98Zm24.497-203.768 5.13 6.71s2.5 3.947 3.422 4.21c.92.263 9.21 5.131 9.21 5.131l3.42 3.815-.658 2.237-2.631-.79.374 12.85h.821v-11.574l2.258 1.29.608-4.86-6.474-5.71-6.998-3.38.27-.173-5.444-8.502-10.878-9.605-1.243 1.407 1.05-.03Zm16.972 52.627s-3.684 7.367-4.079 7.63c-.394.264-3.684 1.711-3.684 1.711l.264 1.842a43.416 43.416 0 0 1 4.341 3.552c.161.322 2.443 4.688 4.188 8.026h1.787a22.712 22.712 0 0 0-9.588-12.029q.288-.644.558-1.332c.34-.218.677-.447 1.008-.699 4.851-3.685 7.432-10.1 7.672-19.095v-6.273l-1.171-1.757.283 9.74Z"/>
  <path d="m353.473 190.22 3.785 5.91-.52-.25-12.598-1.08-14.165 2.478-5.846 2.527.817 1.868 5.501-2.407 13.783-2.412 11.96 1.025 9.88 4.77 5.455 4.813-.095.755-1.128-.645-11.735-4.283-.2-.05c-.49-.072-12.035-1.766-14.884-1.766-2.853 0-13.73 1.695-14.191 1.767l-.216.034-14.216 9.24 1.111 1.71 13.85-9.003c1.564-.24 11.175-1.708 13.662-1.708 2.566 0 13.316 1.558 14.485 1.728l10.809 3.93v10.83l-2.693-4.04-5.607-6.368-13.022-1.448-13.77-.006-11.141 7.907-10.483 11.887-3.81 11.05.57.449c.531.417 5.288 4.077 8.7 4.077 1.92 0 9.25 1.168 14.101 1.941 3.941.628 5.47.866 5.897.866 1.093 0 13.087-2.978 16.737-3.89l8.098-3.663 6.733-7.855c-.386 7.743-2.675 13.26-6.81 16.41-5.85 4.456-13.56 2.62-13.636 2.602l-.246.99-.247.989a19.833 19.833 0 0 0 4.455.469 19.454 19.454 0 0 0 7.02-1.258c-1.834 3.72-4.124 6.102-6.831 7.092a9.21 9.21 0 0 1-7.055-.462l-1.002 1.775a11.243 11.243 0 0 0 5.144 1.24 10.47 10.47 0 0 0 3.579-.625c3.014-1.09 5.548-3.543 7.568-7.3a20.849 20.849 0 0 1 8.386 10.184h.318a2660.106 2660.106 0 0 1-4.188-8.026 43.416 43.416 0 0 0-4.341-3.552l-.264-1.842s3.29-1.448 3.684-1.71c.395-.264 4.079-7.631 4.079-7.631l1.579-8.684-.283-9.74-.027-.04h.025l-.373-12.85 2.631.79.658-2.237-3.42-3.815s-8.29-4.868-9.21-5.131c-.921-.263-3.421-4.21-3.421-4.21l-5.131-6.71-7.763-6.973-1.05.029-.107.12Zm15.624 40.468-.844-5.067-19.644-8.003-23.69-.707-.061 2.038 23.323.697 18.247 7.434.53 3.178-5.858 6.835-7.429 3.377c-5.802 1.45-15.247 3.747-16.145 3.806-.386-.012-3.028-.432-5.583-.84-5.498-.876-12.34-1.966-14.423-1.966-2.017 0-5.236-2.03-6.863-3.21l3.201-9.282 9.963-11.338 10.514-7.461h12.95l12.184 1.353 4.956 5.618 4.703 7.053v5.628q-.012.434-.03.857Zm-63.872 97.733 6.424-.676h-11.352l4.928.676zm56.897-.281c-.263.526-6.052 9.867-6.052 9.867l-2.596 1.406.603.693 4.582-3.98 4.438-7.398v-.983h-.908a1.335 1.335 0 0 1-.067.394Z"/>
  <path d="M362.122 328.14a1.335 1.335 0 0 0 .067-.395h-1.13v.42l-3.982 6.635-4.337 3.768.669.77.065.075 2.596-1.406s5.789-9.341 6.052-9.868Zm9.604-61.31.884 1.266a23.524 23.524 0 0 0-1.093-5.082h-1.787l1.996 3.815Zm6.447 11.182c-.132.527-1.316 4.474-1.579 5.131-.263.658-9.736 13.552-9.736 13.552l2.237 4.473s.394 3.158.131 3.684c-.263.526-8.552 13.42-8.552 13.42l1.316 3.552s.306 4.494.199 5.92h.908v-6.85l-1.117-2.98-.012.005.876-.71 6.13-9.376 1.554-5.05-2.447-5.937.304-.282 7.847-10.669 3.07-5.732-.096-.38a41.531 41.531 0 0 1-1.022-5.016c0-.36 0-1.454-5.186-7.01l-.379.352 3.054 4.378s2.631 4.999 2.5 5.525Z"/>
  <path d="M369.73 263.014h-.318a20.294 20.294 0 0 1 1.163 9.65l-6.53 11.342-6.781 8.137c-4.578 1.608-12.051 4.058-13.43 4.058-2.066 0-21.518.33-22.785.35-1.468-.08-25.32-1.402-28.439-1.402-1.81 0-10.567-1.438-16.961-2.487-5.936-.975-8.413-1.372-8.985-1.372-1.26-.06-19.831-3.788-32.04-6.285l-24.862-7.704-11.413-2.58-4.861 3.646-1.566 5.48 1.183 5.914 12.275 8.304 20.059 11.616 22.925 9.532.11.047 23.948 3.873 14.787 2.815 13.088 1.797h11.352l20.297-2.137 13.967.35.153.003 9.122-2.554 5.12-4.144.75 2v6.482h1.13c.108-1.427-.198-5.92-.198-5.92l-1.316-3.553s8.29-12.894 8.552-13.42c.264-.526-.131-3.684-.131-3.684l-2.237-4.473s9.473-12.894 9.736-13.552c.263-.657 1.447-4.604 1.579-5.13.131-.527-2.5-5.526-2.5-5.526l-3.054-4.378-.007.007-.003-.02-.883-1.267-1.996-3.815Zm2.823 10.184a17.296 17.296 0 0 0 .181-2.702 27.534 27.534 0 0 1 3.412 4.36 39.465 39.465 0 0 0 .987 5.039l-2.589 4.853-7.617 10.388c-.191.177-.757.7-1.54 1.414-5.893 5.377-8.643 7.542-9.17 7.751l-8.32 2.08-23.704 1.046-24.795-1.396-24.848-4.55-.1-.018-19.963.35-20.525-5.219-18.101-6.265-9.73-5.908-1.06 1.743 9.824 5.965 18.44 6.406 20.782 5.288.132.034 20.034-.352 24.81 4.543 25.036 1.419.051.002 23.91-1.055 8.621-2.134c.423-.106 1.412-.356 9.769-7.966l1.883 4.573-1.253 4.071-5.798 8.868-7.08 5.73-8.42 2.359-13.881-.348-.067-.001-26.607 2.801-17.718-2.43-14.764-2.812-23.74-3.841-22.632-9.401-19.91-11.526-11.552-7.816-.922-4.61 1.24-4.344 3.56-2.669 10.378 2.343 24.871 7.707.098.025c5.172 1.058 31.048 6.336 32.48 6.336.536.01 4.672.688 8.672 1.345 7.179 1.179 15.315 2.514 17.292 2.514 3.094 0 28.11 1.388 28.362 1.402l.037.002h.037c.207-.004 20.715-.351 22.788-.351 2.17 0 12.353-3.556 14.373-4.269l.264-.093 7.197-8.636 6.854-11.873Z"/>
  <path d="M201.51 270.878a17.73 17.73 0 0 1 6.99-.036l.52-1.973c-.513-.135-12.674-3.17-23.84 9.794l1.546 1.33c5.387-6.256 11.014-8.41 14.785-9.115Zm-3.167-7.864 6.795-1.641-.478-1.982-10.175 2.456.282 1.167h3.576zm-3.379.816 3.379-.816h-3.576l.197.816zm124.358-9.824a59.388 59.388 0 0 1 10.95 9.008h2.78a58.046 58.046 0 0 0-9.314-8.49l7.863.926 6.83-1.438-.42-1.995-6.503 1.369-11.418-1.343a47.908 47.908 0 0 0-5.666-3.118l-.912 1.821 5.792 3.258Z"/>
  <path d="m336.639 271.423 1.76-1.03a48.154 48.154 0 0 0-5.347-7.38h-2.78a46.425 46.425 0 0 1 6.367 8.41Zm-128.605-52.325 3.472 2.025.247 1.318 1.523-.285 11.108 6.479.075.04c3.3 1.571 7.174 3.635 7.66 4.205.696 1.045 8.405 5.337 14.75 8.752l.127.07.142.03c5.077 1.088 15.11 3.288 16.732 3.83 1.186.395 4.878.493 8.24.493 2.91 0 5.57-.073 6.146-.09l12.018-1.411 8.659-3.215-.118-.315 2.6 1.671v2.503l-3.748 3.436-8.393 3.497-1.549 1.267.058-.698c-3.797-.317-8.323-.884-8.992-1.236-.49-.326-1.309-.873-20.213-.873-3.641 0-12.59-2.03-13.71-2.403-.976-.325-8.82-2.652-10.323-3.098-1.323-1.256-9.206-8.638-15.452-12.254l-1.022 1.764c6.481 3.753 15.155 12.05 15.242 12.133l.179.172.238.07c.094.028 9.468 2.806 10.493 3.148 1.21.403 10.442 2.508 14.355 2.508 15.66 0 18.619.393 19.152.573 1.086.621 5.33 1.115 8.511 1.408l-1.075.88-4.63 7.522h2.395l3.792-6.161 3.61-2.955 8.448-3.52 4.673-4.282v-4.515l-5.069-3.257-3.45-11.042-7.595-10.126-7.943-4.692-19.12-9.914-14.682-1.433-17.425 1.778-13.365 5.057-7.41 9.176-4.46 2.378-1.849-1.618.904-5.421 8.498-8.158 7.488-6.127 10.543-2.04 11.816-.348h12.596l10.282.342 10.685 5.859c4.583 2.371 9.883 5.435 10.433 6.217.721 1.443 8.546 8.794 11.033 11.11l7.15 9.192 1.015 7.447 2.02-.276-1.09-7.99-7.535-9.69-.11-.12c-4.875-4.539-10.196-9.741-10.66-10.585-.74-1.48-7.409-5.094-11.297-7.105l-7.261-3.982 16.65.278 5.995 3.664 7.941 7.25 4.348 5.352 2.059 11.32 2.006-.365-2.152-11.835-4.726-5.817-8.173-7.477-6.708-4.122-21.328-.356-10.543-.35h-12.66l-11.93.351-11.292 2.172-7.918 6.478-9.075 8.708-1.202 7.21 3.765 3.294Zm77.919-.393 7.14 9.52 3.567 11.414.368.237-7.116 2.667-11.76 1.385c-4.549.13-12.234.166-13.638-.3-2.046-.683-15.194-3.514-16.807-3.86-6.297-3.393-13.167-7.304-13.924-8.065-.841-1.134-5.595-3.511-8.409-4.852l-9.035-5.27 6.608-1.239c4.107-.489 14.95-1.743 16.335-1.743.594 0 2.781.196 5.097.403 6.832.61 10.033.845 10.938.62.974-.245 10.512-1.168 16.666-1.728l9.824-.701-.07-.98Zm-69.909-9.041 12.598-4.767 16.958-1.73 14.087 1.374 18.722 9.706 1.727 1.02-8.318.595c-1.588.144-15.557 1.421-16.988 1.779-.852.172-6.747-.355-10.27-.67-2.566-.23-4.592-.412-5.278-.412-1.794 0-16.006 1.69-16.61 1.762l-9.024 1.69-4.052-2.364Z"/>
  <path d="M279.609 264.521a54.6 54.6 0 0 1-6.997 3.262c-1.058 0-7.257 2.89-12.302 5.33-.87.267-9.104 2.784-11.021 3.104l.335 2.012c2.148-.359 10.984-3.074 11.36-3.19l.144-.056c4.998-2.418 10.657-4.998 11.54-5.162 1.22-.07 5.606-2.292 8.138-3.625l.247-.13 1.878-3.052h-2.394Zm9.63-81.905-1.311.908 1.784-.224Z"/>
  <path d="m293.852 192.863 2.572 4.5-1.285 4.5 1.96.56 1.522-5.326-3.02-5.285-5.89-8.512-1.783.224-.366.253Z"/>
  <path fill="#c82727" d="m355.068 190.486 8.937-.865s22.2 6.63 23.065 7.496 12.11 5.766 12.11 5.766l6.593.572.86-6.017-4.859-6.952-14.127-10.38-16.146-7.784-10.09-3.46-3.579-50.99-8.53-12.727-12.686-10.379-16.434-8.072-17.01-.289-32.003 4.037-29.408 5.766-1.744-5.041a49.73 49.73 0 0 0-6.905-1.302c-1.73 0-17.285 4.819-17.285 4.819l-9.528 4.984-2.018 5.766-13.55 7.496-10.957 13.839-6.342 13.262s-3.172 13.262-3.172 14.127 1.73 8.073 2.883 8.65 10.091 2.883 10.091 2.883l11.66 5.768 16.883 9.8 21.047 6.92s19.893-1.442 21.911-1.442 32.003-3.17 33.733-3.17 34.597-2.596 35.462-2.596 20.47-.288 20.47-.288l7.784 6.92Z"/>
  <path d="m347.255 218.807 2.631 5.526 1.579 6.315-.79 3.947-3.42 8.684-10.789 1.842-17.367-3.158-2.105-6.052.79-5.526 1.842-8.683 4.473-5 2.894 1.579 19.209.526m-78.151-.789 3.158 6.052.263 7.368-1.579 6.578-3.42 5.263-5.526.263-21.051-6.315-8.42-7.368 1.052-4.737 2.895-4.473 3.859-3.07 14.823.439s13.42 1.052 13.946 0Zm135.918-26.668-8.243-7.169-11.783-7.865-19.396-7.053-2.744-1.05-.818-16.714c-.984-8.156-2.449-20.646-2.449-21.63 0-1.422-.675-11.567-.704-11.997l-.015-.227-5.788-10.491-9.668-10.026-14.862-8.493-12.288-3.642h-16.987l-16.657 2.119c-6.736 1.122-17.202 2.792-18.428 2.792-1.816 0-15.825 3.173-17.449 3.543l-4.887 1.278.794-.398-1.58-3.16-5.154-1.982-7.606.724-12.235 2.87-9.2 5.887-1.875 4.873 1.276.49-5.143 1.346-.153.04-10.784 6.83-7.465 8.531-6.776 11.379-5.405 18.62v6.726l3.476 6.18 21.92 7.778 7.334 6.635 16.282 7.433 14.366 3.609 26.866-1.769 38.911-4.206 27.67-2.102 23.045.35 24.343 3.477 19.157 9.056.872-1.844-19.436-9.188-24.711-3.53-23.331-.362-27.796 2.112-38.901 4.206-26.505 1.745-13.788-3.448-15.91-7.263-7.401-6.697-21.585-7.659-2.84-5.047v-5.905l5.187-17.979 6.552-11.035 7.209-8.238 10.267-6.502 45.424-11.88c5.926-1.348 15.771-3.484 16.965-3.484 1.787 0 17.03-2.532 18.724-2.815l16.426-2.097h16.629l11.673 3.433 14.505 8.29 9.278 9.62 5.439 9.858c.245 3.692.684 10.574.684 11.635 0 1.424 2.211 19.786 2.458 21.82l.768 15.728-11.79-4.515-23.294-2.471-17.635-1.764-17.307 1.413-19.998 2.105-23.287 5.285-17.455 4.19-11.707.688-14.96-2.992 7.623 5.544 6.174 3.637 14.177 3.545 13.904.38.07.002 12.397-1.417 17.545-2.808 17.147-2.799 19.23-1.399 13.272-.698 16.015 1.041 21.718 2.803 28.001 5.327 4.875 3.25 7.847 6.823 2.247 5.138-.544 3.806-4.18.279-8.235-3.773-15.087-5.964-11.853-3.596-10.379 1.074.21 2.029 9.97-1.032 11.342 3.437 14.997 5.927 8.655 3.968 6.345-.424.86-6.017Zm-197.945-87.53 1.461-3.797 8.342-5.34 11.692-2.75 7.06-.673 3.968 1.527 1.118 2.235Zm155.893 71.358-.19 1.002.13-1.011-21.816-2.814-16.199-1.056-13.412.706-19.297 1.403-17.278 2.817-17.497 2.8-12.209 1.396-13.5-.346-13.782-3.445-5.795-3.41-.055-.04 6.09 1.218 12.06-.71 17.708-4.233 23.097-5.249 19.915-2.097 17.099-1.396 17.444 1.745 23.023 2.442 16.381 6.274 19.182 6.975 2.19 1.46Z"/>
  <ellipse cx="259.955" cy="229.486" fill="#fff" rx="6.255" ry="5.263" transform="rotate(-16.566 259.955 229.486)"/>
  <circle cx="245.159" cy="231.438" r="2.631" fill="#fff"/>
  <circle cx="243.58" cy="223.281" r="2.631" fill="#fff"/>
  <circle cx="328.309" cy="234.858" r="2.368" fill="#fff"/>
  <circle cx="328.046" cy="225.649" r="2.631" fill="#fff"/>
  <circle cx="342.255" cy="230.911" r="4.736" fill="#fff"/>
</svg>
