<svg xmlns="http://www.w3.org/2000/svg" fill="none" viewBox="0 0 20 20">
  <circle cx="10" cy="10" r="10" fill="#3ceaaa"/>
  <g fill="#185e44" opacity=".95">
    <path fill-rule="evenodd" d="M7.583 5.364a1.66 1.66 0 0 1 2.303 0l1.518 1.483a1.65 1.65 0 0 1 0 2.347l-2.645 2.59 1.894 1.858c.36.358.36.929.016 1.287a.924.924 0 0 1-1.29.016l-4.59-4.48a1.65 1.65 0 0 1 0-2.347zm-.131 5.133L9.984 8.02 8.726 6.798 6.194 9.275z" clip-rule="evenodd"/>
    <path fill-rule="evenodd" d="M11.388 6.62a1.66 1.66 0 0 1 2.303 0l1.519 1.482a1.65 1.65 0 0 1 0 2.346l-4.59 4.481a.91.91 0 0 1-1.29-.016.903.903 0 0 1 .016-1.287l1.895-1.858-1.356-1.336a1.65 1.65 0 0 1 0-2.346zm1.16 3.877 1.257-1.222-1.257-1.222-1.258 1.222z" clip-rule="evenodd"/>
    <path d="M11.29 9.275 9.95 8.02 8.678 9.275l1.306 1.287z"/>
  </g>
</svg>
