<svg xmlns="http://www.w3.org/2000/svg" viewBox="0 0 95.2 86.2">
  <path fill="#88c6de" d="M78.9 0H16C7.2 0 0 7.4 0 16.6v55.2c0 4.8 5.7 7.1 8.8 3.5 3.8-4.4 10.4-4.3 14.1.1l4.9 5.7c2 2.3 5.5 2.3 7.5 0l5.1-5.8c3.8-4.3 10.3-4.3 14.1 0l5.1 5.9c2 2.3 5.5 2.3 7.5 0l5.1-5.9c3.8-4.3 10.3-4.3 14.1 0l.1.1c3.1 3.6 8.8 1.3 8.8-3.5V16.6C94.9 7.4 87.8 0 78.9 0z"/>
  <path fill="#6ca2cb" d="M78.9 3.3H16c-8.8 0-16 7.4-16 16.6v55.2c0 4.8 5.7 7.1 8.8 3.5 3.8-4.4 10.4-4.3 14.1.1l4.9 5.7c2 2.3 5.5 2.3 7.5 0l5.1-5.8c3.8-4.3 10.3-4.3 14.1 0l5.1 5.9c2 2.3 5.5 2.3 7.5 0l5.1-5.9c3.8-4.3 10.3-4.3 14.1 0l.1.1c3.1 3.6 8.8 1.3 8.8-3.5V19.9c-.3-9.2-7.4-16.6-16.3-16.6z"/>
  <circle cx="29.4" cy="31.1" r="9.7" fill="#fff"/>
  <circle cx="65.6" cy="31.1" r="9.7" fill="#fff"/>
  <linearGradient id="a" x1="57.862" x2="73.247" y1="56.9" y2="56.9" gradientTransform="matrix(1 0 0 -1 0 88)" gradientUnits="userSpaceOnUse">
    <stop offset="0" stop-color="#1eaacc"/>
    <stop offset="1" stop-color="#0584b9"/>
  </linearGradient>
  <circle cx="65.6" cy="31.1" r="7.7" fill="url(#a)" opacity=".5"/>
  <linearGradient id="b" x1="59.444" x2="71.665" y1="56.9" y2="56.9" gradientTransform="matrix(1 0 0 -1 0 88)" gradientUnits="userSpaceOnUse">
    <stop offset="0" stop-color="#1eaacc"/>
    <stop offset="1" stop-color="#0584b9"/>
  </linearGradient>
  <circle cx="65.6" cy="31.1" r="6.1" fill="url(#b)" opacity=".5"/>
  <linearGradient id="c" x1="61.717" x2="69.392" y1="56.9" y2="56.9" gradientTransform="matrix(1 0 0 -1 0 88)" gradientUnits="userSpaceOnUse">
    <stop offset="0" stop-color="#1eaacc"/>
    <stop offset="1" stop-color="#0584b9"/>
  </linearGradient>
  <circle cx="65.6" cy="31.1" r="3.8" fill="url(#c)" opacity=".5"/>
  <linearGradient id="d" x1="21.683" x2="37.067" y1="56.9" y2="56.9" gradientTransform="matrix(1 0 0 -1 0 88)" gradientUnits="userSpaceOnUse">
    <stop offset="0" stop-color="#1eaacc"/>
    <stop offset="1" stop-color="#0584b9"/>
  </linearGradient>
  <circle cx="29.4" cy="31.1" r="7.7" fill="url(#d)" opacity=".5"/>
  <linearGradient id="e" x1="23.265" x2="35.486" y1="56.9" y2="56.9" gradientTransform="matrix(1 0 0 -1 0 88)" gradientUnits="userSpaceOnUse">
    <stop offset="0" stop-color="#1eaacc"/>
    <stop offset="1" stop-color="#0584b9"/>
  </linearGradient>
  <circle cx="29.4" cy="31.1" r="6.1" fill="url(#e)" opacity=".5"/>
  <linearGradient id="f" x1="25.538" x2="33.212" y1="56.9" y2="56.9" gradientTransform="matrix(1 0 0 -1 0 88)" gradientUnits="userSpaceOnUse">
    <stop offset="0" stop-color="#1eaacc"/>
    <stop offset="1" stop-color="#0584b9"/>
  </linearGradient>
  <circle cx="29.4" cy="31.1" r="3.8" fill="url(#f)" opacity=".5"/>
  <circle cx="34.2" cy="26" r="2.2" fill="#fff" opacity=".5"/>
  <circle cx="70.4" cy="26" r="2.2" fill="#fff" opacity=".5"/>
</svg>
