<svg xmlns="http://www.w3.org/2000/svg" fill="none" viewBox="0 0 82 82">
  <path fill="#4F2778" fill-rule="evenodd" d="M41 82.002c22.588 0 41.002-18.414 41.002-41.001C82.002 18.425 63.588 0 41 0 18.425 0 0 18.425 0 41c0 22.588 18.425 41.001 41 41.001" clip-rule="evenodd"/>
  <path fill="#F9AB34" fill-rule="evenodd" d="M41 70.888c16.468 0 29.888-13.42 29.888-29.888 0-16.456-13.42-29.887-29.887-29.887-16.457 0-29.887 13.43-29.887 29.887 0 16.468 13.43 29.888 29.887 29.888" clip-rule="evenodd"/>
  <path fill="#4F2778" fill-rule="evenodd" d="M41 65.522c13.5 0 24.523-11.024 24.523-24.522S54.5 16.49 41.001 16.49 16.49 27.502 16.49 41 27.502 65.522 41 65.522" clip-rule="evenodd"/>
  <path fill="#F9AB34" fill-rule="evenodd" d="M34.375 25.432h4.252c.282 0 .506.225.506.507v3.385c0 .27-.224.495-.506.495h-4.252a.5.5 0 0 1-.505-.495v-3.386c0-.28.224-.506.505-.506m9 0h4.262c.27 0 .495.225.495.507v3.385c0 .27-.224.495-.495.495h-4.263a.5.5 0 0 1-.506-.495v-3.386c0-.28.225-.506.506-.506m4.757 17.188v-5.366h3.487c2.779 0 5.05-2.283 5.05-5.061v-2.936h-5.263v2.722H40.1v.011h-9.719a5.064 5.064 0 0 0-5.05 5.05v2.937h5.264v-2.723h3.274v18.762c0 .428.292.653.652.507l3.959-1.53c.36-.135.652-.596.652-1.012V37.254h3.735v18.762c0 .428.293.653.664.507l3.948-1.53c.36-.135.652-.596.652-1.012z" clip-rule="evenodd"/>
</svg>
