<svg xmlns="http://www.w3.org/2000/svg" fill="none" viewBox="0 0 20 20">
  <circle cx="10" cy="10" r="10" fill="#f0f8ff"/>
  <path fill="#fff" d="M5.629 13.792q-2.064-3.096 0-6.19 2.063-3.096 6.19-2.064t2.064 5.159q-1.032 4.125-6.19 4.126z"/>
  <path fill="#000" fill-rule="evenodd" d="M8.24 5.636q-1.51.501-2.526 2.022Q4.7 9.185 4.7 10.697c0 1 .33 2.004 1 3.015l2.016 1.008c1.696-.003 3.041-.344 4.046-1.014 1.007-.672 1.682-1.68 2.02-3.034l.003-.011.005-.01c.683-1.367.84-2.45.513-3.27-.326-.815-1.148-1.403-2.509-1.743q-2.042-.508-3.553-.002m-.065-.196q1.585-.526 3.67-.002c1.39.347 2.288.963 2.65 1.867.359.899.173 2.047-.515 3.428-.35 1.39-1.05 2.442-2.104 3.145s-2.452 1.049-4.184 1.049h-.024l-2.11-1.055-.015-.023c-.697-1.045-1.05-2.097-1.05-3.152s.353-2.108 1.05-3.153Q6.589 5.97 8.175 5.44" clip-rule="evenodd"/>
  <path fill="#fff" d="M11.82 5.538q1.03-1.032 2.063-1.548 1.03-.516 1.547.516t-.516 2.063q-1.03.516-2.063 0-1.032-.515-1.032-1.031"/>
  <path fill="#000" fill-rule="evenodd" d="M14.753 3.959c-.223-.074-.495-.041-.824.123q-.998.498-2.005 1.497c.013.123.081.257.226.402q.24.241.747.496c.654.327 1.303.33 1.956.008.329-.332.527-.656.606-.972q.12-.476-.121-.96c-.165-.33-.362-.52-.585-.594m.065-.196c.293.098.525.339.705.697q.273.547.136 1.103c-.092.367-.32.727-.672 1.08l-.011.011-.016.008c-.716.358-1.438.358-2.155 0q-.526-.261-.8-.535c-.184-.184-.29-.38-.29-.59v-.042l.031-.03q1.04-1.042 2.09-1.567c.359-.18.689-.232.982-.135" clip-rule="evenodd"/>
  <path fill="gold" d="m13.883 3.99-.516-2.063h1.031z"/>
  <path fill="#000" fill-rule="evenodd" d="M13.3 1.875h1.165l-.532 2.128h-.1zm.133.103.45 1.8.45-1.8z" clip-rule="evenodd"/>
  <path fill="#fff" d="M14.399 2.958q.102-.515-.516-.206Z"/>
  <path fill="#000" fill-rule="evenodd" d="M14.455 2.74a.5.5 0 0 1-.006.228l-.101-.02a.4.4 0 0 0 .007-.183c-.01-.039-.028-.058-.053-.068q-.042-.02-.143.002a1.2 1.2 0 0 0-.253.1l-.046-.093q.158-.08.275-.107a.35.35 0 0 1 .205.002.19.19 0 0 1 .115.139" clip-rule="evenodd"/>
  <path fill="#fff" d="M14.914 2.958q.104-.515-.515-.206Z"/>
  <path fill="#000" fill-rule="evenodd" d="M14.97 2.74a.5.5 0 0 1-.005.228l-.101-.02a.4.4 0 0 0 .007-.183c-.01-.039-.028-.058-.053-.068q-.042-.02-.143.002a1.2 1.2 0 0 0-.253.1l-.047-.093q.158-.08.276-.107a.35.35 0 0 1 .205.002.19.19 0 0 1 .115.139" clip-rule="evenodd"/>
  <path fill="#000" d="M14.089 4.815a.31.31 0 1 0 0-.619.31.31 0 0 0 0 .62"/>
  <path fill="#fff" d="M13.676 4.66a.155.155 0 1 0 0-.309.155.155 0 0 0 0 .31"/>
  <path fill="#ff69b4" fill-rule="evenodd" d="M13.006 4.506c0-.209.105-.406.288-.589l.146.146c-.161.16-.228.308-.228.443s.067.282.228.443l.073.073-.073.073c-.161.16-.228.308-.228.443s.067.282.228.443l.073.073-.073.073c-.161.16-.228.307-.228.442s.067.283.228.443l-.146.146c-.183-.183-.288-.38-.288-.589 0-.181.079-.353.22-.515-.141-.163-.22-.335-.22-.516 0-.182.079-.354.22-.516-.141-.162-.22-.335-.22-.516m.516 0c0-.209.104-.406.288-.589l.146.146c-.161.16-.228.308-.228.443s.067.282.228.443l.072.073-.072.073c-.161.16-.228.308-.228.443s.067.282.228.443l.072.073-.072.073c-.161.16-.228.307-.228.442s.067.283.228.443l-.146.146c-.184-.183-.289-.38-.289-.589 0-.181.08-.353.22-.515-.14-.163-.22-.335-.22-.516 0-.182.08-.354.22-.516-.14-.162-.22-.335-.22-.516" clip-rule="evenodd"/>
  <path fill="#000" fill-rule="evenodd" d="M7.589 17.919v-3.096h.206v3.096zm2.063 0v-3.096h.207v3.096zm2.064 0v-3.096h.206v3.096z" clip-rule="evenodd"/>
  <path fill="#000" d="M13.883 10.696a8.4 8.4 0 0 1 0 4.127Z"/>
  <path fill="#000" fill-rule="evenodd" d="M13.783 14.798a8.3 8.3 0 0 0 0-4.077l.2-.05a8.5 8.5 0 0 1 0 4.177z" clip-rule="evenodd"/>
  <path fill="#ff69b4" fill-rule="evenodd" d="M4.892 14.261c.101-.203.343-.388.69-.562l.093.185c-.34.17-.529.33-.599.47a.26.26 0 0 0-.024.186.47.47 0 0 0 .134.21l.073.073-.073.073a.47.47 0 0 0-.134.21.26.26 0 0 0 .024.187c.07.14.258.3.599.47l-.093.184c-.347-.173-.589-.358-.69-.562a.47.47 0 0 1-.04-.329.6.6 0 0 1 .122-.233.6.6 0 0 1-.123-.232.47.47 0 0 1 .04-.33" clip-rule="evenodd"/>
  <path fill="#ff69b4" fill-rule="evenodd" d="M5.268 15.34c0-.136-.067-.283-.228-.444l.146-.146c.183.184.288.38.288.59 0 .208-.105.405-.288.588l-.146-.146c.16-.16.228-.308.228-.443" clip-rule="evenodd"/>
  <path fill="#000" d="M7.692 18.125c.285 0 .516-.092.516-.206s-.231-.207-.516-.207-.516.093-.516.207.231.206.516.206m2.064 0c.284 0 .515-.092.515-.206s-.23-.207-.515-.207-.516.093-.516.207.23.206.516.206m2.064 0c.284 0 .515-.092.515-.206s-.231-.207-.516-.207-.516.093-.516.207.231.206.516.206m2.064-3.095c.285 0 .516-.093.516-.207s-.231-.206-.516-.206-.516.092-.516.206.23.207.516.207"/>
  <path fill="#000" fill-rule="evenodd" d="M6.955 10.346q-.121.12-.248.374l-.093-.047a1.6 1.6 0 0 1 .268-.4c.091-.091.19-.144.294-.144.105 0 .203.053.295.144q.136.139.267.4l-.092.047a1.5 1.5 0 0 0-.248-.374c-.08-.08-.154-.114-.222-.114-.067 0-.14.034-.221.114m2.063 1.032q-.12.12-.248.373l-.092-.046a1.6 1.6 0 0 1 .267-.4c.092-.092.19-.144.295-.144s.203.052.294.144q.137.138.268.4l-.093.046a1.5 1.5 0 0 0-.248-.373c-.08-.08-.154-.114-.221-.114-.068 0-.141.033-.222.114" clip-rule="evenodd"/>
</svg>
