<svg xmlns="http://www.w3.org/2000/svg" fill="none" viewBox="0 0 20 20">
  <circle cx="10" cy="10" r="10" fill="#162f29"/>
  <path fill="#fff" d="m15.938 10.032-.003.18h-2.888v-.131h-2.78l.001-.082v-.082h2.779v-.13h2.885q.005.122.005.245m-5.72-.593 2.72-.334.017.13 2.872-.353a6 6 0 0 0-.097-.417l-2.828.348.017.13-2.733.337q.018.08.032.161zm-.142-.526 2.6-.65.032.128 2.76-.689a6 6 0 0 0-.184-.393l-2.678.67.032.126-2.622.656q.033.075.06.153zm-.23-.493 2.43-.917.047.123 2.571-.971a6 6 0 0 0-.264-.356l-2.458.927.047.123-2.46.93q.046.069.087.141m-.319-.456 2.147-1.119.06.117 2.373-1.237a6 6 0 0 0-.34-.304l-2.23 1.163.06.117-2.183 1.138q.058.061.112.125zm-.518-.492 1.944-1.235.07.11 2.145-1.363a6 6 0 0 0-.414-.241l-1.958 1.245.07.111-2 1.271q.074.05.144.102m-.459-.287 1.629-1.335.083.101 1.835-1.505a6 6 0 0 0-.478-.159L9.992 5.622l.084.101-1.689 1.385q.084.036.163.077m-.608-.236 1.287-1.28.092.092 1.635-1.625a6 6 0 0 0-.54-.064L9.022 5.459l.092.093-1.359 1.352q.094.019.187.045m-.711-.108 1.026-1.243.101.083 1.336-1.618q-.305.014-.6.058L8.03 5.411l.101.083-1.11 1.346a3 3 0 0 1 .21 0zm-.615.037.79-1.223.11.072.956-1.48a6 6 0 0 0-.64.206l-.673 1.041.11.072-.875 1.355q.11-.026.222-.044zm-.683.19.568-1.065.116.062.752-1.41a6 6 0 0 0-.696.4l-.432.81.116.061-.67 1.254q.12-.06.245-.11zm-.49.25.241-.686.124.044.47-1.333a6 6 0 0 0-.67.618l-.201.574.124.044-.317.898a3 3 0 0 1 .228-.158m-.603.492.107-.5.128.028.215-1.004a6 6 0 0 0-.598.922l.095.02-.196.826q.116-.153.249-.292m-.443.583v-.66a6.5 6.5 0 0 0-.335 1.462q.114-.43.335-.802m-.33 2.427q.096.661.326 1.267V11.6a3.2 3.2 0 0 1-.326-.78m.545 1.106.171.798-.095.02q.257.491.597.922l-.215-1.004-.128.027-.108-.505a3 3 0 0 1-.222-.26zm.596.593.318.903-.124.044.202.574q.312.334.67.618l-.47-1.333-.124.044-.242-.69a4 4 0 0 1-.23-.158zm.475.298.67 1.258-.116.062.433.81q.333.222.696.399l-.753-1.41-.116.062-.57-1.068a3 3 0 0 1-.245-.112m.706.26.876 1.357-.11.072.673 1.041q.312.12.64.206l-.956-1.48-.11.072-.791-1.225a3 3 0 0 1-.223-.044zm.626.083 1.111 1.347-.101.083 1.063 1.289q.296.045.6.059l-1.335-1.62-.101.084-1.026-1.244q-.056.003-.113.002-.05 0-.099-.002zm.737-.064 1.358 1.351-.092.093 1.394 1.387q.273-.02.54-.064l-1.635-1.626-.093.094-1.285-1.28a3 3 0 0 1-.187.045m.633-.202 1.686 1.384-.083.101 1.627 1.335q.244-.07.477-.16l-1.835-1.504-.083.101-1.627-1.335a3 3 0 0 1-.163.078m.478-.263 1.997 1.27-.07.11 1.958 1.246q.213-.112.414-.24l-2.145-1.364-.07.11-1.941-1.234a3 3 0 0 1-.144.103zm.55-.468 2.18 1.136-.06.117 2.231 1.163a6 6 0 0 0 .34-.304l-2.374-1.237-.06.117-2.144-1.118a3 3 0 0 1-.112.126m.345-.44 2.457.928-.047.123 2.458.928q.138-.173.264-.357l-2.571-.97-.047.123-2.427-.917a3 3 0 0 1-.087.142m.258-.482 2.617.654-.032.127 2.678.669q.099-.193.184-.393l-2.76-.689-.03.127-2.597-.648zm.17-.52 2.729.336-.017.13 2.828.349q.056-.207.097-.417l-2.872-.354-.017.131-2.716-.334q-.014.08-.032.16"/>
</svg>
