<svg xmlns="http://www.w3.org/2000/svg" fill="none" viewBox="0 0 20 20">
  <g clip-path="url(#polkadot_svg__a)">
    <circle cx="10" cy="10" r="10" fill="#e6007a"/>
    <path fill="#fff" d="M10 5.897c1.404 0 2.543-.662 2.543-1.48 0-.816-1.139-1.479-2.543-1.479s-2.543.663-2.543 1.48S8.596 5.898 10 5.898m0 11.143c1.404 0 2.543-.662 2.543-1.48 0-.817-1.139-1.48-2.543-1.48s-2.543.663-2.543 1.48c0 .818 1.139 1.48 2.543 1.48M6.456 7.944c.702-1.217.698-2.534-.01-2.942s-1.85.246-2.553 1.462-.697 2.533.01 2.942c.708.408 1.85-.246 2.553-1.462m9.651 5.571c.702-1.216.697-2.533-.01-2.941-.708-.409-1.85.246-2.553 1.462s-.698 2.533.01 2.942c.708.408 1.85-.246 2.553-1.463m-9.661 1.463c.708-.409.712-1.726.01-2.942s-1.845-1.871-2.553-1.463c-.707.409-.712 1.726-.01 2.942.703 1.216 1.845 1.871 2.553 1.463m9.651-5.572c.707-.409.712-1.726.01-2.942-.703-1.216-1.845-1.87-2.553-1.462s-.712 1.725-.01 2.942c.702 1.216 1.845 1.87 2.553 1.462"/>
  </g>
  <defs>
    <clipPath id="polkadot_svg__a">
      <path fill="#fff" d="M0 0h20v20H0z"/>
    </clipPath>
  </defs>
</svg>
