<svg xmlns="http://www.w3.org/2000/svg" fill-rule="evenodd" stroke-linejoin="round" stroke-miterlimit="2" clip-rule="evenodd" viewBox="0 0 560 400">
  <path fill="#8247e5" fill-rule="nonzero" d="M349.439 153.825c-4.935-2.82-11.28-2.82-16.92 0l-39.477 23.264-26.789 14.804-38.773 23.264c-4.934 2.82-11.279 2.82-16.919 0l-30.313-18.33c-4.935-2.82-8.46-8.459-8.46-14.803v-35.248c0-5.64 2.82-11.28 8.46-14.805l30.313-17.624c4.935-2.82 11.28-2.82 16.92 0l30.313 18.33c4.934 2.82 8.46 8.459 8.46 14.803v23.264l26.788-15.509v-23.969c0-5.64-2.82-11.279-8.46-14.804L228.185 83.33c-4.934-2.82-11.279-2.82-16.919 0l-57.806 33.838c-5.64 2.82-8.46 8.46-8.46 14.1v66.266c0 5.64 2.82 11.28 8.46 14.804l57.101 33.133c4.935 2.82 11.28 2.82 16.92 0l38.772-22.559 26.789-15.509 38.773-22.559c4.934-2.82 11.279-2.82 16.919 0l30.313 17.624c4.935 2.82 8.46 8.46 8.46 14.805v35.248c0 5.64-2.82 11.279-8.46 14.804l-29.608 17.624c-4.935 2.82-11.28 2.82-16.92 0l-30.313-17.624c-4.934-2.82-8.46-8.46-8.46-14.804v-22.56l-26.788 15.51v23.264c0 5.64 2.82 11.28 8.46 14.804l57.102 33.133c4.934 2.82 11.279 2.82 16.919 0l57.102-33.133c4.934-2.82 8.46-8.46 8.46-14.804v-66.972c0-5.64-2.82-11.279-8.46-14.804z"/>
</svg>
