<svg xmlns="http://www.w3.org/2000/svg" viewBox="0 0 500 500">
  <defs>
    <linearGradient id="polygon_svg__b" x1="-116.09" x2="437.45" y1="25.97" y2="364.71" gradientUnits="userSpaceOnUse">
      <stop offset="0" stop-color="#a229c5"/>
      <stop offset="1" stop-color="#7b3fe4"/>
    </linearGradient>
    <clipPath id="polygon_svg__a">
      <circle cx="250" cy="250" r="244.91" fill="none"/>
    </clipPath>
  </defs>
  <g clip-path="url(#polygon_svg__a)">
    <path fill="url(#polygon_svg__b)" d="M-18.1-18.1h536.2v536.2H-18.1z"/>
  </g>
  <path fill="#fff" d="m320.83 302.85 69.29-40.01c3.67-2.12 5.94-6.06 5.94-10.3v-80.01c0-4.23-2.28-8.18-5.94-10.3l-69.29-40.01a11.934 11.934 0 0 0-11.89 0l-69.29 40.01a11.926 11.926 0 0 0-5.94 10.3v142.99l-48.59 28.05-48.59-28.05v-56.11l48.59-28.05 32.05 18.5v-37.64l-26.11-15.07a11.914 11.914 0 0 0-11.89 0l-69.29 40.01a11.913 11.913 0 0 0-5.94 10.3v80.01c0 4.23 2.28 8.18 5.94 10.3l69.29 40.01c3.66 2.11 8.22 2.11 11.89 0l69.29-40c3.67-2.12 5.94-6.07 5.94-10.3V184.49l.88-.5 47.71-27.55 48.59 28.05v56.11l-48.59 28.05-32-18.48v37.64l26.06 15.05c3.67 2.11 8.22 2.11 11.89 0Z"/>
</svg>
