<svg xmlns="http://www.w3.org/2000/svg" fill="none" viewBox="0 0 20 20">
  <circle cx="10" cy="10" r="10" fill="#8247e5"/>
  <path fill="#fff" fill-rule="evenodd" d="M6.813 4.551c-.066.025-.76.4-1.54.836-1.006.56-1.451.817-1.522.882a.8.8 0 0 0-.158.205l-.058.114v3.535l.057.113c.109.214.143.236 1.708 1.106.8.444 1.493.82 1.542.835.13.039.374.034.503-.012.103-.036 1.07-.57 2.489-1.374 1.573-.891 2.734-1.534 2.83-1.566a.7.7 0 0 1 .282-.026c.225.01.224.009 1.17.536.787.44.881.506.987.706a1 1 0 0 1 .08.228c.03.156.03 1.74 0 1.897a.75.75 0 0 1-.22.415c-.128.12-1.684 1.013-1.833 1.051a.9.9 0 0 1-.446-.005c-.058-.017-.465-.23-.905-.473-.882-.489-.968-.55-1.077-.775l-.057-.117-.01-.63-.01-.628-.63.355-.63.356v.56c0 .342.009.602.022.665a.7.7 0 0 0 .271.435c.167.121 2.953 1.657 3.054 1.684.152.04.354.032.494-.02.066-.023.76-.399 1.542-.834 1.55-.862 1.566-.873 1.68-1.106l.056-.114V9.869l-.057-.112c-.107-.213-.145-.237-1.715-1.116-.803-.45-1.502-.83-1.553-.846a1 1 0 0 0-.493.003c-.06.02-.534.28-1.055.577-.52.298-1.259.713-1.64.922-.382.21-1.11.62-1.619.911s-.97.543-1.024.56a1 1 0 0 1-.504-.008c-.117-.04-1.595-.866-1.74-.972a.9.9 0 0 1-.28-.403c-.044-.15-.043-1.912.002-2.066a.8.8 0 0 1 .22-.355c.102-.092 1.677-.963 1.813-1.003.12-.035.345-.03.478.01.038.012.434.224.879.47.742.413.818.46.928.574.203.212.21.24.221.961l.01.608.621-.352.621-.351-.005-.637-.006-.638-.064-.13a.7.7 0 0 0-.159-.214c-.086-.078-2.796-1.629-2.984-1.709a1 1 0 0 0-.26-.039.64.64 0 0 0-.306.037" clip-rule="evenodd"/>
</svg>
