<svg xmlns="http://www.w3.org/2000/svg" fill="none" viewBox="0 0 20 20">
  <circle cx="10" cy="10" r="10" fill="#EEDFDC"/>
  <path fill="#BAB1AE" fill-rule="evenodd" d="M6.414 4.545q.11.039.17.142a.3.3 0 0 1-.17-.142" clip-rule="evenodd" opacity=".027"/>
  <path fill="#452B23" fill-rule="evenodd" d="M5.934 4.176q.05.075.141.085.045.087.142.114.044.086.14.113.043.015.057.057.06.102.17.142.183.269.452.454a.3.3 0 0 1 .113.113q.045.09.14.114.043.014.057.057.02.06.085.056.023.084.113.085.165.09.31.2.193.127.424.184.333.035.65-.015a29 29 0 0 1 1.059-.085q.728.045 1.454.085h.085a.63.63 0 0 0 .48.015.06.06 0 0 0 .028-.043.38.38 0 0 0 .283-.114.36.36 0 0 1 .17-.085.19.19 0 0 0 .14-.085q.066.003.085-.057.065.004.085-.056.064.003.085-.057.064.003.084-.057a.19.19 0 0 0 .142-.085 1 1 0 0 1 .282-.142 1 1 0 0 0 .282-.07q.17-.022.34-.015.175.081.31.227-.003.065.057.085.05.239.056.483-.044.624-.014 1.248l.07.17v.029a.36.36 0 0 0 .057.255q.008.116.042.227a.14.14 0 0 0 .07.114 1 1 0 0 1 .086.198q-.004.066.056.085a.17.17 0 0 1 .057.114q0 .157.113.255.01.164.113.284a.32.32 0 0 0 .056.199.6.6 0 0 0 .085.284v.028a.56.56 0 0 0 .056.312v.34q-.021.123.057.2v.226a.06.06 0 0 0-.043.029 1.5 1.5 0 0 0-.014.283v.227a1.2 1.2 0 0 1-.028.227.1.1 0 0 0-.042.057q-.024.2-.043.397v.029a.8.8 0 0 0-.113.34v.029q-.132.207-.197.454a.36.36 0 0 1-.085.17.19.19 0 0 0-.085.142.35.35 0 0 1-.085.142q-.06.02-.056.085 0 .028-.028.028-.06.02-.057.085 0 .03-.028.029a.09.09 0 0 0-.056.057.6.6 0 0 0-.142-.029v.114h-.085a.2.2 0 0 0 .029.113.4.4 0 0 0-.17 0q-.09.127-.211.227-.027.04.014.071-.045.021-.085-.014-.118.092-.07.227-.116-.117-.213.014.11.033 0 .043l-.056-.029.056-.085a4.04 4.04 0 0 0 1.526-2.384l.127-.737a2 2 0 0 0 .014-.34v-.228a4 4 0 0 0-.014-.454.16.16 0 0 0-.043-.085v-.057a6.4 6.4 0 0 0-.268-.993 3 3 0 0 0-.254-.454 11 11 0 0 1-.184-.482 2 2 0 0 0-.056-.312.2.2 0 0 0-.029-.142 1.3 1.3 0 0 1-.028-.284q.025-.696.014-1.39a.06.06 0 0 0-.042-.029.33.33 0 0 0-.226-.241 1.2 1.2 0 0 0-.932.326 4 4 0 0 0-.367.227q-.322.153-.65.298a1.4 1.4 0 0 1-.282.014 67 67 0 0 0-1.582-.113q-.34-.007-.677.014a.7.7 0 0 0-.283.071q-1.026.207-1.836-.426a8 8 0 0 1-.932-.865 5 5 0 0 0-.508-.426l-.31-.142a.5.5 0 0 0-.283.015.7.7 0 0 0-.127.113 3.66 3.66 0 0 0-.155 2.61v.057l.395 1.618q.066.284.113.567.144.813.353 1.618.128.393.297.766.075.221.169.426 1.093 2.4 3.7 2.696a.7.7 0 0 0-.198.014l.028.028q.735.082 1.469 0a.5.5 0 0 0-.17-.014q.288-.067.594-.1.285-.074.564-.156a.13.13 0 0 1 .085.057q.14-.073.085.057a.2.2 0 0 0-.113.085.4.4 0 0 0-.254.085 3 3 0 0 0-.509.114.27.27 0 0 1-.17.028q-.847.006-1.694-.028h-.028a.1.1 0 0 0-.056-.043q-.127-.021-.255-.014a.5.5 0 0 0-.226-.057H9.21a2.2 2.2 0 0 0-.536-.17.15.15 0 0 0-.085-.1q.076-.022.028-.07a.1.1 0 0 0-.042.028 1.4 1.4 0 0 0-.297-.057.16.16 0 0 1-.113-.056q-.02-.06-.084-.057-.042.007-.057-.029-.02-.06-.085-.056-.02-.06-.084-.057-.02-.06-.085-.057a.13.13 0 0 0-.113-.085.13.13 0 0 0-.113-.085.3.3 0 0 0-.17-.142.09.09 0 0 1-.056-.057.7.7 0 0 0-.254-.227l-.141-.17q.003-.065-.057-.085a.09.09 0 0 1-.056-.057q.003-.065-.057-.085a.4.4 0 0 1-.113-.17.4.4 0 0 0-.141-.199.17.17 0 0 1-.057-.113q.004-.066-.056-.085-.036-.016-.028-.057.011-.08-.057-.114-.035-.014-.028-.057a.19.19 0 0 0-.085-.17.53.53 0 0 0-.113-.255.27.27 0 0 0-.084-.199.5.5 0 0 0-.113-.284 1 1 0 0 0-.043-.227.14.14 0 0 0-.07-.113q-.08-.3-.142-.61-.008-.06-.056-.071-.105-.713-.24-1.419a.06.06 0 0 0-.042-.028v-.029a3 3 0 0 0-.043-.312.14.14 0 0 0-.07-.113V8.46a3 3 0 0 0-.071-.397.06.06 0 0 0-.042-.029 10 10 0 0 0-.156-.738.06.06 0 0 0-.042-.028 14 14 0 0 0-.141-.936v-.738q.02-.227.028-.454.03-.238.113-.454.09-.09.085-.227a.4.4 0 0 1 .197-.284 1 1 0 0 1 .368-.114q.215.04.423.114" clip-rule="evenodd"/>
  <path fill="#673B36" fill-rule="evenodd" d="M7.374 5.708q.81.633 1.836.426a7.6 7.6 0 0 0-1.596 1.05 4.3 4.3 0 0 0-.141-1.277 1 1 0 0 1-.099-.199" clip-rule="evenodd"/>
  <path fill="#764B46" fill-rule="evenodd" d="M13.051 5.623v.029a.9.9 0 0 0-.17.369.9.9 0 0 0-.126.255q-.025.243-.1.454-.402-.267-.818-.51a.68.68 0 0 1 .537.212.24.24 0 0 0 .112.014.4.4 0 0 1 .015-.142q.104-.223.183-.454a4 4 0 0 1 .367-.227" clip-rule="evenodd"/>
  <path fill="#BC7573" fill-rule="evenodd" d="M6.894 6.077q.038.03.028.085.002.381-.113.738a.09.09 0 0 1-.085-.028 2 2 0 0 1-.17-.256q-.132.461-.056.937a1.1 1.1 0 0 1-.31-.057q.04.205 0 .426a1.3 1.3 0 0 0-.34-.142q.009.232 0 .454a1.3 1.3 0 0 1-.31-.34 9 9 0 0 1 .621-2.228.26.26 0 0 1 .17 0q.328.187.55.496a.14.14 0 0 0 .015-.085" clip-rule="evenodd"/>
  <path fill="#C98C89" fill-rule="evenodd" d="M14.265 7.24q.04.061.028.143a.9.9 0 0 1-.113.255 1 1 0 0 0-.141-.241 15 15 0 0 0-.438-1.263q-.336-.415-.72-.057v-.056a.9.9 0 0 1 .17-.37q-.006.038.028.057.371-.26.819-.212.305.237.155.61-.065.678.198 1.305a.5.5 0 0 0 .014-.17" clip-rule="evenodd"/>
  <path fill="#BCB4B1" fill-rule="evenodd" d="M7.346 5.425q.064-.003.084.056-.064.003-.084-.056" clip-rule="evenodd" opacity=".039"/>
  <path fill="#B5AAA7" fill-rule="evenodd" d="M7.147 5.254q.096.026.142.114a.21.21 0 0 1-.142-.114" clip-rule="evenodd" opacity=".039"/>
  <path fill="#C88C89" fill-rule="evenodd" d="M6.527 5.425q.216.304.367.652a.14.14 0 0 1-.014.085 1.7 1.7 0 0 0-.55-.496.26.26 0 0 0-.17 0 9 9 0 0 0-.621 2.227 6 6 0 0 1-.48-.823v-.028q.079-.523.084-1.078.007-.61.24-1.164.291-.33.608-.014.265.345.522.695a.07.07 0 0 0 .014-.056" clip-rule="evenodd"/>
  <path fill="#764B46" fill-rule="evenodd" d="M5.34 4.29a.5.5 0 0 1 .283-.015l.31.142q.268.197.51.426.435.473.931.865.039.104.1.199.165.627.14 1.277a7.6 7.6 0 0 1 1.596-1.05.7.7 0 0 1 .282-.07q.339-.022.678-.015a.17.17 0 0 1-.085.184 26 26 0 0 0-.819.256q-.583.297-1.059.752a.15.15 0 0 0 .043.17.7.7 0 0 0 .197.043.06.06 0 0 0-.028.042q-.246.113-.438.312a.26.26 0 0 0 0 .17q.084.12.184.228a.7.7 0 0 0-.17.17 3.8 3.8 0 0 0-.776 1.021q-.15.4.24.554-.45.309-.72.78-.145.336.212.383-.165.261-.255.553-.125.225-.31.398a4 4 0 0 1-.17-.426 3 3 0 0 1 .156-.34.5.5 0 0 0 .014-.17h-.113q-.026-.683.381-1.22a.11.11 0 0 0-.014-.114q.345-.71.48-1.49-.048-.032-.085.014l-.296.54q-.384.379-.805.028l-.028.028q.12.168-.029.312a.32.32 0 0 1-.31.028 9 9 0 0 0-.113-.567.06.06 0 0 1 .042.028q.009-.167.043-.326a.35.35 0 0 1 .197 0 .8.8 0 0 0 .678.085.49.49 0 0 0 .155-.525.5.5 0 0 0-.07-.128.1.1 0 0 1 .056-.056q.364.06.212-.27a.5.5 0 0 1-.127-.156q.105-.134.24-.241a.89.89 0 0 0 .042-.937q.01-.055-.028-.085a3.7 3.7 0 0 0-.367-.652 5 5 0 0 0-.819-1.008.75.75 0 0 0-.367-.127" clip-rule="evenodd"/>
  <path fill="#F4DEDD" fill-rule="evenodd" d="M5.341 4.29q.2.015.367.127.475.454.82 1.008a.07.07 0 0 1-.015.056q-.256-.351-.522-.695-.317-.316-.608.014-.233.554-.24 1.164-.063.522-.084 1.05-.405-1.336.155-2.611a.7.7 0 0 1 .127-.114" clip-rule="evenodd"/>
  <path fill="#663A36" fill-rule="evenodd" d="M12.684 5.85a5 5 0 0 1-.184.454.4.4 0 0 0-.014.142.24.24 0 0 1-.113-.014.68.68 0 0 0-.536-.213.2.2 0 0 1-.085-.057q.143.007.282-.014.328-.145.65-.298" clip-rule="evenodd"/>
  <path fill="#B66969" fill-rule="evenodd" d="M14.18 7.638a.3.3 0 0 1-.085.142l-.197-.397q-.08-.05-.142.028l-.028-.043q.05-.134.085-.27a3.5 3.5 0 0 1-.537-.028.9.9 0 0 0-.056-.397l-.113.142a1.4 1.4 0 0 1-.226-.738q.384-.358.72.057.249.625.438 1.263.088.114.141.241" clip-rule="evenodd"/>
  <path fill="#F4DDDD" fill-rule="evenodd" d="M14.209 5.538q.016.716.028 1.419-.002.144.028.284a.5.5 0 0 1-.014.17 2.7 2.7 0 0 1-.198-1.305q.15-.373-.155-.61-.446-.047-.82.212-.033-.02-.027-.056v-.029q.394-.361.932-.326.18.06.226.241" clip-rule="evenodd"/>
  <path fill="#FCF3F4" fill-rule="evenodd" d="M10.17 6.049q.793.048 1.582.113a.2.2 0 0 0 .085.057q.416.245.819.51.11.1.226.2-.105.027-.198.056a.3.3 0 0 0-.056.227q-.036.035-.07-.028a.2.2 0 0 1 .042-.213.2.2 0 0 0-.198.071q-.026.093.085.142.068.077.169.113.121.083.254.142.27.22.621.199.099.066.226.07l.58.526q.046.067.07.142a.2.2 0 0 0-.085.085q.187.216.34.454 0 .045.027.085a.25.25 0 0 1-.226-.014l-.593-.483a1.2 1.2 0 0 0-.226-.099 4.1 4.1 0 0 1-.875-.738v-.142a.3.3 0 0 0-.254-.085.2.2 0 0 0-.142-.028 1.8 1.8 0 0 0-1.13-.142q.03.173 0 .34a1 1 0 0 1-.197.1q-.667.107-1.327.255-.49.176-.96.398a1.33 1.33 0 0 1-.678.085l-.085-.071a.7.7 0 0 1 .17-.17 2 2 0 0 1-.184-.228.26.26 0 0 1 0-.17q.19-.2.438-.312l.056.114q.255.048.508-.029h.142a.5.5 0 0 0 .226-.057 2.3 2.3 0 0 0 .423-.113.56.56 0 0 0 .254-.071q.078-.063.043-.156a1 1 0 0 1-.156-.114.37.37 0 0 1-.14.284q-.024-.003-.029-.028l.085-.17a.15.15 0 0 0-.113-.142.24.24 0 0 0-.198-.057.62.62 0 0 0-.48.057.35.35 0 0 0-.198.113.3.3 0 0 0-.197.17.13.13 0 0 0-.113.086q0 .027-.029.028H8.25a.15.15 0 0 1-.042-.17q.476-.456 1.059-.752.405-.135.819-.256a.17.17 0 0 0 .085-.184" clip-rule="evenodd"/>
  <path fill="#826058" fill-rule="evenodd" d="M12.881 6.02v.057q.009.404.226.738l.113-.142q.073.192.057.397h-.057a.14.14 0 0 0-.113-.07 1.4 1.4 0 0 0-.282-.015h-.141q.093-.029.197-.057l-.226-.198q.073-.21.1-.454a.9.9 0 0 1 .126-.256" clip-rule="evenodd"/>
  <path fill="#E3B8B8" fill-rule="evenodd" d="M5.143 5.964q-.004.555-.084 1.078v-.028q.02-.528.084-1.05" clip-rule="evenodd"/>
  <path fill="#846863" fill-rule="evenodd" d="M14.209 5.538a.06.06 0 0 1 .042.028q.011.696-.014 1.39-.012-.702-.028-1.418" clip-rule="evenodd"/>
  <path fill="#8F7C7C" fill-rule="evenodd" d="M9.52 6.957q.116-.014.198.057a.5.5 0 0 1-.197-.057" clip-rule="evenodd"/>
  <path fill="#0B0A0A" fill-rule="evenodd" d="M9.238 6.985a.13.13 0 0 0 0 .156q.178.023.34.071-.199.34-.594.27-.25-.098-.141-.355a.35.35 0 0 1 .198-.113 2 2 0 0 0 .197-.029" clip-rule="evenodd"/>
  <path fill="#E3E2E2" fill-rule="evenodd" d="M9.238 6.985q.224.004.424.1.07.134-.085.127a2 2 0 0 0-.339-.07.13.13 0 0 1 0-.157" clip-rule="evenodd"/>
  <path fill="#0B0808" fill-rule="evenodd" d="M12.825 6.985q.142-.006.283.014a.14.14 0 0 1 .112.071h.057q.018.03.056.043a.1.1 0 0 0-.056.043.24.24 0 0 0 .014.113q.072.066.127.142-.002.053-.056.07l-.127.015a6 6 0 0 1-.325-.057 1.3 1.3 0 0 0-.127-.198.31.31 0 0 1 .042-.256" clip-rule="evenodd"/>
  <path fill="#D4D4D4" fill-rule="evenodd" d="M9.012 7.07h.113q.018.189-.17.142a.16.16 0 0 1 .057-.142" clip-rule="evenodd"/>
  <path fill="#1F1616" fill-rule="evenodd" d="M12.486 7.184q-.11-.05-.085-.142a.16.16 0 0 0 .085-.028q.054.09 0 .17" clip-rule="evenodd"/>
  <path fill="#D4D4D4" fill-rule="evenodd" d="M13.22 7.07v.085a.4.4 0 0 1-.141-.014q-.053-.05 0-.099a.26.26 0 0 0 .141.028" clip-rule="evenodd"/>
  <path fill="#E6E5E5" fill-rule="evenodd" d="M13.277 7.156q.23.018.226.255h-.085a1 1 0 0 0-.127-.142.24.24 0 0 1-.014-.113" clip-rule="evenodd"/>
  <path fill="#716464" fill-rule="evenodd" d="M12.627 7.212q.039.03.028.085a.4.4 0 0 1-.169-.113q.056-.08 0-.17a.16.16 0 0 1-.085.028.2.2 0 0 1 .198-.07.2.2 0 0 0-.042.212q.035.063.07.028" clip-rule="evenodd"/>
  <path fill="#2F2322" fill-rule="evenodd" d="M9.775 7.41q-.042-.017 0-.056a.37.37 0 0 0 .141-.284q.072.066.156.114.035.093-.043.156a.56.56 0 0 1-.254.07" clip-rule="evenodd"/>
  <path fill="#4A2D2D" fill-rule="evenodd" d="M12.684 6.985h.14a.31.31 0 0 0-.042.256q.075.095.127.198a2 2 0 0 1-.254-.142q.01-.055-.028-.085a.3.3 0 0 1 .056-.227" clip-rule="evenodd"/>
  <path fill="#826058" fill-rule="evenodd" d="M6.923 6.162a.89.89 0 0 1-.043.937q-.135.108-.24.241.047.09.127.156.151.33-.212.27a.1.1 0 0 0-.056.056q.046.06.07.128a.49.49 0 0 1-.155.525.8.8 0 0 1-.678-.085.35.35 0 0 0-.197 0 2 2 0 0 0-.043.326.06.06 0 0 0-.042-.028L5.059 7.07q.207.43.48.823.124.196.31.34a7 7 0 0 0 0-.453q.178.045.34.142a1.1 1.1 0 0 0 0-.426q.15.05.31.057a2.1 2.1 0 0 1 .056-.937q.075.136.17.256a.09.09 0 0 0 .085.028q.114-.357.113-.738" clip-rule="evenodd"/>
  <path fill="#968D8C" fill-rule="evenodd" d="M8.645 7.297v.17a.16.16 0 0 1-.042-.084.24.24 0 0 0-.014.113l-.057-.113a.13.13 0 0 1 .113-.086" clip-rule="evenodd"/>
  <path fill="#4B3231" fill-rule="evenodd" d="M9.521 6.957a.5.5 0 0 0 .198.057.15.15 0 0 1 .113.142l-.085.17q.005.025.028.028-.042.038 0 .057a2.3 2.3 0 0 1-.423.113.35.35 0 0 0-.226.057h-.142a1.2 1.2 0 0 1-.282-.057.09.09 0 0 1-.056-.056v-.17a.3.3 0 0 1 .197-.17q-.11.256.141.354.396.07.593-.27.156.007.085-.127a1 1 0 0 0-.423-.1 2 2 0 0 1-.198.029.62.62 0 0 1 .48-.057" clip-rule="evenodd"/>
  <path fill="#8D6E6A" fill-rule="evenodd" d="M8.249 7.41h.254a2 2 0 0 1-.028.2l-.057-.114a.06.06 0 0 1 .029-.042.7.7 0 0 1-.198-.043" clip-rule="evenodd"/>
  <path fill="#E1DEDD" fill-rule="evenodd" d="M13.644 7.61q-.028 0-.028.028h-.085V7.58q.034-.12.043-.255a.38.38 0 0 1 .07.284" clip-rule="evenodd"/>
  <path fill="#816059" fill-rule="evenodd" d="M13.277 7.07q.267.036.537.029-.036.135-.085.27l.029.042q.061-.079.14-.028.1.198.198.397a.3.3 0 0 0 .085-.142.9.9 0 0 0 .113-.255q.038.148.056.312a.41.41 0 0 1-.197.326q.144.075.268.184a.19.19 0 0 1-.014.17.5.5 0 0 0-.07-.141l-.58-.525a.4.4 0 0 1-.226-.071h.085q.061.048.142.014a3 3 0 0 0-.071-.184.4.4 0 0 1-.042.142.38.38 0 0 0-.071-.284q-.008.136-.043.255a.27.27 0 0 0-.028-.17q.005-.237-.226-.255a.1.1 0 0 1 .057-.043.1.1 0 0 1-.057-.043" clip-rule="evenodd"/>
  <path fill="#231616" fill-rule="evenodd" d="m8.532 7.383.057.113a.2.2 0 0 0 .084.085.36.36 0 0 1-.197.029q.02-.098.028-.2.028 0 .028-.027" clip-rule="evenodd"/>
  <path fill="#D7A6A3" fill-rule="evenodd" d="M11.752 7.354q.307.062.621.057a.2.2 0 0 1 .142.028q-.339.008 0 .043a.1.1 0 0 1 .028.042.8.8 0 0 1-.367.015.09.09 0 0 1-.057-.1h-.113v.085q-.219.05-.254-.17" clip-rule="evenodd"/>
  <path fill="#D4D0D0" fill-rule="evenodd" d="M8.645 7.468q.015.042.056.056.117.062-.028.057a.2.2 0 0 1-.084-.085.24.24 0 0 1 .014-.113q.009.052.042.085" clip-rule="evenodd"/>
  <path fill="#C68987" fill-rule="evenodd" d="M11.752 7.354q.035.22.254.17V7.44h.113a.09.09 0 0 0 .057.1.8.8 0 0 0 .367-.015.1.1 0 0 0-.028-.042q-.339-.036 0-.043.15-.015.254.085a.14.14 0 0 0-.085.1.54.54 0 0 1-.31-.043.24.24 0 0 0-.184.085.3.3 0 0 1-.127-.099 4 4 0 0 1-.509-.057 1 1 0 0 0-.14-.127.06.06 0 0 1 .027-.043.6.6 0 0 1 .311.014" clip-rule="evenodd"/>
  <path fill="#4C3030" fill-rule="evenodd" d="M13.419 7.41h.084q.041.076.028.171v.057a.87.87 0 0 1-.62-.199q.16.033.324.057l.127-.014q.054-.018.056-.071" clip-rule="evenodd"/>
  <path fill="#9B8989" fill-rule="evenodd" d="M9.35 7.524a.5.5 0 0 1-.225.057.35.35 0 0 1 .226-.057" clip-rule="evenodd"/>
  <path fill="#A66565" fill-rule="evenodd" d="M11.413 7.383q.074.052.141.127.252.046.508.057a.3.3 0 0 0 .128.1.24.24 0 0 1 .183-.086q.15.068.31.043a.14.14 0 0 1 .085-.1v.142a.6.6 0 0 1-.338.156q-.096.074-.184.156a.14.14 0 0 0-.014.086q.054-.01.085.028h-.113a1 1 0 0 1 .056-.397h-.198q.015.178-.028.34a.3.3 0 0 0-.056-.213 1.3 1.3 0 0 0-.452-.212q-.173-.067-.113-.227" clip-rule="evenodd"/>
  <path fill="#726463" fill-rule="evenodd" d="M8.702 7.524q.136.046.282.057-.252.076-.508.029.108.013.197-.029.145.006.029-.057" clip-rule="evenodd"/>
  <path fill="#221514" fill-rule="evenodd" d="M13.616 7.638q0-.028.029-.028a.4.4 0 0 0 .042-.142q.04.091.07.184-.08.034-.14-.014" clip-rule="evenodd"/>
  <path fill="#754A45" fill-rule="evenodd" d="M14.35 7.695q.085.24.184.482.145.217.254.454.174.486.268.993a4.3 4.3 0 0 0-.395-.71 4 4 0 0 0-.34-.453.2.2 0 0 1 .085-.085.19.19 0 0 0 .015-.17 1.3 1.3 0 0 0-.269-.185.41.41 0 0 0 .198-.326" clip-rule="evenodd"/>
  <path fill="#E5D0CB" fill-rule="evenodd" d="M12.373 7.41a3 3 0 0 1-.621-.056.6.6 0 0 0-.311-.014.06.06 0 0 0-.028.043q-.06.16.113.227.017.03.056.042-.849.318-1.723.568-2.104.687-1.906 2.908.26 1.382 1.455 2.114 2.046 1.145 4.038-.085 1.425-1.166 1.313-3.022a3 3 0 0 0-.31-.851 5 5 0 0 0-.805-.88q.117.037.226.1l.593.482q.112.06.226.014a.16.16 0 0 1-.028-.085q.23.335.395.71v.056q.021.276.056.54v.226a.6.6 0 0 0-.028.256.22.22 0 0 0-.099.142q-.072.33-.17.652a6.1 6.1 0 0 1-1.905 2.284q-1.417.771-2.966.284-.4-.176-.79-.369-.607-.133-1.215-.255a1.67 1.67 0 0 1-.777-.667 5.4 5.4 0 0 1-.466-1.107q.09-.291.254-.553-.357-.048-.211-.383.27-.471.72-.78-.39-.153-.24-.554.303-.58.776-1.021.04.035.085.07.35.046.678-.084.471-.223.96-.398.66-.147 1.328-.255a1 1 0 0 0 .197-.1q.03-.167 0-.34.6-.111 1.13.142" clip-rule="evenodd"/>
  <path fill="#673B36" fill-rule="evenodd" d="M6.216 11.639a8 8 0 0 1-.297-.766 21 21 0 0 1-.353-1.618.32.32 0 0 0 .311-.028q.15-.144.028-.312l.029-.028q.42.35.804-.029l.297-.539q.036-.045.085-.014-.135.78-.48 1.49a.11.11 0 0 1 .014.113q-.405.538-.382 1.22h.113a.5.5 0 0 1-.014.17q-.09.168-.155.341" clip-rule="evenodd"/>
  <path fill="#AD918B" fill-rule="evenodd" d="M11.526 7.61q.246.06.452.212a.3.3 0 0 1 .056.213q-.573.03-1.158.057a.8.8 0 0 0-.338.085 2.8 2.8 0 0 0-1.074.482q-.435.254-.706.682a2.3 2.3 0 0 0-.451.964.1.1 0 0 0-.043.057q-.026.283-.042.568-.004.208.056.397.096.43.34.794.122.225.31.398.099.184.282.284 1.116.966 2.598.837.526-.09 1.017-.284.236-.14.452-.298.18-.098.31-.255.378-.322.594-.767.518-.932.254-1.958a2.8 2.8 0 0 0-.452-.88 1.3 1.3 0 0 0-.17-.198 2.7 2.7 0 0 0-1.496-.908q-.03-.039-.085-.028a.14.14 0 0 1 .014-.086q.088-.082.184-.156a.6.6 0 0 0 .339-.156q.383.427.875.738.454.392.805.88.22.4.31.851.111 1.856-1.312 3.022-1.992 1.23-4.039.085-1.194-.732-1.455-2.114-.197-2.22 1.907-2.908a22 22 0 0 0 1.723-.568.1.1 0 0 1-.057-.042" clip-rule="evenodd"/>
  <path fill="#573F39" fill-rule="evenodd" d="M10.876 8.092a.06.06 0 0 1-.028.043q-.156.023-.31.042a.8.8 0 0 1 .338-.085" clip-rule="evenodd"/>
  <path fill="#230D07" fill-rule="evenodd" d="M12.316 8.092q.9.204 1.497.908a.2.2 0 0 0-.028.1q.031.18.056.34a2 2 0 0 1-.084.184.5.5 0 0 0-.17.085 5 5 0 0 1-.508-.099q-.432-.21-.876-.397a1.66 1.66 0 0 0-1.073.057q-.675.36-1.384.652a1.2 1.2 0 0 1-.48.029.13.13 0 0 1-.099-.1 1.62 1.62 0 0 1 .283-1.05.4.4 0 0 0 .014-.142 2.8 2.8 0 0 1 1.073-.482l.31-.042a.06.06 0 0 0 .029-.043q.585-.026 1.158-.057.042-.162.028-.34h.198a1 1 0 0 0-.057.397z" clip-rule="evenodd"/>
  <path fill="#2A110D" fill-rule="evenodd" d="M9.464 8.66a.4.4 0 0 1-.014.141 1.62 1.62 0 0 0-.283 1.05.13.13 0 0 0 .099.1q.243.034.48-.029.708-.292 1.384-.652.528-.208 1.073-.057.444.187.876.397.26.066.508.1a.5.5 0 0 1 .17-.086q.046-.09.084-.184l-.056-.34q0-.06.028-.1.095.09.17.199a1 1 0 0 1-.057.17.7.7 0 0 1 0 .255.25.25 0 0 0-.141.043l.084.028a.9.9 0 0 1-.508.27 13 13 0 0 0-.537-.071 4.3 4.3 0 0 0-.79-.213q-.352.069-.706.156-.278.189-.593.312a3.1 3.1 0 0 1-.904.44.35.35 0 0 0-.184 0 1.8 1.8 0 0 0-.663-.227h-.057a.3.3 0 0 1-.099-.142l-.155-.723.113-.086a.08.08 0 0 1-.028-.07q.27-.429.706-.682" clip-rule="evenodd"/>
  <path fill="#321415" fill-rule="evenodd" d="M13.983 9.199q.305.398.452.88.046.268.042.538a.25.25 0 0 0-.098-.212 1.04 1.04 0 0 0-.96-.17 2 2 0 0 0-.566.312 6.3 6.3 0 0 1-1.073.936q-.355.13-.72.128a1.7 1.7 0 0 1-.55-.27 7 7 0 0 0-.791-.68 7 7 0 0 0-.735-.299q.355.049.664.227a.35.35 0 0 1 .184 0q.486-.145.903-.44.315-.123.594-.312.354-.087.705-.156.408.069.791.213.27.03.537.07a.9.9 0 0 0 .508-.269l-.084-.028a.25.25 0 0 1 .14-.043.7.7 0 0 0 0-.255 1 1 0 0 0 .057-.17" clip-rule="evenodd"/>
  <path fill="#331516" fill-rule="evenodd" d="M8.759 9.34a.08.08 0 0 0 .028.071l-.113.086.155.723a.3.3 0 0 0 .099.142 2 2 0 0 0-.621.057v-.114q.113-.54.452-.964" clip-rule="evenodd"/>
  <path fill="#AE9690" fill-rule="evenodd" d="M15.057 9.681q.032.033.042.085.021.227.014.454a9 9 0 0 1-.056-.539" clip-rule="evenodd"/>
  <path fill="#3C1A18" fill-rule="evenodd" d="M14.435 10.078q.262 1.026-.255 1.958-.047-.067.014-.142a.93.93 0 0 0-.098-.595 1 1 0 0 0-.1-.057.8.8 0 0 1-.183.042q-.68.53-1.426.95a2.6 2.6 0 0 1-1.624.072 3 3 0 0 0-.508-.17l-.424-.312a1 1 0 0 1-.141-.043 13 13 0 0 1-.508-.454 3 3 0 0 0-.396-.255.14.14 0 0 0-.07.028 3.6 3.6 0 0 0-.1 1.021 2.3 2.3 0 0 1-.338-.794q-.014-.462.028-.908.312-.08.621-.057h.057q.374.128.734.298.42.309.791.681.25.186.55.27.366.004.72-.128.589-.406 1.074-.937.258-.2.565-.312a1.04 1.04 0 0 1 .96.17q.1.081.099.213.003-.27-.042-.539" clip-rule="evenodd"/>
  <path fill="#53322F" fill-rule="evenodd" d="M8.307 10.305v.114q-.042.446-.029.908a1.2 1.2 0 0 1-.056-.397q.016-.285.042-.568a.1.1 0 0 1 .043-.057" clip-rule="evenodd"/>
  <path fill="#B89F99" fill-rule="evenodd" d="M15.113 10.447q.007.172-.014.34l-.127.738a1.3 1.3 0 0 0 0-.468q.072-.172.113-.354a.6.6 0 0 1 .028-.256" clip-rule="evenodd"/>
  <path fill="#4D1E1D" fill-rule="evenodd" d="M14.18 12.036a2.35 2.35 0 0 1-.592.767q-.024-.003-.028-.029.235-.302-.029-.567a.3.3 0 0 0-.099-.029 7.5 7.5 0 0 1-1.059.497q-.285.103-.593.142a7 7 0 0 1-.903 0 3 3 0 0 0-.622-.17 5.3 5.3 0 0 1-1.158-.625q-.36-.063-.24.298a.32.32 0 0 0 .099.17q-.005.027-.028.029a1.6 1.6 0 0 1-.31-.398 3.6 3.6 0 0 1 .098-1.021.14.14 0 0 1 .07-.028q.21.112.396.255.25.234.508.454a1 1 0 0 0 .142.042l.423.313q.262.06.508.17.825.225 1.624-.071.746-.422 1.427-.95a.8.8 0 0 0 .183-.043 1 1 0 0 1 .1.056q.149.282.098.597-.062.074-.014.141" clip-rule="evenodd"/>
  <path fill="#CAB1AC" fill-rule="evenodd" d="M15.084 10.703q-.04.182-.113.354.044.234 0 .468a4.04 4.04 0 0 1-1.525 2.384.13.13 0 0 0-.113.085l-.621.37a.8.8 0 0 0-.339.17q-.28.081-.565.155a5 5 0 0 0-.593.1 12 12 0 0 1-1.13-.029q-2.605-.295-3.7-2.695.186-.173.311-.398.171.576.466 1.107.286.457.777.667.609.12 1.214.255.393.193.791.37 1.549.487 2.966-.285a6.1 6.1 0 0 0 1.906-2.284 9 9 0 0 0 .17-.652.22.22 0 0 1 .098-.142" clip-rule="evenodd"/>
  <path fill="#612E2C" fill-rule="evenodd" d="M13.587 12.803q-.13.158-.31.255a.3.3 0 0 0-.184-.057q-.612.107-1.229.185-.762.06-1.525.028a2.6 2.6 0 0 1-1.13-.412.7.7 0 0 1-.282-.283q.023-.002.028-.029a.32.32 0 0 1-.099-.17q-.12-.36.24-.298.542.384 1.158.624.322.054.622.17.45.03.903 0 .308-.037.594-.141a7.5 7.5 0 0 0 1.059-.497.3.3 0 0 1 .098.029q.265.264.029.567.005.026.028.029" clip-rule="evenodd"/>
  <path fill="#7D413F" fill-rule="evenodd" d="M9.21 12.803q.513.335 1.13.411.763.033 1.525-.028.616-.077 1.228-.185.104 0 .184.057a5 5 0 0 1-.452.298q-.492.195-1.017.284-1.482.13-2.598-.838" clip-rule="evenodd"/>
  <path fill="#BFB6B3" fill-rule="evenodd" d="M6.753 13.143q.06.02.057.085-.06-.02-.057-.085" clip-rule="evenodd" opacity=".055"/>
  <path fill="#C0B9B5" fill-rule="evenodd" d="M6.865 13.285q.06.02.057.085-.06-.02-.057-.085" clip-rule="evenodd" opacity=".027"/>
  <path fill="#513831" fill-rule="evenodd" d="M14.378 13.257v.028q0 .028-.028.028a.13.13 0 0 0-.085.114 3.6 3.6 0 0 1-.904.794q-.064-.003-.084.057a2 2 0 0 1-.396.227.36.36 0 0 0-.169.085q-.079-.012-.113.057h-.056q.055-.13-.085-.057a.13.13 0 0 0-.085-.056.8.8 0 0 1 .339-.17v.113q.045.006.085-.014l-.029-.029a.3.3 0 0 0 .071-.042q.03.04.07.014a.5.5 0 0 0 .184-.185q.042.101.057-.028a.37.37 0 0 0 .197-.142q.03-.04-.014-.057a.13.13 0 0 1 .113-.085l-.056.085.056.029q.11-.01 0-.043.097-.13.212-.014-.047-.134.07-.227.041.035.085.014-.04-.03-.014-.07.122-.1.212-.228a.4.4 0 0 1 .17 0 .2.2 0 0 1-.029-.113h.085v-.114a.6.6 0 0 1 .141.029" clip-rule="evenodd"/>
  <path fill="#42281F" fill-rule="evenodd" d="M13.333 13.994q.045.017.014.057a.37.37 0 0 1-.197.142q-.016.13-.057.028a.5.5 0 0 1-.183.185q-.04.026-.071-.014a.3.3 0 0 1-.07.042l.028.029a.14.14 0 0 1-.085.014v-.114z" clip-rule="evenodd"/>
  <path fill="#614A43" fill-rule="evenodd" d="M8.278 14.448q.152.013.297.057a.1.1 0 0 1 .042-.028q.047.048-.028.07a.15.15 0 0 1 .085.1 2 2 0 0 1-.396-.199" clip-rule="evenodd"/>
  <path fill="#371D15" fill-rule="evenodd" d="M10.085 14.76q.564.04 1.13.029a.5.5 0 0 1 .17.014q-.735.082-1.47 0l-.027-.028a.7.7 0 0 1 .197-.015" clip-rule="evenodd"/>
  <path fill="#AFA4A1" fill-rule="evenodd" d="M12.175 14.817q-.24.102-.508.114.244-.077.508-.114" clip-rule="evenodd" opacity=".145"/>
</svg>
