<svg xmlns="http://www.w3.org/2000/svg" fill="none" viewBox="0 0 20 20">
  <path fill="#FDFDFD" fill-rule="evenodd" d="M15.25 1.244q.459.34.894.733 2.21 3.135 0 6.302a118 118 0 0 0-3.325 3.627.54.54 0 0 1-.286-.037 630 630 0 0 1-5.72-5.679q1.855-2.085 3.79-4.103 2.1-1.703 4.648-.843" clip-rule="evenodd"/>
  <path fill="#51D492" d="M2.735 10.644c-1.83 2.02-1.713 5.172.264 7.042a4.805 4.805 0 0 0 6.892-.27l3.162-3.486-7.064-6.875z"/>
  <path fill="#F2FAF6" fill-rule="evenodd" d="M3.934 12.092q.264-.054.36.183a1.1 1.1 0 0 1-.468.478q-.162-.018-.18-.183a1.03 1.03 0 0 1 .288-.478" clip-rule="evenodd"/>
  <path fill="#F0FAF5" fill-rule="evenodd" d="M3.287 13.415h.36q-.024.83.071 1.655.02.495-.323.183a3.7 3.7 0 0 1-.108-1.838" clip-rule="evenodd"/>
  <path fill="#F2FAF6" fill-rule="evenodd" d="M3.934 15.915q.374.104.612.441.024.348-.324.258l-.324-.331a.41.41 0 0 1 .036-.368" clip-rule="evenodd"/>
  <path fill="#1B8761" fill-rule="evenodd" d="M12.113 12.941q.499.482 1.033.926a3198 3198 0 0 1-3.764 4.076q-2.268 1.825-5.018.815-2.286-1.054-2.805-3.52.21.383.48.741 2.788 3.026 6.31.926a282 282 0 0 0 3.764-3.964" clip-rule="evenodd"/>
  <path fill="#fff" d="M17.227 9.325c1.83-2.019 1.712-5.172-.264-7.042a4.805 4.805 0 0 0-6.893.27L6.813 6.146l7.006 6.938z"/>
  <path fill="#B8CECF" fill-rule="evenodd" d="M15.45 1.356q2.587 1.12 3.058 3.971.258 2.104-.935 3.824-1.857 1.934-3.635 3.933-.072.075-.144 0a22 22 0 0 0-1.08-1.066.55.55 0 0 0 .288.037 118 118 0 0 1 3.347-3.64q2.223-3.176 0-6.323a12 12 0 0 0-.9-.736" clip-rule="evenodd"/>
  <path fill="#184542" d="m9.891 17.417 3.162-3.487.766-.846 3.408-3.759c1.83-2.019 1.712-5.172-.264-7.042a4.805 4.805 0 0 0-6.892.27L6.813 6.146l-.824.909-3.254 3.59c-1.83 2.018-1.713 5.171.264 7.041l-.636.702-.055-.053c-2.303-2.235-2.424-5.953-.26-8.34l7.336-8.092a5.727 5.727 0 0 1 8.215-.321c2.355 2.229 2.496 5.986.315 8.393l-7.336 8.091-.052.056a5.726 5.726 0 0 1-8.163.266l.636-.702a4.805 4.805 0 0 0 6.892-.27"/>
  <path fill="#184542" d="m5.989 7.055 7.064 6.875.766-.846-7.006-6.938z"/>
</svg>
