<svg xmlns="http://www.w3.org/2000/svg" fill="none" viewBox="0 0 20 20">
  <g clip-path="url(#qtum_svg__a)">
    <mask id="qtum_svg__b" width="20" height="20" x="0" y="0" maskUnits="userSpaceOnUse" style="mask-type:luminance">
      <path fill="#fff" d="M20 0H0v20h20z"/>
    </mask>
    <g mask="url(#qtum_svg__b)">
      <path fill="#0645f7" d="M10 20c5.523 0 10-4.477 10-10S15.523 0 10 0 0 4.477 0 10s4.477 10 10 10"/>
      <path fill="#fff" fill-rule="evenodd" d="M16.5 16.778a.527.527 0 1 1 0-1.053.526.526 0 1 1 0 1.053m-.268-5.691a.531.531 0 1 1 0-1.061c.294 0 .534.238.534.53s-.24.53-.534.53m0-1.597a.531.531 0 1 1 0-1.061c.294 0 .534.239.534.53 0 .293-.24.531-.534.531m-1.082-.946v.973h-1.082V8.323c0-.137.053-.274.16-.376L15.493 6.7a.555.555 0 0 1 .632-.115.53.53 0 0 1 .142.858zm.975 4.44a.555.555 0 0 1-.632-.115l-1.265-1.247a.52.52 0 0 1-.16-.376v-1.194h1.082v.973l1.117 1.1a.53.53 0 0 1-.142.859m-2.596-5.16v3.846l3.073 3.052c.164.163.222.42.115.623a.547.547 0 0 1-.872.146l-3.238-3.22a.54.54 0 0 1-.16-.38V7.604c0-.138.054-.275.16-.381L14.59 5.25a.55.55 0 0 1 .637-.115.54.54 0 0 1 .142.862zm-1.247-.97a.54.54 0 0 1-.383.16H7.59a.54.54 0 0 1-.383-.16L5.22 4.879c-.164-.163-.222-.42-.115-.623a.545.545 0 0 1 .868-.146l1.834 1.826h3.865l1.821-1.813a.55.55 0 0 1 .637-.115.54.54 0 0 1 .143.862zm-.587-1.613a.54.54 0 0 1-.383.159H10.1V4.325h.988l1.104-1.096a.55.55 0 0 1 .637-.115.54.54 0 0 1 .143.862zm-1.15-1.402a.531.531 0 1 1 0-1.061c.295 0 .535.239.535.53a.53.53 0 0 1-.534.531M8.352 5.4a.54.54 0 0 1-.383-.16L6.703 3.98c-.165-.163-.223-.42-.116-.623a.545.545 0 0 1 .869-.146l1.117 1.11h.989v1.075H8.35zm.587-1.561a.531.531 0 1 1 0-1.061c.294 0 .535.239.535.53a.53.53 0 0 1-.535.531m-1.9 3.768v4.288a.53.53 0 0 1-.161.381l-1.982 1.972a.55.55 0 0 1-.636.115.54.54 0 0 1-.143-.862l1.84-1.826V7.828L4.124 6.015c-.165-.164-.223-.42-.116-.624a.547.547 0 0 1 .873-.146l1.995 1.986c.107.101.16.238.16.376m-1.782.34c.107.102.16.239.16.376v1.194H4.33v-.973L3.226 7.456a.53.53 0 0 1-.116-.628.546.546 0 0 1 .868-.137zm-2 .478a.531.531 0 1 1 0 1.061.534.534 0 0 1-.534-.53c0-.293.24-.531.535-.531m0 1.596c.295 0 .535.239.535.53a.534.534 0 0 1-1.069 0c0-.291.24-.53.535-.53m1.074 1.004v-.973h1.082v1.194a.52.52 0 0 1-.16.376l-1.265 1.247a.555.555 0 0 1-.632.115.53.53 0 0 1-.143-.858zm2.872 1.516a.54.54 0 0 1 .383-.159h4.31a.54.54 0 0 1 .383.16l3.224 3.205c.164.164.222.42.115.624a.545.545 0 0 1-.868.146l-3.077-3.06H7.807l-1.82 1.813a.55.55 0 0 1-.637.115.54.54 0 0 1-.143-.862zm.766 1.61a.54.54 0 0 1 .383-.16h1.21v1.076h-.988L7.47 16.163a.55.55 0 0 1-.637.115.54.54 0 0 1-.142-.862zm.97 1.521a.53.53 0 1 1 0 1.061.534.534 0 0 1-.534-.53c0-.292.24-.53.534-.53m2.374-1.676a.54.54 0 0 1 .383.16l1.269 1.26c.164.163.222.42.115.623a.545.545 0 0 1-.868.146l-1.117-1.11h-.989v-1.074h1.207zm-.766 1.676a.531.531 0 1 1 0 1.061.534.534 0 0 1-.534-.53c0-.292.24-.53.534-.53" clip-rule="evenodd"/>
      <path fill="#fff" fill-rule="evenodd" d="M15.15 8.544v.973h-1.082V8.323c0-.137.053-.274.16-.376L15.493 6.7a.555.555 0 0 1 .632-.115.53.53 0 0 1 .142.858zm.975 4.44a.555.555 0 0 1-.632-.115l-1.265-1.247a.52.52 0 0 1-.16-.376v-1.194h1.082v.973l1.117 1.1a.53.53 0 0 1-.142.859m-3.843-6.13a.54.54 0 0 1-.383.16H7.59a.54.54 0 0 1-.383-.16L5.22 4.879c-.164-.163-.222-.42-.115-.623a.545.545 0 0 1 .868-.146l1.834 1.826h3.865l1.821-1.813a.55.55 0 0 1 .637-.115.54.54 0 0 1 .143.862zm-.587-1.613a.54.54 0 0 1-.383.159H10.1V4.325h.988l1.104-1.096a.55.55 0 0 1 .637-.115.54.54 0 0 1 .143.862zm-1.15-1.402a.531.531 0 1 1 0-1.061c.295 0 .535.239.535.53a.53.53 0 0 1-.534.531M8.352 5.4a.54.54 0 0 1-.383-.16L6.703 3.98c-.165-.163-.223-.42-.116-.623a.545.545 0 0 1 .869-.146l1.117 1.11h.989v1.075H8.35zm.587-1.561a.531.531 0 1 1 0-1.061c.294 0 .535.239.535.53a.53.53 0 0 1-.535.531m-1.9 3.768v4.288a.53.53 0 0 1-.161.381l-1.982 1.972a.55.55 0 0 1-.636.115.54.54 0 0 1-.143-.862l1.84-1.826V7.828L4.124 6.015c-.165-.164-.223-.42-.116-.624a.547.547 0 0 1 .873-.146l1.995 1.986c.107.101.16.238.16.376m-1.782.34c.107.102.16.239.16.376v1.194H4.33v-.973L3.226 7.456a.53.53 0 0 1-.116-.628.546.546 0 0 1 .868-.137zm-2 .478a.531.531 0 1 1 0 1.061.534.534 0 0 1-.534-.53c0-.293.24-.531.535-.531m0 1.596c.295 0 .535.239.535.53a.534.534 0 0 1-1.069 0c0-.291.24-.53.535-.53m1.074 1.004v-.973h1.082v1.194a.52.52 0 0 1-.16.376l-1.265 1.247a.555.555 0 0 1-.632.115.53.53 0 0 1-.143-.858zm2.872 1.516a.54.54 0 0 1 .383-.159h4.31a.54.54 0 0 1 .383.16l3.224 3.205c.164.164.222.42.115.624a.545.545 0 0 1-.868.146l-3.077-3.06H7.807l-1.82 1.813a.55.55 0 0 1-.637.115.54.54 0 0 1-.143-.862zm.766 1.61a.54.54 0 0 1 .383-.16h1.21v1.076h-.988L7.47 16.163a.55.55 0 0 1-.637.115.54.54 0 0 1-.142-.862zm.97 1.521a.53.53 0 1 1 0 1.061.534.534 0 0 1-.534-.53c0-.292.24-.53.534-.53m2.374-1.676a.54.54 0 0 1 .383.16l1.269 1.26c.164.163.222.42.115.623a.545.545 0 0 1-.868.146l-1.117-1.11h-.989v-1.074h1.207zm-.766 1.676a.531.531 0 1 1 0 1.061.534.534 0 0 1-.534-.53c0-.292.24-.53.534-.53" clip-rule="evenodd"/>
    </g>
  </g>
  <defs>
    <clipPath id="qtum_svg__a">
      <path fill="#fff" d="M0 0h20v20H0z"/>
    </clipPath>
  </defs>
</svg>
