<svg xmlns="http://www.w3.org/2000/svg" viewBox="0 0 2500 2500">
  <path fill="#0645f7" fill-rule="evenodd" d="M1250 0c688 0 1250 563 1250 1250 0 688-563 1250-1250 1250C562 2500 0 1937 0 1250 0 562 563 0 1250 0Z" clip-rule="evenodd"/>
  <path fill="#fff" fill-rule="evenodd" d="M1968 2008c-32 0-57-25-57-57s26-57 57-57c32 0 57 25 57 57s-26 57-57 57zm-29-617c-32 0-58-26-58-57 0-32 26-58 58-58s58 26 58 58-26 57-58 57zm0-173c-32 0-58-26-58-57 0-32 26-57 58-57s58 26 58 57c0 32-26 57-58 57zm-117-103v105h-117v-130c0-15 6-30 17-41l137-135c18-18 46-24 69-12 38 19 43 66 15 93l-121 119zm106 481c-23 12-51 5-69-12l-137-135c-12-11-17-26-17-41v-130h117v105l121 119c28 27 22 74-15 93zm-281-559v416l333 331c18 18 24 46 13 68-19 38-67 43-95 16l-351-349c-12-12-17-26-17-41v-464c0-15 6-30 17-41l215-214c18-18 46-24 69-12 37 20 42 67 15 93l-199 198zm-135-105c-12 12-27 17-41 17h-466c-15 0-30-6-41-17L749 718c-18-18-24-46-13-68 19-37 67-43 94-16l199 198h418l197-196c18-18 46-24 69-12 37 20 42 67 15 93zm-64-175c-12 12-27 17-41 17h-132V658h107l120-119c18-18 46-24 69-12 37 20 42 67 15 93zm-124-152c-32 0-58-26-58-57 0-32 26-57 58-57s58 26 58 57c0 32-26 57-58 57zm-238 169c-15 0-30-6-41-17L908 620c-18-18-24-46-13-68 19-37 67-43 94-16l121 120h107v116h-132zm64-169c-32 0-58-26-58-57 0-32 26-57 58-57s58 26 58 57c0 32-26 57-58 57zm-206 408v464c0 15-6 30-17 41l-215 214c-18 18-46 24-69 12-37-20-42-67-15-93l199-198v-416L629 841c-18-18-24-46-13-68 19-38 67-43 95-16l216 215c12 11 17 26 17 41zm-193 37c12 11 17 26 17 41v130H650v-105L530 998c-18-18-25-46-13-68 20-37 67-42 94-15l138 136zm-217 52c32 0 58 26 58 57 0 32-26 57-58 57s-58-26-58-57c0-32 26-57 58-57zm0 173c32 0 58 26 58 57 0 32-26 57-58 57s-58-26-58-57c0-32 26-57 58-57zm116 109v-105h117v130c0 15-6 30-17 41l-137 135c-18 18-46 24-69 12-38-19-43-66-15-93l121-119zm311 164c12-12 27-17 41-17h466c15 0 30 6 41 17l349 347c18 18 24 46 13 68-19 37-67 43-94 16l-333-332h-418l-197 196c-18 18-46 24-69 12-37-20-42-67-15-93l216-215zm83 174c12-12 27-17 41-17h132v116h-107l-120 119c-18 18-46 24-69 12-37-20-42-67-15-93zm105 165c32 0 58 26 58 57 0 32-26 58-58 58s-58-26-58-58 26-57 58-57zm257-182c15 0 30 6 41 17l137 137c18 18 24 46 13 68-19 37-67 43-94 16l-121-120h-107v-116h131zm-83 182c32 0 58 26 58 57 0 32-26 58-58 58s-58-26-58-58 26-57 58-57z" clip-rule="evenodd"/>
  <path fill="#fff" fill-rule="evenodd" d="M1821 1116v105h-117v-130c0-15 6-30 17-41l137-135c18-18 46-24 69-12 38 19 43 66 15 93l-121 119zm106 481c-23 12-51 5-69-12l-137-135c-12-11-17-26-17-41v-130h117v105l121 119c28 27 22 74-15 93zm-416-664c-12 12-27 17-41 17h-466c-15 0-30-6-41-17L748 719c-18-18-24-46-13-68 19-37 67-43 94-16l199 198h418l197-196c18-18 46-24 69-12 37 20 42 67 15 93zm-64-175c-12 12-27 17-41 17h-132V659h107l120-119c18-18 46-24 69-12 37 20 42 67 15 93zm-124-152c-32 0-58-26-58-57 0-32 26-57 58-57s58 26 58 57c0 32-26 57-58 57zm-238 169c-15 0-30-6-41-17L907 621c-18-18-24-46-13-68 19-37 67-43 94-16l121 120h107v116h-132zm64-169c-32 0-58-26-58-57 0-32 26-57 58-57s58 26 58 57c0 32-26 57-58 57zm-206 408v464c0 15-6 30-17 41l-215 214c-18 18-46 24-69 12-37-20-42-67-15-93l199-198v-416L628 842c-18-18-24-46-13-68 19-38 67-43 95-16l216 215c12 11 17 26 17 41zm-193 37c12 11 17 26 17 41v130H649v-105L529 999c-18-18-25-46-13-68 20-37 67-42 94-15l138 136zm-217 52c32 0 58 26 58 57 0 32-26 57-58 57s-58-26-58-57c0-32 26-57 58-57zm0 173c32 0 58 26 58 57 0 32-26 57-58 57s-58-26-58-57c0-32 26-57 58-57zm116 109v-105h117v130c0 15-6 30-17 41l-137 135c-18 18-46 24-69 12-38-19-43-66-15-93l121-119zm311 164c12-12 27-17 41-17h466c15 0 30 6 41 17l349 347c18 18 24 46 13 68-19 37-67 43-94 16l-333-332h-418l-197 196c-18 18-46 24-69 12-37-20-42-67-15-93l216-215zm83 174c12-12 27-17 41-17h132v116h-107l-120 119c-18 18-46 24-69 12-37-20-42-67-15-93zm105 165c32 0 58 26 58 57 0 32-26 58-58 58s-58-26-58-58 26-57 58-57zm257-182c15 0 30 6 41 17l137 137c18 18 24 46 13 68-19 37-67 43-94 16l-121-120h-107v-116h131zm-83 182c32 0 58 26 58 57 0 32-26 58-58 58s-58-26-58-58 26-57 58-57z" clip-rule="evenodd"/>
</svg>
