<svg xmlns="http://www.w3.org/2000/svg" viewBox="0 0 188.9 218.1">
  <path fill="#9290b0" d="M141.7 81.8v54.5l47.2-27.2V54.5l-47.2 27.3z"/>
  <path fill="#a2eee3" d="m188.9 163.6-47.2-27.3v54.6l47.2 27.2v-54.5z"/>
  <path fill="#46ddc8" d="M94.5 54.5V0L0 54.5l47.2 27.3 47.3-27.3Z"/>
  <path fill="#262261" d="m94.5 163.6-47.3-27.3L0 163.6l47.2 27.3 47.3 27.2v-54.5z"/>
  <path fill="#9290b0" d="M0 54.5v109.1l47.2-27.3V81.8L0 54.5z"/>
  <path fill="#46ddc8" d="m141.7 136.3-47.2 27.3v54.5l47.2-27.2v-54.6z"/>
  <path fill="#262261" d="m141.7 81.8 47.2-27.3-47.2-27.2L94.5 0v54.5l47.2 27.3z"/>
</svg>
