<svg xmlns="http://www.w3.org/2000/svg" fill="none" viewBox="0 0 20 20">
  <circle cx="10" cy="10" r="10" fill="#55f"/>
  <path fill="url(#radicle_svg__a)" fill-opacity=".84" d="M9.592 11.1q.164-.473.326-.962c.928-2.778 1.917-5.74 5.13-5.986a6 6 0 0 1 .44-.016q-.098.137-.158.388a9 9 0 0 0-.143.833c-.1.7-.22 1.546-.576 2.218-.7 1.323-2.628 1.975-3.591 1.763-.915 1.003-1.142 3.072-.999 4.607.026.282.083.557.137.822.075.365.145.71.125 1.018-.05.939-1.713.939-1.763 0-.02-.309.05-.653.126-1.018.054-.265.11-.54.136-.822l.022-.232c.132-1.39.23-2.418-.591-3.274a3 3 0 0 0-.29-.264q-.099.184-.21.324c-.486.624-1.108.654-1.473.613-.832-.092-1.383-.774-1.92-1.436a8 8 0 0 0-.666-.76 3 3 0 0 0-.343-.283q.216-.088.437-.148c2.13-.584 4.433.688 5.431 2.64q.126.246.223.504.097-.26.19-.528"/>
  <defs>
    <linearGradient id="radicle_svg__a" x1="8.75" x2="9.477" y1="3.438" y2="16.869" gradientUnits="userSpaceOnUse">
      <stop offset=".221" stop-color="#00fd19"/>
      <stop offset="1" stop-color="#00bb1e"/>
    </linearGradient>
  </defs>
</svg>
