<svg xmlns="http://www.w3.org/2000/svg" fill="none" viewBox="0 0 20 20">
  <circle cx="10" cy="10" r="10" fill="#000"/>
  <path fill="#f3c659" d="M15.13 10.888q.001-.032.005-.064a2.91 2.91 0 0 0-3.9.274 3.01 3.01 0 0 0-.175 3.964c2.19-.669 3.865-2.284 4.07-4.174"/>
  <path fill="#f3c659" fill-rule="evenodd" d="M7.891 11.379c0 .632.122 1.258.361 1.841a4.8 4.8 0 0 0 1.033 1.557q.463.107.937.115a3.574 3.574 0 0 1 .343-4.672 3.453 3.453 0 0 1 4.611-.231c-.009-1.22-.321-2.117-.614-2.696a5 5 0 0 0-.213-.378 4.67 4.67 0 0 0-4.389.505 4.8 4.8 0 0 0-1.517 1.72 4.86 4.86 0 0 0-.552 2.239" clip-rule="evenodd"/>
  <path fill="#f3c659" fill-rule="evenodd" d="M4.98 6.068a5.83 5.83 0 0 0-2.26 2.897q-.144.421-.22.86v.167a8.03 8.03 0 0 0 1.282 4.373c.541.32 2.06 1.016 5.052 1.026a7.6 7.6 0 0 0 2.34-.363q-.404.063-.812.062a5 5 0 0 1-3.422-1.375 5.13 5.13 0 0 1-1.582-3.37A5.15 5.15 0 0 1 6.46 6.783a5 5 0 0 1 3.198-1.846l-.274-.003c-1.237 0-3.002.197-4.406 1.134" clip-rule="evenodd"/>
  <path fill="#f3c659" fill-rule="evenodd" d="M5.757 3.509C3.031 5.55 2.592 8.293 2.523 9.24q.12-.392.29-.765c.17-.397.39-.77.652-1.11A5.86 5.86 0 0 1 5.58 5.61c1.149-.591 2.416-.755 3.482-.77q.787-.024 1.57.061c.385.031.668.059.793.04.765-.111 1.4-.636 1.4-1.42 0-.751-.685-1.338-1.307-1.444A7 7 0 0 0 10.456 2c-1.164 0-3.013.246-4.699 1.509m9.762 7.421c-.142 1.307-.91 2.53-2.161 3.443-1.252.913-2.844 1.41-4.503 1.41h-.027c-2.269-.007-3.72-.395-4.564-.741 1.592 2.073 4.78 3.493 7.736 2.761 5.497-1.361 6.13-6.65 4.612-8.992a5.15 5.15 0 0 0-1.647-1.596c.402.833.733 2.057.554 3.714" clip-rule="evenodd"/>
</svg>
