<svg xmlns="http://www.w3.org/2000/svg" fill="none" viewBox="0 0 20 20">
  <circle cx="10" cy="10" r="10" fill="#fff"/>
  <g clip-path="url(#ravencoin_svg__a)">
    <path fill="#384182" d="M9.203 14.982 5 18 7.668 5.72zm.085-.028 2.56.033-4.08-9.219zm2.8-.203 1.96-7.264-.741-.906zm-.944-11.386L7.919 5.537l4.713-1.526zm-.406 0-2.002.066-.293.836z"/>
    <path fill="#f79534" d="m13.165 6.302-5.162-.708 4.652-1.464zm-1.223-2.73.283-.769-1.487-.647zm.43-.845.335 1.21 1.984-.525z"/>
    <path fill="#f0513a" d="M11.961 14.94 7.824 5.684l5.393.755zm-.973-11.575-2.55.996-.614 1.134zm-1.582-.756-.637.704 2.115-.052zm1.115-.548-1.01.468 2.304 1.015zM11.673 2h-1.086l1.681.652zm.628.864-.26.775.52.25z"/>
  </g>
  <defs>
    <clipPath id="ravencoin_svg__a">
      <path fill="#fff" d="M5 2h9.695v16H5z"/>
    </clipPath>
  </defs>
</svg>
