<svg xmlns="http://www.w3.org/2000/svg" fill="none" viewBox="0 0 20 20">
  <circle cx="10" cy="10" r="10" fill="#000"/>
  <path fill="#fff" d="M15.4 13.056c-.748-.235-1.125-.75-1.15-1.314-.027-.613.434-1.172 1.218-1.393.675-.19 1.524.307 1.877.679.553.582.663 1.241.58 2.074-.184 1.849-1.955 3.165-3.821 2.982-1.43-.14-2.553-.888-3.47-1.953-1.426-1.655-1.554-3.27-2.87-4.426l-.092 5.289c-.183-1.329-.725-2.54-1.952-3.256-.312-.18-.789-.08-1.02-.418.95.092 2.039-.186 2.19-1.171.164-1.057-.862-1.557-1.893-1.584 2.751-.985 2.735-2.748 6.417-2.516 2.45.154 3.135 1.888 5.252 2.497-.656.099-1.192.11-1.73.439-2.023 1.232-3.484 2-5.962 1.196.862 1.088 1.43 2.165 2.303 3.16.889 1.012 2.204 1.809 3.517 1.572 1.556-.281 2.608-1.736 2.044-3.122-.19-.47-1.073-.948-1.494-.712-1.23.69.057 1.979.057 1.979zm.11-4.556-2.153-1.062c-.318-.157-.614-.332-1.034-.238.15.78-.052 1.49-.712 1.863-.577.326-1.407.308-1.933-.221a1.62 1.62 0 0 1-.32-1.817L6.175 8.464c2.474.599 4.227 1.732 6.786.745A12.2 12.2 0 0 1 15.51 8.5"/>
  <path fill="#fff" d="M13.837 6.437c-.99-.65-2-.698-3.072-.714C7.72 5.679 7.59 7.253 5.02 7.295c2.675-.968 2.912-2.8 6.406-2.511 1.302.108 2.445.777 3.466 1.602.558.439 1.124.703 1.77.9-1.042.108-1.893-.44-2.826-.85z"/>
  <path fill="#fff" d="M9.324 17.477c-3.905-.814-6.42-4.599-5.615-8.455.803-3.855 4.62-6.321 8.524-5.507 3.34.696 5.66 3.567 5.76 6.796.002-.104.007-.207.007-.31a8 8 0 1 0-8 7.997 7.96 7.96 0 0 0 4.347-1.286 7.25 7.25 0 0 1-5.025.765z"/>
</svg>
