<svg xmlns="http://www.w3.org/2000/svg" fill="none" viewBox="0 0 20 20">
  <circle cx="10" cy="10" r="10" fill="url(#reef-finance_svg__a)"/>
  <path fill="#fff" fill-rule="evenodd" d="M9.971 3.577c-1.403.09-2.82.626-3.876 1.468-.942.75-1.503 1.725-1.377 2.392q.115.625.864.583c.462-.024.735-.29 1.27-1.232C7.41 5.8 7.927 5.352 8.855 5.05a4.8 4.8 0 0 1 1.807-.203c.575.04.876.113 1.257.304.54.269.837.654.963 1.248.143.67-.136 1.55-.716 2.262-.486.597-1.206 1.088-1.866 1.273-.309.087-.556.12-.838.11l-.243-.008.24-.512c.513-1.101.801-1.857.826-2.165.013-.156.007-.196-.048-.315-.052-.113-.083-.147-.174-.191a.6.6 0 0 0-.21-.054c-.39 0-.974.66-1.79 2.025-.338.564-.602 1.042-2.014 3.638-.254.467-.561 1.03-.683 1.25-.347.626-.414.834-.393 1.22.023.441.271.709.7.755.329.035.595-.084.887-.398.454-.485.746-1.098 1.403-2.94.216-.608.348-.952.376-.98.01-.01.083.175.163.412.55 1.632 1.223 2.763 1.977 3.324.423.315.746.424 1.251.422 1.02-.004 2.141-.548 3.146-1.525.505-.493.667-1.06.365-1.284-.221-.163-.538-.058-.797.267a3.25 3.25 0 0 1-1.076.861c-.495.252-.8.327-1.335.33-.248.002-.358-.008-.453-.04-.564-.193-1.194-1.177-1.527-2.385-.116-.424-.117-.417.059-.451.978-.19 2.249-.797 3.03-1.447.63-.522 1.054-1.068 1.346-1.729.183-.414.239-.743.223-1.312-.016-.548-.082-.838-.282-1.243-.569-1.154-1.798-1.86-3.474-1.995a6 6 0 0 0-.984.002" clip-rule="evenodd"/>
  <defs>
    <linearGradient id="reef-finance_svg__a" x1="10" x2="10" y1="0" y2="20" gradientUnits="userSpaceOnUse">
      <stop stop-color="#C02BC1"/>
      <stop offset="1" stop-color="#9E00F6"/>
    </linearGradient>
  </defs>
</svg>
