<svg xmlns="http://www.w3.org/2000/svg" viewBox="0 0 2500 2500">
  <path fill="#cf1011" fill-rule="evenodd" d="M1250 0c690 0 1250 560 1250 1250s-560 1250-1250 1250S0 1940 0 1250 560 0 1250 0z" clip-rule="evenodd"/>
  <path fill="#fff" fill-rule="evenodd" d="M1250 954c163 0 296 132 296 296 0 163-132 296-296 296-163 0-296-132-296-296 0-163 132-296 296-296z" clip-rule="evenodd"/>
  <path fill="#fff" fill-rule="evenodd" d="M1257 476c93 1 185 19 271 52s166 81 236 143l2 2c159 142 246 334 257 531 12 198-52 400-193 560l-2 2c-142 159-334 246-531 257-198 12-400-52-560-193-160-142-248-335-259-533-12-198 52-400 193-560l67 59c-125 141-181 320-171 495 11 175 88 346 229 471s320 181 495 171c175-11 346-88 471-229l2-2c124-141 180-319 169-493-11-175-88-346-229-471l-2-2c-61-54-131-96-206-125-76-29-157-45-239-46l1-90-1 1z" clip-rule="evenodd"/>
  <path fill="#fff" d="M810 481c54 0 102 22 137 57s57 84 57 137c0 54-22 102-57 137s-84 57-137 57c-54 0-102-22-137-57s-57-84-57-137c0-54 22-102 57-137s84-57 137-57zm74 121c-19-19-45-31-74-31s-55 12-74 31-31 45-31 74 12 55 31 74 45 31 74 31 55-12 74-31 31-45 31-74-12-55-31-74z"/>
</svg>
