<svg xmlns="http://www.w3.org/2000/svg" fill="none" viewBox="0 0 20 20">
  <circle cx="10" cy="10" r="10" fill="#fff"/>
  <path fill="#CF1011" fill-rule="evenodd" d="M8.326.148C4.656.814 1.728 3.33.526 6.85c-1.767 5.172 1.063 10.823 6.317 12.617 3.977 1.359 8.528-.035 11.052-3.386 2.371-3.146 2.746-7.115.999-10.581C16.94 1.622 12.524-.614 8.326.148m-1.025 3.88c1.069.72 1.064 2.026-.01 2.752-.28.188-.447.227-.848.196-.275-.022-.571-.072-.659-.112-.121-.056-.23.062-.463.507-.518.987-.669 1.584-.666 2.629.004 1.529.495 2.725 1.554 3.784 1.047 1.047 2.286 1.557 3.784 1.557 2.414 0 4.366-1.454 5.158-3.841.237-.713.244-2.235.015-2.977-.662-2.137-2.397-3.584-4.648-3.874l-.525-.068V3.8h.429c.236 0 .697.068 1.025.151 2.209.562 4.033 2.386 4.595 4.595.194.764.194 2.144 0 2.908-.562 2.209-2.386 4.033-4.595 4.595-.764.194-2.144.194-2.908 0-1.7-.432-3.349-1.746-4.08-3.249-.55-1.135-.7-1.854-.639-3.099.06-1.206.279-1.945.87-2.92.28-.461.358-.676.292-.8-.049-.092-.089-.367-.089-.61 0-1.192 1.44-1.996 2.408-1.344m-1.316.864c-.318.318-.35.47-.181.842.112.245.467.466.751.466.228 0 .738-.553.738-.8 0-.278-.522-.8-.8-.8-.119 0-.347.131-.508.292m5.267 3.063c.3.185.602.488.788.79.268.433.303.577.303 1.255s-.035.822-.303 1.255a2.6 2.6 0 0 1-.792.792c-.433.268-.577.303-1.255.303s-.822-.035-1.255-.303c-1.599-.988-1.503-3.344.17-4.19a2.41 2.41 0 0 1 2.344.098" clip-rule="evenodd"/>
</svg>
