<svg xmlns="http://www.w3.org/2000/svg" fill="none" viewBox="0 0 20 20">
  <path fill="url(#rich-quack_svg__a)" d="M10 19.324a9.325 9.325 0 0 0 9.326-9.325 9.325 9.325 0 1 0-18.65 0A9.325 9.325 0 0 0 10 19.324"/>
  <path fill="#04080A" d="m3.97 13.742-.01-.034.016-.004.006.035zm5.65 1.592v-.003l.005.008.007.024-.01-.021zm1.047-.345.004-.01.003-.004v.005zM7.763 1.451 5.266 2.787c.012.032.12.39.131.422l.312 1.483C4.655 5.24 4.269 6.22 4.127 7.33c-.146 1.144.177 2.141 1.021 2.924v.745c-.473.136-.8.045-1.003-.28-.02-.073-.042-.147-.136-.063l.006.358.136.506c-.323.31-.542.93-.368 1.086.15-.131.317-.162.52-.066-.095.178-.197.34-.27.512a2.4 2.4 0 0 0-.16.527c-.029.172-.063.358.024.528l.406-.654.078.038-.276.655c.013.006.037.026.05.02q.19-.085.381-.177c-.048.668-.344 1.254-.64 1.84l.07.054.441-.341q.24 1.048.41 1.133c.047-.203.068-.416.147-.606.078-.187.214-.35.324-.523.105.447.141.877.52 1.216l.093-.7c.17.325.305.646.663.803l.091-.329c.133.12.24.214.36.321l.066-.159.27.29.046-.032v-.184l.045-.026.852 1.081.323.222.27.09c.597.159 1.2.24 1.817.152l.163-.034.516-.164.27-.181c.368-.248.551-.635.765-1l.04-.053.02.011-.03.076v.097l.045.015.23-.352-.047.464.043.026.336-.385.065.235.373-.441.048.327c.412-.16.436-.571.65-.913l.116.748c.303-.379.366-.802.445-1.243.306.31.502.657.567 1.109.307-.355.309-.764.38-1.16l.414.3.047-.03c-.105-.631-.531-1.164-.61-1.834l.382.26-.141-.631v-.09l.06.088.44.489c.024-.036.042-.051.04-.062-.08-.417-.173-.828-.425-1.184-.039-.054-.05-.128-.09-.233.135-.022.237-.066.327-.048.097.019.183.095.282.15.039-.38-.164-.825-.458-1.035a1.14 1.14 0 0 0 .05-1.022l-.207.228c-.247.24-.53.262-.83.15l-.07-.784a2.38 2.38 0 0 0 1.053-1.79 4.4 4.4 0 0 0-.535-2.647 2.54 2.54 0 0 0-.986-1.001c.088-.284.184-.55.25-.824.064-.266.127-.618.173-.889l-2.843-1.582zm2.915 5.962-.001.034zm3.494 1.409.001.002z"/>
  <path fill="#0F0D0D" d="m9.425 14.908-.013-.037-.02.006.027.066.066.088zm.108.22-.007-.018-.032-.067-.009-.012.007.014.032.067zm.072.133-.072-.132.054.15.033.052zm.027.102-.007-.024-.005-.007v.002l.002.007zm.975-.278-.549 1.195-.109-.235-.255-.548-.061-.132.027.09q.038.136.085.268c.096.262.197.523.303.803.126-.305.243-.58.354-.856q.135-.339.264-.679c-.02.031-.043.06-.059.094m.067-.11-.003.004q0 .004-.004.01l.006-.009zm1.837.39a.02.02 0 0 0-.023-.006l-.145-.025-.062.266c-.011.03-.025.06-.033.091-.153.541-.367 1.043-.821 1.412-.795.647-1.726.729-2.554.17-.475-.32-.763-.805-.948-1.347l-.065-.156-.138-.406-.264.048h-.21c.233.71.48 1.376.88 1.973.163.242.349.461.644.555.572.181 1.156.28 1.756.217.465-.049.894-.194 1.23-.54l.039-.041v.004l.07-.095-.008-.008.01.008c.013-.008.033-.012.04-.024.23-.418.473-.829.681-1.257.12-.245.18-.517.276-.8zM7.34 12.166l-.246-.698-.033-.214-.029.004.014.211c.028.249.035.501.09.744.053.244.15.478.24.713.014.039.082.057.125.084q-.22-.541-.161-.844m2.08-.619-.005-.004-.013-.016-.013-.015c-.476-.327-1.117-.136-1.569.254l-.033.037-.008.011c-.305.223-.397.506-.25.823.053.117.125.232.214.323.21.212.6.369.84.119l.057-.02.03-.011.692-.165.219-.012c.041-.086.08-.158.11-.233.155-.383.103-.928-.27-1.09m1.43 3.271-.777 1.864h-.05l-.706-1.83-1.452.468c.156.374.272.735.45 1.062.302.552.744.983 1.397 1.047 1.575.153 2.22-.906 2.46-2.138zm-1.35.003.556 1.253.583-1.253zm.627-2.871h-.145l-.184.923h.447zm-3.097-.878h-.02v.104h.025zm-.053-.154V11h.018v-.083zm-3 2.786-.016.004.01.034.012-.003zm10.11 2.134.001-.001m-1.575-.473a.02.02 0 0 0-.023-.006l-.145-.025-.062.266c-.011.03-.025.06-.033.091-.153.541-.367 1.043-.821 1.412-.795.647-1.726.729-2.554.17-.475-.32-.763-.805-.948-1.347l-.065-.156-.138-.406-.264.048h-.21c.233.71.48 1.376.88 1.973.163.242.349.461.644.555.572.181 1.156.28 1.756.217.465-.049.894-.194 1.23-.54l.039-.041v.004l.07-.095-.008-.008.01.008c.013-.008.033-.012.04-.024.23-.418.473-.829.681-1.257.12-.245.18-.517.276-.8zm-1.662-.546-.777 1.863h-.05l-.706-1.83-1.452.468c.156.374.272.735.45 1.062.302.552.744.983 1.397 1.047 1.575.153 2.22-.906 2.46-2.138zm-.175.156-.003.004q0 .004-.004.01l.006-.009zm-.067.11-.549 1.195-.109-.235-.255-.548-.061-.132.027.09q.038.136.085.268c.096.262.197.523.303.803.126-.305.243-.58.354-.856q.135-.339.264-.679c-.02.031-.044.06-.059.094m-1.108-.264.556 1.253.583-1.253zm.627-2.871H9.98l-.183.923h.447zm-.504 3.392.01.022v-.001l-.007-.024-.005-.007v.002zm-.017-.08-.072-.133.054.15.033.052zm-.072-.133-.007-.019-.032-.067-.009-.012.007.014.032.067zm-.108-.221-.013-.037-.02.006.027.066.066.088zm-.005-3.36-.006-.005-.013-.016-.013-.015c-.476-.327-1.117-.136-1.569.254l-.033.037-.008.011c-.305.223-.397.506-.25.823.053.117.125.232.214.323.21.212.6.369.84.119l.057-.02.03-.011.692-.165.219-.012c.041-.086.08-.158.11-.233.155-.383.103-.928-.27-1.09m-2.081.618-.246-.698-.033-.214-.029.004.014.211c.028.249.035.501.09.744.053.244.15.478.24.713.014.039.082.057.125.084q-.22-.541-.161-.844m-.31-1.094h-.02v.104h.025zm-.054-.154V11h.019v-.083zm-1.053.06-.002.002v.001h.003zm-.24 1.508-.01.035-.007.035.017-.062.003-.026zm-1.706 1.218-.016.004.01.034.012-.003zm10.3-2.628.002.003v.001zm0 0 .002.003v.001zm0 0 .002.003v.001zm0 0 .002.003v.001zm0 0 .002.003v.001zm0 0 .002.003v.001zm0 0 .002.003v.001zm0 0 .002.003v.001zm0 0 .002.003v.001zm0 0 .002.003v.001zm0 0 .002.003v.001zm0 0 .002.003v.001zm0 0 .002.003v.001zm0 0 .002.003v.001zm-1.67 1.245c0-.393-.46-.9-.855-.943l-.231-.024c-.296-.022-.58-.006-.813.213-.374.205-.524.694-.336 1.098.112.243.171.274.442.238l.051.012q.098.016.195.034l.04.01.093.017.138.037c.327.134.645.158.97-.027.268-.153.376-.356.305-.665m.133-.293v-.002l-.002.005.003-.002zm.93 1.637c.338-.276.478-.647.582-1.034.15-.562.088-1.101-.22-1.601-.192-.312-.513-.312-.669.022-.106.225-.152.485-.193.735-.052.316-.059.64-.109.956-.042.265-.19.393-.437.42l-.131-.114-.47.204.095.088.091.068-.017.092-.143-.126-.59-.166c-1.032-.264-2.054-.292-3.058.126-.146.048-.29.098-.438.14a.03.03 0 0 1-.016 0l-.007-.002-.025-.012-.011-.006-.01-.006-.017-.009-.005-.002.023-.022.099-.067.085-.032-.09-.017-.334-.197c-.218.082-.36.053-.447-.151a3.5 3.5 0 0 1-.233-.76c-.064-.369-.083-.746-.126-1.12-.02-.167-.134-.262-.29-.245a.86.86 0 0 0-.372.14c-.227.15-.317.38-.349.651-.088.764.081 1.444.604 2.03l.203-.075c.23-.011.472-.117.696.077l-.34.048c-.364-.006-.672.143-.95.361a.56.56 0 0 0-.098.758l.093.072v-.002l.602.258.089.02c.123.018.246.05.37.051.544.008 1.048-.175 1.55-.35.747-.262 1.498-.425 2.281-.174.42.134.837.274 1.258.404.613.188 1.213.172 1.787-.143.281-.195.335-.41.167-.697-.235-.4-.62-.522-1.05-.557l-.185-.04-.002-.055.51-.03zm.608-2.589v.003l.002.001zm0 0v.003l.002.001zm0 0v.003l.002.001zm0 0v.003l.002.001zm0 0v.003l.002.001zm0 0v.003l.002.001zm0 0v.003l.002.001zm0 0v.003l.002.001zm0 0v.003l.002.001zm0 0v.003l.002.001zm0 0v.003l.002.001zm0 0v.003l.002.001zm0 0v.003l.002.001zm0 0v.003l.002.001zm0 0v.003l.002.001zm0 0v.003l.002.001zm-1.672 1.245c.001-.393-.459-.9-.854-.943l-.231-.024c-.296-.022-.58-.006-.813.213-.374.205-.524.694-.336 1.098.112.243.171.274.442.238l.051.012q.098.016.195.034l.04.01.093.017.138.037c.327.134.645.158.97-.027.268-.153.376-.356.305-.665m1.065 1.344c.337-.276.477-.647.58-1.034.152-.562.089-1.101-.22-1.601-.191-.312-.512-.312-.668.022-.106.225-.152.485-.193.735-.052.316-.059.64-.109.956-.042.265-.19.393-.437.42l-.131-.114-.47.204.095.088.091.068-.017.092-.143-.126-.59-.166c-1.032-.264-2.054-.292-3.058.126-.146.048-.29.098-.438.14a.03.03 0 0 1-.016 0l-.007-.002-.025-.012-.011-.006-.01-.006-.017-.009-.005-.002.023-.022.099-.067.085-.032-.09-.017-.334-.197c-.218.082-.36.053-.447-.152a3.5 3.5 0 0 1-.233-.758c-.064-.37-.083-.747-.126-1.12-.02-.168-.134-.263-.29-.246a.86.86 0 0 0-.372.14c-.227.15-.317.38-.349.651-.088.764.081 1.444.604 2.03l.203-.076c.23-.01.472-.116.696.078l-.34.048c-.364-.006-.672.143-.95.361a.56.56 0 0 0-.098.758l.093.072v-.002l.602.258.089.02c.123.018.246.05.37.051.544.008 1.048-.175 1.55-.35.747-.262 1.498-.425 2.281-.174.42.134.837.274 1.258.404.613.188 1.213.172 1.787-.143.281-.195.335-.41.167-.697-.235-.4-.62-.522-1.05-.557l-.185-.04-.002-.055.51-.03z"/>
  <path fill="#FAFBFB" d="m14.165 10.472-.052-.015.033.031.127.26-.082.023.023.149-.037.019c-.067-.07-.123-.157-.201-.209-.33-.22-.658-.089-.801.315l-.08.23h-.054l.045-.294.043-.231.016-.326.018-.133-.01-.593q.006-.005.007-.009l-.008-.018c-.068-.448-.139-.896-.421-1.27-.28-.37-.594-.677-1.105-.687-.424-.008-.873.307-1.02.706-.325.881-.306 1.77-.106 2.669.026.116.041.234.062.355-.103.12-.213.245-.333.383h-.317l-.37-.426c.16-.644.2-1.31.125-1.981-.03-.265-.059-.53-.1-.792-.074-.466-.311-.816-.791-.907-.477-.09-.933-.01-1.257.4-.347.44-.506.96-.545 1.51-.028.41-.005.825-.005 1.27-.142-.173-.301-.278-.495-.219-.172.053-.33.153-.495.232l-.017-.143-.11-.058.072-.131.038-.08-.054-.043-.02.072-.266.21-.052.016c-.024-.09-.085-.19-.064-.266a6 6 0 0 1 .281-.839c.133-.3.306-.58.46-.87q.05 0 .099.003l-.029.229-.003.13v.255l.05.007.049-.065.065-.066-.002-.038.05-.136c.183-.023.167-.189.208-.306.08-.223.12-.463.223-.674.173-.358.37-.708.583-1.043.118-.185.25-.388.503-.424.439-.06.79.073 1.03.464.103.167.226.322.374.529v-.165l.003-.106c.404.164.818.056 1.228.037l-.001.034-.008.175.071.01.059-.172q-.004-.013.008-.02.198-.25.393-.503c.155-.206.506-.371.698-.306.425.143.752.404.938.822.097.217.186.437.282.654q.168.378.345.752c.012.026.054.04.082.058l.006.037-.026.067.06.025.101.208.108.15.045-.003v-.625c.07.016.1.037.114.066.191.395.404.782.561 1.191.096.25.106.533.154.8l-.129-.048z"/>
  <path fill="#3C6EB3" d="m13.934 4.755-.344.095-.103.011-.042.015c-.303.096-.62.162-.906.294-.606.28-1.193.6-1.793.892a4 4 0 0 1-.611.225.34.34 0 0 1-.22-.017q-.777-.35-1.55-.712c-.52-.242-1.015-.546-1.59-.657l-.199-.045-.065-.01-.353-.092.359-.055h.053c.638.01 1.17.35 1.74.57.353.138.688.325 1.025.503.5.265.996.228 1.49-.002.575-.268 1.145-.547 1.717-.82a.03.03 0 0 0 .03-.01l.728-.24.036-.01z"/>
  <path fill="#BEDEE5" d="M13.546 8.917c-.029-.019-.07-.032-.083-.058q-.177-.374-.344-.752c-.097-.217-.186-.437-.282-.654-.187-.418-.514-.679-.939-.822-.192-.065-.543.1-.698.306-.128.17-.262.336-.392.503.078-.188.137-.387.24-.56.238-.406.676-.525 1.115-.332.361.16.595.445.788.773.046.08.08.166.12.25l.025.07.438 1.207z"/>
  <path fill="#C3E5EE" d="M10.678 7.413c-.41.02-.823.127-1.228-.037l-.049-.245.054.002.104.001h.886l.227.002c.14.089.006.184.006.277"/>
  <path fill="#0F0D0D" d="m14.539 10.785-.374-.313z"/>
  <path fill="#C3E5EE" d="m10.799 7.46-.059.173-.071-.011.008-.176.046.079z"/>
  <path fill="#04080A" d="m4.485 11.157-.336-.196q.168.097.336.197l.058.015zm4.253-7.519c.282-.005.57-.057.857-.093zm1.934-.084-.066-.008-.25-.008q.258.015.512.047zm2.363.966-.107-.054a.04.04 0 0 0-.019-.01l.006.013c-.352-.29-.876-.307-1.285-.46-.601-.09-1.198-.26-1.809-.239-.872.137-1.785.293-2.587.657v-.003l-.046.034.006-.004-.022.013a.2.2 0 0 1-.059.026l-.034.121c.184.024.356.173.542.131l-.001.002c.098-.104.192-.21.326-.267v.002l.27-.133c.208-.031.885-.429.955-.093.216.465.318.976.426 1.475q.456.136.912.003c.151-.529.185-1.087.453-1.575.18-.061.35-.014.52.056l.011-.002c.28.07.53.21.785.332.083.061.157.132.23.205a.3.3 0 0 0 .129-.034c.128-.052.264-.081.394-.13.02-.01.039-.018.08-.035zm1.277 8.465.022-.063c-.02 0-.034.015-.022.063"/>
  <path fill="#0F0D0D" d="m14.173 8.824-.002-.002zM13.11 4.55l-.079.036.005-.066zm1.159.122c.02-.013.01-.007 0 0 0-.013 0-.026 0 0m-1.698.268a.03.03 0 0 1-.029.01zm.359-.474-.014.003-.006-.013a.04.04 0 0 1 .02.01m-5.736-.012-.006.004-.02.015.004-.006zm-1.902 5.87-.002.032-.008-.023c0-.002.007-.006.01-.009"/>
  <path fill="#FCCF0A" d="m13.423 13.573-.51.031.001.055.185.04c.02.016.04.035.063.048.195.111.41.197.58.339.138.114.254.281.315.449.037.104-.046.251-.074.38-.038.003-.078 0-.113.013-.555.191-1.114.188-1.676.037-.49-.131-.934-.4-1.448-.461-.308-.037-.6-.204-.925-.114-.157.044-.312.112-.47.124a2 2 0 0 0-.84.27q-.034.016-.066.034l-.066.001-.197.094-.197.039-.13.06-.132.033q-.066 0-.13.004l-.131.031-.263.002-.394-.033h-.099l-.13-.033-.53-.128.004-.072v-.396c.181-.164.353-.335.542-.483.123-.097.272-.16.409-.239l.339-.048c-.224-.194-.466-.088-.696-.078-.039-.014-.092-.017-.116-.044-.239-.286-.444-.607-.49-.972a3.5 3.5 0 0 1 .04-1.047c.059-.33.234-.508.506-.477.008.035.02.075.026.115.087.546.17 1.092.262 1.637.056.336.41.568.694.508l.322.078.006.045-.023.023-.083.07.025.073c.113-.016.228-.024.34-.05.088-.02.172-.061.258-.093v.001l-.03.134c.16.174.238.19.457.103q.033-.098-.135-.198l-.079-.026q-.012.003-.02-.009l-.098-.07c.226-.052.45-.12.679-.15a7 7 0 0 1 .973-.071c.412.007.823.06 1.234.092l.26.154-.12.083-.227.218.142.025.043-.026.252-.047v-.265c.071.042.121.084.178.103.119.038.228.158.367.053l.026-.037-.03-.038-.038-.062.188-.1c.126-.006.221.013.294-.02.318-.138.454-.413.5-.739.05-.364.077-.733.144-1.094.029-.16.13-.304.214-.489.115.08.217.116.265.189.26.401.314.851.251 1.315-.052.386-.25.714-.483 1.017-.038.05-.129.06-.195.09"/>
  <path fill="#FAFCFC" d="m6.856 16.045-.044.041.072.339-.365-.218-.092.271-.052.003-.23-.615-.06-.067-.028-.272-.39.286-.125-.5-.102.022-.086-.14c-.081.07-.166.124-.226.199-.106.129-.196.27-.293.405h-.122l-.037-.427.03-.133-.02-.145-.142.083-.066-.1-.004-.165.14-.554c.024-.013.065-.022.068-.038q.095-.477.184-.956l-.061-.028-.167.066-.119-.483-.053.01-.047.157-.182.027.315-.705-.53-.274c.074-.174.238-.25.434-.292.041-.11.145-.224-.044-.303l.006-.085h.867l-.012.155-.09.114-.05.174v.179l.133.018-.062.252.152.145-.03.127-.075.049.086.014.014-.001.012.008-.066.322v.134l.066.033.095-.017.063.123-.04.153-.06.036.062.035q.011.003.01.014l.026.272.057.014.083-.108c.165-.08.187-.232.194-.39l.092-.069.339.473q-.11.074-.223.147c-.456.289-.564 1.015.078 1.317.29.136.618.193.973.298.058.18.136.415.214.652l-.193.18zm8.899-3.233.013.152-.169-.01-.067.447-.194-.066c0 .598.063 1.156.318 1.677l.03.143-.074.058-.01.003h-.01l-.071-.116-.051.018-.13.632-.478-.569-.245.125-.098.511-.176-.115-.205-.157-.052.293.001-.001v.001l-.13.324-.018.06-.21.296-.066-.302c-.121.043-.24.063-.228.226l-.037.048c-.034-.046-.1-.094-.097-.138.005-.092.046-.181.073-.272l-.045-.045-.338.312-.057-.254c-.055.065-.083.105-.117.138-.024.023-.056.036-.085.054l.281-.836c.302-.09.61-.159.901-.274.697-.275.57-.92.174-1.259-.078-.066-.162-.124-.219-.168l.411-.67.066-.005.047.1-.105.022-.01.114c-.028.119.092.369.197.41l.14.089.052-.035-.032-.243.019-.088c.026-.026.056-.049.079-.078q.07-.093.136-.188.15-.08.002-.163l-.005-.095-.031-.198.086-.274.104-.076-.107-.108-.007-.035.148-.233-.065-.099-.06-.066.003.003c-.008-.05-.005-.106-.027-.148-.055-.102-.123-.197-.185-.295.037-.006.08-.03.11-.017.294.115.586.204.943 0-.046.11-.081.159-.084.21-.005.094.009.19.015.285l.094-.013.314.324c-.138.054-.234.077-.314.126-.177.108-.202.428-.048.508"/>
  <path fill="#D0E9F8" d="M9.56 9.733c-.056-.406-.078-.821-.179-1.216-.088-.344-.303-.624-.708-.666l.131.108c-.025.014-.044.034-.058.031-.535-.126-.86.247-1.088.626-.237.398-.261.838-.296 1.279-.048.61.006 1.212.132 1.808.008.037.024.072.037.108.225-.24.481-.434.803-.533.378-.116.748-.118 1.133.096l.093-1.082zm-.348.633c-.02.17-.172.286-.389.297l-.05.017-.433.13-.021.07-.023.156h-.031l-.017-.047-.026-.15c-.183.013-.36.006-.508-.144l.118-.109.157-.07q.013.003.025.002l.103.004v-.139l-.258-.267c-.29-.403-.11-.8.386-1.157.01-.12.014-.251.036-.379.009-.046.063-.084.096-.126.209.025.091.21.143.295.121.04.234.071.34.118.023.01.023.076.033.116l.03.136c-.02.005-.036.013-.04.009-.1-.092-.227-.184-.34-.088-.085.071-.13.217-.144.336-.026.203-.015.41-.02.616.172.021.345.034.514.066.21.039.335.169.319.308"/>
  <path fill="#F7CD10" d="M12.706 15.437c-.03.07-.059.132-.083.196-.22.584-.397 1.186-.749 1.713-.022.033-.005.092-.006.139l-.01-.008.01.008-.083.05-.027.015q-.04.026-.083.048c-.209.108-.41.25-.632.313-.235.068-.492.078-.74.082a9 9 0 0 1-.988-.035c-.448-.04-.831-.224-1.068-.625a7.7 7.7 0 0 1-.693-1.598q-.05-.16-.096-.323l.263-.049.138.407.065.156c.186.542.474 1.027.949 1.347.828.559 1.759.477 2.554-.17.453-.369.667-.87.82-1.412q.015-.045.034-.09l.206-.242a.02.02 0 0 1 .024.006z"/>
  <path fill="#92D6E5" d="m11.75 11.378-.243.022.013-.046c-.296-.022-.58-.006-.813.213q-.066.189-.128.379c-.105.328.06.596.194.87l.04.087.051.012q.098.016.195.034l.04.01.093.017.138.037c.222-.007.447.003.667-.025.298-.038.46-.243.547-.518.016-.051.04-.1.061-.15.001-.392-.459-.9-.854-.942m-.27 1.322c-.053-.006-.114.003-.16-.019a1.1 1.1 0 0 1-.6-.65c-.013-.037.011-.089.018-.134.02.004.048.002.058.014l.615.705.082.037zm.156-.1-.005-.034.01-.002.009.034q-.008 0-.014.003m-.038-.091-.355-.69-.034-.113-.007-.01-.037-.025v-.005l.003.003.038.024.003.01v.002l.027.04.033.049.385.685zm.458-.244-.007-.055-.429-.673c.219.177.365.4.45.665l.007.063zm-2.602-.612c-.02-.03-.024-.071-.035-.107l-.005-.004-.014-.016-.013-.015c-.476-.327-1.117-.136-1.568.254l-.034.037-.007.011c-.021.054-.034.113-.063.16-.325.522.084 1.02.589 1.04.093.004.185.042.277.065l.057-.02.03-.011.692-.165c.063-.16.134-.317.187-.481a.84.84 0 0 0-.093-.748m-1.394 1a2.35 2.35 0 0 1 .448-1.01l.018-.03.023.008-.028.081zm.514-.026-.042.077-.029-.011.027-.102c.111-.304.25-.592.511-.872zm.729-.42-.105.116-.048.045-.008.008-.086.098.009.006-.01-.004-.159.135h.001l-.064.042-.033.018-.044.022-.047.006.587-.697.017-.025c.026.03.052.06.099.111z"/>
  <path fill="#E32521" d="m10.849 14.819-.778 1.863h-.05c-.23-.6-.463-1.2-.705-1.83l-1.453.468c.156.374.272.735.45 1.062.303.552.744.983 1.398 1.047 1.575.153 2.22-.906 2.46-2.138zm.525 1.948a.86.86 0 0 1-.35.285c-.33.128-.668.286-1.032.248-.417-.043-.818-.168-1.152-.438-.068-.055-.112-.144-.16-.221-.215-.352-.505-.668-.519-1.123l1.043-.451a6 6 0 0 0 .863 1.844 5.5 5.5 0 0 0 .857-1.852l1.053.469-.13.507c-.166.262-.305.508-.473.732"/>
  <path fill="#ED961B" d="m7.994 13.35-.106.021-.322-.078c-.283.06-.638-.172-.694-.508-.092-.545-.175-1.091-.262-1.637q-.012-.061-.026-.115c-.272-.03-.447.148-.506.477-.06.342-.083.704-.04 1.047.046.365.251.686.49.972.024.027.077.03.116.044l-.203.076c-.523-.586-.691-1.266-.603-2.03.03-.27.122-.5.348-.651a.86.86 0 0 1 .371-.14c.157-.017.272.078.291.245.044.374.062.751.126 1.12.045.26.13.517.233.76.087.204.23.233.447.15l.334.198zm6.256-.72c-.103.388-.244.76-.58 1.035l-.248-.092c.067-.028.157-.039.196-.089.233-.303.43-.63.483-1.017.062-.464.01-.914-.252-1.315-.047-.073-.15-.11-.265-.189-.083.185-.185.33-.214.489-.067.36-.094.73-.144 1.094-.045.326-.181.6-.5.74-.072.032-.168.013-.293.019l-.189.1-.036.004-.091-.068-.096-.088.47-.204.131.114c.247-.027.396-.155.438-.42.05-.317.057-.64.109-.956.04-.25.087-.51.192-.735.157-.334.477-.334.67-.022.307.5.37 1.039.22 1.6"/>
  <path fill="#8BD1E0" d="M8.805 7.96c-.026.013-.045.033-.058.03-.535-.126-.86.247-1.088.626-.238.398-.262.838-.296 1.279-.049.61.006 1.212.132 1.808.007.037.024.072.036.108l-.123.196c-.315-.773-.335-1.553-.286-2.34.028-.457.157-.89.38-1.286.255-.45.679-.579 1.171-.53z"/>
  <path fill="#E79723" d="m13.983 14.914-.001.039c-.574.315-1.173.331-1.787.143-.42-.13-.838-.27-1.258-.404-.783-.251-1.534-.088-2.28.173-.503.176-1.007.36-1.551.351-.124-.001-.247-.034-.37-.052l-.09-.019-.6-.257.53.128.13.033h.1c.114.113.29.128.393.033l.263-.002.13-.031.13-.004.132-.033.131-.06.197-.039.131.028.066-.122.066-.001.127.044-.062-.079a2 2 0 0 1 .84-.269c.16-.012.314-.08.47-.123.325-.09.618.076.926.113.514.06.958.33 1.448.461.562.152 1.121.154 1.676-.037.035-.013.075-.01.113-.014"/>
  <path fill="#ED961B" d="m11.797 17.576-.039.04c-.336.348-.765.492-1.23.541-.6.064-1.184-.036-1.757-.217-.294-.094-.48-.313-.643-.555-.4-.597-.647-1.264-.88-1.973h.21q.047.162.097.323c.176.557.396 1.095.693 1.598.236.4.62.584 1.067.625q.493.044.988.035c.248-.004.505-.014.74-.082.223-.064.423-.205.633-.313q.042-.022.082-.047l.028-.016z"/>
  <path fill="#E199C2" d="m10.638 14.82-.582 1.254-.557-1.253z"/>
  <path fill="#BEDEE5" d="M4.867 13.364q-.089.479-.184.956c-.004.016-.044.025-.068.038l.092-.629-.31.187-.02-.021.15-.645c-.305.068-.38.296-.547.454.001-.477.348-.803.442-1.211-.164-.178-.357-.137-.602-.113l.37-.773.274.205-.065-.208.013-.065c.19.079.086.193.045.303-.196.042-.36.118-.435.292l.53.274-.314.705.181-.027.048-.156.053-.011.119.483.166-.066zm10.91 1.648h-.12c-.255-.521-.319-1.078-.32-1.677l.195.066.067-.446.17.01-.014-.153.365.76.015.066-.41-.382-.066.028.047.565-.241-.087c-.104.486.177.851.312 1.25"/>
  <path fill="#ED961B" d="m11.457 13.21-.066.034c-.41-.033-.822-.085-1.233-.092a7 7 0 0 0-.974.07c-.23.03-.453.099-.679.15l-.106-.037c1.004-.418 2.026-.39 3.058-.126"/>
  <path fill="#34A8B9" d="M10.813 12.903c-.27.036-.33.005-.442-.238-.188-.404-.038-.893.336-1.098q-.065.189-.127.379c-.105.328.06.596.193.87z"/>
  <path fill="#E79723" d="M12.866 15.403c-.095.284-.157.556-.276.8-.208.429-.451.84-.681 1.258-.007.012-.027.016-.04.024 0-.047-.016-.106.006-.14.35-.526.529-1.128.748-1.712.025-.064.054-.126.084-.196l-.196-.072z"/>
  <path fill="#BEDEE5" d="m13.398 16.49-.188.3-.091-.386-.322.613-.025-.545-.144.16-.043-.02.147-.327c.029-.018.06-.032.085-.054.034-.033.062-.073.117-.138l.057.254.338-.312.045.045c-.027.09-.068.18-.072.272-.003.044.062.092.096.138"/>
  <path fill="#ED961B" d="M7 13.698c-.137.079-.286.142-.409.238-.189.149-.36.32-.542.484v.396h-.098a.56.56 0 0 1 .099-.757c.278-.217.585-.367.95-.36"/>
  <path fill="#BEDEE5" d="m5.44 15.335-.007.008a1.52 1.52 0 0 0-.693 1.008c-.142-.303-.229-.608-.178-.941.006-.042-.033-.09-.051-.136l.034-.097.142-.083.02.145-.03.133.036.427.035.142.088-.142c.097-.136.187-.276.292-.405.061-.075.146-.129.227-.199z"/>
  <path fill="#34A8B9" d="M8.581 13.079c-.24.25-.63.093-.84-.119a1.2 1.2 0 0 1-.214-.323c-.146-.317-.054-.6.251-.823-.02.054-.033.113-.063.16-.325.522.084 1.02.59 1.04.092.004.184.042.276.065"/>
  <path fill="#ED961B" d="M10.244 12.873h-.447l.184-.923h.145z"/>
  <path fill="#E4E5E3" d="m12.74 12.029-.003.002zm.355-.755c-.053.441-.1.883-.162 1.323a.9.9 0 0 1-.125.329c-.03.049-.12.06-.208.066.27-.303.184-.636.14-.963l.06-.065.24-.688z"/>
  <path fill="#C0E1E9" d="M14.87 13.176q-.067.096-.137.188c-.023.03-.052.052-.079.078l-.011-.023-.008-.014c-.045-.09-.089-.183-.14-.27a3 3 0 0 0-.104-.184.1.1 0 0 0-.057-.03l.057-.165.018-.105.067.034v.03l.236.424.067-.036-.267-.46-.078-.139.046-.224.102.109.124.213.033.085.127.231.006.095q.147.083-.002.163"/>
  <path fill="#BEDEE5" d="m14.494 13.135-.02-.035c-.017-.025-.084-.018-.128-.027l-.066.004.032-.092.022-.063c.021 0 .05.019.057.03.027.042.064.11.103.183"/>
  <path fill="#ED961B" d="M13.982 14.953v-.039c.03-.128.112-.275.075-.379a1.1 1.1 0 0 0-.315-.45c-.17-.14-.385-.227-.58-.338-.023-.013-.042-.032-.063-.048.43.035.815.157 1.05.557.168.287.114.502-.167.697"/>
  <path fill="#34A8B9" d="M9.69 12.638c-.03.075-.07.147-.11.233l-.22.012c.063-.16.134-.317.188-.481a.84.84 0 0 0-.093-.748c-.02-.03-.024-.071-.036-.107.373.163.426.708.27 1.091"/>
  <path fill="#E4E5E3" d="M7.5 13.01c-.043-.027-.111-.045-.126-.084-.089-.235-.186-.47-.24-.713-.055-.243-.061-.495-.09-.744l.049-.001.245.698q-.06.303.162.844"/>
  <path fill="#BEDEE5" d="m5.92 10.981-.297.551-.356.562-.132-.018v-.179l.386-.525.008-.033.106-.128.023-.069.034-.05.05-.048.078-.027.034-.036zm.003 0H5.92zM16.3 12.394h-.017l-.005.015c-.12-.008-.245-.043-.357-.018-.2.044-.242.18-.165.422l-.001-.001c-.154-.08-.129-.4.048-.508.08-.049.176-.072.314-.127l-.314-.323.162-.213z"/>
  <path fill="#A25F8D" d="m9.633 15.364-.01-.022.002-.003.007.024m1.034-.372q-.129.34-.264.68c-.111.276-.228.55-.354.855-.106-.28-.208-.54-.303-.803q-.047-.133-.085-.268l-.027-.09.061.132.255.548.109.235c.188-.41.367-.803.549-1.195.015-.033.038-.063.06-.094m.006-.011-.006.009.004-.01z"/>
  <path fill="#C0E1E9" d="M15.026 12.37c-.061.044-.099.071-.104.076l-.087.274-.024-.034-.034-.094v-.038l-.01-.034-.099-.13c-.107-.185-.228-.365-.198-.595q.005-.005.007-.01l-.012-.017-.018-.071-.008-.076.041.062.315.512.114.184.01-.117z"/>
  <path fill="#BEDEE5" d="m14.564 15.907-.153.556c-.084-.213-.154-.398-.231-.579-.01-.024-.061-.031-.093-.046h-.001l.052-.293.205.157c.021.125.088.201.221.205"/>
  <path fill="#34A8B9" d="M12.3 12.986c-.324.185-.642.161-.97.027.223-.007.447.003.667-.025.299-.038.46-.243.547-.518.016-.051.041-.1.062-.15.07.31-.038.513-.306.666"/>
  <path fill="#E79723" d="M12.287 13.542c-.14.105-.248-.015-.367-.053-.057-.019-.107-.061-.178-.103v.265l-.253.047.228-.217h-.185l.12-.083-.26-.154.065-.035.591.166.143.126zm-3.449.134c-.22.087-.297.07-.457-.103l.03-.134.008-.015-.008.014c-.086.032-.17.073-.259.093-.111.026-.226.034-.34.05l-.024-.072.083-.071.005.002.027.015.018.01.025.01h.016c.147-.042.292-.092.438-.14l.106.037.098.071-.132.042v.049z"/>
  <path fill="#BEDEE5" d="m13.94 16.223-.257.555c-.132-.118-.011-.351-.248-.337-.011-.162.107-.182.228-.225l.067.302z"/>
  <path fill="#E4E5E3" d="M14.278 11.08v-.003z"/>
  <path fill="#04080A" d="M14.278 11.08v-.003z"/>
  <path fill="#C0E1E9" d="m15.058 11.994-.148.233-.046-.044-.152-.377-.03-.03c-.12-.173-.243-.345-.357-.523a.1.1 0 0 1-.016-.034l-.002-.006-.007-.022-.005-.023-.009-.045-.009-.044.001.001-.002-.004.362.394.032.034.093.132.173.196-.003-.003.06.066z"/>
  <path fill="#BEDEE5" d="m15.988 15.495-.018.017-.052-.04-.167-.116-.139-.143.075-.058-.031-.143h.12l.044.097.134.325zM4.452 15.31l-.207.198-.036-.036.194-.349z"/>
  <path fill="#FAFBFB" d="m4.545 15.177-.035.097-.058.036-.049-.187.007-.01.068-.035z"/>
  <path fill="#BCB66B" d="m12.488 15.36-.207.24.062-.266z"/>
  <path fill="#BEDEE5" d="m4.478 15.078-.068.035.065-.2z"/>
  <path fill="#7CC784" d="m7.093 11.468-.047.001-.015-.211.029-.004z"/>
  <path fill="#C3E5EE" d="m11.75 11.378-.243.022.013-.046z"/>
  <path fill="#8BD1E0" d="m12.74 12.028-.003.003.001-.005zm.25-2.32c-.001.548-.083 1.095-.139 1.642-.02.205-.067.407-.102.611l-.01.065-.137-.247c.056-.5.146-1 .157-1.502a4.6 4.6 0 0 0-.133-1.209c-.098-.39-.297-.756-.663-.98-.088-.054-.202-.064-.304-.094l-.2-.03-.066.004-.09-.026.158-.041.193-.008c.124.031.263.038.37.098.669.374.968.98.966 1.717"/>
  <path fill="#D0E9F8" d="M12.626 9.068c-.098-.39-.298-.756-.664-.98-.087-.054-.202-.064-.304-.094l-.2-.03-.065.004-.09-.026h-.002c-.287.098-.47.299-.577.578-.23.6-.252 1.223-.198 1.852.03.334.084.666.126.992.135-.046.244-.097.359-.12.629-.12 1.197-.048 1.59.535.057-.5.146-1 .157-1.502a4.6 4.6 0 0 0-.132-1.209m-.26 1.604a.5.5 0 0 1-.484.241l-.016.027-.012.142-.043-.126v-.002l-.296-.163-.294-.111.006-.057c.17 0 .34.002.51-.004.014 0 .027-.047.04-.072l-.124-.262-.034.035-.345-.336-.012-.015-.035-.037c-.183-.277-.144-.445.161-.691l.08-.049.006-.004.07-.078c.066-.2.12-.362.172-.524l.042-.167.158.131-.027.522c.183.026.332.104.351.334l-.356-.183.04.763c.258-.008.523-.056.629.256.067.199-.056.317-.187.43"/>
  <path fill="#A25F8D" d="m9.532 15.129-.009-.016.001-.001.002-.002zm.073.132-.018.017-.054-.149z"/>
  <path fill="#E79723" d="m6.05 14.816-.004.071v.002l-.094-.072z"/>
  <path fill="#04080A" d="M5.685 12.468q0 .013-.003.026l-.017.062.008-.034.008-.035v-.001z"/>
  <path fill="#E79723" d="m11.867 17.486-.07.094v-.004l-.012-.042z"/>
  <path fill="#04080A" d="M7.034 11.176H7.01v-.104h.02q0 .051.004.104"/>
  <path fill="#A25F8D" d="m9.485 15.03-.066-.087.007-.035zm.01.013-.003.002-.007-.014z"/>
  <path fill="#E79723" d="m7.893 13.416-.005-.046.104-.021z"/>
  <path fill="#04080A" d="m12.801 11.964-.061.065-.003.002.001-.005.01-.065z"/>
  <path fill="#7CC784" d="m4.245 15.508-.084.07.048-.106z"/>
  <path fill="#A25F8D" d="M6.994 10.918h-.018V11h.018z"/>
  <path fill="#FAFBFB" d="M5.922 10.981H5.92l.002-.003z"/>
  <path fill="#04080A" d="m9.425 14.908-.007.035-.026-.066.02-.006z"/>
  <path fill="#A25F8D" d="m3.982 13.739-.011.003-.011-.034.016-.004zm5.638 1.592-.033-.053.018-.017zm.005.008-.003.002-.002-.007v-.002zm1.049-.364-.001.005-.002-.002z"/>
  <path fill="#E79723" d="m8.078 13.317-.084.033-.006-.05z"/>
  <path fill="#A25F8D" d="m9.526 15.11-.001.002-.033-.067.002-.002z"/>
  <path fill="#E4E5E3" d="m13.16 9.69-.007.008-.008-.013.007-.014z"/>
  <path fill="#A25F8D" d="M16.3 12.394v.043c-.012-.015-.016-.022-.022-.028l.006-.015z"/>
  <path fill="#BEDEE5" d="m4.396 13.916-.034.012-.023-.026.038-.007z"/>
  <path fill="#A25F8D" d="m14.477 11.786-.007.009-.012-.018.007-.01q.007.01.011.019"/>
  <path fill="#C3E5EE" d="m6.314 9.21.098.13-.048.066-.05-.006zm.003-.196-.004.13zm-.069-.232.043-.059.055.062z"/>
  <path fill="#BEDEE5" d="m13.585 9.046-.06-.025.026-.067.027.014z"/>
  <path fill="#C3E5EE" d="m6.412 9.34.066-.065z"/>
  <path fill="#0F0D0D" d="m5.529 11.339-.003.003z"/>
  <path fill="#04080A" d="M5.923 10.981H5.92l.002-.003zm-.066-.002H5.81l-.061.059-.007.003c-.006 0-.069.08-.13.156l-.01.013-.001.002-.327.397-.09.114-.05.174c.13-.175.386-.494.514-.67.003-.008.133-.16.18-.217l.026-.029z"/>
  <path fill="#0F0D0D" d="m5.529 11.339-.003.003zm3.309 2.337-.366-.142v-.049l.132-.042q.007.011.02.009l.078.026q.168.1.136.198m2.695-.196h.184l-.228.218h.002l-.044.026-.142-.025z"/>
  <path fill="#ED961B" d="M7.198 15.082c-.102.095-.279.08-.393-.033zm1.181-.262-.066.121c-.052-.01-.092-.02-.131-.028zm-.198.093-.196.038z"/>
  <path fill="#D89910" d="m12.312 13.505-.025.037-.097-.04.018-.093.036-.004.04.062z"/>
  <path fill="#ED961B" d="m7.592 15.049-.13.031zm-.886-.001-.13-.032zm1.804-.265.062.079-.127-.044zm-.656.229-.131.032z"/>
  <path fill="#E79723" d="m8.702 13.478-.078-.026zm2.745.246.044-.027zm.865-.219-.029-.038z"/>
  <path fill="#04080A" d="m5.521 13.283.2-.275.069.044-.297.47q.002-.012-.01-.015l-.002-.07zm.139.417.193-.392c-.006.16-.028.31-.194.391"/>
  <path fill="#FAFBFB" d="m4.835 15.8-.088.14-.034-.141zm-.159-.428.03-.133z"/>
  <path fill="#BEDEE5" d="m5.481 13.437.003.07-.063-.035z"/>
  <path fill="#C0E1E9" d="m5.697 12.622-.013.03-.225.422-.046-.023.213-.4.009-.064q.012-.014.026-.027l.004-.004.017-.062-.001-.007v-.001l-.01-.068-.013-.158v-.001l-.009-.035-.222.392-.064.072-.065.322v.134l.065.033.095-.017.063.123.2-.275.069.044-.297.47.026.27.057.015.083-.108.194-.39.092-.069zm-.37-.004-.076.049.086.014z"/>
  <path fill="#E4E5E3" d="m6.145 15.866-.058-.067zm-.846-2.722.064.033z"/>
  <path fill="#C0E1E9" d="m5.394 10.913.034-.028.14-.128c-.022-.09-.084-.19-.063-.266.078-.285.162-.57.281-.839.133-.3.306-.58.46-.87l.044-.059.055.062-.028.229-.004.13.001.065.098.131.066-.065-.003-.038c-.017-.082-.062-.17-.047-.245.05-.255.12-.505.196-.816l-.614.487-.412.582-.034.07-.237.714-.023.12-.012.175-.002.032-.024.585.094-.002zm9.273-.079.172.098-.04-.47-.026-.105-.017-.14-.017-.09-.018-.105-.013-.058-.072-.226-.03-.102-.392-.756-.044-.058.002.002-.001-.002-.029-.037-.622-.577-.033.027.144.56.028.084.064.252q0 .034.002.067l-.04.056.108.15.045-.003v-.625c.07.016.1.037.114.066.191.395.405.782.562 1.191.096.25.105.533.153.8"/>
  <path fill="#C0E1E9" d="m15.972 10.844-.15.112c-.166.168-.37.209-.595.183l-.058-.011-.106-.022-.056-.019-.042-.01-.057-.02-.465-.197-.17-.111-.082.022.023.149.4.357q.057.054.11.112c.038-.006.082-.03.112-.017.293.115.585.204.942 0-.046.11-.081.159-.084.21-.005.094.009.19.015.285.029-.063.05-.131.087-.19.159-.251.23-.52.176-.833m-10.443.495-.003.003zm-.256.271.22-.27c.012 0 .04-.051.052-.052.024-.043.032-.035.056-.078l.056-.067.001-.001.033-.05.05-.048.068-.064.047-.002.058-.054.064-.011-.016-.143-.11-.057-.176.112-.418.302-.059.015-.061.015-.07.012-.525.004-.058-.016-.336-.196.25.643.013-.065.006-.085h.867zm1.86 4.698-.278-.263-.043.041.071.339-.364-.218-.093.272q-.026 0-.05.002l-.232-.615-.058-.067-.03-.272-.39.286-.125-.5-.101.022-.008.008.04.357.014.07.173.708.06-.014c.041-.236.045-.49.256-.687.125.345.197.692.483.894l.207-.254c.112.09.19.155.266.217l.182-.175.125.235.109-.252.21.303.03-.017-.261-.601zm8.337-1.19-.13.632-.478-.569-.245.125-.099.511-.175-.115c.021.125.088.201.221.205l.114-.58c.37.24.54.597.716 1.008.041-.145.081-.245.097-.349.04-.256.068-.514.1-.77l-.07-.116zm-9.844-2.991.027-.231.003-.194q-.185.286-.373.568c-.02.03-.052.051-.079.076l.153.145q.135-.18.268-.363zm3.436-5.205c-.412-.534-.928-.632-1.467-.231a1.55 1.55 0 0 0-.497.647c-.224.575-.386 1.174-.573 1.763.184-.023.168-.189.21-.306.079-.223.12-.463.222-.674q.262-.539.583-1.043c.118-.185.25-.388.503-.424.439-.06.79.073 1.03.464.103.167.226.322.374.529v-.165c-.05-.057-.106-.11-.147-.173-.083-.127-.146-.268-.238-.387m5.553 6.886.051-.035-.032-.242-.146-.213q-.049-.072-.096-.145l-.104.022-.012.114.199.41z"/>
  <path fill="#04080A" d="m14.654 13.442-.019.088-.146-.211-.096-.146-.047-.1a.5.5 0 0 1-.034-.088c-.012-.048.002-.063.022-.063.022 0 .05.019.057.03.027.042.064.11.104.183.05.094.103.198.14.27l.007.014zm-.377-.133.199.41c-.105-.041-.226-.291-.199-.41m-6.263-2.79.103.003c.197-.046.042-.18.08-.264l-.338-.142c-.29-.403-.11-.8.386-1.157.01-.12.014-.251.036-.378.009-.047.063-.085.096-.127l.025.353.491.176.03.136c-.02.005-.035.013-.04.009-.1-.092-.227-.184-.34-.088-.085.071-.13.217-.144.336-.026.203-.015.41-.02.616v.144l.399.019c.25.01.308.092.242.346l-.196.162-.051.018h-.398l-.035.129-.021.07-.071.109-.026-.15-.016-.144-.374-.109.157-.07.012.008zm.348-.165.003.11.006.031c.16.126.445.057.566-.157l-.118-.036c-.118-.004-.236-.013-.354-.008-.035.001-.069.04-.103.06m-.15-.297v-.86c-.24.15-.35.451-.322.606.027.15.112.257.322.254"/>
  <path fill="#57B256" d="m8.823 10.663.197-.162c.066-.254.008-.335-.243-.346l-.398-.02v-.143c.172.021.345.034.514.066.21.04.334.169.318.308-.019.17-.17.286-.388.297m-.991-.077.374.109.016.144c-.183.013-.36.006-.508-.143z"/>
  <path fill="#7CC784" d="m8.893 8.983-.491-.176-.025-.353c.21.025.091.21.143.295.121.04.234.071.34.118.023.01.022.076.033.116M7.86 10.116l.338.142c-.039.084.116.219-.08.264v-.139z"/>
  <path fill="#57B256" d="m8.34 10.81.035-.13h.398z"/>
  <path fill="#3C6EB3" d="m8.248 10.989.071-.109-.023.156h-.03z"/>
  <path fill="#7CC784" d="m8.015 10.519-.013.005-.013-.007z"/>
  <path fill="#04080A" d="M11.228 9.932c-.184-.277-.145-.445.16-.691l.08-.049.006-.004.243-.084v-.518c.01-.045.022-.09.041-.167l.158.131-.026.522c.183.026.332.104.35.334l-.356-.183.041.763c.257-.008.522-.056.628.257.067.198-.056.316-.187.43l-.44.085q-.021.08-.044.155l-.015.027-.055.016v-.002q-.022-.08-.045-.175l-.251.012-.294-.111.006-.057c.17 0 .34.002.509-.003.014-.001.027-.048.041-.073v-.358l-.503-.205-.012-.015zm.695.331v.338l.179-.027c.302-.035.385-.152.26-.422-.082 0-.18-.01-.276.003-.064.009-.186-.04-.163.108m-.426-.337.237.118v-.81c-.237.097-.44.182-.527.479z"/>
  <path fill="#57B256" d="m11.274 9.984.504.205v.358l-.125-.262-.034.035zm.608.929.044-.155.44-.086a.5.5 0 0 1-.484.241m-.166-2.327v.518l-.242.084.07-.078zm-.2 2.204.25-.01.046.174zm.296.166.055-.016-.013.142zm-.344-1.764-.08.049zm-.24.74.034.037z"/>
  <path fill="#34A8B9" d="m11.41 12.616.082.037-.012.046c-.054-.005-.114.004-.16-.018a1.1 1.1 0 0 1-.6-.65c-.014-.038.01-.089.018-.134.084.345.343.547.61.741.01.008.04-.014.062-.022"/>
  <path fill="#04080A" d="M11.41 12.616c-.02.008-.052.03-.062.022-.267-.194-.526-.396-.61-.74.02.003.048 0 .059.013zm-.142-.823.385.686-.055.03-.356-.69zm.781.417-.429-.673c.219.177.365.4.45.665l-.015-.006z"/>
  <path fill="#04080A" d="m11.203 11.695.066.098-.026.025-.037-.125z"/>
  <path fill="#34A8B9" d="m12.07 12.202.007.063h-.02l-.008-.055.006-.014zm-.902-.533-.004-.004c-.005-.022-.002-.008.002.006zm.474.895.008.034-.014.002-.005-.034z"/>
  <path fill="#04080A" d="m11.205 11.693-.038-.024-.002.002.037.024zm-2.683.01-.461.95c.071-.37.215-.708.448-1.008zm.235.991c-.035.004-.07.01-.048.006l.587-.697-.099.321-.046.045-.008.008-.086.099.008.005-.009-.004-.16.135h.002l-.065.042-.033.018zm-.227-.101a2.4 2.4 0 0 1 .512-.873l-.468.908z"/>
  <path fill="#34A8B9" d="m9.197 12.324.1-.321.016-.025c.026.03.052.06.099.111zm-.14.152.086-.1z"/>
  <path fill="#3C6EB3" d="m8.53 12.593.044.035-.042.077-.028-.011zm-.008-.89-.013-.058.018-.031.022.008z"/>
  <path fill="#34A8B9" d="m9.151 12.37.048-.046zm-.318.284.065-.042zm-.076.04.043-.022z"/>
  <path fill="#F55621" d="M9.205 15.067c.184.642.44 1.244.863 1.844a5.5 5.5 0 0 0 .856-1.852l1.054.469-.13.507c-.167.262-.305.508-.473.732a.86.86 0 0 1-.35.285c-.33.128-.668.286-1.032.248-.418-.043-.818-.168-1.152-.438-.069-.055-.112-.144-.16-.221-.215-.351-.505-.668-.519-1.123z"/>
  <path fill="#7CC784" d="m5.685 12.468-.003.026-.001-.007v-.001z"/>
  <path fill="#FCCF0A" d="m8.41 13.438.008-.014-.007.015z"/>
  <path fill="#7CC784" d="M8.212 10.057c-.21.003-.295-.103-.322-.254-.028-.155.082-.456.322-.605z"/>
  <path fill="#BEDEE5" d="m8.371 10.496-.006-.032q0-.055-.003-.11c.035-.02.068-.059.103-.06.118-.005.236.004.355.008-.026.032-.046.082-.079.093-.12.04-.246.068-.37.1"/>
  <path fill="#57B256" d="M8.371 10.496c.124-.033.25-.06.37-.101.033-.011.053-.061.079-.093l.117.036c-.12.214-.405.283-.566.158m-.009-.142.003.11q0-.055-.003-.11m3.135-.428-.29-.213c.088-.297.29-.382.527-.48v.81c-.084-.041-.16-.08-.238-.117l.113-.008-.03-.512c-.273.157-.146.342-.082.52m.426.337c-.023-.149.099-.1.162-.108.096-.013.195-.003.277-.003.124.27.041.387-.26.422l.162-.288-.044-.052z"/>
  <path fill="#BEDEE5" d="m11.923 10.263.297-.029.044.052-.162.288-.18.027zm-.426-.337c-.064-.178-.19-.363.082-.52l.03.512z"/>
  <path fill="#E32821" d="m13.036 4.52-.005.066c-.13.049-.266.078-.394.13a.3.3 0 0 1-.13.034 2 2 0 0 0-.228-.205c-.256-.123-.506-.261-.785-.332l-.012.002c-.169-.07-.34-.117-.52-.056-.268.488-.301 1.046-.453 1.575q-.456.134-.911-.003c-.109-.5-.21-1.01-.427-1.475-.07-.336-.747.062-.955.093l-.27.133.001-.002c-.135.056-.229.163-.327.267l.001-.002c-.185.042-.357-.107-.54-.131l.033-.12a.2.2 0 0 0 .075-.036l.046-.034v.003c.801-.364 1.715-.52 2.587-.657.61-.022 1.207.15 1.808.24.41.152.933.17 1.286.459l.013-.003z"/>
  <path fill="#4273B9" d="M11.8 1.553c-.055.175-.318 1.91-.373 2.086l-.035.029a8 8 0 0 0-1.034-.13 9 9 0 0 0-.54-.018q-.015-.008-.025.003l-.198.022c-.286.036-.574.088-.857.093l-.014-.04-.035-.103-.037-.119-.005-.015-.034-.117c-.012-.045-.396-1.597-.409-1.642z"/>
  <path fill="url(#rich-quack_svg__b)" d="M9.98 20a9.93 9.93 0 0 1-5.436-1.624 9.93 9.93 0 0 1-4.325-6.313 9.93 9.93 0 0 1 1.405-7.522A9.93 9.93 0 0 1 7.937.216C13.33-.92 18.645 2.541 19.783 7.935c1.139 5.394-2.324 10.708-7.718 11.846-.693.147-1.391.219-2.084.219m.023-18.654q-.886-.002-1.788.187a8.6 8.6 0 0 0-5.463 3.743 8.6 8.6 0 0 0-1.217 6.51 8.6 8.6 0 0 0 3.743 5.462 8.6 8.6 0 0 0 6.51 1.217c4.668-.985 7.664-5.584 6.679-10.253-.858-4.068-4.462-6.866-8.464-6.866"/>
  <path fill="url(#rich-quack_svg__c)" d="M9.983 18.752a8.7 8.7 0 0 1-4.76-1.421 8.7 8.7 0 0 1-3.784-5.525C.442 7.084 3.473 2.433 8.194 1.436a8.7 8.7 0 0 1 6.583 1.23 8.7 8.7 0 0 1 3.786 5.526c.996 4.721-2.034 9.373-6.755 10.369a9 9 0 0 1-1.825.191m.02-17.102q-.856 0-1.726.18c-4.504.952-7.395 5.39-6.444 9.893a8.3 8.3 0 0 0 3.61 5.271 8.3 8.3 0 0 0 6.281 1.174c4.504-.95 7.395-5.388 6.445-9.892-.828-3.925-4.305-6.625-8.166-6.625"/>
  <path fill="url(#rich-quack_svg__d)" d="m10.012 19.459-.154-.001a.05.05 0 0 1-.05-.052c.001-.027.024-.045.052-.049a9.3 9.3 0 0 0 1.644-.119.05.05 0 0 1 .016.1 9.5 9.5 0 0 1-1.508.12m-1.597-.135h-.009a9.5 9.5 0 0 1-1.611-.423.05.05 0 0 1-.03-.064.05.05 0 0 1 .064-.03 9.4 9.4 0 0 0 1.594.417.05.05 0 0 1-.008.1m4.506-.328a.05.05 0 0 1-.016-.098 9.3 9.3 0 0 0 1.515-.648.05.05 0 0 1 .048.088 9.5 9.5 0 0 1-1.531.656zm-7.432-.687-.024-.007a9.5 9.5 0 0 1-1.386-.925.05.05 0 0 1 .063-.079c.429.345.89.653 1.37.916a.05.05 0 0 1-.023.095m10.176-.747a.05.05 0 0 1-.03-.09c.439-.33.85-.702 1.224-1.104a.05.05 0 1 1 .074.069 9.6 9.6 0 0 1-1.237 1.115.05.05 0 0 1-.03.01M3.053 16.396a.05.05 0 0 1-.037-.017 9.6 9.6 0 0 1-1.01-1.324A.05.05 0 0 1 2.09 15c.294.464.63.905 1 1.31a.05.05 0 0 1-.037.085M17.8 15.317a.05.05 0 0 1-.042-.079 9.3 9.3 0 0 0 .8-1.44.05.05 0 0 1 .092.04 9.4 9.4 0 0 1-.808 1.457.05.05 0 0 1-.042.022m-16.43-1.52a.05.05 0 0 1-.047-.03 9.4 9.4 0 0 1-.527-1.58.05.05 0 0 1 .098-.024c.127.534.302 1.06.521 1.563a.05.05 0 0 1-.046.07M19.086 12.5a.05.05 0 0 1-.049-.063 9.5 9.5 0 0 0 .286-1.623c.003-.028.029-.059.055-.056.028.003.05.017.047.045v.01a9.6 9.6 0 0 1-.29 1.65.05.05 0 0 1-.05.037M.62 10.792a.05.05 0 0 1-.05-.046 9.5 9.5 0 0 1 .008-1.572l.008-.094a.05.05 0 0 1 .055-.045.05.05 0 0 1 .046.055l-.01.093a9.5 9.5 0 0 0-.007 1.555.05.05 0 0 1-.046.054zM19.39 9.4a.05.05 0 0 1-.051-.047 9.3 9.3 0 0 0-.257-1.628.05.05 0 0 1 .098-.024 9.4 9.4 0 0 1 .26 1.645.05.05 0 0 1-.047.054zM.886 7.707l-.013-.002a.05.05 0 0 1-.036-.061 9.4 9.4 0 0 1 .554-1.571.05.05 0 1 1 .092.042 9.3 9.3 0 0 0-.549 1.554.05.05 0 0 1-.048.038M18.67 6.389a.05.05 0 0 1-.046-.031 9.4 9.4 0 0 0-.774-1.455.05.05 0 1 1 .085-.055 9.5 9.5 0 0 1 .782 1.47.05.05 0 0 1-.047.07M2.141 4.875a.05.05 0 0 1-.042-.078 9.5 9.5 0 0 1 1.036-1.305.05.05 0 0 1 .07-.002.05.05 0 0 1 .003.071 9.4 9.4 0 0 0-1.025 1.291.05.05 0 0 1-.042.023m14.87-1.101a.05.05 0 0 1-.037-.017 9.4 9.4 0 0 0-1.202-1.127.05.05 0 0 1 .062-.08 9.5 9.5 0 0 1 1.215 1.14.05.05 0 0 1-.037.084M4.248 2.604a.05.05 0 0 1-.03-.09c.439-.34.91-.642 1.401-.9a.05.05 0 0 1 .068.022.05.05 0 0 1-.02.068 9.4 9.4 0 0 0-1.388.89.05.05 0 0 1-.03.01m10.349-.768-.025-.007a9.3 9.3 0 0 0-1.504-.675.05.05 0 1 1 .033-.095 9.5 9.5 0 0 1 1.52.682.05.05 0 0 1-.024.095m-7.622-.698a.05.05 0 0 1-.016-.098A9.4 9.4 0 0 1 8.576.645a.05.05 0 1 1 .015.1 9.3 9.3 0 0 0-1.6.39zM11.681.79h-.011a9.5 9.5 0 0 0-1.64-.15.05.05 0 0 1 0-.101 9.6 9.6 0 0 1 1.66.151.05.05 0 0 1-.01.1"/>
  <defs>
    <linearGradient id="rich-quack_svg__b" x1="2.927" x2="17.066" y1="17.069" y2="2.929" gradientUnits="userSpaceOnUse">
      <stop stop-color="#FCC449"/>
      <stop offset=".062" stop-color="#EBAF3B"/>
      <stop offset=".199" stop-color="#CB8921"/>
      <stop offset=".324" stop-color="#B46D0F"/>
      <stop offset=".434" stop-color="#A65C03"/>
      <stop offset=".516" stop-color="#A25600"/>
      <stop offset=".79" stop-color="#FBAC34"/>
      <stop offset=".942" stop-color="#FDF363"/>
    </linearGradient>
    <linearGradient id="rich-quack_svg__c" x1="1.383" x2="18.619" y1="8.479" y2="11.518" gradientUnits="userSpaceOnUse">
      <stop stop-color="#CAB700"/>
      <stop offset=".208" stop-color="#AC6809"/>
      <stop offset=".476" stop-color="#6B2A02"/>
      <stop offset=".808" stop-color="#AC6809"/>
      <stop offset="1" stop-color="#CAB700"/>
    </linearGradient>
    <linearGradient id="rich-quack_svg__d" x1=".541" x2="19.439" y1="9.999" y2="9.999" gradientUnits="userSpaceOnUse">
      <stop stop-color="#FCC449"/>
      <stop offset=".062" stop-color="#EBAF3B"/>
      <stop offset=".199" stop-color="#CB8921"/>
      <stop offset=".324" stop-color="#B46D0F"/>
      <stop offset=".434" stop-color="#A65C03"/>
      <stop offset=".516" stop-color="#A25600"/>
      <stop offset=".79" stop-color="#FBAC34"/>
      <stop offset=".942" stop-color="#FDF363"/>
    </linearGradient>
    <radialGradient id="rich-quack_svg__a" cx="0" cy="0" r="1" gradientTransform="translate(10 9.999)scale(9.32698)" gradientUnits="userSpaceOnUse">
      <stop offset=".03" stop-color="#FCC449"/>
      <stop offset=".076" stop-color="#EBAF3B"/>
      <stop offset=".178" stop-color="#CB8921"/>
      <stop offset=".272" stop-color="#B46D0F"/>
      <stop offset=".354" stop-color="#A65C03"/>
      <stop offset=".415" stop-color="#A25600"/>
      <stop offset=".785" stop-color="#FBAC34"/>
      <stop offset=".942" stop-color="#FDF363"/>
    </radialGradient>
  </defs>
</svg>
