<svg xmlns="http://www.w3.org/2000/svg" fill="none" viewBox="0 0 21 20">
  <circle cx="10" cy="10" r="10" fill="#006aff"/>
  <path fill="#fff" d="M13.45 11.317c-.42-.243-.892-.313-1.36-.329-.393-.013-.978-.265-.978-.985a.995.995 0 0 1 .978-.986c.468-.016.94-.086 1.36-.328a2.48 2.48 0 0 0 .903-3.387 2.48 2.48 0 0 0-3.383-.908 2.48 2.48 0 0 0-1.24 2.147c0 .48.171.923.39 1.333.183.345.276.986-.353 1.348a.993.993 0 0 1-1.342-.368c-.247-.394-.547-.766-.96-1.004A2.475 2.475 0 0 0 3.75 10a2.48 2.48 0 0 0 2.477 2.48 2.5 2.5 0 0 0 1.238-.332c.416-.241.713-.61.96-1.004.202-.329.706-.736 1.342-.368a.995.995 0 0 1 .352 1.348c-.219.41-.389.853-.389 1.333a2.48 2.48 0 0 0 1.24 2.149 2.477 2.477 0 0 0 3.717-2.148 2.48 2.48 0 0 0-1.238-2.149z"/>
  <path fill="#e68f7b" d="m17.032 10 3.04 5.023-3.03-1.294z"/>
  <path fill="#f8ec7c" d="M14 15.023 17.031 10l.012 3.729z"/>
  <path fill="#6eb87d" d="M17.031 16.875 14 15.023l3.043-1.294z"/>
  <path fill="#946ba7" d="m20.071 15.023-3.028-1.294-.011 3.146z"/>
  <path fill="#697cb9" d="m17.032 17.513 3.04-1.802-3.04 4.283z"/>
  <path fill="#4fadd0" d="M17.031 17.513 14 15.71l3.031 4.283z"/>
</svg>
