<svg xmlns="http://www.w3.org/2000/svg" fill="none" viewBox="0 0 900 900">
  <path fill="url(#river_svg__a)" d="M512.382 475.314c44.713-33.957 108.704-39.193 159.765-17.595 40.442 17.095 72.957 51.014 89.58 91.516 7.927 19.327 11.774 39.809 11.774 60.252h.039c0 27.951-7.311 55.787-21.395 80.466-16.623 29.106-41.788 53.284-71.801 68.223C658.45 769.071 634.13 775 609.618 775h-330.11c-38.288-2.734-75.805-18.75-105.05-48.048-32.283-32.302-48.445-74.652-48.445-117.002v-70.032a231 231 0 0 0 11.082 11.934c64.607 64.642 169.501 83.276 250.576 39.809 25.973-13.937 47.368-32.108 66.531-54.399 18.47-21.483 35.439-44.661 58.18-61.948m-325.304-312.59c-7.118 5.813-4.31 39.653-3.771 48.586a176.2 176.2 0 0 0 11.159 51.475c12.044 31.763 33.284 59.637 60.989 79.349 54.063 38.423 128.174 42.351 185.7 9.24 30.041-17.291 70.182-57.568 102.543-74.008 30.822-15.668 60.834-23.611 95.003-18.337s67.731 20.06 92.435 44.777c32.283 32.302 43.825 80.563 43.825 122.913l.039-.038v43.043c-43.559-53.014-108.845-87.605-176.684-82.946-29.282 2.001-58.172 10.788-84.222 24.378-67.86 30.78-112.265 125.1-227.773 125.1-54.715 0-128.456-33.914-153.345-117.968-11.89-40.156-6.965-85.625-6.965-127.129.005-.092 1.545-26.202 4.618-38.962 8.427-34.919 28.629-66.797 56.449-89.473m375.629-37.708c39.21-.116 79.691 0 115.708 15.401 30.359 12.936 55.871 36.42 72.687 64.872 14.314 24.178 22.779 52.361 23.549 80.506-13.429-13.553-26.666-26.951-42.751-37.77-76.381-51.437-169.193-42.905-258.527 18.732-57.621 39.758-125.133 15.208-150.722-6.237-24.626-20.636-39.248-50.589-43.404-82.159-1.655-12.552-6.542-52.244 14.352-52.322 92.966-.346 176.142-.677 269.108-1.023"/>
  <defs>
    <radialGradient id="river_svg__a" cx="0" cy="0" r="1" gradientTransform="matrix(-520.009 582.338 -530.992 -474.465 708.894 172.357)" gradientUnits="userSpaceOnUse">
      <stop stop-color="#00aeff"/>
      <stop offset="1" stop-color="#0032bc"/>
    </radialGradient>
  </defs>
</svg>
