<svg xmlns="http://www.w3.org/2000/svg" fill="none" viewBox="0 0 20 20">
  <path fill="url(#rocket-pool_svg__a)" d="M10 20c5.523 0 10-4.477 10-10S15.523 0 10 0 0 4.477 0 10s4.477 10 10 10"/>
  <path fill="#fff" fill-rule="evenodd" d="M15.72 5.058c-.143 1.488-1.293 5.016-4.752 7.22l-.515 1.937-1.81 1.231-.538-1.997c-.165.022-.608.004-1.064-.252l-.73.617-.64-.758.729-.617c-.123-.263-.289-.897.03-1.326-.417-.208-1.395-.623-1.831-.804l1.515-1.581 1.92-.273C9.201 7.15 12.37 4.647 15.72 5.058M10.614 9.5a.975.975 0 1 0 1.49-1.26.975.975 0 0 0-1.49 1.26M1.99 15.855l2.423-1.903.618.786-2.422 1.903zm-.475-1.903 2.422-1.903.618.786-2.422 1.903zm2.422 3.114 2.422-1.903.618.786-2.422 1.903z" clip-rule="evenodd"/>
  <defs>
    <linearGradient id="rocket-pool_svg__a" x1="20" x2="0" y1="2.781" y2="17.961" gradientUnits="userSpaceOnUse">
      <stop stop-color="#EB8263"/>
      <stop offset="1" stop-color="#F6BF79"/>
    </linearGradient>
  </defs>
</svg>
