<svg xmlns="http://www.w3.org/2000/svg" fill="none" viewBox="0 0 20 20">
  <g clip-path="url(#safepal_svg__a)">
    <circle cx="10" cy="10" r="10" fill="#fff"/>
    <path fill="#4a21ef" d="M9.135 3c-.425 0-.834.168-1.136.47L3.269 8.2a.915.915 0 0 0 0 1.299l3.1 3.101V7.114a.74.74 0 0 1 .74-.739h6.516l3.37-3.37h-7.86zM6.37 13.625h6.516c.408 0 .739-.33.739-.74V7.4l3.1 3.1a.916.916 0 0 1 0 1.3l-4.73 4.73c-.302.302-.71.47-1.136.47H3l3.37-3.37z"/>
  </g>
  <defs>
    <clipPath id="safepal_svg__a">
      <path fill="#fff" d="M0 0h20v20H0z"/>
    </clipPath>
  </defs>
</svg>
