<svg xmlns="http://www.w3.org/2000/svg" fill="none" viewBox="0 0 20 20">
  <g clip-path="url(#sei_svg__a)">
    <circle cx="10" cy="10" r="10" fill="#f3e3cc"/>
    <path fill="url(#sei_svg__b)" fill-rule="evenodd" d="M9.977 19.048a9.06 9.06 0 0 0 6.763-3.02 2.155 2.155 0 0 0-2.76-.047l-.157.126a3.64 3.64 0 0 1-4.989-.407 1.94 1.94 0 0 0-2.708-.18l-1.811 1.549a9.05 9.05 0 0 0 5.662 1.979m2.94-4.381a3.85 3.85 0 0 1 4.831.001 9 9 0 0 0 1.3-4.668 9 9 0 0 0-1.588-5.114 2.15 2.15 0 0 0-1.876.492l-.15.134a3.64 3.64 0 0 1-5.003-.177 1.94 1.94 0 0 0-2.714-.055L5.61 7.258l-1.16-1.23L6.557 4.05a3.64 3.64 0 0 1 5.083.104 1.94 1.94 0 0 0 2.67.094l.152-.133a3.8 3.8 0 0 1 1.58-.842A9.05 9.05 0 0 0 9.978.953C5.372.952 1.569 4.374.984 8.807a3.72 3.72 0 0 1 4.264.753c.72.736 1.88.813 2.691.18l1.18-.918a3.93 3.93 0 0 1 4.993.133l2.295 1.995-1.112 1.273L13 10.229a2.236 2.236 0 0 0-2.84-.076l-1.179.92a3.72 3.72 0 0 1-4.944-.332 2.025 2.025 0 0 0-2.83-.062l-.255.24a9 9 0 0 0 2.14 4.972l1.933-1.653a3.637 3.637 0 0 1 5.072.338c.688.768 1.86.864 2.664.217z" clip-rule="evenodd"/>
  </g>
  <defs>
    <linearGradient id="sei_svg__b" x1="10" x2="10" y1=".952" y2="19.048" gradientUnits="userSpaceOnUse">
      <stop stop-color="#893455"/>
      <stop offset="1" stop-color="#e23e40"/>
    </linearGradient>
    <clipPath id="sei_svg__a">
      <path fill="#fff" d="M0 0h20v20H0z"/>
    </clipPath>
  </defs>
</svg>
