<svg xmlns="http://www.w3.org/2000/svg" fill="none" viewBox="0 0 37.471 37.566">
  <path fill="#0b2632" fill-rule="evenodd" d="M18.688 37.566c5.565 0 10.566-2.42 14.005-6.267a4.455 4.455 0 0 0-5.714-.1l-.326.262a7.52 7.52 0 0 1-10.331-.845 4.014 4.014 0 0 0-5.607-.374l-3.752 3.216a18.7 18.7 0 0 0 11.725 4.108m6.09-9.095a7.96 7.96 0 0 1 10.002.004 18.7 18.7 0 0 0 2.69-9.692c0-3.94-1.213-7.597-3.286-10.617A4.45 4.45 0 0 0 30.3 9.188l-.313.278a7.52 7.52 0 0 1-10.36-.367 4.014 4.014 0 0 0-5.618-.116l-4.366 4.108-2.402-2.553 4.366-4.108a7.52 7.52 0 0 1 10.525.216 4.014 4.014 0 0 0 5.53.196l.313-.277a7.9 7.9 0 0 1 3.274-1.747A18.7 18.7 0 0 0 18.688 0C9.153 0 1.277 7.105.066 16.31a7.695 7.695 0 0 1 8.83 1.562 4.186 4.186 0 0 0 5.573.374l2.44-1.907a8.126 8.126 0 0 1 10.34.277l4.753 4.14L29.7 23.4l-4.753-4.14a4.62 4.62 0 0 0-5.88-.158l-2.44 1.908a7.69 7.69 0 0 1-10.239-.688 4.186 4.186 0 0 0-5.86-.128L0 20.69a18.7 18.7 0 0 0 4.43 10.323l4.003-3.431a7.52 7.52 0 0 1 10.504.701 4.014 4.014 0 0 0 5.515.451z" clip-rule="evenodd"/>
</svg>
