<svg xmlns="http://www.w3.org/2000/svg" viewBox="0 0 32 32">
  <circle cx="16" cy="16" r="16" fill="#6916ff"/>
  <g fill="#fff">
    <path fill-opacity=".5" d="M17.144 6.424a.28.28 0 0 1-.081-.363.29.29 0 0 1 .312 0 5.6 5.6 0 0 1 1.875 1.272c.303.281.557.609.75.97q.306.553.5 1.152c.123.413.187.842.188 1.272-.063.425-.125 2.485-1.313 3.455a.714.714 0 0 1-.938-.182.63.63 0 0 1-.062-.727A5.05 5.05 0 0 0 18.5 8q-.601-.85-1.356-1.576M15.3 25.006c.125.121.125.242.063.303s-.188.121-.25.06a5.6 5.6 0 0 1-1.875-1.272 3.7 3.7 0 0 1-.75-.97 6.5 6.5 0 0 1-.5-1.151 4.5 4.5 0 0 1-.188-1.273c.063-.424.125-2.485 1.313-3.455a.714.714 0 0 1 .937.182.54.54 0 0 1 0 .728 5.05 5.05 0 0 0-.125 5.272c.405.567.866 1.095 1.375 1.576"/>
    <path d="M20.694 20.006a5.47 5.47 0 0 0-1.313-3.151 10.8 10.8 0 0 0-2.625-1.94 14.5 14.5 0 0 1-2.375-1.642 4.03 4.03 0 0 1-1.187-2.121 4.24 4.24 0 0 1 .306-2.48 6.7 6.7 0 0 1 1.756-2.242.26.26 0 0 0 .063-.303.242.242 0 0 0-.375-.06 5.6 5.6 0 0 0-2.438 2.06 5 5 0 0 0-.881 3.273 5.3 5.3 0 0 0 .438 1.697 6 6 0 0 0 1 1.455 10.8 10.8 0 0 0 2.687 1.878c.848.44 1.645.969 2.375 1.576a3.6 3.6 0 0 1 1.188 2.182c.176.879.066 1.79-.313 2.606a6.1 6.1 0 0 1-1.813 2.182.207.207 0 0 0-.063.303c.035.064.1.11.173.121s.149-.01.203-.06a7.8 7.8 0 0 0 2.375-2.122c.62-.958.906-2.084.819-3.212"/>
  </g>
</svg>
