<svg xmlns="http://www.w3.org/2000/svg" fill="none" viewBox="0 0 20 20">
  <circle cx="10" cy="10" r="10" fill="#000"/>
  <path fill="#f9f9f9" d="M4.398 10.023v5.891h10.849v-1.357H5.71V5.466h9.536V4.132H4.397z"/>
  <path fill="#f9f9f9" d="M14.067 6.383c-.956.124-1.64.633-1.898 1.412-.06.192-.068.254-.083.532-.023.655.114 1.056.486 1.434.364.37.842.578 1.806.771.623.123.904.224 1.124.393.266.208.357.625.205.949a.97.97 0 0 1-.425.416c-.395.178-1.078.147-1.48-.061a1.24 1.24 0 0 1-.464-.47 1.7 1.7 0 0 1-.16-.61v-.123h-1.335v.092c0 .494.16 1.064.41 1.442.129.2.395.478.577.601.546.378 1.298.556 2.08.486.759-.061 1.298-.293 1.693-.71a1.87 1.87 0 0 0 .486-.978c.053-.293.038-.949-.03-1.188-.175-.601-.623-.995-1.42-1.265a6 6 0 0 0-.54-.146c-.53-.108-.948-.216-1.108-.285-.387-.162-.546-.37-.546-.694 0-.363.212-.594.637-.702.243-.062.691-.054.896.023.387.139.646.447.706.825l.023.154h1.313l-.015-.223c-.03-.463-.129-.756-.357-1.103-.31-.463-.804-.779-1.45-.918a3.4 3.4 0 0 0-.622-.054c-.243-.007-.47 0-.509 0"/>
</svg>
