<svg xmlns="http://www.w3.org/2000/svg" viewBox="0 0 483.182 483.182">
  <radialGradient id="sky_svg__a" cx="-2160.505" cy="779.083" r="1" gradientTransform="matrix(-183.96646 -158.84442 -158.84607 183.96455 -273464.594 -486266.344)" gradientUnits="userSpaceOnUse">
    <stop offset="0" stop-color="#a273ff"/>
    <stop offset="1" stop-color="#4331e9"/>
  </radialGradient>
  <path fill="url(#sky_svg__a)" d="M46.14 99.587A241.6 241.6 0 0 1 70.76 70.76l3.003 1.655 166.25 167.143 1.578 2.033z"/>
  <radialGradient id="sky_svg__b" cx="-2156.328" cy="774.066" r="1" gradientTransform="matrix(-38.67718 -244.34738 -244.34695 38.6763 105981.54 -556589.563)" gradientUnits="userSpaceOnUse">
    <stop offset="0" stop-color="#f7a7f9"/>
    <stop offset="1" stop-color="#00ddfb"/>
  </radialGradient>
  <path fill="url(#sky_svg__b)" d="M70.76 70.76A241.6 241.6 0 0 1 203.798 2.974l1.67 4.594 36.123 230.82v3.203z"/>
  <radialGradient id="sky_svg__c" cx="241.59" cy="835.592" r="247.565" gradientTransform="translate(0 -594)" gradientUnits="userSpaceOnUse">
    <stop offset="0" stop-color="#fff3d0"/>
    <stop offset="1" stop-color="#ffc044"/>
  </radialGradient>
  <path fill="url(#sky_svg__c)" d="M351.297 26.345A241.6 241.6 0 0 1 383.6 46.143l-.432 3.763-140.702 190.985-.875.7z"/>
  <radialGradient id="sky_svg__d" cx="-2155.016" cy="773.388" r="1.003" gradientTransform="matrix(0 -247.14044 -247.14 0 191376.566 -532350.146)" gradientUnits="userSpaceOnUse">
    <stop offset="0" stop-color="#a273ff"/>
    <stop offset=".5" stop-color="#9faeff"/>
    <stop offset="1" stop-color="#aaf2e1"/>
  </radialGradient>
  <path fill="url(#sky_svg__d)" d="M483.182 241.591c0 25.351-3.99 50.545-11.824 74.656l-5.714.92-222.276-74.67-1.777-.906z"/>
  <radialGradient id="sky_svg__e" cx="-2142.22" cy="784.293" r="1" gradientTransform="matrix(199.3928 144.81642 144.8185 -199.39154 313804.625 466851.656)" gradientUnits="userSpaceOnUse">
    <stop offset="0" stop-color="#0075ff"/>
    <stop offset="1" stop-color="#00ddfb"/>
  </radialGradient>
  <path fill="url(#sky_svg__e)" d="M471.36 316.242a241.6 241.6 0 0 1-34.314 67.348l-5.506-.934-188.807-139.879-1.142-1.186z"/>
  <radialGradient id="sky_svg__f" cx="-2147.804" cy="790.788" r="1" gradientTransform="matrix(0 247.34044 247.34 0 -195351.984 531480.438)" gradientUnits="userSpaceOnUse">
    <stop offset="0" stop-color="#ffcd6b"/>
    <stop offset="1" stop-color="#eb5edf"/>
  </radialGradient>
  <path fill="url(#sky_svg__f)" d="M316.247 471.358a241.6 241.6 0 0 1-112.45 8.85l-1.507-4.631L240.502 245.7l1.089-4.11z"/>
  <radialGradient id="sky_svg__g" cx="-2147.812" cy="790.77" r="1" gradientTransform="matrix(0 247.85243 247.852 0 -195752.422 532581.938)" gradientUnits="userSpaceOnUse">
    <stop offset="0" stop-color="#d4faff"/>
    <stop offset="1" stop-color="#00ddfb"/>
  </radialGradient>
  <path fill="url(#sky_svg__g)" d="M203.798 480.208a241.6 241.6 0 0 1-36.862-8.85l-.667-5.587 73.945-221.659 1.377-2.52z"/>
  <radialGradient id="sky_svg__h" cx="-2151.664" cy="790.881" r="1" gradientTransform="matrix(-108.43365 241.58905 241.58975 108.43172 -424139.906 434303.375)" gradientUnits="userSpaceOnUse">
    <stop offset="0" stop-color="#ffd2b9"/>
    <stop offset=".29" stop-color="#c99bed"/>
    <stop offset="1" stop-color="#0075ff"/>
  </radialGradient>
  <path fill="url(#sky_svg__h)" d="M166.936 471.358a241.6 241.6 0 0 1-67.349-34.316v-4.372l139.537-188.616 2.467-2.463z"/>
  <radialGradient id="sky_svg__i" cx="-2158.094" cy="784.862" r="1" gradientTransform="matrix(-321.801 0 0 321.80066 -694235.188 -252327.406)" gradientUnits="userSpaceOnUse">
    <stop offset="0" stop-color="#6d28ff"/>
    <stop offset="1" stop-color="#f7a7f9"/>
  </radialGradient>
  <path fill="url(#sky_svg__i)" d="M26.332 351.27A241.6 241.6 0 0 1 0 241.592l3.09-1.14h230.686l7.815 1.14z"/>
  <radialGradient id="sky_svg__j" cx="-2155.017" cy="773.387" r="1" gradientTransform="matrix(0 -247.14044 -247.14 0 191376.566 -532350.146)" gradientUnits="userSpaceOnUse">
    <stop offset="0" stop-color="#a273ff"/>
    <stop offset=".5" stop-color="#9faeff"/>
    <stop offset="1" stop-color="#aaf2e1"/>
  </radialGradient>
  <path fill="url(#sky_svg__j)" d="M203.784 2.977a241.6 241.6 0 0 1 112.466 8.849L241.59 241.59z"/>
  <radialGradient id="sky_svg__k" cx="-1431.6" cy="-5.797" r="1" gradientTransform="matrix(0 247.34044 -247.34 0 -1192.19 354334.094)" gradientUnits="userSpaceOnUse">
    <stop offset="0" stop-color="#ffcd6b"/>
    <stop offset="1" stop-color="#eb5edf"/>
  </radialGradient>
  <path fill="url(#sky_svg__k)" d="M383.596 46.14a241.6 241.6 0 0 1 87.76 120.788L241.591 241.59z"/>
  <radialGradient id="sky_svg__l" cx="-2160.505" cy="779.083" r="1" gradientTransform="matrix(-183.96646 -158.84442 -158.84607 183.96455 -273464.594 -486266.344)" gradientUnits="userSpaceOnUse">
    <stop offset="0" stop-color="#a273ff"/>
    <stop offset="1" stop-color="#4331e9"/>
  </radialGradient>
  <path fill="url(#sky_svg__l)" d="M99.587 437.042a241.6 241.6 0 0 1-53.447-53.448l195.45-142.003z"/>
  <radialGradient id="sky_svg__m" cx="-2160.099" cy="785.693" r="1" gradientTransform="matrix(-247.559 0 0 247.55844 -534510.25 -194263.234)" gradientUnits="userSpaceOnUse">
    <stop offset="0" stop-color="#fff3d0"/>
    <stop offset="1" stop-color="#ffc044"/>
  </radialGradient>
  <path fill="url(#sky_svg__m)" d="M0 241.591c0-25.352 3.99-50.545 11.824-74.656l229.767 74.656z"/>
  <radialGradient id="sky_svg__n" cx="-2160.505" cy="779.083" r="1" gradientTransform="matrix(-183.96646 -158.84442 -158.84607 183.96455 -273464.594 -486266.344)" gradientUnits="userSpaceOnUse">
    <stop offset="0" stop-color="#a273ff"/>
    <stop offset="1" stop-color="#4331e9"/>
  </radialGradient>
  <path fill="url(#sky_svg__n)" d="M437.05 383.584a241.6 241.6 0 0 1-53.445 53.451L241.59 241.591z"/>
</svg>
