<svg xmlns="http://www.w3.org/2000/svg" fill="none" viewBox="0 0 20 20">
  <g clip-path="url(#skyai_svg__a)">
    <path fill="#090909" d="M10 20c5.523 0 10-4.477 10-10S15.523 0 10 0 0 4.477 0 10s4.477 10 10 10"/>
    <path fill="url(#skyai_svg__b)" d="M12.931 11.92c-.166.044-.165.473-.335.5.099.36.23.72.285 1.09.043.286.02.612.066.883.054.313.32.524.33.947q.002.086 0 .17c-.08.528-.497 1.024-1.046.658v-.024l-.024-.047a.6.6 0 0 0 .292-.27c.093-.166.14-.354 0-.51-.148-.113-.257.022-.414 0q-.002.023 0 .048l-.042-.048c-.067 0-.114.004-.177-.025l-.122-.122c-.056-.104-.063-.285-.05-.402.015-.119.106-.175.122-.268.022-.132.008-.426.001-.57l-.024-.098c-.004-.057.005-.115 0-.17l-.024-.122c-.004-.032.003-.066 0-.098l-.025-.097c-.004-.031.005-.067 0-.097l-.024-.073c-.005-.03.005-.068 0-.098l-.025-.073c-.002-.015.003-.034 0-.048l-.024-.073c-.005-.022.005-.053 0-.073l-.024-.05c-.018-.063-.029-.13-.072-.183-.031-.019-.167-.21-.189-.21zm-.36-4.416-.194-.036v-.56l-.146-.036v-.17l-.208-.023-.011-.245-.216-.028-.003-.167-.342-.01-.023-.185-.489-.01-.062-.23-1.883-.003c0 .096.02.198-.06.268H8.19v.194l-.267.001-.04.118-.277.003-.047.33-.245.01-.023.136-.172.01-.01.635-.209.023v1.273l.195.04.028.655a.6.6 0 0 1 .191.027v.22l.25.024c.018.004.03.032.042.048.009.012-.006.055.04.07l.225.006.027.216.014.023c.02.005.04 0 .06.002.16.01.325-.008.486 0v.17l.024.049h.025c.025.04.092.024.133.024.62.008 1.243.005 1.862 0h.39l.024-.024.04-.167.495-.004.048-.305.352-.01.027-.076.206.002.003-.192.265-.027.003-.568.216-.065z"/>
    <path fill="url(#skyai_svg__c)" d="M9.335 12.907c0-.003.023-.028.025-.059.007-.076-.006-.539 0-.615h1.703c.006.174-.008.733-.001.907.001.031.025.056.025.059.02.626-.02 1.252.06 1.876.028.132.192.156.289.221.146.098.212.17.26.337l.024.024c.003.022-.002.05 0 .073.005.064-.004.13 0 .195-.024.127-.02.203-.134.291-.197.153-.518.104-.742.05l-.049-.025c-.022-.007-.06.003-.097-.011-.235-.091-.307-.223-.415-.438-.198-.174-.576.085-.79.157-.347.118-.815.195-1.18.146l-.049-.024a.5.5 0 0 1-.14-.055c-.194-.324.029-.653.286-.858.094-.075.116-.074.22-.11.12.056.505 0 .559-.121.021-.047.036-.153.045-.21.107-.63.063-1.192.1-1.81"/>
    <path fill="url(#skyai_svg__d)" d="M7.608 12.265c.003.011.013.022.025.024.106.013.235.01.34.024l.025.025h.17l.025.024c.039.005.081-.004.121 0 .002.012.013.023.025.024.057.005.11.022.146.025a10 10 0 0 0-.311.905c-.074.28-.184.81-.099 1.082.022.068.078.104.09.177.031.181-.012.4-.155.524l-.222.045c-.019.304.029.577-.23.793-.287.242-.658.108-.876-.158l.024-.013-.024-.012c-.365-.497-.164-.733.012-1.217.073-.2.056-.368.09-.568.087-.524.235-1.227.41-1.729.007.001.047-.027.082-.022.113.018.22.032.332.047"/>
    <path fill="url(#skyai_svg__e)" d="M12.499 15.316c-.148-.112-.257.023-.414 0-.002.016.001.033 0 .049-.002.023.004.052 0 .073l-.024.097c-.03.24-.072.401.121.584l.049.025-.024-.047a.6.6 0 0 0 .292-.27c.094-.166.14-.354 0-.51"/>
    <path fill="#f2f0fc" d="M4.874 7.494v.049c.17.038.102-.147.127-.25.028-.111.083-.218.105-.332l.496-.573c.179.007.13.139.074.256l.096.025.05-.462.068.041-.015.695.053.04.233-.071.097.68.037-.122.109.073.073-.194.023.618-.06.037-.048-.146-.06.015c-.022.09.048.128.048.168 0 .044-.056.063-.067.103a1.8 1.8 0 0 0-.053.844l-.113.107-.059.512-.073-.801-.036.024-.06.923c-.057.18.01.4-.05.583-.125-.066.03-.434-.048-.486l-.067.042c.01.043-.03.116-.03.14v.364c0 .104-.109.053-.135-.035l-.095-.51-.087.52-.082.039-.123-.074-.06.11-.086.01-.06.147c-.039-.114-.259-.704-.353-.705l-.062.035-.071.246-.078.007-.189-.13c.106-.15.032-.16 0-.316l-.048-.036c-.076.144 0 .308-.147.4l-.072.013-.022-.087-.051-.034-.023.208-.22.045-.113.18-.275-.093c.015.107-.099.089-.118.137-.016.037-.057.37-.09.373-.06-.065-.14-.02-.18-.037-.088-.035-.243-.185-.317-.255-.101-.296-.208-.61-.218-.923l.048.012-.024-.376.048.097-.024-.218c.08-.243.187-.592.375-.754.073-.064.252-.138.328-.182.032-.018.061-.105.11-.134.06-.036.12-.038.207-.096.072.136.27.007.268.17.106-.022.25.007.279.121l.096-.065c.08.036.158.028.159.138L4.62 8.2l.084-.208-.048-.06.003-.361.166-.028.065-.796.227-.054v.049l-.154.003z"/>
    <path fill="#c1c4f7" d="M15.316 7.932c.012.016.071.157.079.163.028.022.228.083.239.091.02.017.015.07.03.078.08.051.164.112.255.109l.065.167.111.01c.014.082.149.175.164.224.032.11.006.321.03.431.027.127.207.224.12.378l-.049-.097c-.033.004-.042.033-.047.062-.05.289.013.645-.029.942l-.045.028-.06-.11-.074.218-.084.025-.012-.29-.098.411-.202.053c-.02.133-.05.106-.152.159l-.047.153c-.142-.058-.227-.045-.35.049l-.193-.05-.052.098c-.1-.06-.244-.037-.338.027-.037.024-.034.067-.038.07q-.074.06-.145.122l-.182-.146c-.036.026-.05.091-.086.11-.041.021-.392.055-.413.07-.022.016-.047.152-.144.135l-.038-.072-.077.122-.21-.051-.453.293-.049-.097c-.017.238-.155.13-.274.146-.017.002-.018.045-.034.048-.084.01-.215-.019-.284.004-.052.017-.015.131-.171.02l-.074.123-.098-.098-.097.073-.085-.073-.037.097-.133-.073-.023.112c-.074-.031-.157.035-.184.034-.034 0-.181-.096-.217-.122-.059.14-.184.051-.304.098v-.073c-.101.017-.091.176-.207.049l-.037.096-.073-.01-.048-.11-.085.096-.097-.072-.073.12-.133-.072-.061.121-.085-.097c.007-.035-.015-.066-.024-.097l.324.027.04-.1c.033 0 .076-.017.12 0 .008-.032.02-.064.026-.097.083-.01.042.171.11.195.01.004.062.008.06-.015l.037-.155.074.074.12-.05.073.042.096-.067.11.097.037-.145c.052-.025.05.091.06.097.01.005.135-.039.194.024v-.121l.17.097v-.098c.061.026.167-.028.205-.024.01.001.037.085.16.034l.06.088.097-.218.12.122c.075-.203.284-.085.39-.22l.037.073.085-.096.072.048.086-.17.108.12.061-.206.268-.048.048-.134.087.072c.198-.004.118-.18.192-.29l.098.315.06-.315.146.097.06-.194.037.17.11-.097.072.096.059-.228.061-.015.123.219.085-.51.049.036.037.329.085-.218.206-.025.048.072a.3.3 0 0 0 .06-.084v-.352c.108-.002.005.269.146.266l.038-.193.107.023.062-.266.097.195.134-.292.145.096c.057-.456.076-.926.013-1.384l-.11.025-.024-.389-.07.04c-.016.047.021.08.021.094v.425l-.048-.037-.049-.522c-.007-.074.003-.303-.003-.323-.015-.048-.085-.058-.114-.108-.034-.057 0-.097-.004-.127v-.025c.012.01.042.016.048.025"/>
    <path fill="#edecfc" d="M5.991 5.285h.292v.024c-.104.007-.212-.006-.316 0l.007.285-.299.055-.024.34c.105-.014.146-.116.22-.181.078-.07.245-.094.217-.28.1-.007.06-.005.072.06.03.16.037.455.052.632.007.09-.083.21.07.23l.05-.316.048.243.105-.026c.066.116.114.097.186.002.071.144-.11.273-.122.327-.01.055-.017.347.061.348l.085-.044v.377c0 .14.045.314.054.456l.092.066v.219l-.097-.012c.052.115-.031.29.097.352v.048l-.145-.049-.037.097-.085-.036v.134l.084-.049.038.267.145-.121c.004.032-.008.067.01.098.03.037.077.018.112.023.042.087-.049.13-.05.138-.01.1.081.29.034.406l.022.059c.017.015.06 0 .066.004.04.031.09.066.073.122-.025.06.018.192 0 .267-.141-.012-.034-.186-.155-.22l-.072-.021-.053.07c.004.153-.036.328-.038.474 0 .096.055.193.05.266-.005.08-.1.26-.083.379-.086.117-.112-.337-.11-.376.007-.13.078-.2.092-.273.04-.215.055-.491-.056-.687l-.036.17-.069-.041-.053-1.04-.048-.037a5.5 5.5 0 0 0-.037.936c.002.032.06.069.062.145.001.071-.058.139-.05.213l.195.042v.107l-.194-.01v.073l.074.013-.002.702-.072.001v-.388H6.38c.026.136.123.346-.073.4l-.073-.776c-.096.318-.05.64-.073.97-.09-.055-.057-.206-.078-.298-.047-.21-.033-.154-.04-.369-.008-.203-.05-.412-.028-.62-.038-.023-.093.086-.097.098l.06-.923.037-.024.073.801.059-.512.113-.107a1.8 1.8 0 0 1 .053-.844c.011-.04.067-.059.067-.103 0-.04-.07-.079-.047-.168l.06-.015.048.146.059-.037-.023-.618-.073.194-.109-.073-.037.122-.097-.68-.233.07-.053-.04.015-.694-.069-.04-.048.46-.097-.024c.056-.117.105-.249-.074-.256l-.496.573c-.022.115-.076.22-.105.333-.025.102.042.287-.127.249v-.049c.175-.17-.043-.584.265-.657.026-.033-.022-.088-.022-.095v-.049c-.002-.087-.02-.247.024-.316l.048.34.124-.217.096-.001c.014-.014-.024-.14-.025-.17-.002-.07-.013-.295.012-.34l.203-.052.032-.309.287-.028.024-.3zm.704 2.914c.017-.074.066-.197-.024-.243.011.073-.02.109-.066.157zm-.46 1.675.122-.229-.038-.305c-.034-.055-.085.055-.085.06z"/>
    <path fill="#c3c8f9" d="m8.808 3.852-.048-.097.254-.025.025.073c.081.017.056-.063.12-.075.098-.018.558-.004.683 0 .057.003.084.05.12.052.014 0 .002-.049.046-.052.379-.023.784.023 1.165 0 .024.01.029.11.053.15.015.024.033-.003.035-.002.136.096.294.03.461.048v.178l.607.041.025.17c.01.019.18.088.106.121l-.083.012v.074c.144.002.256-.064.354.084l.01.282.076-.003.024.085h.07l.001-.169h.073l-.002.134.16.01.095.199.149.02.034.16.099-.013-.025-.073.07.028.064.263.072-.193.073.217.104-.077-.017-.25-.266-.052c-.004-.017.022-.031.021-.033l.281.071.034.258.29.039.038.313.245.046.01.279.098.038c-.028 0-.102-.018-.097.024h.243l.025.365.023-.025.198.039.02.52.195.024-.17.024h.17c.007.23-.009.463 0 .694.002.046-.025.097.049.084.004.03-.03.07.004.127.03.05.1.06.114.108.006.02-.004.249.003.323l-.075-.143-.131.045-.134-1.092-.048.036.024 1.057c-.14-.117-.046-.371-.073-.534.005-.137-.019-.315-.024-.462-.005-.131-.032-.269-.001-.398l-.06-.063-.036.583-.049-.036-.061-.498-.065.444-.092-.007c-.003-.057.002-.114 0-.17-.004-.113.002-.228 0-.34l-.181-.05-.062-.46-.121.267-.06-.511c-.04-.055-.07.014-.1.015-.047.003-.054-.062-.156.059-.121-.151-.132-.272-.146-.462-.041-.005-.047.371-.122.28l-.06-.304-.134-.024-.049-.267-.12.097-.05-.267-.109.072-.11-.218-.086.023-.083-.169h-.073l-.015.12-.155-.023.146-.109-.29-.072-.173-.17-.012-.087.111-.084c-.113-.062-.264-.025-.37-.068-.119-.047-.181-.214-.344-.14l-.079-.165c-.141-.023-.29.058-.361-.1l-.133.097.05-.086-.051-.096c-.084-.063-.223-.016-.27-.023-.042-.006-.044-.063-.106-.086-.112-.04-1.232-.06-1.408-.051-.057.002-.23.052-.182.147h-.05l-.023-.11c-.073-.015-.145-.034-.22-.035"/>
    <path fill="#e7e6fa" d="m2.397 9.146.024.218-.048-.097.024.376-.048-.012c.01.312.117.627.218.923.002.005-.03.041-.024.057.004.012.116.198.125.207.004.004.048-.018.078.005.088.068.247.235.365.21.05-.05.22-.192.275-.208.135-.038.21.13.29-.127l.333.05.079-.12.204.037.06-.11.121.12.098-.169.267.363c.086-.06-.065-.208.084-.218a.57.57 0 0 0 .197.35c.164.105.104.067.235.186.023.02.328.223.348.23.093.03.242-.027.35.085l.049-.243.06.218.085-.024.037-.195.156-.024.086.097.025-.267.227.119.063-.156.05-.035c-.032.047.053.312.12.266l.11-.777.096-.024.123.073c.063-.083.019-.139-.06-.182l.075-.17-.077-.169.075-.099c.118.038.144-.073.193.013l.024-.049v.098l.243-.05v.17l-.072-.048-.094.136.082.18.036-.194.45-.003.06.075-.122-.013-.01.184-.123.073-.012-.134-.049-.037c.038.12-.079.175-.109.245-.055.13-.057.308-.096.437-.016.053-.084.091-.102.167-.017.078.055.17-.057.171l-.005-.2-.092-.067c0 .162-.012.325-.025.486v.024l-.145-.097-.097.121-.097-.12c0 .092-.074.215-.168.23-.043.008-.08-.042-.135-.037-.04.004-.202.114-.249.117-.13.008-.439-.068-.58-.115a2.5 2.5 0 0 1-.683-.373c-.035-.027-.072-.068-.145-.122-.27-.197-.14-.066-.378-.12-.064-.015-.15-.11-.206-.136-.052-.023-.112.053-.188-.096-.174.185-.422.078-.63.118-.116.022-.187.184-.318.053-.118.136-.315.064-.473.116-.028-.041-.032-.11-.097-.097l.048.072-.085-.073-.06.073c-.031-.033-.201-.182-.208-.194-.022-.04.016-.077.001-.12-.007-.023-.067-.07-.086-.11-.25-.522-.273-.976-.096-1.518m5.098.876-.118.037.083.179a.21.21 0 0 0 .035-.216"/>
    <path fill="#b7baf3" d="m16.264 7.859-.56.024c-.05-.002-.108-.01-.145.037l.073.012-.073.024.074.024-.025.048a.48.48 0 0 1 .337.064c.079.057.035.167.174.119l.108.133.048-.072.098.141.096-.044.244.436.036-.12.06.025.061.813.05.036v-.51c.072-.013.037.02.05.056.08.22.035.574.025.808l-.051.034c-.033-.046.016-.283-.073-.267v.425c0 .035-.027.231-.097.206.009-.083.084-.246-.05-.267v.377c0 .012-.046.239-.053.25-.014.019-.07.014-.086.035-.027.036-.046.135-.079.154-.031.017-.067-.027-.134.008-.052.027-.142.177-.163.19-.026.015-.195.034-.213.046-.044.028-.057.099-.097.119-.026.013-.065-.013-.095 0-.238.102-.442.185-.707.169l-.05-.081c-.1-.026-.13.008-.168.093-.032-.006-.119-.069-.145-.048l.048.097c-.069-.027-.087-.04-.146-.073-.036-.02-.044-.015-.072-.024-.007-.002-.015-.02-.025-.025.004-.003.001-.046.038-.07.094-.063.239-.088.338-.027l.052-.099.192.05c.124-.093.209-.106.351-.048l.047-.153c.102-.053.132-.026.152-.159l.202-.053.098-.412.012.291.084-.025.074-.217.06.11.045-.03c.042-.296-.02-.652.03-.941.004-.03.013-.058.046-.062l.049.097c.087-.154-.093-.251-.12-.378-.024-.11.002-.32-.03-.43-.015-.05-.15-.143-.164-.224l-.11-.011-.066-.167c-.091.003-.176-.058-.255-.109-.015-.009-.01-.061-.03-.078-.01-.008-.211-.069-.24-.091-.007-.006-.066-.147-.078-.163.023-.051.038-.044.084-.05.256-.037.612-.091.864-.023m.29 1.918c0-.113.072-.256-.047-.34l-.011.172-.11.023-.025.242.109-.145z"/>
    <path fill="#dfdffb" d="M7.084 4.58c.002.008.068.025.048.073l-.377.023-.01.244c.11.01.186-.06.265-.086.036-.012.08.018.123.004.059-.018.093-.152.195-.077.034.024.012.146.083.135l.074-.171.352.05-.243.035-.024.086.874.024-.016.076c-.07.048-.557-.004-.567.058-.02.125.207-.022.244.048l.036.134.073-.099.23.026c.073.214.058.437.013.657l-.184.169-.072-.049a.2.2 0 0 1-.024.073c-.048.07-.09.084-.049.194l-.182.001c-.043-.004-.046.035-.06.048-.02.018-.018.067-.04.074l-.252-.001c.016-.044.046-.088.047-.136 0-.047-.04-.614-.095-.568L7.522 6l-.05.036L7.4 5.48l-.292.014-.048-.281-.106.046-.077-.07-.168.05-.027-.077-.226.005-.123.155c-.027.007-.044-.013-.05-.012v-.024l.049-.016.033-.327.355-.022c-.048-.044-.179-.026-.243-.024l.219-.024.022-.232c.07-.049.295.042.366-.06"/>
    <path fill="#dbdbf9" d="m2.786 11.089.06-.074.085.073-.048-.072c.065-.013.07.056.097.097.006.01-.002.047.022.061.1-.018.225.097.235.01.107.073.176-.038.22-.043.03-.003.065.046.117.047.058.002.1-.047.148-.05.064-.004.147.049.241.05.088 0 .225-.064.268-.065.14-.002.513.11.656.113.134.002.204-.137.327.035.03.041.04.121.05.132.018.021.381.226.46.268.088.048.658.319.715.317.014 0 .005-.053.049-.052.054 0 .096.044.128.046.048.003.09-.022.139-.02.178.009.394.103.547-.024l.049.073.013-.145c.065-.008.048.086.06.121.017.05.013.109.06.145.085-.13.216-.093.34-.048l.025-.218.121.121.133-.136c.092.032.15-.024.203-.03.013 0 .041.043.073.04.173-.015.138-.15.186-.178l.073.027.11-.135.05.059a.7.7 0 0 0-.014.183l-.06-.072-.187.238-.274.002-.013.075c-.123-.067-.152.053-.262.068-.092.013-.185-.04-.284-.02-.05.01-.07.056-.087.06-.16.041-.328-.02-.533-.011-.058.003-.185.046-.243.049-.163.007-.19-.08-.233-.092-.047-.013-.185.011-.253-.03l-.024.049c-.142-.052-.457-.114-.59-.193-.036-.021-.043-.097-.083-.124-.045-.031-.14-.035-.194-.067-.186-.11-.21-.233-.323-.393-.005-.008.015-.047-.014-.05-.074 0-.14.026-.215.027-.454.005-.884.017-1.331.005-.086-.002-.123.05-.25-.033-.105.108-.071.037-.12.039-.052 0-.104.02-.158.012-.062-.03-.216-.212-.267-.268"/>
    <path fill="#a8abea" d="M16.725 8.102c.07.048.193.116.195.194l.023-.024c.057.022.098.029.146.072-.059.069.075.146.106.194.016.024 0 .17.064.122l.243.243v.024c-.002.036-.007.12 0 .146l-.024.012-.025-.158-.036.049-.15-.216-.056.01c.045.072.07.166.09.248.077.294.153.652.147.966-.002.123-.047.253-.043.376l-.097-.048c.039.186-.122.467-.27.567-.073.05-.151.05-.205.087-.17.115-.085.244-.424.341-.164.047-.313.06-.485.049.063-.044.309-.15.408-.19.105-.042.182-.057.293-.14.121-.089.538-.484.56-.607.013-.073-.016-.175.005-.238.011-.033.065-.032.07-.056.009-.034.006-.643 0-.677-.02-.123-.113-.33-.144-.463-.024-.104-.028-.24-.051-.35l-.097.122-.097-.328c-.09-.057-.002.125-.073.134l-.026-.145h-.096l.014-.148-.222-.02-.107-.21c-.1.033-.284.05-.373-.01-.037-.024-.018-.086-.07-.107a3 3 0 0 0-.213-.04l.559-.024c.108.029.36.174.46.243"/>
    <path fill="#cdcef8" d="m10.411 11.987-.061-.17c-.07-.003-.03.126-.036.17-.005.033-.018.065-.026.096-.044-.016-.087 0-.12.001-.117.001-.128-.039-.157-.04-.043-.001-.32.087-.39.088-.03 0-.052-.027-.072-.047l-.061.193-.145-.12v.12c-.046.007-.088-.028-.133-.023-.116.012-.2.04-.333.052-.085.008-.155.053-.239.069-.134.025-.207.08-.309-.021l-.103.045-.037-.073c-.08.067-.062.035-.158.024-.073-.008-.126-.035-.158-.039-.015-.001-.05.045-.096.04-.011 0-.012-.048-.03-.05-.268-.024-.563.058-.819-.073l-.063.074c-.007-.002-.016.001-.024 0v-.097c.058-.003.185-.046.243-.049-.011.06.026.054.067.066.156.044.734.053.915.03.058-.008.1-.086.183-.023l.013-.074h.085v.082l.215-.012.1-.117.012.145.038-.097.144.024v-.072l.134.049.073-.074.085.073v-.146l.158.122.037-.17.121.11.06-.208.134.073.146-.267c.11-.017.088.21.097.219l.071-.002.026-.265h.073l.036.315.086-.315.036.121.097-.073c.022-.029.005-.073.012-.097.073-.047.039-.017.05.035.027.129.027.247.023.378"/>
    <path fill="#bec4f8" d="M12.354 4.313h.388l.039.266c.017.003.031-.023.034-.023.125.003.253-.016.375.021l.054.248.345.026c.045.092.023.192.028.288 0 .002-.026.016-.022.033l.266.051.017.25-.104.078-.072-.217-.073.193-.063-.263-.07-.028.024.073-.098.014-.035-.161-.149-.02-.094-.2-.161-.009.002-.134h-.073v.17l-.071-.001-.024-.085-.075.003-.011-.282c-.098-.148-.21-.082-.353-.084v-.074l.082-.012c.075-.033-.096-.102-.106-.12"/>
    <path fill="#e8ebfc" d="m4.655 7.932.05.06-.085.208-.401.144c0-.11-.079-.102-.159-.138l-.096.065c-.03-.114-.173-.143-.279-.12.002-.164-.196-.035-.268-.17.006-.005-.007-.063.097-.086.195-.043.424-.05.617-.061.05-.003.097-.043.149-.047.099.013.039.105.131.134a.5.5 0 0 0 .244.01"/>
    <path fill="#d0cff5" d="M3.053 11.356c.054.008.106-.011.159-.012.048-.002.014.07.12-.04.126.084.163.031.249.034.447.012.877 0 1.33-.005.075-.001.142-.027.216-.028.03.004.009.043.014.05-.21.02-.405.096-.607.146l-.316-.073v.073c-.173-.088-.288-.025-.453-.009-.067.007-.069-.043-.14.034l-.195-.123-.062.05c.01-.021.288.098.146.097-.127-.047-.21-.129-.29-.16-.054-.02-.098 0-.171-.034"/>
    <path fill="#d6dbf4" d="m8.687 3.876.04-.19h2.579l.004.19h.437l.028.215.579.004.04.172.374.032.047.257c-.003 0-.017.026-.034.023l-.039-.266h-.388l-.024-.17-.609-.04.002-.179c-.168-.017-.326.048-.462-.048l-.014-.171H8.843c-.127-.015-.113.072-.108.171z"/>
    <path fill="#a9a8de" d="M8.225 12.448c.084.007.135.02.243.025.327.013.658.043.988.04.243-.001.634-.003.846-.065.07-.02.044.046.096.051.149.017.397-.03.572-.026.069 0 .135.025.218.024a.2.2 0 0 1-.121.049 6 6 0 0 1-.349 0c-.021-.005-.014-.046-.017-.047l-.082.049c-.613-.023-1.224.027-1.835.022-.118-.001-.247.01-.364 0-.162-.014-.385-.074-.559-.097h-.024c.093-.059.223-.007.328.002.029.002.057-.027.06-.027"/>
    <path fill="#aaa9e3" d="M13.69 12.06c-.152.115-.317.098-.438.218-.178.037-.393.061-.583.098v-.049q-.03-.002-.06 0c-.438.044-1.004.166-1.421.17-.083 0-.15-.023-.219-.024.064-.096.11-.002.158-.001.028 0 .164-.067.218-.073.166-.016.337-.03.499-.048.016-.001.032.002.048 0 .38-.04.755-.061 1.131-.122.047-.008.121.025.129.022.004-.002.013-.057.057-.076.127-.052.272-.089.406-.117.004-.005-.024-.045-.023-.047.003-.003.066-.01.06-.048z"/>
    <path fill="#aaaae4" d="m16.41 11.307-.212.112c-.183-.026-.328.099-.5.062l-.09.093c-.116 0-.204.017-.316-.024l.024.073c-.05-.011-.117-.01-.17-.024-.08-.024-.266-.108-.364-.146l-.049-.097c.027-.02.114.042.146.048.044.009.426.094.45.09.032-.006.048-.065.096-.066.034 0 .144.066.232.038.089-.027.082-.135.203-.04.03-.003.049-.06.064-.07.172.011.32-.002.485-.049"/>
    <path fill="#c8cbf9" d="M9.051 3.997c-.122.002-.257.03-.378.051-.084-.097-.051-.004-.109.011-.073.02-.136-.033-.21.057-.021.002-.102-.064-.104-.07-.011-.022.021-.1-.025-.121.027-.083.366-.046.462-.049h.048c.067 0 .07-.024.073-.024.075 0 .147.02.22.035z"/>
    <path fill="#9493cf" d="M11.188 12.497c.417-.004.983-.126 1.422-.17q.03-.002.06 0v.049c-.026.005-.076.045-.098.048-.002 0-.026-.002-.048 0-.092.01-.21-.028-.292.024-.234.01-.468.073-.704.074l.049.024v.024l-.51.024v-.048a.2.2 0 0 0 .121-.049"/>
    <path fill="#c4c2ee" d="M3.514 11.55c.142 0-.137-.118-.145-.098l.061-.05.195.125c.071-.078.073-.028.14-.035.165-.017.28-.079.453.01v-.074l.316.073c-.383.095-.628.194-1.02.049"/>
    <path fill="#d7d9fb" d="M8.25 4.046c-.02.045-.062.038-.098.073l-.472-.002c-.031.009-.005.063-.013.075-.103.148-.353.032-.512.083l-.022.33.086-.024c-.022-.325.174-.025.205-.05l.085-.167.334.026.115.166.085-.315.063.216.323-.017.079.117.313-.002-.003.073h-.35c-.022.206.438-.004.413.195l-.146.012.017.056c.142.014.288.022.43.027.127.004.245.014.373.02.088.004.562-.053.564.043l-.923.047-.023.086.133-.05.145.075.013.218.066-.04.019-.178.095-.023c.078.046-.01.108-.012.181-.01.286.5-.094.256.303l-.147-.097c-.142.095-.263-.05-.343.122l-.235-.046c-.066.115-.117.088-.234.105-.049.027.001.073 0 .086-.004.08-.012.163 0 .243h-.752A.2.2 0 0 0 8.2 5.94l.072.049.184-.17c.045-.22.06-.442-.013-.656l-.23-.026-.073.099-.036-.134c-.037-.07-.264.077-.244-.048.01-.062.497-.01.567-.058l.016-.076-.874-.024.023-.086.244-.035-.352-.05-.074.17c-.071.011-.05-.11-.083-.134-.102-.075-.136.06-.195.077-.043.013-.087-.016-.123-.004-.079.025-.154.096-.266.086l.01-.244.378-.023c.02-.048-.046-.065-.048-.073-.01-.045-.009-.308.023-.329l.511-.035.04-.142.527-.007.04-.142c.046.02.014.1.025.121"/>
    <path fill="#cac8ed" d="m6.865 12.303.064-.074c.255.131.55.05.818.073.018.002.019.05.03.05.047.005.08-.041.096-.04.032.004.085.031.158.04l-.073.048c-.282-.039-.603-.02-.874-.049-.095-.01-.149-.036-.219-.048"/>
    <path fill="#e3e6f7" d="M5.384 6.329c.001.03.04.156.025.17l-.096.001-.124.217-.048-.34z"/>
    <path fill="#b4b3dc" d="M7.958 12.4c.078.01.178.064.267.048-.003 0-.031.029-.06.027-.105-.009-.235-.06-.328-.002l-.17-.025c-.024-.003-.05.004-.073 0-.031-.004-.066.005-.097 0-.068-.01-.167-.034-.243-.048-.042-.008-.069-.018-.121-.024a.1.1 0 0 1-.049-.025c.27.03.591.01.874.049"/>
    <path fill="#cac8ed" d="m6.331 12.133.024-.049c.068.041.206.017.253.03.043.012.07.099.233.092v.097c-.094-.017-.313-.038-.375-.054-.008-.002-.084-.098-.135-.116"/>
    <path fill="#e5e6fb" d="M6.477 4.896c.064-.002.195-.02.243.024l-.355.022-.033.327-.05.016h-.29l.29-.025.025-.364c.056-.001.113.002.17 0"/>
    <path fill="#dadefc" d="M15.22 7.13c.038.26.02.515.048.777v.025c-.074.013-.047-.038-.049-.084-.009-.23.007-.463 0-.694h-.17z"/>
    <path fill="#dde1fc" d="M14.612 6.183c.046-.001.158-.013.184.023l.01.341-.023.025-.025-.365h-.243c-.005-.042.069-.023.097-.024"/>
    <path fill="#b9bce0" d="m17.235 8.514.024.146c-.064.047-.048-.098-.064-.122-.03-.048-.165-.125-.106-.194.046.042.083.11.146.17"/>
    <path fill="#c2c4eb" d="m16.725 8.102.19.052.029.118-.024.024c-.002-.078-.124-.146-.195-.194"/>
    <path fill="#edebfb" d="M5.918 9.753c.004-.012.059-.12.097-.097-.021.207.02.416.027.619.008.215-.006.16.041.37.021.091-.013.242.078.298.023-.33-.023-.653.073-.971l.073.776c.196-.054.1-.264.073-.4h.073v.388h.072l.002-.703-.074-.013v-.073l.194.01V9.85l-.196-.042c-.007-.074.052-.142.051-.213-.001-.076-.06-.113-.062-.145a5.4 5.4 0 0 1 .037-.936l.048.036.053 1.04.069.041.036-.169c.11.196.096.472.056.687-.014.073-.085.144-.092.273-.002.039.024.493.11.376-.016-.118.078-.299.083-.379.005-.073-.05-.17-.05-.266.002-.146.042-.32.038-.474l.053-.07.072.02c.121.035.014.209.155.22.018-.074-.025-.206 0-.266a.5.5 0 0 1 .061-.073l.081.09-.018.137.05.035c.008 0 .016-.02.02-.02.081.004.163-.001.243 0 .039.061.096.029.05.122l.231-.002.06.075c-.01.04-.042.076-.022.13.017.046.055.042.094.04h.486l.024.17c0 .01-.038.041 0 .049.009.027.036.022.059.025.541.061 1.362.004 1.933-.001a3 3 0 0 0 .412-.024h.025c.028-.006.054-.058.048.011l-.084.039q-.42-.003-.838-.002a43 43 0 0 1-.656 0c-.25-.002-.504.012-.753 0-.069-.003-.174.021-.222-.035l.003-.183h-.121v.073l-.06-.076-.45.003-.036.194-.082-.18.094-.136.072.049v-.17l-.242.049v-.098l-.025.049c-.049-.086-.075.025-.193-.013l-.075.1.077.168-.075.17c.079.043.123.1.06.182l-.123-.073-.096.024-.11.777c-.067.046-.152-.218-.12-.266l-.05.035-.063.156-.227-.119-.025.267-.086-.097-.156.024-.036.195-.085.024-.061-.218-.05.242c-.107-.111-.256-.054-.35-.085a6 6 0 0 1-.347-.23c-.13-.118-.07-.08-.235-.184a.56.56 0 0 1-.196-.35c-.15.01.001.157-.085.217l-.267-.363-.098.17-.12-.121-.06.11-.205-.036-.079.118-.333-.05c-.08.258-.155.09-.29.128-.055.016-.225.158-.275.209-.118.024-.277-.143-.365-.211-.03-.023-.074-.001-.078-.005a3 3 0 0 1-.125-.206c-.005-.017.026-.053.024-.058.074.07.229.22.317.255.04.016.12-.028.18.037.033-.003.074-.336.09-.373.02-.048.133-.03.118-.137l.275.094.113-.181.22-.045.023-.208.051.034.022.087.072-.012c.148-.093.072-.257.147-.4l.049.035c.03.156.105.166 0 .317l.188.129.078-.007.07-.246.064-.035c.093 0 .313.59.352.705l.06-.148.087-.01.06-.11.122.075.082-.04.087-.52.095.511c.027.088.135.139.135.035v-.364c0-.024.04-.097.03-.14l.067-.042c.077.052-.077.42.049.486.058-.182-.008-.404.048-.583"/>
    <path fill="#e3e6f7" d="M5.117 6.742c0 .007.048.062.022.095-.308.073-.09.487-.265.657l.089-.75z"/>
    <path fill="#c7cbfa" d="m14.564 7.422.092.007.065-.444.061.498.049.036.036-.583.06.063c-.03.13-.004.267 0 .398l-.074.085.006.554.069.041c-.027-.07.022-.172.024-.218.027.163-.067.417.073.534L15 7.336l.048-.036.134 1.092.13-.045.076.143.05.522.047.037v-.425c0-.015-.037-.047-.022-.093l.07-.04.025.388.11-.025c.063.458.044.928-.013 1.384l-.145-.096-.134.292-.097-.195-.062.266-.107-.023-.038.194c-.141.002-.038-.269-.145-.268v.353a.3.3 0 0 1-.061.085l-.048-.073-.206.025-.085.217-.037-.328-.049-.035-.085.509-.123-.22-.061.016-.06.228-.072-.096-.109.096-.036-.17-.061.195-.146-.097-.06.315-.098-.315c-.074.11.006.286-.192.29l-.087-.072-.048.134-.268.048-.06.207-.11-.122-.085.17-.072-.047-.085.096-.036-.073c-.107.135-.316.017-.39.22l-.12-.122-.098.218-.06-.088c-.123.051-.15-.033-.16-.034-.038-.004-.144.05-.205.024v.098l-.17-.097v.121c-.06-.063-.185-.019-.194-.024s-.008-.123-.06-.097l-.037.145-.11-.097-.096.067-.073-.042-.12.05-.074-.075-.037.156c.002.024-.05.019-.06.015-.068-.024-.027-.206-.11-.195.007-.044-.033-.173.036-.17l.06.17h.062c.024-.035.005-.087.012-.121l.073-.038.06.135.061-.015c.004-.026-.006-.06 0-.082.008-.033-.01-.071.036-.097l.061.17.06-.025.013-.242.069.04.004.13h.072l.062-.22.07.149.147.021c.054-.063.148-.067.182-.085.088-.046.06-.145.268-.046l.049-.135c.109.001.085.143.115.212l.055.03.048-.354c.065.026.118-.03.153-.03.047 0 .052.11.155-.05l.153.022.086-.219.17.195.073-.462.097.29.085-.314.121.06.06-.23.04.241.072-.015.12-.226.12.17.062-.437.06.194.098-.194.073.315h.072l-.048-.923c.077.113.056.337.073.486.005.05.04.46.085.461l.073-.072.036.048.11-.51.109.51.085-.024.036-.631.097.437.049-.037v-.583c0-.014.035-.054.024-.084.166.015.02.414.097.46l.11-.242.036.219.054-.031.018-1.888-.084.073-.085-.097.024.69-.073.1-.045-.029c.005-.192-.013-.384-.018-.575-.01-.352-.041-.696-.058-1.06m.218.46c-.009-.112.01-.304-.072-.388l.024.353z"/>
    <path fill="#bdbff4" d="m9.828 12.254.085.097.061-.121.133.072.073-.12.097.072.085-.097.048.11.073.011.037-.096c.116.127.106-.032.207-.05v.074c.12-.047.245.042.303-.098.037.026.184.122.218.122.027 0 .11-.065.184-.034l.023-.112.133.073.038-.097.085.073.096-.073.098.098.074-.122c.157.11.12-.004.171-.021.069-.023.2.006.284-.005.016-.002.017-.045.034-.047.12-.016.257.092.275-.146l.048.097.452-.293.211.051.078-.122.037.072c.097.017.122-.119.144-.134s.372-.05.413-.071c.037-.019.05-.084.086-.11l.182.146c-.06.05-.12.057-.12.133l-.39.073-.05.134-.14-.021-.114.19-.06-.104c-.056-.08-.132.073-.098.129-.084.013-.165-.043-.25-.02-.03.009-.204.069-.235.081-.037.015-.078.101-.113.106-.027.005-.054-.038-.07-.036-.028.003-.047.043-.117.039-.076-.005-.118-.064-.186-.073.008.156-.133.086-.2.102-.119.027-.166.118-.31.02l-.064.095c-.073-.057-.108-.024-.184-.028-.018 0-.043-.038-.056-.037-.021 0-.044.057-.076.06a1 1 0 0 1-.263-.015c-.044.126-.218.015-.292-.052-.054.118-.08.025-.182.098-.026.018-.013.067-.073.049l-.085-.099-.05.075c-.123-.096-.126.003-.253.024v-.055l-.122.079-.036-.097-.077.098-.152-.023-.039.094-.072-.121-.06.018-.038.104-.06-.073-.089.07-.106-.046c.03-.017.067-.052.098-.073.157-.105.085-.017.154-.026.018-.002.06-.052.064-.07"/>
    <path fill="#b7b7ed" d="M14.564 11.356c-.09.121-.234.3-.353.388-.133.099-.347.14-.447.209-.035.024-.05.089-.075.107l-.036-.097c.005.037-.058.045-.06.048-.058.021-.121-.005-.175.007-.067.014-.321.082-.287.163l-.085-.048c-.234.143-.5.064-.775.1-.058.006-.133.049-.203.064-.058.012-.133-.06-.176.054-.016.002-.032-.001-.048 0-.065-.12-.097.008-.13-.002-.123-.114-.11.008-.148.019-.033.01-.193-.018-.242-.017-.079.003-.08.006-.172.005-.129-.003-.21.03-.328-.029.102-.073.128.02.182-.097.074.066.248.177.292.051.075.017.188.021.263.015.032-.002.055-.06.076-.06.012 0 .038.037.055.037.077.004.112-.029.185.028l.064-.095c.143.098.19.007.31-.02.067-.016.208.055.2-.102.068.009.11.068.185.073.07.004.09-.036.119-.04.014 0 .042.041.069.037.035-.005.076-.09.113-.106a6 6 0 0 1 .236-.08c.084-.024.165.032.25.019-.035-.056.041-.208.097-.13l.06.106.114-.191.14.02.05-.133.39-.073c0-.076.06-.082.12-.133l.145-.122c.01.006.018.023.025.025"/>
    <path fill="#c7cbfa" d="m10.168 12.084-.04.1-.324-.027c.01.031.03.062.024.097-.003.02-.046.069-.064.071-.069.009.003-.079-.154.026l-.085-.072-.051.074-.131-.05v.097c-.073.017-.026-.041-.084-.05-.13-.023-.13.117-.172 0a.62.62 0 0 1-.449.026c.084-.016.154-.061.239-.069.133-.011.217-.04.333-.052.045-.005.087.03.132.023v-.12l.146.12.06-.193c.02.02.044.048.074.047.069 0 .346-.09.389-.088.029.001.04.041.157.04"/>
    <path fill="#e5e6fb" d="M6.283 5.309c.006 0 .023.019.05.012l.123-.155.226-.005.027.077.168-.05.077.07.106-.046.048.28.292-.013.073.558.049-.036.024-.376c.055-.046.095.52.095.568-.001.048-.031.092-.047.135l.251.002c.023-.007.021-.056.04-.074h.025l-.025.097c-.105.014-.205.04-.315.024-.004.105.004.211 0 .316v.024h-.267l-.025.122-.012-.122-.012.098h-.17c0-.003-.039-.014-.038-.035.008-.194.054-.383-.01-.585l-.148-.1-.034-.228-.057.017-.029.214-.048.037c-.051-.22-.042-.495-.304-.559l-.012-.122-.316.073c.028.187-.139.212-.217.28-.074.066-.115.168-.22.182l.024-.34.299-.055-.007-.285c.104-.006.212.007.316 0"/>
    <path fill="#edebfb" d="m6.088 5.527.316-.073.012.122c.262.064.253.34.304.559l.048-.037.03-.214.056-.017.034.227.148.1c.064.203.018.392.01.586 0 .02.038.032.038.034-.001.03-.019.229-.073.195l-.097-.256.073-.157-.086-.023-.033-.162-.05-.034c-.04.145.009.292 0 .45-.02.34-.075.309.023.667-.04.042-.032.04-.026.085.014.114.024.185.026.304l-.092-.066c-.009-.142-.053-.316-.053-.456v-.377l-.085.044c-.079 0-.073-.293-.061-.348.01-.054.192-.183.121-.327-.072.095-.12.114-.186-.002l-.105.026-.048-.243-.05.316c-.153-.02-.063-.14-.07-.23-.015-.177-.022-.472-.051-.632-.012-.065.026-.067-.073-.06"/>
    <path fill="#f3f6fa" d="M6.89 8.466c.001.113-.002.227 0 .34h.048c.03.039.102.026.146.024l.024.631c.057.065.192-.026.17.073-.007.058-.014.171.025.219-.005 0-.013.02-.02.02l-.051-.036.018-.137-.081-.09a.5.5 0 0 0-.06.073c.017-.056-.034-.09-.074-.122v-.607c-.023-.003-.05.004-.072 0-.035-.005-.081.014-.111-.023-.02-.03-.007-.066-.01-.098-.01-.075 0-.165 0-.243v-.049c-.003-.113 0-.226 0-.34v-.218c-.003-.12-.013-.19-.027-.304-.006-.046-.013-.043.026-.085.083.301-.03.66.049.972"/>
    <path fill="#f2f0fc" d="M6.841 8.49c.002.078-.008.168 0 .243l-.145.121-.038-.267-.084.049v-.134l.085.036.037-.097z"/>
    <path fill="#edebfb" d="M6.963 8.854c.022.004.049-.003.072 0v.607c-.006-.004-.049.01-.066-.004l-.022-.059c.047-.117-.045-.306-.034-.406.001-.008.092-.051.05-.138m-.729 1.02v-.473c0-.006.05-.116.085-.061l.038.305zm.607-1.772c.001.113-.002.226 0 .34-.128-.062-.045-.237-.097-.352z"/>
    <path fill="#f2f0fc" d="m6.695 8.199-.09-.086c.046-.048.077-.084.066-.157.09.046.041.169.024.243"/>
    <path fill="#cacefc" d="m11.334 4.532.17-.036-.073-.098c.107-.104.176-.06.122.083l.46.075-.036.073c-.118-.096-.117.003-.158.013-.064.013-.137-.038-.193.048.05.065.138.042.181-.012l-.012.17.177-.07.114.132c.313-.04.315.318.34.544l.085-.218.17.291.122-.193.097.242.109-.073.05.389.096-.195.098.146.12-.073.023.133-.144.073.066.057.201-.093.085.752.098-.363.194.461.04-.25.069-.041c-.03.221.092.411.17.607l.085-.043c.13.003.075.492.083.586.013.036.093-.014.1.1.002.02-.001.041 0 .061h-.098c-.001.08.002.162 0 .243l-.092.066.044 1.537.054-.03c.11-.26-.064-.524-.007-.785.01-.048.106-.076.093-.194l-.09-.05c.027-.134-.001-.263-.002-.398l.085-.024.06 1.19.05-.037V8.83l.048.243c-.022-.11.03-.226.026-.328-.001-.046-.014-.108-.075-.06-.04-.4-.066-.948-.047-1.352.003-.059.006-.08.072-.081.001.056-.003.113 0 .17.017.364.049.708.058 1.06.005.19.023.383.018.575l.045.028.073-.099-.024-.69.085.097.084-.073-.018 1.888-.054.03-.037-.218-.109.243c-.078-.047.07-.446-.097-.461.01.03-.024.07-.024.084v.583l-.049.037-.097-.437-.036.631-.085.024-.11-.51-.109.51-.036-.048-.073.072c-.045-.002-.08-.412-.085-.46l.042.163.055.03-.026-.96c-.042-.676.044-1.557-.106-2.223-.016-.07-.076-.134-.063-.217l-.085.024-.01.097.071.037-.119.102-.003.348-.036-.024c-.047-.093.003-.197-.01-.28-.008-.052-.043-.085-.048-.124-.025-.202.013-.5-.123-.64l-.025.315-.061-.024-.134-.826-.157.121-.148-.095-.058-.306h-.05l-.072.11c.001-.04.013-.104-.024-.134-.127-.015-.133-.12-.255-.036l-.025-.024c-.005-.152-.026-.202-.156-.28l.047-.072c-.109-.084-.246-.082-.266-.244l-.293-.047.049-.11-.388-.097c-.012-.01.026-.078.024-.097-.014-.104-.067-.16-.097-.219-.004-.006.003-.018 0-.024m2.695 3.035c-.059-.031-.069.175-.07.21a21 21 0 0 0 .093 2.087c.01.102-.037.263.05.326.028-.243-.03-.505-.025-.742.014-.636.043-.97-.046-1.628-.01-.082.004-.17-.002-.253m.73 2.04c-.007.086-.068.196.011.267l.058-.083z"/>
    <path fill="#c8cbf9" d="M9.1 3.997c-.048-.095.125-.145.182-.147.176-.009 1.296.01 1.408.051.062.023.064.08.107.086.046.006.185-.04.269.023l.05.096-.05.086.134-.097c.071.158.22.077.361.1l.08.165c.162-.074.224.092.343.14.106.043.257.006.37.068l-.111.084.012.088.172.169.29.072-.145.109.155.023.015-.12h.073l.083.169.087-.023.11.218.108-.072.05.267.12-.097.05.267.133.023.06.305c.075.091.08-.285.122-.28.014.19.025.311.146.462.102-.121.109-.056.157-.059.029-.001.058-.07.098-.015l.06.51.121-.266.063.46.18.05c.003.112-.003.227 0 .34-.065.002-.068.022-.07.081-.02.404.007.952.046 1.351.005.048-.003.098 0 .146v.498l-.048.036-.061-1.19-.085.025v-.146c.002-.08-.001-.162 0-.243h.097q.002-.03.001-.061c-.007-.114-.087-.064-.1-.1-.008-.094.046-.584-.083-.586l-.085.043c-.078-.196-.2-.386-.17-.607l-.069.04-.04.251-.195-.46-.097.362-.085-.752-.2.093-.067-.057.144-.074-.023-.132-.12.073-.098-.146-.097.195-.049-.389-.109.073-.097-.242-.121.193-.17-.29-.085.217c-.026-.226-.028-.584-.34-.544l-.115-.131-.177.068.012-.17c-.043.055-.132.078-.181.013.056-.086.13-.035.193-.048.041-.01.04-.11.158-.013l.037-.073-.461-.075c.054-.143-.015-.187-.122-.083l.073.098-.17.036c-.021-.039-.068-.065-.06-.147l-.13.015.018.092c-.16.133-.086-.082-.105-.107l-.136-.023-.011-.123-.105-.042-.758.01-.072-.055.022-.153c-.026-.014-.428.025-.496.025-.114-.001-.286-.029-.401-.027"/>
    <path fill="#ced0f9" d="M8.25 4.046c.002.006.083.072.104.07.074-.09.137-.038.21-.057.058-.015.025-.108.109-.01.12-.022.256-.05.378-.052H9.1c.115-.002.287.026.4.027.069 0 .47-.039.497-.025l-.022.153.071.054.759-.01.105.043.011.123.136.023c.019.025-.054.24.104.107l-.018-.092.13-.015c-.007.082.04.108.06.147.004.006-.003.018 0 .024l-.105-.023-.04.096.105-.005.04-.068c.031.06.084.115.098.219l-.12.002-.038.095-.052-.096c-.118.03-.223-.043-.342-.043-.09 0-.191.1-.31-.032l-.121.073-.014-.134.317-.011-.01-.075c-.16-.124-.278.123-.367-.071-.043.076-.15.068-.157.073l-.16-.047c-.146.158-.22-.018-.265-.02-.038 0-.252.054-.338.037-.032-.007-.057-.063-.075-.063-.014 0-.05.05-.082.056-.078.016-.207-.074-.27-.12l.036-.063.352-.072v-.072c-.36.014-.774.057-1.13.025-.053-.005-.1-.043-.157-.05.073-.033.022-.045.024-.048.036-.035.079-.028.098-.073m2.614.514-.003.091.23-.059z"/>
    <path fill="#bfc4f2" d="M8.735 3.876c-.005-.099-.019-.186.108-.171h2.404l.014.171c-.002-.001-.02.026-.035.002-.024-.04-.029-.14-.053-.15-.382.023-.786-.023-1.165 0-.044.003-.032.053-.047.052-.035-.002-.062-.049-.12-.051-.124-.005-.584-.019-.681 0-.065.011-.04.091-.121.074l-.025-.073-.254.025.048.097c-.004 0-.006.024-.073.024"/>
    <path fill="#cacefc" d="M14.928 7.397c.005.147.03.325.024.462-.002.046-.05.148-.024.218l-.069-.04-.006-.555z"/>
    <path fill="#dfdffb" d="m9.367 10.384.01.147c.089.033.153.03.16.145l.073-.146.074.01-.026.281-.073-.097-.133.291-.073-.072-.073.073-.085-.17-.048.16c-.125-.012-.164-.007-.232.107l-.108-.049-.028.167-.191-.02c.056.086-.014.062-.023.09-.04.131.012.231-.173.258l-.023.112-.072-.145c-.014.226-.287.34-.474.221-.07.16-.09.086-.177.124-.031.013-.002.12-.138.019l-.11.097c-.012-.035.005-.129-.06-.121l-.013.145-.049-.073c-.153.127-.369.033-.547.024-.048-.002-.09.023-.14.02-.03-.002-.073-.045-.127-.046-.044 0-.035.052-.048.052-.058.002-.628-.27-.716-.317.162-.038.284.098.408.139.263.085.613.062.879.08l.026-.097.083.048.053-.074.115.024.051-.096.061.015.036.107c.065-.063.03-.164.037-.243v-.024l.083-.023.074.071.085-.12c.01.046 0 .139.073.12l.073-.266.061.096.157-.072.085-.632c.032-.058.068.043.097.043.01 0 .04-.035.075-.04.088-.015.147.01.205-.112l-.073-.097c.031-.057.172-.01.146-.134.249.012.503-.002.753 0"/>
    <path fill="#e4e3fb" d="M2.98 11.113c.158-.052.355.02.473-.116.13.131.202-.03.317-.053.21-.04.457.067.63-.118.077.15.137.073.189.096.057.026.142.121.206.136.237.055.109-.077.378.12.073.054.11.095.145.122a2.5 2.5 0 0 0 .683.373c.141.047.45.123.58.115.047-.003.209-.113.25-.117.054-.005.091.045.134.038.094-.016.168-.139.168-.232l.097.121.097-.12.146.096c-.006.08.028.18-.037.243L7.4 11.71l-.061-.015-.051.096-.115-.024-.053.074-.083-.047-.026.096c-.267-.018-.616.005-.879-.08-.124-.041-.246-.177-.408-.139a8 8 0 0 1-.46-.268c-.01-.01-.02-.09-.05-.132-.123-.172-.194-.033-.327-.035-.143-.003-.516-.116-.656-.113-.043 0-.18.065-.268.065-.094-.001-.177-.054-.241-.05-.048.003-.09.052-.148.05-.052-.001-.087-.05-.116-.047-.045.005-.114.116-.22.043-.01.087-.136-.028-.236-.01-.024-.014-.016-.052-.022-.061m5.294-.874v-.073h.121l-.003.183c.047.056.153.032.222.035.026.124-.115.077-.146.134l.073.097c-.058.123-.117.097-.205.111-.035.006-.064.04-.075.04-.03 0-.065-.1-.097-.042l-.085.632-.157.072-.06-.097-.074.267c-.073.019-.063-.074-.073-.121l-.085.121-.074-.071-.083.023c.012-.16.023-.324.024-.486l.092.066.005.201c.112 0 .04-.093.057-.17s.086-.115.102-.168c.04-.13.04-.308.096-.437.03-.07.147-.126.11-.245l.048.037.012.134.123-.073.01-.184z"/>
    <path fill="#edebfb" d="M7.495 10.022c.03.068.019.16-.035.216l-.083-.179z"/>
    <path fill="#adb1ee" d="M15.705 7.883c.017 0 .199.034.213.04.052.021.033.083.07.108.089.06.273.042.373.009l.107.21.222.02-.014.147.096.001.026.145c.071-.01-.017-.19.073-.134l.097.328.097-.121c.023.108.027.245.051.35.031.132.123.339.145.462.005.034.008.643 0 .676-.006.025-.06.024-.07.057-.022.063.007.165-.006.238-.022.123-.439.518-.56.607-.111.083-.188.098-.293.14-.1.04-.345.146-.409.19-.014.01-.032.067-.063.07-.121-.095-.114.012-.202.04s-.2-.038-.233-.038c-.048 0-.064.06-.097.066-.023.004-.405-.081-.449-.09.038-.085.068-.119.168-.093l.05.081c.265.016.469-.067.707-.169.03-.013.07.013.095 0 .04-.02.053-.09.097-.12.018-.011.187-.03.213-.045.021-.013.11-.163.163-.19.067-.036.103.009.134-.008.033-.019.052-.118.08-.154.015-.02.071-.016.085-.036a3 3 0 0 0 .054-.25v-.376c.133.021.058.184.049.267.07.025.097-.17.097-.206V9.68c.09-.016.04.22.073.267l.05-.034c.01-.234.056-.588-.023-.808-.013-.037.02-.069-.052-.056v.51l-.049-.036-.061-.813-.06-.026-.036.121-.244-.436-.097.044-.097-.141-.048.072-.108-.133c-.139.048-.095-.062-.174-.12a.48.48 0 0 0-.337-.063l.024-.048-.073-.024.073-.024-.073-.012c.037-.047.094-.039.146-.037"/>
    <path fill="#c1c4f7" d="m16.555 9.777-.085-.048-.11.145.026-.242.11-.023.01-.172c.12.084.047.227.049.34"/>
    <path fill="#e5eaf8" d="M9.415 5.746c.49-.002.981.011 1.47.007l.059.225.508.039.026.18.293-.014c.014.014.022.042.048.049v.145l.171.012.048.22.097.035c-.03.013-.053.038-.097.025-.01-.005-.044.014-.05-.016l.001-.227-.217-.026-.001-.169-.342-.01-.022-.184-.496-.021-.039-.197-1.918-.025-.024.243-.753.025-.023.183-.244.01h-.025c.015-.012.018-.05.06-.047l.183-.001c-.041-.11.001-.125.049-.194h.753c-.013-.08-.005-.163 0-.243.152-.044.327-.024.485-.024"/>
    <path fill="#d4d7fc" d="M12.135 9.729c.003.027-.076.047.045.112l.004.106c.083.012.061-.084.086-.12.068-.1.197-.024.266-.122.172.234-.068.35-.072.582l-.083-.112-.051-.034c-.025.119-.001.227 0 .34v.243l-.195-.11c-.09.086-.194.138-.194.28l-.109-.117c-.14.043-.175.146-.158.287l-.048-.036-.038-.158-.108.073-.025-.146-.097.388-.11-.096-.072.145c-.088-.04-.017-.208-.109-.194l-.074.316-.048-.195-.085.146-.133-.146-.054.299-.068.041-.004-.226-.068-.04-.05.51-.048-.037-.024-.28-.055.031c-.022.034-.01.086-.018.115-.007.024.01.068-.012.097l-.097.073-.036-.121-.085.315-.037-.315h-.073l-.026.266-.07.001c-.01-.009.011-.236-.098-.219l-.146.267-.134-.073-.06.208-.121-.11-.037.17-.158-.121v.145l-.085-.073-.073.074-.133-.05v.073l-.145-.024-.038.097-.012-.145-.1.117-.216.012v-.081h-.084l-.012.073c-.084-.063-.126.015-.184.023-.18.023-.759.014-.915-.03-.04-.012-.078-.007-.067-.066.205-.01.374.052.533.012.018-.005.037-.05.087-.06.1-.02.192.032.284.02.11-.016.14-.136.262-.069l.013-.075.274-.002.187-.238.06.072c.003.045-.012.104.048.121l.025-.34.12.085.129-.012.127-.145.012.109.049.037c-.024-.209.164-.27.337-.246l.1-.265.082.027.052-.075.133.194.049-.34.12.194.025-.63-.145.072-.024-.219q.419-.002.838.002l.084-.039c.006-.069-.02-.017-.048-.011.002-.068-.026-.14.048-.17h.486c.002-.024-.002-.05 0-.073.009-.083-.01-.178.06-.243h.353l.013-.075h.204a.3.3 0 0 1 .026-.12c.02.017.046.05.048.074m-1.833.826c-.046 0-.062.21 0 .242l.057-.134zm.146.024c-.168.037.101.316.061.06-.005-.03-.025-.069-.061-.06"/>
    <path fill="#dbdcfb" d="m10.022 10.384.025.219.145-.073-.024.631-.121-.194-.049.34-.133-.194-.053.075-.08-.027-.101.265c-.173-.025-.36.037-.337.245l-.049-.036-.012-.11-.127.146-.13.012-.119-.085-.025.34c-.06-.017-.045-.076-.048-.12a.7.7 0 0 1 .014-.184l-.05-.06-.11.136-.073-.027c-.048.028-.013.163-.186.178-.032.003-.06-.04-.073-.04-.054.006-.11.062-.203.03l-.133.136-.12-.121-.026.218c-.124-.045-.255-.082-.34.048-.047-.036-.043-.095-.06-.145l.11-.097c.136.1.106-.006.138-.02.087-.037.106.037.177-.123.187.12.46.005.474-.221l.072.145.023-.112c.185-.027.133-.127.173-.258.009-.028.078-.004.023-.09l.191.02.028-.167.108.05c.068-.115.106-.12.232-.108l.048-.16.085.17.073-.073.073.072.133-.29.073.096.026-.28-.074-.011-.073.146c-.007-.114-.071-.112-.16-.145l-.01-.147q.327.003.655 0"/>
    <path fill="#a4a5e5" d="M16.41 11.307c.338-.098.253-.226.423-.341.054-.036.132-.037.205-.086.148-.1.309-.382.27-.568l.097.048c-.005-.123.041-.253.043-.376.006-.314-.07-.672-.146-.966a1 1 0 0 0-.09-.249l.056-.01.15.217.035-.049.025.158.024-.012c.074.26.2.337.146.656-.042.24-.034.405-.117.648-.014.04-.066.062.02.056-.085.252-.22.416-.316.656l-.048-.073-.037.072-.073-.072-.134.218-.097-.024c.023.122-.115.127-.204.073-.038.011-.04.1-.072.124-.03.021-.393.117-.44.12-.08.008-.15-.04-.237-.021-.08.017-.09.094-.104.094-.038-.001-.075-.027-.181-.026l.09-.093c.172.037.317-.088.5-.062z"/>
    <path fill="#ced1fb" d="m12.718 5.916.073-.11h.049l.058.306.148.095.158-.121.133.826.06.024.025-.316c.137.142.099.438.124.641.005.04.04.072.048.124.013.083-.037.187.01.28l.037.024.002-.348.12-.102-.073-.037.011-.097.085-.024c-.013.083.047.146.063.217.15.666.064 1.547.106 2.223l.026.96-.055-.03-.042-.164c-.017-.15.004-.373-.073-.486l.048.923h-.072l-.074-.315-.097.194-.06-.194-.061.437-.12-.17-.12.226-.074.015-.038-.24-.06.23-.122-.061-.085.315-.097-.29-.073.46-.17-.194-.086.219-.152-.022c-.104.16-.11.05-.155.05-.036 0-.09.056-.154.03l-.048.354-.055-.03c-.03-.07-.006-.21-.115-.212l-.049.135c-.208-.1-.18 0-.268.046-.034.018-.128.022-.182.085l-.147-.021-.07-.148-.062.218h-.072l-.004-.129-.069-.04-.012.242-.06.024-.062-.169c-.046.026-.028.064-.036.097l-.049.036-.048-.303c-.09.05-.08.18-.097.267-.007.034.012.086-.012.122l-.061-.001a1.5 1.5 0 0 0-.024-.378c-.01-.052.024-.082-.049-.035.009-.03-.004-.08.018-.115l.055-.03.024.28.049.035.049-.51.068.041.004.226.068-.041.054-.299.133.146.085-.146.048.195.074-.316c.092-.014.02.154.109.194l.073-.145.109.096.097-.388.025.146.108-.073.038.158.048.036c-.017-.141.018-.244.158-.287l.109.117c0-.142.105-.194.194-.28l.194.11v-.243l.07.258.052.034c.008-.071.087-.532.182-.51l.085.34c.05-.138.011-.396.053-.518.007-.022.142-.125.153-.186.064.131.053.288.086.424.009.037-.018.044.048.037l-.024-.923.048.036.097.401-.011-1.408.082.33.027 1.285.048.036v-.862c0-.051-.004-.148.037-.182.02.03.036.123.036.158v.413l.048.036c.005-.037.023-.072.026-.11.046-.761-.107-1.535-.123-2.27.15.1.043-.283.049-.34-.076.03-.043.132-.049.194l-.109-.559-.142.021-.085-.1.034-.114-.074-.049-.06.061-.062-.23-.054.212-.054.03c-.053-.17-.03-.343-.025-.51"/>
    <path fill="#c2c3ee" d="M9.61 12.351c-.031.02-.068.056-.098.073-.009.005-.004.039-.06.048-.085.015-.2-.044-.245-.046-.087-.004-.156.045-.215.047-.174.007-.35-.006-.524 0-.108-.005-.159-.018-.243-.025-.09.016-.19-.038-.267-.048l.073-.049c.096.01.079.043.158-.024l.037.073.103-.045c.102.101.175.046.31.02a.62.62 0 0 0 .448-.025c.042.117.043-.023.172 0 .058.009.011.067.083.05v-.097l.132.05.05-.074z"/>
    <path fill="#9e9ddb" d="M15.608 11.574c.106 0 .143.025.181.025.014 0 .025-.076.104-.093.087-.02.157.029.237.022.047-.004.41-.1.44-.121.032-.024.034-.113.072-.124.09.054.227.049.204-.073l.097.024.134-.218.073.072.037-.072.048.072c-.009.023.015.083-.023.11-.576.413-1.17.583-1.896.425l-.024-.073c.112.041.2.025.316.024"/>
    <path fill="#adaedb" d="M17.55 10.433c-.085.006-.033-.015-.019-.056.083-.243.075-.407.117-.648.063.23-.024.485-.097.704"/>
    <path fill="#b5b6ed" d="m9.512 12.424.106.046.088-.07.061.073.037-.104.06-.018.073.121.04-.094.15.024.078-.099.036.097.122-.08v.056c.127-.021.13-.12.254-.024l.05-.075.084.099c.06.018.047-.031.073-.049.119.06.2.026.328.029.091.002.094-.002.172-.005.05-.002.21.026.242.017.038-.011.025-.133.148-.02.033.01.065-.117.13.003-.162.018-.333.031-.5.048-.053.006-.188.073-.217.073-.047 0-.094-.095-.157 0-.175-.002-.423.044-.572.027-.052-.005-.026-.072-.096-.051-.212.062-.603.064-.846.066-.33.002-.661-.027-.988-.041.174-.006.35.007.524 0 .059-.002.128-.05.215-.047.045.002.16.06.245.046.056-.01.052-.043.06-.048m4.08-.413c-.001.002.027.042.023.047a2.4 2.4 0 0 0-.406.117c-.044.019-.053.074-.057.075-.008.004-.081-.029-.129-.021-.376.06-.751.082-1.13.122.042-.115.117-.042.175-.054.07-.015.145-.058.203-.065.275-.035.54.044.775-.1l.085.05c-.034-.082.22-.15.287-.164.054-.012.118.014.174-.007"/>
    <path fill="#d3d5fb" d="M8.128 4.167c.056.007.104.045.157.05.356.032.771-.011 1.13-.025v.072l-.352.072-.035.062c.062.047.19.137.269.121.032-.006.068-.057.082-.056.018 0 .043.056.075.063.086.017.3-.037.338-.036.046 0 .12.177.265.02l.16.046c-.007.005-.034.113-.121.098v.035l.16.228.095-.166.125.166c.123.011.243-.065.335.003l.086-.097v.183l-.316.072.292.07.085.233c.093-.013-.048-.142.048-.193.086-.046.076.113.085.12l.146-.037.048.098-.218.146.224-.008.134.084c-.014.193.122.175.079-.04h.072v.34l-.085-.097-.084.049-.06-.215-.304.009-.074-.158c-.093.056.058.142-.085.218l-.059-.04-.062-.179c-.043.096-.178.012-.109.17l-.28.073-.074-.12-.277.072-.037-.121-.103.167c-.065.021-.102-.05-.162-.047-.078.004-.104.103-.196-.017l-.11.09c-.158.001-.333-.019-.485.025 0-.013-.05-.058-.001-.086.117-.017.168.01.234-.105l.235.046c.08-.172.201-.027.343-.122l.147.097c.243-.397-.265-.017-.256-.303.002-.073.09-.135.012-.18l-.095.022-.019.179-.066.04-.013-.219-.145-.076-.133.051.023-.086.923-.047c-.002-.096-.476-.04-.564-.043-.127-.006-.246-.015-.373-.02a7 7 0 0 1-.43-.027l-.017-.056.146-.012c.025-.2-.435.011-.413-.194l.35-.001.003-.073-.313.002-.079-.117-.323.017-.063-.216-.085.315-.115-.166-.334-.026-.085.168c-.03.024-.227-.276-.205.049l-.086.023.022-.329c.16-.051.409.065.512-.083-.01.064.01.049.06.048.08-.001.302-.014.353-.073.015.003.032-.002.048 0m2.671 1.02-.093.065c.017.056.055.143.118.093z"/>
    <path fill="#c8cbf9" d="M8.153 4.119c-.003.003.048.015-.025.048-.015-.002-.033.003-.048 0-.094-.013-.182-.04-.281-.026-.039.006-.052.083-.132.05.008-.011-.018-.065.013-.074z"/>
    <path fill="#0a132e" d="M11.625 8.539c-.002.11 0 .216-.03.323l-.091.016-.05.39-.096-.025-.072.399c.05.003.231.243.097.183l.024.268-.016.05-.482-.002.036.025c-.074.03-.046.102-.048.17h-.025a1 1 0 0 0-.17-.049l.17-.06-.17-.11-.046.087-.124.034.022-.083c-.13-.12-.113.025-.131.035-.052.017-.027-.044-.052-.049-.145-.027-.386.058-.555-.024l-.06.073-.016-.075-.082.002.024-.121c.097-.008.205.011.3 0 .018-.003.015-.05.028-.05.06.004.067.089.17 0l.06.074.094-.087a.4.4 0 0 0 .028-.156c.057.01.098.046.155.05l.064-.086-.048-.036.133.072-.013-.17-.145.049.024-.365.548-.023.035-.025v-.364c.107-.018.218-.007.292-.025.005 0 .014-.033.03-.042.067-.037.202-.018.054-.176l-.06.072.002-.143zm-.583.752h-.449l-.037.243.087.002.108-.147.024.12.261-.078z"/>
    <path fill="#18213f" d="m8.128 9.729.098.12.024-.096.19.004.053.19c.113-.098.12.022.048.097l.121-.073c0 .04.034.126.027.209-.005.048-.091.026-.027.107a.3.3 0 0 1-.117-.004l-.052-.093c-.005-.022.003-.05 0-.073h-.024c.001.056-.004.114 0 .17l-.025-.17h-.486c.144-.007.308-.045.462-.024-.062-.048-.19-.022-.267-.024l-.075-.062.005-.093c.103-.057.053-.08.045-.185"/>
    <path fill="#242d4a" d="M7.594 9.291q-.002.049 0 .098c-.002.111-.038.222 0 .34.082-.068.21.066.234.072.018.004.059-.025.082-.024.03.002.082.04.133.026l.014-.073.071-.001c.008.105.058.128-.045.185l-.005.094.074.06c-.07-.002-.143.007-.214-.003l-.029-.19c-.044-.007-.018.046-.024.072l-.059-.075-.232.002c.047-.093-.01-.06-.049-.121-.027-.044-.004-.115-.072-.097.055-.133.034-.186.065-.336.012-.06-.003-.067.056-.029"/>
    <path fill="#080b1d" d="M8.492 10.19c.006.028-.009.068.011.098.032.043.747.023.864.023.402.003.817.019 1.214-.024.04.003.084-.005.121 0 .041.006.132.03.17.049a3 3 0 0 1-.412.024l-1.992-.024c-.038-.008 0-.04 0-.049-.003-.056.002-.114 0-.17h.024c.004.023-.004.051 0 .073"/>
    <path fill="#e4e7ed" d="M10.46 10.36c-.571.005-1.392.063-1.933.001-.024-.003-.05.002-.059-.025z"/>
    <path fill="#14192d" d="M7.278 9.534c.002-.018.022-.149.073-.12l.025.29c.025.007.056-.023.072-.024.003 0 .026.033.049.024.009-.01-.027-.043-.025-.048.069-.018.046.053.073.097-.08-.002-.162.003-.242 0-.04-.048-.032-.16-.025-.219"/>
    <path fill="#020618" d="M7.885 9.947c.006-.026-.02-.079.024-.073l.029.191c.07.01.143.001.214.004.078.002.206-.024.267.024-.153-.021-.317.017-.46.024-.04.002-.078.006-.095-.04-.02-.054.012-.09.021-.13"/>
    <path fill="#cdcef8" d="M10.484 11.866c.017-.086.006-.217.097-.268l.048.304.049-.036c-.006.022.004.056 0 .082l-.06.015-.06-.135z"/>
    <path fill="#cacefc" d="m14.782 7.883-.048-.036-.024-.353c.083.084.063.276.072.389"/>
    <path fill="#202b49" d="M7.618 6.693a.2.2 0 0 1 .097.024c-.057-.145.044-.047.097-.023l-.024.12-.145-.048.024.17c-.023.003-.04.027-.049.048-.003-.003-.035.005-.049 0l.025-.072-.135.023-.011.22.073.011-.097.05c.094.198.035.494.034.723 0 .115.038.248.032.373-.005.1-.095.242-.02.37-.063.032-.11.07-.159-.008l.016-.184.048.025-.024-.207.046-.022-.07-.209-.012.097-.097-.145c-.066.047-.143.154-.013.121l-.05.134.05.109h-.072l.024.291.097-.024-.024.389.049.012-.05.026.025.204.121-.073-.073-.084.075-.026-.001-.35.12.109-.072.012.048.133-.045.023.021.645c-.016 0-.047.031-.072.024l-.025-.29c-.05-.029-.07.102-.073.12.022-.099-.113-.008-.17-.073l.122-.024-.098-.014c-.014-.226.095-.398 0-.617-.028-.01-.045.024-.048.024-.044.002-.116.015-.146-.024l.122-.012-.122-.012c0-.106.003-.212 0-.316l.095-.065c.013-.044-.034-.082-.035-.116-.001-.136-.016-.622.037-.718.004-.005.057.02.073-.073.034-.187-.045-.441.025-.631l.024.243v-.219l.165-.004.035-.112c.025-.028.078-.003.091-.005l.013.122.108-.026c-.014-.047-.002-.08 0-.12v-.049c.017.001.033-.002.05 0"/>
    <path fill="#edecfc" d="M6.841 7.494c-.098-.358-.043-.327-.023-.667.009-.158-.04-.305 0-.45l.05.034.033.162.086.023-.073.157.097.256c.054.034.072-.165.073-.195h.17l.012-.097.012.122-.145.024c-.07.19.009.444-.025.631l-.218.025c.003.315-.005.631 0 .947-.08-.311.034-.67-.049-.972"/>
    <path fill="#04091a" d="M10.872 5.819v.194c-.046.014-.04-.019-.048-.024l.024-.146c-.12.01-.243 0-.364 0h-.437a4 4 0 0 0-.462 0c-.012.002-.015.06-.06.05-.017-.005-.01-.047-.029-.05-.056-.008-.12.002-.178 0H9.27c-.04 0-.083-.004-.122 0-.03.003-.065-.01-.093.005-.011.012 0 .04-.004.044-.067.073-.013.144-.097.218-.269-.018-.339-.033-.607.024-.005.002-.04-.045-.1-.013l-.064.185-.2-.002-.049.073c-.014-.004-.04-.025-.049-.024l.025-.097.244-.01.023-.184.753-.025.024-.243z"/>
    <path fill="#111726" d="M7.57 6.717v.025c-.045-.014-.089.02-.122.024-.013.002-.066-.023-.091.005l-.035.112-.165.004v.219l-.024-.243.145-.024.025-.122z"/>
    <path fill="#03071a" d="m7.934 6.377-.316.024v.292c-.016-.002-.032.001-.048 0 .004-.105-.004-.211 0-.316.11.017.21-.01.315-.024.01-.001.035.02.049.024"/>
    <path fill="#11172a" d="m7.035 7.567-.098.037c.017.286-.005.576.001.862.003.104 0 .21 0 .316l.122.012-.122.012H6.89c-.002-.113.001-.227 0-.34-.005-.315.003-.632 0-.947l.218-.025c-.016.093-.07.068-.073.073"/>
    <path fill="#1b1f31" d="M7.084 8.83c.003 0 .02-.035.048-.024.095.219-.013.391 0 .617l.098.014-.122.024z"/>
    <path fill="#cfd2fb" d="M10.217 4.556c.007-.005.114.003.157-.073.089.194.207-.053.366.071l.011.075-.317.01.014.135.12-.073c.12.132.222.032.311.032.119 0 .224.072.342.043l.052.096.039-.095.119-.002c.003.02-.036.086-.024.096l.388.098-.049.11.293.047c.02.162.157.16.267.244l-.048.073c.13.077.152.127.156.28l.025.023c.122-.085.129.021.255.036.037.03.025.093.024.134-.006.167-.028.34.025.51l.054-.03.054-.213.061.231.061-.061.074.05-.034.112.085.101.142-.02.11.558c-.003.024 0 .05 0 .073l-.073-.048v.534c-.032.031-.073-.044-.073-.06V7.19c0-.012-.027-.206-.073-.158l-.024.304-.049.036-.05-.534-.072.013-.073-.353-.072.135-.1-.024-.024-.41-.156-.042-.012.22-.097-.438c-.064-.005-.04-.002-.048.037a2.2 2.2 0 0 0-.022.556c.003.024.016.11.058.087l.11-.194c.003.151.054.28-.049.402l.024.084.049-.025c-.056.202.072.318.07.519l-.192.04c.023-.186-.021-.395-.021-.573 0-.009.077-.03.021-.156l-.024.122-.097-.011c-.027-.098-.06-.161.024-.232l-.084-.025-.037.073c-.015.004-.038-.004-.049 0l-.097-.036-.048-.22-.17-.01v-.146h.048l-.073-.086.049-.157h.072c.014.014-.005.428.073.364.049-.106-.047-.332.097-.364l-.024.388.17.073-.01-.608-.447.006-.066.251c0 .05.035.058.062.084l-.293.014-.026-.18-.508-.039-.058-.225c-.49.004-.98-.009-1.47-.007l.109-.091c.092.12.118.02.196.017.06-.002.097.068.162.047l.103-.167.037.12.277-.072.074.121.28-.073c-.07-.158.066-.074.11-.17l.061.18.059.039c.143-.076-.008-.162.085-.218l.074.158.304-.009.06.215.084-.049.085.098v-.34h-.072c.043.214-.093.232-.08.039l-.133-.084-.224.008.218-.146-.048-.098-.146.038c-.01-.008.002-.167-.085-.121-.096.05.045.18-.048.193l-.085-.233-.292-.07.316-.072v-.183l-.086.097c-.092-.068-.212.008-.335-.003l-.125-.166-.094.166-.162-.228v-.035c.088.015.115-.093.122-.098"/>
    <path fill="#ced1fb" d="M14.03 7.567c.005.083-.01.17.001.253.089.657.06.992.046 1.628-.005.237.053.499.025.742-.087-.063-.04-.224-.05-.326a21 21 0 0 1-.093-2.088c.001-.034.011-.24.07-.209m.316.486v.146c0 .135.029.264.002.398l.09.05c.013.118-.082.146-.092.194-.057.26.117.526.007.785l-.055.03-.044-1.537z"/>
    <path fill="#c7cbfa" d="m14.758 9.607.07.184-.058.083c-.078-.071-.018-.18-.012-.267"/>
    <path fill="#ced1fb" d="M14.54 8.684c.06-.047.073.015.075.061.003.102-.05.218-.027.328l-.049-.243c-.003-.048.005-.098 0-.146"/>
    <path fill="#cfd2fb" d="m10.864 4.56.226.032-.228.06zm.47-.004-.041.068-.105.005.04-.096z"/>
    <path fill="#080f29" d="m10.872 5.819.039.197.496.021.022.184.342.01.002.17.216.025v.227c.005.03.038.01.05.016.063.029.1.031.17.024l-.001.17.135.023.014.569.191.04v.024l-.097.036.072-.012c-.013.046 0 .094 0 .134v1.19l-.096.06h.121v.024h-.17l-.024.025-.024.583h-.179c-.026.007-.013.046-.016.048-.03.025-.012-.022-.048.049a.3.3 0 0 0-.026.12h-.204l-.013.074h-.352c-.071.065-.052.16-.061.243h-.024l-.024-.268c.134.06-.047-.18-.097-.183l.072-.4.097.025.049-.389.092-.016c.029-.107.027-.214.03-.323.007-.378-.082-.821-.089-1.215 0-.047.044-.009.04-.036-.087-.098-.047.114-.134.11l-.036-.074-.278-.022-.038-.099a2 2 0 0 0 0-.219c-.002-.024.002-.048 0-.073-.032-.001-.065.002-.097 0l-.146-.024v-.121l.121.073v-.097h-.121l-.036-.194-.037.29h-.097l.007-.115c-.158-.1-.104-.238-.129-.394l-.078.116c-.021.014-.046.003-.067.005-.467.057-1.17-.097-1.578-.024l1.602-.05-.027-.19-.276.07-.12-.12-.135.06.073.036-.028.093-.106-.045-.06.049-.012-.147c-.045-.033-.093-.013-.11-.083-.031-.119.144.005.097-.159.043.003.254-.038.267-.024.006.048-.028.113.049.097l.035-.097c.069.085.274.061.305-.049-.113.022-.24-.018-.34-.024h.437l.037.218.06-.145.085.072.134-.072c-.022.05-.01.05.024.073.008.005.002.038.048.024z"/>
    <path fill="#d1d5fc" d="M12.135 6.644c.011-.004.034.004.049 0l.037-.073.084.025c-.083.07-.051.134-.024.232l.097.01.024-.12c.056.125-.021.146-.021.155 0 .178.044.387.021.573l.193-.04c0-.2-.127-.317-.071-.519l-.049.025-.024-.084c.103-.122.052-.25.048-.402l-.11.194c-.041.023-.053-.063-.057-.087a2.2 2.2 0 0 1 .022-.556c.008-.039-.016-.042.048-.037l.097.437.012-.22.156.043.025.41.1.024.071-.135.073.353.071-.013.051.534.049-.036.024-.304c.046-.048.073.146.073.158v.461c0 .017.04.092.072.06l.001-.533.072.048V7.3c.015.735.17 1.509.123 2.27-.003.038-.021.073-.026.11l-.048-.036V9.23a.4.4 0 0 0-.036-.158c-.041.034-.037.131-.037.182v.862l-.048-.036-.027-1.285-.082-.33.011 1.408-.097-.4-.048-.037.024.923c-.066.007-.04 0-.048-.037-.033-.136-.022-.293-.085-.424-.012.06-.147.164-.154.186-.042.122-.003.38-.053.518l-.085-.34c-.095-.022-.174.439-.182.51l-.052-.034-.07-.258c0-.113-.024-.221 0-.34l.052.034.082.112c.005-.232.245-.348.073-.582-.069.098-.198.022-.266.122-.025.036-.003.132-.086.12l-.004-.106c-.12-.065-.042-.085-.045-.112.091.02.09-.047.097-.122.044.002.11.025.122.024.04-.001.074-.05.12-.025l.001-.46.122.121v-.291a.4.4 0 0 1-.195 0c-.01-.003-.018-.016-.024-.025h.17V7.494l-.19-.04-.015-.568-.135-.023v-.17a.27.27 0 0 1-.17-.024c.044.013.066-.012.097-.025m.462.85v1.457c.083.008.032-.012.035-.04.011-.128.056-.233.064-.309.036-.345-.03-.755-.002-1.108zm.412.656c-.064-.01-.049.01-.048.06.002.102.047.228.024.341l.049.036zm.364.583-.004-.25-.068-.041c.004.097-.03.234.072.29"/>
    <path fill="#d1d5fc" d="M11.77 6.183c-.026-.026-.06-.034-.06-.084l.065-.251.447-.006.01.608-.17-.073.024-.388c-.144.032-.048.258-.097.364-.078.064-.059-.35-.073-.364h-.072l-.049.157.073.085h-.049c-.026-.006-.034-.034-.048-.048"/>
    <path fill="#dbdcfb" d="m10.302 10.555.057.108-.057.133c-.062-.03-.046-.241 0-.241m.146.024c.036-.009.056.03.061.06.04.256-.229-.023-.061-.06"/>
    <path fill="#000419" d="M11.431 10.093c-.002.024.002.049 0 .073h-.486l-.036-.025.482.001.016-.05z"/>
    <path fill="#c6cced" d="M12.135 9.607h.097c-.007.075-.006.143-.097.122-.002-.025-.029-.057-.049-.073.037-.071.018-.024.05-.049"/>
    <path fill="#cacefc" d="M13.35 7.154c.005-.062-.028-.163.048-.194-.006.057.1.44-.049.34v-.073c.001-.024-.002-.049 0-.073"/>
    <path fill="#ced0f9" d="M8.08 4.167c-.051.059-.272.072-.353.073-.05 0-.07.016-.06-.048.08.032.093-.045.132-.05.099-.015.187.012.28.025"/>
    <path fill="#cfd2fb" d="m10.8 5.188.024.157c-.063.05-.101-.037-.118-.093z"/>
    <path fill="#111b36" d="m8.735 9.996.165.078.005.103.049.037.053-.211.262.017v-.073c.062-.024.038.031.061.044.007.004.033-.021.037-.02.009.005.06.11.17.073-.008.009-.003.064-.049.06l.121.062v-.17c.021-.013.04-.036.062-.049l.011.049-.024.12h.082l.015.074.061-.073c.169.082.41-.003.555.024.025.005 0 .066.052.05.018-.01.002-.156.131-.036l-.022.083.124-.034.046-.087.17.11-.17.06c-.037-.005-.082.003-.121 0-.096-.007-.26.01-.325.002-.017-.003-.014-.052-.027-.051-.034 0-.062.047-.12.05-.246.016-.5-.053-.742.023-.117 0-.832.02-.864-.023-.02-.03-.005-.07-.01-.098l.052.093c.019.012.09.007.117.004.024-.002.05.002.073 0 .005-.096-.006-.195 0-.291"/>
    <path fill="#0b213f" d="m10.532 9.291-.024.365h-.315l.142.028a.3.3 0 0 1 .027.093.2.2 0 0 0-.11.02l-.048-.093-.109.122-.062-.098-.084.098-.084-.073-.037.073-.012-.073-.06.073-.013-.097-.121.12-.073-.144-.158.024.024.12-.048-.072-.05.097-.048-.097-.072.025.05.12c.015.011.12-.07.12.05-.004-.002-.03.023-.037.02-.023-.014 0-.069-.06-.045v.073l-.263-.017-.053.211-.048-.037-.006-.103-.165-.078q.002-.036 0-.073l.17-.013-.024-.206h-.146c.097.09.001.114 0 .122L8.687 9.8a.6.6 0 0 0-.024-.17l.364.049-.292-.024c-.008-.022.025-.046.025-.049h.024l1.724.025v-.365h.024z"/>
    <path fill="#031633" d="m11.407 7.324.036.073c.087.005.047-.207.133-.109.005.027-.04-.01-.039.036.007.394.096.837.088 1.215l-.192.026-.002.143.06-.072c.148.158.013.139-.054.176-.016.009-.025.041-.03.042z"/>
    <path fill="#091737" d="m10.508 9.656.145-.049.013.17-.133-.072.048.036-.064.087c-.057-.005-.098-.041-.154-.05a.4.4 0 0 1-.03.155l-.092.087-.061-.073c-.102.088-.11.003-.17 0-.013-.002-.01.046-.028.048-.095.012-.203-.007-.3 0l-.011-.048c-.022.013-.04.036-.061.049-.032.02-.03.001-.073.048-.11.037-.16-.068-.17-.073 0-.12-.105-.038-.12-.048l-.05-.121.072-.025.049.097.049-.097.048.073-.024-.121.158-.024.073.145.121-.121.012.097.061-.073.012.073.037-.073.084.073.084-.098.062.098.11-.122.047.094a.2.2 0 0 1 .11-.02.3.3 0 0 0-.027-.094l-.142-.028z"/>
    <path fill="#081b3a" d="m11.042 9.291-.006.14-.26.079-.025-.121-.108.147-.086-.002.036-.243z"/>
    <path fill="#3cd8fb" d="M11.018 8.466c.107-.071.055.147.056.18.002.061.067.09-.007.16.038-.012.06-.006.097 0 .079.013.153.041.243.024v.024c-.074.018-.185.007-.292.025-.006 0-.043-.034-.048-.025v.365c-.024.002-.05-.003-.073 0z"/>
    <path fill="#5edbeb" d="M11.115 8.879v.364c-.19.015-.405-.032-.583.024h-.024v-.024c.048-.049.2-.022.267-.024h.219c.024-.003.049.002.073 0v-.365c.005-.009.042.026.048.025"/>
    <path fill="#081b3a" d="m11.115 9.243-.035.025-.548.023v-.024c.178-.056.394-.01.583-.024"/>
    <path fill="#0d1a39" d="m8.177 8.951.036.34.012-.048.488.035c.042.03.017.155.022.208.005.05.02.085.025.121 0 .003-.033.027-.025.048l.292.025-.364-.048a.6.6 0 0 1 .024.17c-.002.042-.024.1-.024.17l-.122.072c.072-.075.065-.195-.048-.097l-.053-.19-.19-.004-.024.097-.098-.121c-.004-.064-.057-.056.028-.134l-.028-.085c.004-.029-.032-.082 0-.097.024-.003.063-.033.097-.025l-.096-.024V9.09l-.049-.017z"/>
    <path fill="#1c2644" d="M8.735 9.826c-.002.032.002.065 0 .097q.002.037 0 .073c-.006.096.005.195 0 .291-.024.002-.049-.002-.072 0-.065-.08.021-.059.026-.107.007-.083-.027-.168-.026-.209 0-.068.022-.127.024-.17z"/>
    <path fill="#182443" d="M7.983 6.304c-.02.097.14.027.17.05l-.062.169-.012-.146-.072.049-.024-.049c0 .039-.018.075-.022.113a5 5 0 0 0-.001.601c.004.077.03.103.107.088l-.036.048c-.041.003-.076-.043-.121.025-.033.002-.022.036-.026.059-.036.251-.034 1.277 0 1.532.007.055.008.084.074.084-.114.022-.07.11-.077.118-.046.061-.227.047-.262-.045-.055.105-.019.172-.025.291-.059-.038-.044-.03-.056.029-.03.15-.01.203-.065.336-.002.005.033.039.024.048-.023.01-.045-.024-.049-.024l-.021-.645.046-.023-.049-.133.073-.012-.121-.11.001.35-.075.027.073.084-.12.073-.026-.205.05-.025-.049-.012.024-.389-.097.024-.024-.29.072-.001-.05-.11.05-.133c-.13.033-.053-.074.013-.12l.097.144.012-.097.07.209-.046.022.024.207-.048-.025-.016.184c.049.079.096.04.159.007-.074-.127.015-.269.02-.369.006-.125-.032-.258-.032-.373 0-.23.06-.525-.033-.724l.096-.049-.073-.012.01-.22.136-.022-.024.072c.013.005.046-.003.048 0q.034.044.051.095l.083.027.085-.121.024.23V7.01l.073.024-.025-.291-.086.072.002.098c-.075.066-.122.02-.158.024l-.024-.17.145.048.024-.12c-.053-.024-.153-.122-.097.023a.2.2 0 0 0-.097-.024v-.292l.316-.024z"/>
    <path fill="#131d3c" d="m8.177 8.951-.097.121.048.017v.275l.097.024c-.034-.008-.073.022-.097.025-.003 0-.062-.052-.073-.012v.279c.043-.026.068-.123.073-.17l.028.085c-.085.078-.032.07-.028.134l-.071.001-.014.073c-.05.014-.103-.024-.133-.026l.073-.097-.133-.048v-.146l-.121.023-.013-.12h-.122v-.098c.006-.119-.03-.186.024-.29.036.091.217.105.263.044.007-.008-.038-.096.077-.118.048-.009.182-.011.219.024"/>
    <path fill="#182443" d="M7.594 9.389h.122l.013.12.12-.023.001.146.133.048-.073.097c-.023-.001-.064.028-.082.024-.024-.006-.152-.14-.234-.072-.038-.118-.001-.229 0-.34"/>
    <path fill="#0a132e" d="M9.367 10.311c.242-.076.496-.007.742-.022.058-.004.086-.05.12-.051.013 0 .01.048.027.05.066.01.229-.008.325 0-.397.042-.812.026-1.214.023"/>
    <path fill="#303750" d="M7.035 7.567c-.053.096-.038.582-.037.718 0 .034.048.072.036.116l-.096.065c-.006-.286.016-.576 0-.862z"/>
    <path fill="#101b38" d="M7.667 6.936c.036-.005.083.042.158-.024l-.002-.098.086-.072.025.291-.073-.024v.206l-.024-.23-.085.121-.083-.027a.3.3 0 0 0-.05-.095c.007-.02.025-.045.048-.048"/>
    <path fill="#182443" d="M7.57 6.742c-.003.04-.015.073 0 .12l-.11.026-.012-.122c.033-.005.077-.038.122-.024"/>
    <path fill="#071631" d="M9.148 5.843v.121l.05-.072.06.073.012-.122h.048v.121l.097.049H9.1l.048.291.122-.024-.075-.062.014-.108.049.073.06-.048.003.166.205.007c.012-.01.083-.215.085-.236.003-.045-.05-.033-.051-.047-.002-.038.046-.08.05-.11.04-.002.084.023.121.025.047.164-.128.04-.098.159.018.07.066.05.111.083l.012.147.06-.049.106.045.028-.093-.073-.036.135-.06.12.12.276-.07.027.19-1.603.05c-.017.003-.068.022-.073.04v.446h-.534l-.024.34H7.91c.045-.068.08-.022.121-.025.048-.002.098.002.146 0l-.014-.341.208-.072-.025-.145-.072.048-.024-.134.12.013-.094-.106.144-.113-.037-.048h-.085l.049-.194c.268-.058.338-.043.607-.025.033.002.072.024.122 0l-.025-.218c.003-.004-.007-.032.004-.044.028-.015.064-.002.093-.005"/>
    <path fill="#101b38" d="m8.347 6.134-.049.195h.085l.037.048-.144.113.095.106-.121-.013.024.134.072-.048.025.145-.208.072.014.341c-.048.002-.098-.002-.146 0l.036-.048c-.077.015-.103-.01-.108-.088a5 5 0 0 1 .002-.601c.004-.038.022-.074.022-.113l.024.049.072-.049.012.146.061-.17c-.03-.022-.189.048-.17-.049l.2.002.066-.185c.06-.032.094.015.099.013"/>
    <path fill="#080f29" d="M9.318 5.843c.059.002.122-.008.178 0 .02.003.012.045.029.05.045.01.048-.048.06-.05-.02.042.025.07.025.073-.004.03-.052.071-.05.109 0 .014.054.002.05.047a2 2 0 0 1-.084.236L9.321 6.3l-.003-.166-.06.048-.05-.073-.013.108.075.062-.122.024-.048-.29.315-.001-.097-.049z"/>
    <path fill="#101a30" d="M10.047 5.843c.1.006.227.046.34.024-.03.11-.236.134-.305.05l-.035.096c-.077.017-.043-.049-.049-.097-.013-.014-.224.027-.267.024-.037-.002-.08-.027-.121-.024 0-.004-.045-.031-.025-.073.104-.012.348-.006.462 0"/>
    <path fill="#131933" d="M10.484 5.843c.12 0 .244.01.364 0l-.024.146c-.034-.024-.046-.023-.025-.073l-.133.072-.085-.072-.06.145z"/>
    <path fill="#080f29" d="m9.27 5.843-.013.122-.06-.073-.048.072v-.12c.038-.005.081 0 .12 0m-.218.048.024.218c-.049.024-.088.002-.121 0 .084-.074.03-.145.097-.218"/>
    <path fill="#40d9f8" d="M11.09 6.984a2 2 0 0 1 0 .219c0 .042-.019.08-.023.121l.17.025c-.004 0-.017.042-.04.046-.043.008-.06-.083-.106-.01l.143.04-.009.143-.134-.098c-.018.023.062.186-.049.17-.073-.167-.006-.29-.024-.423 0-.009-.091-.027-.022-.145l-.05-.015.048-.072h-.073v.364l-.049-.036v-.256l-.087.911c.098.099-.008.161-.01.218-.002.014.045.001.051.048.012.085-.01.26-.002.377-.112.101-.096-.21-.097-.267a7 7 0 0 1 0-.315c.002-.082.065-.216 0-.316.01-.02.034-.039.037-.06l-.013-.693c.112.004.235-.02.34.024"/>
    <path fill="#091c39" d="M10.411 6.45c.02-.002.046.009.067-.005l.078-.116c.025.156-.029.294.13.394l-.008.116h.097l.037-.291.036.194h.122v.097l-.122-.073v.121l.146.025c-.193-.01-.39.007-.583 0l-.024-.389zm.024.024v.413h.073c-.091-.11.024-.298-.073-.413"/>
    <path fill="#75e5f7" d="m11.09 7.203.04.099.277.022V8.83c-.09.017-.164-.011-.243-.024h.194c.003-.048-.004-.098 0-.146a8 8 0 0 0 0-1.31c-.016-.005-.033 0-.049-.001a.3.3 0 0 0-.072 0l-.17-.025c.004-.041.022-.079.024-.121"/>
    <path fill="#9cdee7" d="m10.411 6.45-.024.073-.025-.024-1.538-.021-.064.434-.001-.445c.005-.019.056-.038.073-.041.41-.073 1.112.081 1.579.024"/>
    <path fill="#030516" d="M12.548 7.519v1.408h-.121l.097-.06v-1.19c0-.04-.014-.088 0-.134l-.073.012z"/>
    <path fill="#96e1f1" d="M10.994 6.912c.032.001.065-.002.097 0 .002.024-.002.048 0 .072-.105-.044-.228-.02-.34-.024h-.073c-.061-.003-.238.013-.267-.048.193.007.39-.01.583 0"/>
    <path fill="#d4d7fc" d="m12.402 8.976-.048.655c-.012 0-.078-.022-.122-.024h-.097c.003-.002-.01-.041.016-.049h.178l.025-.582.024-.025c.006.01.015.022.024.025"/>
    <path fill="#c7ceef" d="M12.597 7.494h.097c-.029.353.037.763.002 1.108-.008.076-.053.181-.065.309-.002.028.049.048-.034.04z"/>
    <path fill="#ced1fb" d="M12.402 8.976a.4.4 0 0 0 .195 0v.291l-.122-.121v.46c-.047-.025-.08.024-.121.025zm.608-.826.024.437-.049-.036c.023-.113-.022-.239-.024-.34 0-.051-.016-.07.048-.061m.364.583c-.103-.057-.068-.194-.072-.291l.068.04z"/>
    <path fill="#0a132e" d="M9.61 9.996v.17l-.122-.061c.046.003.041-.052.049-.06.042-.048.04-.03.073-.05"/>
    <path fill="#35ccf1" d="m8.614 8.709.072.232-.023.132h.17c0 .034-.006.068 0 .102l.049.067c.057.012.043-.007.048-.048.132-.03.075.185.057.241.01.087.08.045.106-.01-.054-.028-.028-.247.055-.255 0 .063-.02.287.073.291l-.025-.594.122-.085-.024.582.121-.085-.048-.084.17-.01.024-.428h.049c.005.117-.008.237-.002.354.003.057.05.085.051.12 0 .012-.046.01-.049.028-.013.08-.016.2.06.25.09-.006-.045-.833.11-.727l-.025.048.146-.014.008.221.113.036c-.002.061-.022.114-.024.17l-.092.055.02.31c-.38.005-.762-.005-1.142 0H8.76c-.005-.037-.02-.072-.025-.122.07.014.052-.04.05-.085-.008-.168-.026-.144-.171-.158zm1.202.17-.049.266.049.073c.02 0 .052-.242.05-.254-.001-.035-.025-.064-.05-.085m.036.364h-.097c-.01.074-.01.169.086.122z"/>
    <path fill="#72e9fe" d="M10.508 9.267v.365l-1.724-.025c.38-.004.761.006 1.141 0h.073c.154-.002.31.011.463-.01l.047-.354z"/>
    <path fill="#0d1a39" d="M8.735 9.826c.001-.008.097-.032 0-.121l.146-.001.025.206-.17.013c0-.032-.003-.065 0-.097"/>
    <path fill="#25caef" d="M10.824 8.612c-.009-.117.014-.293.002-.378-.007-.047-.053-.034-.052-.048.003-.057.109-.12.01-.218l.088-.91v.255l.049.036v-.365h.073l-.049.073.05.015c-.068.118.022.136.023.145.018.133-.049.256.024.423.003.007-.003.018 0 .024l-.072.025c.072.079.044.17.048.267v.51l-.024.753h-.049l-.024-.243c-.08.039-.017.17-.049.243h-.048v-.365l.074.037.023-.231-.061.122c-.063.01-.033-.084-.036-.122q-.002-.024 0-.049"/>
    <path fill="#32cff7" d="M11.237 7.349a.3.3 0 0 1 .072 0l-.024.388.049-.012c-.029.076.029.214.024.265 0 .015-.048.014-.05.03-.015.12.068.425.001.486l.049.154c-.004.048.003.098 0 .146h-.194c-.037-.006-.06-.012-.097 0 .074-.07.009-.099.007-.16 0-.033.052-.251-.056-.18v-.049l.086-.05.01-.134-.096-.059v-.072l.06.024.038-.085v-.036h-.098v-.05c.111.061.103-.226.095-.252-.01-.039-.069-.035-.07-.039-.004-.006.002-.017 0-.024.11.016.03-.147.048-.17l.134.098.009-.144-.143-.038c.045-.074.063.017.107.01.022-.005.035-.047.039-.047"/>
    <path fill="#2bcbf3" d="M10.727 8.344c0 .058-.015.368.097.267v.05c-.09-.005-.065-.013-.073.059a1.4 1.4 0 0 0 .024.499c-.067.002-.219-.025-.267.024l-.047.354c-.153.021-.31.008-.463.01l-.026-.13c.072-.014.023-.157.026-.234.002-.056.022-.109.024-.17.004-.114-.053-.205.025-.316h.024l.036.437c.083-.133.018-.278.061-.437.003-.01.016-.018.024-.024 0 .215.02.474.05.69l-.05.038h.195l-.05-.204.067-.048-.054-.227-.085.042v-.17h.158l.037.073.11-.072.035.072c.112-.054.037-.169.049-.267l-.049.036v.11h-.072c.011-.1.05-.11-.028-.182l.052-.122-.049-.084.169-.037c-.003-.013-.024-.03-.023-.037zm-.56.923h-.096l.025.194h.072z"/>
    <path fill="#40d9f8" d="M10.824 8.66c.003.038-.027.133.036.122l.06-.122-.022.23-.074-.035v.364h-.049a1.4 1.4 0 0 1-.024-.5c.008-.07-.017-.063.073-.059m.121.559h-.073c.032-.073-.031-.204.049-.243z"/>
    <path fill="#04142e" d="M7.934 7.252v1.627l.038.026c.03.004.054-.026.06-.026.045-.002.13-.009.17 0l.023.364-.012.048-.036-.34c-.037-.035-.17-.033-.219-.024-.067 0-.067-.029-.074-.084-.034-.255-.036-1.28 0-1.532.004-.023-.007-.057.026-.06z"/>
    <path fill="#7acee5" d="M8.541 9.243c.024.001.049-.002.073 0 .145.014.163-.01.171.158.002.045.02.1-.05.085-.005-.053.02-.179-.022-.208l-.488-.035-.024-.364c.158.033.049.294.083.341.076.045.173.018.257.023"/>
    <path fill="#242d4a" d="M8.128 9.413c-.032.015.004.068 0 .097-.005.047-.03.144-.072.17V9.4c.01-.039.069.013.072.013"/>
    <path fill="#81e7f8" d="M8.25 7.009c.008.076-.006.164 0 .243-.016.01-.03.037-.049.048l-.267-.024v-.024h.267l.024-.34c-.018.037.023.081.025.097"/>
    <path fill="#abeefd" d="M8.76 6.912c-.074.056-.338.01-.45.024-.072.009-.065-.017-.06.073-.002-.016-.043-.06-.025-.097z"/>
    <path fill="#27caed" d="m10.75 6.96.014.693c-.003.021-.026.04-.037.06-.024.043-.016.017-.05.104-.017.043-.085.057-.023.187-.066.029-.129.003-.194 0V7.98h.097c-.009-.082-.002-.162 0-.243v-.243c0-.144.012-.282-.022-.423l.083-.014-.009.227.069.04V6.96z"/>
    <path fill="#20c8eb" d="M10.727 8.344h-.073c.008-.076.021-.141 0-.218l-.085.097-.037-.121.17-.073h.025a7 7 0 0 0 0 .315"/>
    <path fill="#1ec7ec" d="M10.727 7.713c.065.1.002.234 0 .316h-.025c-.014-.005-.043-.013-.048-.025-.062-.13.007-.144.023-.187.034-.087.026-.061.05-.104"/>
    <path fill="#40d9f8" d="m10.362 6.499.025.024.024.389c.029.061.206.045.267.048v.364l-.069-.04.009-.227-.083.014c.034.141.022.28.022.423l-.118-.04.02-.494-.181-.024-.02.317.129-.002-.025.219-.048-.08-.073-.017-.024.17c-.01-.067-.006-.103-.086-.12-.287.003-.575-.009-.861-.001l.048-.17c.146-.012.292-.02.437-.014v.16h.073l.039-.166.19-.005.05.073.08-.088-.043-.325h.218v-.072l-.206-.049-.012-.267c.072.003.146-.002.218 0"/>
    <path fill="#080f29" d="M10.435 6.474c.097.115-.019.303.073.413h-.073z"/>
    <path fill="#40d9f8" d="M11.31 7.349c.015.002.032-.004.047 0 .035.433.038.876.001 1.311l-.049-.154c.067-.06-.016-.367 0-.486.001-.016.048-.015.05-.03.004-.05-.054-.189-.025-.265l-.049.012z"/>
    <path fill="#58d6ee" d="M10.362 6.499c-.072-.002-.146.003-.218 0h-.049c-.088-.003-.178.001-.267 0h-.34c-.218.002-.437-.001-.656 0q.002.097 0 .194c-.001.073.002.146 0 .219v.024c-.038.005-.136.04-.218.048-.032.004-.066-.003-.097 0-.073.009-.147.013-.219.025l-.024.194c-.005.003-.01.038-.024.049-.006-.079.008-.167 0-.243-.005-.09-.012-.064.06-.073.112-.014.376.032.45-.024l.064-.434z"/>
    <path fill="#33d5f3" d="M8.832 6.936c.026-.003.068.023.097.025-.026.095-.05.096-.048.218v.048c-.01 0-.081.036-.123.014l-.07.095.12.158v-.18L8.88 7.3v.219c-.004.013.004.036 0 .048-.062.172.016.224.015.304-.001.031-.04.07-.041.122-.007.261.007.527.002.789h.073l.037-.583.035.06.049-.012-.073.158.146.036v.073h-.121l.024.316a1 1 0 0 0 .097-.121c.005.014.024.036.024.048.007.15 0 .273 0 .413-.083.008-.109.227-.055.256-.027.054-.097.096-.106.01.018-.057.075-.272-.057-.242.008-.078-.016-.205 0-.291h-.097v.17h-.17l.023-.132-.072-.232q.002-.861 0-1.725c.082-.008.18-.043.218-.048m-.048.85-.05.037.026.133-.075.013.002.108h.145z"/>
    <path fill="#39d3f3" d="M8.517 7.956a1 1 0 0 1 .024.158v.364c0 .056-.078.447.073.4v.146c-.04-.028-.067-.035-.093.011l.02.208c-.084-.005-.181.022-.257-.023-.034-.047.075-.308-.083-.341-.038-.009-.124-.002-.17 0-.005-.01-.024-.02-.024-.025-.006-.054.004-.114 0-.17l.17-.012c-.042-.07-.001-.138 0-.182h.048c.006.063.046.142.025.219l.07-.002.023-.349-.118-.014c0-.05.025-.092.025-.097l.073.036.02-.101-.093-.032v-.073l.219-.011c.036-.021-.026-.129-.025-.183.01.025.067.061.073.073"/>
    <path fill="#4ce0fb" d="M8.614 6.984c0 .574.002 1.152 0 1.725v.17c-.15.046-.073-.345-.073-.401v-.364a1 1 0 0 0-.024-.158c.04-.07.053-.252-.025-.292.026-.114.063-.326.044-.443-.006-.033-.066-.086-.068-.103 0-.012.129-.04.049-.134.031-.003.065.004.097 0"/>
    <path fill="#43dafa" d="m9.391 8.757-.022.362.082.027c-.006-.069.041-.23.037-.277 0-.006-.086-.039-.048-.112h.121l-.023.427-.171.01.048.085-.121.085.024-.582-.122.085.025.594c-.092-.004-.072-.228-.073-.291 0-.14.006-.262 0-.413zm.656 0c-.078.111-.02.202-.024.316l-.114-.036-.007-.22-.147.013.025-.048c-.155-.106-.02.721-.11.727-.076-.05-.073-.17-.06-.25.003-.018.05-.016.05-.029-.002-.034-.049-.062-.052-.12-.006-.116.007-.236.002-.353z"/>
    <path fill="#79c4e3" d="M10.168 8.709h.024v.024c-.008.006-.021.015-.024.024h-.777l-.219-.048z"/>
    <path fill="#43dbfa" d="M8.833 9.073v-.17h.096c-.015.086.01.213 0 .291-.004.04.01.06-.047.048l-.048-.067c-.007-.034-.001-.068-.002-.102"/>
    <path fill="#43dafa" d="M9.998 9.243c-.003.077.046.22-.026.233l.026.131h-.073l-.019-.31zm-.182-.363c.025.02.049.05.05.083.002.013-.03.255-.05.255l-.049-.073z"/>
    <path fill="#4ce0fb" d="M8.614 9.024v.219c-.024-.002-.049.001-.073 0l-.02-.208c.026-.046.053-.04.093-.01"/>
    <path fill="#43dafa" d="m9.852 9.243-.01.122c-.096.047-.097-.048-.087-.122z"/>
    <path fill="#3cd8fb" d="M11.018 7.956c-.003-.098.024-.188-.048-.267l.072-.025c.002.004.06 0 .071.04.008.025.016.312-.095.252m0 .461v-.243l.095.059-.01.133zm0-.413h.097l.001.037-.038.085-.06-.024z"/>
    <path fill="#34d3f7" d="m10.387 7.737-.025.219-.06-.049c-.043-.004-.038-.002-.036.036.006.112.155.06.194.061.065.003.128.029.194 0 .005.012.034.02.048.025l-.17.073.037.12.084-.096c.022.077.009.142 0 .218 0 .007.02.024.024.037l-.169.037.049.084-.052.122c.077.072.039.082.027.182h.073v-.11l.049-.036c-.012.098.063.213-.049.267l-.036-.072-.109.072-.037-.072h-.158v.17l.085-.043.054.227-.066.048.049.204h-.194l.05-.039a5 5 0 0 1-.05-.69V8.71c0-.303.04-.612.024-.923l.07-.062c.05.033.065.014.1.013m.048 1.02.025-.62c-.014-.078-.085-.093-.087.013-.005.2.028.408-.01.607zm-.267-.001c-.043.159.022.304-.06.437l-.037-.437zm0 .51v.194h-.072l-.025-.194z"/>
    <path fill="#a9e8f9" d="M8.201 7.3h-.024c-.053.01-.122-.012-.178.004l-.016 1.55h.024c0 .005.02.016.024.025-.005 0-.03.03-.059.026l-.038-.026V7.276z"/>
    <path fill="#46d8f6" d="M8.322 7.179c-.02.11.051.067.122.072v.244h-.097c.003.077-.015.163.017.237.021.049.105.044.08.127v.024c-.001.054.06.162.024.182l-.218.012c0-.136-.024-.275 0-.413h-.098c.003-.124.03-.24.025-.364H8.2c.019-.011.033-.038.049-.048.015-.01.02-.046.024-.049q.023-.013.048-.024"/>
    <path fill="#2dd1f4" d="m10.217 7.543.024-.17.073.017.048.08.025-.219-.13.002.021-.317.181.024-.02.495.118.04v.17h-.34V7.64c-.003-.032.004-.066 0-.097"/>
    <path fill="#34d3f7" d="M10.557 7.737c-.002.081-.009.161 0 .243h-.097l-.025-.243z"/>
    <path fill="#21c4ed" d="m10.435 7.737.024.243v.024c-.038-.001-.187.05-.193-.06-.002-.04-.007-.041.035-.037l.061.049.025-.219z"/>
    <path fill="#40d9f8" d="M10.557 7.664v.073h-.17c-.035 0-.05.02-.1-.013l-.07.062c-.002-.04.004-.083 0-.122z"/>
    <path fill="#2ed4f3" d="M9.561 6.499v.291c.078-.027.107-.03.17.024L9.78 6.5h.048l.037.34.08-.066.005-.25c.097-.016.035.293.073.316l.072-.34h.049l.012.267.207.049v.072h-.219l.042.325-.079.088-.05-.073-.19.005-.039.165h-.073v-.16a4 4 0 0 0-.437.015h-.024l-.073-.073h.28l.012-.292c-.01-.01-.21.017-.243.025l.024-.389c.052-.017.055.037.073.049v.242l.122-.037.023-.278zm.51.68.023-.254-.217-.051-.013.305.058-.016.016-.203h.084l-.02.178zm-.34-.291h-.17l.037.315.06-.016.025-.13.024.085.048.037z"/>
    <path fill="#7ef1fe" d="M9.27 7.422c.286-.008.574.004.86 0 .08.018.078.054.087.121.004.031-.003.065 0 .097a.6.6 0 0 0-.049-.146c-.047-.05-.462-.026-.558-.024-.121-.03-.371-.064-.462.024h-.024c-.001-.016.002-.032 0-.048.016-.005.035-.022.049-.024.028-.005.065 0 .097 0"/>
    <path fill="#4fdffc" d="M9.294 7.252h.024l-.048.17c-.032 0-.069-.005-.098 0v-.17c.04-.003.082.003.122 0"/>
    <path fill="#45ddfa" d="m9.488 6.499-.024.121a.4.4 0 0 1-.097-.048c-.018-.012-.02-.066-.073-.049l-.024.389c-.003 0 .009.04-.017.048-.075.023-.194-.043-.25.012l-.025.06.073.122-.17.025c-.002-.122.022-.123.048-.218-.03-.002-.071-.028-.097-.025v-.024c.16 0 .162-.25 0-.219q.002-.098 0-.194c.219-.001.438.002.656 0m-.389.024-.042.03-.077.295.217.04-.025-.365-.06.17z"/>
    <path fill="#37d4f1" d="M8.517 6.984c.08.094-.05.122-.049.134.002.017.062.07.068.103.02.117-.018.329-.044.443-.01.045-.046.157-.048.195.025-.083-.059-.078-.08-.127-.032-.074-.014-.16-.017-.238h.097v-.243c-.07-.005-.142.039-.122-.072l.122.024V7.08c-.068-.01-.17.046-.146-.072.072-.012.146-.016.219-.025"/>
    <path fill="#42dcfa" d="m10.095 6.499-.072.34c-.038-.023.024-.332-.073-.316l-.006.25-.08.066-.036-.34c.089.001.179-.003.267 0"/>
    <path fill="#3ddbf9" d="m9.78 6.499-.05.315c-.062-.055-.092-.05-.169-.024V6.5z"/>
    <path fill="#40dcfb" d="m9.512 6.499-.023.278-.122.037v-.242q.044.031.097.048l.024-.121z"/>
    <path fill="#33d5f3" d="M8.833 6.693c.161-.031.158.218 0 .219q-.002-.11 0-.219"/>
    <path fill="#4ce0fb" d="M8.298 7.009c-.024.118.079.062.146.072v.122l-.122-.024q-.024.01-.048.024z"/>
    <path fill="#45ddfa" d="M8.881 7.227c.052.002.112.03.166.03.018.07.068.11.077.189.002.016-.001.032 0 .048.02.283.01.66 0 .947l-.146-.036.073-.158-.049.013-.036-.061-.037.582h-.072c.005-.261-.009-.527-.002-.788.001-.052.04-.09.04-.122.002-.08-.076-.132-.014-.304l.171.036.05-.096-.124-.037.097-.049-.048-.072-.015.05-.082-.026c.037.159-.046.136-.049.146V7.3l-.073.015v.18l-.12-.159.07-.095c.042.022.113-.014.123-.014"/>
    <path fill="#39d7f5" d="M9.27 6.912c.034-.008.232-.035.242-.025l-.01.293-.281-.001.073.073c-.04.003-.082-.003-.122 0v.17c-.013.002-.032.019-.048.024-.009-.079-.059-.12-.077-.189-.054 0-.114-.028-.166-.03V7.18l.17-.025-.073-.122.026-.06c.056-.055.174.01.25-.012.025-.007.013-.048.016-.048"/>
    <path fill="#80f9fe" d="m9.173 8.709.218.048h-.243c0-.012-.02-.033-.024-.048.011-.047-.004-.138 0-.195v-.072a9 9 0 0 0 0-.948h.024z"/>
    <path fill="#39d7f5" d="M8.881 7.519c.003-.01.086.013.049-.146l.082.027.015-.051.048.072-.097.05.123.036-.049.096-.171-.036c.004-.012-.004-.035 0-.048"/>
    <path fill="#45ddfa" d="M9.124 8.514c-.004.057.011.148 0 .195a1 1 0 0 1-.097.121l-.024-.316zm-.34-.728.048.291h-.145l-.002-.108.075-.013-.026-.133z"/>
    <path fill="#56dcf8" d="M8.153 7.689c0 .115.023.255.022.373l-.144.076.144.05c-.034.1.004.202.002.302-.001.044-.042.111 0 .182l-.17.013c.004.055-.006.115 0 .17h-.024l.024-1.166zm-.025.922-.036-.242-.037.243z"/>
    <path fill="#34d1ec" d="M8.153 7.664h.097c-.024.138 0 .277 0 .413v.17c0 .005-.026.047-.025.097.001.04-.002.118 0 .146h-.048c.002-.1-.036-.202-.002-.302l-.144-.05.144-.076c0-.118-.023-.258-.022-.373z"/>
    <path fill="#46d8f6" d="m8.225 8.344.118.014-.023.349-.07.002c.02-.077-.019-.156-.025-.219-.002-.028.001-.106 0-.146"/>
    <path fill="#34d6ef" d="M8.517 7.956c-.006-.012-.063-.048-.073-.073v-.024c.002-.038.039-.15.048-.195.078.04.064.222.025.292"/>
    <path fill="#46d8f6" d="m8.25 8.15.093.032-.02.101-.073-.036z"/>
    <path fill="#35ccf1" d="M9.44 8.757c-.038.073.048.106.048.112.004.047-.043.208-.037.277l-.082-.027.022-.362z"/>
    <path fill="#061d40" d="M9.61 7.47c-.139.003-.325-.03-.438.037v1.177l.03-.544.068-.05-.075-.026.002-.57.582.097.025-.096.11.096.012-.097.13.054c.014.086-.004.537-.15.45l-.102-.358-.218.049-.013-.074h-.072c-.065.1-.06.123-.037.244l-.073.024H9.5l.012.048c-.153.063-.136.273-.072.389l-.097.048.23.17.073-.096.146.145.012-.097c.071.02.239-.07.245.021l.097-.08.022-.645v.923h-.996l-.024-1.215c.09-.088.34-.055.462-.024m.364.195-.096.011.023.207.049-.037c-.015-.074-.022-.118.024-.181"/>
    <path fill="#87c8e5" d="M10.217 7.64v.024c.004.04-.003.082 0 .122.016.31-.024.62-.025.923h-.024V7.494a.6.6 0 0 1 .049.146"/>
    <path fill="#24c7ef" d="M10.435 8.757h-.072c.038-.2.006-.407.01-.607.002-.106.074-.091.087-.013z"/>
    <path fill="#66defa" d="M8.177 7.3c.005.124-.022.24-.024.364v.025h-.146l-.024 1.165.016-1.55c.056-.016.125.006.178-.004"/>
    <path fill="#40d9f8" d="m9.73 6.888.025.29-.048-.035-.024-.086-.025.13-.06.016-.037-.316z"/>
    <path fill="#42dcfa" d="m10.07 7.179-.069-.041.021-.178h-.084l-.016.203-.058.016.013-.305.217.051z"/>
    <path fill="#061738" d="M10.168 7.494v.292l-.022.644-.097.081c-.006-.09-.173-.002-.245-.02l-.012.096-.146-.145-.072.096-.231-.17.097-.048c-.064-.116-.08-.326.072-.389L9.5 7.883h-.11l.073-.024c-.023-.121-.028-.145.037-.244h.072l.013.074.218-.049.102.359c.146.086.163-.365.15-.451l-.13-.054-.013.097-.109-.096-.025.096-.582-.097-.002.57.075.025-.069.051-.029.544V7.507c.113-.068.3-.034.438-.037.096-.002.51-.027.558.024"/>
    <path fill="#33d5f3" d="m9.1 6.523.012.17.06-.17.025.364-.217-.04.077-.294z"/>
    <path fill="#46d8f6" d="M8.128 8.611h-.072l.036-.242z"/>
    <path fill="#061738" d="M9.974 7.665c-.046.063-.039.107-.024.18l-.049.038-.023-.207z"/>
  </g>
  <defs>
    <linearGradient id="skyai_svg__b" x1="6.775" x2="13.444" y1="10.823" y2="11.127" gradientUnits="userSpaceOnUse">
      <stop stop-color="#e6edf9"/>
      <stop offset=".191" stop-color="#f1f0fc"/>
      <stop offset=".642" stop-color="#c3c5f5"/>
      <stop offset=".811" stop-color="#c6cafa"/>
      <stop offset="1" stop-color="#a5a6de"/>
    </linearGradient>
    <linearGradient id="skyai_svg__c" x1="8.605" x2="11.803" y1="13.401" y2="15.74" gradientUnits="userSpaceOnUse">
      <stop stop-color="#d6d7f9"/>
      <stop offset=".214" stop-color="#d8d8fa"/>
      <stop offset=".649" stop-color="#acadec"/>
      <stop offset=".773" stop-color="#bbbcf4"/>
      <stop offset="1" stop-color="#948ed3"/>
    </linearGradient>
    <linearGradient id="skyai_svg__d" x1="6.709" x2="8.224" y1="13.892" y2="14.366" gradientUnits="userSpaceOnUse">
      <stop stop-color="#e4eaf8"/>
      <stop offset=".2" stop-color="#eeecfa"/>
      <stop offset=".815" stop-color="#b5b2ec"/>
      <stop offset="1" stop-color="#c2bdf0"/>
    </linearGradient>
    <linearGradient id="skyai_svg__e" x1="11.881" x2="12.864" y1="15.707" y2="15.707" gradientUnits="userSpaceOnUse">
      <stop stop-color="#e6edf9"/>
      <stop offset=".191" stop-color="#f1f0fc"/>
      <stop offset=".642" stop-color="#c3c5f5"/>
      <stop offset=".981" stop-color="#c6cafa"/>
    </linearGradient>
    <clipPath id="skyai_svg__a">
      <path fill="#fff" d="M0 0h20v20H0z"/>
    </clipPath>
  </defs>
</svg>
