<svg xmlns="http://www.w3.org/2000/svg" fill="none" viewBox="0 0 20 20">
  <g clip-path="url(#smooth-love-potion_svg__a)">
    <path fill="#0b4431" d="M9.825 20.002H9.8c-4.188-.012-6.195-2.018-7.148-3.686a7.98 7.98 0 0 1-.978-5.066c.188-1.505.79-3.085 1.743-4.54A14 14 0 0 1 5.65 4.079c.615-.565 1.116-.928 1.517-1.091-.125-.514-.2-1.33-.225-1.605v-.05c-.013-.64.702-.928.94-1.029a4.3 4.3 0 0 1 1.505-.3 6 6 0 0 1 1.454.125c.264.062 1.054.238 1.066.915l.038 1.154c0 .213-.013.4-.038.576 2.245.79 4.15 3.16 4.928 4.44a11.6 11.6 0 0 1 1.417 3.648c.401 2.094.063 3.963-1.016 5.58-2.22 3.298-6.194 3.561-7.41 3.561M7.593 4.278c-.502.276-1.956 1.492-3.035 3.173-1.066 1.642-2.583 4.902-.714 8.2 1.103 1.956 3.172 2.997 5.968 3.01h.025c1.041 0 4.44-.226 6.257-2.96 2.144-3.21.025-7.034-.426-7.761-.389-.64-1.179-1.68-2.157-2.558l-4.1-.627-3.11.614 1.643-.928a1.3 1.3 0 0 1-.188-.088 1 1 0 0 1-.163-.075m3.749-.025 1.542.602c-.414-.301-.84-.564-1.291-.74a3 3 0 0 1-.2.113c-.013.013-.026.025-.051.025M8.307 1.595c.063.514.138 1.04.189 1.191.1.276.263.451.514.552l.501.2.427-.238c.225-.125.376-.313.388-.326l.05-.075.026-.013c.037-.05.163-.25.15-.64v-.79c-.238-.062-.652-.112-1.141-.1a3.1 3.1 0 0 0-1.104.239"/>
    <path fill="#77baa1" d="M16.646 16.065c-2.056 3.097-5.868 3.26-6.846 3.26-1.23 0-4.753-.15-6.558-3.348-1.73-3.06-.916-6.357.74-8.903 1.29-1.993 3.147-3.498 3.623-3.523.088 0 .226.088.44.188.3.138.764.313 1.491.25.84-.075 1.292-.225 1.555-.363.301-.15.376-.276.502-.226 2.156.728 3.987 3.098 4.652 4.176.714 1.179 2.67 5.09.401 8.489"/>
    <path fill="#f3acbb" d="M4.37 9.319s-.94 2.295-.74 4.012c.189 1.656 1.305 4.113 4.038 4.715s4.502-.1 6.019-.777c1.505-.677 2.546-2.094 2.696-3.436s.163-3.298-.59-4.89"/>
    <path fill="#89b772" d="M11.041 5.106c-.088.313-1.517.614-2.17.439-.639-.176-.689-.59-.84-1.806.302.138.766.313 1.493.25.84-.075 1.291-.225 1.555-.363.025.314.05 1.179-.038 1.48"/>
    <path fill="#f08fa2" d="M7.643 16.617a1.04 1.04 0 0 1-.063-.552c.088-.677.564-2.47 3.035-3.824 3.097-1.706 4.727-.264 4.727-.264s.978.865.238 2.922c-.74 2.044-4.363 2.796-4.363 2.796s-2.885.665-3.574-1.078m-2.984-3.749c-.2 0-.213-.79.038-1.142.4-.564 1.09-.037 1.09-.037s-.601 1.179-1.128 1.179"/>
    <path fill="#f8d0d9" d="M15.794 8.943c0-.301-2.558-.54-5.718-.54s-5.718.615-5.718.916c0 .3 2.558.827 5.718.827s5.718-.902 5.718-1.203"/>
    <path fill="#dd8843" d="M7.605 1.319s.214 1.317.301 1.693c.076.313.565.99 1.467 1.09.966.1 1.518-.74 1.518-.74s.388-.363.363-1.14l-.037-1.154s-2.032.188-3.612.25"/>
    <path fill="#ebb646" d="M11.217 1.068c0-.188-.84-.414-1.818-.389-.99.025-1.806.452-1.793.64 0 .188.84.476 1.818.451.99-.025 1.793-.514 1.793-.702"/>
    <path fill="#fff" d="M4.834 9.683a.42.42 0 0 1-.238-.176c-.175-.276-.426-1.003.577-2.395 1.304-1.83 2.006-1.216 2.006-1.216s.865.439-.075 1.98c-.013.013-.013.026-.025.039-.088.213-1.016 2.106-2.245 1.768m9.305 7.385a.374.374 0 0 1-.314-.439c.05-.263.2-.664.64-1.053.677-.602 1.166-.063 1.278.088a.4.4 0 0 1 .05.113c.026.125.013.376-.325.752-.39.426-.866.627-1.33.54"/>
    <path fill="#a5d4c1" d="M17.273 11.513c.125.326-.803-.89-.928-.903-.188-.025-1.141 2.283-1.38 2.345-.3.075-2.745-1.705-3.272-1.655-.94.063-2.872 2.897-3.122 2.947-.301.05-2.458-2.533-3.235-2.633-.264-.038-2.082 2.169-2.232 2.006-.076-.075-.251-1.83-.226-2.32.025-.313.238 1.229.326 1.229.15.012 1.818-1.655 2.17-1.63.313.025 2.783 2.22 3.021 2.17s2.633-2.408 3.148-2.484c.4-.05 2.532 1.492 3.11 1.392.35-.05 1.429-1.956 1.617-2.006.163-.013.865 1.191 1.003 1.542"/>
  </g>
  <defs>
    <clipPath id="smooth-love-potion_svg__a">
      <path fill="#fff" d="M0 0h20v20H0z"/>
    </clipPath>
  </defs>
</svg>
