<svg xmlns="http://www.w3.org/2000/svg" viewBox="0 0 800 800">
  <defs>
    <linearGradient id="b" x1="197.56" x2="602.44" y1="199.56" y2="604.44" gradientTransform="matrix(1 0 0 -1 0 802)" gradientUnits="userSpaceOnUse">
      <stop offset="0" stop-color="#9945ff"/>
      <stop offset=".2" stop-color="#7962e7"/>
      <stop offset="1" stop-color="#00d18c"/>
    </linearGradient>
    <clipPath id="a">
      <path fill="none" d="M178.3 206.01h443.4v387.97H178.3z"/>
    </clipPath>
  </defs>
  <circle cx="400" cy="400" r="369.5"/>
  <g clip-path="url(#a)">
    <path fill="url(#b)" d="M258.52 501.85a14.86 14.86 0 0 1 5-3.59 15.13 15.13 0 0 1 6-1.27l338.61.28a7.44 7.44 0 0 1 5.49 12.46l-72.11 79.4a14.86 14.86 0 0 1-11 4.86l-338.6-.28a7.45 7.45 0 0 1-5.49-12.46Zm355.07-66.09a7.44 7.44 0 0 1-5.49 12.46l-338.6.28a14.86 14.86 0 0 1-11-4.86l-72.09-79.44a7.47 7.47 0 0 1-1.84-3.82 7.43 7.43 0 0 1 3.27-7.43 7.52 7.52 0 0 1 4.06-1.22l338.61-.27a14.81 14.81 0 0 1 11 4.86ZM258.52 210.87a14.81 14.81 0 0 1 11-4.86l338.61.28a7.44 7.44 0 0 1 6.8 4.44 7.42 7.42 0 0 1-1.31 8l-72.11 79.4a14.86 14.86 0 0 1-11 4.86l-338.6-.28a7.42 7.42 0 0 1-6.8-4.45 7.46 7.46 0 0 1 1.31-8Z"/>
  </g>
</svg>
