<svg xmlns="http://www.w3.org/2000/svg" fill="none" viewBox="0 0 100 100">
  <circle cx="50" cy="50" r="50" fill="#2D2D2D"/>
  <path fill="#EEE" d="M48.764 76.563c5.61 0 11.137-1.39 15.707-4.644a17.75 17.75 0 0 0 4.903-5.46 17.6 17.6 0 0 0 2.239-6.966l-10.835-.04a10.83 10.83 0 0 1-3.87 5.958c-2.294 1.75-5.133 2.474-8.014 2.474-2.54 0-5.059-.536-7.085-2.083a6.2 6.2 0 0 1-1.621-2.114 6.1 6.1 0 0 1-.585-2.593c0-1.09.145-2.182.703-3.127a5.2 5.2 0 0 1 2.402-2.123 43 43 0 0 1 8.563-2.472 63 63 0 0 0 8.465-2.415 18.7 18.7 0 0 0 7.012-4.32 10.3 10.3 0 0 0 2.184-3.511c.481-1.304.624-2.697.626-4.088 0-2.105-.389-4.199-1.254-6.12a14.2 14.2 0 0 0-3.762-4.983c-4.01-3.187-9.056-4.498-14.174-4.498-4.871 0-9.684 1.184-13.64 4.036a16.5 16.5 0 0 0-6.175 11.521l10.329.04a7.5 7.5 0 0 1 3.01-5.091c1.956-1.306 4.283-1.814 6.632-1.814 2.226 0 4.43.47 6.28 1.71a5.1 5.1 0 0 1 1.64 1.899c.387.758.567 1.597.565 2.445 0 .93-.359 1.82-.906 2.563-.553.745-1.33 1.215-2.19 1.612a39.2 39.2 0 0 1-8.157 2.728 89 89 0 0 0-9.381 2.58 16.6 16.6 0 0 0-6.955 4.306c-1.925 2.35-2.67 5.34-2.67 8.368 0 2.204.36 4.395 1.277 6.401a14.2 14.2 0 0 0 4.001 5.158c4.197 3.282 9.425 4.662 14.736 4.662"/>
</svg>
