<svg xmlns="http://www.w3.org/2000/svg" fill="none" viewBox="0 0 20 20">
  <circle cx="10" cy="10" r="10" fill="#000"/>
  <path fill="url(#sonic_svg__a)" d="M11.94 12.305c-3.592 1.077-6.562 2.648-8.421 4.49l-.082.081a9.6 9.6 0 0 0 1.622 1.241l.126-.154a24 24 0 0 1 1.619-1.782 24 24 0 0 1 5.137-3.878z"/>
  <path fill="#F5F5F5" d="M11.94 12.305c-3.592 1.077-6.562 2.648-8.421 4.49l-.082.081a9.6 9.6 0 0 0 1.622 1.241l.126-.154a24 24 0 0 1 1.619-1.782 24 24 0 0 1 5.137-3.878z"/>
  <path fill="url(#sonic_svg__b)" d="M.5 10.709a9.4 9.4 0 0 0 1.978 5.115l.051-.051c1.151-1.135 2.65-2.166 4.458-3.065 1.584-.789 3.403-1.465 5.364-1.999z"/>
  <path fill="#F5F5F5" d="M.5 10.709a9.4 9.4 0 0 0 1.978 5.115l.051-.051c1.151-1.135 2.65-2.166 4.458-3.065 1.584-.789 3.403-1.465 5.364-1.999z"/>
  <path fill="url(#sonic_svg__c)" d="M7.807 2.814A22.1 22.1 0 0 0 19.498 8.93C18.963 4.188 14.924.5 10.016.5a9.6 9.6 0 0 0-3.66.724c.459.551.947 1.087 1.451 1.59"/>
  <path fill="#F5F5F5" d="M7.807 2.814A22.1 22.1 0 0 0 19.498 8.93C18.963 4.188 14.924.5 10.016.5a9.6 9.6 0 0 0-3.66.724c.459.551.947 1.087 1.451 1.59"/>
  <path fill="url(#sonic_svg__d)" d="M3.519 3.206c1.859 1.843 4.83 3.413 8.42 4.492A24 24 0 0 1 6.802 3.82a24 24 0 0 1-1.619-1.782l-.126-.154a9.6 9.6 0 0 0-1.62 1.24z"/>
  <path fill="#F5F5F5" d="M3.519 3.206c1.859 1.843 4.83 3.413 8.42 4.492A24 24 0 0 1 6.802 3.82a24 24 0 0 1-1.619-1.782l-.126-.154a9.6 9.6 0 0 0-1.62 1.24z"/>
  <path fill="url(#sonic_svg__e)" d="M7.807 17.186a23 23 0 0 0-1.45 1.59 9.6 9.6 0 0 0 3.659.724c4.908 0 8.948-3.688 9.484-8.43a22.1 22.1 0 0 0-11.69 6.114z"/>
  <path fill="#F5F5F5" d="M7.807 17.186a23 23 0 0 0-1.45 1.59 9.6 9.6 0 0 0 3.659.724c4.908 0 8.948-3.688 9.484-8.43a22.1 22.1 0 0 0-11.69 6.114z"/>
  <path fill="url(#sonic_svg__f)" d="M6.987 7.293c-1.808-.899-3.307-1.93-4.458-3.065l-.051-.051A9.4 9.4 0 0 0 .5 9.292h11.85c-1.961-.534-3.779-1.21-5.365-2.001z"/>
  <path fill="#F5F5F5" d="M6.987 7.293c-1.808-.899-3.307-1.93-4.458-3.065l-.051-.051A9.4 9.4 0 0 0 .5 9.292h11.85c-1.961-.534-3.779-1.21-5.365-2.001z"/>
  <defs>
    <radialGradient id="sonic_svg__a" cx="0" cy="0" r="1" gradientTransform="matrix(0 9.50036 -9.50013 0 10 10)" gradientUnits="userSpaceOnUse">
      <stop stop-color="#1C294B"/>
      <stop offset=".317" stop-color="#F43"/>
      <stop offset=".597" stop-color="#FE9A4C"/>
      <stop offset="1" stop-color="#E0E0E0"/>
    </radialGradient>
    <radialGradient id="sonic_svg__b" cx="0" cy="0" r="1" gradientTransform="matrix(0 9.50036 -9.50013 0 10 10)" gradientUnits="userSpaceOnUse">
      <stop stop-color="#1C294B"/>
      <stop offset=".317" stop-color="#F43"/>
      <stop offset=".597" stop-color="#FE9A4C"/>
      <stop offset="1" stop-color="#E0E0E0"/>
    </radialGradient>
    <radialGradient id="sonic_svg__c" cx="0" cy="0" r="1" gradientTransform="matrix(0 9.50036 -9.50013 0 10 10)" gradientUnits="userSpaceOnUse">
      <stop stop-color="#1C294B"/>
      <stop offset=".317" stop-color="#F43"/>
      <stop offset=".597" stop-color="#FE9A4C"/>
      <stop offset="1" stop-color="#E0E0E0"/>
    </radialGradient>
    <radialGradient id="sonic_svg__d" cx="0" cy="0" r="1" gradientTransform="matrix(0 9.50036 -9.50013 0 10 10)" gradientUnits="userSpaceOnUse">
      <stop stop-color="#1C294B"/>
      <stop offset=".317" stop-color="#F43"/>
      <stop offset=".597" stop-color="#FE9A4C"/>
      <stop offset="1" stop-color="#E0E0E0"/>
    </radialGradient>
    <radialGradient id="sonic_svg__e" cx="0" cy="0" r="1" gradientTransform="matrix(0 9.50036 -9.50013 0 10 10)" gradientUnits="userSpaceOnUse">
      <stop stop-color="#1C294B"/>
      <stop offset=".317" stop-color="#F43"/>
      <stop offset=".597" stop-color="#FE9A4C"/>
      <stop offset="1" stop-color="#E0E0E0"/>
    </radialGradient>
    <radialGradient id="sonic_svg__f" cx="0" cy="0" r="1" gradientTransform="matrix(0 9.50036 -9.50013 0 10 10)" gradientUnits="userSpaceOnUse">
      <stop stop-color="#1C294B"/>
      <stop offset=".317" stop-color="#F43"/>
      <stop offset=".597" stop-color="#FE9A4C"/>
      <stop offset="1" stop-color="#E0E0E0"/>
    </radialGradient>
  </defs>
</svg>
