<svg xmlns="http://www.w3.org/2000/svg" fill="none" viewBox="0 0 32 33">
  <circle cx="16" cy="16.5" r="16" fill="#d52e4c"/>
  <path fill="#fff" d="M22.391 11.74c-.615.614-.666 1.578-.311 2.373 1.076 2.415.716 5.269-1.267 7.252-1.979 1.978-4.792 2.297-7.183 1.214-.798-.36-1.768-.311-2.386.308-.747.746-.68 1.99.256 2.478 3.74 1.945 8.436 1.41 11.606-1.76s3.705-7.87 1.756-11.61c-.486-.934-1.727-1-2.47-.256M8.886 9.385C5.716 12.556 5.2 17.242 7.13 20.98c.486.94 1.733 1.008 2.481.26.617-.617.668-1.585.309-2.38-1.077-2.383-.769-5.18 1.22-7.168 1.992-1.992 4.832-2.335 7.234-1.27.794.353 1.755.3 2.37-.314.745-.746.677-1.99-.26-2.476-3.739-1.934-8.427-1.416-11.598 1.754"/>
</svg>
