<svg xmlns="http://www.w3.org/2000/svg" fill="none" viewBox="0 0 20 20">
  <path fill="#72C7FB" d="m7.102 15.575 2.426-2.98a.648.648 0 0 1 .979 0l2.425 2.98c.17.212.17.553 0 .808l-2.425 2.979a.648.648 0 0 1-.98 0l-2.425-2.979c-.17-.255-.17-.596 0-.808"/>
  <path fill="#1BA5F8" d="M16.634 8.298 14.21 5.319a.648.648 0 0 0-.979 0l-2.426 2.979c-.17.213-.17.553 0 .808l2.426 2.98a.648.648 0 0 0 .979 0l2.425-2.98c.17-.212.17-.553 0-.808M6.762 5.319a.648.648 0 0 0-.979 0L3.358 8.298c-.17.213-.17.553 0 .808l2.425 2.98a.648.648 0 0 0 .979 0l2.425-2.98c.17-.212.17-.553 0-.808zm6.17-1.702L10.507.638a.648.648 0 0 0-.98 0L7.103 3.617c-.17.213-.17.553 0 .809l2.426 2.978a.648.648 0 0 0 .979 0l2.425-2.978c.17-.213.17-.554 0-.809"/>
</svg>
