<svg xmlns="http://www.w3.org/2000/svg" fill="none" viewBox="0 0 933 933">
  <path fill="#001e1e" d="M933 0H0v933h933z"/>
  <path fill="#e8fbf7" d="M466.001 503.256c33.056-20.042 80.2-47.77 117.268-47.77 59.329 0 108.932 42.003 108.932 121.799 0 127.292-151.326 244.652-365.164 193.535-.706-.17-1.399.367-1.399 1.088v68.813c0 .467.283.874.721 1.044a397.2 397.2 0 0 0 92.922 22.458c250.536 29.454 467.001-179.531 446.353-430.951-5.92-72.093-30.313-138.391-69.631-194.47-.297-.424-.817-.692-1.555-.311l-328.25 189.735c-37.309 21.283-80.215 47.909-117.213 47.909-59.327 0-108.932-42.002-108.932-121.797 0-127.308 151.343-244.653 365.179-193.521a1.115 1.115 0 0 0 1.385-1.088V91.976c0-.466-.283-.89-.72-1.046C562.467 74.82 515.521 66 466.495 66 245.311 66 66 245.304 66 466.497c0 83.908 25.82 161.778 69.927 226.125.339.481.989.638 1.498.341z"/>
</svg>
