<svg xmlns="http://www.w3.org/2000/svg" fill="none" viewBox="0 0 20 20">
  <g fill-rule="evenodd" clip-path="url(#starknet_svg__a)" clip-rule="evenodd">
    <path fill="#0c0c4f" d="M0 10c0 5.523 4.477 10 10 10s10-4.477 10-10S15.523 0 10 0 0 4.477 0 10"/>
    <path fill="#fafafa" d="m5.59 7.644.246-.762a.5.5 0 0 1 .328-.324l.767-.236c.106-.032.107-.182.001-.216L6.17 5.86a.5.5 0 0 1-.323-.328l-.235-.766a.114.114 0 0 0-.217-.002l-.246.763a.5.5 0 0 1-.329.323l-.766.236a.113.113 0 0 0-.002.216l.763.247a.5.5 0 0 1 .323.328l.236.766a.113.113 0 0 0 .216.002"/>
    <path fill="url(#starknet_svg__b)" d="M17.702 7.2c-.316-.353-.81-.552-1.289-.633a4.4 4.4 0 0 0-1.466.013c-.966.164-1.842.563-2.607 1.056-.397.242-.736.522-1.087.807-.169.145-.323.298-.484.45l-.438.436c-.477.498-.947.952-1.401 1.328-.457.374-.883.659-1.304.857-.42.2-.87.317-1.456.336-.58.02-1.268-.084-2.003-.257-.74-.173-1.515-.418-2.383-.63.303.84.759 1.582 1.344 2.26.592.667 1.33 1.274 2.28 1.674a5.5 5.5 0 0 0 3.212.333c1.103-.212 2.07-.722 2.852-1.312a10.2 10.2 0 0 0 1.954-1.981c.147-.195.225-.304.332-.457l.296-.437c.205-.27.392-.579.595-.847.398-.561.79-1.122 1.247-1.639a7 7 0 0 1 .757-.753q.213-.179.468-.337a2.3 2.3 0 0 1 .58-.267"/>
    <path fill="#fafafa" d="M17.703 7.2c-.34-.856-.97-1.577-1.817-2.11a4.47 4.47 0 0 0-3.17-.565 5.2 5.2 0 0 0-1.614.608 6.8 6.8 0 0 0-1.294.988 10 10 0 0 0-.527.566l-.438.559-.678.9c-.863 1.158-1.793 2.515-3.318 2.916-1.498.395-2.148.046-3.062-.099.167.432.374.85.655 1.22.276.376.6.729 1.005 1.032.205.145.42.289.66.41.239.118.496.222.77.3a4.5 4.5 0 0 0 1.758.121 5.3 5.3 0 0 0 1.663-.519c.501-.248.938-.55 1.328-.87a10.6 10.6 0 0 0 1.888-2.075q.384-.541.704-1.092l.254-.436a10 10 0 0 1 .235-.376c.32-.48.634-.865 1.016-1.154.376-.296.899-.515 1.598-.566.697-.051 1.5.044 2.384.242"/>
    <path fill="#ec796b" d="M13.935 14.316a1.14 1.14 0 1 0 2.278 0 1.14 1.14 0 0 0-2.278 0"/>
  </g>
  <defs>
    <linearGradient id="starknet_svg__b" x1="17.617" x2="-8.397" y1="6.9" y2="20.434" gradientUnits="userSpaceOnUse">
      <stop stop-color="#ec796b"/>
      <stop offset="1" stop-color="#d672ef"/>
    </linearGradient>
    <clipPath id="starknet_svg__a">
      <path fill="#fff" d="M0 0h20v20H0z"/>
    </clipPath>
  </defs>
</svg>
