<svg xmlns="http://www.w3.org/2000/svg" viewBox="0 0 158 158">
  <path fill="#0c0c4f" fill-rule="evenodd" d="M0 79c0 43.6 35.4 79 79 79s79-35.4 79-79S122.6 0 79 0 0 35.4 0 79" clip-rule="evenodd"/>
  <path fill="#fafafa" fill-rule="evenodd" d="m44.2 60.4 2-6c.4-1.2 1.4-2.2 2.6-2.6l6.1-1.9c.8-.3.8-1.4 0-1.7l-6-2c-1.2-.4-2.2-1.4-2.6-2.6l-1.9-6.1c-.3-.8-1.4-.8-1.7 0l-2 6c-.4 1.2-1.4 2.2-2.6 2.6l-6.1 2c-.8.3-.8 1.4 0 1.7l6 2c1.2.4 2.2 1.4 2.6 2.6l1.9 6.1c.2.7 1.4.7 1.7-.1" clip-rule="evenodd"/>
  <path fill="#ec796b" fill-rule="evenodd" d="M139.8 56.9c-2.5-2.8-6.4-4.4-10.2-5s-7.8-.6-11.6.1c-7.6 1.3-14.6 4.4-20.6 8.3-3.1 1.9-5.8 4.1-8.6 6.4-1.3 1.1-2.6 2.4-3.8 3.5l-3.5 3.4c-3.8 3.9-7.5 7.5-11.1 10.5s-7 5.2-10.3 6.8-6.9 2.5-11.5 2.7-10-.7-15.8-2c-5.8-1.4-12-3.3-18.8-5 2.4 6.6 6 12.5 10.6 17.9 4.7 5.3 10.5 10.1 18 13.2 7.4 3.2 16.7 4.4 25.4 2.6 8.7-1.7 16.4-5.7 22.5-10.4 6.2-4.7 11.2-10.1 15.4-15.7 1.2-1.5 1.8-2.4 2.6-3.6l2.3-3.5c1.6-2.1 3.1-4.6 4.7-6.7 3.1-4.4 6.2-8.9 9.9-12.9 1.8-2.1 3.7-4.1 6-6 1.1-.9 2.3-1.8 3.7-2.7 1.5-.7 3-1.4 4.7-1.9" clip-rule="evenodd"/>
  <path fill="#fafafa" fill-rule="evenodd" d="M139.8 56.9c-2.7-6.8-7.7-12.5-14.4-16.7-6.6-4.2-15.9-6.3-25-4.5-4.5.9-8.9 2.6-12.7 4.8s-7.3 4.9-10.2 7.8c-1.5 1.4-2.8 3-4.2 4.5l-3.5 4.4-5.3 7.1c-6.8 9.1-14.2 19.9-26.2 23-11.8 3.1-17 .4-24.2-.8 1.3 3.4 3 6.7 5.2 9.6 2.2 3 4.7 5.8 7.9 8.2 1.6 1.1 3.3 2.3 5.2 3.2s3.9 1.7 6.1 2.4c4.3 1.2 9.2 1.6 13.9 1s9.2-2.1 13.1-4.1c4-2 7.4-4.4 10.5-6.9 6.1-5.1 10.9-10.7 14.9-16.4 2-2.8 3.9-5.7 5.6-8.6l2-3.4c.6-1 1.2-2 1.9-3 2.5-3.8 5-6.8 8-9.1s7.1-4.1 12.6-4.5c5.5-.3 11.9.4 18.8 2" clip-rule="evenodd"/>
  <path fill="#ec796b" fill-rule="evenodd" d="M110.1 113.1c0 5 4 9 9 9s9-4 9-9-4-9-9-9-9 4-9 9" clip-rule="evenodd"/>
</svg>
