<svg xmlns="http://www.w3.org/2000/svg" fill="none" viewBox="0 0 20 20">
  <path fill="#000" d="M0 0h20v20H0z"/>
  <path fill="#999" d="m10.928 5.102.277.649a5.38 5.38 0 0 0 2.833 2.833l.65.278c.17.072.307.176.414.3a5.26 5.26 0 0 0-4.475-4.475c.124.107.228.245.3.415m-5.826 3.76.649-.278a5.38 5.38 0 0 0 2.834-2.833l.277-.65c.066-.158.17-.3.3-.413a5.26 5.26 0 0 0-4.475 4.474 1.1 1.1 0 0 1 .415-.3m9.586 2.065-.65.277a5.38 5.38 0 0 0-2.833 2.833l-.277.65c-.067.159-.17.3-.3.414a5.26 5.26 0 0 0 4.474-4.474 1.1 1.1 0 0 1-.415.3m-5.826 3.76-.277-.65a5.38 5.38 0 0 0-2.834-2.833l-.65-.277a1.1 1.1 0 0 1-.413-.3A5.26 5.26 0 0 0 9.162 15.1a1.1 1.1 0 0 1-.3-.414"/>
  <path fill="#f2f2f2" d="m7.532 9.385.32-.136A2.65 2.65 0 0 0 9.25 7.852l.136-.32a.553.553 0 0 1 1.018 0l.136.32a2.65 2.65 0 0 0 1.396 1.397l.32.136a.553.553 0 0 1 0 1.018l-.32.136a2.65 2.65 0 0 0-1.396 1.397l-.136.32a.553.553 0 0 1-1.018 0l-.136-.32a2.65 2.65 0 0 0-1.397-1.397l-.32-.136a.553.553 0 0 1 0-1.018"/>
</svg>
