<svg xmlns="http://www.w3.org/2000/svg" viewBox="0 0 85 85">
  <circle cx="42.5" cy="42.5" r="42.5"/>
  <path fill="#FFF" d="M68 32v4.5l-1.9.9c-1.4.8-2.2 2.3-2.1 3.9.1.6.1 1.1.1 1.7 0 8.3-4.6 15.8-11.8 19.6-7.2 3.8-15.9 3.1-22.5-1.8l3.8-2 .2-.1c5.5 3.1 12.2 3.1 17.6-.2 5.4-3.2 8.8-9.1 8.8-15.5 0-.8-.1-1.6-.2-2.4L30.3 56.1l-6.1 3.2L17 63v-4.5l7.2-3.8 3.5-1.8L68 32Zm-35.3-8.6c7.2-3.8 15.9-3.1 22.5 1.8l-.5.3-3.6 1.8c-5.4-3.1-12.1-3-17.5.2s-8.7 9.1-8.7 15.5c0 .8 0 1.6.1 2.4l29.7-15.5 6.1-3.1L68 23v4.5l-7.3 3.8-3.5 1.8L26 49.3l-1.8 1-1.7.9L17 54v-4.5l1.9-1c1.4-.7 2.2-2.2 2.1-3.8-.1-.6-.1-1.1-.1-1.7 0-8.3 4.6-15.8 11.8-19.6Z"/>
</svg>
