<svg xmlns="http://www.w3.org/2000/svg" fill="none" viewBox="0 0 20 20">
  <circle cx="10" cy="10" r="10" fill="#fff"/>
  <path fill="#000" d="M5.011 10.68a5.35 5.35 0 0 1 .625-3.267A5.13 5.13 0 0 1 7.46 5.51a4.9 4.9 0 0 1 2.495-.715 4.9 4.9 0 0 1 2.509.661l1.152-.607a5.98 5.98 0 0 0-6.41-.52 6.24 6.24 0 0 0-2.453 2.346 6.53 6.53 0 0 0-.888 3.81 1.2 1.2 0 0 1-.14.654c-.109.199-.271.36-.468.464l-.529.279v1.3l14.546-7.665v-1.3zm12.262-3.86L5.79 12.865l-3.064 1.616v1.299l12.265-6.463q.043.341.043.685a5.35 5.35 0 0 1-.668 2.59 5.13 5.13 0 0 1-1.825 1.903 4.9 4.9 0 0 1-2.498.713 4.9 4.9 0 0 1-2.511-.665l-.062.034-1.086.572a5.98 5.98 0 0 0 6.41.52 6.24 6.24 0 0 0 2.452-2.343 6.53 6.53 0 0 0 .89-3.813 1.2 1.2 0 0 1 .14-.654c.107-.2.27-.361.466-.465l.53-.279z"/>
</svg>
