<svg xmlns="http://www.w3.org/2000/svg" fill="none" viewBox="0 0 20 20">
  <circle cx="10" cy="10" r="10" fill="#eecf7d"/>
  <path fill="#231f20" fill-rule="evenodd" d="M9.091 1.742a8.32 8.32 0 0 0-4.95 2.357C2.731 5.496 1.9 7.248 1.7 9.247c-.18 1.804.312 3.789 1.32 5.319.967 1.464 2.424 2.633 4.03 3.231.976.364 1.85.518 2.931.518 1.401 0 2.61-.289 3.798-.908a8.24 8.24 0 0 0 3.662-3.73 8.25 8.25 0 0 0-.026-7.381A8.4 8.4 0 0 0 13.47 2.46c-1.307-.604-2.976-.878-4.378-.718m2.28.84c1.53.315 2.785.966 3.853 1.999a7.55 7.55 0 0 1-9.839 11.427 7.56 7.56 0 0 1-2.96-5.988A7.58 7.58 0 0 1 6.18 3.483c.868-.51 1.823-.826 3.012-.994.067-.01.494-.011.95-.003.63.01.924.034 1.229.097M8.324 5.496v1.252h-2.91l.01 3.263.01 3.263 1.445.01 1.445.01v2.505h.727v-2.505h1.737v2.505h.768v-2.505h2.707V9.616l-2.737.01-2.738.01-.011.374-.012.374h4.73v2.141H6.182v-5.01h7.96v-.768h-2.586V4.242h-.768v2.505H9.05V4.242h-.726z" clip-rule="evenodd"/>
</svg>
