<svg xmlns="http://www.w3.org/2000/svg" fill="none" viewBox="0 0 301 301">
  <g clip-path="url(#story_svg__a)">
    <path fill="url(#story_svg__b)" d="M86.112 44.567c24.497-60.28 109.059-59.142 131.989 1.773 6.886 18.355 21.193 32.98 39.051 40.01 58.896 23.041 57.795 108.736-1.706 130.179-18.14 6.496-32.729 20.803-40.116 38.943-24.6 60.53-109.662 59.004-132.203-2.305-6.957-18.069-21.157-32.519-38.872-39.441-58.896-23.041-57.795-108.736 1.706-130.18C64.1 77.05 78.69 62.743 86.077 44.603h.035z"/>
    <path fill="url(#story_svg__c)" d="M87.85 45.972c23.838-58.66 106.126-57.555 128.445 1.727 6.704 17.86 20.625 32.093 38.004 38.932 57.312 22.42 56.243 105.816-1.659 126.684-17.654 6.32-31.854 20.245-39.037 37.899-23.942 58.903-106.716 57.416-128.653-2.245-6.77-17.586-20.589-31.647-37.828-38.382-57.312-22.42-56.243-105.816 1.66-126.683 17.653-6.321 31.853-20.246 39.036-37.9h.035v-.036z"/>
    <path fill="#ffe8ae" d="M51.387 86.946c17.654-6.32 31.855-20.245 39.037-37.9h.036v-.035C110.666-.7 172.85-7.486 204.934 27.69c-31.193-38.564-96.32-32.823-117.088 18.283v.036h-.036c-7.186 17.654-21.386 31.575-39.036 37.9C1.118 101.078-8.038 160.606 22.168 193.64c-27.006-33.523-17.003-90.035 29.22-106.695"/>
    <path fill="#ffedc0" d="M87.604 246.045c-6.21-17.439-19.888-31.464-37.234-38.565v-.035h-.033c-48.846-19.953-55.51-81.384-20.95-113.077C-8.5 125.182-2.86 189.516 47.35 210.03h.032v.036c17.343 7.1 31.02 21.125 37.234 38.565 16.875 47.076 75.36 56.121 107.814 26.28-32.937 26.677-88.455 16.799-104.821-28.865z"/>
    <path fill="#826711" d="M250.023 210.265c-17.653 6.321-31.854 20.246-39.036 37.9h-.036v.035c-20.203 49.716-82.388 56.501-114.47 21.326 31.192 38.564 96.32 32.823 117.084-18.28v-.035h.035c7.186-17.654 21.387-31.576 39.037-37.9 47.656-17.175 56.811-76.703 26.606-109.737 27.006 33.523 17.003 90.035-29.22 106.691"/>
    <path fill="#fee7a2" d="M251.724 212.471c-17.989 6.428-32.461 20.589-39.783 38.543h-.036v.036c-20.589 50.563-83.961 57.463-116.655 21.687 31.786 39.218 98.158 33.38 119.322-18.591v-.036h.036c7.322-17.954 21.794-32.111 39.784-38.543 48.564-17.464 57.894-78.008 27.113-111.603 27.525 34.092 17.328 91.565-29.777 108.507z" opacity=".3"/>
    <path fill="#000" d="M119.826 185.479H96.481v-73.79h23.345zm41.685 0h-23.345v-73.79h47.477c18.698 0 31.032 9.045 31.032 26.313s-12.334 26.313-31.032 26.313h-24.167v21.164zm22.917-40.505c6.042 0 9.259-2.789 9.259-6.972s-3.182-6.971-9.259-6.971h-22.917v13.978h22.917z"/>
  </g>
  <defs>
    <linearGradient id="story_svg__b" x1="29.347" x2="272.096" y1="79.939" y2="220.09" gradientUnits="userSpaceOnUse">
      <stop stop-color="#fee089"/>
      <stop offset=".59" stop-color="#6a5300"/>
    </linearGradient>
    <linearGradient id="story_svg__c" x1="76.835" x2="252.608" y1="74.708" y2="250.481" gradientUnits="userSpaceOnUse">
      <stop stop-color="#f7dc8f"/>
      <stop offset="1" stop-color="#cca831"/>
    </linearGradient>
    <clipPath id="story_svg__a">
      <path fill="#fff" d="M.707 0h300v300.021h-300z"/>
    </clipPath>
  </defs>
</svg>
