<svg xmlns="http://www.w3.org/2000/svg" viewBox="0 0 40 40">
  <g fill-rule="evenodd">
    <circle cx="19.583" cy="20.417" r="17.917" fill="#fff"/>
    <path fill="#fa2e53" d="m116.184 14.608-3.398 2.782a1.56 1.56 0 0 1-1.371.306l-2.02-.51 2.106-2.578zM71.7 19.764c-1.375 0-2.376 1.01-2.376 2.448 0 1.436 1 2.473 2.376 2.473 1.386 0 2.333-1.035 2.333-2.473s-.949-2.448-2.333-2.448m41.086 4.715 3.398 2.783H111.5l-2.106-2.579 2.02-.51c.48-.12.988-.006 1.371.306m-7.14-9.871 4.094 4.808a2.345 2.345 0 0 1 0 3.04l-4.094 4.808H101.9l4.523-5.314a1.56 1.56 0 0 0 0-2.026L101.9 14.61h3.746zm-8.326 2.344c1.895 0 3.643 1.014 3.643 3.75v6.562h-2.81v-5.859c0-.952-.549-1.641-1.64-1.641s-1.64.75-1.64 1.641v5.859H91.83v-5.859c0-.952-.53-1.641-1.64-1.641-1.07 0-1.639.73-1.639 1.641v5.859H85.51V17.185h2.81v1.172c.504-.891 1.85-1.405 2.94-1.405 1.434 0 2.41.648 2.914 1.64.786-1.133 1.795-1.64 3.147-1.64m-13.635 0c.14 0 .286.011.416.025v3.021a4 4 0 0 0-.548-.027c-1.23 0-2.497.833-2.497 2.839v4.454h-3.042V17.185h3.044v1.406c.525-1.132 1.821-1.639 2.627-1.639m-11.994 0c2.969 0 5.385 2.204 5.385 5.287 0 3.081-2.416 5.259-5.385 5.259-2.95 0-5.386-2.203-5.386-5.286 0-3.08 2.436-5.26 5.386-5.26m-8.196-2.577v2.812h1.64V20h-1.64v3.515c0 .831.426 1.081 1.093 1.081.322 0 .6-.064.782-.144v2.606c-.365.182-.904.442-1.875.442 0 0-.778-.005-1.17-.155-1.014-.392-1.874-1.015-1.874-3.125v-9.843h3.044zM53.66 12.5c2.4 0 3.935.96 4.683 2.108l-1.874 2.109c-.426-.52-1.074-1.405-2.81-1.405-1.19 0-2.005.85-2.005 1.64 0 .688.6 1.12 1.535 1.354 0 0 1.4.367 1.875.469 2.707.59 3.98 2.395 3.98 4.035 0 2.344-1.976 4.687-5.386 4.687-2.462 0-3.788-1.103-4.682-2.344l1.875-2.11c.569.66 1.405 1.64 3.043 1.64 1.25 0 1.874-.748 1.874-1.64 0-.729-.66-1.343-1.64-1.563-.468-.104-1.4-.339-1.874-.442-2.407-.522-3.746-1.958-3.746-4.086 0-2.714 2.408-4.452 5.152-4.452M20 0C8.955 0 0 8.954 0 20s8.955 20 20 20 20-8.955 20-20S31.045 0 20 0m-5.974 31.105H7.45l7.94-9.325a2.74 2.74 0 0 0 0-3.556L7.45 8.899h6.575v-.003l7.183 8.437a4.12 4.12 0 0 1 0 5.334zm10.276-.003-3.699-4.524 3.548-.896a2.75 2.75 0 0 1 2.404.537l5.965 4.883zm2.253-17.324a2.74 2.74 0 0 1-2.404.536l-3.548-.894 3.7-4.524h8.217z"/>
  </g>
</svg>
