<svg xmlns="http://www.w3.org/2000/svg" fill="none" viewBox="0 0 20 20">
  <circle cx="10" cy="10" r="10" fill="#12272d"/>
  <path fill="#e0e0e0" fill-rule="evenodd" d="M16.127 12.118H15.9c-.49-.002-.945-.398-.94-.817.006-.435.448-.817.943-.815q.1 0 .2.004c.158.003.317.007.474-.005.305-.022.4-.153.414-.553.011-.315-.145-.45-.447-.46l-.223-.006a5 5 0 0 1-.688-.048c-.364-.062-.663-.428-.671-.753-.008-.307.272-.656.636-.747.17-.043.355-.046.532-.042q.051 0 .098.002c.612.012.808.016.767-.886-.017-.367-.155-.49-.538-.49q-1.296-.003-2.59 0l-.04-.001h-1.534c-.258.001-.403.125-.41.368-.006.24-.004.48-.003.72l.001.31-.029.853c-.009.309-.122.44-.44.478-.376.044-.635-.057-.664-.433l-.01-.056a.4.4 0 0 1-.01-.063l-.04-.795-.05-1.004c-.012-.238-.16-.376-.406-.378h-.438c-.271.002-.401.112-.423.373q-.02.276-.032.553l-.014.285-.015.287c-.014.26-.027.52-.049.78-.025.3-.153.433-.455.455-.422.03-.652-.086-.655-.532a83 83 0 0 0-.014-.906l-.01-.503.001-.172V6.98l.001-.008v-.008l-.002-.047-.001-.044c-.01-.211-.143-.366-.34-.37h-.072q-.021-.003-.044-.001H3.345c-.198.005-.334.16-.344.37v.22L3 12.953v.086l.001.089c.01.212.146.367.344.372h.954c.267 0 .408-.136.419-.392l.003-.09c.004-.105.007-.209.02-.312.044-.324.22-.492.553-.53q.218-.022.433 0c.334.038.488.206.53.53.015.103.018.207.022.311l.003.09q.017.387.42.392.529.002 1.059 0h1.138c.23-.002.392-.15.408-.363q.024-.34.045-.679.022-.363.048-.725l.005-.066c.017-.216.033-.434.083-.643.08-.336.393-.495.71-.384.22.077.319.254.351.457a10 10 0 0 1 .088.832q.022.276.04.551.022.319.048.636c.021.247.167.383.43.384h5.342c.32-.001.429-.093.476-.389.031-.193.036-.397.01-.591-.037-.295-.177-.395-.49-.4zm-10.824-1.63a.52.52 0 0 1-.398-.387c-.06-.229-.059-.459.071-.666.133-.212.394-.293.679-.23.22.05.377.223.414.462q.008.06.012.12l.005.061c.022.549-.43.734-.783.64" clip-rule="evenodd"/>
</svg>
