<svg xmlns="http://www.w3.org/2000/svg" fill="none" viewBox="0 0 512 512">
  <g clip-path="url(#student-coin_svg__a)">
    <rect width="512" height="512" fill="#fff" rx="256"/>
    <path fill="#0E2585" d="M-1 0h513v512H-1z"/>
    <path fill="#fff" fill-rule="evenodd" d="M446.071 256.698c0 105.359-85.41 190.769-190.769 190.769-105.359 0-190.769-85.41-190.769-190.769 0-105.359 85.41-190.769 190.769-190.769 105.359 0 190.769 85.41 190.769 190.769Zm18.513 0c0 115.583-93.699 209.282-209.282 209.282-115.584 0-209.282-93.699-209.282-209.282 0-115.583 93.698-209.282 209.282-209.282 115.583 0 209.282 93.699 209.282 209.282ZM254.489 152.057l-131.454 67.198 131.454 66.993 60.26-30.088v54.41l-60.175 30.045-59.935-30.545v-37.704h-18.478v49.054l78.328 39.919 78.738-39.314v-75.109l-.13-.016-21-10.097-57.523 28.721-90.839-46.294 90.84-46.437 1.441.722 114.168 54.892v43.959h18.479v-53.105l-.017.002.017-.008-134.174-67.198Z" clip-rule="evenodd"/>
  </g>
  <defs>
    <clipPath id="student-coin_svg__a">
      <rect width="512" height="512" fill="#fff" rx="256"/>
    </clipPath>
  </defs>
</svg>
