<svg xmlns="http://www.w3.org/2000/svg" fill="none" viewBox="0 0 300 384">
  <path fill="#4DA2FF" fill-rule="evenodd" d="M240.057 159.914c15.641 19.639 24.995 44.476 24.995 71.493 0 27.017-9.638 52.612-25.69 72.361l-1.391 1.707-.363-2.165a104.234 104.234 0 0 0-1.106-5.561c-8.042-35.328-34.237-65.615-77.354-90.152-29.119-16.526-45.787-36.402-50.163-59.011-2.828-14.614-.727-29.292 3.333-41.869 4.061-12.56 10.096-23.098 15.231-29.434l16.779-20.508c2.939-3.602 8.453-3.602 11.391 0l84.354 103.139h-.016Zm26.527-20.492L154.155 1.967c-2.148-2.623-6.162-2.623-8.31 0L33.432 139.422l-.364.459C12.387 165.555 0 198.181 0 233.698c0 82.71 67.164 149.763 150 149.763 82.837 0 150-67.053 150-149.763 0-35.517-12.387-68.143-33.068-93.802l-.364-.458.016-.016Zm-206.246 20.05 10.049-12.308.3 2.275c.237 1.801.537 3.602.885 5.419 6.509 34.143 29.75 62.598 68.601 84.638 33.779 19.228 53.449 41.332 59.105 65.568 2.37 10.112 2.781 20.065 1.754 28.771l-.063.537-.49.237c-15.246 7.441-32.389 11.628-50.495 11.628-63.53 0-115.036-51.411-115.036-114.846 0-27.238 9.496-52.249 25.359-71.951l.031.032Z" clip-rule="evenodd"/>
</svg>
