<svg xmlns="http://www.w3.org/2000/svg" fill="none" viewBox="0 0 20 20">
  <circle cx="10" cy="10" r="10" fill="#63a1f8"/>
  <path fill="#fff" fill-rule="evenodd" d="M13.001 8.793a3.75 3.75 0 0 1 .833 2.361 3.75 3.75 0 0 1-.856 2.39l-.046.057-.013-.072a3 3 0 0 0-.037-.184c-.268-1.167-1.14-2.167-2.578-2.977-.97-.546-1.526-1.203-1.672-1.95-.094-.482-.024-.967.112-1.382.135-.415.336-.763.507-.973l.56-.677a.247.247 0 0 1 .379 0zm.885-.677-3.747-4.541a.18.18 0 0 0-.278 0l-3.747 4.54-.012.016A4.9 4.9 0 0 0 5 11.229c0 2.733 2.239 4.948 5 4.948s5-2.215 5-4.947a4.9 4.9 0 0 0-1.102-3.1zm-6.875.662.335-.406.01.075q.012.089.03.179c.216 1.127.991 2.068 2.286 2.796 1.126.635 1.782 1.365 1.97 2.166.08.334.094.663.06.95l-.003.018-.016.008a3.85 3.85 0 0 1-1.683.384c-2.118 0-3.834-1.698-3.834-3.794 0-.9.316-1.726.845-2.376" clip-rule="evenodd"/>
</svg>
