<svg xmlns="http://www.w3.org/2000/svg" fill="none" viewBox="0 0 20 20">
  <g clip-path="url(#sun-new_svg__a)">
    <path fill="#fff1ac" d="M9.992 20.006C15.52 20.006 20 15.526 20 9.998S15.52-.009 9.992-.009-.015 4.47-.015 9.998s4.48 10.008 10.007 10.008"/>
    <path fill="#fff" d="M9.992 18.47a8.471 8.471 0 1 0 0-16.943 8.471 8.471 0 0 0 0 16.943"/>
    <path fill="#ffd609" d="M11.718 11.658h-2.19l1.304-10.096a8.48 8.48 0 0 0-9.396 8.427 8.47 8.47 0 0 0 8.09 8.463z"/>
    <path fill="#ffd609" fill-rule="evenodd" d="m6.657 13.91.247-.343c.249-.343.248-.344.248-.344l.004.003.02.014.09.059a5.8 5.8 0 0 0 1.656.686c1.067.255 2.478.255 3.913-.764l.49.691c-1.68 1.193-3.358 1.193-4.6.896a6.7 6.7 0 0 1-1.908-.791l-.146-.097-.01-.006-.003-.002z" clip-rule="evenodd"/>
    <path fill="#fff" d="m6.657 13.91.247-.343c.249-.343.248-.344.248-.344l.004.003.02.014.09.059a5.8 5.8 0 0 0 1.656.686c.59.14 1.286.204 2.032.06l-.29.898c-.71.075-1.37.001-1.939-.135a6.7 6.7 0 0 1-1.908-.791l-.146-.097-.01-.006-.003-.002z"/>
    <path fill="#000" d="M3.363 6.738h13.26l-1.642 4.42h-3.855L9.994 8.494l-.964 2.72H5.12z"/>
  </g>
  <defs>
    <clipPath id="sun-new_svg__a">
      <path fill="#fff" d="M0 0h20v20H0z"/>
    </clipPath>
  </defs>
</svg>
