<svg xmlns="http://www.w3.org/2000/svg" fill="none" viewBox="0 0 20 20">
  <g clip-path="url(#superrare_svg__a)">
    <mask id="superrare_svg__b" width="20" height="20" x="0" y="0" maskUnits="userSpaceOnUse" style="mask-type:alpha">
      <path fill="#000" d="M9.997 19.994c5.521 0 9.997-4.476 9.997-9.997S15.518 0 9.997 0 0 4.476 0 9.997s4.476 9.997 9.997 9.997"/>
    </mask>
    <g mask="url(#superrare_svg__b)">
      <g filter="url(#superrare_svg__c)">
        <ellipse cx="4.953" cy="11.765" fill="#8cff9a" rx="10.766" ry="7.746" transform="rotate(-30.76 4.953 11.765)"/>
      </g>
      <g filter="url(#superrare_svg__d)">
        <ellipse cx="2.717" cy="3.37" fill="#d6ff38" rx="10.761" ry="7.717"/>
      </g>
      <g filter="url(#superrare_svg__e)">
        <ellipse cx="21.087" cy="7.174" fill="#ffbcff" rx="8.478" ry="7.826"/>
      </g>
      <g filter="url(#superrare_svg__f)">
        <ellipse cx="11.433" cy="20.026" fill="#31ffff" rx="10.766" ry="7.746" transform="rotate(-30.76 11.433 20.026)"/>
      </g>
      <g filter="url(#superrare_svg__g)">
        <ellipse cx="18.804" cy="-.543" fill="#e6b460" rx="10.761" ry="7.717"/>
      </g>
    </g>
    <path fill="#000" fill-rule="evenodd" d="M14.51 12.611c0 2.963-2.39 3.884-4.182 3.884-.552 0-1.117-.1-1.664-.195-.515-.09-1.015-.178-1.473-.178-.772 0-1.22.149-1.568.348v-4.98h.024c.772 1.818 2.166 4.756 4.855 4.756 1.37 0 2.316-.747 2.316-2.216 0-.942-.771-1.53-2.021-2.08V8.746c2.255.81 3.714 1.808 3.714 3.865M9.548 8.274c-1.68-.666-2.505-1.177-2.505-2.285 0-1.47 1.12-2.216 2.39-2.216 1.718 0 3.062 1.469 4.456 4.158h.025l-.224-4.258c-.224.05-.523.1-.797.1-.474 0-.876-.056-1.316-.118-.53-.074-1.115-.156-1.945-.156-1.867 0-4.257 1.07-4.257 3.884 0 1.718.746 2.913 3.585 3.859q.303.108.588.213z" clip-rule="evenodd"/>
    <path fill="#000" d="M10.747 1.75h-1.25v1.999h1.25zm0 14.495h-1.25v2h1.25z"/>
  </g>
  <defs>
    <filter id="superrare_svg__c" width="26.133" height="23.278" x="-8.114" y=".126" color-interpolation-filters="sRGB" filterUnits="userSpaceOnUse">
      <feFlood flood-opacity="0" result="BackgroundImageFix"/>
      <feBlend in="SourceGraphic" in2="BackgroundImageFix" result="shape"/>
      <feGaussianBlur result="effect1_foregroundBlur_4017_53611" stdDeviation="1.5"/>
    </filter>
    <filter id="superrare_svg__d" width="27.522" height="21.435" x="-11.043" y="-7.348" color-interpolation-filters="sRGB" filterUnits="userSpaceOnUse">
      <feFlood flood-opacity="0" result="BackgroundImageFix"/>
      <feBlend in="SourceGraphic" in2="BackgroundImageFix" result="shape"/>
      <feGaussianBlur result="effect1_foregroundBlur_4017_53611" stdDeviation="1.5"/>
    </filter>
    <filter id="superrare_svg__e" width="22.956" height="21.652" x="9.609" y="-3.652" color-interpolation-filters="sRGB" filterUnits="userSpaceOnUse">
      <feFlood flood-opacity="0" result="BackgroundImageFix"/>
      <feBlend in="SourceGraphic" in2="BackgroundImageFix" result="shape"/>
      <feGaussianBlur result="effect1_foregroundBlur_4017_53611" stdDeviation="1.5"/>
    </filter>
    <filter id="superrare_svg__f" width="26.133" height="23.278" x="-1.634" y="8.387" color-interpolation-filters="sRGB" filterUnits="userSpaceOnUse">
      <feFlood flood-opacity="0" result="BackgroundImageFix"/>
      <feBlend in="SourceGraphic" in2="BackgroundImageFix" result="shape"/>
      <feGaussianBlur result="effect1_foregroundBlur_4017_53611" stdDeviation="1.5"/>
    </filter>
    <filter id="superrare_svg__g" width="27.522" height="21.435" x="5.043" y="-11.261" color-interpolation-filters="sRGB" filterUnits="userSpaceOnUse">
      <feFlood flood-opacity="0" result="BackgroundImageFix"/>
      <feBlend in="SourceGraphic" in2="BackgroundImageFix" result="shape"/>
      <feGaussianBlur result="effect1_foregroundBlur_4017_53611" stdDeviation="1.5"/>
    </filter>
    <clipPath id="superrare_svg__a">
      <path fill="#fff" d="M0 0h20v20H0z"/>
    </clipPath>
  </defs>
</svg>
