<svg xmlns="http://www.w3.org/2000/svg" viewBox="0 0 310 310">
  <path fill="#231f20" fill-rule="evenodd" d="M137 0h35c71.4 11.9 116.2 52.9 134.5 123 1.5 8.4 2.7 16.8 3.5 25v13c-5.2 61.5-35.2 106.3-90 134.5-18.9 8.5-38.6 13.3-59 14.5h-13C82.1 303.9 35.9 270.6 9.5 210 5 197.5 1.9 184.8 0 172v-35C14 59.7 59.7 14 137 0" clip-rule="evenodd" opacity=".998"/>
  <path fill="#71f194" fill-rule="evenodd" d="M85 204H42v-43c4.6-5.1 9.5-10.1 14.5-15 .3-21.3.7-42.7 1-64L91 48.5c14.7-.5 29.3-.7 44-.5.2 14.3 0 28.7-.5 43l-16 16c-.3 21.3-.7 42.7-1 64-11 10.9-21.9 21.9-32.5 33" clip-rule="evenodd"/>
  <path fill="#71f294" fill-rule="evenodd" d="M128 256H85v-43c12.6-13.1 25.5-26.1 38.5-39 .3-21.3.7-42.7 1-64L181 53.5c14.7-.5 29.3-.7 44-.5.2 14.3 0 28.7-.5 43l-39 39c-.3 21.3-.7 42.7-1 64-19 18.9-37.9 37.9-56.5 57" clip-rule="evenodd"/>
  <path fill="#71f194" fill-rule="evenodd" d="M224 105h44c.2 14.3 0 28.7-.5 43l-15 15c-.3 21.3-.7 42.7-1 64L218 260.5c-14.3.5-28.7.7-43 .5-.2-14.7 0-29.3.5-44l15-15c.3-21.3.7-42.7 1-64 11-10.9 21.9-21.9 32.5-33" clip-rule="evenodd"/>
  <path fill="#477e55" fill-rule="evenodd" d="M42 161v43h43c-14.5 1-29.2 1.3-44 1-.3-14.8 0-29.5 1-44m43 52v43h43c-14.5 1-29.2 1.3-44 1-.3-14.8 0-29.5 1-44" clip-rule="evenodd"/>
</svg>
