<svg xmlns="http://www.w3.org/2000/svg" fill="none" viewBox="0 0 21 20">
  <g clip-path="url(#susd_svg__a)">
    <path fill="#fff" d="M18.687 9.953a8.71 8.71 0 1 1-17.42 0 8.71 8.71 0 0 1 17.42 0"/>
    <circle cx="10" cy="10" r="10" fill="#0D052E"/>
    <path fill="#0D052E" d="M17.662 10a7.661 7.661 0 1 1-15.323 0 7.661 7.661 0 0 1 15.323 0m-7.96-3.56c-2.735.3-3.068 3.769-.02 3.96a.06.06 0 0 1 .058.062v1.899a.04.04 0 0 1-.012.027.04.04 0 0 1-.03.009q-.999-.144-1.137-1.141-.005-.036-.042-.036H7.382q-.04 0-.038.038c.04 1.255 1.167 2.076 2.322 2.18q.031.003.053.026a.08.08 0 0 1 .021.055v.921a.04.04 0 0 0 .04.04h.64q.04 0 .04-.04v-.92a.09.09 0 0 1 .083-.092c2.735-.252 2.93-3.858-.025-4.074a.044.044 0 0 1-.04-.044l-.013-1.716q0-.086.08-.06.683.224.825.924.008.042.05.042h1.12q.04 0 .04-.042c-.022-1.163-1.072-1.795-2.08-2.01q-.04-.01-.04-.05v-.835q0-.063-.062-.063H9.78q-.04 0-.04.04v.858q0 .038-.038.042M1.35 5.266A43 43 0 0 1 .391 8.24a.2.2 0 0 0-.111-.02q-.04.004-.046-.034c-.052-.293.12-.79.232-1.106.052-.148.065-.306.12-.446q.233-.592.495-1.173.092-.207.27-.195m1.182.166.082.028-.213.306q-.05-.095-.004-.148.074.033.135-.186"/>
    <path fill="#0D052E" d="M9.731 9.226a.023.023 0 0 1-.023.023h-.012a1.1 1.1 0 0 1-.37-.07 1 1 0 0 1-.312-.191.9.9 0 0 1-.206-.283.8.8 0 0 1-.07-.331.82.82 0 0 1 .291-.607c.184-.16.431-.248.688-.245h.012a.023.023 0 0 1 .023.024zm.756 1.334q0-.006.005-.012a.02.02 0 0 1 .012-.005h.01a.98.98 0 0 1 .67.27.865.865 0 0 1 .198.987.9.9 0 0 1-.209.292 1 1 0 0 1-.31.194 1 1 0 0 1-.365.065h-.01a.02.02 0 0 1-.012-.005.02.02 0 0 1-.006-.012zm-10.305.28.042.024-.058.207q-.015.05-.043.007a.06.06 0 0 1-.006-.06q.053-.123.065-.179m18.974 2.716a.24.24 0 0 1 .08.071.07.07 0 0 1 .007.07c-.213.54-.457 1.209-.798 1.528a.07.07 0 0 0-.024.067l.005.043a.08.08 0 0 1-.016.061l-.199.255a.2.2 0 0 1-.047.04.08.08 0 0 0-.046.08.12.12 0 0 1-.019.075c-.12.187-.297.349-.416.513-.416.576-1.052 1.061-1.468 1.424-.963.839-2.174 1.447-3.384 1.834-.405.13-.904.19-1.357.297a2.7 2.7 0 0 1-1.034-.001 1.5 1.5 0 0 0-.367-.027c.211-.21.417-.916.54-1.223l.364-.03-.539 1.162q-.012.026.016.034.014.004.026.002.018-.005.032-.033.276-.564.552-1.17l.438-.085-.672 1.218a.04.04 0 0 0-.005.028q.003.016.014.025a.03.03 0 0 0 .022.007.03.03 0 0 0 .019-.014l.716-1.27.471-.12-.789 1.302a.03.03 0 0 0 .023.047.03.03 0 0 0 .02-.006c.104-.067.155-.199.207-.277q.35-.525.68-1.083l.583-.179-.997 1.39a.043.043 0 0 0 .025.067q.016.004.028-.003c.067-.032.113-.121.147-.167q.486-.63.928-1.314l.722-.312-1.24 1.604q-.03.039.018.052.046.011.075-.021.726-.839 1.375-1.748l1.262-.764-1.976 2.264-.007.01a.03.03 0 0 0-.002.025.03.03 0 0 0 .017.019.03.03 0 0 0 .025.001l.011-.006q.212-.15.39-.367a24 24 0 0 1 1.658-1.84c.756-.759 1.687-1.152 2.665-1.352q.08-.018.111-.06.038-.052-.025-.04-1.154.245-2.223.822l.836-.828q.846-.199 1.621-.376a.23.23 0 0 0 .107-.05q.057-.052-.019-.04-.858.14-1.683.412l.39-.488.036.012q.027.012.056.006.716-.154 1.432-.316a.07.07 0 0 0 .05-.035q.029-.05-.026-.037l-1.53.337.55-.86q.047.012.044-.001-.056.068-.023.065c.543-.062 1.22-.255 1.537-.726m-.322.75-.003-.008-.006-.006-.008-.003h-.009l-1.424.345-.008.004-.006.006-.002.008v.008l.009.036a.02.02 0 0 0 .026.016l1.424-.344.008-.004.006-.006.002-.008v-.008zm-1.258 1.91c-1.437.495-2.346 1.469-3.414 2.655q-.03.034.015.03a.26.26 0 0 0 .182-.082c.882-.956 1.82-2.05 3.166-2.496a.07.07 0 0 0 .045-.04l.024-.048a.015.015 0 0 0-.01-.02z"/>
    <path fill="#fff" d="M9.795 1.298q.12.082.195-.001a.15.15 0 0 0 .075-.002q.1.075.175.023l.116-.002q.16.075.194.002a.2.2 0 0 1 .102.024.3.3 0 0 0 .207.004q-.057.022.084.01.072.068.21.035-.005.016.07-.018.117.121.235.057.005.02.079.007.121.1.242.04a.1.1 0 0 0 .063-.003q.13.139.268.09l.052-.008q.135.14.278.086l.062-.003q.09.125.258.14l.104-.004q.125.137.276.104l.08.021q.132.153.294.148.004-.014.058-.013.098.164.318.189l.058-.006q.116.179.357.224a.05.05 0 0 0 .05.012.9.9 0 0 0 .337.248l.074-.005a.8.8 0 0 0 .36.29q.042.018.067.006.148.237.433.373-.003-.009.032.012.192.27.458.448.023.022.074.03l.43.548q.088.147.248.246.21.45.558.804L18.3 7.4q.081.553.273 1.055-.061.348.07.553-.032.389.055.728-.062.323.006.434l-.054.591-.05.382a10.3 10.3 0 0 1-.595 2.213q.023-.043.017.049a.9.9 0 0 0-.214.418.2.2 0 0 1-.034.07.9.9 0 0 0-.176.325l-.55.86q0 .023-.018.033l-.39.488-.026.054-.836.828q-.366.22-.644.524l-1.262.764q-.189.064-.228.113l-.722.312q-.116.003-.13.027l-.583.18q-.121-.01-.142.016l-.471.12-.094.006-.438.084q-.05.033-.087.006l-.364.03h-.116l-.318.016-.101-.002h-.319q-.057.01-.084-.002l-.27-.021q-.036-.028-.11-.006l-.249-.026h-.084a.6.6 0 0 0-.254-.04q-.07.008-.086-.015l-.888-.18-.655-.201a.3.3 0 0 1-.073-.035.5.5 0 0 0-.23-.09.2.2 0 0 1-.072-.022l-1.02-.508q.105.06-.053-.01a.6.6 0 0 0-.344-.202l-.588-.463-.15-.099a.65.65 0 0 0-.215-.182.17.17 0 0 0-.09-.081l-.23-.222-.177-.17-.159-.158a.11.11 0 0 1-.066-.062.53.53 0 0 0-.195-.228.25.25 0 0 0-.078-.076l-.155-.224a.22.22 0 0 1-.106-.095q.007-.085-.079-.143l-.117-.119a.28.28 0 0 0-.098-.182l-.103-.078q.018-.13-.12-.24l-.04-.066a3 3 0 0 0-.211-.397q-.328-.55-.644-1.592l-.032-.003q.036-.158-.044-.213.018.044-.021-.067l-.093-.455-.053-.05q.097-.203-.044-.316l.011-.36a.24.24 0 0 0-.066-.126.54.54 0 0 0-.02-.436l-.031-.045c.093-.276.021-.583.053-.838l.072-.591a.7.7 0 0 0-.01-.323q.348-1.48 1.014-2.852l.213-.306.356-.577.072-.077.358-.472q.036-.043.048-.045.223-.165.338-.387.033-.005.031-.012a.7.7 0 0 0 .316-.327q.049-.006.056-.022.217-.121.264-.246.041-.047.06-.034a.5.5 0 0 0 .256-.212q.03-.037.067-.04.167-.052.264-.195.012.004.034-.013a.28.28 0 0 0 .21-.16L5.4 2.58q.098.063.222-.085.05-.033.07-.032a.33.33 0 0 0 .18-.108l.071-.03a.2.2 0 0 0 .158-.102l.078-.026q.075.026.127-.057a.15.15 0 0 1 .076-.045q.081.032.136-.044.013-.022.065-.036.102.025.112-.066l.089-.011q.077.005.11-.061.016-.023.064-.018.057.016.115-.03l.088-.034q.073.025.105-.035l.079-.027q.059.03.125-.037.025.018.07-.018.056.014.108-.04l.064-.03q.08.049.146-.038l.062-.014q.132.047.143-.033l.079-.007a.13.13 0 0 0 .123-.02.2.2 0 0 1 .097-.019.13.13 0 0 0 .119-.018.16.16 0 0 0 .096-.022q.087.016.127-.011.037-.046.077-.049.081.058.177-.002.03.012.1.004.075.014.122-.019l.091-.041q.11.084.176.006l.09-.005q.068.035.164.019.055-.045.094-.04M17.662 10a7.662 7.662 0 1 0-15.324 0 7.662 7.662 0 0 0 15.324 0"/>
    <path fill="#499FA4" d="M9.795 1.298q-.039-.005-.094.04a.17.17 0 0 0-.047-.132 46 46 0 0 1-.77-.942.028.028 0 0 1 .024-.046q.063.006.112.064.498.587.775 1.016m-.257.022-.09.004L8.633.3a.04.04 0 0 1 .052-.057c.28.183.66.786.852 1.075m-.266 0-.09.041q.003-.043-.007-.054A41 41 0 0 1 8.386.33a.02.02 0 0 1-.002-.02L8.39.303 8.4.3h.043q.023 0 .036.017zm-.491.058q-.039.003-.076.049l-.003-.029a.1.1 0 0 0-.024-.054c-.16-.184-.75-.776-.789-.975a.03.03 0 0 1 .017-.034.03.03 0 0 1 .036.009zm.279.002a.2.2 0 0 1-.101-.004L8.136.386Q8.11.35 8.151.342q.07-.017.123.046.401.488.785.99m-.482.058a.16.16 0 0 1-.096.022.2.2 0 0 0-.032-.087 10 10 0 0 1-.783-.899q-.033-.043.02-.05a.09.09 0 0 1 .08.032q.416.487.81.982m-.214.04a.2.2 0 0 0-.097.02L7.454.551q-.032-.036.013-.053A.1.1 0 0 1 7.5.496q.015.002.03.02.427.468.832.96m-.22.039-.079.007-.865-.934q-.042-.045.019-.046.022 0 .045.006A.1.1 0 0 1 7.3.574q.436.456.84.941m-.22.04-.061.014A9 9 0 0 1 7.26.966Q6.718.31 7.33.902q.295.284.59.653m-.208.051-.064.03A10 10 0 0 0 6.84.803q-.053-.05-.036-.108A.02.02 0 0 1 6.83.679l.01.006zm-.163.073-.064.03a10 10 0 0 0-.81-.835Q6.623.826 6.64.766a.022.022 0 0 1 .037-.009z"/>
    <path fill="#499FA4" d="M7.54 1.677q-.045.036-.07.018l-.03-.033a.031.031 0 0 1 .045-.043zm-.195.055-.08.027-.874-.88a.03.03 0 0 1-.008-.028.03.03 0 0 1 .021-.022l.02-.007a.04.04 0 0 1 .044.01zm-.185.062-.087.035-.834-.824a.07.07 0 0 1-.02-.041l-.006-.02a.04.04 0 0 1 .015-.05.05.05 0 0 1 .056.007zm-.201.064q-.05-.006-.065.018l-.865-.853a.04.04 0 0 1-.011-.025q0-.045.042-.042a.06.06 0 0 1 .034.016q.474.402.864.886m-.174.079-.089.011-.83-.824a.043.043 0 0 1 .002-.063q.038-.033.072-.001.45.41.845.877m-.201.077q-.051.014-.065.036l-.813-.879a.034.034 0 0 1 .05-.047zm-.201.08a.15.15 0 0 0-.076.045 5.7 5.7 0 0 0-.76-.872.033.033 0 0 1 .014-.056q.034-.01.078.031.417.39.744.852m-1.01-.797.04.005q.035 0 .056.027l.711.867-.078.026-.695-.845a.1.1 0 0 1-.025-.05zm-.185.077q.072.003.1.039.401.376.656.91l-.07.03a5 5 0 0 0-.628-.855.2.2 0 0 1-.038-.064zM16.19 3.855q-.05-.006-.074-.03l-1.283-2.384a.022.022 0 0 1 .022-.03q.008 0 .013.006.196.229.327.473.522.966.995 1.965M5.692 2.462q-.02-.001-.07.032L5 1.471q.25.137.424.444.212.375.267.547M5.4 2.58l-.054.062a3.6 3.6 0 0 0-.499-.984q-.024-.033.013-.055.04-.021.066.012.334.43.474.964M16.868 4.65a.7.7 0 0 1-.248-.246l.02-.013q.005-.004.002-.01l-1.39-2.696-.001-.01.006-.009a.02.02 0 0 1 .019 0c.07.07.147.134.194.224q.684 1.32 1.352 2.647.03.059.046.113M5.135 2.8q-.021.018-.034.014l-.458-1.05q-.021-.046.03-.04.063.006.097.07.255.47.365 1.007"/>
    <path fill="#499FA4" d="M16.486 3.367c1.478 2.818 2.677 5.296 3.209 8.329l-.057.202q-.017.059-.026-.002A17.3 17.3 0 0 0 18.3 7.399l-.873-1.945-1.718-3.424a.032.032 0 0 1 .058-.03z"/>
    <path fill="#499FA4" d="M16.158 2.358a.19.19 0 0 1 .157.107c1.28 2.487 2.74 5.332 3.467 8.294a.45.45 0 0 1-.008.266q-.017.046-.028-.002c-.652-2.74-1.848-5.254-3.123-7.724zM3.449 4.289q-.012.002-.048.045a.8.8 0 0 1-.003-.354q.05-.312-.05-1.251A.03.03 0 0 1 3.36 2.7a.03.03 0 0 1 .031 0q.035.025.044.081.117.824.013 1.507"/>
    <path fill="#499FA4" d="M16.934 3.386a8 8 0 0 1-.248-.54q-.016-.039.024-.028.07.02.092.064c1.132 2.277 2.31 4.586 3.021 7.037a.5.5 0 0 1-.01.2q-.008.04-.018.002c-.714-2.358-1.755-4.544-2.861-6.735"/>
    <path fill="#499FA4" d="M17.18 3.351a.025.025 0 0 1 .04-.027c.206.235.308.52.43.763a50 50 0 0 1 2.037 4.619q.098.255.123.517a.02.02 0 0 1-.015.02.02.02 0 0 1-.022-.011 53 53 0 0 0-2.594-5.88m2.466 4.733a.1.1 0 0 1-.006.05q-.02.037-.032-.002c-.015-.047-.02-.104-.037-.147a61 61 0 0 0-1.78-3.932q-.018-.035.02-.03a.04.04 0 0 1 .03.018c.619 1.043 1.108 2.202 1.582 3.32q.15.35.223.723m-1.072.369q.54 1.476.788 3.018c.115.72.123 1.42-.205 2.083-.317.47-.994.664-1.537.726q-.033.003.023-.065c.815-.17 1.5-.349 1.652-1.29.128-.793-.05-1.66-.25-2.527a11 11 0 0 0-.402-1.392q-.13-.204-.07-.553"/>
    <path fill="#499FA4" d="M18.698 9.735c.364 1.164 1.017 3.791-.816 4.137q-.046.008-.027-.034a.1.1 0 0 1 .024-.036.1.1 0 0 1 .037-.018q1.018-.25 1.08-1.289.069-1.114-.292-2.326-.067-.113-.006-.434"/>
    <path fill="#499FA4" d="M18.65 10.76c.19.766.265 1.914-.373 2.516a.46.46 0 0 1-.255.128q.007-.092-.017-.049c.775-.418.749-1.441.596-2.213zM1.569 12.158q.039.11.021.067-.346.67-.675 1.33a.08.08 0 0 1-.072.046.1.1 0 0 1-.021-.04q-.004-.015.008-.04.348-.673.739-1.363m.164.887-.118-.228a.06.06 0 0 1-.002-.047l.01-.02q.024-.04.048 0c.08.137.107.292.17.416q.18.351.303.726a.12.12 0 0 1 .002.069l-.341 1.371q-.024.095-.063.015-.009-.015.006-.085c.063-.3.166-1.016.335-1.247a.08.08 0 0 0 .011-.07 2.3 2.3 0 0 0-.501-.844q-.02-.022-.04-.024l-.025.004q-.027.01-.006.031c.132.131.539.665.476.906q-.018.07-.044.002c-.05-.126-.196-.498-.357-.605l-.01-.002-.009.004a.014.014 0 0 0-.002.018c.108.175.422.677.334.874q-.024.056-.04-.003a2.4 2.4 0 0 0-.455-.89q-.03-.038-.053.004-.015.027.007.053.243.29.38.642.015.039.011.081a.17.17 0 0 0 .066.158q.015.013.02.03a.1.1 0 0 1 .002.038l-.18.72a.036.036 0 0 1-.06.016q-.061-.057-.004-.177a3 3 0 0 0 .154-.487.13.13 0 0 0-.003-.076 4 4 0 0 0-.435-.868.018.018 0 0 0-.034.005q-.027.105.046.131.15.239.329.67a.25.25 0 0 1 .015.176q-.014.04-.032.002l-.377-.788q-.03-.063-.067-.002a.1.1 0 0 0-.009.027q0 .011.007.027c.162.29.539.89.312 1.152a.03.03 0 0 1-.05-.01.16.16 0 0 1 .043-.175.1.1 0 0 0 .016-.028.1.1 0 0 0 0-.031 3.1 3.1 0 0 0-.398-.844.07.07 0 0 1-.005-.072l.406-.83q.055-.111.093.006.022.068.09.105a.02.02 0 0 0 .028-.026m.527 1.018-.048-.01a.02.02 0 0 0-.025.015l-.322 1.515a.02.02 0 0 0 .016.025l.048.01a.02.02 0 0 0 .025-.016l.322-1.515a.02.02 0 0 0-.016-.024m-.14 1.833-.003.005-.007.001h-.003c-.028-.006-.038-.094-.03-.247a5 5 0 0 1 .074-.567l.006-.031c.04-.21.088-.41.135-.555s.09-.225.118-.22h.004a.01.01 0 0 1 .006.01zm.4-1.466.042.066-.241 1.566q-.006.034-.04.034-.046 0-.043-.056.05-.68.283-1.61m.159.306.104.078a.1.1 0 0 0-.029.007.04.04 0 0 0-.025.033l-.184 1.507a.03.03 0 0 1-.015.027.03.03 0 0 1-.03 0 .06.06 0 0 1-.029-.024.06.06 0 0 1-.01-.037q.055-.817.219-1.591m.201.26.117.12q-.066.037-.078.148-.075.66-.13 1.338a.03.03 0 0 1-.027.03.03.03 0 0 1-.037-.018.4.4 0 0 1-.035-.235q.07-.66.149-1.319.006-.048.04-.064m.197.262a.22.22 0 0 0 .106.095l-.129 1.544q-.005.07-.055.02-.045-.048-.04-.157.033-.75.118-1.502m.262.319q.051.034.077.076l-.065 1.556q-.002.065-.051.021-.042-.038-.042-.11a35 35 0 0 1 .04-1.52q0-.023.04-.023m11.795 1.427q.278-.304.644-.524a8.3 8.3 0 0 1 2.223-.822q.064-.012.025.04-.03.042-.11.06c-.98.2-1.91.593-2.666 1.352a24 24 0 0 0-1.659 1.84 2 2 0 0 1-.4.373.03.03 0 0 1-.025-.001.03.03 0 0 1-.017-.019.03.03 0 0 1 .002-.025l.007-.01zM3.612 15.88a.11.11 0 0 0 .066.063l-.04 1.614a4.8 4.8 0 0 1-.026-1.676m.225.219.178.171c-.073.484-.016 1 .006 1.489q.001.043-.038.024a.11.11 0 0 1-.067-.104q-.015-.794-.08-1.58"/>
    <path fill="#499FA4" d="M14.163 18.87c1.067-1.186 1.976-2.16 3.413-2.656h.008q.004 0 .007.004a.014.014 0 0 1 .003.015l-.024.049a.07.07 0 0 1-.045.04c-1.346.445-2.284 1.54-3.166 2.496a.26.26 0 0 1-.182.083q-.044.003-.014-.03m-9.918-2.378a.17.17 0 0 1 .09.081c-.088.424.015 1.027.066 1.462q.006.052-.043.033a.1.1 0 0 1-.043-.031.1.1 0 0 1-.019-.05 23 23 0 0 1-.094-1.46q0-.021.02-.027zm.304.263.15.1q-.079.007-.061.145.081.642.144 1.29.004.042-.017.048-.022.007-.069-.013zm.421.367-.05.006a.025.025 0 0 0-.021.028l.186 1.431a.025.025 0 0 0 .027.022l.051-.007a.025.025 0 0 0 .022-.028l-.186-1.43a.025.025 0 0 0-.028-.022m.332.184q.192.73.196 1.482a3.8 3.8 0 0 1-.196-1.482m.328.213q.157.07.054.01.147.718.158 1.425a4.7 4.7 0 0 1-.212-1.436m8.241.249q-.648.91-1.375 1.748-.03.033-.075.02-.048-.012-.017-.051l1.24-1.604q.038-.049.227-.113m-7.805.022-.055.006a.02.02 0 0 0-.019.024l.138 1.265c.001.012.012.02.023.019l.055-.006a.02.02 0 0 0 .019-.024L6.09 17.81a.02.02 0 0 0-.023-.02m.329.801c.04.358.096.645.125.642s.019-.296-.021-.653-.096-.645-.125-.642-.019.296.021.653m.326-.502h-.004a.045.045 0 0 0-.04.048l.1 1.158a.045.045 0 0 0 .05.04h.003a.045.045 0 0 0 .04-.049l-.1-1.157a.045.045 0 0 0-.05-.04m6.201.104a20 20 0 0 1-.928 1.314c-.034.046-.08.135-.147.167a.043.043 0 0 1-.061-.037q0-.015.008-.027l.997-1.39q.015-.023.131-.027m-5.848.033-.044.003a.023.023 0 0 0-.022.024l.07 1.158c.002.013.013.023.025.022l.045-.003a.023.023 0 0 0 .022-.024l-.071-1.158a.023.023 0 0 0-.025-.022m.66.16.01 1.165q0 .042-.04.03l-.025-.008a.03.03 0 0 1-.017-.027q-.003-.543.004-1.086 0-.03.068-.074m4.475.014q-.33.556-.68 1.082c-.053.078-.104.21-.207.277a.03.03 0 0 1-.048-.021.03.03 0 0 1 .005-.02l.788-1.302q.02-.026.142-.017m-4.183.099h-.003a.05.05 0 0 0-.052.046l-.05 1.049a.05.05 0 0 0 .046.052h.003a.05.05 0 0 0 .052-.047l.052-1.049a.05.05 0 0 0-.048-.052m3.476.045.094-.005-.716 1.268a.03.03 0 0 1-.019.015.03.03 0 0 1-.023-.007.04.04 0 0 1-.012-.025q-.002-.016.004-.028zm-3.153.021-.018-.001a.04.04 0 0 0-.041.035l-.085 1.056a.04.04 0 0 0 .035.041l.018.002a.04.04 0 0 0 .041-.036l.085-1.055a.04.04 0 0 0-.035-.042m.273.003q.017.023.086.016l-.13 1.148q-.007.059-.052.02a.2.2 0 0 1-.036-.044.1.1 0 0 1-.01-.056q.064-.526.142-1.084m.34.054h.084q-.09.575-.187 1.14a.05.05 0 0 1-.013.028q-.045.045-.073-.048l-.002-.025zm.333.027q.075-.023.11.006L9.137 19.8l-.007.014a.04.04 0 0 1-.029.014l-.015-.004-.025-.01a.04.04 0 0 1-.022-.018.04.04 0 0 1-.004-.029zm1.682-.015q.038.026.087-.006-.275.608-.552 1.17-.014.029-.032.034l-.026-.002q-.028-.008-.016-.034zm-.48.03h.116c-.122.307-.329 1.012-.54 1.223a.04.04 0 0 1-.02-.007q-.016-.01-.01-.027zm-.822.012q.027.013.084.003a17 17 0 0 1-.305 1.077q-.018.057-.059.077a.03.03 0 0 1-.032-.003.03.03 0 0 1-.01-.032zm.403.002.101.002q-.17.585-.367 1.136-.018.048-.062.045-.045-.002-.031-.045z"/>
    <path fill="#55C0C3" d="M10.652 1.342a.2.2 0 0 0-.101-.024A8 8 0 0 0 9.69.23Q9.665.204 9.664.193a.04.04 0 0 1 .069-.028q.515.546.92 1.177m.57.031q-.075.035-.07.018a8 8 0 0 0-.927-1.19q-.026-.027.01-.037.05-.015.091.03.49.51.896 1.179m-1.158-.078a.15.15 0 0 1-.075.002L9.16.21Q9.152.2 9.155.19q.005-.01.018-.015a.1.1 0 0 1 .03 0q.016.005.026.015.46.51.836 1.106m.291.02-.116.002a.14.14 0 0 0-.027-.092 14 14 0 0 0-.78-.999q-.046-.053.024-.05.048.004.091.056.51.609.808 1.083m.587.04q-.141.012-.084-.01L9.971.228a.026.026 0 0 1 .034-.037c.345.235.726.845.938 1.165m.594.081q-.075.012-.08-.007-.42-.658-.96-1.235a.02.02 0 0 1-.004-.012q0-.007.004-.012a.02.02 0 0 1 .024-.005c.397.22.852.984 1.016 1.27m.305.038a.1.1 0 0 1-.063.003L10.802.23a.03.03 0 0 1-.003-.033.03.03 0 0 1 .03-.013l.021.005q.015.006.024.016.569.57.968 1.268m.32.083-.052.007A12 12 0 0 0 11.2.378a.3.3 0 0 0-.062-.052q-.051-.032-.052-.068a.054.054 0 0 1 .092-.039q.594.627.984 1.337m.34.084-.062.002A12 12 0 0 0 11.4.29q-.025-.027.011-.039a.09.09 0 0 1 .095.024q.551.57.996 1.364m.362.136-.104.004a.03.03 0 0 1 .008-.018q.006-.007.002-.016a9 9 0 0 0-1.043-1.4.02.02 0 0 1-.008-.014V.316a.045.045 0 0 1 .054-.024.04.04 0 0 1 .018.011 6.3 6.3 0 0 1 1.073 1.472m.356.125-.08-.02A12 12 0 0 0 12.071.413q-.036-.042.02-.039a.16.16 0 0 1 .119.057q.593.67 1.01 1.468m.352.136q-.054 0-.058.013-.492-.826-1.09-1.557l-.004-.01a.02.02 0 0 1 .018-.024q.052-.005.115.069a7.4 7.4 0 0 1 1.019 1.51m.376.182-.058.006a15 15 0 0 0-1.093-1.66.017.017 0 0 1 .022-.025c.412.247.922 1.235 1.13 1.679m.406.236a.05.05 0 0 1-.05-.012A15.5 15.5 0 0 0 13.198.723q-.048-.064.027-.037c.306.106 1.005 1.492 1.13 1.768m.412.243-.075.005L13.603.87q-.018-.033.019-.027a.17.17 0 0 1 .11.069q.567.785 1.035 1.785m.426.296q-.026.012-.067-.006l-1.124-1.943q-.028-.048.025-.032a.2.2 0 0 1 .113.09 12.6 12.6 0 0 1 1.053 1.89m.465.386q-.035-.021-.032-.012-.005-.06-.072-.098a.1.1 0 0 1-.027-.027l-1.124-2.044q-.016-.03.015-.015c.29.146.98 1.627 1.227 2.113q.022.045.013.083M4.837 3.01q-.038 0-.067.039-.112-.6-.347-1.144a.033.033 0 0 1 .023-.045.08.08 0 0 1 .055.008q.018.01.029.038.204.526.307 1.104m-.322.25q-.02-.012-.061.035a8 8 0 0 0-.267-1.212q-.01-.033.007-.041l.025-.005q.014 0 .024.007a.04.04 0 0 1 .016.02q.21.574.256 1.197m-.325.279q-.007.018-.055.023l-.221-1.338a.018.018 0 0 1 .023-.02l.01.006c.198.283.233 1.103.243 1.33m-.372.349q.002.007-.03.012l-.022-.053a.2.2 0 0 1-.016-.075A7 7 0 0 0 3.63 2.5a.036.036 0 0 1 .063-.03q.015.02.022.052.13.664.104 1.368m-.776.916-.072.077q-.067-.027-.04-.104c.16-.433.134-1.179.1-1.638a.17.17 0 0 1 .023-.105.036.036 0 0 1 .065.018q.06.792-.073 1.572-.024.14-.003.18m-.51.626q-.06.22-.135.186a9.2 9.2 0 0 0 .312-2.212q0-.039.03-.046.045-.011.046.035-.009 1.036-.253 2.037M.224 10.864l-.042-.025q.027-.168.074-.28 1.062-2.51 1.6-4.264.357-1.163.475-2.373a.5.5 0 0 1 .035-.152.03.03 0 0 1 .038-.019.034.034 0 0 1 .025.035 12.6 12.6 0 0 1-.531 2.653Q1.34 8.187.224 10.864"/>
    <path fill="#55C0C3" d="M.47 9.149c.599-1.56 1.148-3.053 1.444-4.75a.1.1 0 0 1 .064-.08q.033-.014.028.021C1.731 6.316.91 8.27.181 10.11a.02.02 0 0 1-.01.011.02.02 0 0 1-.029-.021c.064-.345.216-.66.328-.951M.391 8.24q.536-1.472.96-2.974a.2.2 0 0 1 .07-.067.03.03 0 0 1 .03.005.03.03 0 0 1 .008.03A47 47 0 0 1 .241 8.866H.238l-.001-.004v-.001zm.998.378a.7.7 0 0 1 .01.323.13.13 0 0 0-.06 0S.342 11.335.238 11.568q-.005.01-.012.008H.222q-.006-.003-.004-.006c.038-.117.036-.24.082-.347Q.84 9.94 1.389 8.618M1.3 9.758l-.04-.017a.02.02 0 0 0-.028.01l-.94 2.176a.02.02 0 0 0 .01.027l.04.017a.02.02 0 0 0 .027-.01l.941-2.176a.02.02 0 0 0-.01-.027m-.027.612.032.045q-.36.945-.833 1.859-.022.044-.031.044a.05.05 0 0 1-.037-.022.05.05 0 0 1-.003-.042zm.051.481q.06.068.067.126-.054 0-.067.028A47 47 0 0 1 .6 12.557q-.03.062-.067.07a.04.04 0 0 1-.038-.014.04.04 0 0 1-.004-.04zm.056.486a1 1 0 0 1-.037.165q-.338.71-.702 1.407a.03.03 0 0 1-.034.017q-.048-.01-.014-.077l.73-1.485q.014-.026.056-.027m.044.317.053.05q-.46.889-.66 1.312a.34.34 0 0 1-.13.153q-.065.038-.03-.029zm.082.325-.018-.01a.027.027 0 0 0-.037.012l-.714 1.378a.027.027 0 0 0 .012.037l.018.01a.03.03 0 0 0 .037-.013l.714-1.378a.027.027 0 0 0-.012-.036m.129.459.032.003-.612 1.289a.17.17 0 0 0 .007.157q.183.309.311.644a.1.1 0 0 0 .02.03q.076.066.042.171-.017.057-.044.003L.906 13.73q.313-.592.61-1.137c.034-.06.023-.125.118-.154m17.175 1.85-1.425.344a.022.022 0 0 0-.016.027l.009.035a.02.02 0 0 0 .026.016l1.424-.344a.022.022 0 0 0 .016-.027l-.008-.035a.022.022 0 0 0-.027-.016m-1.778.821q.02-.01.017-.033l1.53-.337q.057-.012.027.037a.07.07 0 0 1-.05.035q-.715.162-1.432.316a.1.1 0 0 1-.055-.006zm-.416.542.026-.054q.825-.274 1.683-.412.075-.012.019.04a.23.23 0 0 1-.107.05q-.775.178-1.621.376m-9.211 2.672-.038.002a.02.02 0 0 0-.02.022l.031 1.143c0 .012.01.022.022.021h.039q.02-.003.02-.023l-.031-1.144a.02.02 0 0 0-.023-.02"/>
    <circle cx="9.949" cy="9.949" r="8.989" fill="#fff"/>
    <circle cx="9.905" cy="9.905" r="7.636" fill="#0D052E"/>
    <path fill="#fff" d="M9.727 6.397v-.859q0-.04.04-.04h.617q.064 0 .064.063l-.001.836q0 .039.04.048c1.008.216 2.058.848 2.08 2.012q0 .04-.04.041h-1.12q-.042 0-.05-.041-.143-.702-.824-.924-.082-.027-.081.059l.012 1.717a.044.044 0 0 0 .041.044c2.955.216 2.76 3.821.025 4.073a.09.09 0 0 0-.083.091v.921q0 .04-.04.04h-.64a.04.04 0 0 1-.04-.04v-.92a.08.08 0 0 0-.074-.082c-1.155-.104-2.283-.925-2.322-2.18q0-.038.038-.038h1.137q.037 0 .042.036.136.998 1.137 1.14a.04.04 0 0 0 .03-.008.04.04 0 0 0 .012-.027v-1.9a.06.06 0 0 0-.058-.062c-3.048-.19-2.715-3.66.02-3.959q.038-.004.038-.041m-.009 2.828.021-1.68a.023.023 0 0 0-.023-.024h-.012a1.03 1.03 0 0 0-.688.244.82.82 0 0 0-.29.607.8.8 0 0 0 .069.331.9.9 0 0 0 .206.283 1 1 0 0 0 .312.19q.178.07.37.07h.012a.023.023 0 0 0 .023-.021m.755 1.334-.016 1.773a.02.02 0 0 0 .018.017h.01a1 1 0 0 0 .365-.065 1 1 0 0 0 .31-.194.9.9 0 0 0 .21-.291.865.865 0 0 0-.199-.987.98.98 0 0 0-.67-.27h-.01a.02.02 0 0 0-.018.017"/>
  </g>
  <path fill="#E68F7B" d="m17.032 10 3.04 5.023-3.03-1.294z"/>
  <path fill="#F8EC7C" d="M14 15.023 17.031 10l.012 3.729z"/>
  <path fill="#6EB87D" d="M17.031 16.875 14 15.023l3.043-1.294z"/>
  <path fill="#946BA7" d="m20.071 15.023-3.028-1.294-.011 3.146z"/>
  <path fill="#697CB9" d="m17.032 17.513 3.04-1.802-3.04 4.283z"/>
  <path fill="#4FADD0" d="M17.031 17.513 14 15.71l3.031 4.283z"/>
  <defs>
    <clipPath id="susd_svg__a">
      <path fill="#fff" d="M0 0h20v20H0z"/>
    </clipPath>
  </defs>
</svg>
