<svg xmlns="http://www.w3.org/2000/svg" fill="none" viewBox="0 0 20 20">
  <path fill="url(#sushi_svg__a)" d="m17.731 12.003-3.078 4.544-.026-.019c-1.107 1.485-4.678.87-8.051-1.517C3.222 12.643 1.29 9.63 2.25 8.003l-.026-.019L5.302 3.51c1.07-1.536 4.679-.94 8.084 1.472 3.475 2.272 5.35 5.479 4.345 7.021"/>
  <path fill="#fff" fill-rule="evenodd" d="M17.264 11.74c-.94 1.338-4.211.666-7.354-1.535-3.206-2.208-5.08-5.011-4.147-6.349s4.211-.666 7.354 1.536c3.136 2.208 5.011 5.011 4.147 6.349M14.32 9.732c-.467.666-2.074.34-3.68-.736-1.536-1.069-2.47-2.47-2.003-3.136s2.073-.339 3.68.736c1.536 1.069 2.47 2.47 2.003 3.136" clip-rule="evenodd"/>
  <defs>
    <linearGradient id="sushi_svg__a" x1="8.377" x2="11.641" y1="5.894" y2="14.099" gradientUnits="userSpaceOnUse">
      <stop stop-color="#29afe5"/>
      <stop offset=".361" stop-color="#9181c3"/>
      <stop offset="1" stop-color="#fa52a0"/>
    </linearGradient>
  </defs>
</svg>
