<svg xmlns="http://www.w3.org/2000/svg" fill="none" viewBox="0 0 400 400">
  <g filter="url(#swissborg_svg__a)" opacity=".5">
    <circle cx="200" cy="200" r="153" fill="#13e5bf"/>
  </g>
  <g filter="url(#swissborg_svg__b)">
    <path fill="url(#swissborg_svg__c)" fill-rule="evenodd" d="M340.602 300.766c10.554-5.925 19.187-20.468 19.187-32.318V131.991c0-11.85-8.633-26.394-19.187-32.319l-121.52-68.228c-10.554-5.925-27.821-5.925-38.374 0L59.187 99.672C48.633 105.597 40 120.141 40 131.991v136.457c0 11.85 8.633 26.393 19.187 32.318l121.521 68.229c10.553 5.925 27.82 5.925 38.374 0z" clip-rule="evenodd"/>
  </g>
  <mask id="swissborg_svg__e" width="320" height="347" x="40" y="27" mask-type="alpha" maskUnits="userSpaceOnUse">
    <path fill="url(#swissborg_svg__d)" fill-rule="evenodd" d="M340.813 300.766C351.367 294.841 360 280.298 360 268.448V131.991c0-11.85-8.633-26.394-19.187-32.319L219.292 31.444c-10.553-5.925-27.82-5.925-38.374 0L59.398 99.672c-10.554 5.925-19.188 20.469-19.188 32.319v136.457c0 11.85 8.634 26.393 19.187 32.318l121.521 68.229c10.554 5.925 27.821 5.925 38.374 0z" clip-rule="evenodd"/>
  </mask>
  <g mask="url(#swissborg_svg__e)">
    <path fill="#02b182" d="m24.183 431.629 258.476-146.83v-35.862l27.065-17.592v-62.928l-27.065-15.562v-31.126l-54.131-30.448-19.623 4.06-20.299 12.179 2.707-11.503-18.946-10.826-221.26 127.208v219.23z" opacity=".5"/>
  </g>
  <g filter="url(#swissborg_svg__f)">
    <path fill="#fff" fill-rule="evenodd" d="m227.432 84.74-18.943 10.751v91.333l10.342 5.875v-69.554l35.517 20.164.033-.019 6.896 3.908 5.759-3.248v-5.489l-48.205-27.324v-9.507l8.601-4.88 49.923 28.342v25.225l-23.968 13.523-.804-.396c-1.463-.719-2.974-1.087-4.49-1.087-5.708 0-10.345 4.7-10.345 10.478 0 5.775 4.637 10.476 10.345 10.476 5.291 0 9.687-4.047 10.231-9.407l.089-.904 24.187-13.655 22.433 12.74v56.341l-22.458 12.735-91.268-51.823V95.494L172.362 84.74l-60.261 34.214v31.219l-27.683 15.694v68.627l27.683 15.718v31.273l60.261 34.214 18.945-10.754v-91.531l-10.345-5.873v69.753l-42.446-24.056-5.756 3.249v5.489l48.202 27.326v9.505l-8.6 4.881-49.919-28.341v-25.228l23.966-13.518.804.394c1.465.722 2.974 1.085 4.49 1.085 5.705 0 10.345-4.698 10.345-10.476 0-5.777-4.64-10.476-10.345-10.476-5.289 0-9.684 4.044-10.226 9.41l-.094.904-24.187 13.649-22.433-12.735v-56.343l22.458-12.735 91.268 51.823v93.844l18.943 10.754 60.266-34.214v-31.222l27.68-15.694v-68.622l-27.68-15.712v-31.281zm-104.988 40.352 49.919-28.342 8.6 4.884v9.499l-58.519 33.174zm5.364 28.186 53.151-30.139v60.32zm91.022 63.696 53.156 30.188-53.156 30.137zm0 81.836v-9.499l58.524-33.177v19.216l-49.924 28.341z" clip-rule="evenodd"/>
  </g>
  <defs>
    <filter id="swissborg_svg__a" width="386" height="386" x="7" y="7" color-interpolation-filters="sRGB" filterUnits="userSpaceOnUse">
      <feFlood flood-opacity="0" result="BackgroundImageFix"/>
      <feBlend in="SourceGraphic" in2="BackgroundImageFix" result="shape"/>
      <feGaussianBlur result="effect1_foregroundBlur" stdDeviation="20"/>
    </filter>
    <filter id="swissborg_svg__b" width="323.849" height="346.439" x="38.647" y="27" color-interpolation-filters="sRGB" filterUnits="userSpaceOnUse">
      <feFlood flood-opacity="0" result="BackgroundImageFix"/>
      <feBlend in="SourceGraphic" in2="BackgroundImageFix" result="shape"/>
      <feColorMatrix in="SourceAlpha" result="hardAlpha" values="0 0 0 0 0 0 0 0 0 0 0 0 0 0 0 0 0 0 127 0"/>
      <feOffset dx="-2.707"/>
      <feGaussianBlur stdDeviation=".677"/>
      <feComposite in2="hardAlpha" k2="-1" k3="1" operator="arithmetic"/>
      <feColorMatrix values="0 0 0 0 1 0 0 0 0 1 0 0 0 0 1 0 0 0 0.6 0"/>
      <feBlend in2="shape" result="effect1_innerShadow"/>
      <feColorMatrix in="SourceAlpha" result="hardAlpha" values="0 0 0 0 0 0 0 0 0 0 0 0 0 0 0 0 0 0 127 0"/>
      <feOffset dx="5.413"/>
      <feGaussianBlur stdDeviation="1.353"/>
      <feComposite in2="hardAlpha" k2="-1" k3="1" operator="arithmetic"/>
      <feColorMatrix values="0 0 0 0 0 0 0 0 0 0 0 0 0 0 0 0 0 0 0.2 0"/>
      <feBlend in2="effect1_innerShadow" result="effect2_innerShadow"/>
    </filter>
    <filter id="swissborg_svg__f" width="244.492" height="244.492" x="77.652" y="77.974" color-interpolation-filters="sRGB" filterUnits="userSpaceOnUse">
      <feFlood flood-opacity="0" result="BackgroundImageFix"/>
      <feColorMatrix in="SourceAlpha" values="0 0 0 0 0 0 0 0 0 0 0 0 0 0 0 0 0 0 127 0"/>
      <feOffset/>
      <feGaussianBlur stdDeviation="3.383"/>
      <feColorMatrix values="0 0 0 0 0 0 0 0 0 0 0 0 0 0 0 0 0 0 0.2 0"/>
      <feBlend in2="BackgroundImageFix" result="effect1_dropShadow"/>
      <feBlend in="SourceGraphic" in2="effect1_dropShadow" result="shape"/>
    </filter>
    <linearGradient id="swissborg_svg__c" x1="40" x2="40" y1="27" y2="373.439" gradientUnits="userSpaceOnUse">
      <stop stop-color="#13e5bf"/>
      <stop offset="1" stop-color="#01c38d"/>
    </linearGradient>
    <linearGradient id="swissborg_svg__d" x1="40.21" x2="40.21" y1="27" y2="373.439" gradientUnits="userSpaceOnUse">
      <stop stop-color="#13e5bf"/>
      <stop offset="1" stop-color="#01c38d"/>
    </linearGradient>
  </defs>
</svg>
