<svg xmlns="http://www.w3.org/2000/svg" fill="none" viewBox="0 0 20 20">
  <g clip-path="url(#telcoin_svg__a)">
    <path fill="#fff" d="M9.586 16.13a6.085 6.085 0 1 0 0-12.17 6.085 6.085 0 0 0 0 12.17"/>
    <path fill="#14c8ff" d="M18.594 5.737c.6.5.98 1.534.848 2.297l-1.294 7.333c-.134.764-.846 1.604-1.58 1.87l-7.042 2.538c-.733.265-1.824.072-2.423-.427l-5.75-4.795c-.6-.5-.98-1.533-.844-2.297L1.8 4.924c.135-.765.847-1.605 1.58-1.87L10.423.517c.733-.265 1.825-.072 2.424.427zm-5.99 3.292.286-1.49-2.689.004.383-1.965h-.87s-.815 1.456-2.61 2.17l-.248 1.284 1.177.002s-.398 1.847-.53 2.528c-.333 1.734.502 2.964 1.786 2.964h2.172l.38-1.647h-1.816c-.807 0-.765-.452-.61-1.257l.5-2.594z"/>
  </g>
  <defs>
    <clipPath id="telcoin_svg__a">
      <path fill="#fff" d="M0 0h20v20H0z"/>
    </clipPath>
  </defs>
</svg>
