<svg xmlns="http://www.w3.org/2000/svg" fill="none" viewBox="0 0 20 20">
  <g clip-path="url(#tezos_svg__a)">
    <circle cx="10" cy="10" r="10" fill="#2c7df7"/>
    <path fill="#fff" d="M11.037 16.657q-1.425 0-2.08-.687a2.12 2.12 0 0 1-.653-1.479 1 1 0 0 1 .114-.489.85.85 0 0 1 .312-.312 1.09 1.09 0 0 1 .972 0 .83.83 0 0 1 .31.312.96.96 0 0 1 .118.489.93.93 0 0 1-.166.572.78.78 0 0 1-.395.29c.156.198.377.336.624.388.276.08.563.122.85.123a1.9 1.9 0 0 0 1.072-.32c.329-.232.574-.564.699-.947a4.1 4.1 0 0 0 .229-1.416 3.9 3.9 0 0 0-.25-1.473 1.82 1.82 0 0 0-.722-.915c-.31-.197-.672-.3-1.04-.298-.32.027-.63.132-.9.306l-.669.335V10.8l3.002-4.027h-4.16v4.179c-.012.301.068.6.229.855a.79.79 0 0 0 .699.335c.25-.006.492-.09.69-.244a2.5 2.5 0 0 0 .579-.595.2.2 0 0 1 .075-.1.15.15 0 0 1 .1-.037c.072.007.14.036.196.083.07.078.107.179.106.283q-.011.106-.038.208a2 2 0 0 1-.713.886 1.77 1.77 0 0 1-1.001.304q-1.351 0-1.872-.532a2 2 0 0 1-.516-1.457V6.774H4.722v-.776h2.126v-1.77L6.36 3.74v-.397h1.412l.53.275v2.38L13.8 5.98l.547.549-3.37 3.386q.308-.122.636-.154c.433.02.855.14 1.232.352a2.53 2.53 0 0 1 1.061.947c.23.347.392.735.479 1.142q.107.483.114.978a4.1 4.1 0 0 1-.416 1.812 2.66 2.66 0 0 1-1.248 1.248 4.04 4.04 0 0 1-1.798.416"/>
  </g>
  <defs>
    <clipPath id="tezos_svg__a">
      <path fill="#fff" d="M0 0h20v20H0z"/>
    </clipPath>
  </defs>
</svg>
