<svg xmlns="http://www.w3.org/2000/svg" fill="none" viewBox="0 0 20 20">
  <path fill="url(#theta-fuel_svg__a)" d="M10 20c5.523 0 10-4.477 10-10S15.523 0 10 0 0 4.477 0 10s4.477 10 10 10"/>
  <path fill="#fefefd" d="M5.09 13.161c-.336-.947-.294-1.915-.135-2.883.135-.812.553-1.493 1.052-2.129A16 16 0 0 1 7.38 6.648c.4-.392.78-.804 1.13-1.243.58-.727.797-1.558.754-2.474-.011-.24-.002-.482-.002-.727-.002 0 .015-.004.023.003.611.505 1.214 1.018 1.65 1.695.34.527.553 1.092.588 1.726q.018.363-.002.722c-.06.463-.163.914-.325 1.352-.123.33-.1.664.045.985.206.46.7.69 1.251.59.477-.088.84-.445.93-.92.032-.163.058-.326.088-.499.099.066.155.158.22.24.646.811 1.18 1.684 1.357 2.722.228 1.339-.028 2.56-.979 3.58-.402.43-.899.72-1.446.933-.39.15-.767.329-1.135.525-.515.275-.9.679-1.151 1.203-.058.12-.125.133-.243.112a6.8 6.8 0 0 1-2.668-1.115c-.984-.674-1.769-1.522-2.26-2.622q-.06-.136-.115-.275m4.87-2.933c-.931 0-1.862.002-2.793-.002-.108 0-.146.024-.144.14q.009.818 0 1.638c0 .111.03.144.143.143.565-.005 1.13 0 1.695-.005.11-.001.145.027.144.142-.006.57 0 1.14-.004 1.71-.001.099.027.13.127.129q.834-.007 1.667 0c.103.001.125-.034.124-.13-.004-.57.002-1.14-.004-1.71-.001-.116.033-.142.143-.141.565.006 1.13 0 1.695.005.108.001.135-.029.133-.135a80 80 0 0 1 0-1.653c.002-.108-.029-.133-.133-.133q-1.396.004-2.793.002"/>
  <path fill="#fefefd" d="M12.736 5.41c.103-.147.203-.296.31-.441.18-.245.28-.512.241-.821-.007-.055 0-.112 0-.187.156.163.257.348.382.514.197.347.396.694.484 1.088.083.37.088.733-.19 1.04a.4.4 0 0 1-.072.066.9.9 0 0 0-.384.509c-.025.084-.062.106-.157.066a1.29 1.29 0 0 1-.68-1.678q.032-.079.066-.156"/>
  <defs>
    <linearGradient id="theta-fuel_svg__a" x1="3.277" x2="18.672" y1="0" y2="20" gradientUnits="userSpaceOnUse">
      <stop stop-color="#ed6d31"/>
      <stop offset="1" stop-color="#f3ad41"/>
    </linearGradient>
  </defs>
</svg>
