<svg xmlns="http://www.w3.org/2000/svg" fill="none" viewBox="0 0 20 20">
  <path fill="#08c" d="M10 20c5.523 0 10-4.477 10-10S15.523 0 10 0 0 4.477 0 10s4.477 10 10 10"/>
  <path fill="#fff" fill-rule="evenodd" d="M7.218 6.607h5.61c.198 0 .396.03.603.126a1.15 1.15 0 0 1 .493.466q.163.289.164.626c0 .213-.05.445-.164.647l-.004.006-3.543 6.087a.435.435 0 0 1-.753-.003L6.145 8.488l-.003-.005c-.08-.13-.202-.334-.224-.595a1.19 1.19 0 0 1 .677-1.17c.235-.11.473-.11.623-.11m2.348.87H7.218c-.154 0-.213.01-.254.029a.31.31 0 0 0-.18.31c.004.037.019.08.108.226l.005.01 2.67 4.66zm.87 0v5.258l2.73-4.69a.5.5 0 0 0 .052-.22.4.4 0 0 0-.045-.186 1 1 0 0 0-.069-.088.1.1 0 0 0-.04-.03.5.5 0 0 0-.237-.044z" clip-rule="evenodd"/>
</svg>
