<svg xmlns="http://www.w3.org/2000/svg" fill="none" viewBox="0 0 20 20">
  <circle cx="10" cy="10" r="10" fill="#000"/>
  <g clip-path="url(#tranchess_svg__a)">
    <path fill="#fff" fill-rule="evenodd" d="m4.18 9.303 2.55-2.548 3.24 3.243 3.27-3.27 2.574 2.575a.98.98 0 0 1 0 1.389l-2.57 2.57L9.98 9.998l-3.247 3.246-2.552-2.552a.98.98 0 0 1 0-1.389M8.673 3.55a1.875 1.875 0 0 1 2.651 0l5.123 5.123c.732.732.732 1.92 0 2.651l-5.123 5.123a1.875 1.875 0 0 1-2.651 0L3.55 11.324a1.875 1.875 0 0 1 0-2.651z" clip-rule="evenodd"/>
  </g>
  <defs>
    <clipPath id="tranchess_svg__a">
      <path fill="#fff" d="M3 3h14v14H3z"/>
    </clipPath>
  </defs>
</svg>
