<svg xmlns="http://www.w3.org/2000/svg" viewBox="0 0 20.2 24">
  <path fill="#178dd0" d="M.3 12.7c.1-.7.1-1.1.5-1.4.3-.3.7-.2 1.4-.1.4 0 1 .1 1.6.2s1.1.2 1.6.4c.7.2 1 .4 1.5 1s.5 1.2.5 2.3v7.5c0 .7 0 1.1-.2 1.3-.3.1-.7.1-1.4.1H2.9c-1.2 0-1.7 0-2.2-.4-.4-.4-.5-.9-.6-2s-.2-2.4-.2-4c.1-2 .2-3.7.4-4.9m19.6 0c-.1-.7-.1-1.1-.5-1.4-.3-.3-.7-.2-1.4-.1-.4 0-1 .1-1.6.2s-1.1.2-1.6.4c-.7.2-1 .4-1.5 1s-.5 1.2-.5 2.3v7.5c0 .7 0 1.1.2 1.3s.6.2 1.3.2h2.9c1.2 0 1.7 0 2.2-.4s.5-.9.6-2 .2-2.4.2-4c0-2.1-.1-3.8-.3-5M.3 3.2C.3 1.9.3 1.3.7.9S1.7.4 3 .3C4.8.2 7.4 0 10.2 0s5.4.2 7.3.3c1.2.1 1.9.1 2.3.6.4.4.4 1.1.4 2.3v.6c0 1.3 0 1.9-.4 2.3s-1 .5-2.2.6c-1.8.2-4.4.3-7.4.3-2.9 0-5.5-.1-7.3-.3-1.2-.1-1.8-.1-2.2-.5C.3 5.7.3 5.1.3 3.8z"/>
</svg>
