<svg xmlns="http://www.w3.org/2000/svg" fill="none" viewBox="0 0 20 20">
  <path fill="url(#ufo-gaming_svg__a)" d="M0 0h20v20H0z"/>
  <path fill="#000" fill-rule="evenodd" d="M15.887 6.307c-.645.034-1.095.134-1.526.341-.303.146-.61.441-.74.713-.221.461-.263 1.187-.104 1.82.06.236.261.638.42.833.166.207.443.417.74.564.39.193.297.279.823-.761.286-.566.482-.922.523-.95.142-.095.634-.01.869.15.103.07.17.178.15.24a33 33 0 0 0-.14 1.34 4 4 0 0 1-.03.29l-.015.094.37-.018c1.007-.048 1.677-.263 2.092-.671.393-.387.53-.854.46-1.556-.067-.651-.24-1.097-.592-1.52-.56-.672-1.716-.991-3.3-.909m-14.622.116c-.007.035-.09.532-.185 1.105-.277 1.673-.262 2.038.109 2.584.268.395.782.65 1.603.794.328.058 1.32.08 1.722.04 1.035-.105 1.68-.365 2.157-.871.357-.379.531-.861.58-1.609.028-.448.11-1.968.11-2.054 0-.048-.048-.05-.9-.05h-.898l-.018.187-.074.84-.084.982c-.017.194-.051.39-.084.477-.15.4-.57.596-1.275.596-.59 0-.895-.083-1.083-.297-.196-.223-.197-.254-.03-1.527.079-.608.146-1.137.15-1.176l.004-.069-.895-.007-.895-.008zm6.613.028c-.007.05-.04.71-.072 1.466a615 615 0 0 1-.097 2.25 14 14 0 0 1-.032.562l-.016.16h1.977l.007-.632.008-.632 1.537-.007 1.537-.007-.016-.368-.034-.722-.018-.354H9.664l.008-.23.008-.229 1.674.005c1.406.004 1.677-.002 1.695-.034a1 1 0 0 0 .002-.255c-.01-.119-.02-.34-.022-.493a5 5 0 0 0-.02-.424l-.017-.146h-5.1zm9.097 1.221c.147.068.416.304.366.32a1.4 1.4 0 0 1-.274-.071 4.7 4.7 0 0 0-.773-.177c-.128-.013-.114-.064.031-.115a.96.96 0 0 1 .65.043m-.579.26c.86.15 1.648.554 1.786.915.026.067.04.153.03.19-.047.188-.357.321-.773.332a1 1 0 0 1-.259-.013c-.01-.01 0-.048.025-.083.111-.158.003-.316-.319-.466-.368-.172-.857-.216-1.021-.09-.06.045-.072.075-.068.169.003.067-.007.114-.025.114-.066 0-.388-.203-.536-.338-.171-.157-.239-.264-.242-.385q-.008-.238.395-.348c.176-.05.719-.048 1.007.003m-4.418 3.852.008.23.355.008.356.007-.008-.23-.009-.23-.355-.007-.355-.008zm-8.29.05q-.736.104-.971.69c-.052.13-.063.21-.064.476 0 .279.008.334.062.436.176.33.483.465 1.049.464.378 0 .613-.062.797-.208a.7.7 0 0 1 .117-.08c.008 0 .023.062.033.138l.018.139h.217c.12 0 .223-.01.23-.022s.028-.196.044-.41c.017-.213.038-.46.048-.547l.017-.16h-.682c-.773 0-.704-.024-.72.25l-.008.153.276.014c.26.013.273.016.228.061-.068.068-.226.105-.435.103-.257-.003-.388-.05-.467-.165-.058-.085-.064-.118-.05-.277.027-.293.162-.415.489-.438.234-.017.447.031.53.12.061.066.077.068.448.068h.384v-.112c0-.302-.216-.53-.611-.65-.184-.056-.714-.079-.979-.042m2.558.29c-.297.043-.635.125-.635.153 0 .035.167.43.193.455.014.014.101.011.203-.007.483-.084.926-.066 1.034.042.058.059.024.103-.064.08-.328-.082-.909-.06-1.191.046-.306.115-.456.339-.41.611.051.31.487.473 1.039.387.173-.027.328-.077.578-.187.024-.01.035.015.035.085v.1h.36c.197 0 .365-.011.374-.024.008-.014.018-.28.022-.59.007-.545.005-.572-.058-.713-.122-.268-.368-.406-.81-.453a2 2 0 0 0-.67.015m3.06-.023c-.16.03-.337.102-.443.178a1 1 0 0 1-.127.082c-.008 0-.014-.056-.014-.126v-.126l-.354.008-.354.008-.018.333c-.01.184-.027.58-.038.883l-.021.55.372-.008.371-.008.002-.083.007-.477.005-.394.115-.084c.153-.112.369-.162.507-.116.18.06.194.11.196.664l.002.49.368.008.368.007v-.971l.09-.067c.148-.11.217-.137.369-.14.167-.004.27.042.321.145.024.048.042.24.052.546l.015.472.368.008.367.007-.015-.577a7 7 0 0 0-.044-.708.6.6 0 0 0-.348-.428c-.141-.07-.19-.08-.397-.077a1.3 1.3 0 0 0-.715.195l-.15.096-.08-.085a.8.8 0 0 0-.207-.142 1.3 1.3 0 0 0-.57-.063m5.041 0c-.203.024-.4.078-.545.151-.086.043-.164.071-.174.061s-.017-.058-.017-.11v-.092h-.345c-.296 0-.347.006-.354.045-.012.057.029 1.326.05 1.56l.015.174.365-.007.366-.008-.002-.097a28 28 0 0 0-.023-.49l-.02-.393.186-.092a.67.67 0 0 1 .37-.092c.23.001.348.059.407.197.034.082.093.662.096.932 0 .044.037.049.379.049h.378l-.018-.188c-.01-.103-.036-.384-.056-.624-.044-.498-.088-.626-.27-.782-.165-.142-.508-.226-.788-.194m1.822.012c-.423.083-.654.413-.6.856.067.554.447.829 1.112.804.237-.009.302-.022.44-.09.088-.043.167-.095.176-.117.008-.02.027-.038.043-.038.042 0 .005.261-.048.343a.3.3 0 0 1-.126.101c-.126.053-.663.04-1.012-.025a2.4 2.4 0 0 0-.314-.046c-.012.012.045.577.06.592.024.024.4.09.662.117.723.075 1.13-.01 1.373-.287.198-.225.212-.381.108-1.212a52 52 0 0 1-.087-.722c-.03-.29-.016-.28-.409-.272l-.339.008.01.107.009.107-.176-.099a1.32 1.32 0 0 0-.882-.127m-4.179.019a9 9 0 0 0 .011.674c.013.359.024.75.025.868l.002.215h.36c.197 0 .364-.01.37-.021.015-.024-.032-1.462-.053-1.639l-.014-.118h-.344c-.19 0-.35.01-.357.02m5.038.565c.182.04.25.111.25.266 0 .102-.011.124-.077.158-.105.053-.375.076-.583.05-.219-.028-.313-.105-.313-.257 0-.118.052-.184.162-.208.041-.01.087-.02.102-.026.064-.02.327-.011.459.017m-9.988.527c.072.07-.2.16-.558.184-.27.02-.371 0-.371-.072 0-.127.182-.172.611-.152.16.008.304.026.318.04" clip-rule="evenodd"/>
  <path fill="#000" d="M16.396 7.932c.86.15 1.648.554 1.786.915.026.067.04.153.03.19-.047.188-.357.321-.773.332a1 1 0 0 1-.259-.013c-.01-.01 0-.048.025-.083.111-.158.003-.316-.319-.466-.368-.172-.857-.216-1.021-.09-.06.045-.072.075-.068.169.003.067-.007.114-.025.114-.066 0-.388-.203-.536-.338-.171-.157-.239-.264-.242-.385q-.008-.238.395-.348c.176-.05.719-.048 1.007.003m.579-.26c.147.068.416.304.366.32a1.4 1.4 0 0 1-.274-.071 4.7 4.7 0 0 0-.773-.177c-.128-.013-.114-.064.031-.115a.96.96 0 0 1 .65.043"/>
  <path fill="#fff" fill-rule="evenodd" d="M15.609 5.918c-.645.034-1.095.134-1.526.341-.303.146-.609.441-.74.713-.22.461-.262 1.188-.104 1.82.06.237.261.638.42.833.166.207.443.417.74.564.39.193.297.279.823-.76.287-.567.482-.923.523-.95.142-.096.634-.011.869.149.103.07.171.179.15.24-.013.037-.115 1.02-.139 1.34a5 5 0 0 1-.03.29l-.016.094.37-.018c1.007-.048 1.678-.263 2.092-.671.393-.387.53-.854.46-1.556-.067-.651-.24-1.097-.591-1.52-.56-.672-1.717-.991-3.301-.909M.988 6.034C.98 6.07.897 6.566.802 7.14.525 8.812.54 9.177.91 9.723c.268.395.782.65 1.603.794.328.058 1.32.081 1.722.04 1.036-.105 1.68-.365 2.157-.871.358-.378.531-.861.58-1.609.028-.448.11-1.968.11-2.054 0-.048-.048-.05-.899-.05h-.9l-.017.187-.074.84-.084.982c-.017.195-.051.39-.084.477-.15.4-.57.597-1.275.597-.59 0-.894-.084-1.083-.298-.196-.223-.197-.254-.03-1.527.08-.608.147-1.137.15-1.175l.004-.07-.895-.007L1 5.971zm6.612.029c-.007.05-.04.709-.072 1.465a615 615 0 0 1-.097 2.25c-.009.221-.023.474-.032.562l-.016.16H9.36l.007-.632.008-.632 1.537-.007 1.538-.007-.017-.368-.034-.722-.017-.354H9.386l.009-.23.008-.229 1.673.005c1.406.004 1.677-.002 1.695-.034a1 1 0 0 0 .002-.255 7 7 0 0 1-.021-.493 5 5 0 0 0-.02-.424l-.018-.146h-5.1zm9.097 1.22c.147.068.416.304.366.321a1.4 1.4 0 0 1-.274-.072 4.7 4.7 0 0 0-.773-.177c-.128-.012-.113-.064.032-.115a.96.96 0 0 1 .649.043m-.579.26c.86.15 1.648.554 1.786.915a.4.4 0 0 1 .03.19c-.047.188-.357.322-.773.332a1 1 0 0 1-.259-.013c-.01-.01.001-.048.025-.082q.165-.24-.319-.467c-.368-.172-.857-.215-1.021-.09-.06.045-.072.075-.068.169.003.067-.007.114-.025.114-.066 0-.388-.203-.535-.338-.172-.156-.24-.264-.243-.385q-.008-.237.395-.348c.176-.05.72-.048 1.007.003M11.7 11.395l.008.23.355.008.356.008-.008-.23-.008-.23-.356-.008-.355-.008zm-8.29.051q-.736.102-.971.689c-.052.13-.063.21-.063.476-.001.279.007.334.061.436.176.33.483.465 1.049.464.378 0 .613-.061.797-.207a.7.7 0 0 1 .117-.082c.008 0 .023.063.033.14l.018.138h.217c.12 0 .223-.01.23-.022a4 4 0 0 0 .044-.41c.017-.213.038-.46.048-.547l.017-.16h-.682c-.773 0-.703-.024-.72.25l-.008.153.276.014c.26.013.273.016.228.061-.068.068-.226.105-.435.103-.257-.003-.388-.049-.467-.165-.058-.085-.064-.117-.05-.277.027-.293.162-.415.489-.438.234-.017.447.032.53.12.062.066.077.068.448.068H5v-.112c0-.302-.215-.53-.611-.65-.184-.056-.714-.078-.978-.042m2.558.29c-.296.043-.635.124-.635.152 0 .035.168.43.194.455.013.014.1.011.202-.006.484-.085.926-.067 1.034.041.059.059.024.103-.064.08-.327-.082-.908-.06-1.191.047-.306.114-.456.338-.41.61.051.31.487.473 1.04.387a2.2 2.2 0 0 0 .577-.187c.024-.01.035.015.035.085v.1h.36c.197 0 .366-.01.374-.024s.018-.28.022-.59c.007-.545.005-.572-.058-.713-.122-.268-.368-.406-.81-.453a2 2 0 0 0-.67.015m3.06-.024c-.16.03-.337.102-.443.178a1 1 0 0 1-.127.082c-.007 0-.014-.056-.014-.126v-.125l-.354.007-.354.008-.018.333c-.01.184-.027.581-.038.883l-.021.55.372-.008.372-.008.001-.083.007-.477.005-.393.116-.085c.152-.112.368-.161.506-.116.18.06.194.11.196.664l.002.49.368.008.368.008v-.971l.09-.068c.148-.11.217-.136.369-.14.167-.004.27.043.321.145.024.048.042.24.052.546l.015.472.368.008.367.008-.015-.578a7 7 0 0 0-.044-.708.6.6 0 0 0-.347-.428c-.142-.07-.191-.08-.398-.077a1.3 1.3 0 0 0-.715.195l-.15.096-.08-.085a.8.8 0 0 0-.207-.142 1.3 1.3 0 0 0-.57-.063m5.041 0c-.203.024-.4.078-.545.151-.086.043-.164.071-.174.062-.01-.01-.017-.06-.017-.11v-.093h-.345c-.296 0-.346.007-.354.045-.011.057.029 1.327.05 1.56l.015.175.366-.008.365-.008-.002-.097a29 29 0 0 0-.023-.49l-.02-.393.186-.092a.67.67 0 0 1 .37-.091c.23 0 .349.058.407.197.034.081.094.66.096.931 0 .044.037.049.379.049h.378l-.018-.187-.056-.625c-.044-.498-.088-.626-.27-.782-.165-.142-.508-.226-.788-.194m1.822.013c-.423.083-.654.412-.6.855.067.554.447.829 1.112.804.237-.008.302-.022.44-.089.088-.043.168-.096.176-.117s.028-.04.043-.04c.042 0 .005.262-.048.344a.3.3 0 0 1-.126.102c-.126.052-.663.038-1.012-.026a2.4 2.4 0 0 0-.314-.046c-.012.012.046.577.06.592.024.024.401.09.663.118.722.074 1.13-.011 1.372-.287.198-.225.212-.382.108-1.213a50 50 0 0 1-.087-.722c-.03-.29-.016-.28-.409-.272l-.338.008.009.107.009.107-.176-.098a1.33 1.33 0 0 0-.882-.127m-4.178.018c-.007.011-.003.315.01.674s.025.75.025.868l.002.215h.36c.197 0 .364-.01.371-.02.014-.025-.033-1.463-.054-1.64l-.014-.118h-.344c-.189 0-.35.01-.357.021m5.037.565c.182.04.25.111.25.266 0 .102-.011.125-.077.158-.105.053-.375.076-.583.05-.219-.027-.312-.104-.312-.257 0-.117.051-.184.161-.208.041-.009.087-.02.102-.026.064-.02.327-.011.459.017m-9.988.527c.072.07-.2.16-.558.185-.27.018-.37-.001-.37-.073 0-.127.181-.172.61-.151.16.007.304.025.318.04" clip-rule="evenodd"/>
  <defs>
    <linearGradient id="ufo-gaming_svg__a" x1="10" x2="10" y1="0" y2="20" gradientUnits="userSpaceOnUse">
      <stop stop-color="#F78470"/>
      <stop offset="1" stop-color="#8B25F1"/>
    </linearGradient>
  </defs>
</svg>
