<svg xmlns="http://www.w3.org/2000/svg" viewBox="0 0 400 432.7">
  <path fill="#f50db4" d="M325.1 65.4c.6-10.2 2-17 4.8-23.1 1.1-2.4 2.1-4.4 2.3-4.4s-.3 1.8-1.1 4c-2 6-2.4 14.2-1 23.7 1.8 12.1 2.8 13.8 15.6 26.9 6 6.1 13 13.8 15.5 17.1l4.6 6-4.6-4.3c-5.6-5.3-18.6-15.5-21.4-17-1.9-1-2.2-1-3.4.2-1.1 1.1-1.3 2.7-1.5 10.4-.2 12-1.9 19.7-5.8 27.3-2.1 4.2-2.5 3.3-.5-1.4 1.4-3.5 1.6-5 1.6-16.6 0-23.3-2.8-28.9-19.1-38.5-4.1-2.4-10.9-5.9-15.1-7.8s-7.5-3.5-7.4-3.6c.5-.5 16.3 4.2 22.7 6.6 9.5 3.6 11.1 4.1 12.2 3.7.9-.4 1.3-2.6 1.6-9.2"/>
  <path fill="#f50db4" d="M124.4 31.5c-5.6-.9-5.9-1-3.2-1.4 5.1-.8 17.1.3 25.4 2.2 19.3 4.6 36.9 16.3 55.6 37l5 5.5 7.1-1.1c30-4.8 60.6-1 86.1 10.8 7 3.2 18.1 9.7 19.5 11.3.4.5 1.3 3.9 1.8 7.5 1.9 12.5.9 22.1-2.9 29.3-2.1 3.9-2.2 5.1-.8 8.5 1.1 2.7 4.3 4.6 7.4 4.6 6.3 0 13.2-10.2 16.3-24.4l1.3-5.6 2.5 2.8c13.7 15.4 24.4 36.4 26.2 51.3l.5 3.9-2.3-3.5c-4-6.1-7.9-10.2-13-13.6-9.2-6-18.9-8.1-44.5-9.4-23.2-1.2-36.3-3.2-49.3-7.4-22.1-7.2-33.3-16.7-59.6-51.1-11.7-15.2-18.9-23.7-26.1-30.5-16.4-15.4-32.4-23.5-53-26.7m11 73.8c-11.4-15.7-18.5-39.7-17-57.6l.5-5.6 2.6.5c4.9.9 13.3 4 17.3 6.4 10.8 6.5 15.5 15.2 20.3 37.3 1.4 6.5 3.2 13.8 4.1 16.3 1.4 4 6.5 13.3 10.7 19.4 3 4.4 1 6.4-5.6 5.8-10.3-.9-24.1-10.3-32.9-22.5m175.9 116.6c-53.5-21.4-72.3-40-72.3-71.4 0-4.6.2-8.4.4-8.4s2.3 1.5 4.6 3.4c10.8 8.6 23 12.3 56.6 17.2 19.8 2.9 30.9 5.2 41.2 8.6 32.6 10.8 52.8 32.6 57.6 62.4 1.4 8.6.6 24.9-1.7 33.4-1.8 6.7-7.3 18.9-8.7 19.4-.4.1-.8-1.4-.9-3.5-.6-11.2-6.2-22-15.8-30.2-10.9-9.2-25.4-16.6-61-30.9m-37.6 8.9c-.7-4-1.8-9-2.6-11.3l-1.4-4 2.5 2.8c3.5 3.9 6.3 8.9 8.6 15.6 1.8 5.1 2 6.6 2 14.9 0 8.1-.2 9.8-1.9 14.4-2.6 7.2-5.8 12.4-11.3 17.9-9.8 9.9-22.3 15.4-40.4 17.6-3.1.4-12.3 1.1-20.4 1.5-20.3 1.1-33.7 3.2-45.8 7.4-1.7.6-3.3 1-3.4.8-.5-.5 7.7-5.3 14.5-8.6 9.5-4.6 19-7.1 40.3-10.6 10.5-1.7 21.4-3.9 24.1-4.7 26.1-7.8 39.5-28.3 35.2-53.7"/>
  <path fill="#f50db4" d="M298.2 274.1c-7.1-15.2-8.7-29.9-4.8-43.5.4-1.5 1.1-2.7 1.5-2.7s2.1.9 3.7 2c3.3 2.2 9.8 5.9 27.3 15.4 21.8 11.8 34.3 21 42.7 31.5 7.4 9.2 12 19.6 14.2 32.3 1.3 7.2.5 24.6-1.3 31.8-5.9 22.9-19.5 40.9-39 51.4-2.9 1.5-5.4 2.8-5.7 2.8s.8-2.6 2.3-5.8c6.5-13.6 7.3-26.8 2.3-41.6-3-9-9.2-20-21.7-38.6-14.3-21.6-17.9-27.4-21.5-35m-200.8 82c19.8-16.7 44.5-28.5 67-32.1 9.7-1.6 25.8-.9 34.8 1.3 14.4 3.7 27.3 11.9 33.9 21.6 6.5 9.5 9.3 17.9 12.3 36.4 1.2 7.3 2.4 14.6 2.8 16.3 2.2 9.6 6.5 17.3 11.8 21.1 8.4 6.1 22.9 6.5 37.1 1 2.4-.9 4.5-1.6 4.7-1.4.5.5-6.7 5.3-11.7 7.8-6.8 3.4-12.2 4.7-19.4 4.7-13 0-23.9-6.6-32.9-20-1.8-2.6-5.8-10.6-8.9-17.6-9.5-21.6-14.2-28.2-25.3-35.4-9.6-6.3-22.1-7.4-31.4-2.8-12.3 6-15.7 21.6-6.9 31.5 3.5 3.9 10 7.3 15.3 8 10 1.2 18.5-6.3 18.5-16.3 0-6.5-2.5-10.2-8.8-13.1-8.6-3.9-17.9.7-17.9 8.7 0 3.4 1.5 5.6 5 7.2 2.2 1 2.3 1.1.5.7-7.9-1.6-9.8-11.1-3.4-17.4 7.7-7.6 23.5-4.2 28.9 6.1 2.3 4.3 2.5 13 .6 18.2-4.5 11.7-17.4 17.8-30.6 14.5-9-2.3-12.6-4.7-23.4-15.8-18.8-19.3-26.1-23-53.2-27.2l-5.2-.8z"/>
  <path fill="#f50db4" fill-rule="evenodd" d="M9.2 11.5c62.8 75.7 106 107 110.8 113.6 4 5.5 2.5 10.4-4.3 14.2-3.8 2.1-11.5 4.3-15.4 4.3-4.4 0-5.9-1.7-5.9-1.7-2.6-2.4-4-2-17.1-25.1-18.2-28-33.4-51.3-33.8-51.7-1-.9-.9-.9 32 57.7 5.3 12.2 1.1 16.7 1.1 18.4 0 3.5-1 5.4-5.4 10.3-7.3 8.1-10.6 17.2-12.9 36.1-2.6 21.1-10.1 36.1-30.7 61.6-12.1 15-14 17.7-17.1 23.7-3.8 7.6-4.9 11.9-5.3 21.4-.5 10.1.4 16.7 3.5 26.4 2.7 8.5 5.6 14.1 12.9 25.3 6.3 9.7 9.9 16.9 9.9 19.7 0 2.2.4 2.2 10.2.1 23.3-5.2 42.2-14.4 52.8-25.7 6.6-7 8.1-10.8 8.2-20.4 0-6.3-.2-7.6-1.9-11.2-2.8-5.9-7.8-10.7-18.9-18.3-14.5-9.9-20.8-17.9-22.5-28.8-1.4-9 .2-15.3 8.3-32.1 8.3-17.4 10.4-24.8 11.8-42.3.9-11.3 2.2-15.8 5.4-19.3 3.4-3.7 6.5-5 14.9-6.1 13.7-1.9 22.5-5.4 29.7-12 6.2-5.7 8.9-11.2 9.3-19.5l.3-6.3-3.5-4C122.8 105.1.8 0 0 0c-.2 0 4 5.2 9.2 11.5m29.3 294.4c2.9-5 1.3-11.5-3.4-14.7-4.5-3-11.5-1.6-11.5 2.3 0 1.2.7 2.1 2.1 2.8 2.5 1.3 2.7 2.7.7 5.7s-1.8 5.6.5 7.4c3.6 2.9 8.8 1.3 11.6-3.5m109.1-141c-6.5 2-12.7 8.8-14.7 15.9-1.2 4.4-.5 12 1.3 14.3 2.9 3.8 5.6 4.8 13.1 4.8 14.7-.1 27.5-6.4 29-14.2 1.2-6.4-4.4-15.3-12.1-19.2-4-2.1-12.5-2.9-16.6-1.6m17.2 13.4c2.3-3.2 1.3-6.7-2.6-9-7.3-4.5-18.4-.8-18.4 6.1 0 3.4 5.8 7.2 11.1 7.2 3.5 0 8.3-2.1 9.9-4.3" clip-rule="evenodd"/>
</svg>
