<svg xmlns="http://www.w3.org/2000/svg" fill="none" viewBox="0 0 20 20">
  <path fill="url(#uniswap_svg__a)" d="M10 20c5.523 0 10-4.477 10-10S15.523 0 10 0 0 4.477 0 10s4.477 10 10 10"/>
  <path fill="url(#uniswap_svg__b)" fill-rule="evenodd" d="M10 19a9 9 0 1 0 0-18 9 9 0 0 0 0 18m10-9c0 5.523-4.477 10-10 10S0 15.523 0 10 4.477 0 10 0s10 4.477 10 10" clip-rule="evenodd"/>
  <path fill="#df367c" d="M8.84 7.717a.8.8 0 0 1-.133.277c-.116.151-.27.269-.445.342a1.7 1.7 0 0 1-.603.14h-.005a.505.505 0 0 0-.47.377 1 1 0 0 0-.029.16q-.013.119-.02.251-.005.096-.014.205a2.7 2.7 0 0 1-.253.853l-.08.165c-.144.288-.273.548-.236.896.03.269.166.449.348.634.086.089.2.165.32.244.333.22.7.463.579 1.075-.1.496-.918 1.016-2.068 1.198.111-.017-.133-.437-.161-.485l-.002-.003q-.048-.076-.097-.148c-.093-.142-.187-.283-.26-.44-.192-.408-.28-.88-.202-1.327.071-.405.338-.729.594-1.04l.124-.151c.343-.429.703-.99.783-1.545l.02-.156q.014-.152.042-.315.043-.28.171-.533.089-.166.226-.292a.29.29 0 0 0 .057-.356L5.192 4.43l2.634 3.265a.328.328 0 0 0 .504.01.224.224 0 0 0 .007-.282q-.185-.236-.377-.476l-.153-.191-.663-.824-1.33-1.646L4 2l1.985 2.14L7.4 5.711l.706.788.195.22c.17.19.339.38.508.58l.039.048.008.073q.017.15-.017.296m6.771 1.11.002.004c0-.351-.217-.931-.655-1.489l-.01-.013a4.4 4.4 0 0 0-.534-.556 3.7 3.7 0 0 0-.66-.46l-.017-.01c-.742-.405-1.708-.614-2.898-.379a6 6 0 0 0-.516-.552 3 3 0 0 0-.973-.621 2.5 2.5 0 0 0-1.122-.138c.365.033.722.136 1.05.302.317.17.602.394.844.662q.366.41.689.857l.054.07c.21.274.423.554.689.802q.22.209.486.355a2 2 0 0 0 .277.121q.136.053.278.092c.375.107.76.146 1.134.166l.156.008q.201.01.398.023.27.016.53.084c.261.068.491.224.651.442q.082.11.147.23"/>
  <path fill="#df367c" d="m14.508 6.855-.059-.054-.035-.031.028.025zm-.458 3.471c-1.206-.492-2.467-1.006-2.28-2.45.403.433 1.035.523 1.723.622.623.09 1.292.185 1.877.548 1.38.856 1.179 2.52.71 3.131.042-1.007-.973-1.42-2.03-1.851m-4.866-.724c.318-.03.997-.196.693-.733a.68.68 0 0 0-.639-.325.63.63 0 0 0-.542.475c-.094.351.006.63.488.583m-.083-4.244c-.2-.231-.51-.353-.813-.397a2 2 0 0 0-.022.23c-.013.632.21 1.326.643 1.809.138.156.305.284.492.377.107.052.393.183.5.065a.08.08 0 0 0 .008-.076.6.6 0 0 0-.085-.141 1 1 0 0 1-.065-.098q-.027-.05-.057-.1a2 2 0 0 1-.099-.19c-.073-.175-.11-.361-.148-.547l-.023-.112c-.058-.287-.131-.588-.331-.82"/>
  <path fill="#df367c" d="M13.367 10.402c-.31.869.19 1.602.687 2.331.555.816 1.107 1.626.518 2.614 1.144-.475 1.688-1.909 1.213-3.047-.3-.72-1.02-1.11-1.69-1.471a8 8 0 0 1-.728-.427m-3.356 2.074a2.6 2.6 0 0 0-.581.332 4.2 4.2 0 0 1 1.265-.25l.237-.013q.206-.007.42-.024.351-.024.684-.142a1.7 1.7 0 0 0 .617-.386c.177-.178.3-.402.358-.647a1.45 1.45 0 0 0-.367-1.307c.079.2.127.412.144.628.014.2-.013.401-.08.59a1.2 1.2 0 0 1-.311.472c-.144.13-.31.235-.492.306-.252.101-.536.143-.833.187q-.203.028-.41.066-.335.061-.65.188m3.617 3.567-.042.033q-.079.065-.163.124-.11.073-.23.128a1.2 1.2 0 0 1-.53.121c-.5-.01-.852-.382-1.058-.804a6 6 0 0 1-.15-.338 4 4 0 0 0-.255-.533c-.238-.39-.647-.706-1.125-.647a.65.65 0 0 0-.486.282c-.285.444.124 1.066.646.978a.47.47 0 0 0 .244-.106.54.54 0 0 0 .181-.524.4.4 0 0 0-.168-.251.43.43 0 0 1 .218.235.67.67 0 0 1-.119.653.7.7 0 0 1-.14.12.82.82 0 0 1-.532.117.97.97 0 0 1-.56-.282 2 2 0 0 1-.233-.25 3 3 0 0 0-.107-.114 2 2 0 0 0-.583-.427 2.2 2.2 0 0 0-.468-.146 3 3 0 0 0-.293-.047c-.069-.012-.18-.031-.2-.013q.382-.352.826-.622c.302-.18.628-.32.967-.415.352-.1.72-.128 1.082-.084q.282.034.544.142.276.11.498.309c.145.137.263.302.346.484q.112.257.167.533.027.149.048.319c.069.51.148 1.1.733 1.202q.056.012.113.017l.116.002q.12-.009.239-.034.245-.058.474-.162"/>
  <defs>
    <linearGradient id="uniswap_svg__a" x1="7" x2="10" y1="3" y2="20" gradientUnits="userSpaceOnUse">
      <stop stop-color="#fff4fb"/>
      <stop offset="1" stop-color="#ffcceb"/>
    </linearGradient>
    <linearGradient id="uniswap_svg__b" x1="27.5" x2="4.5" y1="30.5" y2="0" gradientUnits="userSpaceOnUse">
      <stop stop-color="#df367c"/>
      <stop offset="1" stop-color="#df367c" stop-opacity="0"/>
    </linearGradient>
  </defs>
</svg>
