<svg xmlns="http://www.w3.org/2000/svg" viewBox="0 0 42 42">
  <path fill="#fff" d="M21 0c11.6 0 21 9.4 21 21s-9.4 21-21 21S0 32.6 0 21 9.4 0 21 0z"/>
  <circle cx="21" cy="21" r="19.6" fill="#216c58" stroke="#216c58" stroke-width=".7"/>
  <path fill="#216c58" d="M39.2 21c0 10.1-8.1 18.2-18.2 18.2S2.8 31.1 2.8 21 10.9 2.8 21 2.8 39.2 10.9 39.2 21z"/>
  <path fill="#216c58" d="M18.5 29.8h2.1v2.1h-2.1zm3.5 0h2.1v2.1H22z"/>
  <path fill="#fff" d="M15 8h13.3c.4 0 .7.4.7.7v.4c0 .4-.3.7-.7.7H15c-.4 0-.7-.3-.7-.7v-.4c0-.3.4-.7.7-.7zm6 2.5v23.8c0 .4-.3.7-.7.7h-.4c-.4 0-.7-.3-.7-.7V10.5H21zm2.8 0v23.8c0 .4-.3.7-.7.7h-.4c-.4 0-.7-.3-.7-.7V10.5h1.8z"/>
  <path fill="#fff" stroke="#216c58" stroke-width=".7" d="M19.5 16.4c.5-.2 1.1-.3 1.9-.3 1.1 0 1.9.2 2.5.6.4.3.7.6.9 1.1.2.4.5.8 1.1.8h3.2c.6 0 1.1-.5 1-1.1-.1-1-.5-1.8-1.1-2.6-.7-1-1.8-1.7-3.1-2.2-1.3-.5-2.8-.8-4.5-.8-1.7 0-3.2.3-4.5.8-1.3.5-2.4 1.3-3.2 2.2-.8 1-1.2 2.1-1.2 3.4 0 1.6.6 2.9 1.8 3.8 1.2.9 2.7 1.6 4.6 2l2.5.5c.8.2 1.5.4 2 .6.5.2.9.4 1.2.7.2.2.4.5.4.9s-.1.7-.4 1.1c-.3.3-.7.6-1.3.8-.5.2-1.2.3-2 .3s-1.5-.1-2.1-.3c-.6-.2-1.1-.5-1.4-.9-.2-.3-.4-.6-.5-.9-.1-.5-.5-.9-1.1-.9H13c-.6 0-1.1.5-1 1.1.1 1.2.5 2.2 1.2 3.1.8 1 1.9 1.8 3.3 2.3 1.4.5 3 .8 4.9.8 1.9 0 3.5-.2 4.8-.8 1.4-.5 2.4-1.2 3.1-2.2.7-1 1.1-2.1 1.1-3.4 0-.9-.2-1.7-.6-2.4-.4-.7-.9-1.3-1.5-1.8s-1.4-.9-2.2-1.3c-.8-.3-1.8-.6-2.8-.8l-2-.4c-.5-.1-.9-.2-1.3-.3-.4-.1-.8-.3-1.1-.5-.3-.2-.5-.4-.7-.6-.1-.2-.2-.4-.2-.7 0-.3.1-.7.3-.9.4-.4.7-.6 1.2-.8z"/>
  <path fill="#fff" d="M19.2 15.1H21v2.4h-1.8zm0 8.7H21v2.5h-1.8zm0 7.3H21v2.4h-1.8zm2.9-16h1.8v2.4h-1.8zm0 8.7h1.8v2.5h-1.8zm0 7.3h1.8v2.4h-1.8z"/>
  <path fill="#fff" fill-rule="evenodd" d="M38.6 22c-.3 0-.5.2-.5.5-.8 8.8-8.1 15.7-17.1 15.7S4.7 31.3 3.9 22.5c0-.3-.3-.5-.5-.5-.3 0-.5.3-.5.6.8 9.3 8.6 16.6 18.1 16.6s17.3-7.3 18.1-16.6c.1-.3-.2-.6-.5-.6zM3.4 20c.3 0 .5-.2.5-.5C4.7 10.7 12 3.9 21 3.9s16.3 6.9 17.1 15.6c0 .3.3.5.5.5.3 0 .5-.3.5-.6-.8-9.3-8.6-16.6-18.1-16.6S3.7 10.1 2.9 19.4c-.1.3.2.6.5.6z" clip-rule="evenodd"/>
</svg>
