<svg xmlns="http://www.w3.org/2000/svg" fill="none" viewBox="0 0 512 512">
  <circle cx="256" cy="256" r="256" fill="#2E3BFF"/>
  <path fill="#fff" d="M315.164 217.103h-48.335a7.14 7.14 0 0 0-5.061 2.106l-111.307 111.8H78V223.338l43.097-43.336v120.025h6.158l112.47-112.969A23.93 23.93 0 0 1 256.688 180h58.476v37.105zM434.368 180h-72.463L250.6 291.798a7.14 7.14 0 0 1-5.061 2.105h-48.335v37.104h58.425c6.395 0 12.528-2.55 17.048-7.093l112.434-112.93h6.158v101.41H321.83v18.615h69.439l6.397-6.432 5.965-5.998 30.737-30.906z"/>
</svg>
