<svg xmlns="http://www.w3.org/2000/svg" fill="none" viewBox="0 0 20 20">
  <circle cx="10" cy="10" r="10" fill="#e9f0f5"/>
  <path fill="#011019" fill-rule="evenodd" d="M10.354 16.892c-.348.152-.615.136-.95 0-1.312-.532-2.26-1.334-2.913-2.609a8.9 8.9 0 0 1-.983-5.15q.21.173.475.237.646.067 1.287-.034 1.677-.003 2.203 1.559.067.78 0 1.559a1 1 0 0 0-.712-.509q-1.522.396-2.541-.779.29 3.2 2.948 4.981.598.28 1.22.068a5.1 5.1 0 0 0 1.931-1.728 6.7 6.7 0 0 0 1.152-3.253q-.91 1.065-2.27.678a1.26 1.26 0 0 0-.949.542 3.35 3.35 0 0 1 .305-2.237q.726-.887 1.897-.88.66.097 1.322.033a.84.84 0 0 0 .44-.237q.364 3.584-1.83 6.438c-.571.618-1.253.983-2.032 1.321m-2.61-6.607c.543 0 .901.27 1.119.745q.076.115-.034.204c-.522.022-.915.034-1.491-.102a2.1 2.1 0 0 1-.61-.61c.35-.07.542-.203 1.017-.237m4.135 0c.44-.034.779.068 1.152.237-.185.297-.305.475-.814.712-.745.101-.931-.015-1.423-.034q.288-.78 1.085-.915" clip-rule="evenodd" opacity=".971"/>
  <path fill="#011019" fill-rule="evenodd" d="M8.964 12.86c-.026.242.01.334.06.38.023.02.056.012.078-.008.22-.205.483-.224.74-.059a.07.07 0 0 0 .076.002c.241-.141.454-.164.666.048.024.024.063.03.088.007.107-.1.047-.189-.013-.37.221.254.236.773-.427.73-.09-.006-.178.036-.212.118-.046.11-.066.18-.14.304a5 5 0 0 0-.236-.349.22.22 0 0 0-.184-.082c-.503.015-.685-.31-.496-.72" clip-rule="evenodd" opacity=".915"/>
  <path fill="#011019" fill-rule="evenodd" d="M9.337 14.351c.237-.068.371.067.508.136.212-.126.336-.194.576-.136.234.132.584.268.848.339a.96.96 0 0 1-.848.068q-.576.27-1.152 0a.87.87 0 0 1-.847-.102c.373-.053.576-.136.915-.305" clip-rule="evenodd" opacity=".936"/>
  <path fill="#011019" fill-rule="evenodd" d="M9.168 15.097a2.1 2.1 0 0 0 1.457 0c-.17.542-.629.715-1.118.508a.8.8 0 0 1-.34-.508" clip-rule="evenodd" opacity=".925"/>
  <path stroke="#011019" stroke-width=".542" d="M11.303 4.762h.949v.949h-.949zm-3.728 0h.949v.949h-.949z"/>
  <mask id="venice-token_svg__a" fill="#fff">
    <path d="M7.304 6.253h1.491v1.355h-1.49z"/>
  </mask>
  <path fill="#011019" d="M8.795 7.608v.542h.542v-.542zm-1.49 0h-.543v.542h.542zm.948-1.355v1.355h1.084V6.253zm.542.813h-1.49V8.15h1.49zm-.949.542V6.253H6.762v1.355z" mask="url(#venice-token_svg__a)"/>
  <path fill="#011019" d="M11.031 6.253h.542V9.03s-.27.034-.542.204z"/>
  <path fill="#011019" fill-rule="evenodd" d="M5.949 5.236a.203.203 0 1 1-.407 0 .203.203 0 0 1 .407 0m.068.695a.746.746 0 1 0-.543 0v2.558h1.83v.407s.305 0 .542.068v-.475h.407v.542s.27 0 .542.204v-.746h.339v1.017s.339.17.542.576V7.947H6.017z" clip-rule="evenodd"/>
  <path fill="#011019" fill-rule="evenodd" d="M10.083 3.745a.203.203 0 1 1-.407 0 .203.203 0 0 1 .407 0m.067.695a.746.746 0 1 0-.542 0v2.626h.542zm.475 2.626h.068v2.422s-.305.187-.543.56v-2.44H9.134v-.542zm3.592-1.83a.203.203 0 1 1-.407 0 .203.203 0 0 1 .406 0m.067.695a.746.746 0 1 0-.542 0v2.016h-1.22V6.253h-.542v2.711c.237-.068.542-.068.542-.068v-.407h1.762z" clip-rule="evenodd"/>
</svg>
