<svg xmlns="http://www.w3.org/2000/svg" fill="none" viewBox="0 0 20 20">
  <path fill="url(#venus_svg__a)" d="M10 20c5.523 0 10-4.477 10-10S15.523 0 10 0 0 4.477 0 10s4.477 10 10 10"/>
  <path fill="#fff" d="M15.103 10.555H4.897a.62.62 0 0 0-.617.617.62.62 0 0 0 .617.618h2.564L9.2 16.378a.62.62 0 0 0 .609.398.62.62 0 0 0 .609-.398l1.737-4.588h2.95a.62.62 0 0 0 .617-.618.62.62 0 0 0-.618-.617M9.808 14.5 8.78 11.79h2.053zm-4.91-5.097h10.205a.619.619 0 0 0 .436-1.053.62.62 0 0 0-.436-.182h-1.578l1.273-3.36a.62.62 0 0 0-.359-.796.62.62 0 0 0-.796.359l-1.438 3.797H7.41L5.972 4.371a.62.62 0 0 0-.796-.359.62.62 0 0 0-.359.796l1.273 3.36H4.897a.62.62 0 0 0-.617.618.62.62 0 0 0 .617.617"/>
  <defs>
    <linearGradient id="venus_svg__a" x1="2.104" x2="17.677" y1="16.289" y2="3.886" gradientUnits="userSpaceOnUse">
      <stop stop-color="#F8B342"/>
      <stop offset="1" stop-color="#F2C35E"/>
    </linearGradient>
  </defs>
</svg>
