<svg xmlns="http://www.w3.org/2000/svg" viewBox="0 0 800 800">
  <path fill="#E91F4E" d="m384.184-.203 3.41-.021q5.423-.025 10.844-.026l3.741-.002C420.322-.236 438.05.16 456 3l3.429.52c78.197 12.096 152.767 46.608 210.723 100.82a333 333 0 0 0 5.727 5.226C698.754 130.005 718.213 154.397 735 180l1.514 2.31C787.947 261.484 812.32 362.188 797 456l-.52 3.381C786.569 523.107 762.267 583.97 724 636l-1.475 2.033C705.957 660.857 686.545 682.743 665 701q-1.52 1.332-3.04 2.668c-21.3 18.653-44.88 34.473-69.685 48.082a516 516 0 0 0-6.037 3.379c-50.663 28.083-112.72 44.837-170.676 45.074l-3.486.021c-3.692.018-7.384.024-11.076.026l-3.818.002c-17.943-.015-35.446-.34-53.182-3.252l-3.377-.52C276.895 786.57 216.033 762.268 164 724l-2.033-1.475C139.143 705.957 117.257 686.545 99 665q-1.332-1.52-2.668-3.04c-18.653-21.3-34.473-44.88-48.082-69.685a516 516 0 0 0-3.379-6.037C16.788 535.575.034 473.518-.203 415.562l-.021-3.486Q-.249 406.538-.25 401l-.002-3.818C-.237 379.239.088 361.736 3 344l.52-3.377C13.43 276.895 37.732 216.033 76 164l1.475-2.033C94.043 139.143 113.455 117.257 135 99q1.52-1.332 3.04-2.668c21.3-18.653 44.88-34.473 69.685-48.082a516 516 0 0 0 6.037-3.379C264.327 16.841 326.33.04 384.184-.203"/>
  <path fill="#FEFEFE" d="M493 250h136c-1.969 5.906-3.933 11.373-6.555 16.953l-1.022 2.21q-1.082 2.334-2.17 4.666c-1.937 4.155-3.857 8.318-5.78 12.48l-1.17 2.526a1778 1778 0 0 0-9.74 21.478l-3.953 8.85c-3.748 8.39-7.524 16.77-11.298 25.15l-5.813 12.914q-3.995 8.871-7.983 17.746a23010 23010 0 0 1-24.55 54.413 8578 8578 0 0 0-15.975 35.488A8270 8270 0 0 1 518.5 497a9855 9855 0 0 0-17.552 38.952c-4.475 9.999-8.964 19.99-13.458 29.98l-2.467 5.485-3.445 7.657-1.052 2.341c-2.411 5.356-2.411 5.356-3.526 7.585H340c-17.21-37.648-17.21-37.648-25.457-56.098-4.316-9.648-8.683-19.274-13.043-28.902a9665 9665 0 0 1-17.558-38.968 17724 17724 0 0 0-16.852-37.495l-3.224-7.159q-.951-2.113-1.899-4.228a718 718 0 0 0-2.097-4.616l-1.112-2.447-1.02-2.226C257 405 257 405 257 403h136c15 31.364 15 31.364 15 34h2l.511-1.644c1.84-5.732 4.085-11.147 6.614-16.606a854 854 0 0 0 9.5-21.562c2.796-6.575 5.672-13.089 8.725-19.548 4.01-8.49 7.812-17.072 11.65-25.64l3.008-6.707 7.452-16.625 5.806-12.953c.801-1.789.801-1.789 1.62-3.613l3.225-7.194q3.745-8.349 7.48-16.703 1.726-3.863 3.455-7.725l2.378-5.326c3.772-8.43 7.67-16.782 11.576-25.154"/>
  <path fill="#FEFEFE" d="M189 250h135c6.055 12.975 12.034 25.984 18 39l97 1c-.963 3.852-2.326 7.298-3.906 10.918l-.863 1.993q-.9 2.078-1.806 4.153-1.388 3.188-2.765 6.38l-1.754 4.036-.836 1.935c-1.955 4.47-1.955 4.47-3.07 5.585-3.06.098-6.096.13-9.156.12l-2.947.003c-3.286.002-6.572-.004-9.858-.01l-7.035.001q-9.582-.001-19.165-.013-8.99-.006-17.979-.007-17.81-.004-35.62-.019-17.306-.014-34.61-.02h-2.154l-10.695-.005q-44.39-.016-88.781-.05-2.997-6.779-5.981-13.562a2934 2934 0 0 0-2.038-4.615q-1.464-3.313-2.918-6.628l-.928-2.09C172 293.228 172 293.228 172 291h34l-5.687-12.812-1.761-3.969-1.439-3.239-1.575-3.553a638 638 0 0 0-5.666-12.227C189 253 189 253 189 250"/>
  <path fill="#FEFDFE" d="M194 347h222c-3.094 8.045-6.187 15.927-9.75 23.75l-1.207 2.688c-2.908 6.427-2.908 6.427-4.043 7.562-2.479.098-4.93.13-7.41.12l-2.378.003c-2.65.002-5.3-.004-7.95-.01l-5.676.001q-7.728-.001-15.458-.013-8.067-.007-16.135-.008-15.29-.005-30.578-.021-17.401-.016-34.803-.022-35.805-.016-71.612-.05a6006 6006 0 0 1-5.444-11.633l-1.85-3.951q-1.338-2.851-2.667-5.705l-1.619-3.46c-1.316-3.012-2.38-6.132-3.42-9.251"/>
</svg>
