<svg xmlns="http://www.w3.org/2000/svg" viewBox="0 0 310.3 200">
  <linearGradient id="virtuals-protocol_svg__a" x1="1.224" x2="311.224" y1="203.898" y2="3.898" gradientTransform="matrix(1 0 0 -1 0 202)" gradientUnits="userSpaceOnUse">
    <stop offset="0" stop-color="#44bcc3"/>
    <stop offset="1" stop-color="#236d66"/>
  </linearGradient>
  <path fill="url(#virtuals-protocol_svg__a)" fill-rule="evenodd" d="M211.5 107.4c24.6-8.6 47.7-23.2 65.4-39.1.7-.6 1.1-1.5 1.2-2.5.1-.9-.2-1.9-.8-2.6-.6-.8-1.4-1.3-2.3-1.4-.9-.2-1.9 0-2.7.5-17.7 10.6-37.3 19-57.4 24.1.6-7.6.5-15.3-.5-23-2.3-17-8-33.9-20-46.8-13.3-14.7-35.1-20.2-53.9-14.3C117.9 9 99.1 29.4 98.4 53.7c-.9 32 28.9 58 59.2 61 3.5.4 7.1.6 10.7.6-5.6 12.2-12.8 23.9-20.6 34.7-23.8-39.3-59.6-71.5-102-89.1-10-4.3-20.2-7.6-30.7-9.9-3.6-.7-7-1.4-10.7-1.8-.9-.1-1.8.2-2.6.7S.4 51.2.2 52.1c-.3.9-.2 1.8.2 2.6s1.1 1.5 1.9 1.8c23.7 11.7 45.5 27 64.5 45.4 24.6 23.7 44 52.3 57 83.8 5.7 13.6 23.6 18.6 35.6 9.8 1.8-1.4 3.5-2.9 5-4.6 10.7-11.6 20.2-24.4 28.2-38.1 8.2-13.8 14.9-29.3 18.9-45.4m-53.2 62.3.3.6zm18.3-78.5c1.9-8 2.8-16.2 2.5-24.4-.8-14.7-6.5-35.5-24-35.8-15.1-.2-28.9 14.1-24.6 29.2 6.4 22.1 25.5 30.1 46.1 31" clip-rule="evenodd"/>
  <linearGradient id="virtuals-protocol_svg__b" x1="63.802" x2="373.802" y1="300.893" y2="100.893" gradientTransform="matrix(1 0 0 -1 0 202)" gradientUnits="userSpaceOnUse">
    <stop offset="0" stop-color="#44bcc3"/>
    <stop offset="1" stop-color="#236d66"/>
  </linearGradient>
  <path fill="url(#virtuals-protocol_svg__b)" d="M288.5 53.3c1.5 7.2 3.9 11.8 10.9 10.8 6-.8 10.9-6.8 10.9-12.8s-4.9-9.8-10.9-8.9c-7.5 1.2-12.1 5-10.9 10.9"/>
</svg>
