<svg xmlns="http://www.w3.org/2000/svg" fill="none" viewBox="0 0 20 20">
  <path fill="url(#vulcan-forged_svg__a)" d="M4.076 13.391C3.297 13.028 2 11.668 2 10.174c0-1.495 2.387-3.546 3.633-4.411.31-.217 2.18-1.495 2.594-1.869.288-.259 2.024-1.349 2.699-3.165.096-.26.46 1.401.311 1.92-.252.882-1.764 2.543-2.647 3.373s-2.698 2.18-2.698 2.854c0 .363 1.606-.868 2.698-1.258.727-.26 3.893-1.377 4.152-1.557.675-.467 1.816-1.272 1.816-2.27 0-.312.467.726.312 1.245-.1.334-.83 1.66-2.803 2.802S6.774 10.433 6.1 10.9c-.675.467-1.92 1.764-2.024 2.491"/>
  <path fill="url(#vulcan-forged_svg__b)" d="M15.962 7.087c.779.363 2.076 1.723 2.076 3.217 0 1.495-2.387 3.546-3.633 4.411-.31.216-2.18 1.495-2.594 1.868-.288.26-2.024 1.35-2.699 3.166-.096.26-.46-1.401-.311-1.92.252-.883 1.764-2.543 2.646-3.373.883-.83 2.699-2.18 2.699-2.854 0-.364-1.606.868-2.699 1.258-.726.26-3.891 1.377-4.15 1.557-.676.467-1.817 1.272-1.817 2.27 0 .311-.467-.726-.312-1.245.1-.334.83-1.661 2.803-2.803s5.293-2.594 5.967-3.061c.675-.467 1.92-1.765 2.024-2.491"/>
  <defs>
    <linearGradient id="vulcan-forged_svg__a" x1="10.033" x2="10.033" y1=".702" y2="19.749" gradientUnits="userSpaceOnUse">
      <stop stop-color="#FBCC21"/>
      <stop offset="1" stop-color="#F05C38"/>
    </linearGradient>
    <linearGradient id="vulcan-forged_svg__b" x1="10.033" x2="10.033" y1=".702" y2="19.749" gradientUnits="userSpaceOnUse">
      <stop stop-color="#FBCC21"/>
      <stop offset="1" stop-color="#F05C38"/>
    </linearGradient>
  </defs>
</svg>
