<svg xmlns="http://www.w3.org/2000/svg" fill="none" viewBox="0 0 21 20">
  <circle cx="10" cy="10" r="10" fill="#EAAC08"/>
  <circle cx="10" cy="10" r="8.75" fill="#A66207"/>
  <mask id="world-liberty-financial-usd_svg__a" width="18" height="18" x="1" y="1" maskUnits="userSpaceOnUse" style="mask-type:alpha">
    <circle cx="10" cy="10" r="8.75" fill="#D9D9D9"/>
  </mask>
  <g fill="#CA8404" fill-rule="evenodd" clip-rule="evenodd" mask="url(#world-liberty-financial-usd_svg__a)">
    <path d="M1.179 6.71c.145.024.245.17.224.328-.022.158-.157.267-.303.244l-7.709-1.29C-5.78 7.087-4.518 7.988-3.23 8.29l8.937 1.656-11.296 6.217a4.43 4.43 0 0 0 4.21-.31l.235-.158 4.165-2.81a.237.237 0 0 1 .34.085.28.28 0 0 1-.078.37l-4.322 2.916c1.191.535 2.546.362 3.586-.442l3.29-2.753a.233.233 0 0 1 .346.049.284.284 0 0 1-.045.375l-3.358 2.81c1.17.139 2.711-.215 3.672-.982 1.112-.964 2.5-2.37 3.715-3.011.753-.397 1.59-.6 2.64-.454a5.9 5.9 0 0 0 2.223.375c.497.092.933.406 1.204.86.157-.73-.133-1.578-.796-1.794a.78.78 0 0 0-.304-.656l-.179-.096-4.79-2.553L3.42 4.387A15.8 15.8 0 0 0 .275 3.195c-.654-.17-1.23-.262-1.897-.378L-17.812 0c.889 1.231 2.063 1.908 3.463 2.148l11.428 1.968c.146.025.244.173.22.33s-.158.264-.303.24l-9.072-1.563c.67.968 1.653 1.621 2.75 1.83l.173.03zm28.907-3.604-9.184 1.616c-.141.024-.273-.083-.294-.24-.023-.158.074-.305.216-.329l11.744-2.067c1.156-.253 2.183-1 2.856-2.086L18.638 3.047c-1.347.244-2.245.583-3.468 1.228L9.697 7.162l4.54 2.395c2.567-.503 4.924-.851 7.491-1.354 1.228-.279 2.307-1.099 2.986-2.28l-7.844 1.38c-.142.025-.274-.082-.295-.24-.022-.157.075-.304.216-.328l10.192-1.793c1.177-.24 2.262-.88 3.105-1.835z"/>
  </g>
  <path fill="#85490E" d="M10.938 4.375H9.844l-2.5 1.875v1.563l2.5-1.563v9.375h1.094z"/>
  <path fill="url(#world-liberty-financial-usd_svg__b)" d="M10.625 4.063H9.531l-2.5 1.875V7.5l2.5-1.562v9.375h1.094z"/>
  <path fill="#E68F7B" d="m17.032 10 3.04 5.023-3.03-1.294z"/>
  <path fill="#F8EC7C" d="M14 15.023 17.031 10l.012 3.729z"/>
  <path fill="#6EB87D" d="M17.031 16.875 14 15.023l3.043-1.294z"/>
  <path fill="#946BA7" d="m20.071 15.023-3.028-1.294-.011 3.146z"/>
  <path fill="#697CB9" d="m17.032 17.513 3.04-1.802-3.04 4.283z"/>
  <path fill="#4FADD0" d="M17.031 17.513 14 15.71l3.031 4.283z"/>
  <defs>
    <linearGradient id="world-liberty-financial-usd_svg__b" x1="8.828" x2="8.828" y1="4.063" y2="15.313" gradientUnits="userSpaceOnUse">
      <stop stop-color="#FEF7C3"/>
      <stop offset="1" stop-color="#FDDA4A"/>
    </linearGradient>
  </defs>
</svg>
