<svg xmlns="http://www.w3.org/2000/svg" fill="none" viewBox="0 0 1000 1000">
  <circle cx="500" cy="500" r="500" fill="#1c1917"/>
  <g fill="#eaac08" fill-rule="evenodd" clip-path="url(#world-liberty-financial_svg__a)" clip-rule="evenodd">
    <path d="M392.554 491.908c2.048.357 3.449 2.578 3.154 4.958-.313 2.38-2.213 4.026-4.261 3.669L282.839 481.08c11.658 16.5 29.458 30.105 47.59 34.666l125.91 24.989-159.149 93.846c19.386 9.301 41.318 7.496 59.321-4.681l3.302-2.38 58.676-42.421c1.623-1.17 3.781-.595 4.796 1.289 1.014 1.904.516 4.383-1.107 5.573l-60.889 44.028c16.785 8.071 35.876 5.454 50.522-6.684l46.354-41.548c1.513-1.369 3.708-1.031 4.87.734 1.18 1.765.885 4.303-.627 5.672l-47.313 42.401c16.472 2.102 38.201-3.233 51.74-14.815 15.66-14.557 35.212-35.777 52.33-45.455 10.606-5.989 22.411-9.044 37.186-6.842 10.072 4.046 20.678 5.969 31.321 5.652 7.009 1.388 13.152 6.128 16.97 12.99 2.214-11.027-1.881-23.818-11.215-27.091.129-4.006-1.531-7.714-4.279-9.896l-2.527-1.448-67.474-38.534c-31.672-18.087-63.343-36.193-95.014-54.28-14.222-7.695-29.07-13.724-44.306-17.988-9.223-2.578-17.339-3.967-26.728-5.712L125 390.625c12.525 18.583 29.07 28.796 48.789 32.426l161.012 29.708c2.047.377 3.431 2.598 3.099 4.978s-2.232 3.986-4.28 3.61l-127.81-23.581c9.445 14.616 23.297 24.473 38.736 27.626l2.453.437zm407.242-54.4-129.378 24.394c-1.992.357-3.855-1.25-4.15-3.629-.313-2.38 1.052-4.601 3.044-4.958l165.457-31.196c16.288-3.828 30.749-15.093 40.23-31.494l-236.473 45.991h-.019c-18.962 3.689-31.615 8.805-48.844 18.543l-77.102 43.571 63.969 36.154c36.153-7.595 69.356-12.851 105.528-20.447 17.302-4.204 32.501-16.579 42.056-34.409l-110.508 20.844c-1.992.357-3.855-1.249-4.15-3.629-.314-2.38 1.051-4.601 3.043-4.958l143.581-27.071c16.583-3.629 31.874-13.288 43.753-27.686z"/>
  </g>
  <defs>
    <clipPath id="world-liberty-financial_svg__a">
      <path fill="#fff" d="M125 390.625h750v250H125z"/>
    </clipPath>
  </defs>
</svg>
