<svg xmlns="http://www.w3.org/2000/svg" fill="none" viewBox="0 0 21 20">
  <circle cx="10" cy="10" r="10" fill="#171412"/>
  <path fill="#eaac08" fill-rule="evenodd" d="M7.545 9.94c.044.007.074.054.068.104-.007.05-.048.085-.092.077l-2.329-.409c.25.347.632.633 1.02.729l2.7.524L5.5 12.938c.416.195.886.157 1.272-.099l.07-.05 1.26-.89c.034-.025.08-.013.102.026a.09.09 0 0 1-.024.117l-1.306.925c.36.17.77.115 1.084-.14l.994-.873c.032-.029.08-.021.104.016a.09.09 0 0 1-.013.119l-1.015.89c.354.045.82-.068 1.11-.31.336-.307.755-.752 1.122-.956.228-.125.48-.19.798-.143.216.085.443.125.671.118.15.03.282.13.364.273.048-.231-.04-.5-.24-.569a.25.25 0 0 0-.092-.208l-.054-.03-1.447-.81-2.038-1.14a4.7 4.7 0 0 0-.95-.377c-.198-.055-.372-.084-.573-.12l-4.892-.893c.269.39.624.604 1.047.68l3.452.625c.044.008.074.054.067.104s-.048.084-.092.076l-2.74-.495c.202.307.499.514.83.58l.053.01zm8.733-1.143-2.774.513c-.043.007-.083-.027-.09-.077s.023-.096.066-.104l3.548-.655c.35-.08.66-.317.863-.662l-5.071.967a3.2 3.2 0 0 0-1.048.389l-1.654.915 1.372.76c.776-.16 1.488-.27 2.263-.43.371-.088.697-.348.902-.723l-2.37.438c-.042.008-.082-.026-.089-.076s.023-.097.066-.104l3.079-.569a1.7 1.7 0 0 0 .938-.581" clip-rule="evenodd"/>
  <path fill="#e68f7b" d="m17.032 10 3.04 5.023-3.03-1.294z"/>
  <path fill="#f8ec7c" d="M14 15.023 17.031 10l.012 3.729z"/>
  <path fill="#6eb87d" d="M17.031 16.875 14 15.023l3.043-1.294z"/>
  <path fill="#946ba7" d="m20.071 15.023-3.028-1.294-.011 3.146z"/>
  <path fill="#697cb9" d="m17.032 17.513 3.04-1.802-3.04 4.283z"/>
  <path fill="#4fadd0" d="M17.031 17.513 14 15.71l3.031 4.283z"/>
</svg>
