<svg xmlns="http://www.w3.org/2000/svg" fill="none" viewBox="0 0 32 32">
  <path fill="#000" d="M30.72 9.782a16 16 0 0 0-3.435-5.087 15.9 15.9 0 0 0-5.055-3.437A15.9 15.9 0 0 0 16.002 0c-2.178 0-4.273.42-6.228 1.258a16 16 0 0 0-5.082 3.437 16 16 0 0 0-3.435 5.087A15.7 15.7 0 0 0 0 16.014a15.92 15.92 0 0 0 4.692 11.319 15.5 15.5 0 0 0 5.082 3.41A15.9 15.9 0 0 0 16.002 32c2.15 0 4.245-.42 6.228-1.258a16 16 0 0 0 5.083-3.437 16 16 0 0 0 3.435-5.087 15.9 15.9 0 0 0 1.256-6.232 15.7 15.7 0 0 0-1.284-6.204m-20.024 4.723c.642-2.571 2.988-4.444 5.753-4.444h11.115a12.3 12.3 0 0 1 1.34 4.444zm18.208 3.018a12.8 12.8 0 0 1-1.34 4.444H16.45c-2.765 0-5.083-1.9-5.753-4.444zM6.814 6.82a12.9 12.9 0 0 1 9.188-3.8c3.463 0 6.73 1.34 9.188 3.8l.223.224H16.45a8.87 8.87 0 0 0-6.34 2.627c-1.34 1.341-2.206 3.018-2.485 4.835H3.1A12.9 12.9 0 0 1 6.814 6.82m9.188 22.19a12.9 12.9 0 0 1-9.188-3.8A12.98 12.98 0 0 1 3.1 17.523h4.524a9.07 9.07 0 0 0 2.486 4.835 8.86 8.86 0 0 0 6.34 2.627h8.963l-.223.224a12.9 12.9 0 0 1-9.188 3.801"/>
</svg>
