<svg xmlns="http://www.w3.org/2000/svg" viewBox="0 0 20 20">
  <circle cx="10" cy="10" r="10" fill="#fff" transform="rotate(90 10 10)"/>
  <path fill="#2c253a" fill-rule="evenodd" d="m16.294 4.257-.548.55a7.787 7.787 0 0 1 0 10.492l.548.55a8.57 8.57 0 0 0 0-11.604zM4.77 4.305a7.743 7.743 0 0 1 10.468 0l.548-.55a8.523 8.523 0 0 0-11.577 0zm-.511 10.999a7.787 7.787 0 0 1 0-10.486l-.548-.55a8.57 8.57 0 0 0 0 11.604zm10.974.507a7.743 7.743 0 0 1-10.469 0l-.547.55a8.523 8.523 0 0 0 11.576 0z" clip-rule="evenodd"/>
  <path fill="#2c253a" fill-rule="evenodd" d="M9.999.84C4.92.843.807 4.97.81 10.06s4.121 9.212 9.199 9.21c5.074-.004 9.186-4.126 9.188-9.212-.006-5.088-4.123-9.21-9.2-9.213zm0 19.22c-5.51 0-9.977-4.479-9.976-10.002C.025 4.535 4.493.06 10.003.06c5.508.001 9.974 4.477 9.974 9.998-.006 5.522-4.47 9.996-9.978 10.002" clip-rule="evenodd"/>
  <path fill="#ebaa60" fill-rule="evenodd" d="M11.66 8.662c0 1.098-1.713.964-2.257.964V7.691c.544 0 2.257-.172 2.257.97m.448 3.003c0 1.201-2.053 1.064-2.707 1.064v-2.13c.654.001 2.707-.187 2.707 1.066m1.351-3.437c-.11-1.146-1.096-1.53-2.343-1.648V5h-.964v1.55q-.382-.002-.771.008V5.001h-.959v1.588H6.468v1.035s.712-.013.701 0c.267-.03.51.158.548.424V12.4a.34.34 0 0 1-.362.321h-.003c.013.01-.701 0-.701 0l-.192 1.155h1.947v1.614h.964V13.9h.77v1.583h.967v-1.596c1.629-.099 2.765-.502 2.907-2.03.115-1.23-.462-1.78-1.384-2 .56-.287.913-.79.83-1.628" clip-rule="evenodd"/>
</svg>
