<svg xmlns="http://www.w3.org/2000/svg" fill="none" viewBox="0 0 20 20">
  <g clip-path="url(#xrp_svg__a)">
    <circle cx="10" cy="10" r="10" fill="#000"/>
    <path fill="#fff" d="M5.425 15.733H3.633l1.233-1.282c.9-.938 1.79-1.889 2.706-2.812 1.301-1.31 3.352-1.37 4.755-.16q.173.15.331.318c1.24 1.293 2.479 2.587 3.756 3.921H14.81c-.706-.651-1.35-1.227-1.971-1.825-.433-.417-.822-.88-1.253-1.297-.911-.882-2.316-.84-3.21.083-.918.951-1.833 1.907-2.75 2.86-.068.07-.14.136-.201.194M3.894 4.804l3.56 3.72c1.448 1.513 3.738 1.492 5.193-.04 1.1-1.156 2.21-2.303 3.314-3.455.123-.128.238-.263.397-.44H14.74c-.623.566-1.14 1.008-1.625 1.481s-.936.98-1.41 1.465c-1.002 1.026-2.41 1.004-3.392-.034-.924-.975-1.862-1.938-2.797-2.91H3.707c.09.103.136.16.187.213"/>
  </g>
  <defs>
    <clipPath id="xrp_svg__a">
      <path fill="#fff" d="M0 0h20v20H0z"/>
    </clipPath>
  </defs>
</svg>
