<svg xmlns="http://www.w3.org/2000/svg" viewBox="0 0 2500 2500">
  <circle cx="1250" cy="1250" r="1250" fill="#0657f9"/>
  <path fill="#fff" fill-rule="evenodd" d="m729 492-99 100 240 244 240 244v456h280v-456l240-244 240-244-99-101-99-101-210 213c-115 117-211 213-212 213-2 0-97-95-212-212S829 392 828 392s-46 45-100 100zm-103 571c-35 62-67 171-76 259-4 43-2 137 4 180 61 396 429 666 817 597 256-45 466-228 547-477 27-82 36-137 36-227 0-97-11-161-42-250-11-31-38-91-42-91-1 0-50 48-107 107-97 99-105 107-103 115 1 5 4 18 6 30 7 34 10 81 8 119-3 41-8 66-20 104-39 124-142 230-266 273-47 16-74 20-135 21-62 0-85-3-133-19-131-43-237-155-275-288-12-43-16-71-16-123 0-48 2-61 14-117 1-5-22-30-105-114l-106-108-6 10z" clip-rule="evenodd"/>
</svg>
