<svg xmlns="http://www.w3.org/2000/svg" fill="none" viewBox="0 0 20 20">
  <circle cx="10" cy="10" r="10" fill="url(#yearn-finance_svg__a)"/>
  <path fill="#fff" d="M9.528 4.994h1.137v10.207H9.528z"/>
  <path fill="#fff" d="M11.146 10.1v1.57q.236.198.458.414c.65.636 1.048 1.283 1.048 1.954a2.723 2.723 0 1 1-5.16-1.218l.34 1.71 1.216-.24-.71-3.58-3.474.916.316 1.199 1.08-.285a3.963 3.963 0 1 0 7.632 1.498c0-1.176-.691-2.126-1.421-2.84-.42-.41-.894-.781-1.325-1.098m-2.317-.221.027-1.57a8 8 0 0 1-.451-.422c-.64-.647-1.026-1.3-1.015-1.971a2.723 2.723 0 1 1 5.138 1.306l-.31-1.716-1.22.22.649 3.592 3.49-.857-.296-1.204-1.085.266a3.963 3.963 0 1 0-7.605-1.629c-.02 1.176.654 2.138 1.372 2.864.413.418.88.796 1.306 1.12"/>
  <defs>
    <linearGradient id="yearn-finance_svg__a" x1="6.12" x2="17.138" y1="0" y2="20" gradientUnits="userSpaceOnUse">
      <stop stop-color="#2b76f1"/>
      <stop offset="1" stop-color="#2561b6"/>
    </linearGradient>
  </defs>
</svg>
