<svg xmlns="http://www.w3.org/2000/svg" fill="none" viewBox="0 0 64 64">
  <g filter="url(#yield-guild-games_svg__a)">
    <path fill="#000" d="M7.942 11.388 19.77 4.555h23.654l11.827 6.833v31.89L31.596 56.943 7.942 43.277z"/>
    <path fill="url(#yield-guild-games_svg__b)" fill-rule="evenodd" d="M7.941 6.833 19.768 0h23.654l11.827 6.833v4.556L43.422 4.556H19.768L7.941 11.389zm51.251 6.834v31.889L31.596 61.5 4 45.556v-31.89l3.942-2.277v31.889l23.654 13.666L55.25 43.278v-31.89zM23.71 15.944l-3.942-2.277v13.666l11.827 6.834 11.827-6.834V13.667l-3.943 2.277v9.111l-7.884 4.556-7.885-4.556zm15.77 18.222v4.556l-11.827 6.833V41z" clip-rule="evenodd"/>
  </g>
  <defs>
    <linearGradient id="yield-guild-games_svg__b" x1="4.843" x2="26.071" y1="10.993" y2="64.504" gradientUnits="userSpaceOnUse">
      <stop stop-color="#FDFF85"/>
      <stop offset=".479" stop-color="#66F6FF"/>
      <stop offset="1" stop-color="#CD9BFF"/>
    </linearGradient>
    <filter id="yield-guild-games_svg__a" width="55.192" height="63.923" x="4" y="0" color-interpolation-filters="sRGB" filterUnits="userSpaceOnUse">
      <feFlood flood-opacity="0" result="BackgroundImageFix"/>
      <feColorMatrix in="SourceAlpha" result="hardAlpha" values="0 0 0 0 0 0 0 0 0 0 0 0 0 0 0 0 0 0 127 0"/>
      <feOffset dy="2.424"/>
      <feComposite in2="hardAlpha" operator="out"/>
      <feColorMatrix values="0 0 0 0 0 0 0 0 0 0 0 0 0 0 0 0 0 0 1 0"/>
      <feBlend in2="BackgroundImageFix" result="effect1_dropShadow_1041_2808"/>
      <feBlend in="SourceGraphic" in2="effect1_dropShadow_1041_2808" result="shape"/>
    </filter>
  </defs>
</svg>
