<svg xmlns="http://www.w3.org/2000/svg" viewBox="0 0 308.1 436.1">
  <path fill="#49c1bf" d="m308.093 180.2-62.8 28-166.6 84.8 166.6 80.1V240.7l62.8-28.3V408l-62.8 28-245.3-117.4v-62.4l169.8-83.3-169.8-81.6V28l63.8-28 244.3 117.6z"/>
  <path fill="#077a8f" d="m-.007 28 245.3 117.6 62.8-28L63.793 0z"/>
  <path fill="#298e97" d="m245.295 145.335 62.8-28v62.6l-62.8 28z"/>
  <path fill="#49c1bf" d="M-.007 28.056v63.3l169.8 81.6-169.8 83.3v62.4l245.3 117.4v-62.8l-166.6-80.2 166.6-84.8v-62.6z"/>
  <path fill="#298e97" d="m245.295 435.589 62.8-28v-195.6l-62.8 28.3z"/>
</svg>
