<svg xmlns="http://www.w3.org/2000/svg" fill="none" viewBox="0 0 20 20">
  <circle cx="10" cy="10" r="10" fill="#923fd6"/>
  <path fill="#fff" d="M13.486 12.393a2.513 2.513 0 1 0 0-5.026 2.513 2.513 0 0 0 0 5.026m-3.176-5.97a1.212 1.212 0 1 0 0-2.423 1.212 1.212 0 0 0 0 2.423m0 9.342a1.212 1.212 0 1 0 0-2.423 1.212 1.212 0 0 0 0 2.423m-.555-4.071a.76.76 0 1 0-.412-1.134v.006a.3.3 0 0 0-.053.101c-.836 1.475-2.513.49-2.513.49a1.826 1.826 0 1 0-.937 3.396c.704 0 1.319-.4 1.617-.985v-.006a2 2 0 0 0 .132-.322c.871-2 2.166-1.546 2.166-1.546m-.43-2.68a.8.8 0 0 0 .138.185.75.75 0 0 0 1.068 0 .75.75 0 0 0 0-1.068.75.75 0 0 0-.692-.203h-.006a.4.4 0 0 0-.113.035c-1.636.454-2.125-1.432-2.125-1.432a1.8 1.8 0 0 0-.478-.842A1.821 1.821 0 1 0 4.54 8.262c.5.501 1.211.65 1.844.448h.006q.161-.056.322-.138c2.024-.8 2.615.442 2.615.442"/>
</svg>
