<svg xmlns="http://www.w3.org/2000/svg" viewBox="0 0 128 60.16">
  <path fill="#de3f6b" d="M27.648 0h5.262c8.215.805 15.82 4.941 21.453 10.895 11.684 12.261 18.11 29.566 32.985 38.69 10.75 6.606 25.793 1.204 31.078-9.944 2.687-.051 5.386-.051 8.078-.04-3.7 11.329-14.477 19.47-26.266 20.56h-4.34c-7.257-.602-14.312-3.391-19.8-8.22C68.12 45.184 63 35.918 56.805 27.661c-5.325-7.298-10.762-15.5-19.582-18.817C26.328 4.762 13.02 11.148 9.05 22.004c-3.496 8.933-.653 20.02 7.152 25.738 5.852 4.531 14.004 6.223 21.031 3.586 7.809-2.816 13.606-9.215 18.047-16a342 342 0 0 1 5.149 7.617c-6.914 8.703-16.5 16.18-27.907 17.215h-4.671C13.477 59.16.984 46.95 0 32.523v-4.722C.934 13.402 13.262 1.05 27.648 0"/>
  <path fill="#de3f6b" d="M95.602 0h4.367c14.5.945 26.84 13.402 28.031 27.828v7.399c-11.969.113-23.95.039-35.918.05.016-2.164.016-4.312 0-6.476 9.461-.028 18.906.039 28.352-.028-.664-3.828-1.536-7.742-3.801-10.98-5.528-8.45-17.215-11.906-26.559-8.246-7.449 2.765-13.054 8.82-17.383 15.285a307 307 0 0 1-4.914-7.258C74.597 8.742 84.121 1.102 95.602 0"/>
</svg>
