<svg xmlns="http://www.w3.org/2000/svg" fill="none" viewBox="0 0 20 20">
  <path fill="#27201d" fill-rule="evenodd" d="M8.275.115C6.195.509 4.457 1.416 2.977 2.88A9.984 9.984 0 0 0 2.9 17.029c4.47 4.53 11.996 3.775 15.464-1.552 1.017-1.563 1.522-3.13 1.622-5.033.247-4.745-2.956-9.024-7.63-10.192-1.075-.27-3.04-.335-4.082-.137m3.832 1.408c1.49.383 3.021 1.282 4.119 2.418.807.836 1.194 1.402 1.69 2.474.592 1.278.745 2.012.745 3.578s-.153 2.3-.745 3.578c-.496 1.07-.883 1.638-1.69 2.473-.798.827-1.566 1.369-2.654 1.874-1.271.59-2.006.743-3.568.743s-2.297-.153-3.568-.743c-1.088-.505-1.856-1.047-2.654-1.873-.807-.836-1.195-1.403-1.69-2.474-.592-1.278-.745-2.012-.745-3.578s.153-2.3.744-3.578c.496-1.072.884-1.638 1.691-2.474q1.926-1.995 4.67-2.532c.883-.174 2.762-.115 3.656.115M10.37 7.46c-5.402 6.448-5.184 6.174-5.153 6.484.039.38.47.712.812.626.168-.042 1.12-1.104 2.931-3.273 1.476-1.765 2.72-3.21 2.766-3.21s.082 1.392.082 3.094c0 2.87.013 3.105.183 3.26.252.228.774.21 1.019-.035.194-.195.2-.335.2-4.413 0-4.08-.006-4.22-.2-4.414-.123-.123-.334-.2-.548-.2-.33 0-.438.108-2.092 2.081" clip-rule="evenodd"/>
  <path fill="#fff" fill-rule="evenodd" d="M12.108 1.524c1.49.382 3.02 1.28 4.118 2.417.807.836 1.195 1.402 1.69 2.474.592 1.278.745 2.012.745 3.578s-.153 2.3-.745 3.578c-.495 1.07-.883 1.638-1.69 2.473-.798.827-1.566 1.369-2.654 1.874-1.27.59-2.006.743-3.568.743s-2.297-.153-3.568-.743c-1.088-.505-1.856-1.047-2.654-1.873-.807-.836-1.195-1.403-1.69-2.474-.592-1.278-.745-2.012-.745-3.578s.153-2.3.745-3.578c.495-1.072.883-1.638 1.69-2.474q1.926-1.995 4.67-2.532c.883-.174 2.762-.115 3.656.115m-6.892 12.42c-.03-.31-.249-.036 5.153-6.484 1.654-1.973 1.762-2.081 2.092-2.081.214 0 .425.077.548.2.194.195.2.335.2 4.414s-.006 4.218-.2 4.413c-.245.245-.767.263-1.019.034-.17-.154-.183-.39-.183-3.26 0-1.7-.037-3.093-.082-3.093s-1.29 1.445-2.766 3.21c-1.812 2.169-2.763 3.23-2.931 3.273-.342.086-.773-.247-.812-.626" clip-rule="evenodd"/>
</svg>
