<svg xmlns="http://www.w3.org/2000/svg" fill="none" viewBox="0 0 20 20">
  <circle cx="10" cy="10" r="10" fill="#050f66"/>
  <path fill="#fff" fill-rule="evenodd" d="m9.11 5.407-.834 1.417.012 1.974.012 1.974.123-.092c.197-.15.733-.387 1.094-.486a4.2 4.2 0 0 1 1.671-.068c.206.04.405.084.443.098.06.022.069-.18.069-1.687V6.826l-.84-1.408c-.463-.774-.858-1.412-.88-1.418-.02-.006-.412.627-.87 1.407m-3.622 6.079L4 13.978l1.484.012c.816.006 1.491.004 1.5-.004s.01-1.136.004-2.504l-.011-2.489zm7.49.013V14H16l-.066-.098c-.037-.054-.7-1.161-1.473-2.46a168 168 0 0 0-1.445-2.403c-.021-.023-.038 1.08-.038 2.46m-3.035-.237c-.767.18-1.453.856-1.615 1.592-.065.297-.065.704 0 .952L8.38 14h3.32v-2.453l-.285-.128a2.3 2.3 0 0 0-1.471-.157" clip-rule="evenodd"/>
</svg>
