<svg xmlns="http://www.w3.org/2000/svg" viewBox="0 0 513.2 513.8">
  <circle cx="256" cy="257.8" r="256" fill="#fff"/>
  <path fill="#31c77f" d="M474.6 370.6c-12.8 5.2-24.9 11.6-37 18-13.8 7.2-27.2 14.9-40.4 22.9-5.2 3.2-11 4.6-16.7 6.6-1.9.6-3.3.4-4-1.9-2-6-6.3-10.1-12-12.8-2.1-1.1-2.5-2.5-2.4-4.7.2-3.3.1-6.6-1.1-9.7-1.4-4-4-6.6-8-7.7-3.8-1.2-7.5-2.1-11.4-1.6-2.6.4-3.5-.6-3.6-2.9-.1-1.9-.4-3.9-.5-5.8-.2-5 .4-10.2-.6-15-1.1-5.9.8-9.6 5.2-13.5 14.7-13.3 31.4-23.1 49-31.8 37.7-18.7 77-33.6 116.5-47.8 4.4-5.1-16.4 101-33 107.7m-323.4 61.5c1.9.8 3.2 1.3 4.3 1.8 2.1.8 4.4.9 5.8-1.2 1.5-2.2.1-4-1.5-5.5-1.9-1.6-3.8-3.3-5.6-5-7.6-7-4.3-19.8 2.8-24.3 1.8-1.1 3.1-1.5 4.5.2.4.5.8.8 1.2 1.3 14.8 16.7 33.4 28.8 52 40.6 8.5 5.4 17.2 10.6 26.6 14.3 2.4.9 3.4 2.1 2.9 4.7-.5 2.1-.4 4.2.5 6.3.8 2.2-.4 2.8-2.2 2.9-3.1.4-6.1.8-9.3.8-11.8.2-23.5 2.7-35.3 1.6-12-1.2-23.6-3.8-34.6-9.2-3.9-1.9-7.3-4.3-9.9-7.9-5.2-6.4-5.3-13.4-2.2-21.4"/>
  <path fill="#31c77f" d="M280.2 464.2c-1.8-.2-4.2 1.7-5.9.1-1.2-1.2-1.3-3.6-2-5.4-.2-.7-.6-1.6-1.1-2.2-1.7-2-.5-3.1 1.2-4.2 10.4-6.5 19.7-14.5 29.6-21.7 12.1-9 22.8-19.5 32.9-30.7 3.2-3.5 5.6-7.7 5.4-12.7-.1-2 .8-2.9 2.9-2.6 1.9.2 4 .5 5.9 1 6 1.4 8.5 6.5 5.9 12.1-1.1 2.3-2.5 4.4-3.7 6.7-.8 1.7-1.2 3.4.5 4.8 1.6 1.3 3.2 1.1 4.9.2.1-.1.4-.1.5-.2 1.4-.7 2.3-3 3.7-2.5 2.2.7 4.2 2.2 6 3.6 4.3 3.5 5.9 7.6 4.3 11.9-1.8 4.8-4.7 9.1-8.5 12.7-7.6 7.1-16.6 11.5-26 14.9-15.8 5.5-31.7 10.9-48.4 13.7-2.6.2-5.2.5-8.1.5m-21.6 3.6c-.6-.1-1.6-.1-2.6-.2-4.1-.6-6.6-2.6-7.1-5.8s2.1-7.4 5.5-8.7c6.3-2.6 12.2-.7 14.9 4.7 1.8 3.4 1.3 5.2-1.6 7.5-2.2 1.7-5.4 2.6-9.1 2.5"/>
  <path fill="none" stroke="#31c77f" stroke-width="17.965" d="M504.2 256.5c0 136.7-110.8 247.6-247.6 247.6S9.1 393.3 9.1 256.5 120 9 256.7 9s247.5 110.8 247.5 247.5z"/>
  <path fill="#030202" d="M280.1 251.3c-2.7-2-3-3.6-1.9-6.4 1.2-3.2 1-6.6.8-9.9-.6-6.8-5.5-11.1-12.3-11.3-4.3-.1-7.9 1.4-10.7 4.7-1-.6-1.8-1.1-2.5-1.5-7.6-4.4-14.3-2-17.2 6.2-1.5 4.1-2.4 8.2-1 12.5 1 3.2.8 5.4-2.1 7.7-1.9 1.6-3.4 3.9-4.6 6.2-3.8 6.8-2.1 14.1 4.3 18.5 1.7 1.1 2.5 2.4 3 4.3 1.1 3.8 3.5 7 6.9 9.1 6.4 4.2 13.6 6.1 21.2 5 6.8-1.1 12.5-4.2 15.7-11 1.4-3 2.8-6.3 5.5-8.8 2-1.9 2.7-4.7 2.9-7.7.3-7.3-2.5-13.2-8-17.6m-18.8 40.1c-8.3.1-18-2-20.1-10 8.1-.9 8.6-1.1 17-9.2 4.5 5.9 10.1 9.5 17.8 8.9-2.2 6.7-7.2 10.1-14.7 10.3m11.8-15c-4.3-.3-8.3-2.9-11.4-7.3-2.9-4.2-5.6-4.1-8.2.2-3 5-7.7 7.4-13.5 7.1-7.8-.6-11.5-8-7.2-14.6 1.6-2.5 3.8-4.5 6.2-6.3 3.7-2.8 3.9-3.4 2.4-8-1-3-1.9-6-1.7-9.2.6-7.1 6.1-10 12.2-6.6 1 .6 1.8 1.4 2.7 1.9 2.3 1.4 4.2 1.5 5.5-1.2 1.7-3.3 4.6-3.4 7.7-3 3.4.3 5.3 2.4 6.5 5.4.7 1.7.6 3.3-.1 4.8-.9 2.3-1.9 4.4-2.8 6.6-2.1 4.6-1.9 5.6 2.8 7.7 3.9 1.7 7 4.2 8.7 8.2 2.9 6.9-1.4 14.1-9.8 14.3"/>
  <path fill="#0e0d0d" d="M248 238.4c.3.2 1.2.3 1.6.8 1.5 1.9 2.7 4.1 2.9 6.5.1 1.1-.5 2.1-1.7 2.6-1 .3-1.8-.1-2.5-.8-1.8-1.9-3.2-4.2-2.8-7 .1-1.1.8-1.9 2.5-2.1"/>
  <path fill="#191717" d="M261.4 243.2c.3-.9.8-2.6 1.6-4.1.6-1.2 1.6-2.1 3.2-1.5 1.1.6 1.6 1.6 1.4 2.7-.3 1.6-.9 3.2-1.5 4.7s-1.6 2.6-3.4 1.9c-1.6-.3-1.6-1.8-1.3-3.7"/>
  <path fill="#231f20" d="m151.9 456.5-10.4 28.4 7 3.5s9.7-23.5 10.8-25.8c1.1-2.4-7.4-6.1-7.4-6.1M359.1 438l-4.3 4.6s17.8 41.7 23.1 41.8c5.3 0 1.9-8.4 1.9-8.4s-15.6-32.5-18.3-38.3c-1.9-4.6-2.4.3-2.4.3m-20.6-275.5c9.5-19.3 17.9-38.7 20.4-60.2.9-5.6 1.8-11.7 1.5-17.9-.5-8.6-6.3-13.2-14.8-11.5-3.8.8-7.4 2.1-10.7 4.5-8 5.9-14.8 13.1-21.2 20.5-7.6 8.7-15.2 17.3-22.5 26.2-2.3 2.7-4.3 2.8-7.1 1.6-4.4-2-9-3.6-13.9-3.9-16.9-1.2-33.8-1.8-50.1 4.5-3.4 1.4-5.3.7-7.6-2-7.2-8.7-14.7-17.2-22.2-25.8-6.7-7.5-13.4-14.9-21.6-20.7-3.9-2.8-8.2-4.2-13-4.4-6-.2-9.9 2.7-11.4 8.6-.4 1.8-.6 3.7-.6 5.5 0 10.2 1.9 20.3 3.9 30.3 2.9 14.5 9.6 27.7 15.3 41.1 2.3 5.3 5.3 10.2 9.2 14.4 1.5 1.6 1.8 2.9 1.2 5-.9 3.2-1.7 6.4-2.5 9.7-3.2 11.8-4.3 23.9-2.5 35.9 1 6.4.8 12.5.1 18.8-.8 6.9-1 13.6.6 20.5 1.9 8.1 1.5 16.2-.6 24.3-2.1 8.6-3.3 17.1-2.8 25.9.6 9.3-.6 18.6-.9 27.8-.1 5.4 0 10.8-1.2 16.1-1.6 6.8-1.5 13.6-.5 20.5 1.9 13.4.7 6.9 1.2 15 2.5 0 5.4 7.8 8 7.7-.1-6.3-.8-21.5-1.4-27.8-.5-5.4 0-10.7.9-16.1 1.9-11.6 3-23.1 1.7-34.9-1.2-11.1.1-22.3 2.4-33.2 1.9-9.2 1.7-18.5.2-27.7-.3-2-.7-4.2-.3-6.1 1.2-6.9 1.9-13.9 2.1-21.6 6.7 5.9 13.8 6.2 21.3 4.5 6.2-1.4 9.9-5.4 12.4-10.9.8-1.8 1.1-4.1 4.2-3.4 1.5.3 3.2.1 3.4-1.9.2-1.9-1.2-2.5-2.8-2.8-9.4-2.1-18.8-4.4-28.2-6.4-3-.7-6.2-1.5-9.2-1.8-2.7-.3-3.3-1.6-3-4.1 1.4-11.5 3.5-22.7 8.1-33.4 4.5-10.4 10.3-20.2 18.5-28.2 1-1 2.3-2.1 1.6-3.8s-2-2.1-3.6-1.6c-1.7.6-2.4-.3-3.2-1.5-1.6-2.5-3.3-5-4.7-7.5-5-8.1-10.9-15.4-16.9-22.9-1.2-1.6-2.8-2.9-4.5-4.2-5.1-3.6-9.6-1.6-10.1 4.7-.5 4.1-.1 8.2 1.4 12 5.3 13.4 9.4 27.4 17 39.8 1.9 3.2-.8 4.6-1.8 6.9-1.9-1.4-2.9-3.3-3.8-5-10.5-18.5-19.3-37.6-23-58.8-1-5.5-1-11.1-.8-16.7.3-6.1 3-7.7 8.9-6.2 4.3 1.1 7.6 3.8 10.7 6.8 10.7 9.9 19.8 21.1 29.5 31.9 2.6 2.9 5.2 5.9 7.7 8.8 1.6 1.8 3 3.5 3.3 6.2.2 3 2.4 3.9 5.2 2.8.7-.2 1.4-.6 2-1 4.7-3.3 10-4.4 15.7-5.3 15.4-2.8 30.7-1.7 45.9 1.5 2.4.6 4.4 1.8 6.5 3 4.6 2.8 6.3 2.1 7.7-3 .3-1.5 1.2-2.7 2.3-3.8 12.5-14 24.1-28.7 37.9-41.6 3-2.8 6.1-5.5 10.1-6.8 6.7-2.1 9.5-.1 9.9 6.8.8 13.1-2.4 25.5-6.5 37.6-4.2 12.2-9.9 23.6-16 34.9-1.4 2.5-3 4.6-4.7 7.4-5.5-8.2-5.5-8.1-1.4-16 5.2-9.7 10.5-19.1 14.1-29.6 1.5-4.4 2.7-8.9 2.6-13.6-.1-2.9-.7-5.5-3.6-7-2.8-1.4-5.1-.1-7.1 1.6-2.5 2.1-5.1 4.4-7.3 6.9-7.8 8.4-16.3 16.3-21.3 26.9-.9 2-4.4 2.9-3 6 .9 2 3 3.3 4.4 5 8 9.7 14.4 20.3 18.4 32.2 2.5 7.5 4.2 15.4 5.2 23.3.3 2.7-.9 4.4-3.7 5.2-10.3 2.7-20.4 5.4-30.7 8.1-.9.2-1.8.3-2.7.8-2.1 1-2.4 2.9-.3 4.2 1.4.8 2.1 1.2 2.6 3 1.7 7.2 6.3 11.8 13.6 12.8 7.3 1.1 14.2-.1 18.5-7.1.2-.5.3-.7 1.1-.2-.2 8.3.5 16.8 2 25.1.3 1.6.1 3.4-.1 5-2.1 10.6-1.7 21.1.5 31.5 2.3 11.6 2.9 23.2 1.6 34.9-1 8.6-.2 17.1 1.4 25.5 1.8 9.5 2.3 18.8 1.2 28.3-.3 3.2-.6 6.3-.6 9.5l7.8.3c.1-1.6.2-3.3.5-4.8 1-9 2.3-17.9.6-27.1-2.5-13.5-2.1-27.4-2.4-41.1-.1-9.9-.3-19.6-2.8-29.3-1.9-7.4-2.5-15.1-.8-22.6 1.9-8.3 1.7-16.6.6-24.9-.6-3.8-1.4-7.8-.3-11.6 1.9-7.5 1.7-15.1 1.4-22.7-.5-9-2.9-17.6-5.2-26.1-.7-2.6-.6-4.4 1.5-6.4 2.3-3.1 4.5-6.2 6-9.6M189 216.4c2.6-.1 4.3 1.4 4.4 3.8 0 2.5-1 3.8-3.4 3.9-2.6.1-4.4-1.4-4.4-3.7-.1-2.4 1.3-4 3.4-4m-15.8-78.3c-2.9-8-5.7-16-7.7-24.3-.5-1.8-.6-3.6-.7-5.5 0-1.2-.2-2.7 1.2-3.4 1.5-.6 2.6.3 3.5 1.2 4.7 4.2 8.8 9 12.1 14.4 3.9 6.4 7.9 12.8 12.1 19.3 1.6 2.5 1.6 4.3-.8 6-3.6 2.6-5.5 6.6-8.7 10.6-5.5-5.4-8.6-11.7-11-18.3m145.1 15.4c-2.6-4.6-6.5-7.9-10.4-11.4-1.9-1.8-1.8-3-.6-5.2 5.4-8.9 12.2-16.8 19.1-24.7 2-2.4 3.8-5.1 6.4-6.9 2.8-1.9 4.5-1.1 5 2.3.1.9.1 1.9-.1 2.8-1.7 7-3.2 14.2-6.8 20.5-3.6 6.1-6.8 12.3-9.9 18.6-.7 1.4-1 2.9-2.7 4m-12.1 71.1c-2 .5-3.9-1.5-3.9-3.6.1-2.3 1.5-3.4 3.5-3.5 1.8-.1 3.2 1 3.5 2.9-.7 1.9-1 3.8-3.1 4.2"/>
  <path fill="#231f20" d="M470.5 371.3c-12.3 5-23.9 11.1-35.5 17.2-13.2 6.9-26 14.3-38.8 22-5 3-10.6 4.4-16 6.3-1.8.6-3.2.3-3.8-1.8-1.9-5.7-6.1-9.7-11.5-12.3-2-1-2.4-2.4-2.3-4.5.2-3.2.1-6.3-1-9.3-1.4-3.8-3.8-6.3-7.7-7.4-3.6-1.1-7.2-2-10.9-1.6-2.5.3-3.4-.6-3.5-2.8-.1-1.8-.3-3.7-.4-5.5-.2-4.8.3-9.8-.6-14.4-1-5.6.8-9.2 5-12.9 14.1-12.7 30.1-22.2 47-30.5 36.2-17.9 73.8-32.2 111.7-45.8 3.2-1.2 6.5-2.4 9.7-3.6.1-2.1.1-4.3.1-6.4 0-1.5 0-3-.1-4.5-13.7 5.2-27.4 10.2-41.1 15.2-32.8 12.1-64.6 26.4-95.4 42.8-11.4 6.1-21.8 13.6-31.5 22-1.6 1.4-3.2 2.9-4.7 4.2-.1-.1-.2-.1-.3-.2-.5 1.4-1.5 2.6-2.8 3.2-.6 2.3-2.3 4.2-5.3 4.2h-.7c-.2 13.3.2 26.6 1.7 39.9.6 4.8-.7 8.1-4.1 11.7-16.7 17.8-35.5 32.8-54.8 47.4-.6.5-1.4.8-1.8 1.4-1.8 2.7-3.8 2.5-6.5 1.1-5-2.5-9.9-1.1-14.3 1.5-2.5 1.5-4.3 1.4-6.5.2-11.3-5.7-22.4-11.5-32.8-18.9-14-9.9-28-19.7-40.3-31.6-1.5-1.4-2.5-2.8-3-4.3-.2-.1-.6-.2-.8-.3-.1 0-.2 0-.2-.1-2.5-1 1.6-4.5-1.1-5-.6.2-1 .3-1.6.6-.7.7-5.7 1.5-9.2 4.5-.2.2-.6.5-.9.7-10.4 8.2-13 20-6.9 31.8 1.1 2.1.8 3.6-.1 5.5-4.7 9.7-4.3 19 2.6 27.6 1.8 2.4 3.5 4.8 6 6.6l5.6 3.9c3.3 1.8 8 3.6 10.5 4.3 10.5 2.8 21.1 4.6 31.9 5.1 5 .2 10-.6 15-1 9.6-.9 19.3-1.7 28.7-3 3.6-.6 7 .5 10.4.6 3 .1 6.2.5 8.7-1.1 4.8-2.9 10.3-3 15.4-3.5 11.5-1 22.8-3.6 33.7-7.1 11.2-3.5 22.3-6.9 33-11.8 10.7-5 20.1-11.3 25.5-22.2.6-1 1.1-1.7 2-2.3 8.2-5 21.6-7.4 29-10.5 11.4-6.3 22.7-12.6 34.2-18.7 14.2-7.5 28.5-14.9 43.6-20.4 2.1-4 4.1-8 5.9-12-6.1 1.3-12.1 3.4-18.1 5.8m-229.3 96.8c-2.9.3-5.9.8-8.9.8-11.3.2-22.5 2.6-33.8 1.6-11.5-1.1-22.7-3.6-33.1-8.8-3.7-1.8-7-4.2-9.5-7.5-4.8-6.3-5-13.1-2-20.7 1.8.8 3 1.2 4.2 1.7 2 .8 4.2.9 5.5-1.1 1.5-2.1.1-3.8-1.5-5.3l-5.4-4.8c-7.3-6.8-4.2-19 2.7-23.3 1.7-1 2.9-1.5 4.3.2.3.4.8.8 1.1 1.2 14.2 16 32 27.6 49.8 39 8.1 5.2 16.5 10.1 25.5 13.7 2.3.9 3.3 2 2.8 4.5-.5 2-.3 4.1.5 6.1.7 2-.4 2.6-2.2 2.7m26.8-2.8c-2.1 1.6-5.2 2.5-8.8 2.4-.6-.1-1.6-.1-2.5-.2-3.9-.6-6.3-2.5-6.8-5.5-.4-3 2-7.1 5.3-8.3 6.1-2.5 11.7-.7 14.3 4.5 1.8 3.1 1.4 4.8-1.5 7.1m100.9-42.8c-1.7 4.5-4.4 8.6-8 11.9-7.1 6.6-15.6 10.8-24.5 14-14.9 5.2-29.8 10.2-45.4 12.8-2.4.3-4.8.6-7.6.6-1.7-.2-3.9 1.6-5.5.1-1.1-1.1-1.2-3.4-1.9-5.1-.2-.7-.6-1.5-1-2-1.6-1.9-.5-2.9 1.1-3.9 9.8-6.1 18.5-13.6 27.8-20.4 11.4-8.4 21.4-18.4 30.9-28.8 3-3.3 5.3-7.2 5.1-11.9-.1-1.9.8-2.7 2.7-2.5 1.8.2 3.7.5 5.5.9 5.6 1.4 8 6.1 5.5 11.4-1 2.1-2.4 4.2-3.5 6.3-.8 1.6-1.1 3.2.5 4.5 1.5 1.2 3 1 4.6.2.1-.1.3-.1.5-.2 1.4-.7 2.1-2.8 3.5-2.4 2 .7 3.9 2 5.6 3.4 4.1 3.2 5.6 7 4.1 11.1"/>
</svg>
