<svg xmlns="http://www.w3.org/2000/svg" fill="none" viewBox="0 0 20 20">
  <circle cx="10" cy="10" r="10" fill="#fff"/>
  <path fill="#000" fill-rule="evenodd" d="M13.196 2.004c-.356.066-.625.319-1.3 1.218-.171.23-.384.517-.47.639-.187.26-.231.315-.267.337-.048.03-.1.02-.24-.045a1.3 1.3 0 0 0-.375-.123 6 6 0 0 0-1.02-.023c-.267.027-.47.075-.707.168a1 1 0 0 1-.189.063c-.069 0-.108-.04-.296-.3-.584-.811-.954-1.286-1.181-1.517-.196-.2-.325-.296-.468-.35a.5.5 0 0 0-.229-.033c-.139-.001-.146 0-.199.032a.4.4 0 0 0-.189.272c-.053.2-.026.662.075 1.291.07.433.125.66.253 1.038.084.246.358.974.407 1.077.053.115.147.272.212.355.064.083.088.13.088.173 0 .016-.029.158-.064.317-.121.545-.148.753-.148 1.147 0 .224.003.298.023.454.031.239.034.546.006.84-.027.3-.019.596.024.826.025.135.032.207.037.361.007.238-.004.35-.063.661-.084.44-.086.473-.089 1.063-.001.288-.007.604-.013.703-.006.1-.016.335-.021.523-.01.36-.014.401-.052.616-.02.117-.023.165-.023.4 0 .23.004.299.028.487.015.12.027.243.027.273V15l-.119.051a.8.8 0 0 0-.293.195 1.13 1.13 0 0 0-.306.533 1 1 0 0 0-.022.249c0 .185.018.272.087.45.059.148.059.174.001.33-.104.283-.12.524-.05.762.032.11.063.179.139.301l.065.107-.04.125c-.152.47-.238.753-.235.764.004.013.245.14.251.132.002-.003.06-.163.129-.357.069-.195.13-.363.135-.375.01-.02.015-.018.076.033.165.138.486.257.928.346.402.081.67.093 1.06.048l.517-.059c.137-.016.34-.042.453-.059l.204-.03.171.02c.102.012.21.018.265.015.088-.006.102-.01.202-.065.127-.07.236-.098.446-.118.453-.042.829-.137 1.443-.365.555-.206.8-.314 1.08-.48.1-.059.184-.106.185-.105l.094.235c.104.267.283.693.358.851l.05.108.087-.054.128-.082.041-.028-.047-.119-.212-.513-.206-.502-.043-.106.09-.103c.103-.12.178-.234.25-.383a1 1 0 0 1 .069-.124c.029-.03.21-.13.325-.18.06-.025.223-.086.361-.135.139-.049.277-.1.309-.113.03-.014.24-.144.464-.289.746-.482 1.403-.879 1.791-1.082.188-.098.19-.099.225-.161a9 9 0 0 0 .22-.443l.037-.077-.027.016a2 2 0 0 1-.163.075c-.561.24-1.627.88-2.609 1.565-.141.099-.29.198-.332.22-.086.045-.455.19-.486.19-.024 0-.074-.042-.074-.062a1 1 0 0 0-.045-.121c-.07-.168-.168-.279-.354-.402-.082-.054-.085-.063-.09-.272-.006-.19-.022-.282-.07-.39a.5.5 0 0 0-.14-.175.95.95 0 0 0-.468-.12c-.112.003-.124-.005-.138-.093a8 8 0 0 1-.017-.416 6 6 0 0 0-.021-.43.6.6 0 0 1 .028-.312c.051-.127.229-.322.544-.597.38-.332.749-.586 1.353-.933.832-.476 1.853-.978 3.04-1.494.269-.116 1.095-.468 1.1-.468 0 0 .005.017.008.038q.004.053.005-.009c0-.025.006-.142.012-.258A2 2 0 0 0 19 9.48a9 9 0 0 0-.59.252c-.021.01-.2.09-.398.174-.939.403-1.389.611-1.975.915-.733.38-1.715.95-2.064 1.2a6.6 6.6 0 0 0-.898.774 2 2 0 0 1-.16.153c-.009.015-.011-.004-.012-.097a53 53 0 0 0-.03-1.482 5 5 0 0 0-.07-.51 2.3 2.3 0 0 1-.063-.587c0-.185.004-.24.022-.337.067-.353.073-.661.022-1.104a1.6 1.6 0 0 1-.005-.458c.045-.22.061-.532.046-.851-.017-.342-.046-.533-.15-.99a3 3 0 0 1-.05-.265c0-.056.02-.105.074-.172.107-.135.166-.246.293-.556.314-.768.49-1.334.587-1.896.074-.429.12-1.074.09-1.256-.027-.168-.118-.306-.235-.357a.54.54 0 0 0-.237-.027m.146.279c.076.045.107.176.107.45 0 .727-.25 1.639-.748 2.72-.071.153-.206.4-.219.4a1 1 0 0 1-.118-.209.3.3 0 0 1-.011-.24c.011-.032.07-.168.132-.302.317-.69.472-1.112.522-1.426.024-.152.017-.354-.014-.43-.041-.096-.141-.15-.228-.124-.065.02-.155.107-.346.33-.424.5-.639.804-.753 1.07a.8.8 0 0 1-.094.16c-.044.055-.053.073-.053.108 0 .059.011.08.1.186.174.209.4.591.536.91.178.415.301.917.36 1.463.013.13.005.153-.068.18-.026.01-.314.1-.64.2-.325.1-.601.19-.614.198a.2.2 0 0 0-.038.046q-.034.062.05.125c.054.04.07.068.09.16.055.25.217.43.433.483a1 1 0 0 0 .37 0 .53.53 0 0 0 .291-.233c.033-.053.05-.073.062-.068s.014.018.01.06c-.008.062.008.466.024.621.006.059.02.17.03.246a1.1 1.1 0 0 1 0 .397c-.058.374-.049.752.029 1.244.08.509.095.905.054 1.379-.018.21-.018.54 0 .732.009.087.015.261.015.412 0 .327.015.713.038 1.022.01.131.017.31.017.395 0 .15-.002.16-.031.233-.039.095-.13.217-.358.475-.415.47-.885.936-1.476 1.462-.124.11-.242.22-.264.243-.086.096-.13.106-.224.055-.167-.091-.287-.084-.484.03-.117.068-.155.078-.209.057-.052-.02-.498-.291-.7-.426a7 7 0 0 1-.708-.54 12 12 0 0 1-1.011-.914l-.139-.142-.007-.235a33 33 0 0 0-.037-.853 3.4 3.4 0 0 1 .04-.763c.053-.382.065-.552.065-.9 0-.216-.004-.365-.014-.46a5.2 5.2 0 0 1 .084-1.387c.056-.355.059-.687.01-1.086l-.027-.22.021-.157a6 6 0 0 0 .061-.73.3.3 0 0 1 .005-.073c.003 0 .026.02.052.043a.8.8 0 0 0 .282.15c.09.023.305.017.413-.011.202-.053.358-.217.447-.472.04-.114.05-.123.141-.119.093.004.113-.01.113-.085 0-.056-.014-.079-.062-.097-.018-.006-.285-.08-.595-.162a10 10 0 0 0-.784-.195.1.1 0 0 1-.058-.033c-.031-.037-.03-.102.002-.365.07-.561.169-.94.362-1.39.15-.347.3-.602.497-.844a1 1 0 0 0 .116-.165.14.14 0 0 0-.042-.12c-.018-.013-.037-.015-.085-.01-.06.008-.064.007-.089-.024a4 4 0 0 1-.158-.277 6 6 0 0 0-.311-.533c-.185-.286-.365-.54-.426-.6-.17-.164-.312-.16-.383.009-.026.062-.029.08-.032.226-.005.195.01.289.077.495.027.081.09.278.14.437.155.491.258.762.393 1.041a1 1 0 0 1 .065.16c0 .033-.01.058-.058.14l-.035.06-.025-.026c-.038-.04-.098-.156-.22-.421-.516-1.116-.767-2.09-.727-2.82.013-.246.05-.312.177-.32s.266.055.407.185c.101.094.346.375.526.603.29.369.953 1.261.976 1.316.014.031.03.087.035.125a.3.3 0 0 0 .03.097c.042.062.139.05.244-.03.22-.167.663-.268 1.177-.269.281 0 .447.016.742.073.237.046.282.06.383.125.15.095.176.11.216.115.056.01.094-.032.123-.133.035-.124.052-.155.176-.319.064-.084.22-.292.345-.462.624-.842.985-1.267 1.17-1.376.136-.08.265-.102.34-.056m-.491 1.065a.24.24 0 0 1 .033.096c.01.065.008.081-.04.307-.082.387-.116.491-.25.766a15 15 0 0 0-.216.471c-.125.285-.178.382-.19.344-.015-.048-.121-.191-.258-.346l-.155-.176.005-.054c.01-.11.236-.482.565-.93.085-.115.182-.25.217-.3.13-.183.234-.247.289-.178m-5.923.017c.06.052.24.274.32.395.04.06.15.254.243.43.094.177.204.38.244.452.089.16.112.214.112.253 0 .047-.026.094-.072.131-.061.05-.122.13-.215.283a2 2 0 0 1-.093.144c-.012.01-.09-.091-.17-.22-.111-.18-.226-.494-.374-1.023-.135-.478-.179-.82-.112-.866.031-.021.077-.013.117.021m.811 4.61c.068.078.054.238-.022.27-.074.03-.155.004-.188-.06-.04-.077-.016-.212.042-.242a.2.2 0 0 1 .08-.007c.05.003.063.009.088.039m4.076.027c.018.012.04.04.048.062.015.036.015.042-.007.107-.02.057-.03.073-.063.091-.035.02-.042.02-.079.006-.075-.03-.108-.136-.07-.221a.115.115 0 0 1 .171-.045m-1.537.244a.46.46 0 0 0-.239.132l-.049.052-.074-.052c-.149-.104-.3-.126-.413-.06-.195.117-.308.508-.242.84.03.15.021.182-.08.296-.214.245-.287.544-.19.784.029.074.051.103.212.279a.25.25 0 0 1 .07.128c.048.18.136.307.283.41a.9.9 0 0 0 .525.184.7.7 0 0 0 .234-.017.7.7 0 0 0 .422-.277 1.5 1.5 0 0 0 .105-.212 1.1 1.1 0 0 1 .171-.31.6.6 0 0 0 .075-.128c.024-.06.028-.086.031-.216a.9.9 0 0 0-.07-.42.7.7 0 0 0-.152-.223 2 2 0 0 1-.123-.153c-.017-.038-.013-.108.01-.185.026-.086.035-.265.02-.405-.026-.246-.157-.409-.36-.447a.35.35 0 0 0-.166 0m.219.242c.075.038.144.15.162.26.008.056-.013.14-.086.33-.08.211-.086.24-.066.287.012.032.037.052.134.11a.6.6 0 0 1 .247.225.54.54 0 0 1 .052.485c-.067.162-.246.258-.402.216-.143-.039-.246-.133-.371-.34-.077-.127-.104-.154-.138-.132a1 1 0 0 0-.094.143c-.079.138-.158.235-.223.273a.44.44 0 0 1-.418.027.4.4 0 0 1-.151-.168c-.023-.051-.027-.073-.027-.164 0-.093.003-.112.031-.18a1 1 0 0 1 .25-.32.6.6 0 0 0 .098-.112c.019-.041.014-.102-.017-.204-.12-.4-.046-.696.179-.72.079-.008.146.019.247.098.085.068.142.087.181.063a.3.3 0 0 0 .055-.074c.043-.078.064-.1.117-.12a.4.4 0 0 1 .24.017m-.22.334c-.04.033-.101.204-.101.284 0 .062.031.104.078.104.052 0 .077-.035.112-.157.042-.145.039-.202-.012-.233-.036-.021-.05-.021-.077.002m-.605.033c-.044.022-.057.056-.05.134a.4.4 0 0 0 .088.216q.074.095.134.021c.024-.027.025-.036.02-.097a.4.4 0 0 0-.041-.149c-.056-.123-.093-.154-.151-.125m9.292 1.255q0 .031.005.014a.1.1 0 0 0 0-.034q-.006-.01-.006.02m-.01.116q0 .03.005.015a.1.1 0 0 0 0-.035q-.006-.01-.005.02m-8.6.295a.6.6 0 0 0 .287.083c.034 0 .062.004.062.009 0 .02-.069.165-.1.21-.109.159-.313.23-.575.2-.294-.032-.482-.156-.543-.358l-.014-.047.09-.013c.17-.026.234-.066.405-.253l.103-.114.1.117a.6.6 0 0 0 .186.166m8.59-.184q0 .025.004.014a.05.05 0 0 0 0-.029q-.005-.01-.005.015m-.01.093q0 .025.004.014a.05.05 0 0 0 0-.029q-.004-.01-.005.015m-.01.093q0 .025.004.014a.05.05 0 0 0 0-.029q-.004-.01-.005.015m-.011.088q0 .02.006.007.004-.015-.001-.023-.006-.005-.005.016m-.01.081q0 .02.006.007c.003-.008.002-.018-.001-.022q-.005-.004-.005.015m-.02.151q0 .02.006.007c.003-.008.002-.018-.001-.022q-.006-.005-.005.015m-.01.07q0 .02.006.007.004-.015 0-.023-.007-.004-.006.016m-.01.07q0 .02.006.006a.03.03 0 0 0 0-.022q-.006-.005-.006.015M13.13 15c.127.024.187.047.243.095.088.074.119.216.077.355-.01.033-.05.126-.09.205-.086.175-.091.214-.037.274.019.02.048.04.064.044.054.013.125-.023.18-.09.04-.048.064-.051.123-.017a.8.8 0 0 1 .277.29c.02.043.023.07.024.156 0 .103-.001.107-.052.228-.113.268-.293.48-.58.682-.202.142-.356.217-.811.397-.662.26-1.14.4-1.473.43a2 2 0 0 0-.179.025c-.11.027-.148-.003-.173-.137a.6.6 0 0 0-.066-.185c-.033-.065-.021-.08.181-.24.103-.081.284-.234.401-.34l.385-.343c.343-.302.577-.541.86-.878.405-.485.46-.581.476-.828.005-.087.01-.112.025-.125.024-.02.03-.02.145.002m-6.351.612c.432.539.824.899 1.654 1.522.405.303.652.464.91.596.072.036.143.08.158.096l.029.031-.007.128c-.005.1-.003.14.01.186.033.126.021.139-.15.161-.07.01-.19.02-.263.024s-.262.021-.418.038c-.377.04-.672.042-.899.005a3 3 0 0 1-.978-.321.9.9 0 0 1-.358-.312 1.1 1.1 0 0 1-.132-.319 1.4 1.4 0 0 1 0-.341.8.8 0 0 1 .058-.207c.004 0 .047.019.096.042.134.064.197.055.243-.034.045-.085.022-.136-.127-.29-.13-.134-.184-.2-.21-.26a.78.78 0 0 1 .034-.627.6.6 0 0 1 .17-.2c.07-.043.084-.037.18.082m3.53 2.105c.07.04.147.138.173.222.037.113.025.166-.054.248a.44.44 0 0 1-.372.105c-.104-.014-.143-.029-.191-.072-.085-.076-.106-.201-.054-.32q.1-.23.356-.218c.07.003.098.01.141.035" clip-rule="evenodd"/>
  <circle cx="10" cy="10" r="9.5" stroke="#31c77f"/>
  <path fill="#31c77f" fill-rule="evenodd" d="M12.905 13.51a.5.5 0 0 1 .025-.088c.051-.127.229-.322.544-.597.38-.332.749-.586 1.353-.933.832-.476 1.853-.978 3.04-1.494.269-.116 1.095-.468 1.1-.468 0 0 .005.017.008.038q.004.053.005-.009l.003-.046a.5.5 0 0 1 .411.607 2 2 0 0 1-.046.157c-.037.11-.107.262-.18.403l.038.085.004.008c.035.078.092.204.122.327.024.098.089.424-.179.663a.5.5 0 0 1-.126.083 1 1 0 0 1 .001.233l-.006.043c-.02.15-.051.397-.105.633a2.5 2.5 0 0 1-.126.405 1.03 1.03 0 0 1-.339.448.51.51 0 0 1-.283.548c-.069.034-.158.06-.204.074a8 8 0 0 1-.317.085.2.2 0 0 0 .031-.046 8 8 0 0 0 .22-.443l.037-.077-.027.016a3 3 0 0 1-.163.074c-.561.24-1.627.88-2.609 1.566a6 6 0 0 1-.332.22c-.086.045-.455.19-.486.19-.024 0-.074-.042-.074-.062a1 1 0 0 0-.045-.121c-.07-.168-.168-.28-.354-.402-.082-.054-.085-.064-.09-.272-.006-.19-.022-.282-.07-.39a.5.5 0 0 0-.14-.175.95.95 0 0 0-.468-.12l-.074-.002a.7.7 0 0 1-.026-.18l-.011-.052-.002-.009a1 1 0 0 1-.034-.196l-.007-.019-.001-.05a6 6 0 0 0-.022-.467v-.046c0-.032-.001-.084.004-.142m.059 1.569a.5.5 0 0 1 .236-.043l.02-.015c.07.018.113.04.154.075.088.074.119.216.077.355-.01.033-.05.126-.09.205-.086.175-.091.214-.037.274.019.02.048.04.064.044.054.013.125-.023.18-.09.04-.048.064-.051.123-.017a.8.8 0 0 1 .277.29c.02.043.023.069.024.156 0 .103-.001.107-.052.228-.113.268-.293.48-.58.682-.202.142-.356.217-.811.397-.662.26-1.14.4-1.473.43a2 2 0 0 0-.179.025c-.11.027-.148-.003-.173-.137a.6.6 0 0 0-.066-.185c-.033-.065-.021-.08.181-.24.103-.081.284-.234.401-.34l.385-.343c.343-.302.577-.541.86-.878.405-.485.46-.581.476-.828q0-.026.003-.046m-5.148 1.574-.001-.001Zm-.001-.001a6.6 6.6 0 0 1-1.035-1.039c-.096-.12-.11-.125-.18-.082a.6.6 0 0 0-.17.2.78.78 0 0 0-.034.626c.026.06.08.127.21.261.15.154.172.205.127.29-.046.089-.11.098-.243.034a1 1 0 0 0-.096-.042.8.8 0 0 0-.058.207 1.4 1.4 0 0 0 0 .341c.015.085.077.234.132.319a.9.9 0 0 0 .358.312c.284.157.593.258.978.321.227.037.522.036.9-.005.155-.017.343-.034.417-.038a4 4 0 0 0 .263-.024c.171-.022.183-.035.15-.161a.6.6 0 0 1-.01-.186l.007-.128-.029-.03a1 1 0 0 0-.157-.097c-.26-.132-.506-.293-.91-.597-.239-.178-.44-.335-.618-.48m-1.047 1.76.033.023c.17.113.348.146.48.157a2.6 2.6 0 0 1-.513-.18m7.358-1.647.013-.012a.5.5 0 0 0 .1-.133l.001-.002.015-.029a.3.3 0 0 0-.053.038 1 1 0 0 0-.069.124zm1.171-.625.153-.053.01-.003c.028-.01.097-.031.146-.05a.9.9 0 0 0 .263-.159l.006-.003.016-.01.05-.032c.095-.066.168-.14.21-.184l.003-.002a1 1 0 0 1 .078-.076q.058-.044.114-.092-.324.202-.685.434c-.14.091-.275.176-.364.23m-6.183 1.06c.286.1.554.171.797.171q.04 0 .087-.004a.8.8 0 0 0-.17.078c-.115.067-.154.077-.208.056a8 8 0 0 1-.506-.302m1.036.155a.5.5 0 0 1 .163.059c.095.051.138.04.224-.055l.005-.005h-.014l-.015-.002-.143-.006a2 2 0 0 0-.22.009m1.023-.576.03-.05c.098-.152.238-.26.327-.317q.047-.03.09-.062-.212.21-.447.428m7.793-6.657q-.003.016-.005-.014 0-.031.005-.02a.1.1 0 0 1 0 .034m-.01.117q-.003.014-.004-.015 0-.03.004-.02a.1.1 0 0 1 0 .035m-.01.11q-.005.011-.005-.014t.005-.015a.05.05 0 0 1 0 .03m-.01.093q-.004.01-.005-.014.001-.026.005-.015a.05.05 0 0 1 0 .03m-.01.093q-.004.011-.005-.014.001-.026.005-.015a.05.05 0 0 1 0 .029m-.01.08q-.004.014-.005-.006 0-.02.005-.016.005.008 0 .023m-.01.082q-.005.014-.005-.007c0-.012.002-.02.005-.015q.005.008 0 .022m-.02.15q-.004.014-.005-.006c0-.012.002-.02.005-.015q.005.008 0 .022m-.01.07q-.004.014-.005-.006 0-.02.005-.016.005.008 0 .023m-.01.07q-.004.014-.005-.007 0-.02.005-.015.005.008 0 .022m-8.384 6.95a.45.45 0 0 0-.175-.221.26.26 0 0 0-.14-.035q-.257-.012-.357.218c-.052.119-.03.244.054.32.048.043.087.058.19.072.146.02.29-.02.373-.105.08-.082.09-.135.054-.248m2.458-3.68q0 .006-.001-.002z" clip-rule="evenodd"/>
</svg>
