<svg xmlns="http://www.w3.org/2000/svg" fill="none" viewBox="0 0 20 20">
  <circle cx="10" cy="10" r="10" fill="#fff"/>
  <path fill="#000" d="M9.909 2a5.97 5.97 0 0 1 4.178 1.674 5.6 5.6 0 0 1 1.728 3.866l.002.176V17H4V7.716c0-1.526.615-2.962 1.73-4.042A5.97 5.97 0 0 1 9.91 2m0 .284a5.7 5.7 0 0 0-3.98 1.595 5.3 5.3 0 0 0-1.64 3.663l-.003.174v9h11.246v-9a5.3 5.3 0 0 0-1.643-3.837 5.7 5.7 0 0 0-3.98-1.595m0 .71a4.9 4.9 0 0 1 3.471 1.433 4.85 4.85 0 0 1 1.435 3.288l.004.17v8.118H5v-8.12a4.85 4.85 0 0 1 1.437-3.457A4.9 4.9 0 0 1 9.91 2.995M7.156 14.4v1.036h1.648A4.7 4.7 0 0 1 7.156 14.4m-.048-9.291a4.33 4.33 0 0 0-1.091 2.718l-.004.168v3.056a4.33 4.33 0 0 0 .85 2.582q.201.276.444.516a4.38 4.38 0 0 0 3.109 1.288c.44 0 .873-.065 1.284-.191l.176-.057v-5.96c0-2.772-2.905-4.034-4.768-4.12m2.82 2.595a1.31 1.31 0 0 1 1.31 1.306.166.166 0 1 1-.332 0 .98.98 0 0 0-1.961 0v2.506a.54.54 0 0 0 .38-.515.166.166 0 1 1 .332 0 .876.876 0 0 1-.8.866l-.076.004a.873.873 0 0 1-.873-.87.166.166 0 1 1 .332 0c0 .24.159.443.375.514v-2.43a.2.2 0 0 1-.01-.054c0-.029-.008-.69-.46-.69a.162.162 0 1 1 0-.323.69.69 0 0 1 .627.376 1.31 1.31 0 0 1 1.155-.69M6.98 8.75l.725.725v-.43a.166.166 0 0 1 .332 0v.827a.164.164 0 0 1-.165.165.17.17 0 0 1-.117-.047l-.725-.725v.607a.166.166 0 0 1-.333 0V8.867c0-.067.04-.127.103-.153a.16.16 0 0 1 .18.037m2.945.212c.359 0 .652.291.652.65a.16.16 0 0 1-.163.165.166.166 0 0 1-.166-.166.32.32 0 0 0-.445-.296.32.32 0 0 0-.199.296.166.166 0 1 1-.332 0 .65.65 0 0 1 .653-.65"/>
</svg>
