<svg xmlns="http://www.w3.org/2000/svg" fill="none" viewBox="0 0 20 20">
  <path fill="#fff" d="M0 0h20v20H0z"/>
  <path fill="#000" fill-rule="evenodd" d="M5.031 1c-.569 0-1.03.504-1.03 1.125S4.461 3.25 5.03 3.25h3.44c.57 0 1.031-.504 1.031-1.125S9.038 1 8.469 1zm9.294 3.68c.534-.214.808-.86.611-1.444-.197-.583-.79-.881-1.324-.667L4.675 6.161c-.534.215-.808.862-.611 1.445s.79.882 1.324.667zm0 9.159c.534-.215.808-.862.611-1.445s-.79-.882-1.324-.667L4.675 15.32c-.534.215-.808.862-.611 1.445s.79.881 1.324.667zm-3.794 2.911c-.57 0-1.031.504-1.031 1.125S9.962 19 10.531 19h3.438c.569 0 1.03-.504 1.03-1.125s-.461-1.125-1.03-1.125zm3.808-7.575c.531-.223.796-.874.592-1.454s-.801-.869-1.333-.646l-8.937 3.75c-.531.223-.796.874-.592 1.454s.801.869 1.333.646z" clip-rule="evenodd"/>
</svg>
