<svg xmlns="http://www.w3.org/2000/svg" fill="none" viewBox="0 0 128 128">
  <path fill="url(#logo-dark_audiera_svg__a)" d="M127.106 63.606c0-35.07-28.43-63.5-63.5-63.5s-63.5 28.43-63.5 63.5 28.43 63.499 63.5 63.499 63.5-28.43 63.5-63.5"/>
  <path stroke="#000" stroke-width=".211" d="M127.106 63.606c0-35.07-28.43-63.5-63.5-63.5s-63.5 28.43-63.5 63.5 28.43 63.499 63.5 63.499 63.5-28.43 63.5-63.5Z"/>
  <path fill="url(#logo-dark_audiera_svg__b)" stroke="#000" stroke-width=".14" d="M63.828 116.412c29.042 0 52.584-23.543 52.584-52.584S92.87 11.243 63.828 11.243 11.244 34.786 11.244 63.828c0 29.041 23.542 52.584 52.584 52.584Z"/>
  <path fill="#7610b6" d="m42.746 55.732 15.29 9.843a.44.44 0 0 1 .204.425l-2.083 17.64a.444.444 0 0 0 .445.496l18.732-.02c.99 0 2.14-1.32 2.635-2.095a.6.6 0 0 0 .064-.178l1.27-9.36a2.5 2.5 0 0 0-.108-1.016c-.127-.247-.845-.482-1.143-.482l-16.84-.045a.445.445 0 0 1-.356-.704l7.347-10.262a.45.45 0 0 1 .362-.19l11.125-.026.076.006a2.934 2.934 0 0 0 3.423-2.825l.343-7.843a.444.444 0 0 0-.445-.463H61.205a.444.444 0 0 0-.444.387l-1.442 12.49a.445.445 0 0 1-.698.318L32.465 42.842a.445.445 0 0 1 .045-.75l30.238-17.081a.444.444 0 0 1 .66.413l-.634 11.519a.444.444 0 0 0 .444.47l29.051.05c5.08.013 8.954 4.68 8.51 9.563L99.68 58.913a5.46 5.46 0 0 1-1.816 3.398l-2.33 1.917a.445.445 0 0 0-.026.667c1.384 1.353 2.521 2.693 2.318 4.528l-1.62 14.446a5.7 5.7 0 0 1-1.765 3.251l-8.591 7.754c-1.175 1.06-2.54 1.48-4.191 1.48l-50.4-.026a.445.445 0 0 1-.369-.699l7.373-10.54a.6.6 0 0 0 .076-.191z"/>
  <path fill="url(#logo-dark_audiera_svg__c)" stroke="#5d2b9b" stroke-linejoin="round" stroke-width=".211" d="m40.968 53.947 15.52 9.995-2.172 18.415 19.234-.026c1.029 0 2.222-1.416 2.692-2.178l1.27-9.449a2.5 2.5 0 0 0-.101-1.016c-.127-.254-.839-.489-1.143-.489l-17.704-.044 7.994-11.15 11.386-.026a2.932 2.932 0 0 0 3.46-2.82l.37-8.318H59.026L57.44 60.487l-27.305-19.83 31.534-17.825-.698 12.801 29.527.057c5.08 0 8.953 4.674 8.509 9.557l-1.099 11.888a5.46 5.46 0 0 1-1.81 3.403l-2.73 2.229c1.556 1.48 2.909 2.89 2.686 4.877L94.435 82.09a5.7 5.7 0 0 1-1.765 3.251l-8.592 7.754c-1.175 1.06-2.54 1.48-4.19 1.48l-51.258-.026 7.925-11.329z"/>
  <defs>
    <linearGradient id="logo-dark_audiera_svg__a" x1="119.752" x2="8.576" y1="38.65" y2="107.281" gradientUnits="userSpaceOnUse">
      <stop stop-color="#925fc5"/>
      <stop offset=".495" stop-color="#fff"/>
      <stop offset="1" stop-color="#925fc5"/>
    </linearGradient>
    <linearGradient id="logo-dark_audiera_svg__b" x1="63.828" x2="63.828" y1="10.799" y2="116.857" gradientUnits="userSpaceOnUse">
      <stop stop-color="#4400c6"/>
      <stop offset="1" stop-color="#bf00e3"/>
    </linearGradient>
    <linearGradient id="logo-dark_audiera_svg__c" x1="67.397" x2="63.828" y1="39.545" y2="94.574" gradientUnits="userSpaceOnUse">
      <stop stop-color="#fff"/>
      <stop offset="1" stop-color="#ab6aef"/>
    </linearGradient>
  </defs>
</svg>
