<svg xmlns="http://www.w3.org/2000/svg" viewBox="0 0 47.445 47.445">
  <path fill="#4520e6" d="M23.722 47.445C10.622 47.445 0 36.824 0 23.722 0 10.622 10.621 0 23.722 0s23.723 10.621 23.723 23.722c-.005 13.102-10.626 23.723-23.723 23.723"/>
  <path fill="#fff" d="M31.624 19.416a5.02 5.02 0 0 0-2.09-4.08l3.417-3.416-2.043.01-2.715 2.715a5 5 0 0 0-1.6-.26h-9.346v13.239L28.5 16.372a3.6 3.6 0 0 1 1.69 3.05 3.6 3.6 0 0 1-3.596 3.594h-.297L13.774 35.54h2.033l2.457-2.457h8.329a5.036 5.036 0 0 0 5.03-5.03c0-1.83-.983-3.43-2.447-4.31a5.06 5.06 0 0 0 2.448-4.326m-12.942 4.735v-8.33h7.91q.205.002.4.024zm11.506 3.891a3.6 3.6 0 0 1-3.595 3.596h-6.894l7.162-7.163c1.854.141 3.327 1.68 3.327 3.567"/>
</svg>
