<svg xmlns="http://www.w3.org/2000/svg" fill="none" viewBox="0 0 256 256">
  <circle cx="128" cy="128" r="128" fill="#fff"/>
  <path fill="#dabb56" d="M52.832 111.064h6.048v38.208h-6.048zM38.48 119.08h32.304v5.616H44.432v19.2H38.48zm29.232 0h6.048v18.336q0 2.112-.528 3.408-.48 1.296-1.968 1.968t-3.504.864q-1.968.192-4.656.144-.144-1.248-.768-2.928-.576-1.68-1.152-2.832l2.256.096h2.016q.912-.048 1.296-.048.528 0 .72-.144.24-.192.24-.672zm6.576-13.776 2.208 5.28a173 173 0 0 1-9.072 1.104q-4.896.48-10.176.816-5.232.288-10.512.432t-10.224.192q-.048-1.2-.432-2.688t-.816-2.448q5.04-.096 10.32-.288 5.328-.24 10.464-.576t9.792-.768 8.448-1.056m26.496-1.152h6.144v8.784h-6.144zM83.6 108.52h41.04v11.376h-6.192v-6.048H89.456v6.048H83.6zM99.056 115l6.096 1.248a342 342 0 0 1-2.976 6.096 567 567 0 0 1-3.12 6.24 248 248 0 0 1-3.12 5.952 190 190 0 0 1-2.784 5.04l-6.096-1.632a100 100 0 0 0 2.928-4.992 198 198 0 0 0 3.168-5.904 225 225 0 0 0 3.12-6.192A221 221 0 0 0 99.056 115m12.144 10.992 6.48.816q-1.536 5.568-4.272 9.456a25 25 0 0 1-6.528 6.432q-3.792 2.592-8.784 4.128-4.992 1.584-11.184 2.496-.24-.72-.816-1.728-.576-.96-1.248-1.92a12 12 0 0 0-1.2-1.584q7.872-.768 13.536-2.688 5.712-1.92 9.216-5.616t4.8-9.792m-28.608-3.888h42.864v5.424H82.592zm8.064 14.832 4.176-4.032q3.504.96 7.44 2.304 3.984 1.344 7.872 2.928a117 117 0 0 1 7.392 3.168q3.504 1.632 6 3.216l-4.608 4.704q-2.256-1.536-5.568-3.264a110 110 0 0 0-7.2-3.312 168 168 0 0 0-7.872-3.168q-3.984-1.488-7.632-2.544m57.312-31.584h6.624a193 193 0 0 1-.336 5.184q-.24 3.168-.912 7.056-.624 3.84-1.92 8.064t-3.552 8.448q-2.208 4.176-5.664 8.016-3.408 3.792-8.304 6.768-.768-1.104-2.112-2.352a23 23 0 0 0-2.736-2.256q4.8-2.688 8.064-6.144t5.328-7.248q2.064-3.84 3.168-7.68 1.104-3.888 1.584-7.344t.576-6.192.192-4.32m6.384 1.296q.048.912.192 2.88t.576 4.704 1.296 5.952a51 51 0 0 0 2.4 6.528 41 41 0 0 0 3.696 6.576q2.208 3.216 5.328 5.952 3.168 2.736 7.392 4.752a16.3 16.3 0 0 0-2.592 2.352q-1.152 1.344-1.872 2.544-4.416-2.208-7.728-5.232-3.264-3.072-5.616-6.624a47 47 0 0 1-3.84-7.296 59 59 0 0 1-2.496-7.248q-.912-3.6-1.392-6.672t-.672-5.328a118 118 0 0 0-.24-3.264zm31.632 6.288h33.408v5.616h-33.408zm-2.016 14.112h33.552v5.568h-33.552zm-5.52 15.264h43.392v5.616h-43.392zm18.624-38.112h6.048v40.848h-6.048zm-11.088.624 5.952 1.344a61 61 0 0 1-2.496 7.296 66 66 0 0 1-3.216 6.72q-1.728 3.072-3.6 5.376-.576-.528-1.536-1.152a29 29 0 0 0-1.92-1.296 32 32 0 0 0-1.728-1.008q1.92-2.016 3.504-4.8a41.6 41.6 0 0 0 2.88-6 55 55 0 0 0 2.16-6.48"/>
</svg>
