<svg xmlns="http://www.w3.org/2000/svg" fill="none" viewBox="0 0 128 128">
  <path fill="#f0b90b" fill-rule="evenodd" d="M64 0c35.349 0 64 28.651 64 64s-28.651 64-64 64S0 99.349 0 64 28.651 0 64 0" clip-rule="evenodd"/>
  <path fill="#fff" d="m35.174 64 .047 16.923 14.38 8.462v9.907L26.804 85.923V59.051zm0-16.923v9.861L26.8 51.985v-9.862l8.374-4.954 8.416 4.954zm20.431-4.954 8.375-4.954 8.415 4.954-8.415 4.954z"/>
  <path fill="#fff" d="M41.226 77.415v-9.907l8.374 4.954v9.861zm14.38 15.518 8.373 4.954 8.416-4.954v9.862l-8.416 4.954-8.374-4.954zm28.8-50.81 8.373-4.954 8.416 4.954v9.862l-8.416 4.953v-9.861zm8.373 38.8L92.826 64l8.374-4.954v26.872l-22.795 13.37v-9.909z"/>
  <path fill="#fff" d="M86.774 77.415 78.4 82.323v-9.861l8.374-4.954z"/>
  <path fill="#fff" d="m86.774 50.585.046 9.907-14.42 8.462v16.964l-8.374 4.908-8.375-4.908V68.954l-14.42-8.462v-9.907l8.41-4.954 14.333 8.502 14.42-8.502 8.416 4.954zM41.226 33.667 63.979 20.25l22.795 13.416L78.4 38.62l-14.42-8.502L49.6 38.62z"/>
</svg>
