<svg xmlns="http://www.w3.org/2000/svg" fill="none" viewBox="0 0 20 20">
  <path fill="#000" d="M10 20c5.523 0 10-4.477 10-10S15.523 0 10 0 0 4.477 0 10s4.477 10 10 10"/>
  <path fill="#fff" d="M17.34 8.462a7.4 7.4 0 0 0-1.126-2.671 7.4 7.4 0 0 0-.91-1.102 7.4 7.4 0 0 0-2.373-1.6 7.43 7.43 0 0 0-5.801 0 7.4 7.4 0 0 0-2.373 1.6 7.4 7.4 0 0 0-1.599 2.372 7.43 7.43 0 0 0 .689 7.072q.402.595.91 1.102a7.4 7.4 0 0 0 2.373 1.6 7.43 7.43 0 0 0 7.071-.69 7.4 7.4 0 0 0 1.103-.91 7.4 7.4 0 0 0 1.6-2.372 7.43 7.43 0 0 0 .435-4.401m-7.302 8.028a6.52 6.52 0 0 1 0-13.041 6.526 6.526 0 0 1 6.52 6.52 6.526 6.526 0 0 1-6.52 6.521"/>
  <path fill="#fff" d="M10.153 15.924h.176q.046.002.092-.008h.008c.03 0 .053 0 .083-.008h.024q.035.002.068-.007h.024c.023 0 .046-.008.076-.008h.015c.031 0 .062-.008.092-.008s.054-.008.085-.015h.015c.023 0 .046-.007.068-.007h.016c.03-.009.054-.009.084-.016q.093-.014.176-.038h.016c.022-.008.053-.008.076-.016h.007l.177-.045a6.8 6.8 0 0 1-1.707-.161c-.842-.184-1.645-.513-2.326-1.08a4.72 4.72 0 0 1-1.7-3.665 4.45 4.45 0 0 1 1.049-2.847 4.55 4.55 0 0 1 3.382-1.607h.177V5.37h-.2a5.5 5.5 0 0 0-2.25.513 5.6 5.6 0 0 0-1.01.612q-.488.37-.88.842-.369.436-.635.941a5.4 5.4 0 0 0-.627 2.082l-.023.336v.199q.01.585.137 1.148c.085.383.215.75.375 1.103.192.42.536 1.04 1.049 1.507a5.92 5.92 0 0 0 3.673 1.27z"/>
  <path fill="#fff" d="M11.821 14.944a8 8 0 0 1-1.125-.123c-1.576-.283-2.931-1.247-3.428-2.701-.605-1.768.321-3.681 2.081-4.262.336-.113.687-.17 1.041-.17.452 0 .903.093 1.317.26l.428-.91a8 8 0 0 0-.39-.145 4.5 4.5 0 0 0-1.355-.207c-.46.001-.918.076-1.354.222a4.3 4.3 0 0 0-1.508.873q-.316.282-.574.62-.254.334-.436.712a4.35 4.35 0 0 0-.2 3.329c.196.566.509 1.085.92 1.522.374.406.81.712 1.338.995.551.291 1.233.444 1.944.544.46.06 1.072.076 1.431.076.314-.115.444-.168.613-.237.145-.069.29-.138.436-.222s.169-.1.413-.26a.4.4 0 0 0 .061-.046c-.841.145-1.056.137-1.653.13"/>
  <path fill="#fff" d="M13.704 13.804c-.237.015-.574.037-.957.037-.68 0-1.515-.06-2.226-.298-1.103-.367-2.143-1.308-2.143-2.472a2.095 2.095 0 0 1 3.926-1.025l.91-.452a3 3 0 0 0-.543-.726 3.103 3.103 0 0 0-4.393 0 3.1 3.1 0 0 0-.911 2.196c.002.427.093.85.269 1.24q.24.528.665.987a4.7 4.7 0 0 0 1.906 1.209c.696.23 1.722.314 2.717.245a6 6 0 0 0 .834-.122q.51-.404.918-.911c-.237.023-.674.069-.972.092"/>
</svg>
