<svg xmlns="http://www.w3.org/2000/svg" viewBox="0 0 20 20">
  <path fill="#0033ad" d="M9.755.814c.436-.227.968.3.736.736-.135.355-.645.45-.905.179-.276-.26-.186-.773.169-.915m-4.689.506c.265-.11.6.133.573.422.028.313-.355.544-.625.395-.357-.138-.317-.719.052-.817m9.603.826c-.414-.05-.48-.7-.081-.832.309-.15.592.132.638.425-.065.25-.275.479-.557.406m-8.536 1.17c.442-.28 1.074.137 1.006.651-.023.52-.713.82-1.102.47-.376-.277-.319-.91.096-1.12zm6.758.297c.197-.508.998-.524 1.223-.028.222.385-.052.863-.447.994-.525.098-1.023-.47-.776-.965M9.19 4.55c-.004-.438.394-.764.81-.793.276.055.576.172.695.45.22.385.024.913-.374 1.09-.182.102-.398.063-.596.051-.303-.149-.559-.44-.535-.798m-6.972.637c.404-.248.95.205.796.645-.084.38-.595.534-.887.292-.312-.228-.262-.774.09-.937m14.972 0c.343-.267.91.039.868.472.023.395-.466.692-.807.489-.375-.169-.413-.746-.061-.962m-6.04.786c.567-.204 1.24.04 1.562.544.426.618.2 1.557-.461 1.911-.685.42-1.684.064-1.937-.7-.287-.684.131-1.54.837-1.755m-3.321.067c.627-.296 1.472-.048 1.775.595.357.624.08 1.494-.557 1.817-.638.363-1.54.088-1.848-.583-.347-.649-.039-1.53.63-1.829M4.502 7.177c.048-.405.43-.668.814-.695.415.05.746.372.791.792-.027.415-.348.821-.788.819-.484.042-.909-.44-.817-.916m9.825-.607c.498-.29 1.188.132 1.166.703.034.606-.73 1.032-1.225.677-.515-.296-.475-1.128.06-1.38m-7.85 2.133c.581-.16 1.246.114 1.531.648.312.538.185 1.286-.3 1.68-.622.58-1.77.347-2.101-.443-.38-.724.081-1.695.87-1.885m6.3-.003c.566-.162 1.23.056 1.534.571.402.59.21 1.468-.388 1.847-.627.441-1.597.21-1.942-.48-.418-.713.002-1.72.797-1.938m-10.04.672c.502-.19 1.059.364.855.862-.124.454-.763.622-1.094.287-.386-.314-.243-1.013.239-1.15m13.615.723a.77.77 0 0 1 .717-.808c.344.054.678.332.651.706.032.495-.564.83-.986.598-.197-.1-.299-.302-.382-.497M.267 9.615c.302-.131.676.13.607.466-.016.38-.577.527-.783.209-.182-.22-.073-.56.176-.674m19.054-.007c.213-.152.555-.043.639.206.143.271-.12.643-.425.597-.429.04-.568-.614-.214-.803M8.118 11.432c.796-.207 1.65.456 1.655 1.275.052.827-.79 1.561-1.604 1.37-.629-.101-1.122-.707-1.102-1.343a1.364 1.364 0 0 1 1.051-1.302m3.15-.002c.807-.226 1.687.45 1.674 1.287.043.812-.773 1.521-1.57 1.36-.75-.097-1.303-.92-1.094-1.649.106-.485.511-.879.99-.998m-6.072.504c.558-.095 1.082.528.855 1.058-.165.565-.987.719-1.35.257-.427-.443-.109-1.254.495-1.315m9.235.026c.498-.209 1.11.222 1.071.762.02.596-.735 1.006-1.222.659-.552-.312-.45-1.23.151-1.421m2.582 2.589c-.195-.364.159-.845.562-.778.201-.003.342.155.47.288.027.216.071.472-.108.638-.242.308-.793.22-.924-.148m-14.797-.677c.377-.25.92.124.835.565-.045.39-.536.613-.86.392-.347-.201-.334-.773.025-.956m7.452.817c.494-.218 1.123.212 1.076.756.037.601-.741 1.017-1.224.656-.536-.31-.447-1.222.148-1.412m-3.452.805c.42-.221.985.16.947.632.013.386-.365.716-.746.659-.316-.007-.522-.29-.623-.56.005-.293.126-.62.422-.73zm6.991.007c.433-.267 1.048.117 1.007.62.01.526-.684.863-1.087.518-.39-.271-.342-.922.08-1.138m1.217 3.006c-.192-.291.034-.642.346-.708.251.05.517.24.464.53-.037.395-.613.516-.81.178m-9.652-.253c.077-.23.263-.46.534-.4.396.028.514.625.167.809-.312.21-.673-.078-.7-.409m4.656.265c.076-.341.518-.507.81-.326.191.082.248.298.297.48q-.039.144-.073.287c-.12.14-.272.282-.47.277-.37.043-.702-.373-.564-.718"/>
</svg>
