<svg xmlns="http://www.w3.org/2000/svg" fill="none" viewBox="0 0 20 20">
  <circle cx="10" cy="10" r="10" fill="#45cd85"/>
  <path fill="#fff" d="M11.46 4.393c.024.389.024.393-.07.393-.16 0-.735.162-.953.27-.312.152-.57.4-.71.69-.111.22-.127.298-.127.588 0 .41.045.58.217.84.256.386.696.609 1.643.81q.176.038.377.075c.266.048.474.09.64.131.351.086.516.167.641.287.247.24.16.6-.188.79a1.5 1.5 0 0 1-.452.159c-.277.05-.6.043-.99-.022L11.46 9.4c-.514-.086-.851-.197-1.77-.587-.041-.016-.05.1-.041.567l.012.588.247.1c.34.14 1.001.301 1.387.33.304.03.32.033.3.116-.012.05-.037.223-.053.389l-.025.298h1.133l-.024-.298a3 3 0 0 0-.054-.385c-.02-.078.009-.09.271-.136.37-.062.825-.274 1.072-.497.103-.091.25-.285.324-.43.123-.228.144-.306.156-.633.02-.439-.028-.646-.21-.919-.255-.39-.69-.606-1.707-.83q-.16-.036-.341-.072a11 11 0 0 1-.677-.151c-.562-.15-.71-.291-.71-.56 0-.216.106-.344.402-.48.07-.034.179-.06.308-.078.29-.042.688-.046 1.018-.006q.111.014.21.034a7 7 0 0 1 1.07.33c.067.03.07-.012.07-.533v-.559l-.172-.05a5.6 5.6 0 0 0-.985-.16h-.193l.024-.394.025-.393h-1.092z"/>
  <path fill="#fff" d="M11.837 8.06c.266.047.474.09.64.13v1.236c-.276.05-.6.043-.989-.022L11.46 9.4V7.985q.176.038.377.074m.3-1.059a11 11 0 0 1-.677-.151V5.73c.29-.042.688-.046 1.018-.006V7.07q-.16-.035-.341-.071M7.65 6.543a4.56 4.56 0 0 0-2.142 2.164c-.283.598-.385 1.031-.409 1.755-.024.7.016 1.055.194 1.593.526 1.617 1.945 2.839 3.603 3.106.502.08 1.456.032 1.933-.101a4.6 4.6 0 0 0 2.916-2.423c.109-.222.198-.42.198-.436 0-.02-.287-.033-.635-.033h-.639l-.174.283c-.934 1.513-2.94 2.03-4.496 1.165a3.8 3.8 0 0 1-.987-.833c-.522-.651-.752-1.306-.752-2.151 0-1.169.59-2.228 1.577-2.84l.283-.173V6.98c0-.348-.012-.635-.033-.635-.016 0-.214.09-.436.198"/>
</svg>
