<svg xmlns="http://www.w3.org/2000/svg" fill="none" viewBox="0 0 20 20">
  <path fill="#d9b432" d="M16.285.29H3.638C1.62.29 0 1.88 0 3.862v12.42c0 1.982 1.62 3.573 3.638 3.573h12.646c1.99 0 3.638-1.59 3.638-3.573V3.862c0-1.982-1.62-3.572-3.638-3.572m-3.07 4.884c1.478 0 2.672 1.172 2.672 2.624 0 .446-.114.865-.313 1.256a4.3 4.3 0 0 0-1.108-.614c.114-.196.17-.419.17-.642 0-.754-.625-1.368-1.392-1.368-.768 0-1.393.614-1.393 1.368 0 .223.057.446.17.642-.397.14-.795.335-1.108.614-.227-.391-.313-.81-.313-1.257-.056-1.45 1.138-2.623 2.616-2.623m-6.508 9.797c-1.477 0-2.671-1.172-2.671-2.624h1.279c0 .754.625 1.368 1.392 1.368.768 0 1.393-.614 1.393-1.368h1.279c0 1.452-1.194 2.624-2.672 2.624m0-3.685c-1.705 0-3.098-1.367-3.098-3.042s1.393-3.07 3.098-3.07 3.127 1.368 3.127 3.07c-.029 1.675-1.421 3.042-3.127 3.042m6.509 3.685c-1.706 0-3.127-1.368-3.127-3.043 0-1.702 1.393-3.07 3.127-3.07 1.705 0 3.098 1.368 3.098 3.07 0 1.675-1.393 3.043-3.098 3.043m1.847-3.07c0 1.004-.824 1.786-1.847 1.786s-1.848-.81-1.848-1.786c0-1.005.825-1.815 1.848-1.815 1.023.028 1.847.838 1.847 1.815M8.526 8.244c0 1.005-.824 1.815-1.847 1.815s-1.848-.81-1.848-1.815S5.655 6.43 6.68 6.43c1.051 0 1.847.81 1.847 1.815z"/>
</svg>
