<svg xmlns="http://www.w3.org/2000/svg" fill="none" viewBox="0 0 20 20">
  <path fill="#1b1e36" d="M10 20c5.523 0 10-4.477 10-10S15.523 0 10 0 0 4.477 0 10s4.477 10 10 10"/>
  <path fill="#fff" d="M10.02 1.276c-1.079 0-1.954 3.915-1.954 8.745s.875 8.744 1.955 8.744c1.079 0 1.954-3.915 1.954-8.744 0-4.83-.875-8.745-1.954-8.745m.136 16.996c-.124.165-.247.041-.247.041-.497-.576-.746-1.646-.746-1.646C8.293 13.869 8.5 7.86 8.5 7.86c.41-4.77 1.152-5.896 1.405-6.146a.154.154 0 0 1 .198-.016c.367.26.675 1.347.675 1.347.91 3.375.827 6.544.827 6.544.082 2.757-.456 5.843-.456 5.843-.414 2.346-.993 2.84-.993 2.84"/>
  <path fill="#fff" d="M17.606 5.669c-.538-.937-4.369.252-8.56 2.656s-7.148 5.11-6.61 6.047c.536.936 4.368-.253 8.56-2.656 4.19-2.403 7.147-5.111 6.61-6.047M2.93 14.244c-.206-.026-.16-.195-.16-.195.253-.718 1.056-1.466 1.056-1.466 1.996-2.147 7.31-4.957 7.31-4.957 4.34-2.02 5.689-1.935 6.031-1.84a.154.154 0 0 1 .112.164c-.041.448-.833 1.256-.833 1.256-2.473 2.469-5.263 3.975-5.263 3.975-2.35 1.444-5.295 2.512-5.295 2.512-2.241.808-2.958.55-2.958.55"/>
  <path fill="#fff" d="M17.587 14.403c.541-.934-2.408-3.654-6.584-6.076s-8.008-3.625-8.549-2.69c-.54.937 2.408 3.655 6.587 6.077 4.179 2.421 8.005 3.625 8.546 2.69M2.813 6c-.08-.19.09-.236.09-.236.747-.14 1.797.181 1.797.181 2.857.65 7.952 3.842 7.952 3.842 3.923 2.745 4.524 3.954 4.614 4.297a.154.154 0 0 1-.085.18c-.41.187-1.505-.092-1.505-.092C12.3 13.265 9.6 11.607 9.6 11.607c-2.426-1.309-4.825-3.323-4.825-3.323-1.823-1.535-1.96-2.283-1.96-2.283z"/>
  <path fill="#fff" d="M10 11.029a1.029 1.029 0 1 0 0-2.058 1.029 1.029 0 0 0 0 2.058m4.218-4.362c.33 0 .597-.277.597-.618a.607.607 0 0 0-.597-.617.607.607 0 0 0-.597.617c0 .341.268.618.597.618M4.424 8.765c.33 0 .597-.276.597-.617a.607.607 0 0 0-.597-.617.607.607 0 0 0-.597.617c0 .341.267.617.597.617m4.362 7.572c.33 0 .597-.276.597-.617a.607.607 0 0 0-.597-.617.607.607 0 0 0-.597.617c0 .341.267.617.597.617"/>
</svg>
