<svg xmlns="http://www.w3.org/2000/svg" fill="none" viewBox="0 0 180 180">
  <rect width="180" height="180" fill="#000" rx="90"/>
  <path fill="#fff" d="M110.3 134.619v-28.324a4.06 4.06 0 0 1 1.197-2.853 4.1 4.1 0 0 1 2.863-1.193h28.422l24.361-16.185h-59.549c-7.552 0-13.724 7.202-13.724 14.728v53.087zm3.169-88.289L92.924 66.347a4.176 4.176 0 0 1-5.846 0l-20.49-20.015-29.37-5.746L80.122 82.45c5.414 5.395 15.104 4.586 20.572-.728l42.09-41.137-29.314 5.746Zm-76.251 55.922H65.64a4.07 4.07 0 0 1 2.871 1.185 4.04 4.04 0 0 1 1.19 2.861v28.297l16.24 19.287V99.717c0-7.526-7.227-13.677-14.779-13.677H12.857z"/>
</svg>
