<svg xmlns="http://www.w3.org/2000/svg" viewBox="0 0 24 24">
  <circle cx="12" cy="12" r="12"/>
  <path fill="#fefefe" d="M6 4.8c.9 0 1.6.4 2.3 1l.6.6c.3.3.6.3 1 .3.7-.1 1.3-.3 2-.3.2 0 .4 0 .6.1.5.2.9.1 1.4-.1.7-.4 1.5-.8 2.2-1.1s1.4-.6 2.2-.6 1.3.4 1.7 1c.2.3.1.6 0 .9-.2.9-.7 1.5-1.5 1.9-.4.2-.7.4-1.1.6-.6.2-.9.7-1 1.3-.3 1.8-.6 3.5-1.1 5.2-.4 1.3-.9 2.5-1.7 3.5-.8.9-1.7 1.5-2.9 1.5-.6 0-1-.4-1.4-.7-.8-.7-1.1-1.6-1.3-2.5-.1-.5-.2-1-.2-1.5.2-1.9-.1-3.5-.5-5.1-.1-.4-.3-.9-.4-1.3 0-.5-.4-.9-.7-1.2-.4-.3-.8-.6-1.1-1-.5-.6-.6-1.3-.2-2 .2-.4.5-.5 1.1-.5"/>
  <path d="M9.5 18.5c0-1 .4-1.7 1.2-2s1.7.1 2.1.8.1 1.5-.6 2.1c-.4.3-.8.5-1.3.5-.7.1-1.4-.3-1.4-1.4m3-6.8c.1-.6.3-1.2.9-1.6.4-.3.8-.2 1.1.2.5.7.7 1.5.3 2.3-.2.4-.5.6-.9.5-.2 0-.4-.1-.7-.1-.4-.2-.7-.6-.7-1.3m-3.2.8c-.7 0-1-.6-.9-1.2 0-.2.1-.3.1-.5.2-.6.9-.7 1.4-.3s.5 1.3 0 1.7q-.3.45-.6.3"/>
  <path fill="#040404" d="M15.1 8.1c-.1 0-.1 0-.1-.1 0-.2-.2-.2-.3-.2s-.1-.1-.1-.2.1-.1.2-.1.3 0 .3-.2-.1-.3-.2-.3-.2-.1-.1-.2c0-.1.1-.1.2-.1.2 0 .4 0 .6-.2.1-.1.2 0 .3.1s0 .1 0 .2c0 .2-.3.2-.4.4s-.1.4-.1.7c-.1.1-.1.2-.3.2"/>
</svg>
