<svg xmlns="http://www.w3.org/2000/svg" fill="none" viewBox="0 0 85 85">
  <path fill="#ecf0ec" d="M42.5 85C65.972 85 85 65.972 85 42.5S65.972 0 42.5 0 0 19.028 0 42.5 19.028 85 42.5 85"/>
  <path fill="#3ab83a" d="M22 45.047c7.4 3.93 15.122 8.044 21.086 11.227L64 45.047a9965 9965 0 0 1-20.914 30.98C36.042 65.686 28.263 54.274 22 45.048Zm.804-3.103L43.11 31.11l20.04 10.755-20.028 10.847-20.317-10.768Zm20.282-14.306L22 38.738 42.994 8 64 38.808z"/>
  <path fill="#0b8311" d="M43.086 56.274 64 45.047c-7.572 11.25-20.914 30.98-20.914 30.98zm.023-25.164 20.04 10.755-20.028 10.847zm-.023-3.471L42.994 8 64 38.808z"/>
  <path fill="#0b8311" d="M22.804 41.945 43.11 43.61l20.04-1.735-20.03 10.848-20.316-10.78Z"/>
  <path fill="#146714" d="m43.11 43.611 20.04-1.735-20.03 10.848z"/>
</svg>
