<svg xmlns="http://www.w3.org/2000/svg" fill="none" viewBox="0 0 20 20">
  <path fill="#f0f0f0" fill-rule="evenodd" d="M8.793 1.586c0 .004-.029.007-.075.007-.047 0-.076.002-.076.006s-.021.006-.05.006-.051.003-.051.007c0 .003-.021.006-.05.006s-.051.003-.051.006c0 .004-.017.007-.038.007s-.038.002-.038.006c0 .003-.017.006-.038.006s-.038.003-.038.006c0 .004-.017.007-.038.007s-.038.003-.038.006c0 .004-.014.006-.031.006s-.032.003-.032.007c0 .003-.011.006-.025.006s-.025.003-.025.006c0 .004-.015.007-.032.007s-.032.003-.032.006q-.002.006-.025.006t-.025.007c0 .003-.012.006-.025.006s-.026.003-.026.006c0 .004-.011.007-.025.007s-.025.002-.025.006q-.002.005-.02.006-.017 0-.018.007c0 .003-.012.006-.025.006s-.026.003-.026.006q-.001.006-.019.007c-.01 0-.019.002-.019.006q-.001.005-.025.006-.023 0-.025.006t-.02.007-.018.006-.019.006-.019.007q-.001.005-.019.006-.017 0-.019.006t-.019.007c-.01 0-.019.003-.019.006q-.001.005-.019.006c-.01 0-.019.003-.019.007q0 .005-.012.006-.012 0-.013.006t-.019.007c-.01 0-.019.002-.019.006q-.001.005-.019.006c-.01 0-.019.003-.019.007q0 .005-.012.006-.012 0-.013.006t-.019.006c-.01 0-.019.003-.019.007q-.001.005-.013.006-.01 0-.012.006t-.02.007-.018.006q-.001.006-.013.006-.011 0-.012.007-.001.005-.013.006-.012 0-.013.006t-.019.007q-.016 0-.018.006-.001.005-.013.006-.012 0-.013.007 0 .005-.012.006-.012 0-.013.006t-.013.007-.012.006q-.001.005-.013.006-.012 0-.013.007 0 .005-.012.006-.012 0-.013.006-.002.006-.012.006-.012 0-.013.007-.001.005-.013.006-.011 0-.012.006t-.013.007-.013.006q0 .006-.012.006t-.013.007q-.001.005-.013.006-.01 0-.012.006-.001.006-.013.007-.011 0-.012.006-.001.005-.013.006-.012 0-.013.007 0 .005-.012.006-.012 0-.013.006t-.013.007q-.011 0-.012.006-.001.005-.013.006-.012 0-.013.006t-.01.007q-.012.002-.021.012-.01.012-.02.013t-.012.006-.012.007-.013.006-.011.006c-.006 0-.016.006-.02.013q-.01.012-.02.013t-.012.006-.011.006q-.012.001-.02.013-.01.012-.02.013c-.005 0-.014.005-.019.012q-.01.012-.02.013t-.011.006-.011.006q-.012.001-.02.013-.01.012-.02.013c-.005 0-.014.005-.019.012q-.009.012-.019.013c-.005 0-.014.006-.019.013q-.01.011-.017.012c-.005 0-.017.009-.027.02q-.017.016-.026.018t-.018.013-.018.012c-.005 0-.017.009-.026.02-.01.01-.022.018-.027.018q-.008.001-.017.013t-.018.013c-.005 0-.02.01-.033.025-.013.014-.028.025-.032.025q-.008.002-.025.02-.016.016-.025.018a.1.1 0 0 0-.038.032.2.2 0 0 1-.038.031.2.2 0 0 0-.044.038.2.2 0 0 1-.044.038.4.4 0 0 0-.064.057.4.4 0 0 1-.063.057c-.008 0-.202.193-.202.202a.5.5 0 0 1-.063.07.5.5 0 0 0-.063.069c0 .004-.014.02-.032.038a.2.2 0 0 0-.031.038.2.2 0 0 1-.032.038.1.1 0 0 0-.032.038c0 .003-.01.018-.025.031-.014.013-.025.028-.025.032s-.009.015-.019.025-.019.021-.019.025-.009.016-.019.025-.019.022-.019.027q-.001.009-.013.018-.01.01-.012.017c0 .005-.009.017-.02.027q-.016.017-.018.026t-.013.018-.012.019-.013.019-.013.019-.012.019-.013.019-.013.019q-.01.01-.012.02 0 .01-.006.011t-.007.012-.012.02-.013.019-.013.019-.012.02-.007.011q-.005 0-.006.012-.001.01-.013.02-.011.01-.012.02 0 .011-.007.012-.005 0-.006.012 0 .012-.006.013t-.006.011q-.001.01-.013.02c-.007.005-.013.015-.013.02q0 .011-.006.012t-.006.013q0 .011-.007.012-.005.001-.006.013 0 .012-.006.013t-.007.012-.006.013-.006.012q0 .012-.007.013-.005.001-.006.011-.001.012-.013.02-.01.01-.012.021 0 .01-.006.011t-.007.013-.006.013-.006.016c0 .018-.014.034-.028.034q-.01 0-.01.006c0 .004-.012.007-.026.007q-.023 0-.025.006t-.025.006c-.014 0-.025.003-.025.007q-.002.005-.02.006-.016 0-.018.006c0 .004-.012.007-.026.007s-.025.002-.025.006q-.001.005-.019.006-.017 0-.019.007-.001.005-.019.006c-.01 0-.019.003-.019.006q-.001.006-.019.007c-.01 0-.019.002-.019.006q-.001.005-.019.006-.016 0-.018.006t-.02.007-.018.006-.02.006q-.017 0-.018.007-.002.005-.02.006-.017 0-.018.006-.002.006-.02.007-.017 0-.018.006-.001.005-.013.006-.011 0-.012.007-.002.005-.02.006-.017 0-.018.006t-.013.007-.013.006-.018.006c-.01 0-.02.003-.02.007q0 .005-.012.006-.012 0-.013.006T4.15 4.5c-.01 0-.019.002-.019.006q0 .005-.012.006-.012 0-.013.006t-.013.007q-.01 0-.012.006-.001.006-.013.006-.011 0-.012.007-.002.005-.02.006-.017 0-.018.006t-.013.007-.013.006-.012.006-.013.007q-.001.005-.012.006-.012 0-.013.006t-.013.007-.012.006-.013.006-.013.007q0 .005-.012.006-.012 0-.013.006t-.013.006-.012.007q-.001.005-.013.006-.011 0-.012.006t-.013.007-.013.006-.011.006-.02.013-.02.013-.012.006-.013.006q-.01 0-.012.007-.001.005-.011.006-.012.001-.02.013-.01.011-.021.012-.01 0-.011.007 0 .005-.012.006-.01.002-.02.012-.01.012-.02.013t-.012.006-.01.007q-.012 0-.021.012t-.02.013c-.004 0-.013.006-.018.013q-.01.011-.02.012-.011 0-.012.007-.001.005-.01.006-.012.001-.021.013-.009.01-.018.012c-.005 0-.017.009-.026.02-.01.01-.022.018-.027.018q-.009.001-.018.013-.01.011-.017.012c-.005 0-.017.009-.027.02q-.016.016-.025.018c-.004 0-.016.009-.025.02q-.017.016-.026.018t-.025.02c-.01.01-.021.018-.025.018s-.018.011-.032.025c-.013.014-.027.026-.031.026a.1.1 0 0 0-.038.031.2.2 0 0 1-.038.032.4.4 0 0 0-.063.057.4.4 0 0 1-.063.056c-.009 0-.177.169-.177.178a.4.4 0 0 1-.057.063.4.4 0 0 0-.057.063c0 .004-.014.02-.032.038a.1.1 0 0 0-.031.038c0 .004-.012.018-.026.031s-.025.028-.025.032q-.001.008-.019.025c-.01.01-.019.021-.019.025s-.008.016-.019.025-.019.022-.019.026-.008.015-.019.025-.018.022-.018.026q-.001.009-.013.018-.012.01-.013.02 0 .009-.012.018-.012.01-.013.02-.001.009-.013.018-.011.01-.012.019-.001.01-.013.019-.012.01-.013.02t-.006.012-.006.01q-.001.012-.013.021-.011.01-.012.02c0 .004-.006.013-.013.018q-.012.01-.013.02t-.006.012-.006.012-.007.013-.006.011-.013.02c-.007.005-.012.015-.012.02q0 .011-.007.012-.005.001-.006.013 0 .011-.006.012t-.007.013-.006.013-.006.012q0 .012-.006.013-.006.002-.007.012 0 .012-.006.013t-.006.013-.007.012q-.005.001-.006.013 0 .012-.006.013-.007 0-.007.012t-.006.013-.006.013q0 .01-.007.012-.005.001-.006.013 0 .011-.006.012t-.007.013-.006.013-.006.019q0 .017-.007.019-.005 0-.006.012 0 .012-.006.013t-.007.013q0 .01-.006.012-.005.002-.006.02 0 .016-.006.018-.007.001-.007.013 0 .011-.006.012t-.006.02q0 .016-.007.018-.005.001-.006.013 0 .012-.006.013-.007.002-.007.018c0 .01-.003.02-.006.02q-.005.002-.006.018c0 .01-.003.02-.007.02q-.005.002-.006.018c0 .01-.003.02-.006.02q-.006.002-.007.018c0 .01-.002.02-.006.02q-.005.002-.006.018c0 .01-.003.019-.007.019q-.005.002-.006.019c-.001.017-.003.019-.006.019q-.006.001-.006.019c0 .01-.003.019-.007.019q-.005.002-.006.025c-.001.023-.003.025-.006.025-.004 0-.007.012-.007.026s-.003.025-.006.025c-.004 0-.006.011-.006.025s-.003.025-.007.025c-.003 0-.006.012-.006.026s-.003.025-.006.025c-.004 0-.007.014-.007.032 0 .017-.003.031-.006.031s-.006.014-.006.032c0 .017-.003.031-.007.031-.003 0-.006.017-.006.038s-.003.038-.006.038c-.004 0-.007.017-.007.038s-.002.038-.006.038-.006.021-.006.05-.003.051-.007.051c-.003 0-.006.03-.006.076s-.002.076-.006.076-.006.015-.006.035c0 .028-.003.037-.016.05q-.015.015-.023.016t-.025.019-.025.019-.025.019q-.017.016-.025.018-.01.002-.026.02-.016.016-.025.018a.1.1 0 0 0-.032.026c-.013.014-.027.025-.031.025a.1.1 0 0 0-.038.032.2.2 0 0 1-.038.031.4.4 0 0 0-.063.057.4.4 0 0 1-.063.057 2 2 0 0 0-.253.259.3.3 0 0 0-.05.057c0 .004-.015.02-.032.038a.1.1 0 0 0-.032.038c0 .004-.011.018-.025.031s-.025.028-.025.032-.012.018-.026.031-.025.028-.025.032-.008.015-.019.025-.019.022-.019.026q0 .009-.012.018t-.013.018c0 .005-.008.017-.019.027s-.019.021-.019.026q-.002.009-.012.018-.012.009-.013.019t-.013.019q-.011.009-.012.019t-.013.019-.013.02q0 .01-.006.011-.005.001-.006.011-.001.012-.013.02-.012.01-.013.02t-.012.019-.013.02-.006.011-.006.011q-.001.012-.013.02-.012.01-.013.021 0 .01-.006.011t-.006.013-.007.013q-.005 0-.006.012 0 .012-.006.013-.007.001-.007.011t-.012.02Q.48 9.19.48 9.2t-.006.012q-.007.001-.007.013 0 .011-.006.012-.005.001-.006.013 0 .012-.006.013t-.007.012-.006.013T.43 9.3t-.007.012q-.005.001-.006.013 0 .011-.006.012-.007.001-.007.013t-.006.013q-.005 0-.006.012 0 .012-.007.013-.005.001-.006.013 0 .011-.006.012-.007.002-.007.02 0 .016-.006.018-.005.001-.006.013 0 .011-.007.012-.005.001-.006.013 0 .012-.006.013-.007 0-.007.012t-.006.013q-.005.001-.006.019 0 .017-.006.019-.007.002-.007.012 0 .012-.006.013-.006.002-.006.02 0 .017-.007.018-.005.001-.006.013 0 .011-.006.012-.007.002-.007.02 0 .017-.006.018-.005.002-.006.02 0 .017-.007.018-.005.001-.006.013 0 .011-.006.012t-.007.02q0 .016-.006.018-.005.002-.006.02 0 .016-.007.018-.005.002-.006.02 0 .017-.006.018c-.004 0-.006.009-.006.019q0 .017-.007.019-.005.002-.006.025c0 .014-.003.026-.006.026q-.007.002-.007.018c0 .01-.003.02-.006.02q-.006.001-.006.018c0 .01-.003.02-.007.02q-.005.001-.006.025c0 .014-.003.025-.006.025q-.007.002-.007.025t-.006.025q-.008.004-.006.026c.002.022-.003.025-.007.025-.003 0-.006.014-.006.032 0 .017-.003.031-.006.031q-.006.002-.007.025c0 .014-.002.026-.006.026-.003 0-.006.014-.006.031s-.003.032-.007.032c-.003 0-.006.017-.006.038s-.003.038-.006.038c-.004 0-.006.017-.006.038s-.003.037-.007.037c-.003 0-.006.02-.006.045s-.003.044-.006.044c-.004 0-.007.023-.007.057 0 .033-.002.057-.006.057s-.006.031-.006.082c0 .05-.003.082-.007.082S0 10.965 0 11.125s.002.246.006.246.007.032.007.083c0 .05.002.082.006.082s.006.023.006.057c0 .033.003.056.007.056.003 0 .006.02.006.045s.003.044.006.044c.004 0 .007.017.007.038s.002.038.006.038c.003 0 .006.017.006.038s.003.037.006.037c.004 0 .007.015.007.032s.003.032.006.032c.004 0 .006.014.006.031s.003.032.007.032c.003 0 .006.011.006.025q0 .023.006.025c.004 0 .007.012.007.026q0 .023.006.025t.006.025c0 .014.003.026.007.026q.005.001.006.025c0 .014.003.025.006.025q.006.002.007.019 0 .017.006.019.005.002.006.025 0 .023.007.025.005.002.006.02 0 .016.006.018t.007.02.006.018q.005.002.006.02 0 .016.006.018.007.002.007.02 0 .017.006.018.006.002.006.019t.007.019q.005.001.006.019 0 .017.006.019t.007.012q0 .012.006.013.005.002.006.02 0 .017.007.018.005.001.006.013 0 .011.006.012.007.002.007.02 0 .016.006.018.005.001.006.013 0 .011.007.012.005.002.006.02 0 .017.006.018t.006.013.007.013q.005 0 .006.012 0 .012.006.013.007.002.007.019t.006.019q.006.001.006.013 0 .01.007.012.005.001.006.013 0 .011.006.012.007.001.007.013t.006.013q.005 0 .006.012 0 .012.007.013.005.002.006.012 0 .012.006.013.007.001.007.013 0 .011.006.012.005.001.006.013 0 .012.007.013.005 0 .006.012 0 .012.006.013t.006.013q0 .011.007.012.005.001.006.011.001.012.013.02.011.01.012.021 0 .01.007.011.005.001.006.013 0 .012.006.013t.007.012.006.013.006.011c0 .006.006.016.013.02q.012.01.013.02t.006.012.006.011q.001.012.013.02.011.01.012.02t.013.019.013.02.006.011.006.011q.001.012.013.02.012.01.013.02t.012.019q.012.009.013.018c0 .004.008.016.019.026s.019.022.019.026q0 .009.012.018t.013.018c0 .005.009.017.019.026q.017.017.019.026c0 .004.008.015.019.025q.017.017.019.025c0 .004.008.016.019.025s.019.022.019.026.011.018.025.031.025.028.025.032.015.02.032.038a.2.2 0 0 1 .031.037.5.5 0 0 0 .064.07.5.5 0 0 1 .063.07c0 .008.156.164.164.164.004 0 .032.026.063.057s.06.057.064.057c.003 0 .023.017.044.037.02.021.04.038.044.038s.018.012.031.026.028.025.032.025.016.008.025.019q.017.017.026.019t.025.019.025.019c.004 0 .016.008.025.019s.022.019.027.019q.009 0 .018.012t.019.013.018.013c.005.006.014.012.018.012.005 0 .017.009.027.02.01.01.022.018.028.018q.009 0 .01.006.001.007.01.007.012 0 .021.012t.02.013q.009.001.018.013.01.011.02.012.011 0 .012.007.001.005.01.006.012.002.021.012.01.012.02.013t.012.006.011.007.02.012c.005.007.015.013.02.013q.011 0 .012.006t.013.007.012.006.013.006.013.007.01.006q.012.001.021.013.01.011.02.012.011 0 .012.007 0 .005.012.006.012 0 .013.006t.013.007.012.006.013.006.013.007.012.006.013.006.012.006.013.007q.001.005.013.006.011 0 .012.006.002.007.02.007.016 0 .018.006t.013.006.013.007q0 .005.012.006.012 0 .013.006 0 .007.012.007t.013.006c0 .003.009.006.019.006s.019.003.019.006q.001.006.013.007.011 0 .012.006t.013.006.012.007q.002.005.02.006.016 0 .018.006.001.007.013.007t.013.006.019.006c.01 0 .019.003.019.007q.001.005.019.006.016 0 .018.006t.013.007.013.006.019.006c.01 0 .019.003.019.007q.001.005.019.006c.01 0 .019.003.019.006q.002.007.018.007c.01 0 .02.002.02.006q.002.005.018.006c.01 0 .02.003.02.007q.001.005.025.006c.014 0 .025.003.025.006q.001.007.019.007c.01 0 .019.002.019.006 0 .003.011.006.025.006s.025.003.025.006q.002.006.02.007.016 0 .018.006c0 .003.012.006.025.006s.026.003.026.007c0 .003.014.006.031.006s.032.003.032.006q.002.006.025.007c.023.001.025.002.025.006 0 .003.015.006.032.006s.032.003.032.007c0 .003.014.006.031.006s.032.003.032.006c0 .004.017.006.038.006s.038.003.038.007c0 .003.016.006.038.006.02 0 .037.003.037.007 0 .003.02.006.045.006s.044.002.044.006.025.006.063.006.063.003.063.007.034.006.089.006.088.003.088.006c0 .004.027.007.07.007.062 0 .069 0 .069.011q.001.01.013.02.011.01.012.02.001.009.013.018.012.01.013.02 0 .009.012.018.012.01.013.02.001.009.012.018.012.009.013.019t.013.019.012.019.013.019.013.018c0 .004.008.016.019.026s.019.021.019.025q.001.01.019.026.016.016.018.025c0 .004.012.018.026.031s.025.028.025.032.011.018.025.032a.1.1 0 0 1 .026.031c0 .004.017.024.037.044.021.02.038.04.038.044 0 .01.346.354.354.354a.2.2 0 0 1 .038.032.2.2 0 0 0 .038.032c.004 0 .02.014.038.031a.1.1 0 0 0 .038.032q.008.001.025.019c.017.018.021.019.025.019s.016.008.026.019q.016.017.025.018c.004 0 .015.01.025.02s.022.018.026.018q.009.001.018.013.01.012.02.013.009 0 .018.012.01.012.02.013.009.001.018.013c.005.006.014.012.019.012s.014.006.019.013.014.013.019.013.014.005.019.012q.009.012.019.013c.005 0 .014.006.019.012q.01.012.02.013t.011.006q0 .007.012.007.01 0 .02.012t.02.013.012.006q0 .007.012.007t.013.006q.001.005.011.006t.02.013c.005.007.015.012.02.012q.011 0 .012.007.001.005.013.006.011 0 .012.006.001.007.013.007t.013.006q0 .006.012.006t.013.007.012.006.013.006q.001.007.013.007.011 0 .012.006.001.005.013.006.012 0 .013.007 0 .005.012.006.012 0 .013.006.001.007.013.007.01 0 .012.006.001.005.013.006.011 0 .012.006.001.007.013.007t.013.006q0 .006.012.006t.013.007.019.006q.017 0 .019.006t.012.007q.012 0 .013.006.001.005.013.006.011 0 .012.007.002.005.02.006.016 0 .018.006.001.007.013.007t.013.006q.001.005.019.006.016 0 .018.007.001.005.013.006.012 0 .013.006t.019.006c.01 0 .019.003.019.007q.001.005.019.006c.01 0 .019.003.019.007q.001.005.018.006c.01 0 .02.003.02.006q0 .006.012.006t.013.007c0 .003.011.006.025.006s.025.003.025.006q.002.007.02.007.016 0 .018.006.002.005.02.006.016 0 .018.007.002.005.025.006c.014 0 .026.003.026.006q.001.007.019.007t.018.006c0 .003.012.006.026.006s.025.003.025.007c0 .003.011.006.025.006s.026.003.026.006q.001.006.025.006c.014 0 .025.003.025.007 0 .003.014.006.032.006.017 0 .031.003.031.006 0 .004.014.007.032.007.017 0 .031.003.031.006 0 .004.017.006.038.006s.038.003.038.007c0 .003.017.006.038.006s.038.003.038.006c0 .004.021.007.05.007s.051.002.051.006.023.006.057.006.057.003.057.007a.3.3 0 0 0 .1.006c.064 0 .102.002.102.006s.048.007.133.007a.6.6 0 0 0 .132-.007.4.4 0 0 1 .108-.006.4.4 0 0 0 .107-.006c0-.004.025-.007.063-.007s.063-.002.063-.006.02-.006.045-.006.044-.003.044-.007c0-.003.017-.006.038-.006s.038-.003.038-.006c0-.004.017-.007.038-.007s.037-.002.037-.006c0-.003.015-.006.032-.006s.032-.003.032-.006c0-.004.014-.007.031-.007s.032-.003.032-.006c0-.004.011-.007.025-.007s.025-.002.025-.006c0-.003.012-.006.026-.006q.023 0 .025-.006.002-.007.025-.007c.023 0 .025-.003.025-.006q.001-.006.01-.006c.01 0 .079.065.079.075s.168.177.177.177c.004 0 .035.029.07.064a.5.5 0 0 0 .069.063c.004 0 .02.014.038.031a.1.1 0 0 0 .038.032c.003 0 .02.014.037.031a.1.1 0 0 0 .039.032c.004 0 .015.009.025.019q.016.017.025.019c.004 0 .015.008.025.019s.021.019.025.019q.01.001.026.019.017.017.026.019.009 0 .018.012t.018.013c.004 0 .016.009.026.019s.022.019.027.019q.008.002.017.012.01.012.02.013.009.001.018.013.01.011.02.012.009.001.018.013.01.012.02.013t.012.006.011.006.02.013.02.013.018.012.02.013.012.006.011.007.02.012c.005.007.015.013.02.013q.011 0 .012.006.001.005.013.006.011 0 .012.007.001.005.011.006.012.001.02.013.01.011.021.012.01 0 .011.007.001.005.013.006.012 0 .013.006t.012.006.013.007q.001.005.013.006.011 0 .012.006.001.007.013.007.011 0 .012.006t.013.006.013.007q0 .005.012.006.012 0 .013.006.001.007.013.007.011 0 .012.006t.013.006.013.007q0 .005.012.006.012 0 .013.006.002.007.012.007.012 0 .013.006.001.005.013.006.011 0 .012.007.001.005.013.006.012 0 .013.006t.012.006.013.007q.001.005.013.006.01 0 .012.006t.02.007.018.006q.001.006.013.006.011 0 .012.007.001.005.013.006.012 0 .013.006.001.007.019.007c.01 0 .019.002.019.006q0 .005.012.006.012 0 .013.007.001.005.019.006c.01 0 .019.003.019.006q0 .006.012.007.012 0 .013.006.001.005.019.006.017 0 .019.007.001.005.019.006c.01 0 .019.003.019.006q.001.006.019.006t.019.007q0 .005.012.006.012 0 .013.006.001.007.019.007t.019.006q.001.005.019.006.017 0 .019.007.001.005.019.006.017 0 .019.006t.025.007c.014 0 .025.002.025.006q.002.005.02.006.017 0 .018.007c0 .003.009.006.019.006s.019.003.019.006q.002.007.025.007c.014 0 .025.002.025.006 0 .003.012.006.026.006q.023 0 .025.006.002.007.025.007c.014 0 .026.003.026.006q.002.006.025.006c.014 0 .025.003.025.007q.002.005.025.006c.014 0 .026.003.026.006q.002.006.025.007.023 0 .025.006c0 .003.014.006.032.006.017 0 .031.003.031.007 0 .003.015.006.032.006s.032.003.032.006c0 .004.016.007.037.007s.038.002.038.006c0 .003.017.006.038.006s.038.003.038.007c0 .003.02.006.044.006.026 0 .045.003.045.006 0 .004.02.007.05.007s.05.002.05.006.026.006.064.006.063.003.063.006c0 .004.034.007.088.007.055 0 .089.002.089.006s.086.006.246.006.247-.002.247-.006.033-.006.088-.006.088-.003.088-.006c0-.004.026-.007.064-.007s.063-.002.063-.006.02-.006.05-.006.05-.003.05-.007c0-.003.02-.006.045-.006s.044-.003.044-.006c0-.004.017-.007.038-.007s.038-.003.038-.006.014-.006.032-.006c.017 0 .031-.003.031-.007 0-.003.017-.006.038-.006s.038-.003.038-.006q.002-.007.025-.007c.023 0 .026-.003.026-.006s.014-.006.031-.006.032-.003.032-.007q.002-.005.025-.006.023 0 .025-.006c0-.004.012-.007.026-.007q.023 0 .025-.006.002-.005.025-.006.023 0 .025-.006c0-.004.012-.007.026-.007q.023 0 .025-.006.001-.006.019-.006t.019-.007q.002-.005.025-.006c.014 0 .025-.003.025-.006q.002-.006.02-.007.017 0 .018-.006.002-.006.02-.006.017 0 .018-.007.002-.005.02-.006.017 0 .018-.006.002-.007.02-.007.017 0 .018-.006.002-.005.019-.006c.017-.001.019-.003.019-.007q.001-.005.019-.006c.01 0 .019-.003.019-.006q.001-.006.019-.006t.019-.007q0-.005.012-.006.012 0 .013-.006.002-.007.019-.007t.019-.006q.001-.006.013-.006.011 0 .012-.007.002-.005.02-.006.016 0 .018-.006.001-.007.013-.007.011 0 .012-.006t.02-.006.018-.007q.001-.005.013-.006.011 0 .012-.006c0-.004.01-.007.02-.007q.017 0 .018-.006.001-.005.013-.006.012 0 .013-.007 0-.005.012-.006.012 0 .013-.006t.013-.006.012-.007q.001-.005.013-.006.011 0 .012-.006.001-.007.013-.007t.013-.006q.001-.005.019-.006c.01 0 .019-.003.019-.007q0-.005.012-.006.012 0 .013-.006.001-.007.013-.007.01 0 .012-.006.001-.005.013-.006.012 0 .013-.007 0-.005.012-.006.012 0 .013-.006.001-.007.011-.007t.02-.012.02-.013.012-.006.013-.006.012-.007.013-.006.012-.006q.001-.007.013-.007t.013-.006q.001-.005.011-.006t.02-.013.02-.013q.011 0 .012-.006.001-.005.013-.006.011 0 .012-.007.001-.005.011-.006.012-.002.02-.012.01-.012.021-.013.01 0 .011-.006 0-.007.012-.007.01-.001.02-.012.009-.012.019-.013t.019-.013.019-.012.019-.013.019-.013.019-.012.019-.013.019-.013q.009-.01.018-.012.01-.001.02-.013.009-.011.018-.012.01-.001.02-.013.008-.012.017-.013c.005 0 .017-.008.027-.019q.016-.017.025-.019c.004 0 .015-.008.025-.018q.017-.018.025-.02.01-.002.026-.018c.01-.01.02-.02.025-.02.004 0 .018-.01.031-.025.014-.014.028-.025.032-.025s.018-.011.032-.025a.1.1 0 0 1 .031-.026.2.2 0 0 0 .045-.037 8 8 0 0 0 .436-.43.2.2 0 0 1 .037-.044.2.2 0 0 0 .038-.044c0-.005.011-.019.025-.032s.026-.027.026-.032c0-.004.011-.018.025-.031s.025-.028.025-.032.009-.015.02-.025q.017-.017.018-.025.003-.012.02-.025c.01-.01.018-.022.018-.027q.001-.009.013-.018.011-.009.012-.019c0-.005.006-.014.013-.019q.012-.009.013-.019c0-.005.005-.014.012-.018q.012-.01.013-.02 0-.009.012-.018.012-.01.013-.02.001-.009.013-.018.011-.01.012-.02.001-.009.013-.018.012-.01.013-.02 0-.009.012-.018.012-.01.013-.02t.006-.012q.007-.001.007-.011t.012-.02.013-.02.006-.012.006-.012q0-.012.007-.013.005-.001.006-.01c0-.025.013-.028.142-.028a.5.5 0 0 0 .123-.006c0-.004.03-.007.076-.007.047 0 .076-.002.076-.006s.023-.006.057-.006.057-.003.057-.007c0-.003.02-.006.05-.006s.05-.003.05-.006c0-.004.018-.007.039-.007.02 0 .038-.002.038-.006s.017-.006.037-.006c.022 0 .038-.003.038-.007 0-.003.015-.006.032-.006s.032-.003.032-.006c0-.004.014-.006.031-.006s.032-.003.032-.007q.002-.005.025-.006c.014 0 .025-.003.025-.007 0-.003.015-.006.032-.006s.032-.003.032-.006q.001-.006.025-.006.023 0 .025-.007c0-.003.009-.006.019-.006q.017 0 .019-.006t.025-.007.025-.006c0-.003.012-.006.026-.006s.025-.003.025-.007q.002-.005.019-.006.017 0 .019-.006.001-.007.019-.007t.019-.006.019-.006.019-.007q.001-.005.019-.006.017 0 .019-.006.002-.007.018-.007.018 0 .02-.006.002-.005.018-.006c.01 0 .02-.003.02-.006q.002-.006.018-.007c.01 0 .02-.003.02-.006q.002-.006.018-.006c.01 0 .02-.003.02-.007q0-.005.012-.006.012 0 .013-.006.002-.006.018-.007c.01 0 .02-.002.02-.006q0-.005.012-.006.012 0 .013-.007.001-.005.019-.006.017 0 .018-.006t.013-.007.013-.006q0-.005.012-.006.012 0 .013-.007c0-.003.009-.006.019-.006q.017 0 .019-.006t.013-.007.012-.006.013-.006q.011 0 .012-.006.001-.007.013-.007t.013-.006q0-.006.012-.006t.013-.007c0-.003.009-.006.019-.006q.017 0 .019-.006t.013-.007.012-.006.013-.006q.011 0 .012-.007.001-.005.013-.006.012 0 .013-.006t.012-.007.013-.006q.001-.005.011-.006c.006 0 .016-.006.02-.013q.01-.011.021-.012.01 0 .011-.007.001-.005.013-.006.011 0 .012-.006t.013-.007.013-.006q0-.005.012-.006.012 0 .013-.007.001-.005.011-.006c.006 0 .016-.006.02-.013q.01-.011.02-.012.011 0 .012-.007.001-.005.011-.006.012-.001.02-.013.01-.011.021-.012.01 0 .011-.007 0-.005.012-.006.01 0 .02-.012c.005-.007.014-.013.019-.013s.014-.006.019-.013q.01-.011.02-.012.01 0 .011-.007.001-.005.012-.006t.02-.013c.005-.007.014-.012.019-.012s.014-.006.019-.013q.009-.011.018-.012.01-.002.026-.02c.01-.01.022-.018.027-.018q.008-.001.017-.013t.018-.013c.005 0 .017-.008.027-.019s.02-.019.025-.019q.008-.001.025-.019c.01-.01.021-.019.025-.019q.01-.002.026-.018c.01-.01.02-.02.025-.02.004 0 .018-.01.032-.025.013-.014.027-.025.031-.025a.1.1 0 0 0 .038-.031.2.2 0 0 1 .038-.032.3.3 0 0 0 .057-.05 4 4 0 0 0 .373-.373.3.3 0 0 0 .05-.057c0-.004.014-.021.032-.038a.1.1 0 0 0 .031-.038c0-.004.011-.018.025-.032.014-.013.026-.027.026-.031s.011-.018.025-.032c.014-.013.025-.027.025-.032 0-.004.009-.015.02-.025q.017-.017.018-.026t.013-.018.012-.018c0-.004.009-.016.02-.026.01-.01.018-.022.018-.026q.001-.009.013-.018.012-.01.013-.02 0-.009.012-.018.012-.01.013-.02 0-.009.012-.018.012-.01.013-.019.001-.01.013-.019.011-.01.012-.02 0-.011.007-.012.005-.001.006-.01.001-.012.013-.021.011-.01.012-.02.001-.009.013-.018.012-.01.013-.02t.006-.012.006-.012.007-.013.006-.011.012-.02c.007-.005.013-.015.013-.02q0-.011.006-.012.007-.001.007-.013 0-.011.006-.012.005 0 .006-.012.001-.01.013-.02t.013-.02q0-.01.006-.011.005-.001.006-.013 0-.012.007-.013.005-.002.006-.012 0-.012.006-.013t.006-.013.007-.012q.005-.001.006-.013 0-.012.006-.013.007 0 .007-.012t.006-.013.006-.012.007-.013q.005-.001.006-.013 0-.011.006-.012.007-.001.007-.013t.006-.013q.005-.001.006-.019 0-.017.007-.019.005 0 .006-.012 0-.012.006-.013.007-.001.007-.013 0-.01.006-.012.005-.001.006-.013 0-.011.007-.012.005-.002.006-.02 0-.017.006-.018t.007-.013.006-.012.006-.013q0-.012.006-.013t.007-.019q0-.017.006-.019.006 0 .006-.012t.007-.013c.003 0 .006-.009.006-.019s.003-.019.006-.019q.007-.001.007-.019t.006-.019q.005 0 .006-.012 0-.012.007-.013c.003 0 .006-.009.006-.019q0-.017.006-.019t.007-.019.006-.019q.005-.001.006-.019 0-.017.006-.019t.007-.019.006-.019q.007-.001.007-.019t.006-.019q.005-.001.006-.025c0-.014.003-.025.006-.025q.007-.002.007-.02 0-.016.006-.018t.006-.025c0-.014.003-.026.007-.026q.005-.001.006-.025 0-.023.006-.025t.007-.025c0-.014.003-.026.006-.026q.005-.002.006-.025c0-.014.003-.025.007-.025q.005-.002.006-.025c.001-.023.003-.026.006-.026.004 0 .007-.014.007-.031s.002-.032.006-.032c.003 0 .006-.014.006-.032 0-.017.003-.031.006-.031.004 0 .007-.017.007-.038s.003-.038.006-.038c.004 0 .006-.017.006-.038s.003-.038.007-.038c.003 0 .006-.019.006-.044s.003-.044.006-.044c.004 0 .007-.021.007-.05s.002-.051.006-.051.006-.03.006-.076.003-.076.007-.076.006-.111.006-.322c0-.21-.002-.322-.006-.322s-.007-.027-.007-.07c0-.042-.002-.07-.006-.07s-.006-.02-.006-.05-.003-.05-.007-.05c-.003 0-.006-.02-.006-.044 0-.026-.003-.045-.006-.045-.004 0-.006-.019-.006-.044s-.003-.044-.007-.044c-.003 0-.006-.014-.006-.032 0-.017-.003-.031-.007-.031-.003 0-.006-.014-.006-.032 0-.017-.003-.031-.006-.031-.004 0-.006-.015-.006-.032s-.003-.032-.007-.032c-.003 0-.006-.014-.006-.031s-.003-.032-.006-.032q-.007-.002-.007-.025t-.006-.025c-.003 0-.006-.012-.006-.026s-.003-.025-.007-.025q-.005-.001-.006-.019 0-.017-.006-.019-.007-.002-.007-.025c0-.014-.002-.025-.006-.025-.003 0-.006-.012-.006-.025s-.003-.026-.007-.026q-.005-.001-.006-.019c0-.01-.003-.019-.006-.019q-.006-.001-.006-.019c0-.01-.003-.019-.007-.019q-.005-.001-.006-.019 0-.016-.006-.018t-.007-.02q0-.017-.006-.018-.006-.002-.006-.02 0-.017-.007-.018-.005-.002-.006-.02 0-.017-.006-.018-.007-.002-.007-.02 0-.017-.006-.018-.005-.001-.006-.013 0-.011-.007-.012-.005-.002-.006-.02 0-.017-.006-.018-.006-.002-.007-.02 0-.017-.006-.018-.005-.001-.006-.013 0-.011-.006-.012t-.007-.013-.006-.013-.006-.019-.007-.019q-.005 0-.006-.012 0-.012-.006-.013-.007-.001-.007-.013 0-.011-.006-.012-.005-.002-.006-.02 0-.017-.007-.018-.005-.001-.006-.013 0-.011-.006-.012t-.007-.013-.006-.013q-.005 0-.006-.012 0-.012-.007-.013-.005-.002-.006-.012 0-.012-.006-.013-.007-.001-.007-.013 0-.011-.006-.012-.005-.001-.006-.013 0-.012-.006-.013-.007 0-.007-.012t-.006-.013-.007-.013q0-.011-.006-.012-.005-.001-.006-.013 0-.011-.006-.012-.007-.001-.007-.013t-.006-.013-.006-.012-.007-.013-.006-.012-.008-.016q-.009-.003 0-.007.007-.005.008-.022c0-.01.003-.019.006-.019q.007-.002.007-.012 0-.012.006-.013.005-.001.006-.013 0-.011.007-.012.005-.002.006-.02 0-.017.006-.018t.006-.013.007-.013q.005-.002.006-.018c0-.01.003-.02.006-.02q.007 0 .007-.012t.006-.013.006-.019c0-.01.003-.019.007-.019q.005-.001.006-.019c0-.01.003-.019.006-.019q.007 0 .007-.012t.006-.013c.003 0 .006-.011.006-.025s.003-.025.007-.025q.005-.002.006-.02 0-.017.006-.018.007-.002.007-.02 0-.017.006-.018.005-.002.006-.025c0-.014.003-.026.007-.026q.005-.001.006-.019c0-.01.003-.019.006-.019q.006-.001.007-.025c0-.014.002-.025.006-.025q.005-.002.006-.025c0-.014.003-.026.006-.026.004 0 .007-.014.007-.031s.003-.032.006-.032c.004 0 .006-.014.006-.031s.003-.032.007-.032c.003 0 .006-.014.006-.032 0-.017.003-.031.006-.031.004 0 .007-.02.007-.044 0-.026.002-.045.006-.045s.006-.02.006-.05.003-.05.007-.05c.003 0 .006-.028.006-.07s.002-.07.006-.07.007-.082.007-.233-.003-.234-.007-.234-.006-.027-.006-.07c0-.042-.003-.07-.006-.07-.004 0-.007-.02-.007-.05s-.002-.05-.006-.05c-.003 0-.006-.017-.006-.038s-.003-.038-.007-.038c-.003 0-.006-.017-.006-.038s-.003-.038-.006-.038c-.004 0-.007-.014-.007-.031s-.002-.032-.006-.032q-.005-.002-.006-.025 0-.023-.006-.025c-.004 0-.007-.015-.007-.032s-.003-.032-.006-.032c-.004 0-.006-.011-.006-.025q0-.023-.007-.025-.005-.002-.006-.02 0-.017-.006-.018-.007-.002-.007-.025c0-.014-.003-.026-.006-.026q-.005-.001-.006-.019c0-.01-.003-.019-.007-.019q-.005-.001-.006-.018c0-.01-.003-.02-.006-.02q-.006-.001-.007-.018c0-.01-.003-.02-.006-.02q-.005-.002-.006-.018c0-.01-.003-.02-.007-.02q-.005-.002-.006-.018c0-.01-.003-.02-.006-.02q-.007-.002-.007-.018 0-.017-.006-.019-.005-.001-.006-.013 0-.011-.006-.012-.007-.002-.007-.02 0-.017-.006-.018-.007-.001-.007-.013 0-.011-.006-.012-.005-.002-.006-.02 0-.017-.006-.018-.007-.001-.007-.013t-.006-.013q-.006 0-.006-.012T19.488 7q-.005-.001-.006-.013 0-.01-.006-.012-.007-.002-.007-.02 0-.016-.006-.018-.005-.001-.006-.013 0-.011-.007-.012-.005-.001-.006-.013 0-.012-.006-.013t-.006-.012-.007-.013q-.005-.001-.006-.013 0-.01-.006-.012-.007-.001-.007-.011 0-.012-.012-.02-.012-.01-.013-.021 0-.01-.006-.011t-.007-.013-.006-.013q-.005 0-.006-.012 0-.012-.007-.013-.005-.001-.006-.011t-.013-.02c-.007-.005-.012-.015-.012-.02q0-.011-.007-.012-.005-.001-.006-.011c0-.006-.006-.016-.012-.02q-.012-.01-.013-.021 0-.01-.007-.011-.005-.001-.006-.011 0-.012-.012-.02-.012-.01-.013-.02c0-.005-.006-.014-.013-.019q-.011-.009-.012-.019c0-.005-.006-.014-.013-.019q-.012-.01-.013-.017c0-.005-.008-.017-.018-.027q-.018-.017-.02-.026 0-.009-.012-.018t-.013-.018c0-.004-.011-.02-.025-.033s-.025-.027-.025-.031-.009-.016-.02-.025q-.017-.017-.018-.025a.2.2 0 0 0-.038-.045 6 6 0 0 0-.41-.41.2.2 0 0 0-.045-.038.1.1 0 0 1-.032-.026c-.013-.014-.027-.025-.031-.025s-.016-.009-.025-.019-.022-.019-.027-.019q-.009-.001-.018-.013-.01-.01-.017-.012c-.005 0-.017-.009-.027-.02q-.017-.016-.026-.018t-.018-.013c-.005-.007-.014-.012-.019-.012s-.014-.006-.019-.013-.014-.013-.019-.013-.014-.005-.019-.012q-.01-.012-.02-.013t-.011-.006-.012-.006-.02-.013-.02-.013-.012-.006-.01-.006q-.012-.001-.021-.013t-.02-.013-.012-.006-.012-.006q-.012 0-.013-.007-.001-.005-.011-.006-.012-.001-.02-.013-.01-.01-.021-.012-.01 0-.011-.007-.001-.005-.013-.006-.011 0-.012-.006t-.013-.006-.013-.007q0-.005-.012-.006-.012 0-.013-.006-.001-.007-.013-.007-.011 0-.012-.006t-.013-.006-.013-.007q-.002-.005-.018-.006c-.01 0-.02-.003-.02-.006q0-.006-.012-.007-.012 0-.013-.006 0-.005-.012-.006-.012 0-.013-.007-.001-.005-.013-.006-.011 0-.012-.006t-.02-.007-.018-.006q-.001-.005-.013-.006-.011 0-.012-.006t-.02-.007-.018-.006-.013-.006-.013-.007q-.001-.005-.019-.006-.017 0-.018-.006-.002-.006-.02-.007-.017 0-.018-.006-.002-.005-.02-.006-.017 0-.018-.007-.002-.005-.02-.006-.017 0-.018-.006-.002-.006-.02-.007-.017 0-.018-.006-.002-.005-.02-.006-.017 0-.018-.007-.002-.005-.025-.006c-.023-.001-.026-.003-.026-.006q-.001-.006-.019-.007-.017 0-.018-.006c0-.003-.012-.006-.026-.006q-.023 0-.025-.006t-.025-.007-.025-.006c0-.004-.015-.006-.032-.006s-.032-.003-.032-.007c0-.003-.013-.006-.029-.006q-.048.001-.047-.034 0-.016-.006-.017-.005-.001-.006-.019 0-.016-.006-.018t-.007-.02-.006-.018-.006-.02-.007-.018q-.005-.002-.006-.02 0-.016-.006-.018-.007-.002-.007-.02 0-.017-.006-.018-.005-.001-.006-.013 0-.011-.007-.012-.005-.002-.006-.02 0-.016-.006-.018t-.007-.013q0-.012-.006-.013-.005-.002-.006-.018c0-.01-.003-.02-.006-.02q-.006 0-.007-.012 0-.012-.006-.013-.007 0-.007-.012t-.006-.013q-.005-.001-.006-.019c0-.01-.003-.019-.006-.019q-.007-.001-.007-.013 0-.01-.006-.012-.006-.001-.006-.013 0-.011-.007-.012-.005-.001-.006-.013 0-.012-.006-.013t-.007-.012-.006-.013q-.005-.001-.006-.013 0-.011-.007-.012-.005-.001-.006-.013 0-.011-.006-.012-.007-.001-.007-.013t-.006-.013q-.005 0-.006-.012 0-.012-.006-.013-.007-.001-.007-.013 0-.011-.006-.012t-.006-.013-.007-.013q-.005 0-.006-.012 0-.012-.006-.013-.007-.002-.007-.012 0-.012-.006-.013-.005-.001-.006-.011-.001-.012-.013-.02-.012-.01-.013-.021 0-.01-.006-.011-.005-.001-.006-.013 0-.012-.007-.013-.005-.001-.006-.01-.002-.012-.012-.021-.012-.01-.013-.02t-.007-.012-.006-.011-.012-.02-.013-.02-.013-.018-.012-.02-.013-.018-.013-.02c0-.004-.005-.013-.012-.018s-.013-.014-.013-.019-.006-.014-.012-.019q-.012-.009-.013-.019c0-.005-.006-.014-.013-.019q-.011-.009-.012-.018c0-.004-.009-.016-.02-.026-.01-.01-.018-.021-.018-.025s-.009-.016-.02-.026q-.017-.016-.018-.025-.002-.008-.02-.025c-.01-.01-.018-.021-.018-.025s-.011-.019-.025-.032-.026-.027-.026-.031a.2.2 0 0 0-.031-.038.2.2 0 0 1-.032-.038.3.3 0 0 0-.05-.057 2.5 2.5 0 0 0-.322-.322.3.3 0 0 0-.058-.05.2.2 0 0 1-.037-.033.1.1 0 0 0-.038-.031.1.1 0 0 1-.032-.025c-.013-.014-.027-.026-.031-.026q-.01-.001-.026-.019c-.01-.01-.02-.019-.025-.019-.004 0-.015-.008-.025-.018s-.021-.02-.025-.02q-.01-.002-.026-.018c-.01-.01-.021-.02-.026-.02q-.009 0-.018-.012t-.019-.013-.019-.012-.019-.013-.019-.012-.019-.013-.019-.013-.019-.012c-.005 0-.014-.006-.018-.013q-.01-.012-.02-.013-.009 0-.018-.012c-.005-.007-.015-.013-.02-.013q-.011 0-.012-.006t-.011-.007-.02-.012-.021-.013q-.01 0-.011-.006t-.013-.006-.013-.007q-.001-.005-.01-.006-.012-.001-.021-.013-.01-.011-.02-.012-.011 0-.012-.007 0-.005-.012-.006-.012 0-.013-.006t-.012-.007-.013-.006-.013-.006q-.011 0-.012-.007-.001-.005-.013-.006-.012 0-.013-.006 0-.007-.012-.007t-.013-.006-.013-.006q-.011 0-.012-.006t-.013-.007q-.012 0-.013-.006t-.012-.006-.013-.007q0-.005-.012-.006-.012 0-.013-.006t-.013-.007-.012-.006-.013-.006-.013-.007q-.002-.005-.018-.006-.018 0-.02-.006 0-.006-.012-.007-.012 0-.013-.006-.001-.005-.012-.006-.012 0-.013-.007c0-.003-.009-.006-.019-.006q-.017 0-.019-.006-.001-.007-.013-.007-.011 0-.012-.006-.001-.005-.013-.006-.011 0-.012-.006t-.02-.007-.018-.006-.02-.006-.018-.007q-.001-.005-.013-.006-.012 0-.013-.006t-.019-.007q-.017 0-.019-.006-.002-.005-.018-.006c-.01 0-.02-.003-.02-.007q-.001-.005-.018-.006c-.01 0-.02-.003-.02-.006q-.002-.007-.018-.007c-.01 0-.02-.002-.02-.006q-.001-.005-.018-.006c-.01 0-.02-.003-.02-.007q-.002-.005-.024-.006c-.014 0-.026-.003-.026-.006q-.001-.006-.019-.006t-.019-.007q-.001-.005-.025-.006c-.014 0-.025-.003-.025-.006 0-.004-.009-.007-.019-.007q-.017 0-.019-.006t-.025-.006c-.023 0-.026-.003-.026-.007 0-.003-.014-.006-.031-.006s-.032-.003-.032-.006q-.002-.006-.025-.007-.023 0-.025-.006c0-.003-.014-.006-.032-.006-.017 0-.031-.003-.031-.007 0-.003-.015-.006-.032-.006s-.032-.003-.032-.006c0-.004-.016-.007-.037-.007s-.038-.002-.038-.006c0-.003-.02-.006-.045-.006s-.044-.003-.044-.007c0-.003-.02-.006-.05-.006s-.05-.002-.05-.006-.028-.006-.07-.006-.07-.003-.07-.007-.11-.006-.316-.006-.316.002-.316.006-.025.007-.063.007-.063.002-.063.006-.02.006-.05.006-.051.003-.051.006c0 .004-.019.007-.044.007s-.044.002-.044.006-.017.006-.038.006-.038.003-.038.007c0 .003-.014.006-.032.006-.017 0-.031.003-.031.006 0 .004-.015.007-.032.007s-.032.003-.032.006-.014.006-.031.006-.032.003-.032.007c0 .003-.011.006-.025.006q-.023 0-.025.006c0 .004-.012.007-.025.007s-.026.002-.026.006q-.002.005-.025.006-.023 0-.025.007-.002.005-.02.006-.016 0-.018.006c0 .004-.012.006-.025.006s-.026.003-.026.007q-.001.005-.019.006-.017 0-.019.006t-.025.007c-.023.001-.025.003-.025.006q-.002.006-.02.006-.017 0-.018.007-.001.005-.018.006t-.022.008q-.003.007-.022-.013c-.01-.011-.023-.02-.028-.02q-.009-.001-.018-.013t-.018-.013-.02-.012c-.004-.007-.013-.013-.018-.013q-.01 0-.02-.012c-.004-.007-.013-.013-.018-.013q-.01-.001-.02-.013c-.004-.007-.013-.012-.018-.012q-.01-.001-.02-.013c-.004-.007-.013-.013-.018-.013s-.014-.005-.019-.012q-.01-.012-.02-.013t-.012-.006-.01-.006q-.012-.001-.021-.013t-.02-.013-.012-.006-.011-.006-.02-.013-.02-.013q-.011 0-.012-.006-.001-.005-.013-.006-.011 0-.012-.007-.001-.005-.011-.006-.012-.001-.02-.013-.01-.01-.021-.012-.01 0-.011-.007-.001-.005-.013-.006-.012 0-.013-.006t-.012-.006-.013-.007q-.001-.005-.013-.006-.01 0-.012-.006-.001-.006-.011-.007-.012 0-.02-.012-.01-.012-.021-.013-.01 0-.011-.006-.001-.007-.013-.007t-.013-.006-.012-.006-.013-.007q-.002-.005-.012-.006-.012 0-.013-.006-.002-.006-.02-.007-.016 0-.018-.006-.001-.005-.013-.006-.011 0-.012-.006t-.013-.007-.013-.006q0-.006-.012-.006t-.013-.007q-.001-.005-.013-.006-.011 0-.012-.006-.001-.007-.013-.007-.011 0-.012-.006-.002-.005-.02-.006-.017 0-.018-.007-.001-.005-.013-.006-.012 0-.013-.006t-.012-.007-.013-.006-.019-.006c-.01 0-.019-.003-.019-.007q0-.005-.012-.006-.012 0-.013-.006t-.019-.007c-.01 0-.019-.002-.019-.006q-.001-.005-.013-.006-.011 0-.012-.006-.002-.007-.02-.007-.017 0-.018-.006-.002-.006-.019-.006c-.01 0-.019-.003-.019-.007q-.001-.005-.013-.006-.011 0-.012-.006t-.02-.007q-.016 0-.018-.006-.002-.005-.02-.006-.017 0-.018-.007-.002-.005-.019-.006-.017 0-.019-.006t-.019-.007-.019-.006q-.001-.005-.019-.006c-.01 0-.019-.003-.019-.007q-.002-.005-.025-.006c-.014 0-.025-.003-.025-.006q-.002-.006-.02-.006-.017 0-.018-.007c0-.003-.012-.006-.026-.006s-.025-.003-.025-.006q-.001-.007-.019-.007c-.01 0-.019-.003-.019-.006q-.002-.006-.025-.006t-.025-.007c0-.003-.012-.006-.026-.006s-.025-.003-.025-.006q-.002-.006-.025-.007c-.014 0-.025-.002-.025-.006 0-.003-.014-.006-.032-.006-.017 0-.031-.003-.031-.007 0-.003-.012-.006-.026-.006s-.025-.003-.025-.006c0-.004-.014-.007-.032-.007-.017 0-.031-.002-.031-.006 0-.003-.017-.006-.038-.006s-.038-.003-.038-.007c0-.003-.014-.006-.032-.006-.017 0-.031-.003-.031-.006 0-.004-.02-.006-.044-.006-.026 0-.045-.003-.045-.007 0-.003-.019-.006-.044-.006s-.044-.003-.044-.006c0-.004-.023-.007-.057-.007s-.057-.002-.057-.006-.03-.006-.076-.006-.075-.003-.075-.007-.118-.006-.341-.006-.342.002-.342.006" clip-rule="evenodd"/>
  <path fill="#103849" fill-rule="evenodd" d="M8.85 2.27a4.1 4.1 0 0 0-3.02 1.68 4.5 4.5 0 0 0-.504.923c0 .001-.088.02-.195.042-1.063.218-1.962.883-2.402 1.776a2.8 2.8 0 0 0-.296 1.24l-.003.231-.125.078a3.382 3.382 0 0 0-.854 5.022 3.4 3.4 0 0 0 1.78 1.141c.319.08.547.106.908.1l.267-.005.072.142c.148.293.38.605.622.838.26.252.496.417.82.575a2.95 2.95 0 0 0 1.452.318 3 3 0 0 0 1.042-.205c.106-.042.12-.045.13-.026.033.06.235.298.369.435.673.691 1.586 1.096 2.591 1.15a4.03 4.03 0 0 0 2.362-.615c.29-.185.63-.482.85-.742.157-.187.346-.477.462-.711l.102-.207.045.007c.208.032.625.018.925-.03a3.66 3.66 0 0 0 2.948-2.684 3.63 3.63 0 0 0-.453-2.88l-.069-.106.045-.074a2.7 2.7 0 0 0 .286-.7c.056-.231.074-.38.074-.631 0-.32-.04-.565-.14-.86a2.63 2.63 0 0 0-1.634-1.622 2.7 2.7 0 0 0-.707-.14l-.07-.007-.017-.091a3.5 3.5 0 0 0-.482-1.178 3.55 3.55 0 0 0-1.047-1.011 3.5 3.5 0 0 0-1.32-.463 5 5 0 0 0-.857.006 3.7 3.7 0 0 0-.865.242c-.102.045-.105.046-.134.024l-.148-.117a4.2 4.2 0 0 0-1.342-.696 5 5 0 0 0-.678-.145 7 7 0 0 0-.79-.024m.827.774q.95.165 1.667.785l.093.08-.055.045a5 5 0 0 0-.446.45c-.2.246-.348.5-.348.595 0 .176.21.277.344.165a1 1 0 0 0 .108-.158c.167-.294.428-.588.684-.773a2 2 0 0 0 .183-.143c.068-.065.331-.193.527-.258a2.582 2.582 0 0 1 3.397 2.27v.048l-.117.041a2.4 2.4 0 0 0-.69.387c-.09.078-.114.174-.065.27.04.078.092.108.191.108.081 0 .086-.002.161-.061.192-.15.423-.27.646-.331.066-.018.149-.046.183-.06.058-.026.085-.028.316-.028.193 0 .28.005.364.022a1.91 1.91 0 0 1 1.49 1.473c.04.179.04.57 0 .756-.05.232-.143.455-.27.651l-.056.086-.088-.08c-.22-.2-.377-.323-.432-.338-.18-.05-.343.177-.23.322.015.018.093.088.174.156.127.106.319.282.518.473.03.03.105.128.165.218.227.343.372.704.445 1.112.04.217.048.65.017.875-.043.325-.13.607-.277.907a2.91 2.91 0 0 1-2.123 1.587 2.2 2.2 0 0 1-.467.03c-.28 0-.541-.02-.555-.043a.3.3 0 0 1 .006-.077 3.1 3.1 0 0 0-.082-1.246c-.035-.12-.035-.124.047-.372a3.5 3.5 0 0 0 .16-.887v-.073l.092.01c.05.005.24.01.42.009a2.7 2.7 0 0 0 .748-.075c.1-.03.155-.105.155-.21 0-.06-.014-.091-.067-.148-.057-.06-.115-.072-.234-.047a3.7 3.7 0 0 1-.984.043c-.16-.016-.146-.006-.161-.131a3.5 3.5 0 0 0-.309-.998 3.16 3.16 0 0 0-1.096-1.257A3 3 0 0 0 13 8.837l-.122-.034-.008-.115a3.2 3.2 0 0 0-.189-.886l-.056-.148.036-.128c.116-.411.338-.826.621-1.162.141-.167.152-.187.152-.261a.21.21 0 0 0-.272-.202c-.06.017-.113.069-.265.259a4 4 0 0 0-.528.9.3.3 0 0 1-.037.078 1 1 0 0 1-.082-.102 3.5 3.5 0 0 0-.483-.5 3.25 3.25 0 0 0-2.14-.734l-.2.004-.04-.088a2.2 2.2 0 0 1-.176-.662c-.016-.151-.046-.207-.134-.253a.24.24 0 0 0-.195.015c-.075.05-.1.102-.1.204 0 .178.071.504.16.732a.6.6 0 0 1 .038.118 1 1 0 0 1-.124.036 3.5 3.5 0 0 0-.463.16l-.117.05-.083-.074a3.26 3.26 0 0 0-1.45-.756 4 4 0 0 0-.606-.09c-.161-.01-.156.01-.053-.22.197-.44.53-.878.917-1.203.417-.35.977-.615 1.516-.715.24-.045.32-.05.67-.047.273.003.363.009.491.031m-3.284 2.56c.18.027.447.095.6.151.286.105.605.285.825.465l.091.074-.098.07c-.237.17-.49.405-.644.6-.085.108-.102.164-.08.248a.24.24 0 0 0 .158.149c.092.017.133-.001.222-.1.29-.32.512-.51.768-.661.068-.04.137-.085.154-.1.073-.067.411-.195.66-.25 1.218-.274 2.477.253 3.09 1.292a2.6 2.6 0 0 1 .35 1.133c.005.025 0 .025-.281.025-.213 0-.327.006-.439.023a3.6 3.6 0 0 0-.608.153c-.285.105-.63.3-.87.492-.149.12-.344.32-.36.369-.05.146.083.3.238.276.047-.007.072-.024.177-.123.448-.422.932-.664 1.492-.744.17-.024.567-.02.724.006a.7.7 0 0 0 .154.014c.037-.01.24.045.392.105a2.73 2.73 0 0 1 1.472 1.374c.144.293.22.529.274.86a4 4 0 0 1-.006.94c-.045.26-.034.252-.134.096a3 3 0 0 0-.411-.517c-.157-.162-.399-.368-.465-.395-.17-.072-.348.107-.276.278.011.027.07.086.167.166.396.329.668.691.845 1.126.03.072.06.138.066.147.04.05.09.234.124.458a3.2 3.2 0 0 1 0 .745c-.134.86-.667 1.602-1.471 2.045-1.246.688-2.856.47-3.839-.521a2.8 2.8 0 0 1-.495-.671c-.071-.137-.117-.187-.185-.202-.06-.014-.112.003-.22.074a2.6 2.6 0 0 1-.79.317 2.4 2.4 0 0 1-1.977-.489 3.4 3.4 0 0 1-.432-.446c-.18-.241-.377-.639-.377-.761a.6.6 0 0 0-.019-.11 2.8 2.8 0 0 1-.064-.982 2.5 2.5 0 0 1 1.274-1.886.6.6 0 0 0 .129-.09c.082-.098.041-.273-.077-.322-.106-.045-.191-.015-.453.155a2.5 2.5 0 0 0-.417.334l-.114.11-.171-.085a2.62 2.62 0 0 0-2.027-.131c-.16.052-.222.1-.246.19a.212.212 0 0 0 .176.261c.034.007.085-.005.216-.049a2.22 2.22 0 0 1 1.418-.002c.138.046.35.142.35.158 0 .005-.038.072-.083.148a3 3 0 0 0-.385 1.043c-.05.286-.048.726.006 1.011l.016.085-.033.007c-.072.015-.28.032-.401.032a2.66 2.66 0 0 1-2.616-2.23 3.8 3.8 0 0 1 0-.834c.13-.75.537-1.378 1.155-1.784.155-.102.373-.218.41-.218.012 0 .104-.026.203-.058.19-.061.34-.096.514-.12.121-.016.161-.032.207-.088a.22.22 0 0 0 .011-.252c-.046-.063-.1-.089-.185-.089-.094 0-.269.029-.452.075l-.135.034-.008-.07a3 3 0 0 1 .032-.598c.148-.7.648-1.31 1.36-1.66.29-.141.7-.259 1.028-.294.159-.017.639-.007.796.018m-.538 2.848a.21.21 0 0 0-.104.24c.038.15.458.438.804.55.22.07.342.089.596.088.302 0 .54-.046.626-.12a.21.21 0 0 0 .025-.284c-.066-.086-.14-.097-.341-.05a1.7 1.7 0 0 1-.54.014 1.55 1.55 0 0 1-.788-.378.5.5 0 0 0-.1-.071.24.24 0 0 0-.178.01m9.842.014a1.6 1.6 0 0 0-.594.182c-.213.113-.283.187-.283.297 0 .1.082.195.18.21.063.009.105-.005.196-.065a1.16 1.16 0 0 1 .783-.193c.166.016.21.006.268-.06.1-.114.063-.283-.075-.338a2 2 0 0 0-.354-.044zM8.932 9.501c-.06.018-.1.053-.181.163a2.5 2.5 0 0 0-.476 1.234c-.027.247.003.62.069.863.014.05.014.068.003.072l-.128.044a3 3 0 0 0-.847.482c-.198.167-.478.48-.549.616-.036.068-.012.19.046.244.032.029.11.06.149.06.082 0 .13-.036.24-.181a2.37 2.37 0 0 1 1.262-.866l.052.093c.207.384.56.738.957.964a2.5 2.5 0 0 0 1.663.27l.117-.023.02.045c.108.261.18.588.18.83.001.172.04.25.147.29.1.038.211-.003.259-.096.07-.138-.007-.698-.148-1.072l-.05-.132.127-.064c.26-.133.458-.281.677-.509.157-.163.196-.229.185-.31a.21.21 0 0 0-.21-.186c-.084 0-.127.027-.226.142-.28.326-.702.572-1.127.659a2.046 2.046 0 0 1-2.42-1.641 2.7 2.7 0 0 1-.002-.708c.06-.326.185-.611.385-.882.09-.121.108-.18.08-.266a.24.24 0 0 0-.149-.134c-.054-.015-.06-.015-.105 0" clip-rule="evenodd"/>
  <path fill="#ff5caa" fill-rule="evenodd" d="M6.393 5.604c.18.027.447.095.6.151.285.105.604.285.824.465l.092.074-.098.07c-.237.17-.49.405-.644.6-.085.108-.103.164-.08.248a.24.24 0 0 0 .158.149c.092.017.133-.001.222-.1.29-.32.511-.51.768-.66.067-.04.137-.086.154-.102.073-.066.41-.194.66-.25 1.218-.273 2.477.254 3.09 1.293a2.6 2.6 0 0 1 .35 1.133c.005.025 0 .025-.282.025-.213 0-.326.006-.439.023a3.6 3.6 0 0 0-.608.153c-.284.105-.63.3-.87.492-.148.12-.344.32-.36.369-.049.147.083.3.238.277.048-.008.073-.025.177-.124.448-.422.933-.664 1.493-.744.169-.024.566-.02.724.006a.7.7 0 0 0 .153.014c.037-.01.24.045.393.105a2.73 2.73 0 0 1 1.472 1.374c.144.293.219.529.274.86a4 4 0 0 1-.006.94c-.046.26-.034.252-.134.096a3 3 0 0 0-.412-.517c-.157-.162-.398-.368-.464-.395-.17-.072-.348.107-.277.278q.02.044.168.167c.395.328.668.69.845 1.125.03.072.059.138.066.147.04.05.09.234.124.458a3.2 3.2 0 0 1 0 .745c-.134.86-.668 1.602-1.472 2.045-1.246.688-2.856.47-3.838-.521a2.8 2.8 0 0 1-.496-.671c-.07-.137-.116-.187-.185-.202-.06-.014-.112.003-.22.075a2.6 2.6 0 0 1-.79.316 2.4 2.4 0 0 1-1.977-.489 3.4 3.4 0 0 1-.431-.446c-.18-.241-.377-.639-.378-.761a.6.6 0 0 0-.019-.11 2.8 2.8 0 0 1-.064-.982 2.5 2.5 0 0 1 1.274-1.885.6.6 0 0 0 .13-.091c.082-.098.04-.273-.077-.322-.106-.044-.192-.015-.454.156a2.5 2.5 0 0 0-.417.333l-.113.11-.172-.085a2.62 2.62 0 0 0-2.027-.131c-.16.052-.221.1-.245.19a.213.213 0 0 0 .176.262c.033.006.085-.006.216-.05a2.22 2.22 0 0 1 1.418-.002c.137.046.35.142.35.158 0 .005-.038.072-.084.148a3 3 0 0 0-.384 1.043c-.05.286-.048.727.005 1.011l.016.085-.033.007a3 3 0 0 1-.4.032 2.66 2.66 0 0 1-2.616-2.23 3.8 3.8 0 0 1 0-.834c.13-.75.536-1.378 1.155-1.784.154-.102.373-.218.41-.218.012 0 .103-.026.202-.058a3 3 0 0 1 .515-.12c.121-.016.16-.032.207-.087a.22.22 0 0 0 .01-.253c-.046-.063-.1-.089-.185-.089-.094 0-.268.03-.451.075l-.135.034-.009-.07a3 3 0 0 1 .033-.598c.148-.7.648-1.31 1.36-1.659.29-.142.7-.26 1.028-.295.158-.017.639-.007.796.018M5.75 8.692a.21.21 0 0 1 .104-.24.24.24 0 0 1 .178-.011.4.4 0 0 1 .1.071c.22.2.492.33.788.378.146.024.402.017.54-.014.2-.047.275-.036.34.05a.21.21 0 0 1-.025.283c-.085.075-.323.121-.625.121-.254 0-.377-.018-.597-.089-.345-.111-.765-.399-.803-.549m3 .972c.081-.11.12-.145.18-.163.045-.014.052-.013.106.001a.24.24 0 0 1 .149.135c.028.085.01.144-.08.265-.2.27-.325.556-.386.882-.03.165-.03.539.002.708a2.045 2.045 0 0 0 2.42 1.641 2.08 2.08 0 0 0 1.127-.658c.1-.116.142-.143.227-.143.107 0 .195.079.21.186.01.082-.028.147-.185.31a2.4 2.4 0 0 1-.677.509l-.127.064.05.132c.14.374.218.934.147 1.072a.207.207 0 0 1-.259.096c-.106-.04-.145-.117-.146-.29 0-.242-.072-.569-.181-.83l-.02-.045-.117.023a2.5 2.5 0 0 1-1.662-.27 2.55 2.55 0 0 1-1.01-1.057 2.37 2.37 0 0 0-1.263.866c-.108.145-.157.181-.239.181a.3.3 0 0 1-.148-.06c-.059-.053-.082-.176-.046-.244.07-.136.35-.45.549-.615a2.9 2.9 0 0 1 .975-.527c.011-.004.01-.022-.004-.072a2.7 2.7 0 0 1-.069-.863q.076-.695.476-1.234" clip-rule="evenodd"/>
  <path fill="#ff5caa" fill-rule="evenodd" d="M9.677 3.044q.95.165 1.666.785l.093.08-.055.045a5 5 0 0 0-.446.45c-.199.246-.348.5-.348.595 0 .176.21.277.345.165a1 1 0 0 0 .107-.158c.168-.294.428-.588.684-.773.073-.052.155-.116.183-.143.069-.065.332-.193.527-.258a2.582 2.582 0 0 1 3.397 2.27v.048l-.116.041a2.4 2.4 0 0 0-.69.387c-.091.078-.114.174-.066.27.04.078.093.108.192.108.08 0 .086-.002.16-.061.193-.15.424-.27.647-.331.066-.018.148-.046.183-.06.058-.026.085-.028.316-.028.192 0 .279.005.363.022a1.91 1.91 0 0 1 1.491 1.473c.04.179.04.57 0 .756a2 2 0 0 1-.271.652l-.055.085-.088-.08c-.22-.2-.377-.323-.432-.338-.181-.05-.344.177-.23.322.014.018.092.088.173.156.127.106.32.282.519.473.03.03.104.128.165.218.227.343.371.704.445 1.112.039.217.047.65.017.875a2.8 2.8 0 0 1-.278.907 2.91 2.91 0 0 1-2.122 1.587c-.14.025-.209.029-.468.03-.28 0-.541-.02-.555-.043a.3.3 0 0 1 .007-.077 3.1 3.1 0 0 0-.082-1.246c-.036-.12-.035-.124.047-.372a3.5 3.5 0 0 0 .16-.887v-.073l.091.01c.05.005.24.01.42.009a2.7 2.7 0 0 0 .749-.075c.1-.03.155-.105.155-.21 0-.06-.014-.091-.067-.147-.058-.06-.116-.072-.234-.048a3.7 3.7 0 0 1-.984.043c-.16-.016-.146-.005-.162-.131a3.5 3.5 0 0 0-.308-.998 3.16 3.16 0 0 0-1.096-1.257 3 3 0 0 0-.827-.387l-.122-.034-.008-.115a3.2 3.2 0 0 0-.19-.886l-.056-.148.037-.128c.115-.411.337-.826.62-1.162.142-.167.153-.187.153-.26a.21.21 0 0 0-.273-.203c-.06.017-.112.069-.265.259a4 4 0 0 0-.527.9.3.3 0 0 1-.037.079 1 1 0 0 1-.082-.103 3.5 3.5 0 0 0-.483-.5 3.25 3.25 0 0 0-2.14-.734l-.2.004-.04-.088a2.2 2.2 0 0 1-.176-.661c-.017-.152-.047-.208-.135-.254a.24.24 0 0 0-.194.015c-.075.05-.1.102-.1.204 0 .178.07.504.159.732a.6.6 0 0 1 .038.118 1 1 0 0 1-.123.036 3.5 3.5 0 0 0-.463.16l-.117.05-.084-.074a3.26 3.26 0 0 0-1.45-.756 4 4 0 0 0-.605-.09c-.162-.01-.157.01-.054-.22.197-.44.531-.878.917-1.203a3.4 3.4 0 0 1 1.516-.715c.24-.045.32-.05.67-.047.274.003.363.009.492.031m5.426 5.604a1.6 1.6 0 0 1 .594-.182l.12-.011c.058-.005.311.026.355.044.138.055.175.224.074.339-.057.065-.101.075-.268.059a1.16 1.16 0 0 0-.783.193c-.09.06-.132.074-.196.064a.22.22 0 0 1-.18-.209c0-.11.07-.184.284-.297" clip-rule="evenodd"/>
</svg>
