<svg xmlns="http://www.w3.org/2000/svg" fill="none" viewBox="0 0 20 20">
  <circle cx="10" cy="10" r="10" fill="#141414"/>
  <path fill="#fff" fill-rule="evenodd" d="M4.45 8.338h-2.3v-.075h2.3zm1.575 0H4.85v-.075h1.175zm2.325 0H6.8v-.075h1.55zm3.9 0h-3.1v-.075h3.1zm1.95 0h-1.55v-.075h1.55zm2.325 0h-1.55v-.075h1.55zm.8 0h-.4v-.075h.4zm1.925 0h-.75v-.075h.75zm-17.484.706.25-.535.068.032-.25.535zm2.3 0 .25-.535.068.032-.25.535zm.4 0 .25-.535.068.032-.25.535zm4.2.032-.25-.535.068-.032.25.535zm.1-.032.25-.535.068.032-.25.535zm2.35 0 .25-.535.068.032-.25.535zm.8 0 .25-.535.068.032-.25.535zm.35 0 .25-.535.068.032-.25.535zm.8 0 .25-.535.068.032-.25.535zm1.55 0 .25-.535.068.032-.25.535zm1.15 0 .25-.535.068.032-.25.535zm1.6 0 .25-.535.068.032-.25.535zm.75 0 .25-.535.068.032-.25.535zM6.187 8.525h.075v3.05h-.075zm.4.6v-.6h.075v.6zm7.8 0v-.6h.075v.6zm2.7 0v-.6h.075v.6zM4.05 9.163H2.525v-.075H4.05zm3.9 0h-.375v-.075h.375zm1.6 0h-.4v-.075h.4zm1.525 0h-.725v-.075h.725zm1.95 0h-.375v-.075h.375zm-7.638.787V9.3h.075v.65zm1.2 0V9.3h.075v.65zm.75 0V9.3h.075v.65zm1.55 0V9.3h.075v.65zm.4 0V9.3h.075v.65zm.8 0V9.3h.075v.65zm4.375 0h-.075V9.3h.075zm2.7 0h-.075V9.3h.075zM8.158 9.6a.54.54 0 0 0-.089-.228l.061-.044c.04.058.089.155.103.263a.39.39 0 0 1-.106.335l-.054-.052a.32.32 0 0 0 .085-.273m-6.773.26.234-.5.068.03-.234.5zm.75 0 .234-.5.068.03-.234.5zm1.95 0 .234-.5.068.03-.234.5zm.8 0 .234-.5.068.03-.234.5zm5.85 0 .234-.5.068.03-.234.5zm2.3 0 .234-.5.068.03-.234.5zm.8 0 .234-.5.068.03-.234.5zm1.2 0 .234-.5.068.03-.234.5zm.75 0 .234-.5.068.03-.234.5zm.8 0 .234-.5.068.03-.234.5zm1.15 0 .234-.5.068.03-.234.5zm.8 0 .234-.5.068.03-.234.5zm-6.408-.415.045.06-.163.122.165.145-.049.056-.235-.205zm-.475.369c.004-.01.001-.028-.01-.045l.065-.038c.015.024.032.069.014.111-.019.048-.071.07-.146.07v-.074c.065 0 .075-.02.077-.024m-8.777.174h-.35v-.075h.35zm5.075 0h-.375v-.075h.375zm7.025 0H14.6v-.075h.375zm2.775 0h-.425v-.075h.425zm-15.239.671.255-.545.068.032-.255.545zm8.6 0 .255-.545.068.032-.255.545zm-10.1 0 .255-.545.068.032-.255.545zm2.7 0 .255-.545.068.032-.255.545zm6.65 0 .255-.545.068.032-.255.545zm2.3 0 .255-.545.068.032-.255.545zm.8 0 .255-.545.068.032-.255.545zm1.2 0 .255-.545.068.032-.255.545zm.75 0 .255-.545.068.032-.255.545zm.8 0 .255-.545.068.032-.255.545zm1.15 0 .255-.545.068.032-.255.545zm.8 0 .255-.545.068.032-.255.545zm-6.524.166v-.695h.075v.695zm.8 0v-.695h.075v.695zm-5.85 0v-.695h.075v.695zm2.7 0v-.695h.075v.695zm.8 0v-.695h.075v.695zm-1.462-.553.05.056-.168.147.167.147-.049.056-.232-.203zm-6.1.515h-.8v-.075h.8zm3.1 0H4.45v-.075h1.175zm2.325 0h-.375v-.075h.375zm.937.788v-.625h.075v.625zm1.813-.035.248-.53.068.03-.257.55-.06-.027v.05h-.35v-.075h.35zm-10.11.02.258-.55.068.03-.257.55zm.75 0 .258-.55.068.03-.257.55zm1.95 0 .258-.55.068.03-.257.55zm.76-.02.248-.53.068.03-.257.55-.06-.027v.05h-.374v-.075h.375zm3.848.05-.257-.55.068-.03.247.527h.394v.075h-.4v-.045zm.75 0-.257-.55.068-.03.257.55zm.902-.05.248-.53.068.03-.257.55-.06-.027v.05h-.4v-.075h.4zm.39.02.258-.55.068.03-.257.55zm2.31-.02.248-.53.068.03-.257.55-.06-.027v.05h-.374v-.075h.375zm.79.02.258-.55.068.03-.257.55zm1.2 0 .258-.55.068.03-.257.55zm.75 0 .258-.55.068.03-.257.55zm.8 0 .258-.55.068.03-.257.55zm1.15 0 .258-.55.068.03-.257.55zm.81-.02.248-.53.068.03-.257.55-.06-.027v.05h-.424v-.075h.425zm-6.113.035v-.55h.075v.55zm-6.25 0v-.55h.075v.55zm1.55 0v-.55h.075v.55zM.95 11.538h.35v.075H.95zm4.675 0h.4v.075h-.4zm.775 0h.4v.075h-.4zm6.25 0h.375v.075h-.375zm1.95 0h.375v.075H14.6zm.8 0h.375v.075H15.4z" clip-rule="evenodd"/>
</svg>
