<svg xmlns="http://www.w3.org/2000/svg" fill="none" viewBox="0 0 144 143">
  <path fill="#04795b" d="M42.755 81.252c4.248 0 8.169-1.411 11.327-3.855L28.16 51.556c-2.45 3.095-3.867 7.003-3.867 11.292C24.24 73 32.517 81.252 42.755 81.252m77.114-18.458a18.28 18.28 0 0 0-3.867-11.292L90.08 77.342c3.104 2.444 7.025 3.855 11.327 3.855 10.184.055 18.462-8.197 18.462-18.403"/>
  <path fill="#04795b" d="m132.939 34.727-11.491 11.455c3.812 4.56 6.1 10.314 6.1 16.72 0 14.387-11.709 26.059-26.141 26.059-6.371 0-12.199-2.28-16.773-6.08l-12.58 12.54-12.58-12.54c-4.575 3.8-10.348 6.08-16.774 6.08-14.432 0-26.14-11.672-26.14-26.058 0-6.352 2.287-12.161 6.1-16.721l-5.882-5.863-5.61-5.592C4.633 45.476.875 58.017.875 71.48c0 39.196 31.859 70.901 71.124 70.901s71.124-31.759 71.124-70.9c.109-13.518-3.649-26.06-10.184-36.754"/>
  <path fill="#04795b" d="M123.518 22.512C110.611 8.994 92.313.525 72.054.525c-20.26 0-38.503 8.469-51.464 21.987a86 86 0 0 0-5.01 5.809L72 84.563l56.419-56.297a48 48 0 0 0-4.901-5.754M72.054 9.754c16.664 0 32.131 6.406 43.73 18.078l-43.73 43.594-43.731-43.594C39.977 16.16 55.389 9.754 72.053 9.754"/>
</svg>
