<svg xmlns="http://www.w3.org/2000/svg" fill="none" viewBox="0 0 20 20">
  <g fill="#00193c">
    <path d="M5.879 11.388c.575 0 1.135-.192 1.589-.542L3.823 7.2a2.603 2.603 0 0 0 .467 3.65 2.64 2.64 0 0 0 1.589.537M16.72 8.785c0-.575-.192-1.135-.542-1.589l-3.645 3.645a2.598 2.598 0 0 0 4.187-2.056"/>
    <path d="M18.556 4.818 16.944 6.43a3.674 3.674 0 0 1-.463 5.173 3.67 3.67 0 0 1-4.71 0L10 13.373l-1.766-1.765a3.674 3.674 0 0 1-5.173-.463 3.67 3.67 0 0 1 0-4.71l-.827-.828-.785-.79A10 10 0 0 0 0 10c0 5.523 4.477 10 10 10s10-4.477 10-10a10 10 0 0 0-1.444-5.182"/>
    <path d="M17.234 3.098C13.425-.897 7.098-1.047 3.103 2.762q-.176.168-.337.336-.37.392-.7.818L10 11.856l7.935-7.94a10 10 0 0 0-.701-.818M10 1.308c2.336 0 4.514.902 6.15 2.547L10 10.005l-6.15-6.15A8.6 8.6 0 0 1 10 1.308"/>
  </g>
</svg>
