<svg xmlns="http://www.w3.org/2000/svg" fill="none" viewBox="0 0 20 20">
  <circle cx="10" cy="10" r="10" fill="#fff"/>
  <path fill="#181ea9" fill-rule="evenodd" d="M9.588 1.005A8.97 8.97 0 0 0 4.524 2.86a9.2 9.2 0 0 0-1.437 1.381 8.99 8.99 0 0 0 .04 11.563c.31.366.703.758 1.068 1.068a9.1 9.1 0 0 0 2.476 1.49 8.99 8.99 0 0 0 9.895-2.21 8.97 8.97 0 0 0 2.37-5.047 8.98 8.98 0 0 0-1.064-5.473 9.03 9.03 0 0 0-7.299-4.618 15 15 0 0 0-.985-.01m1.071.525a8.6 8.6 0 0 1 1.803.34 8.6 8.6 0 0 1 2.81 1.473c.5.396.99.886 1.385 1.385a8.47 8.47 0 0 1 1.825 4.797c.012.198.012.748 0 .945a8.45 8.45 0 0 1-1.875 4.86c-.363.45-.823.91-1.273 1.273a8.3 8.3 0 0 1-1.619 1.03 8.5 8.5 0 0 1-3.236.845c-.19.011-.751.011-.95 0a8.4 8.4 0 0 1-3.88-1.191 9 9 0 0 1-1.319-.973 8.46 8.46 0 0 1-2.802-5.726 15 15 0 0 1 0-1.18A8.5 8.5 0 0 1 3.012 5.18a8.5 8.5 0 0 1 6.58-3.667c.148-.008.91.003 1.067.016m.663 5.064-.395.395-.086-.055a1.636 1.636 0 0 0-2.2.445c-.12.168-.225.406-.27.616A1.645 1.645 0 0 0 9.68 9.939l.026.005v.592l-.07.016a1.64 1.64 0 0 0-1.258 1.25 1.639 1.639 0 1 0 3.051-.407 1.65 1.65 0 0 0-1.15-.852l-.024-.005v-.594l.02-.004A1.64 1.64 0 0 0 11.6 8.555a2 2 0 0 0 0-.456 1.7 1.7 0 0 0-.252-.67l-.035-.052.396-.396.395-.395-.194-.193-.193-.194zm-1.167.654c.629.102 1.04.73.881 1.35a1.1 1.1 0 0 1-.847.802 1.3 1.3 0 0 1-.42 0 1.2 1.2 0 0 1-.276-.093 1.15 1.15 0 0 1-.503-.51 1.1 1.1 0 0 1 .004-.946c.161-.332.466-.553.846-.61a1.6 1.6 0 0 1 .315.007M10.1 11.07c.472.054.848.401.95.878.022.1.022.307.001.412a1.1 1.1 0 0 1-.322.587 1.091 1.091 0 0 1-1.664-1.396c.058-.088.216-.247.301-.302.228-.148.476-.208.734-.179" clip-rule="evenodd"/>
</svg>
