<svg xmlns="http://www.w3.org/2000/svg" fill="none" viewBox="0 0 20 20">
  <path fill="#662bc9" d="M0 0h20v20H0z"/>
  <path fill="#fff" fill-rule="evenodd" d="m4.688 13.795.184.237.996 1.28h8.264l1.18-1.517L12.363 10l2.766-3.557.184-.238-1.18-1.517H5.868l-.188.241-.992 1.276L7.638 10zm3.559-.76a.297.297 0 0 1-.235-.479l.807-1.038L10 13.036zm3.926-3.277 2.579-3.315H9.974a.186.186 0 0 0-.147.3l.173.221h1.753c.248 0 .387.285.235.48l-.807 1.038zm-7.11-3.553 5.813 7.473.042.054c.095.122.008.3-.147.3H5.248l.812 1.043h7.511L5.868 5.171z" clip-rule="evenodd"/>
</svg>
