<svg xmlns="http://www.w3.org/2000/svg" fill="none" viewBox="0 0 20 20">
  <circle cx="10" cy="10" r="9" fill="#fff"/>
  <path fill="#f6931e" fill-rule="evenodd" d="M10.946 2.529c.888.143 1.204.22 1.708.422 3.218 1.285 5.146 4.4 4.82 7.788-.044.45-.114.922-.156 1.05-.563 1.722-.999 2.496-1.953 3.468-1.037 1.056-2.116 1.671-3.681 2.1-.128.035-.555.104-.948.153-1.558.196-3.607-.314-4.845-1.206-.209-.15-.398-.273-.421-.273-.024 0-.187-.131-.363-.292-1.318-1.201-2.128-2.556-2.456-4.105-.202-.953-.265-1.713-.177-2.127a4 4 0 0 0 .088-.646c0-.378.302-1.375.63-2.075.797-1.708 2.346-3.143 4.14-3.838.521-.201.681-.23 1.024-.187.356.044.416.031.49-.106.051-.097.23-.164.494-.198.393-.05.975-.03 1.606.072M8.923 4.927c-.158-.48.13-1.062.626-1.26.45-.18 1.013-.033 1.307.342.194.247.23.883.068 1.203-.119.237-.64.544-.925.546-.458.002-.918-.352-1.076-.83m1.051 2.31c.018 0 .236-.122.483-.272.248-.15.494-.272.547-.272.075 0 .098.37.098 1.59 0 .875.03 1.61.069 1.634.084.052.558-.156 2.327-1.017.742-.362 1.385-.645 1.43-.63.044.014.09.097.104.184.02.13-.162.266-1.01.755-.568.328-1.057.596-1.085.596-.03 0-.192.088-.362.196-.17.107-.51.303-.755.436-.3.161-.475.24-.577.375-.158.209-.141.55-.141 1.534 0 .784-.04 1.593-.087 1.797-.233.994-.763 1.72-1.505 2.057-.31.142-.52.176-1.053.172-.597-.005-.714-.032-1.14-.26-.787-.42-1.151-1.095-1.083-2.006.046-.617.312-1.196.728-1.589.335-.315 1.388-1.05 1.96-1.368.28-.156.536-.32.567-.366.032-.046.058-.583.059-1.194 0-.915-.02-1.12-.115-1.156-.064-.025-.597.164-1.184.42-.587.255-1.106.45-1.153.432-.132-.05-.038-.372.14-.484.172-.107.512-.302 1.07-.613.193-.107.64-.365.993-.573.354-.207.657-.378.675-.378" clip-rule="evenodd"/>
  <path fill="#f6931e" fill-rule="evenodd" d="M10.83.545c.028.128.079.233.113.233s.17.022.303.049c.21.042.25.021.319-.158.043-.113.132-.227.199-.253.1-.038 1.317.248 1.426.335.018.014.053.15.078.304a.54.54 0 0 0 .265.41c.211.126.224.124.362-.045.193-.237.443-.22.882.059.202.128.395.233.43.233s.126.07.204.156c.119.132.126.188.047.361-.081.179-.071.229.079.389.197.21.394.235.533.067.053-.064.123-.117.154-.117.096 0 .573.408.892.764.301.336.301.336.168.563-.216.366.073.764.45.62.263-.1.438.074.814.813l.266.52-.218.174c-.213.171-.215.177-.088.422.104.203.175.249.383.249.22 0 .272.04.386.298.072.164.131.385.131.49 0 .106.038.23.084.276.157.157.049.522-.188.635-.2.096-.216.131-.167.39.056.3.156.41.315.35a.13.13 0 0 1 .153.056c.07.112.067 1.515-.002 1.628-.027.043-.134.079-.238.079s-.19.03-.19.068-.021.178-.048.312c-.044.22-.026.252.194.329.206.072.243.123.243.345 0 .143-.035.281-.078.308s-.08.142-.081.257a1.4 1.4 0 0 1-.137.482c-.1.208-.187.278-.364.297-.423.044-.568.457-.253.718l.175.144-.272.52c-.386.736-.56.909-.816.811l-.044-.017c-.097-.037-.148-.057-.19-.045-.047.013-.083.064-.16.172l-.031.045c-.153.216-.156.246-.044.407.066.095.12.214.12.263 0 .12-1.004 1.12-1.125 1.12-.054 0-.14-.052-.194-.116-.135-.162-.268-.146-.51.063-.179.154-.197.205-.122.345.134.251.045.372-.533.716-.605.36-.736.38-.976.154-.163-.153-.185-.155-.413-.037-.18.093-.241.18-.242.337-.002.318-.061.363-.746.556-.686.194-.96.15-.96-.152 0-.107-.053-.153-.175-.152-.359.002-.515.089-.54.299l-.023.206-.828.022-.828.022-.05-.228c-.079-.361-.616-.452-.74-.126-.095.251-.267.316-.572.216-.134-.044-.4-.126-.592-.182-.46-.135-.563-.222-.521-.441.025-.134-.023-.223-.181-.336-.203-.145-.463-.14-.463.008 0 .037-.073.106-.162.154-.138.074-.255.03-.783-.29l-.62-.376.047-.297c.04-.248.018-.322-.13-.445-.218-.183-.323-.188-.486-.025-.175.175-.4.046-.943-.542-.408-.442-.419-.465-.303-.642.164-.251.151-.366-.067-.57-.152-.144-.216-.16-.344-.092-.228.122-.362.04-.567-.349-.1-.19-.204-.345-.229-.345s-.092-.14-.149-.312c-.095-.29-.09-.325.066-.492.174-.185.226-.441.09-.441-.043 0-.078-.053-.078-.117q-.001-.116-.227-.117c-.268 0-.453-.162-.516-.453a8 8 0 0 0-.15-.534c-.128-.403-.074-.637.167-.729.349-.133.175-.774-.21-.774-.139 0-.15-.062-.15-.807v-.808l.222-.044c.226-.046.318-.211.32-.578 0-.12-.045-.175-.145-.175-.295 0-.358-.201-.214-.685l.067-.23c.173-.585.22-.744.317-.785a.34.34 0 0 1 .14-.014l.062.001c.226 0 .297-.04.376-.21.13-.282.124-.326-.07-.484-.212-.172-.172-.349.234-1.017.306-.505.333-.522.737-.453.086.015.21-.062.307-.19.157-.208.158-.224.028-.444l-.134-.229.516-.548c.455-.484.808-.692.808-.476 0 .168.326.173.503.006.144-.135.171-.225.14-.46-.038-.287-.032-.295.454-.586.508-.303.999-.446.999-.291 0 .047.07.123.157.17.205.11.623-.163.57-.371-.063-.24.152-.405.744-.569.64-.177.935-.152.935.08 0 .205.119.26.435.2.22-.04.278-.092.315-.28L9.18.312h1.599zM2.66 6.38c1.15-2.435 3.654-4.227 6.306-4.517 1.01-.11 2.63.022 3.415.28 1.358.446 2.424 1.103 3.445 2.125 1.022 1.023 1.602 2.046 2.083 3.67.174.589.196.806.2 1.984.005 1.204-.014 1.397-.208 2.14-.118.449-.24.852-.272.895s-.138.27-.235.506c-.25.602-.919 1.59-1.453 2.142-1.07 1.107-2.048 1.726-3.484 2.208-1.157.388-2.614.471-4.035.23-.56-.095-1.61-.43-1.96-.626-.666-.372-.853-.486-1.256-.763-.472-.325-1.3-1.117-1.625-1.554a6 6 0 0 0-.244-.314c-.199-.196-.671-1.078-1.021-1.907-.37-.877-.563-2.446-.45-3.666.046-.497.12-.996.162-1.109s.074-.214.07-.225c-.032-.079.268-.882.56-1.499" clip-rule="evenodd"/>
  <path fill="#f6931e" fill-rule="evenodd" d="M8.85.356c0-.061.055-.166.122-.234C9.07.025 9.28 0 10.005 0c.94 0 1.097.047 1.097.327 0 .187.171.178.292-.016.077-.124.18-.155.504-.153.453.002 1.464.315 1.543.477.028.057.09.205.14.328.082.21.097.215.227.097.237-.215.557-.147 1.272.27.679.394.72.445.686.868-.018.241-.015.243.26.139a.57.57 0 0 1 .376-.01c.248.095.848.648 1.103 1.017.203.294.214.394.08.722-.048.116-.012.136.243.138.165 0 .335.026.379.058.116.083.341.437.706 1.108.14.258.136.657-.01.778-.18.15-.14.22.181.307.371.1.504.354.71 1.359.077.366-.03.722-.237.787-.197.063-.191.27.007.27.085 0 .222.068.305.15.133.134.146.24.12.94-.037.98-.07 1.084-.354 1.141-.27.055-.294.193-.052.3.232.102.267.575.095 1.264-.167.668-.305.875-.585.875-.276 0-.358.125-.197.303a.6.6 0 0 1 .124.348c0 .25-.319.908-.638 1.314-.195.248-.274.292-.533.292-.167 0-.304.012-.304.027s.038.137.085.271c.107.308-.053.591-.657 1.164-.439.416-.774.566-.924.415-.167-.167-.31-.102-.268.121.067.35-.09.54-.749.913-.657.372-1.1.462-1.185.24-.059-.153-.261-.15-.261.004 0 .299-.235.575-.563.66-.182.047-.437.119-.568.159-.463.14-.864.09-1.072-.134l-.192-.207-.118.285-.119.284H9.002l-.092-.214c-.05-.118-.1-.227-.11-.242-.01-.016-.113.045-.228.136a.85.85 0 0 1-.519.164c-.328 0-.9-.137-1.023-.246a.37.37 0 0 0-.208-.065c-.204 0-.378-.218-.378-.472 0-.251-.151-.305-.311-.112-.171.208-.542.132-1.196-.245-.345-.199-.655-.4-.688-.447s-.051-.208-.04-.358c.017-.267-.02-.298-.289-.234-.317.076-.518-.032-1.047-.56l-.562-.56.044-.37.043-.369-.326-.023c-.304-.023-.346-.055-.641-.506-.436-.665-.557-1.048-.418-1.328.157-.318.139-.365-.159-.408-.26-.037-.281-.066-.48-.623-.281-.786-.286-1.268-.015-1.52.19-.175.194-.193.058-.241C.037 11.02 0 10.919 0 9.993c0-.93.067-1.121.394-1.121.202 0 .188-.094-.045-.297-.244-.213-.256-.626-.039-1.32.216-.691.272-.771.58-.83.304-.056.322-.091.156-.311-.167-.22-.143-.396.126-.93.401-.796.575-.982.919-.982h.297l-.04-.345c-.034-.31-.01-.38.255-.703.577-.706.988-.936 1.415-.79.155.053.174.033.174-.176 0-.422.142-.59.786-.929.678-.357.836-.386 1.116-.202q.351.233.35-.204c0-.263.225-.41.905-.587C7.974.103 8.439.12 8.558.31c.112.18.292.208.292.045m2.093.422c-.034 0-.085-.105-.113-.233L10.779.31H9.18l-.046.23c-.037.188-.094.24-.314.28-.316.06-.435.004-.435-.202 0-.231-.295-.256-.935-.079-.592.164-.807.328-.745.569.054.208-.364.48-.569.37-.086-.046-.157-.122-.157-.169 0-.155-.491-.012-.999.291-.486.29-.492.299-.454.586.031.235.004.325-.14.46-.177.167-.503.162-.503-.006 0-.216-.353-.008-.808.476l-.516.548.134.229c.13.22.129.236-.028.443-.097.129-.22.206-.307.191-.404-.069-.431-.052-.737.453-.406.668-.447.845-.234 1.017.194.158.2.202.07.484-.08.17-.15.21-.376.21h-.063a.3.3 0 0 0-.139.013c-.097.041-.144.2-.317.786l-.067.229c-.144.484-.08.685.214.685.1 0 .146.055.145.175-.002.367-.094.532-.32.578l-.222.044v.808c0 .745.011.807.15.807.385 0 .559.641.21.774-.241.092-.295.326-.167.729.057.179.125.42.15.534.063.29.248.453.516.453q.226 0 .227.117c0 .064.035.117.078.117.136 0 .084.256-.09.441-.156.167-.16.203-.066.492.057.172.124.312.15.312.024 0 .127.155.228.345.205.389.34.47.567.348.128-.068.192-.05.344.092.218.205.231.32.067.571-.116.177-.105.2.303.642.543.588.768.717.943.542.163-.163.268-.158.486.025.148.123.17.197.13.445l-.048.297.621.377c.528.32.645.363.783.289.09-.048.162-.117.162-.154 0-.148.26-.153.463-.008.158.113.206.202.18.336-.041.219.062.306.522.44.192.057.458.139.592.183.305.1.477.035.572-.216.124-.326.661-.235.74.126l.05.228.828-.022.828-.022.024-.206c.024-.21.18-.297.539-.299.122 0 .174.045.174.152 0 .302.275.346.961.152s.744-.238.746-.556c.001-.158.063-.244.242-.337.228-.118.25-.116.413.037.24.227.371.206.976-.154.578-.344.667-.465.533-.716-.075-.14-.057-.19.121-.344.243-.21.377-.226.511-.064.053.064.14.117.194.117.121 0 1.126-1 1.126-1.121 0-.05-.055-.168-.121-.263-.112-.16-.11-.191.044-.407l.032-.045c.076-.108.112-.16.16-.172.041-.012.092.008.189.045l.044.017c.257.098.43-.075.816-.812l.272-.519-.175-.144c-.315-.261-.17-.674.253-.718.177-.019.263-.089.364-.297.073-.15.135-.367.137-.482s.038-.23.08-.257c.044-.027.079-.165.079-.308 0-.222-.037-.273-.243-.345-.22-.077-.238-.108-.194-.33.027-.133.048-.273.048-.311s.086-.068.19-.068.211-.036.238-.08c.07-.112.071-1.515.002-1.627a.13.13 0 0 0-.153-.057c-.16.062-.26-.05-.316-.35-.048-.258-.033-.293.168-.389.237-.113.345-.478.188-.635-.046-.046-.084-.17-.084-.276a1.6 1.6 0 0 0-.131-.49c-.114-.259-.165-.298-.386-.298-.208 0-.279-.046-.383-.249-.127-.245-.125-.25.088-.422l.218-.173-.266-.521c-.376-.739-.55-.913-.814-.812-.377.143-.666-.255-.45-.621.133-.227.133-.227-.168-.563-.319-.356-.796-.764-.892-.764-.031 0-.1.053-.154.117-.14.168-.336.144-.533-.067-.15-.16-.16-.21-.079-.389.079-.173.072-.229-.047-.361-.078-.086-.17-.156-.204-.156-.035 0-.228-.105-.43-.233-.439-.279-.689-.296-.882-.059-.138.17-.15.17-.362.044a.54.54 0 0 1-.265-.41c-.025-.152-.06-.289-.078-.303-.109-.087-1.327-.373-1.426-.335-.067.026-.156.14-.2.253-.067.18-.109.2-.319.158a3 3 0 0 0-.302-.049" clip-rule="evenodd"/>
  <path fill="#f6931e" d="M9.518 12.896c-.06.92-.25 1.459-.661 1.871-.213.214-.307.252-.614.25-.418-.003-.557-.088-.748-.457-.347-.673.177-1.589 1.35-2.358.719-.472.746-.443.673.694M7.333 2.948c.52-.201.68-.23 1.023-.187.356.044.416.031.49-.106.051-.097.23-.164.494-.198-.983.065-1.7.32-2.007.491"/>
</svg>
