<svg xmlns="http://www.w3.org/2000/svg" fill="none" viewBox="0 0 20 20">
  <circle cx="10" cy="10" r="10" fill="#22b4ab"/>
  <path fill="#fff" d="M2.438 9.99a7.56 7.56 0 0 0 7.55 7.573 7.564 7.564 0 0 0 7.575-7.548v-.057c0-.582-.07-1.161-.205-1.727a.812.812 0 0 0-1.58.37 5.947 5.947 0 0 1-6.586 7.297 5.95 5.95 0 0 1-5.09-5.068 5.947 5.947 0 0 1 7.275-6.611.812.812 0 0 0 .663-1.443.8.8 0 0 0-.287-.13 7.556 7.556 0 0 0-9.111 5.585 7.7 7.7 0 0 0-.204 1.758"/>
  <path fill="#fff" d="M13.669 4.668c-.013.012-.019.025-.026.031-.179.19-.288.434-.312.693v.125c0 .031-.006.056-.006.087a2.09 2.09 0 0 1-2.292 1.878 2 2 0 0 1-.432-.087 2.74 2.74 0 0 0-2.481.649c-.025.025-.056.044-.082.075a2.72 2.72 0 1 0 3.844 3.844q.169-.171.306-.368a2.73 2.73 0 0 0 .374-2.34c0-.007-.005-.013-.005-.026a2.093 2.093 0 0 1 1.868-2.557l.043-.007a1 1 0 0 1 .131-.006h.013c.271-.026.525-.145.718-.337q.067-.074.126-.15a1.16 1.16 0 0 0-.282-1.629 1.18 1.18 0 0 0-1.505.125"/>
</svg>
