<svg xmlns="http://www.w3.org/2000/svg" fill="none" viewBox="0 0 20 20">
  <path fill="#00a3ff" d="M10.004 10.616V4.853l5.04 2.883zm5.849-1.641-5.85 3.342v7.654z" opacity=".2"/>
  <path fill="#00a3ff" d="m4.961 7.736 5.043-2.883v5.763zm-.814 1.239 5.85 3.342v7.654z" opacity=".6"/>
  <path fill="#00a3ff" d="M4.961 7.736 10.004.004v4.84zM3.987 9.22l.16-.245 5.85 10.996a7.2 7.2 0 0 1-5.043-2.047 6.88 6.88 0 0 1-.967-8.704"/>
  <path fill="#00a3ff" d="m15.047 7.737-5.043-2.892V0zm.966 1.483-.16-.245-5.85 10.996c1.825 0 3.65-.683 5.043-2.047a6.88 6.88 0 0 0 .967-8.704" opacity=".6"/>
</svg>
