<svg xmlns="http://www.w3.org/2000/svg" fill="none" viewBox="0 0 20 20">
  <path fill="#2db8e3" fill-rule="evenodd" d="M12.907 3.8a1.33 1.33 0 0 0-.943-.39h-.004a1.32 1.32 0 0 0-.942.395L.599 14.273a1.33 1.33 0 0 0-.389.944c0 .357.14.692.394.944a1.33 1.33 0 0 0 .941.389c.358 0 .695-.14.947-.393L12.911 5.688a1.34 1.34 0 0 0-.004-1.889" clip-rule="evenodd"/>
  <path fill="#3840c7" fill-rule="evenodd" d="M18.955 3.537a1.33 1.33 0 0 0-1.456.293L7.08 14.299a1.337 1.337 0 0 0 1.895 1.883l8.136-8.174v7.232a1.336 1.336 0 0 0 2.67 0V4.772a1.33 1.33 0 0 0-.825-1.235" clip-rule="evenodd"/>
</svg>
