<svg xmlns="http://www.w3.org/2000/svg" fill="none" viewBox="0 0 20 20">
  <path fill="#5f45b9" d="M10 20c5.523 0 10-4.477 10-10S15.523 0 10 0 0 4.477 0 10s4.477 10 10 10"/>
  <path fill="#fff" fill-rule="evenodd" d="M6.391 5.844a.716.716 0 1 1-1.23-.731.716.716 0 0 1 1.23.73m-2.443-.317a.506.506 0 1 1-.87-.517.506.506 0 0 1 .87.517M14.36 6.593a5.65 5.65 0 0 0-3.91-1.915 5.7 5.7 0 0 0-1.101.038q-.19.016-.366.047l-.107.014.01.004a4.7 4.7 0 0 0-.932.285l-.003.002c-.578.282-.896.75-.896 1.317 0 .781.636 1.417 1.417 1.417.163 0 .668-.17.673-.172a2.9 2.9 0 0 1 1.13-.155c.984.062 1.86.616 2.34 1.48l.001.002a2.887 2.887 0 0 1-2.705 4.276 2.86 2.86 0 0 1-2.211-1.27v-.002l-.017-.022-.115-.173c-.393-.673-.342-1.6-.326-1.792l.001-.019v-.007a1.414 1.414 0 0 0-1.418-1.37c-.639 0-1.202.432-1.37 1.05a2.6 2.6 0 0 0-.043.496c-.126 3.064 2.263 5.715 5.324 5.907a5.5 5.5 0 0 0 .995-.026h.001l.482-.056-.033-.013a5.68 5.68 0 0 0 4.589-5.224 5.65 5.65 0 0 0-1.41-4.119" clip-rule="evenodd"/>
  <path fill="#fff" fill-rule="evenodd" d="M5.646 7.83a.928.928 0 1 1-1.597-.947.928.928 0 0 1 1.597.948" clip-rule="evenodd"/>
</svg>
