<svg xmlns="http://www.w3.org/2000/svg" fill="none" viewBox="0 0 20 20">
  <path fill="#5e12a0" d="M19.261 3.535c-.203-.784-.857-1.568-2.034-2.44C16.283.399 15.281 0 14.482 0c-.16 0-.305.015-.45.044-.364.074-.683.34-.887.74-.247.473-.305 1.11-.145 1.494.058.118.13.266.218.4-.77.473-1.206.606-1.264.62 2.005.681 3.675 2.101 4.721 3.95l.015-.177c.043-.488.189-1.05.392-1.627q.305.089.61.089c.538 0 1.003-.222 1.293-.622s.407-.932.276-1.376"/>
  <path fill="url(#osmosis_svg__a)" d="M17.168 5.015c1.322.37 1.86-.666 1.685-1.361-.189-.695-.799-1.405-1.874-2.204S14.815.325 14.117.473c-.697.148-.9 1.228-.726 1.642.073.163.232.4.45.666-.276.192-.537.34-.755.473a8.6 8.6 0 0 1 3.37 2.737c.102-.4.247-.754.378-1.065.102.015.218.044.334.089"/>
  <path fill="url(#osmosis_svg__b)" d="M9.6 19.512c4.485 0 8.12-3.702 8.12-8.27 0-4.566-3.635-8.269-8.12-8.269s-8.12 3.703-8.12 8.27 3.635 8.269 8.12 8.269"/>
  <path fill="#a98698" d="M18.186 2.973c-1.104-1.183-2.034-1.494-3.153-1.745-.871-.207-.639-.71.422-.607-.509-.177-.988-.222-1.337-.148-.697.148-.9 1.228-.726 1.642.072.163.232.4.45.666-.392.266-.726.459-1.002.607.13.059.29.133.48.236.493.266 1.03.71 1.03.71-.813-.71-.639-1.035.48-1.834.349-.252.988-.222 1.583.089.596.31 1.293 1.094 1.293 1.094l-.668 1.302.13.045c.422.118.756.088 1.018-.015.305-.193 1.104-.843 0-2.042" opacity=".6"/>
  <path fill="#5e12a0" d="M15.019 1.938c.29.118.668.325 1.133.636.552.37 1.031.784 1.336 1.11-.508.68-.842 1.612-1.046 2.263.102.148.218.296.32.444.102-.37.276-.918.508-1.465.059.015.131.015.204.015.174 0 .378-.03.537-.163.117-.089.247-.251.233-.547 0-.281-.218-.636-.668-1.065-.32-.311-.756-.651-1.192-.962-1.249-.843-2.12-1.08-2.513-.68-.261.266-.232.591-.145.828-.465.31-.857.533-1.119.68.175.06.335.134.509.208.465-.252 1.133-.68 1.903-1.302m2.745 2.115a.4.4 0 0 1 .059.193c0 .133-.044.177-.073.207a.5.5 0 0 1-.276.074c.087-.178.189-.326.29-.474M14.176 1.85c.044-.044.16-.074.349-.044a8 8 0 0 1-.436.325c-.014-.103 0-.207.087-.28"/>
  <path fill="#5e12a0" d="M9.6 2.485c-4.75 0-8.6 3.92-8.6 8.758S4.85 20 9.6 20s8.6-3.92 8.6-8.757c0-4.838-3.864-8.758-8.6-8.758m0 17.027c-4.489 0-8.12-3.698-8.12-8.27 0-4.57 3.631-8.269 8.12-8.269s8.12 3.699 8.12 8.27-3.646 8.269-8.12 8.269"/>
  <path fill="url(#osmosis_svg__c)" d="M9.6 19.512c4.485 0 8.12-3.702 8.12-8.27 0-4.566-3.635-8.269-8.12-8.269s-8.12 3.703-8.12 8.27 3.635 8.269 8.12 8.269" opacity=".6"/>
  <path fill="#a98698" d="M9.542 18.506c-4.431-.725-7.438-4.97-6.712-9.482a8.26 8.26 0 0 1 2.702-4.926 8.25 8.25 0 0 0-3.951 5.828c-.712 4.512 2.295 8.757 6.711 9.482 2.47.414 4.852-.37 6.61-1.908a8.02 8.02 0 0 1-5.36 1.006" opacity=".6"/>
  <path fill="url(#osmosis_svg__d)" d="M10.893 3.092a7.98 7.98 0 0 0-5.665 1.183l-.058.06c.624-.385 1.54-.726 1.54-.726C4.356 5 3.63 6.583 3.63 6.583c.915-1.805 3.603-3.077 5.709-3.166s3.486.547 5.172 1.923c1.685 1.39 2.701 4.231 2.6 6.48-.087 2.248-1.25 4.068-1.25 4.068.8-1.05 1.279-1.82 1.584-2.604.058-.237.116-.473.145-.725.727-4.497-2.266-8.742-6.697-9.467" opacity=".6"/>
  <path fill="url(#osmosis_svg__e)" d="M17.314 11.169c0 4.334-3.457 7.855-7.714 7.855-4.256 0-7.728-3.521-7.728-7.855z"/>
  <path fill="url(#osmosis_svg__f)" d="M16.704 11.169c0 4.23-3.283 7.692-7.41 7.855H9.6c4.256 0 7.714-3.521 7.714-7.855z" opacity=".6"/>
  <path fill="url(#osmosis_svg__g)" d="M2.96 11.169H1.872c0 4.334 3.458 7.855 7.714 7.855.189 0 .363 0 .537-.015-3.995-.296-7.161-3.698-7.161-7.84" opacity=".7"/>
  <path fill="url(#osmosis_svg__h)" d="M17.3 11.243c0-.903-1.54-1.42-3.589-1.598-1.481-.118-2.978.03-4.692.562-1.481.444-2.818.37-3.791.252-2.165-.252-3.356-.281-3.356.784 0 1.538 3.08 3.461 7.7 2.795 2.338-.34 3.544-1.035 4.924-1.508 1.496-.503 2.804-.489 2.804-1.287"/>
  <path fill="#fff" d="M12.128 7.515a1.32 1.32 0 0 0 1.307-1.332 1.32 1.32 0 0 0-1.307-1.33 1.32 1.32 0 0 0-1.308 1.33 1.32 1.32 0 0 0 1.308 1.332m2.135.991a.557.557 0 0 0 .552-.562.557.557 0 0 0-.552-.562.557.557 0 0 0-.552.562c0 .31.247.562.552.562"/>
  <defs>
    <linearGradient id="osmosis_svg__c" x1="8.297" x2="10.988" y1="19.395" y2="3.092" gradientUnits="userSpaceOnUse">
      <stop stop-color="#81ffff"/>
      <stop offset=".62" stop-color="#fff" stop-opacity="0"/>
    </linearGradient>
    <linearGradient id="osmosis_svg__d" x1="15.323" x2="8.497" y1="5.627" y2="11.777" gradientUnits="userSpaceOnUse">
      <stop offset=".289" stop-color="#fff"/>
      <stop offset=".78" stop-color="#fff" stop-opacity="0"/>
    </linearGradient>
    <linearGradient id="osmosis_svg__e" x1="1.879" x2="17.31" y1="15.091" y2="15.091" gradientUnits="userSpaceOnUse">
      <stop stop-color="#0002e9"/>
      <stop offset=".995" stop-color="#ff00c7"/>
    </linearGradient>
    <linearGradient id="osmosis_svg__f" x1="18.041" x2="9.497" y1="11.858" y2="19.786" gradientUnits="userSpaceOnUse">
      <stop offset=".289" stop-color="#fff"/>
      <stop offset=".78" stop-color="#fff" stop-opacity="0"/>
    </linearGradient>
    <linearGradient id="osmosis_svg__g" x1="1.878" x2="10.134" y1="15.091" y2="15.091" gradientUnits="userSpaceOnUse">
      <stop stop-color="#000292"/>
      <stop offset=".995" stop-color="#7d00c7"/>
    </linearGradient>
    <linearGradient id="osmosis_svg__h" x1="1.889" x2="17.3" y1="11.895" y2="11.895" gradientUnits="userSpaceOnUse">
      <stop stop-color="#000292"/>
      <stop offset=".995" stop-color="#be00c7"/>
    </linearGradient>
    <radialGradient id="osmosis_svg__a" cx="0" cy="0" r="1" gradientTransform="matrix(6.4927 0 0 6.61162 18.588 2.722)" gradientUnits="userSpaceOnUse">
      <stop stop-color="#ffeaff" stop-opacity=".6"/>
      <stop offset=".681" stop-color="#a087c9"/>
      <stop offset="1" stop-color="#10002f"/>
    </radialGradient>
    <radialGradient id="osmosis_svg__b" cx="0" cy="0" r="1" gradientTransform="matrix(15.8852 0 0 16.1762 14.976 5.542)" gradientUnits="userSpaceOnUse">
      <stop stop-color="#ffeaff" stop-opacity=".6"/>
      <stop offset=".681" stop-color="#a087c9"/>
      <stop offset="1" stop-color="#10002f"/>
    </radialGradient>
  </defs>
</svg>
