<svg xmlns="http://www.w3.org/2000/svg" viewBox="0 0 994.3 1000.5">
  <path fill="#f7f5f8" d="m27.4 444.9 471.8-254 124.2-2.5S753.1 204.2 856.1 305c.1.1.2.1.2.2 28.2 27.7 54.4 62.5 75.1 106.3 1.4 2.9 2.8 5.9 4.1 8.9 0 0 151.2 244-41.3 456.4-192.5 212.3-651.4 110.6-789.3-112.5-1-1.5-2-3.1-3-4.7-21.2-34.1-37-67.9-48.6-99.2-14.7-39.6-22.9-75.1-27.4-101.6-5.1-30.3 1.6-113.9 1.5-113.9"/>
  <path fill="#dcc4d4" d="M218.8 420.3c-31.3 88.9 7.8 189.9 85.9 99.6 111.2-153 321.4-183.3 405.1-172.5 102.5 19.8 182.5 123.4 207.9 125.4s13.7-61.3 13.7-61.3c1.4 2.9 2.8 5.9 4.1 8.9 0 0 151.2 244-41.3 456.4C701.7 1089.1 242.8 987.4 105 764.2c-1-1.5-2-3.1-3-4.7-21.2-34.1-37-67.9-48.6-99.2 53.4-88.2 190.5-311.8 165.4-240"/>
  <path fill="#efad93" d="M680.7 183.7c49.4-48.5 129.9-117.2 190.6-152.4 29.2-17 53.8-26.2 68.1-21.7 2.8.8 5.1 2.2 7.1 4.1 23.7 23.2 14.4 169.4 3.6 279.9-7 70.6-14.6 126.7-14.6 126.7-15.5-33.2-32-65.7-81.8-118-20.7-20.3-41.8-37.4-63.2-51.7-36-24-72.5-40.1-108.3-50.3-4.8-1.4-9.6-2.6-14.4-3.8 4-4 8.3-8.3 12.9-12.8"/>
  <path fill="#d68c72" d="M871.3 31.4c-10.1 73.5-12.2 200.9 78.8 262.3-7 70.6-14.6 126.7-14.6 126.7-15.5-33.2-32-65.7-81.8-118-20.7-20.3-41.8-37.4-63.2-51.7-36-24-72.5-40.1-108.3-50.3l-1.6-16.6c49.5-48.6 130-117.2 190.7-152.4"/>
  <path fill="#964c49" d="M51.1 14.9C100.8-.9 264.3 151.4 366.8 231.4c0 0 141.2-74 301.1-34.9q11.25 2.7 22.8 6.3c-46.6-1.7-115.4-3.1-144.9 2.2-46.8 8.5-216.8 59-291.1 178.2-74.3 119.1-71.3 258.8-69.5 320.2 1.4 48.9-34.4 79.5-88.3 48-44.5-74.3-63.2-146.8-71-192.6-1.1-10.1-2.2-20.5-3.5-31-.8-6-1.4-12-2.1-17.9-32.6-286.5-17.8-479.6 30.8-495"/>
  <path fill="#964c49" d="M939.4 9.6c-41.2 32.2-128.1 113.5-148.9 241-40.8-27.2-82.3-44.2-122.7-54.1C736 126.7 892.6-5 939.4 9.6"/>
  <path fill="#3a0101" d="M667.3 196.7c18-21.7 38.7-41.3 59-60.8 30.9-28.7 63.1-56.1 97.5-80.5 23.1-16.3 47-31.5 73.2-42.8 13.8-5.3 28.2-11.2 43.7-6.9 3.2.8 4.1 5.5 1.3 7.4-48 35.5-89.8 81.2-115 136l-7.3 16.4-6.3 16.8c-8.3 23.1-13.5 47.2-19 71-1.4 2.2-4.4 2.7-6.5 1.3-9.3-6.2-18.7-12.1-28.3-17.7-29-16.9-60.5-29.6-92.3-40.2m1-.3c33.5 5.2 65.5 17.4 95.4 33 10 5.2 19.8 11.1 29.3 17.3l-7.2 3.2c11.1-73.1 51.8-137.4 99-192.5 15.9-18.4 33.2-35.6 52-51.1l1.3 7.4c-34.7-7-111.7 54.4-141.3 75.9-41.4 31.8-81.9 65.4-120.8 100.3-2.2 1.9-5.3 4.8-7.7 6.5"/>
  <path fill="#3a0101" d="M667 196.8c9.8-12.7 21.5-23.8 32.5-35.3 56.3-55.7 115.3-109 185.4-147.2C903.6 5.5 934-9.3 952.6 8c8.6 9.3 11 23.4 12.9 34.8 7.6 63.5.5 127.1-5.9 190.2-7.1 62.7-14.3 125.2-20.2 188-.1 1.2-.9 2.5-2.1 3.1-1.9 1-4.3.2-5.3-1.7-21.3-43.7-51.6-81.8-85.2-116.5-29-28.5-61.5-53.6-97.1-73.3-26-14.9-54.6-26-82.7-35.8m1.6-.5c102.9 16.6 200.3 90.3 251 181.1 7.4 13.4 13.7 27.4 19.6 41.3l-7.6 1.2c15.8-93 21.6-187.6 22.5-281.8.1-30.9.3-62.6-4.6-92.8-1.5-8.2-3.1-16-6.7-22.5-2.2-3.9-5.1-5.3-10-5.6-13.2-.3-28 6.5-40.3 12.5-13.6 6.6-26.9 14.5-39.9 22.9-62 40.5-119.8 87.7-175.4 136.6-2.3 2.1-6.1 5.5-8.6 7.1m-300.5 26.1s-27.7 15.2-48.3 39.2c32.8-26.4 66.9-39.2 66.9-39.2z"/>
  <path fill="#3a0101" d="M51.4 15.6C-13.1 43.9 7.5 316.1 13.6 383c3.6 42.3 8.6 84.5 13.7 126.7.9 16.6 3.4 33.8 6.5 50.3 15.8 83.2 49 164.3 101 231.4 162.6 201.4 596.3 285.2 772.8 64.1 93.2-112.3 103.3-255.1 47.5-387.3-6.8-15.7-14.3-31.3-23-45.7-9.8-21.3-21.3-41.7-34.7-60.8-39.4-54.7-87.9-96.2-150.6-128.6-117.3-59-260-50.3-377.9 2.6-1.6.8-3.7.7-5.2-.5-50.3-40.8-98.5-83.9-148.5-125C183.7 85.2 89.5 5.3 51.4 15.6m-.5-1.5c38.2-10.9 133.1 68.2 166.8 93 51.1 39.6 100.6 81.4 152 120.5l-5.2-.5c10.1-5.3 20.2-9.7 30.6-13.9 113.6-45.9 247.7-50.1 357.9 7.6 38.5 19.3 80 51.8 106.2 79.6 28.3 26.3 63.5 77.6 79.6 117.9 37.5 68.6 57.7 147.2 55.3 225.5-2 78.7-32.2 155.1-80.9 216.3-144.1 184.7-435.8 164.2-626.6 69.8-70.3-34.9-136.1-83.3-181-148.9-52.9-79.3-87.3-177.1-92-270.3-12-126.6-19.9-254.6-7-381.4C10.8 98.9 18.7 25.8 50.9 14.1"/>
  <path fill="#efad93" d="M56.5 68.9c10.8 4.5 48 42.6 88.9 92 33.1 40 68.6 87.5 94.4 130.5C256.3 318.9 134.9 522 113 560.3c-20.1 35.1-64.5-92-76.1-226-1.1-12-1.8-23.9-2.3-35.9-5.8-146.1 2.3-237.6 21.9-229.5"/>
  <path fill="#894544" d="M327.6 643.2c7.1-85.1 52.7-166.4 117.6-206.6 75-42 139.1-61.4 202.6-61.1 15.2.1 30.5 1.3 45.8 3.6 15 2.3 30.1 5.6 45.5 9.9 66 18.5 208.6 88.2 186.5 282.8-.7 5.8-1.5 11.5-2.5 17.2C891 873.9 688.2 995.2 467.4 887.4 358 834 319.8 736.3 327.6 643.2"/>
  <path fill="#e3746d" d="M636.5 336.4c9.7 2.9 32.2 11.3 56.1-1s33.2 15.1 20.5 22.1c-14.4 7.9-18.4 17-19.6 21.7-15.3-2.3-30.5-3.5-45.8-3.6-4.1-7.4-25.4-8.4-33.2-21.1-7.8-12.8 12.3-21.1 22-18.1"/>
  <path fill="#fff" d="M386.7 314c6.2-5.8 12.6-10.9 19.1-15.3 58-40 121.3-28.3 130.8-3.7 10.6 27.3-35.8 36.7-64.2 48.6-25.9 10.8-56.1 30.6-78.7 43.5-16.6 9.5-29.3 15.3-33.1 11.1-9.1-9.9-18.1-43.3 26.1-84.2m387.1-41.5c33.4 12.4 58.6 33.3 75 50.7 11.4 12.1 18.4 22.5 20.9 27.2 6.1 11.4-12.7 14-36.2 5.3-1-.4-2.1-.8-3.2-1.2-25.3-9-84.3-25.6-101.1-33-24.1-10.6-12-70 44.6-49"/>
  <path fill="#3a0101" d="M405.8 298.7c58-40 121.3-28.3 130.8-3.7 10.6 27.3-35.8 36.7-64.2 48.6-25.9 10.8-56.1 30.6-78.7 43.5-23.4-34.2-7.4-66.3 12.1-88.4m368-26.2c33.4 12.4 58.6 33.3 75 50.7.6 10.9-2.7 23.7-18.5 31.3-25.3-9-84.3-25.6-101.1-33-24.1-10.6-12-70 44.6-49"/>
  <path fill="#3a0101" d="M504.4 274.3c-72.3-19-136.4 35.7-149 74s-.5 51.9 0 40.6 0-28.9 18-52.9c18.1-24 76-50.5 76-50.5s27.7 7 55-11.2m365.1 67.1c-20.4-25.1-54.2-47.2-54.2-47.2s5.1 17 18.1 25.7c13 8.8 37.3 35.8 37.3 35.8s5.9-3.3-1.2-14.3"/>
  <path fill="#fff" d="M504.4 294.2c-8.5.9-74.6 10.1-65.2-3.7s34.7-12.3 55.5-10.7c22.4 1.7 18.2 13.6 9.7 14.4m299.2 20.3c-12.8-6.2-34.7-17.4-31.5-26s27.8 6.4 42.5 14c18.5 9.5 1.8 18.2-11 12"/>
  <path fill="#623538" d="M445.2 436.6c75-42 139.1-61.4 202.6-61.1 15.2.1 30.5 1.3 45.8 3.6 15 2.3 30.1 5.6 45.5 9.9 66 18.5 208.6 88.2 186.5 282.7-.7 5.8-1.5 11.5-2.5 17.2-63.6 66.2-165.3 109.1-280.1 109-139.3 0-259.6-63.2-315.5-154.7 7.1-85.1 52.7-166.4 117.7-206.6"/>
  <path fill="#3a0101" d="M467 888.1c-4.1-2.1-15-8-19-10.1-4.3-2.5-13.8-8.5-18.2-11.3-5.7-3.9-11.5-8.7-17.3-12.6-12.8-10.7-25.3-22-35.9-35-51-59.2-67.4-143.5-50-219.2 14.9-66.8 52.5-130.4 110.4-168.2 74.4-43.3 162.1-73 249-60.2 66.6 9.1 131.6 37.9 178.2 87.3 47.5 48.6 68.8 117.8 66.7 185-.4 38.6-7.7 77.3-22.3 113.1C871.9 848.2 785.9 914.7 689 928c-75.8 11.7-153.7-6.7-222-39.9m.7-1.5c103.1 51 224 52.6 322.3-10.2 62.5-40 109.6-104.2 126.4-177.1 12.6-54.7 12.2-114.2-9.7-166.5C878 462.3 811 414 739.3 394.7 633 365.6 539 391.2 446.1 446.3 361.9 503 321.5 614.9 336.4 714.1c5.5 34.6 19.1 68.2 39.4 96.7 3.2 4 7.6 9.9 10.8 13.9 6.6 7.1 14.9 16.4 22.4 22.6l5.2 4.8 5.6 4.3c6.3 5.3 16.2 11.9 23.2 16.3 6.7 4.5 17.6 9.9 24.7 13.9"/>
  <path fill="#c95755" d="M624.5 349.4c9.9-5 28 14.1 28 14.1-22.5-1.6-38-9-28-14.1m85.2-2c-8.3-4.5-19.1 16.1-19.1 16.1 10.6-2.3 27.4-11.6 19.1-16.1"/>
  <path fill="#d68c72" d="M145.4 160.9c33.1 40 68.6 87.5 94.4 130.5 16.5 27.5-104.9 230.6-126.9 268.9-20.1 35.1-64.5-92-76.1-226 97.6 56 111.3-73.1 108.6-173.4"/>
  <path fill="#3a0101" d="M239.3 291.7C203 231.8 156.6 179 109.9 127.3 94.3 110.6 78.5 93.1 61 78.7c-2.4-1.8-4.8-3.7-6.8-4.5-2.9 2.5-5.2 9.1-6.4 13.8-7.9 33.4-8.7 68.6-9.8 103.1-.4 23.2-.5 46.6-.3 69.9-.2 70 5.5 140.1 23.6 207.9 5.3 20 24.9 86.9 43.7 93.3 1.6-.1 2.6-1.2 3.6-2.7l.9-1.5c3.4-7.1 73.1-128.3 78.8-138.8 12.8-24.1 60.2-104.1 51-127.5m1-.6c10.1 18.9-35.6 108.8-46 131.3-23 47.3-49.2 93.1-76.6 137.9-2 4.1-7.1 10.6-13.3 9.8-30.8-4.3-55.4-138.4-61-168.9C30.8 332 27.6 261.4 27.8 191.1c.8-28.9-.2-103.5 17.4-124.3 7.7-8.1 16.3-2.5 22.8 3 9.4 7.7 17.6 16.1 25.8 24.6 56.2 59.6 103.7 127 146.5 196.7"/>
</svg>
