<svg xmlns="http://www.w3.org/2000/svg" fill="none" viewBox="0 0 20 20">
  <circle cx="10" cy="10" r="10" fill="#fff"/>
  <path fill="#000" fill-rule="evenodd" d="M8.966.026C7.325.233 5.82.765 4.567 1.58 2.282 3.067.744 5.32.163 8.034c-.185.864-.22 2.807-.066 3.647.385 2.103 1.329 3.897 2.841 5.4.914.908 1.637 1.42 2.78 1.967C7.1 19.711 8.389 20 9.97 20c1.195 0 2.078-.14 3.182-.505a9.6 9.6 0 0 0 3.912-2.419c2.086-2.096 3.13-4.915 2.9-7.832-.195-2.47-1.143-4.527-2.898-6.288-1.44-1.444-3.094-2.355-5.022-2.765-.674-.143-2.48-.24-3.078-.165M8.878 4.4c.06.038.09.402.104 1.262L9 6.87h2.077l.02-1.171c.011-.738.047-1.207.096-1.266.059-.07.271-.089.88-.074l.804.02.034 1.245.035 1.246 1.073.035 1.073.035.02.726c.031 1.124.13 1.032-1.111 1.054l-1.055.02-.019 1.202c-.013.815.006 1.232.06 1.296.057.07.34.099 1.091.113l1.014.019.02.803c.014.608-.004.822-.075.88-.056.047-.485.085-1.092.097l-.999.02-.019 1.23-.019 1.231-.88-.02-.882-.019-.019-1.228-.018-1.23h-2.14l-.019 1.23-.019 1.228h-1.73l-.035-1.211-.035-1.211-.999-.02c-.606-.011-1.035-.05-1.092-.097-.07-.058-.088-.272-.074-.88l.02-.803L6 11.35c.75-.013 1.034-.043 1.092-.112.052-.064.071-.481.058-1.296l-.019-1.203-1.054-.019c-1.24-.022-1.143.07-1.112-1.054l.02-.726 1.074-.035L7.13 6.87l.018-1.176c.01-.648.033-1.216.05-1.264.036-.098 1.53-.125 1.679-.03m.104 5.603L9 11.3h2.077l.019-1.298.019-1.298H8.963z" clip-rule="evenodd"/>
</svg>
