<svg xmlns="http://www.w3.org/2000/svg" fill="none" viewBox="0 0 24 24">
  <path fill="#ffeeda" d="M21.702 15.822V2.532c-.018-1.11-.882-2.005-1.968-2.005H6.197C3.277.57.93 3.02.93 6.022c0 1.013.264 1.88.67 2.64.345.633.883 1.23 1.412 1.672.15.127.08.072.539.362a5.8 5.8 0 0 0 1.359.597l-.01 7.946c.018.38.054.741.15 1.075.3 1.122 1.06 1.98 2.092 2.396.433.172.918.29 1.439.299l10.81.036c2.153 0 3.9-1.79 3.9-4.005a4.02 4.02 0 0 0-1.588-3.218"/>
  <path fill="#ebc28e" d="M21.966 19.14c-.044 1.419-1.182 2.558-2.577 2.558l-7.439-.027a4.06 4.06 0 0 0 .953-2.613c0-1.564-.909-2.64-.909-2.64h7.404c1.421 0 2.577 1.185 2.577 2.64z"/>
  <path fill="#101010" d="M3.717 9.213c-.856-.832-1.456-1.907-1.456-3.182v-.136C2.331 3.717 4.08 1.963 6.206 1.9h13.537c.353.019.635.272.635.642v11.734c.31.055.46.1.76.208.238.09.564.28.564.28V2.542C21.684 1.43 20.82.534 19.734.534H6.197C3.277.58.93 3.03.93 6.031c0 1.745.776 3.236 2.047 4.285.088.072.168.163.397.163.397 0 .68-.326.662-.678-.009-.299-.132-.407-.318-.588"/>
  <path fill="#101010" d="M19.39 15.044H8.774a1.314 1.314 0 0 0-1.289 1.329v1.564c.018.723.618 1.338 1.333 1.338h.785v-1.338h-.785v-1.528h.432c1.342 0 2.33 1.275 2.33 2.64 0 1.211-1.077 2.757-2.877 2.63-1.597-.108-2.462-1.563-2.462-2.63V5.796c0-.597-.477-1.085-1.059-1.085H4.123v1.356h.785v12.99c-.044 2.64 1.836 3.97 3.795 3.97l10.696.036c2.153 0 3.9-1.79 3.9-4.005s-1.756-4.014-3.91-4.014m2.577 4.095c-.044 1.42-1.183 2.559-2.577 2.559l-7.44-.027a4.06 4.06 0 0 0 .954-2.613c0-1.564-.91-2.64-.91-2.64H19.4c1.42 0 2.576 1.184 2.576 2.64zM16.53 6.311H8.526V4.955h8.004a.67.67 0 0 1 .662.678.67.67 0 0 1-.662.678"/>
  <path fill="#101010" d="M16.53 12.693H8.526v-1.356h8.004a.67.67 0 0 1 .662.678.67.67 0 0 1-.662.678m1.412-3.191H8.526V8.146h9.407a.67.67 0 0 1 .662.678.66.66 0 0 1-.653.678"/>
</svg>
