<svg xmlns="http://www.w3.org/2000/svg" fill="none" viewBox="0 0 20 20">
  <path fill="#f4f4f4" d="M10 20c5.523 0 10-4.477 10-10S15.523 0 10 0 0 4.477 0 10s4.477 10 10 10"/>
  <path stroke="#ec4c20" stroke-miterlimit="10" stroke-width=".3" d="M9.995 2.441 2.436 10l7.559 7.559L17.554 10z"/>
  <path fill="#040d5d" d="M9.995 4.166 4.162 10l5.833 5.834L15.83 10zM13.78 14.64a.86.86 0 1 0 0-1.72.86.86 0 0 0 0 1.72m-7.56 0a.86.86 0 1 0 0-1.72.86.86 0 0 0 0 1.72m7.56-7.56a.86.86 0 1 0 0-1.72.86.86 0 0 0 0 1.72m-7.56 0a.86.86 0 1 0 0-1.72.86.86 0 0 0 0 1.72"/>
  <path fill="#fff" d="m12 7.78-.41 1.06s-1.68-.72-2.08-.11c-.22.34.29.6 1 .7.46.072.9.232 1.3.47.71.46 1 2.72-2 2.66a3.2 3.2 0 0 1-1.95-.66l.41-1.06q.454.238.95.37c.422.102.857.139 1.29.11a.3.3 0 0 0 .15-.5 3.05 3.05 0 0 0-1.26-.42C7.69 10 7.85 8.82 8 8.49a1.91 1.91 0 0 1 2-1.25 4.65 4.65 0 0 1 2 .54"/>
</svg>
