<svg xmlns="http://www.w3.org/2000/svg" fill="none" viewBox="0 0 20 20">
  <path fill="#5b6dee" d="M10 20c5.523 0 10-4.477 10-10S15.523 0 10 0 0 4.477 0 10s4.477 10 10 10"/>
  <path fill="#fff" d="M8.313 9.387a5.7 5.7 0 0 0-1.04.09c.282-2.612 2.46-4.59 5.052-4.59 1.588 0 2.675.777 2.675 2.385 0 1.61-1.306 2.387-3.21 2.387-1.406 0-2.071-.27-3.477-.27zm-.103.954c-1.904 0-3.21.778-3.21 2.387s1.088 2.386 2.675 2.386c2.593 0 4.77-1.978 5.052-4.591a5.7 5.7 0 0 1-1.04.09c-1.406 0-2.071-.272-3.477-.272"/>
</svg>
