<svg xmlns="http://www.w3.org/2000/svg" fill="none" viewBox="0 0 20 20">
  <path fill="#f64a28" fill-rule="evenodd" d="M9.096.16c-.866.322-1.628.89-2.254 1.683-.633.8-1.526 2.546-1.67 3.262l-.09.452.928-.608c.51-.335 1.326-.798 1.812-1.03.487-.231.885-.463.885-.514s-.307-.152-.682-.225c-.549-.106-.69-.195-.728-.455-.027-.19.032-.33.144-.339.416-.035.947.045 1.74.262.79.215.907.21 2.227-.079.766-.168 1.61-.323 1.874-.344l.482-.038-.574-.651C12.079.276 10.345-.306 9.096.159m2.914 3.098c-3.673.785-7.305 3.075-9.428 5.944l-.622.84.436.596c.24.328.643.839.896 1.135l.46.54v-1.617c0-1.519.018-1.616.287-1.616.265 0 .3.155.459 2.01l.171 2.011.543.457c1.983 1.672 5.464 3.137 8.11 3.412l.951.1.449-1.077c.641-1.542.604-1.607-.497-.868-1.07.717-1.613.909-1.786.63-.182-.296-.042-.474.703-.893.383-.215 1.088-.68 1.566-1.032.98-.72.953-.64 1.156-3.53.087-1.236.123-1.364.383-1.364.274 0 .286.09.266 2.011-.023 2.143-.247 3.33-.969 5.115l-.356.881.65-.089c1.894-.26 3.247-1.526 3.449-3.229.078-.657-.257-2.393-.51-2.647-.063-.063-.27.114-.46.393-.357.522-.798.666-.937.305-.043-.113.151-.545.431-.961l.51-.757-.38-.51c-1.404-1.882-2.945-3.233-5.01-4.392-1.194-.67-1.363-.861-1.044-1.18.181-.182 1.411.37 2.519 1.13.939.644.96.578.32-.962-.44-1.057-.45-1.067-.97-1.057-.289.005-1.074.127-1.746.27m3.237-.047c.066.148.356.966.644 1.818.333.983.633 1.626.823 1.759.165.115.688.692 1.163 1.282l.863 1.073.257-.674c.366-.957.34-2.516-.053-3.266-.52-.992-1.597-1.77-2.769-2.004a13 13 0 0 1-.776-.178c-.223-.064-.25-.029-.152.19m-11.68.181C1.516 4.101.605 5.85 1.16 8.016c.13.505.287.97.351 1.034s.234-.064.378-.286c.144-.22.66-.822 1.148-1.335.8-.841.927-1.062 1.284-2.226.218-.711.488-1.47.6-1.688.198-.385.194-.395-.195-.39-.22.002-.741.123-1.16.267m7.012 2.971c.155.362.282.686.282.718 0 .033-.323.06-.718.06s-.718-.024-.718-.053c0-.215.617-1.383.73-1.383.078 0 .27.296.424.658M8.554 7.38c.072.062-.866 1.054-.996 1.054-.116 0-.563-1.4-.475-1.487.062-.062 1.329.31 1.471.433m4.493.336c-.126.395-.27.718-.318.718-.131 0-1.068-.992-.996-1.055.133-.116 1.36-.483 1.449-.433.052.029-.009.375-.135.77m-1.79.43c1.947 1.187.99 4.175-1.275 3.98-2.737-.234-2.585-4.266.161-4.266.393 0 .83.113 1.115.286m-3.986 1.867c0 .395-.03.719-.068.719-.19 0-1.368-.65-1.368-.754 0-.114 1.092-.672 1.329-.68.059-.001.107.32.107.716m6.53-.402c.358.174.65.367.65.428 0 .126-1.053.693-1.286.693-.083 0-.15-.317-.15-.718 0-.395.031-.719.069-.719.037 0 .36.143.718.316m-12.4 1.665c-.857 2.15-.263 4.183 1.49 5.094.546.284 2.09.722 2.19.621.026-.026-.029-.213-.121-.415-.092-.203-.13-.47-.082-.593.16-.418.528-.229.851.437l.322.662.901-.092c1.153-.118 1.756-.239 1.754-.352-.001-.05-.6-.399-1.33-.776-2.078-1.075-3.911-2.556-5.23-4.227l-.59-.748zm6.76.703c.221.212.403.459.403.547 0 .163-1.366.67-1.484.551-.112-.111.383-1.484.534-1.484.08 0 .325.174.547.386m4.883.324c.125.39.197.74.16.777-.062.062-1.329-.31-1.471-.433-.072-.062.865-1.054.996-1.054.049 0 .19.32.315.71m-2.263.906c-.156.506-.49 1.113-.613 1.113-.097 0-.743-1.189-.743-1.368 0-.038.328-.068.728-.068.688 0 .722.017.628.323m-1.715 4.213a13 13 0 0 1-1.63.31l-.912.108.574.651c1.771 2.01 4.32 2.012 6.087.005l.57-.647-1.196-.174c-.657-.095-1.377-.242-1.6-.327-.516-.197-.997-.178-1.893.074" clip-rule="evenodd"/>
</svg>
