<svg xmlns="http://www.w3.org/2000/svg" viewBox="0 0 96 96">
  <circle cx="48" cy="48" r="48" fill="#6747ed"/>
  <path fill="#fff" fill-rule="evenodd" d="M47.3 54.2c-7.1 0-12.8-5.7-12.8-12.8s5.7-12.8 12.8-12.8 12.8 5.7 12.8 12.8-5.7 12.8-12.8 12.8m0-32c10.6 0 19.2 8.6 19.2 19.2s-8.6 19.2-19.2 19.2S28.1 52 28.1 41.4s8.6-19.2 19.2-19.2m18.3 39.4c1.3 1.3 1.3 3.3 0 4.5L52.8 78.9c-1.3 1.3-3.3 1.3-4.5 0-1.3-1.3-1.3-3.3 0-4.5l12.8-12.8c1.2-1.3 3.3-1.3 4.5 0M73 25.4c0 1.8-1.4 3.2-3.2 3.2s-3.2-1.4-3.2-3.2 1.4-3.2 3.2-3.2c1.7 0 3.2 1.4 3.2 3.2" clip-rule="evenodd"/>
</svg>
