<svg xmlns="http://www.w3.org/2000/svg" viewBox="0 0 512 512">
  <path fill="#7b2bf9" d="M250.1 0h11.8l1.2.3c2.3.1 4.6.1 6.9.3 5.9.5 11.8.8 17.7 1.6 7.4 1 14.9 2.2 22.3 3.7 16.2 3.4 32 8.4 47.2 15 72.6 31.3 126.7 94.3 146.6 170.8 2.4 9.1 4.2 18.4 5.6 27.7.8 5.5 1.4 11.1 1.8 16.6.4 4.3.4 8.7.6 13 .1.4.2.7.3 1.1v11.8c-.1.2-.2.4-.3.7-.1 2.5-.1 5-.3 7.5-.4 5.1-.6 10.2-1.3 15.3-1.1 8.2-2.3 16.3-3.9 24.4-4.1 19.5-10.5 38.4-19.1 56.3-17.3 36.3-42.8 67.9-74.6 92.4-27.1 21.1-58.1 36.4-91.3 45-14.3 3.8-28.8 6.3-43.6 7.4-6.3.5-12.6.7-18.9 1-3.2.1-6.5 0-9.7-.2-5.8-.3-11.7-.5-17.5-1.1-5.9-.6-11.8-1.4-17.7-2.3-12.5-2-24.8-4.9-36.8-8.9C95.2 473 32.3 407.2 9.3 324.4 5 309.1 2.2 293.5 1 277.6c-.4-5.9-.8-11.9-1-17.8-.1-3.5 0-7.1.2-10.6.4-6.8.7-13.5 1.3-20.2.6-6.3 1.5-12.7 2.6-18.9 2.7-15.3 6.9-30.3 12.5-44.8 29.5-77.5 94.7-136 175-156.9 9.1-2.4 18.4-4.2 27.7-5.6 5.5-.8 11.1-1.4 16.6-1.8 4.4-.4 8.8-.4 13.1-.6.5-.2.8-.3 1.1-.4m5.8 444.4c104 .5 187.9-84.5 188.6-186.2.7-105.8-84-189.3-186.2-190.4-107.1-1.1-189.5 84.5-190.6 186-1.2 106.8 85.5 191 188.2 190.6"/>
  <path fill="#fff" d="M255.9 444.4c-102.7.5-189.4-83.7-188.3-190.6 1.1-101.4 83.5-187.1 190.6-186 102.2 1.1 186.9 84.6 186.2 190.4-.5 101.7-84.4 186.6-188.5 186.2m101.2-245.2c-.6-.5-1-.9-1.4-1.2-2.1-1.6-4.1-3.3-6.2-4.9a303.8 303.8 0 0 0-102.4-51.8c-16.6-4.9-33.7-7.8-50.9-8.7-6.4-.3-12.8 0-19.2.2-6.3.2-12.6 1-18.8 2.3-10.7 2.2-20.9 5.7-30.2 11.5-8.8 5.4-16 13.1-20.7 22.4-5 9.9-6 20.6-4.9 31.5.9 7.9 3 15.7 6 23 5.2 13.1 12.6 24.9 21.2 36.1 9.1 11.7 19.3 22.4 30.5 32 3.1 2.8 7.8 3 11 .3q25.35-19.95 53.1-36.3c4.2-2.3 6.8-6.6 6.9-11.3.4-6.3.8-12.7 1.3-19 .4-4.9.9-9.8 1.6-14.7 1.2-7.9 2.5-15.9 4.1-23.7 2.2-11.3 5.2-22.5 9-33.4.6-2.5 3.2-4 5.7-3.4.2.1.4.1.6.2 1.8.6 3.7 1.2 5.5 1.8 3.4 1.1 4.6 3.4 3.4 6.8-5.7 17.3-9.8 35.1-12.1 53.1-1.1 8.5-1.9 17-2.6 25.5-.5 7.2-.6 14.5-.8 21.7-.1 4.1.1 8.3.2 12.4 0 2.3.1 4.5.2 6.8.5 7.5.9 15 1.6 22.4q.75 8.55 2.1 17.1c1.3 7.9 3 15.8 4.6 23.7.9 4.2-.8 7.6-4.8 9.3-2.9 1.2-5.8 2.3-8.7 3.5-4.1 1.7-8.8 1.6-12.7-.4-14.7-6.8-28.9-14.4-42.7-22.9-25.7-16.3-48.9-35.5-68-59.4-9.7-12.2-18-25.3-24-39.7-1.5-3.7-2.8-7.5-4.1-11.3-.3-.9-.8-1.7-1.8-1.4-.6.2-1.2.7-1.4 1.3q-3.15 13.5-3.6 27.3c-.2 7.6 0 15.3.5 22.9.4 6.1 1.2 12.1 2.4 18.1 2.4 13.1 6.4 25.9 11.9 38 3.8 8.3 8.2 16.3 13.2 23.9.7 1.5 2.3 2.3 3.9 2.1 1.5-.2 2.8-1.3 3.2-2.8.6-1.3 1.2-2.6 1.9-3.9 6.3-11.4 14.6-21.3 23.8-30.5 2.2-2.1 5.7-2.3 8.1-.4 1 .7 1.9 1.5 2.8 2.2 2.7 2 3.3 5.8 1.3 8.5-.2.3-.5.6-.8.9-6.3 6.2-12 13-17 20.2-3.6 5.4-6.9 11-8.3 17.4-1.5 6.6.5 10.8 6.6 13.6 4.6 2 9.5 3.1 14.5 3.2 4.5.2 9 .2 13.4-.2 7.1-.7 14.3-1.5 21.3-2.9 16.7-3.4 33.2-8.1 49.1-14.2 22.7-8.5 44.8-18.5 66.2-30 25.4-13.5 49.5-29.1 72.1-46.8 1.2-.8 1.9-2.2 1.9-3.6.3-5.8.8-11.6 1-17.3.2-5 .2-10 .3-15 0-2.2-.1-4.4-.2-6.6-.2-4.9-.2-9.8-.5-14.7-.4-6-.9-12-1.6-17.9-.8-6.8-1.7-13.7-2.8-20.5-2.4-14.8-6.2-29.3-11.3-43.4-4-11.1-9-21.7-15.8-31.3-4.4-6.3-9.5-12.1-16.1-16.2-7.5-4.7-15.4-6-23.9-2.8-4.9 2-9.4 4.9-13.2 8.6-6.6 6.2-11.7 13.6-16.2 21.5-1.6 2.9-.8 5.2 2.3 6.4 28.4 11 55.2 25.9 79.5 44.3 3.8 2.8 6.4 6.9 7.3 11.5.8 4 1.5 7.9 2 11.9.8 6.5-2.6 11.7-8.5 13.2-18.2 4.6-36 10.5-53.3 17.6-15.7 6.4-31.1 13.6-46.1 21.5-3 1.5-5.2.1-5.2-3.2.1-2.6.3-5.1.3-7.7 0-3.5 1.5-5.7 4.8-7.2 9.6-4.4 19-9.1 28.6-13.3 19.3-8.6 39.2-15.7 59.6-21.3 3.5-.8 6.8-1.6 10.4-2.5M255.8 428.6c7.3-.1 14.6-.6 21.9-1.6 1.2 0 2.2-.8 2.6-1.9.3-1.1-.2-2.3-1.1-2.9-7.7-6.5-13.6-14.4-18.7-23-3.7-6.4-7-13-9.8-19.8-1-2.4-2.7-3.1-5.1-2.2-18.5 7.1-37.5 12.8-56.9 16.8-7.9 1.6-15.8 2.7-23.9 3.2-1.3.1-2.3.4-2.7 1.7s.4 2.1 1.5 2.7c3.3 2 6.5 4 9.9 5.9 19.8 10.9 41.6 17.7 64 20 6.1.6 12.2.7 18.3 1.1m-2.6-302.7c3.8 0 6.1-1.4 7.6-4.1 3.6-6.7 7.9-13 12.6-18.9 3.6-4.5 7.6-8.5 12.1-12.1.9-.6 1.3-1.7 1-2.8-.2-1-1.1-1.8-2.1-2l-1.8-.3c-6.9-.7-13.7-1.5-20.6-1.9-4.9-.2-9.8-.2-14.7.2-6.6.5-13.1 1.1-19.6 2-15.2 2.4-30.1 6.9-44.1 13.4-9.6 4.4-18.7 9.7-27.3 15.8-.8.6-1.5 1.2-1.1 2.3.4 1 1.3 1.1 2.2.9 7.6-1.4 15.2-2.2 22.9-2.4 6.5-.1 13 .1 19.5.4q9.15.6 18.3 1.8c10.2 1.4 20.3 3.5 30.2 6.3 2 .8 3.7 1.2 4.9 1.4m56.3 292.6c2-.3 4.1-.5 6-1 6.4-1.6 11.6-5.1 16.3-9.5 8.2-7.7 14.1-17 19.1-27 .7-1.3.2-3-1.1-3.7-.5-.2-1-.4-1.5-.3-3.3.1-6.6.4-9.9.4-5.3 0-10.6-.1-15.8-.5-5.4-.3-10.9-.7-16.2-1.6-8-1.2-15.9-2.7-23.8-4.3-4-.8-8-2-12-3-1.5-.5-3.2-.1-4.3 1.1-1 1.2-1.2 2.9-.4 4.2 3 5.9 5.7 12 8.9 17.8 4.2 7.9 10 14.8 17.1 20.4 5.1 4.2 10.8 6.8 17.6 7m-78.8-148c-6.8 2.7-49 32.1-51.7 36 18.6 13.4 38.6 24.6 59.7 33.6-5-22.9-7.6-46.2-8-69.6M334 361.6c3.5-.1 7-.2 10.5-.4s6.9-.8 10.4-1c3.9-.2 6-2.2 7.2-5.8 4.4-13.6 7.8-27.5 10.1-41.6.2-1 .2-1.9-.7-2.5-.9-.5-1.7-.1-2.5.5-2.9 2.1-5.8 4.2-8.8 6.2-20.2 13.8-41.3 26.3-63.1 37.4-.9.4-1.6 1-1.5 2 .1 1.1 1 1.5 2 1.7 12 2.2 24.2 3.4 36.4 3.5m85.4-60.6c-.2-2.9-.3-5.9-.8-8.8-.8-4.6-1.7-9.1-2.9-13.6-.8-3-4.2-3.7-6.5-1.6-4.9 4.6-9.9 9.2-14.8 13.8-1.8 1.5-3 3.5-3.6 5.8-.5 2.2-.8 4.5-1.1 6.8-1.1 6.7-1.9 13.4-3.3 20-1.6 8.1-3.7 16.1-5.6 24.1-.6 1.8.4 3.8 2.2 4.4.9.3 1.9.2 2.8-.3.8-.4 1.5-.8 2.3-1.1 8.2-4.3 15.4-9.8 20.9-17.3 6.9-9.3 10.6-20.6 10.4-32.2m-6.5-106c2.3.1 3.5-1.5 2.8-3.7-.1-.4-.3-.8-.5-1.2-7.2-17.3-17.2-33.3-29.6-47.4-3.5-4-7.3-7.7-11-11.4-.5-.4-1.2-.5-1.9-.3-.7.3-1.1 1.1-.8 1.8 0 .1 0 .1.1.2.3.6.5 1.3.7 1.9 6.7 16.6 11.6 33.9 14.7 51.6.6 4.4 4.4 7.7 8.9 7.5 2.9 0 5.9.1 8.8.3 2.6.1 5.2.4 7.8.7m-12.6 14.8h-1.7c-1.3-.2-2.5.5-3 1.7-.6 1.3 0 2.3.8 3.2 2 2.4 4.1 4.7 5.9 7.2 4 5.4 7.9 10.9 11.8 16.4 1.6 2.2 4.5 2.2 5.9-.1 2.1-3.5 3.6-7.4 4.5-11.3 1.5-6.8-.7-11.1-6.9-13.8-.1-.1-.2-.1-.4-.1-5.4-2.4-11.1-3-16.9-3.2m-7.3 56.3h-.2v.4c0 .9-.1 1.8.9 2.2s1.7-.1 2.3-.8c2.7-2.8 5.4-5.5 8-8.3 2-2.1 2.2-3.6.7-6-2.7-4.4-5.5-8.6-8.3-12.9-.6-.9-1.3-1.4-2.3-1.1s-1.2 1.2-1.2 2.2c.1 8.1.1 16.2.1 24.3M369.9 385c.4-.2.7-.4 1-.6.9-.8 1.9-1.6 2.7-2.5 2.7-2.6 5.4-5.2 8-7.9.4-.5.6-1.2.4-1.9-.2-.9-1-1.1-1.9-1-.2 0-.3 0-.5.1-2.2.6-4.4 1.3-6.6 2-.5.2-1 .5-1.3 1-1.3 2.9-2.6 5.7-3.8 8.7-.3 1 .5 2.1 2 2.1m58.6-126.2c-.1-.5-.1-1-.1-1.5 0-.3-.2-.7-.4-.8q-.45 0-.9.3c-1.4 1.1-1.6 3.1-.5 4.5 0 .1.1.1.1.2.5.6 1.2.5 1.4-.3s.3-1.5.4-2.4"/>
  <path fill="#7b2bf9" d="M357.1 199.2c-3.6.9-7 1.7-10.3 2.6-20.4 5.6-40.3 12.7-59.6 21.3-9.6 4.3-19 9-28.6 13.3-3.2 1.5-4.8 3.7-4.8 7.2 0 2.6-.2 5.1-.3 7.7-.1 3.3 2.2 4.8 5.2 3.2 15-7.9 30.4-15.1 46.1-21.5 17.3-7.2 35.1-13 53.3-17.6 5.9-1.5 9.3-6.7 8.5-13.2-.5-4-1.2-8-2-11.9-.9-4.6-3.5-8.7-7.3-11.5-24.3-18.4-51.1-33.3-79.5-44.3-3.1-1.2-3.9-3.6-2.3-6.4 4.5-7.9 9.6-15.2 16.2-21.5 3.8-3.7 8.3-6.6 13.2-8.6 8.4-3.3 16.4-2 23.9 2.8 6.6 4.2 11.7 9.9 16.1 16.2 6.8 9.7 11.7 20.3 15.8 31.3 5.1 14.1 8.9 28.6 11.3 43.4 1.1 6.8 2 13.6 2.8 20.5.7 6 1.2 11.9 1.6 17.9.3 4.9.4 9.8.5 14.7.1 2.2.2 4.4.2 6.6q0 7.5-.3 15c-.2 5.8-.7 11.6-1 17.3 0 1.4-.7 2.8-1.9 3.6-22.6 17.7-46.8 33.3-72.1 46.8-21.3 11.5-43.5 21.5-66.2 30-16 6.1-32.4 10.8-49.1 14.2-7 1.4-14.2 2.2-21.3 2.9-4.5.4-8.9.5-13.4.2-5-.1-9.9-1.2-14.5-3.2-6.1-2.9-8.1-7.1-6.6-13.6 1.5-6.4 4.7-12 8.3-17.4 5.1-7.2 10.8-14 17-20.2 2.5-2.3 2.7-6.1.4-8.6-.3-.3-.6-.6-.9-.8-.9-.8-1.8-1.5-2.8-2.2-2.4-1.9-5.9-1.7-8.1.4-9.1 9.2-17.5 19-23.8 30.5-.7 1.3-1.4 2.6-1.9 3.9-.5 1.5-1.7 2.5-3.2 2.8-1.6.2-3.2-.6-3.9-2.1-5-7.6-9.4-15.6-13.2-23.9-5.5-12.1-9.5-24.9-11.9-38-1.1-6-1.9-12-2.4-18.1-.5-7.6-.7-15.3-.5-22.9q.45-13.8 3.6-27.3c.2-.6.8-1.1 1.4-1.3 1-.3 1.5.5 1.8 1.4 1.4 3.8 2.6 7.6 4.1 11.3 6 14.4 14.3 27.5 24 39.7 19.1 23.9 42.2 43.1 68 59.4 13.7 8.5 28 16.2 42.7 22.9 4 2 8.6 2.1 12.7.4 2.9-1.2 5.8-2.3 8.7-3.5 4-1.7 5.7-5.1 4.8-9.3-1.6-7.9-3.2-15.7-4.6-23.7-1-5.7-1.6-11.4-2.1-17.1-.7-7.5-1.1-14.9-1.6-22.4-.1-2.3-.2-4.5-.2-6.8-.1-4.1-.3-8.3-.2-12.4.2-7.2.3-14.5.8-21.7.6-8.5 1.4-17 2.6-25.5 2.3-18.1 6.4-35.9 12.1-53.1 1.2-3.4 0-5.7-3.4-6.8-1.8-.6-3.6-1.2-5.5-1.8-2.4-1-5.1.2-6.1 2.6-.1.2-.1.4-.2.6-3.7 10.9-6.7 22.1-9 33.4-1.5 7.9-2.9 15.8-4.1 23.7-.7 4.9-1.2 9.8-1.6 14.7-.5 6.3-.9 12.6-1.3 19-.1 4.7-2.8 9.1-6.9 11.3q-27.75 16.35-53.1 36.3c-3.3 2.6-8 2.5-11-.3-11.2-9.6-21.4-20.3-30.5-32-8.6-11.1-15.9-23-21.2-36.1-3-7.4-5.1-15.1-6-23-1.2-10.9-.1-21.6 4.9-31.5 4.7-9.2 11.8-17 20.7-22.4 9.3-5.8 19.5-9.3 30.2-11.5 6.2-1.3 12.5-2.1 18.8-2.3 6.4-.2 12.8-.5 19.2-.2 17.3.9 34.4 3.8 50.9 8.7 37.1 10.6 71.9 28.2 102.4 51.8 2.1 1.6 4.1 3.3 6.2 4.9.4.2.7.5 1.3 1.1M255.8 428.6c-6.1-.4-12.2-.5-18.2-1.1-22.5-2.3-44.2-9.1-64-20-3.4-1.8-6.6-3.9-9.9-5.9-1-.6-1.8-1.4-1.5-2.7.4-1.3 1.4-1.6 2.7-1.7 8-.5 16-1.6 23.9-3.2 19.4-4 38.4-9.6 56.9-16.8 2.4-.9 4.1-.2 5.1 2.2 2.8 6.8 6.1 13.4 9.8 19.8 5.1 8.6 11 16.5 18.7 23 1 .6 1.4 1.8 1.1 2.9-.4 1.1-1.4 1.9-2.6 1.9-7.4.9-14.7 1.5-22 1.6"/>
  <path fill="#7b2bf9" d="M253.2 125.9c-1.1-.3-2.9-.6-4.7-1.1-9.9-2.7-20-4.8-30.2-6.3-6.1-.8-12.2-1.5-18.3-1.8-6.5-.4-13-.6-19.5-.4-7.7.2-15.4 1-22.9 2.4-1 .2-1.8.1-2.2-.9-.4-1.1.3-1.7 1.1-2.3 8.6-6.1 17.7-11.4 27.3-15.8 14-6.5 28.8-11.1 44.1-13.4 6.5-1 13.1-1.6 19.6-2 4.9-.4 9.8-.4 14.7-.2 6.9.4 13.7 1.2 20.6 1.9l1.8.3c1.1.1 1.9.9 2.1 2 .3 1.1-.1 2.2-1 2.8-4.5 3.6-8.5 7.6-12.1 12.1-4.8 5.9-9 12.3-12.6 18.9-1.7 2.5-4 3.8-7.8 3.8m56.3 292.6c-6.8-.2-12.5-2.9-17.7-6.9-7-5.6-12.8-12.5-17.1-20.4-3.3-5.8-6-11.9-8.9-17.8-.8-1.3-.7-3 .4-4.2s2.8-1.7 4.3-1.1c4 1 8 2.2 12 3 7.9 1.6 15.9 3.1 23.8 4.3 5.4.8 10.8 1.2 16.2 1.6 5.3.3 10.6.4 15.8.5 3.3 0 6.6-.3 9.9-.4 1.5-.1 2.8 1 3 2.5q0 .75-.3 1.5c-5 10-11 19.3-19.1 27-4.7 4.4-9.9 8-16.3 9.5-1.9.4-4 .6-6 .9m-78.8-148c.3 23.4 3 46.8 8 69.7-21.1-9-41.1-20.3-59.7-33.6 2.7-4 44.9-33.4 51.7-36.1M334 361.6c-12.2-.1-24.4-1.3-36.4-3.5-1-.2-1.9-.6-2-1.7-.1-1 .6-1.5 1.5-2 21.8-11.1 42.9-23.6 63.1-37.4 2.9-2 5.9-4.1 8.8-6.2.8-.5 1.5-1 2.5-.5 1 .6.9 1.4.7 2.5-2.3 14.1-5.7 28-10.1 41.6-1.2 3.6-3.3 5.6-7.2 5.8-3.5.2-6.9.7-10.4 1-3.5.2-7 .3-10.5.4m85.4-60.6c.1 11.6-3.5 22.9-10.4 32.2-5.5 7.5-12.7 13-20.9 17.3-.8.4-1.5.8-2.3 1.1-1.7.9-3.8.3-4.7-1.3-.5-.9-.6-1.9-.3-2.8 1.9-8 3.9-16 5.6-24.1 1.3-6.6 2.2-13.3 3.3-20 .4-2.3.6-4.6 1.1-6.8.6-2.2 1.9-4.3 3.6-5.8 4.9-4.6 9.9-9.2 14.8-13.8 2.2-2.1 5.7-1.4 6.5 1.6 1.2 4.5 2.1 9 2.9 13.6.6 2.9.6 5.9.8 8.8m-6.5-106c-2.6-.2-5.2-.6-7.9-.7-2.9-.2-5.9-.2-8.8-.3-4.5.2-8.3-3.1-8.9-7.5q-4.65-26.55-14.7-51.6c-.3-.6-.5-1.3-.7-1.9-.4-.7-.1-1.6.6-1.9.1 0 .1-.1.2-.1.7-.2 1.4-.1 1.9.3 3.7 3.7 7.5 7.4 11 11.4 12.4 14 22.5 30 29.6 47.4.2.4.3.8.5 1.2.8 2.2-.5 3.8-2.8 3.7m-12.6 14.8c5.8.2 11.5.8 17 3 .1 0 .2.1.4.1 6.2 2.7 8.4 7 6.9 13.8-.9 4-2.4 7.8-4.5 11.3-1.4 2.4-4.3 2.4-5.9.1-3.9-5.5-7.8-11-11.8-16.4-1.8-2.5-3.9-4.8-5.9-7.2-.8-1-1.5-1.9-.8-3.2.5-1.2 1.8-1.8 3-1.7.5.2 1 .2 1.6.2m-7.3 56.3v-24.3c0-1 .1-1.8 1.2-2.2s1.8.2 2.3 1.1c2.8 4.3 5.6 8.6 8.3 12.9 1.5 2.4 1.2 3.9-.7 6-2.6 2.8-5.3 5.5-8 8.3-.7.7-1.4 1.2-2.3.8-1-.4-.9-1.3-.9-2.2v-.4zM369.9 385c-1.5 0-2.3-1.1-1.8-2.3 1.2-2.9 2.5-5.8 3.8-8.7.3-.5.7-.8 1.3-1 2.2-.7 4.4-1.3 6.6-2 .2 0 .3-.1.5-.1.8-.1 1.7.1 1.9 1 .1.7 0 1.4-.4 1.9-2.6 2.7-5.3 5.3-8 7.9-.9.9-1.8 1.7-2.7 2.5-.5.4-.9.6-1.2.8m58.6-126.2-.3 2.4c-.2.8-.9.9-1.4.3-1.2-1.3-1.1-3.3.2-4.5.1-.1.1-.1.2-.1.2-.2.6-.3.9-.3.2.1.4.5.4.8-.1.4-.1.9 0 1.4"/>
</svg>
