<svg xmlns="http://www.w3.org/2000/svg" fill="none" viewBox="0 0 20 20">
  <circle cx="10" cy="10" r="10" fill="#7a2bf9"/>
  <path fill="#fff" fill-rule="evenodd" d="M17.163 10.213c-.002.049-.068.061-.087.017l-.025-.058a.11.11 0 0 1 .012-.108l.026-.034c.032-.04.077-.035.077.01 0 .06-.002.112-.003.173m-.347-.947a.145.145 0 0 1-.25.008l-.028-.043a8.5 8.5 0 0 0-.734-.964.12.12 0 0 1 .09-.197h.002c.642 0 .979.158 1.082.352.085.162.059.445-.162.844m-.144 3.357q-.051.132-.108.261l-.018.036c-.236.455-.632.813-1.162 1.062a.153.153 0 0 1-.214-.18c.176-.63.31-1.312.396-2.028a.54.54 0 0 1 .183-.344q.328-.283.609-.564l.002-.002a.172.172 0 0 1 .287.073c.184.614.195 1.187.025 1.686m-1.44 2.274a7 7 0 0 1-.465.453c-.064.058-.162-.014-.125-.092a7 7 0 0 0 .156-.359.08.08 0 0 1 .054-.047q.152-.039.297-.085c.078-.025.14.07.083.13m-1.058-.569a6 6 0 0 1-.674.06 8.4 8.4 0 0 1-1.804-.145.08.08 0 0 1-.022-.151l.408-.212a22 22 0 0 0 2.624-1.625.08.08 0 0 1 .127.079c-.108.65-.258 1.26-.446 1.816a.27.27 0 0 1-.213.178m-.22.866c-.512 1.006-1.142 1.57-1.753 1.56-.663-.013-1.325-.704-1.815-1.897v-.001a.15.15 0 0 1 .079-.195l.015-.007a.15.15 0 0 1 .103-.007 10 10 0 0 0 2.666.391 8 8 0 0 0 .587-.022.122.122 0 0 1 .118.178m-3.03 1.913q-.456.059-.924.059a7.1 7.1 0 0 1-3.869-1.131c-.079-.051-.045-.173.048-.177l.054-.003q.436-.03.955-.128a14.6 14.6 0 0 0 2.406-.71.15.15 0 0 1 .193.084v.002c.332.806.74 1.416 1.198 1.804a.114.114 0 0 1-.06.2m-4.143-5.021a19 19 0 0 1 2.182-1.513c.018 1.038.132 2.035.333 2.935q-.451-.192-.898-.424a13 13 0 0 1-1.617-.998m-1.964 2.781c-.15-.284.044-.942 1.033-1.943a.246.246 0 0 0-.022-.367q-.06-.045-.118-.094a.247.247 0 0 0-.33.018l-.039.038c-.494.508-.84.978-1.034 1.4a.169.169 0 0 1-.293.023A7.1 7.1 0 0 1 2.834 10q0-.765.156-1.495c.015-.074.119-.079.14-.007.15.491.391.999.726 1.512a9.5 9.5 0 0 0 1.747 1.966q.361.311.758.603c.536.393 1.119.756 1.738 1.078.275.143.543.28.817.403a.62.62 0 0 0 .482.013q.194-.077.39-.158a.31.31 0 0 0 .182-.364l-.01-.043a14 14 0 0 1-.35-3.001h-.001v-.038q0-.089-.002-.176v-.091h.001a16 16 0 0 1 .021-.748c.067-1.292.286-2.506.634-3.528a.18.18 0 0 0-.112-.229l-.276-.09a.18.18 0 0 0-.224.113c-.378 1.109-.611 2.425-.673 3.817a.52.52 0 0 1-.256.428 20 20 0 0 0-2.237 1.529.36.36 0 0 1-.463-.01 8.8 8.8 0 0 1-1.624-1.827c-.82-1.259-1.015-2.445-.549-3.339l.004-.006q.09-.148.185-.292c.536-.709 1.533-1.12 2.856-1.166q.125-.005.253-.005c.81 0 1.681.134 2.567.39l.058.016.045.014q.308.09.615.202l.015.006.21.078.049.018q.65.252 1.29.584a12.4 12.4 0 0 1 2.24 1.484c-1.255.288-2.715.842-4.182 1.59a.21.21 0 0 0-.116.179c-.005.09-.012.274-.017.419a.12.12 0 0 0 .174.11l.001-.001C11.55 9.175 13 8.605 14.243 8.304a.465.465 0 0 0 .351-.517 13 13 0 0 0-.077-.49.8.8 0 0 0-.309-.504 13.5 13.5 0 0 0-3.319-1.841.177.177 0 0 1-.091-.252c.486-.869 1.063-1.356 1.626-1.356h.017c.664.012 1.326.704 1.816 1.897.248.604.44 1.3.572 2.057l-.002-.001q.084.485.135 1l-.01.004.013.012a15.7 15.7 0 0 1 .007 2.924c-.888.718-1.986 1.432-3.193 2.072q-.595.316-1.186.586l-.018.008-.09.041q-.49.221-.965.408l-.054.021-.225.086-.044.017-.192.07-.023.008a13.4 13.4 0 0 1-1.917.538c-1.424.274-2.095.064-2.248-.225M5.84 4.164A7.1 7.1 0 0 1 10 2.834q.6 0 1.18.097a.12.12 0 0 1 .055.213c-.374.294-.722.728-1.03 1.29a.335.335 0 0 1-.384.163c-1.02-.287-2.023-.422-2.95-.39a7 7 0 0 0-.97.103c-.085.016-.131-.096-.06-.146m9.837 5.222a.083.083 0 0 1 .15-.05 7 7 0 0 1 .37.577.18.18 0 0 1-.023.21 9 9 0 0 1-.383.394.072.072 0 0 1-.122-.054 17 17 0 0 0 .008-1.077m-.743-4.583q.067.064.133.13a7.2 7.2 0 0 1 1.578 2.376.12.12 0 0 1-.133.165 3.6 3.6 0 0 0-.694-.05.36.36 0 0 1-.363-.296 10.5 10.5 0 0 0-.645-2.24c-.033-.076.063-.143.123-.085m2.71 3.572a7.76 7.76 0 0 0-2.12-3.9A7.76 7.76 0 0 0 10 2.189a7.76 7.76 0 0 0-5.524 2.288 8 8 0 0 0-.957 1.158 3 3 0 0 0-.222.348A7.76 7.76 0 0 0 2.187 10c0 2.087.813 4.049 2.289 5.524A7.76 7.76 0 0 0 10 17.813a7.76 7.76 0 0 0 5.524-2.289 7.8 7.8 0 0 0 1.63-2.376q.072-.145.124-.297a7.9 7.9 0 0 0 .37-4.455z" clip-rule="evenodd"/>
</svg>
