<svg xmlns="http://www.w3.org/2000/svg" fill="none" viewBox="0 0 20 20">
  <circle cx="10" cy="10" r="10" fill="#eb322a"/>
  <path fill="#fff" fill-rule="evenodd" d="M4.063 3.98a.4.4 0 0 1 .375-.145l10.164 1.613a.4.4 0 0 1 .227.119l2.457 2.578a.4.4 0 0 1 .023.533l-7.38 9.074a.4.4 0 0 1-.682-.105L4.003 4.377a.4.4 0 0 1 .06-.398m12.11 4.157-1.615-1.695L11.97 8.73zm-2.456-2.02L5.749 4.853l4.968 3.917zm-2.657 3.55 4.987-.704-5.817 7.151zm-1.617 6.3L5.32 5.532l4.962 3.912z" clip-rule="evenodd"/>
</svg>
