<svg xmlns="http://www.w3.org/2000/svg" viewBox="0 0 20 20">
  <circle cx="10" cy="10" r="10" fill="#fff"/>
  <path fill="#1a5aff" fill-rule="evenodd" d="M9.61.008C4.986.203 1.105 3.5.192 8.008a10.4 10.4 0 0 0 0 3.983c.312 1.54.997 3.012 1.976 4.244.343.43 1.14 1.235 1.548 1.559a10.05 10.05 0 0 0 8.325 1.997c3.85-.791 6.926-3.853 7.739-7.701a10 10 0 0 0-1.475-7.656c-.373-.56-.66-.904-1.235-1.481-.74-.744-1.367-1.222-2.242-1.71C13.296.39 11.368-.066 9.61.009m-1.3 5.416a3.43 3.43 0 0 1-1.915 2.794 3.6 3.6 0 0 1-1.035.304 6 6 0 0 0-.33.038l-.111.017v-3.44H8.33zm6.765 1.432v1.7l-1.693.01-1.692.008v6.871l-1.693-.009-1.693-.009-.01-3.52c-.006-2.388.003-3.615.028-3.81.195-1.499 1.388-2.698 2.907-2.92.111-.017 1.023-.029 2.024-.026l1.822.004z" clip-rule="evenodd"/>
</svg>
