<svg xmlns="http://www.w3.org/2000/svg" fill="none" viewBox="0 0 20 20">
  <path fill="#ff4a4a" d="M10 20c5.523 0 10-4.477 10-10S15.523 0 10 0 0 4.477 0 10s4.477 10 10 10"/>
  <path fill="#fff" d="M1.436 12.196h4.666a.3.3 0 0 0 .094-.013l.007-.002a.33.33 0 0 0 .14-.084.34.34 0 0 0 .099-.24V8.024a.254.254 0 0 0-.255-.254h-.75a.254.254 0 0 0-.255.254v2.916H2.355V8.024A.255.255 0 0 0 2.1 7.77h-.75a.255.255 0 0 0-.254.254v3.833a.34.34 0 0 0 .34.34m10.329.033h.753a.26.26 0 0 0 .181-.074.26.26 0 0 0 .076-.181V8.149a.342.342 0 0 0-.535-.28l-2.09 1.427a.26.26 0 0 1-.29 0L7.77 7.868a.341.341 0 0 0-.534.281v3.826a.256.256 0 0 0 .257.255h.753a.3.3 0 0 0 .098-.019.26.26 0 0 0 .158-.236V9.99l1.322.827a.34.34 0 0 0 .363 0l1.322-.827v1.985a.256.256 0 0 0 .256.255m2.133-4.46h4.667a.34.34 0 0 1 .34.339v3.833a.255.255 0 0 1-.255.255h-.75a.25.25 0 0 1-.18-.075.25.25 0 0 1-.075-.18V9.196a.17.17 0 0 0-.17-.17h-2.487a.17.17 0 0 0-.17.17v2.746a.26.26 0 0 1-.208.25l-.047.005h-.75a.3.3 0 0 1-.097-.02.26.26 0 0 1-.158-.235V8.11a.34.34 0 0 1 .34-.34"/>
  <path fill="#fff" d="M15.601 10.854v-.755a.25.25 0 0 1 .158-.233.3.3 0 0 1 .097-.02h.75a.254.254 0 0 1 .255.253v.755a.254.254 0 0 1-.255.253h-.75a.255.255 0 0 1-.255-.253"/>
</svg>
