<svg xmlns="http://www.w3.org/2000/svg" fill="none" viewBox="0 0 20 20">
  <circle cx="10" cy="10" r="10" fill="#fff"/>
  <path fill="#216c58" fill-rule="evenodd" d="M8.476.656C6.361 1.063 4.57 1.99 3.23 3.371c-3.529 3.64-3.593 9.451-.144 13.103a9.51 9.51 0 0 0 11.337 1.892c4.615-2.427 6.38-8.154 3.943-12.79-1.237-2.352-3.403-4.058-6.01-4.732-.778-.202-1.087-.24-2.122-.264C9.43.56 8.84.586 8.476.656m2.978.793c3.663.639 6.455 3.451 7.087 7.141.122.708.11.824-.084.899-.211.081-.308-.12-.482-1.003-.202-1.02-.505-1.835-.982-2.635A8.14 8.14 0 0 0 6.195 2.807c-2.21 1.155-3.799 3.325-4.214 5.759-.15.875-.234 1.028-.494.889-.155-.083-.167-.133-.12-.496a8.73 8.73 0 0 1 7.117-7.505c.831-.15 2.124-.152 2.97-.005m2.28 2.473c.121.121.121.55 0 .672-.07.07-.93.093-3.393.093-2.895 0-3.314-.015-3.421-.122-.142-.142-.158-.369-.042-.586.078-.146.198-.15 3.422-.15 2.494 0 3.364.023 3.434.093M10 5.273v.274h-.86V5H10zm1.328.048c0 .26-.023.312-.123.273a1.7 1.7 0 0 0-.43-.047c-.298 0-.306-.008-.306-.274V5h.86zm.172.624c.55.114 1.43.54 1.835.887.566.487.983 1.553.712 1.824-.062.062-.394.094-.977.094-.778 0-.901-.018-1.039-.156-.086-.086-.156-.189-.156-.229 0-.1-.39-.553-.476-.553-.039 0-.07.422-.07.938 0 .607-.03.937-.084.937a3 3 0 0 1-.43-.087l-.346-.087v-.958c0-.847-.016-.963-.137-.994-.304-.079-.332 0-.332.922 0 .997.007.987-.545.766l-.314-.125V7.716l-.215.14c-.433.282-.563.674-.363 1.096.177.373.703.604 2.101.923s1.897.497 2.528.905c.876.566 1.257 1.426 1.092 2.462-.173 1.09-1.112 1.947-2.466 2.253l-.45.103-.025.421c-.03.506-.11.622-.438.622-.34 0-.436-.124-.436-.563 0-.364-.007-.375-.235-.375s-.234.01-.234.375c0 .437-.096.563-.43.563-.339 0-.43-.126-.43-.594v-.406l-.566-.127c-1.5-.334-2.551-1.291-2.688-2.448-.064-.543.002-.576 1.115-.55l.923.023.239.428c.387.693.932.96 1.954.96 1.005 0 1.636-.296 1.832-.86.102-.29.1-.354-.01-.583a1.1 1.1 0 0 0-.367-.399l-.244-.14v1.468l-.302.09c-.576.173-.557.202-.557-.886 0-.79-.021-.976-.111-.976a.8.8 0 0 1-.235-.048c-.108-.042-.123.078-.123 1.008 0 .964-.012 1.054-.137 1.029a15 15 0 0 0-.43-.075l-.292-.046v-2.146l-.548-.141c-1.095-.282-1.924-.833-2.264-1.505-.271-.536-.27-1.457 0-2.022.372-.771 1.329-1.454 2.405-1.715.543-.131 2.199-.152 2.766-.035m-9.72 4.621c.044.054.121.376.173.715.408 2.713 2.25 5.08 4.832 6.214 1.11.487 1.62.581 3.176.586 1.233.003 1.488-.018 2.07-.176.785-.213 1.9-.725 2.57-1.18 1.817-1.235 3.09-3.263 3.448-5.494.1-.622.201-.8.412-.719.198.077.213.237.089.949-.308 1.762-1.06 3.22-2.36 4.568-1.743 1.808-4.022 2.721-6.542 2.622-1.3-.052-2.269-.297-3.437-.87-2.642-1.298-4.35-3.623-4.8-6.53-.081-.527-.077-.593.046-.683.17-.124.222-.124.323-.002" clip-rule="evenodd"/>
</svg>
