<svg xmlns="http://www.w3.org/2000/svg" fill="none" viewBox="0 0 20 20">
  <circle cx="10" cy="10" r="10" fill="#fff"/>
  <path fill="#000" d="M18.178 6.545a8.9 8.9 0 0 0-1.909-2.825 8.8 8.8 0 0 0-2.808-1.91 8.8 8.8 0 0 0-3.46-.699c-1.21 0-2.373.233-3.46.699a8.9 8.9 0 0 0-2.823 1.91A8.9 8.9 0 0 0 1.81 6.545a8.7 8.7 0 0 0-.699 3.463 8.85 8.85 0 0 0 2.607 6.288 8.6 8.6 0 0 0 2.824 1.894 8.8 8.8 0 0 0 3.46.699 8.83 8.83 0 0 0 6.283-2.609 8.85 8.85 0 0 0 2.607-6.288c0-1.195-.249-2.36-.714-3.447M7.054 9.17a3.28 3.28 0 0 1 3.196-2.468h6.175c.403.76.651 1.599.744 2.468zm10.115 1.677a7.1 7.1 0 0 1-.744 2.469H10.25a3.314 3.314 0 0 1-3.196-2.469zM4.897 4.9a7.17 7.17 0 0 1 5.104-2.112c1.924 0 3.74.745 5.105 2.112l.124.124h-4.98a4.93 4.93 0 0 0-3.522 1.46 4.84 4.84 0 0 0-1.381 2.685H2.833A7.17 7.17 0 0 1 4.897 4.9m5.104 12.327a7.17 7.17 0 0 1-5.104-2.111 7.2 7.2 0 0 1-2.064-4.27h2.514a5.04 5.04 0 0 0 1.38 2.686 4.93 4.93 0 0 0 3.523 1.46h4.98l-.124.124A7.17 7.17 0 0 1 10 17.227"/>
</svg>
