<svg xmlns="http://www.w3.org/2000/svg" fill="none" viewBox="0 0 21 21">
  <path fill="#dc3c7a" d="M18.257 9.205a8.537 8.537 0 1 1-17.074 0 8.537 8.537 0 0 1 17.074 0"/>
  <path fill="#000" fill-rule="evenodd" d="M9.72 16.742a7.537 7.537 0 1 0 0-15.075 7.537 7.537 0 0 0 0 15.075m0 1a8.537 8.537 0 1 0 0-17.075 8.537 8.537 0 0 0 0 17.075" clip-rule="evenodd"/>
  <path fill="#000" fill-rule="evenodd" d="m1.866 9.092 1.31 1.31q.074-.548.213-1.072L1.525 7.466l.707-.707 1.515 1.515a8.54 8.54 0 0 1 16.43 3.264 8.538 8.538 0 0 1-9.643 8.466 21 21 0 0 1-2.44.059c-2.595-.088-4.773-.645-5.75-1.413-.355-.279-.551-.586-.551-.908 0-.721.986-1.367 2.534-1.794a8.5 8.5 0 0 1-1.223-4.205L1.159 9.8zm3.495 6.618a19 19 0 0 1 3.45-.3c3.877 0 7.02 1.044 7.02 2.332l-.003.063A7.538 7.538 0 1 0 5.36 15.71" clip-rule="evenodd"/>
  <path fill="#fff" d="M19.227 11.538a7.588 7.588 0 1 1-15.176 0 7.588 7.588 0 0 1 15.176 0"/>
  <path fill="#fff" d="M19.227 11.538a7.588 7.588 0 1 1-15.176 0 7.588 7.588 0 0 1 15.176 0"/>
  <path fill="#fff" d="M19.227 11.538a7.588 7.588 0 1 1-15.176 0 7.588 7.588 0 0 1 15.176 0"/>
  <path fill="#000" d="M7.5 13.488H6.421l-.66-3.564h1.113l.242 2.084h.025l.257-2.084h.981l.277 2.084h.015l.237-2.084H9.97l-.67 3.564H8.224l-.357-1.983h-.015zm2.752-3.564h1.902v.962h-.86v.357h.78v.89h-.78v.378h.926v.977h-1.968zm3.794 3.564h-1.077V10.85h-.63v-.926h2.336v.926h-.629zm2.461-1.364h-.483v1.364h-1.088V9.924h1.088v1.218h.483V9.924h1.087v3.564h-1.087z"/>
</svg>
