<svg xmlns="http://www.w3.org/2000/svg" fill="none" viewBox="0 0 20 20">
  <path fill="#b7b5b1" fill-rule="evenodd" d="M19.957 10.931C19.487 16.017 15.21 20 10 20S.508 16.014.042 10.924l1.623-1.038-1.63-.838C.469 3.379 4.766 0 10 0c5.653 0 9.467 4.498 9.948 9.033l-1.698.846z" clip-rule="evenodd"/>
  <path fill="#244b81" fill-rule="evenodd" d="M9.633.819c-1.815.115-3.499.674-4.954 1.647C2.561 3.88 1.228 5.93.883 8.299c-.024.166-.028.227-.017.24.01.009.493.288 1.075.62l1.19.677c.072.042.126.08.12.086s-.548.355-1.204.775l-1.198.768c-.009.008.098.502.168.78.603 2.388 1.863 4.26 3.683 5.474 1.305.87 2.826 1.367 4.51 1.472.335.02 1.152.009 1.475-.022 2.433-.23 4.633-1.245 6.189-2.852a7.9 7.9 0 0 0 2.11-3.982c.041-.205.103-.61.12-.793l.009-.092-.294-.184a143 143 0 0 1-2.146-1.355q-.002-.016 1.9-1.073c.292-.162.533-.3.535-.307a4 4 0 0 0-.087-.33c-.855-2.974-2.459-5.132-4.733-6.367a8 8 0 0 0-1.33-.569 8.7 8.7 0 0 0-2.012-.42c-.2-.02-1.117-.038-1.313-.026M9.16 7.38c.408.694.748 1.26.755 1.258a182 182 0 0 0 1.494-2.403c.005-.014 1.16.007 1.175.022.005.004-.431.762-.968 1.684-.876 1.503-.975 1.679-.962 1.71.007.02.494.935 1.08 2.034l1.068 1.997-.23.008c-.125.005-.437.011-.692.014l-.464.006-.806-1.396c-.444-.768-.81-1.396-.813-1.396-.004 0-.37.618-.812 1.373s-.814 1.385-.826 1.4c-.02.026-.034.026-.626-.016a17 17 0 0 1-.612-.05c-.004-.003.503-.871 1.127-1.929l1.167-1.984.034-.06L8.2 7.946c-.576-.937-1.047-1.71-1.046-1.716.002-.014 1.088-.117 1.193-.114l.069.002z" clip-rule="evenodd"/>
  <path fill="#fff" d="M9.158 7.38c.409.694.749 1.26.755 1.258a183 183 0 0 0 1.495-2.403c.005-.014 1.16.007 1.175.022.004.004-.431.762-.968 1.684-.876 1.503-.975 1.679-.963 1.71a302 302 0 0 0 1.081 2.034l1.067 1.997-.228.008c-.126.005-.438.011-.693.015l-.464.005-.806-1.396c-.444-.768-.81-1.396-.814-1.396s-.369.618-.811 1.373-.814 1.385-.826 1.4c-.02.026-.034.026-.627-.016a17 17 0 0 1-.612-.05c-.003-.003.504-.871 1.127-1.929l1.168-1.984.034-.06L8.2 7.946A125 125 0 0 1 7.154 6.23c.002-.014 1.088-.117 1.193-.114l.068.002z"/>
</svg>
