<svg xmlns="http://www.w3.org/2000/svg" fill="none" viewBox="0 0 20 20">
  <path fill="#8c91c7" fill-rule="evenodd" d="M4.794 1.318C-.058 9.712-.041 9.682.009 9.808c.027.066 1.153 2.03 2.501 4.361l2.452 4.241 5.016.012 5.016.012 2.503-4.335C18.874 11.715 20 9.743 20 9.717s-1.126-1.998-2.503-4.382L14.995 1H4.978zm8.411.885c-.014.014-1.083.36-2.375.77l-2.35.744-.131-.177c-.358-.483-1.102-.722-1.694-.544l-.215.065-.229-.404c-.126-.222-.236-.42-.244-.441s1.622-.038 3.624-.038 3.628.011 3.614.025m1.608 2.86.556 2.698c.014.076-.037.12-.255.22-.15.07-.365.21-.477.314l-.203.188-2.917-1.68c-2.209-1.272-2.91-1.697-2.889-1.75.015-.04.041-.25.058-.47l.03-.398 2.709-.858c1.49-.472 2.74-.86 2.78-.862.056-.003.181.53.608 2.599M5.763 2.93l.228.398-.176.232a1.7 1.7 0 0 0-.25 1.512c.042.125.057.24.034.26L2.08 8.44c-.048.042.219-.455.592-1.102 2.31-4.007 2.793-4.83 2.827-4.818.021.007.14.192.266.41m11.03 3.533c.934 1.617 1.7 2.947 1.7 2.956s-.148.016-.327.016h-.327l-.073-.253c-.208-.714-.862-1.268-1.618-1.371-.136-.019-.247-.047-.247-.062s-.192-.952-.426-2.08l-.451-2.17c-.033-.158-.165-.38 1.768 2.964m-9.205-2.88c.63.323.78 1.196.292 1.713q-.303.323-.802.323c-.418 0-.753-.2-.94-.56-.3-.577-.086-1.218.502-1.5a1.1 1.1 0 0 1 .948.024m3.648 3.66c1.568.902 2.866 1.654 2.885 1.67s.002.133-.036.26a2.3 2.3 0 0 0 0 1.089c.038.126.06.239.047.25-.011.012-1.32.77-2.905 1.684l-2.884 1.662-.198-.182a1.9 1.9 0 0 0-.737-.422l-.177-.057V6.148l.198-.032c.241-.038.599-.228.772-.408.07-.074.14-.128.156-.12zM6.072 5.802c.044.049.206.145.36.214l.28.126v7.039l-.272.08a2 2 0 0 0-.451.201c-.174.118-.182.12-.289.038-.06-.046-1.045-.91-2.188-1.919l-2.08-1.835.132-.13c.225-.223 4.37-3.898 4.4-3.9.015-.002.064.037.108.086m10.473 2.672c.268.128.476.338.639.644.085.162.106.275.106.6s-.02.438-.106.6c-.277.52-.707.788-1.258.786a1.37 1.37 0 0 1-1.392-1.386c0-1.04 1.063-1.698 2.011-1.244m1.94 1.565c-.066.162-3.548 6.14-3.558 6.106-.006-.024.206-1.038.472-2.255l.484-2.212.305-.057c.168-.03.387-.09.488-.132.476-.2.942-.728 1.09-1.235l.073-.254h.33c.182 0 .324.018.315.04m-3.333 1.441.218.099-.581 2.662c-.32 1.464-.593 2.709-.607 2.766-.024.1-.108.075-2.534-.74-1.38-.462-2.607-.876-2.728-.918l-.219-.077-.022-.386a3.5 3.5 0 0 0-.052-.48c-.026-.083.317-.293 2.88-1.77l2.91-1.675.258.21c.142.116.357.255.477.31M3.839 12.567c.79.693 1.476 1.298 1.524 1.343.08.076.081.093.015.195-.04.061-.108.238-.152.392a1.76 1.76 0 0 0 .408 1.651l.202.22-.147.266c-.082.146-.166.272-.19.28-.033.011-3.387-5.729-3.445-5.898-.01-.028.065.026.165.12.1.093.83.737 1.62 1.43m3.609 1.245c.247.112.523.388.636.635.205.454.064 1.107-.312 1.437-.26.229-.47.304-.847.306-.278.002-.37-.02-.583-.136a1.238 1.238 0 0 1-.352-1.904c.342-.4.99-.55 1.458-.338m1.994 3.432c-1.898.007-3.46.004-3.469-.006-.01-.01.06-.15.154-.31l.171-.294.172.04c.095.022.331.038.526.037a1.67 1.67 0 0 0 1.373-.724l.157-.228 2.184.736 2.184.737z" clip-rule="evenodd"/>
  <path fill="#5aa2da" fill-rule="evenodd" d="M7.091 6.183a1.626 1.626 0 1 0 0-3.251 1.626 1.626 0 0 0 0 3.251m0-.565a1.06 1.06 0 1 0 0-2.12 1.06 1.06 0 0 0 0 2.12" clip-rule="evenodd"/>
  <path fill="#f43b7b" fill-rule="evenodd" d="M15.926 11.649a1.932 1.932 0 1 0 0-3.864 1.932 1.932 0 0 0 0 3.864m0-.672a1.26 1.26 0 1 0 0-2.52 1.26 1.26 0 0 0 0 2.52" clip-rule="evenodd"/>
  <path fill="#f66f4d" fill-rule="evenodd" d="M6.926 16.832a1.885 1.885 0 1 0 0-3.77 1.885 1.885 0 0 0 0 3.77m0-.656a1.23 1.23 0 1 0 0-2.458 1.23 1.23 0 0 0 0 2.458" clip-rule="evenodd"/>
</svg>
